<svg xmlns="http://www.w3.org/2000/svg">
<defs>
<font id="HelveticaNeueLTW1G-Hv" horiz-adv-x="296" >
  <font-face 
    font-family="HelveticaNeueLT W1G 65 Md"
    font-weight="750"
    font-stretch="normal"
    units-per-em="1000"
    panose-1="2 11 8 4 2 2 2 2 2 4"
    ascent="714"
    descent="-286"
    x-height="519"
    cap-height="714"
    bbox="-169 -248 1110 950"
    underline-thickness="50"
    underline-position="-100"
    stemh="144"
    stemv="170"
    unicode-range="U+000D-FB04"
  />
<missing-glyph horiz-adv-x="512" 
d="M278 117h-56v67h56v-67zM271 234h-46l-2 17c0 37 4 64 13 81s24 37 46 59c43 41 50 58 50 83c0 48 -35 85 -76 85s-74 -27 -82 -95l-50 8c9 95 63 137 135 137c71 0 124 -52 124 -131c0 -43 -12 -73 -63 -120c-25 -22 -39 -39 -43 -52s-6 -37 -6 -72zM50 50h412v617h-412
v-617zM0 718h512v-718h-512v718z" />
    <glyph glyph-name="napostrophe" unicode="&#x22;n" horiz-adv-x="799" 
d="M226 0v519h165v-71h2c32 53 101 86 163 86c173 0 187 -126 187 -201v-333h-170v303c0 50 -17 91 -85 91c-64 0 -92 -55 -92 -111v-283h-170zM13 528v186h159v-166c-1 -100 -50 -175 -159 -194v80c44 8 75 47 72 94h-72z" />
    <glyph glyph-name="IJ" unicode="IJ" horiz-adv-x="896" 
d="M64 0v714h186v-714h-186zM831 714v-488c0 -161 -83 -241 -250 -241c-189 0 -250 109 -250 268v31h175v-66c0 -47 25 -73 72 -73c43 0 67 24 67 93v476h186z" />
    <glyph glyph-name="ij" unicode="ij" horiz-adv-x="586" 
d="M233 714v-130h-170v130h170zM63 0v519h170v-519h-170zM523 714v-130h-170v130h170zM523 519v-519c0 -131 -52 -174 -172 -174h-86v138h34c35 1 54 11 54 48v507h170z" />
    <glyph glyph-name="fi" unicode="fi" horiz-adv-x="648" 
d="M94 0v409h-82v110h82c0 149 52 195 197 195c27 0 55 -2 82 -3v-120c-16 2 -31 3 -46 3c-39 0 -63 -5 -63 -52v-23h102v-110h-102v-409h-170zM585 714v-130h-170v130h170zM415 0v519h170v-519h-170z" />
    <glyph glyph-name="fl" unicode="fl" horiz-adv-x="648" 
d="M585 714v-714h-170v714h170zM94 0v409h-82v110h82c0 149 52 195 197 195c27 0 55 -2 82 -3v-120c-16 2 -31 3 -46 3c-39 0 -63 -5 -63 -52v-23h102v-110h-102v-409h-170z" />
    <glyph glyph-name="f_f" unicode="ff" horiz-adv-x="713" 
d="M94 0v409h-82v110h82c0 149 52 195 197 195c27 0 55 -1 77 -3v-120c-14 2 -26 3 -41 3c-39 0 -63 -5 -63 -52v-23h173c0 149 52 195 197 195c27 0 55 -2 82 -3v-120c-16 2 -31 3 -46 3c-39 0 -63 -5 -63 -52v-23h102v-110h-102v-409h-170v409h-173v-409h-170z" />
    <glyph glyph-name="f_f_i" unicode="ffi" horiz-adv-x="991" 
d="M94 0v409h-82v110h82c0 149 52 195 197 195c27 0 55 -1 77 -3v-120c-14 2 -26 3 -41 3c-39 0 -63 -5 -63 -52v-23h173c0 149 52 195 197 195c27 0 55 -2 82 -3v-120c-16 2 -31 3 -46 3c-39 0 -63 -5 -63 -52v-23h102v-110h-102v-409h-170v409h-173v-409h-170zM928 714
v-130h-170v130h170zM758 0v519h170v-519h-170z" />
    <glyph glyph-name="f_f_l" unicode="ffl" horiz-adv-x="991" 
d="M94 0v409h-82v110h82c0 149 52 195 197 195c27 0 55 -1 77 -3v-120c-14 2 -26 3 -41 3c-39 0 -63 -5 -63 -52v-23h173c0 149 52 195 197 195c27 0 55 -2 82 -3v-120c-16 2 -31 3 -46 3c-39 0 -63 -5 -63 -52v-23h102v-110h-102v-409h-170v409h-173v-409h-170zM758 0v714
h170v-714h-170z" />
    <glyph glyph-name=".notdef" horiz-adv-x="512" 
d="M278 117h-56v67h56v-67zM271 234h-46l-2 17c0 37 4 64 13 81s24 37 46 59c43 41 50 58 50 83c0 48 -35 85 -76 85s-74 -27 -82 -95l-50 8c9 95 63 137 135 137c71 0 124 -52 124 -131c0 -43 -12 -73 -63 -120c-25 -22 -39 -39 -43 -52s-6 -37 -6 -72zM50 50h412v617h-412
v-617zM0 718h512v-718h-512v718z" />
    <glyph glyph-name=".null" horiz-adv-x="500" 
 />
    <glyph glyph-name="CR" unicode="&#xd;" horiz-adv-x="0" 
 />
    <glyph glyph-name="space" unicode=" " horiz-adv-x="315" 
 />
    <glyph glyph-name="exclam" unicode="!" 
d="M55 0v186h186v-186h-186zM236 714v-177l-46 -301h-83l-46 301v177h175z" />
    <glyph glyph-name="quotedbl" unicode="&#x22;" horiz-adv-x="500" 
d="M62 354v360h144v-360h-144zM294 354v360h144v-360h-144z" />
    <glyph glyph-name="numbersign" unicode="#" horiz-adv-x="630" 
d="M369 405h-81l-15 -110h81zM531 295v-105h-77l-26 -190h-115l26 190h-81l-26 -190h-115l26 190h-74v105h89l15 110h-74v105h89l26 187h115l-26 -187h81l26 187h115l-26 -187h62v-105h-77l-15 -110h62z" />
    <glyph glyph-name="dollar" unicode="$" horiz-adv-x="630" 
d="M345 819v-91c133 -8 258 -78 258 -233h-186c3 51 -29 75 -72 86v-136c23 -7 49 -12 74 -19c103 -29 207 -77 207 -206c0 -167 -135 -230 -281 -235v-90h-47v90c-156 5 -293 74 -293 251h186c4 -72 43 -101 107 -108v157c-19 5 -40 10 -63 17c-101 29 -209 74 -209 206
c0 155 141 216 272 221v90h47zM298 457v128c-39 0 -86 -17 -86 -65c0 -32 35 -48 86 -63zM345 272v-143c44 3 95 21 95 69c0 39 -38 58 -95 74z" />
    <glyph glyph-name="percent" unicode="%" horiz-adv-x="1019" 
d="M719 183c0 -39 0 -112 55 -112c53 0 54 73 54 112s-1 112 -54 112c-55 0 -55 -73 -55 -112zM602 183c0 109 57 192 172 192c118 0 171 -77 171 -192c0 -113 -48 -192 -171 -192c-120 0 -172 80 -172 192zM75 514c0 109 57 192 172 192c118 0 171 -77 171 -192
c0 -113 -48 -192 -171 -192c-120 0 -172 80 -172 192zM359 -27h-99l404 751h99zM192 514c0 -39 0 -112 55 -112c53 0 54 73 54 112s-1 112 -54 112c-55 0 -55 -73 -55 -112z" />
    <glyph glyph-name="ampersand" unicode="&#x26;" horiz-adv-x="722" 
d="M334 466c35 21 66 45 66 88c0 35 -25 55 -60 55c-31 0 -56 -22 -56 -53c0 -39 27 -62 50 -90zM527 0l-50 60c-63 -51 -125 -75 -205 -75c-127 0 -238 86 -238 218c0 103 76 168 162 208c-35 39 -63 82 -63 137c0 112 101 181 204 181c107 0 202 -71 202 -185
c0 -84 -50 -141 -122 -177l74 -89c14 21 23 45 26 70h146c-7 -64 -35 -127 -79 -174l150 -174h-207zM387 174l-106 125c-35 -16 -83 -51 -83 -94c0 -50 48 -82 94 -82c32 0 68 26 95 51z" />
    <glyph glyph-name="quotesingle" unicode="'" 
d="M76 354v360h144v-360h-144z" />
    <glyph glyph-name="parenleft" unicode="(" 
d="M161 729h144c-68 -139 -113 -294 -110 -455c-3 -155 42 -309 110 -448h-144c-83 160 -122 277 -125 448c3 177 42 294 125 455z" />
    <glyph glyph-name="parenright" unicode=")" 
d="M-9 729h144c83 -161 122 -278 125 -455c-3 -171 -42 -288 -125 -448h-144c68 139 113 293 110 448c3 161 -42 316 -110 455z" />
    <glyph glyph-name="asterisk" unicode="*" horiz-adv-x="444" 
d="M297 499l77 -103l-79 -59l-75 107l-74 -107l-78 58l79 104l-122 38l31 93l116 -44v128h99v-128l116 44l31 -93z" />
    <glyph glyph-name="plus" unicode="+" horiz-adv-x="600" 
d="M228 325v181h144v-181h180v-144h-180v-181h-144v181h-180v144h180z" />
    <glyph glyph-name="comma" unicode="," horiz-adv-x="316" 
d="M65 0v186h186v-165c0 -144 -111 -187 -186 -195v80c55 15 75 42 82 94h-82z" />
    <glyph glyph-name="hyphen" unicode="-" horiz-adv-x="407" 
d="M359 200h-311v144h311v-144z" />
    <glyph glyph-name="period" unicode="." horiz-adv-x="316" 
d="M65 0v186h186v-186h-186z" />
    <glyph glyph-name="slash" unicode="/" horiz-adv-x="407" 
d="M-9 -15l269 744h156l-269 -744h-156z" />
    <glyph glyph-name="zero" unicode="0" horiz-adv-x="630" 
d="M310 -9c-197 0 -273 172 -273 358c0 187 76 357 273 357c204 0 284 -170 284 -357c0 -186 -80 -358 -284 -358zM315 129c112 0 115 129 115 220s-3 219 -115 219c-108 0 -114 -128 -114 -219s6 -220 114 -220z" />
    <glyph glyph-name="one" unicode="1" horiz-adv-x="630" 
d="M272 428h-167v125c99 -3 198 35 206 144h141v-697h-180v428z" />
    <glyph glyph-name="two" unicode="2" horiz-adv-x="630" 
d="M591 0h-559c1 89 40 172 109 232c60 52 127 87 182 122c53 35 91 69 91 116c0 55 -35 87 -90 87c-90 0 -116 -65 -116 -141h-159c-11 173 101 290 274 290c138 0 261 -72 261 -221c0 -135 -96 -183 -198 -247c-54 -32 -80 -50 -126 -94h331v-144z" />
    <glyph glyph-name="three" unicode="3" horiz-adv-x="630" 
d="M257 308v118c15 1 30 -2 45 -1c51 0 113 13 113 73c0 45 -44 70 -100 70c-69 0 -109 -35 -108 -99h-159c3 156 118 237 266 237c121 0 260 -51 260 -193c0 -61 -33 -125 -97 -136v-2c80 -21 119 -77 119 -160c0 -157 -143 -224 -282 -224c-162 0 -296 83 -285 262h159
c-2 -83 40 -124 125 -124c58 0 113 26 113 86c0 77 -56 95 -124 95c-15 0 -30 -1 -45 -2z" />
    <glyph glyph-name="four" unicode="4" horiz-adv-x="630" 
d="M163 299h178v225h-2zM506 299h91v-144h-91v-155h-170v155h-305v159l312 383h163v-398z" />
    <glyph glyph-name="five" unicode="5" horiz-adv-x="630" 
d="M22 216h170c0 -55 61 -87 112 -87c67 0 116 44 116 112s-39 115 -110 115c-48 0 -84 -10 -111 -53h-154l68 394h440v-144h-309l-26 -127h2c35 35 83 50 136 50c143 0 234 -82 234 -227c0 -172 -124 -258 -286 -258c-153 0 -271 57 -282 225z" />
    <glyph glyph-name="six" unicode="6" horiz-adv-x="630" 
d="M585 516h-159c-7 28 -19 43 -35 54c-16 9 -34 11 -49 11c-97 0 -136 -98 -139 -177h2c35 57 96 74 163 74c128 0 226 -103 226 -230c0 -165 -127 -257 -279 -257c-205 0 -278 174 -278 353c0 196 94 362 305 362c124 0 222 -63 243 -190zM207 237c0 -60 43 -108 110 -108
c71 0 118 50 118 107c0 65 -42 117 -119 117c-64 0 -109 -52 -109 -116z" />
    <glyph glyph-name="seven" unicode="7" horiz-adv-x="630" 
d="M60 543v154h507v-137c-30 -25 -101 -122 -149 -225c-57 -124 -72 -243 -73 -335h-183c3 82 29 214 92 335c48 107 119 193 140 206v2h-334z" />
    <glyph glyph-name="eight" unicode="8" horiz-adv-x="630" 
d="M316 581c-56 0 -106 -22 -106 -80c0 -62 53 -82 106 -82c51 0 107 22 107 82c0 57 -52 80 -107 80zM29 205c0 81 54 152 134 165v2c-68 16 -104 74 -104 142c0 139 142 192 259 192c119 0 256 -54 256 -193c0 -63 -39 -128 -103 -141v-2c80 -16 131 -77 131 -165
c0 -154 -146 -214 -285 -214c-137 0 -288 51 -288 214zM317 314c-60 0 -118 -32 -118 -100c0 -69 57 -98 117 -98c58 0 116 27 116 98c0 64 -51 100 -115 100z" />
    <glyph glyph-name="nine" unicode="9" horiz-adv-x="630" 
d="M46 181h159c4 -23 17 -38 34 -49s39 -16 60 -16c92 0 124 85 129 177h-2c-32 -54 -95 -75 -156 -75c-139 0 -233 101 -233 237c0 148 123 251 267 251c203 0 290 -154 290 -341c0 -201 -84 -374 -305 -374c-128 0 -219 61 -243 190zM308 343c72 0 116 51 116 114
s-44 111 -117 111c-64 0 -111 -51 -111 -109c0 -65 41 -116 112 -116z" />
    <glyph glyph-name="colon" unicode=":" horiz-adv-x="316" 
d="M65 0v186h186v-186h-186zM251 519v-186h-186v186h186z" />
    <glyph glyph-name="semicolon" unicode=";" horiz-adv-x="316" 
d="M251 519v-186h-186v186h186zM65 0v186h186v-165c0 -144 -111 -187 -186 -195v80c55 15 75 42 82 94h-82z" />
    <glyph glyph-name="less" unicode="&#x3c;" horiz-adv-x="600" 
d="M554 -8l-508 190v142l508 190v-154l-307 -106v-2l307 -106v-154z" />
    <glyph glyph-name="equal" unicode="=" horiz-adv-x="600" 
d="M552 201v-144h-504v144h504zM552 449v-144h-504v144h504z" />
    <glyph glyph-name="greater" unicode="&#x3e;" horiz-adv-x="600" 
d="M46 -8v154l307 106v2l-307 106v154l508 -190v-142z" />
    <glyph glyph-name="question" unicode="?" horiz-adv-x="574" 
d="M182 0v186h186v-186h-186zM206 480h-175c3 158 106 249 262 249c125 0 250 -66 250 -204c0 -97 -48 -132 -123 -180c-52 -34 -66 -49 -66 -109h-158v50c0 77 44 112 81 139c41 27 80 49 80 99c0 39 -29 61 -65 61c-56 0 -83 -33 -86 -86v-19z" />
    <glyph glyph-name="at" unicode="@" horiz-adv-x="800" 
d="M517 488l9 48h94l-44 -238c-6 -17 -12 -55 7 -55c43 0 93 44 93 152c0 160 -110 242 -262 242c-166 0 -272 -117 -272 -281c0 -175 120 -279 289 -279c76 0 140 22 189 59h98c-72 -99 -172 -151 -295 -151c-213 0 -388 154 -388 371c0 212 171 373 382 373
c176 0 348 -117 348 -302c0 -229 -187 -289 -247 -289c-37 0 -61 17 -62 49h-2c-20 -27 -51 -50 -96 -50c-86 0 -165 82 -165 181c0 117 78 228 201 228c51 0 92 -17 123 -58zM386 252c63 0 102 48 102 105c0 48 -31 81 -79 81c-58 0 -99 -52 -99 -104c0 -47 27 -82 76 -82z
" />
    <glyph glyph-name="A" unicode="A" horiz-adv-x="704" 
d="M-9 0l267 714h189l267 -714h-194l-44 128h-249l-45 -128h-191zM351 516l-81 -250h162l-79 250h-2z" />
    <glyph glyph-name="B" unicode="B" horiz-adv-x="722" 
d="M250 570v-137h144c32 0 76 17 76 68c0 52 -37 69 -76 69h-144zM64 0v714h334c123 3 258 -31 258 -179c0 -64 -38 -116 -94 -144c76 -23 123 -88 123 -169c0 -170 -125 -222 -278 -222h-343zM250 313v-164h149c59 0 100 21 100 80c0 63 -44 84 -100 84h-149z" />
    <glyph glyph-name="C" unicode="C" horiz-adv-x="759" 
d="M724 459h-186c-11 72 -65 110 -144 110c-120 0 -166 -105 -166 -212s46 -212 166 -212c88 0 137 49 144 132h186c-11 -185 -145 -292 -326 -292c-217 0 -356 165 -356 372s139 372 356 372c155 0 321 -98 326 -270z" />
    <glyph glyph-name="D" unicode="D" horiz-adv-x="759" 
d="M250 554v-394h88c141 3 197 58 197 201c0 131 -69 193 -197 193h-88zM64 0v714h307c219 0 350 -133 350 -354c0 -234 -133 -360 -350 -360h-307z" />
    <glyph glyph-name="E" unicode="E" horiz-adv-x="685" 
d="M64 0v714h569v-149h-383v-125h350v-144h-350v-136h393v-160h-579z" />
    <glyph glyph-name="F" unicode="F" horiz-adv-x="611" 
d="M64 0v714h526v-149h-340v-146h294v-144h-294v-275h-186z" />
    <glyph glyph-name="G" unicode="G" horiz-adv-x="778" 
d="M723 391v-391h-120l-11 78c-48 -69 -135 -93 -199 -93c-217 0 -356 165 -356 372s139 372 356 372c148 0 307 -78 323 -258h-186c-7 61 -65 98 -141 98c-120 0 -166 -105 -166 -212s46 -212 166 -212c92 0 153 43 164 108h-130v138h300z" />
    <glyph glyph-name="H" unicode="H" horiz-adv-x="741" 
d="M62 0v714h186v-260h245v260h186v-714h-186v294h-245v-294h-186z" />
    <glyph glyph-name="I" unicode="I" horiz-adv-x="315" 
d="M64 0v714h186v-714h-186z" />
    <glyph glyph-name="J" unicode="J" horiz-adv-x="593" 
d="M528 714v-488c0 -161 -83 -241 -250 -241c-189 0 -250 109 -250 268v31h175v-66c0 -47 25 -73 72 -73c43 0 67 24 67 93v476h186z" />
    <glyph glyph-name="K" unicode="K" horiz-adv-x="741" 
d="M64 0v714h186v-274l235 274h231l-264 -281l297 -433h-231l-192 300l-76 -80v-220h-186z" />
    <glyph glyph-name="L" unicode="L" horiz-adv-x="611" 
d="M64 0v714h186v-554h333v-160h-519z" />
    <glyph glyph-name="M" unicode="M" horiz-adv-x="926" 
d="M65 0v714h274l123 -476h2l123 476h274v-714h-175v542h-2l-150 -542h-142l-150 542h-2v-542h-175z" />
    <glyph glyph-name="N" unicode="N" horiz-adv-x="741" 
d="M62 0v714h191l248 -440h2v440h175v-714h-191l-248 445h-2v-445h-175z" />
    <glyph glyph-name="O" unicode="O" horiz-adv-x="778" 
d="M223 357c0 -107 46 -212 166 -212s166 105 166 212s-46 212 -166 212s-166 -105 -166 -212zM37 357c0 207 128 372 352 372s352 -165 352 -372s-128 -372 -352 -372s-352 165 -352 372z" />
    <glyph glyph-name="P" unicode="P" horiz-adv-x="685" 
d="M250 565v-183h125c59 0 100 24 100 89c0 68 -43 94 -100 94h-125zM64 0v714h339c133 0 258 -61 258 -230c0 -177 -101 -246 -258 -246h-153v-238h-186z" />
    <glyph glyph-name="Q" unicode="Q" horiz-adv-x="778" 
d="M370 204l83 87l70 -68c23 39 32 86 32 134c0 107 -46 212 -166 212s-166 -105 -166 -212s46 -212 166 -212c15 0 27 1 37 4zM738 14l-85 -88l-98 96c-48 -25 -103 -37 -166 -37c-224 0 -352 165 -352 372s128 372 352 372s352 -165 352 -372c0 -103 -30 -192 -89 -260z
" />
    <glyph glyph-name="R" unicode="R" horiz-adv-x="722" 
d="M250 565v-161h156c56 0 86 29 86 84c0 53 -42 77 -94 77h-148zM64 0v714h364c125 0 250 -57 250 -201c0 -77 -36 -150 -112 -179v-2c75 -19 99 -103 104 -171c3 -31 5 -133 30 -161h-184c-16 25 -18 93 -21 114c-5 72 -16 146 -104 146h-141v-260h-186z" />
    <glyph glyph-name="S" unicode="S" horiz-adv-x="667" 
d="M23 240h186c4 -84 55 -111 135 -111c56 0 114 20 114 73c0 64 -102 75 -205 104c-101 29 -209 74 -209 206c0 156 157 217 291 217c141 0 286 -70 286 -230h-186c3 64 -59 86 -115 86c-40 0 -90 -14 -90 -61c0 -56 103 -65 207 -94c103 -29 207 -77 207 -206
c0 -181 -154 -239 -311 -239c-163 0 -310 72 -310 255z" />
    <glyph glyph-name="T" unicode="T" horiz-adv-x="648" 
d="M630 714v-160h-213v-554h-186v554h-213v160h612z" />
    <glyph glyph-name="U" unicode="U" horiz-adv-x="741" 
d="M681 714v-419c0 -207 -95 -310 -311 -310s-311 103 -311 310v419h186v-430c0 -92 33 -139 125 -139s125 47 125 139v430h186z" />
    <glyph glyph-name="V" unicode="V" horiz-adv-x="648" 
d="M659 714l-231 -714h-214l-225 714h194l140 -531h2l140 531h194z" />
    <glyph glyph-name="W" unicode="W" horiz-adv-x="963" 
d="M963 714l-197 -714h-186l-98 492h-2l-98 -492h-189l-193 714h186l101 -522h2l105 522h175l105 -522h2l101 522h186z" />
    <glyph glyph-name="X" unicode="X" horiz-adv-x="704" 
d="M-8 0l254 375l-233 339h219l120 -222l127 222h212l-231 -339l252 -375h-226l-134 238l-146 -238h-214z" />
    <glyph glyph-name="Y" unicode="Y" horiz-adv-x="667" 
d="M687 714l-260 -448v-266h-186v266l-260 448h211l142 -290l142 290h211z" />
    <glyph glyph-name="Z" unicode="Z" horiz-adv-x="667" 
d="M24 0v152l366 402h-344v160h584v-144l-375 -410h388v-160h-619z" />
    <glyph glyph-name="bracketleft" unicode="[" horiz-adv-x="370" 
d="M69 -174v903h294v-144h-135v-615h135v-144h-294z" />
    <glyph glyph-name="backslash" unicode="\" horiz-adv-x="407" 
d="M147 729l269 -744h-156l-269 744h156z" />
    <glyph glyph-name="bracketright" unicode="]" horiz-adv-x="370" 
d="M301 729v-903h-294v144h135v615h-135v144h294z" />
    <glyph glyph-name="asciicircum" unicode="^" horiz-adv-x="600" 
d="M206 332h-159l162 365h182l162 -365h-160l-93 238z" />
    <glyph glyph-name="underscore" unicode="_" horiz-adv-x="500" 
d="M500 -125h-500v50h500v-50z" />
    <glyph glyph-name="grave" unicode="`" 
d="M145 725l97 -149h-120l-157 149h180z" />
    <glyph glyph-name="a" unicode="a" horiz-adv-x="593" 
d="M209 359h-159c3 68 34 112 81 139s105 36 165 36c123 0 242 -27 242 -174v-227c0 -44 0 -92 20 -133h-171c-7 16 -7 32 -10 49c-44 -47 -108 -64 -171 -64c-100 0 -177 50 -177 157c0 168 184 156 302 180c29 7 45 16 45 48c0 39 -47 54 -82 54c-49 0 -77 -22 -85 -65z
M199 149c0 -43 32 -59 71 -59c81 0 108 45 104 153c-24 -15 -68 -17 -105 -28c-39 -9 -70 -25 -70 -66z" />
    <glyph glyph-name="b" unicode="b" horiz-adv-x="630" 
d="M325 404c-45 0 -104 -31 -104 -139c0 -91 26 -150 103 -150c75 0 102 79 102 150c0 66 -25 139 -101 139zM57 0v714h170v-252h2c35 48 84 72 148 72c147 0 219 -128 219 -263c0 -147 -69 -286 -232 -286c-61 0 -109 25 -143 75h-2v-60h-162z" />
    <glyph glyph-name="c" unicode="c" horiz-adv-x="593" 
d="M560 329h-165c0 44 -40 75 -83 75c-95 0 -110 -81 -110 -153c0 -67 29 -136 101 -136c60 0 89 33 97 89h165c-16 -140 -122 -219 -261 -219c-156 0 -272 106 -272 266c0 165 105 283 272 283c130 0 243 -69 256 -205z" />
    <glyph glyph-name="d" unicode="d" horiz-adv-x="630" 
d="M571 714v-714h-162v60h-2c-34 -50 -82 -75 -143 -75c-163 0 -232 139 -232 286c0 135 72 263 219 263c63 0 113 -24 148 -71h2v251h170zM306 404c-77 0 -104 -73 -104 -139c0 -71 27 -150 104 -150c83 0 101 79 101 145c0 75 -27 144 -101 144z" />
    <glyph glyph-name="e" unicode="e" horiz-adv-x="611" 
d="M583 218h-381c3 -72 44 -118 116 -118c41 0 81 18 97 57h159c-32 -120 -142 -172 -258 -172c-169 0 -284 102 -284 276c0 159 127 273 280 273c186 0 279 -140 271 -316zM202 313h211c-3 59 -44 106 -101 106c-60 0 -99 -42 -110 -106z" />
    <glyph glyph-name="f" unicode="f" horiz-adv-x="370" 
d="M94 0v409h-82v110h82c0 149 52 195 197 195c27 0 55 -2 82 -3v-120c-16 2 -31 3 -46 3c-39 0 -63 -5 -63 -52v-23h102v-110h-102v-409h-170z" />
    <glyph glyph-name="g" unicode="g" horiz-adv-x="611" 
d="M559 519v-456c0 -84 -16 -245 -259 -245c-120 0 -236 27 -255 166h170c4 -22 14 -37 29 -45c14 -7 35 -11 62 -11c81 0 89 57 89 121v49h-2c-31 -48 -82 -76 -138 -76c-157 0 -228 112 -228 258c0 138 81 254 228 254c63 0 109 -27 139 -80h2v65h163zM398 273
c0 67 -27 131 -102 131s-99 -66 -99 -130c0 -61 29 -122 98 -122c72 0 103 57 103 121z" />
    <glyph glyph-name="h" unicode="h" horiz-adv-x="630" 
d="M57 0v714h170v-266h2c27 53 96 86 158 86c173 0 187 -126 187 -201v-333h-170v251v52c0 50 -17 91 -85 91c-64 0 -92 -55 -92 -111v-283h-170z" />
    <glyph glyph-name="i" unicode="i" 
d="M233 714v-130h-170v130h170zM63 0v519h170v-519h-170z" />
    <glyph glyph-name="j" unicode="j" 
d="M233 714v-130h-170v130h170zM233 519v-519c0 -131 -52 -174 -172 -174h-86v138h34c35 1 54 11 54 48v507h170z" />
    <glyph glyph-name="k" unicode="k" horiz-adv-x="593" 
d="M57 0v714h170v-368l155 173h197l-190 -196l214 -323h-205l-127 209l-44 -43v-166h-170z" />
    <glyph glyph-name="l" unicode="l" 
d="M63 0v714h170v-714h-170z" />
    <glyph glyph-name="m" unicode="m" horiz-adv-x="926" 
d="M57 0v519h165v-71h2c31 52 85 86 149 86c65 0 123 -21 151 -84c41 56 91 84 162 84c165 0 183 -125 183 -224v-310h-170v305c0 56 -27 89 -71 89c-73 0 -80 -56 -80 -140v-254h-170v295c0 61 -17 99 -64 99c-61 0 -87 -36 -87 -141v-253h-170z" />
    <glyph glyph-name="n" unicode="n" horiz-adv-x="630" 
d="M57 0v519h165v-71h2c32 53 101 86 163 86c173 0 187 -126 187 -201v-333h-170v303c0 50 -17 91 -85 91c-64 0 -92 -55 -92 -111v-283h-170z" />
    <glyph glyph-name="o" unicode="o" horiz-adv-x="611" 
d="M32 259c0 156 112 275 273 275s274 -119 274 -275s-113 -274 -274 -274s-273 118 -273 274zM202 259c0 -67 24 -144 103 -144c80 0 104 77 104 144c0 66 -24 145 -104 145c-79 0 -103 -79 -103 -145z" />
    <glyph glyph-name="p" unicode="p" horiz-adv-x="630" 
d="M57 -174v693h162v-60h2c34 50 82 75 143 75c163 0 232 -139 232 -286c0 -135 -72 -263 -219 -263c-63 0 -113 24 -148 71h-2v-230h-170zM325 404c-45 0 -104 -31 -104 -139c0 -91 26 -150 103 -150c75 0 102 79 102 150c0 66 -25 139 -101 139z" />
    <glyph glyph-name="q" unicode="q" horiz-adv-x="630" 
d="M571 519v-693h-170v231h-2c-35 -48 -85 -72 -148 -72c-147 0 -219 128 -219 263c0 147 69 286 232 286c61 0 109 -25 143 -75h2v60h162zM202 254c0 -66 25 -139 101 -139c45 0 104 32 104 140c0 69 -20 149 -101 149c-77 0 -104 -79 -104 -150z" />
    <glyph glyph-name="r" unicode="r" horiz-adv-x="426" 
d="M63 0v519h165v-91h2c25 67 83 101 156 101c13 0 27 -1 40 -4v-155c-23 7 -42 10 -65 10c-84 0 -128 -58 -128 -123v-257h-170z" />
    <glyph glyph-name="s" unicode="s" horiz-adv-x="556" 
d="M27 171h162c0 -27 11 -45 28 -58c16 -12 39 -18 63 -18c32 0 80 15 80 55c0 41 -54 47 -83 55c-107 27 -241 30 -241 170c0 124 135 159 237 159c113 0 234 -33 239 -168h-157c0 21 -7 36 -22 45c-13 9 -31 13 -54 13c-28 0 -73 -3 -73 -39c0 -48 114 -59 192 -75
c104 -21 132 -97 132 -140c0 -139 -132 -185 -249 -185c-124 0 -249 41 -254 186z" />
    <glyph glyph-name="t" unicode="t" horiz-adv-x="389" 
d="M370 519v-110h-105v-236c0 -41 24 -50 61 -50c15 0 29 2 44 2v-125c-31 -1 -62 -5 -93 -5c-145 0 -182 43 -182 183v231h-86v110h86v157h170v-157h105z" />
    <glyph glyph-name="u" unicode="u" horiz-adv-x="630" 
d="M573 519v-519h-165v71h-2c-32 -53 -98 -86 -158 -86c-149 0 -192 86 -192 222v312h170v-301c0 -69 29 -93 84 -93c36 0 93 24 93 116v278h170z" />
    <glyph glyph-name="v" unicode="v" horiz-adv-x="537" 
d="M540 519l-174 -519h-196l-173 519h177l95 -343h2l96 343h173z" />
    <glyph glyph-name="w" unicode="w" horiz-adv-x="833" 
d="M833 519l-162 -519h-172l-82 345h-2l-81 -345h-172l-162 519h172l87 -336h2l74 336h162l76 -335h2l85 335h173z" />
    <glyph glyph-name="x" unicode="x" horiz-adv-x="537" 
d="M-7 0l180 272l-165 247h188l73 -124l73 124h180l-162 -244l184 -275h-188l-90 150l-85 -150h-188z" />
    <glyph glyph-name="y" unicode="y" horiz-adv-x="537" 
d="M545 519l-205 -565c-40 -114 -103 -128 -217 -128h-80v138h59c39 0 68 22 68 58c0 28 -33 108 -43 136l-134 361h180l98 -338h2l98 338h174z" />
    <glyph glyph-name="z" unicode="z" horiz-adv-x="537" 
d="M22 0v132l259 257h-238v130h454v-129l-259 -260h278v-130h-494z" />
    <glyph glyph-name="braceleft" unicode="{" horiz-adv-x="370" 
d="M356 729v-120h-41c-49 0 -53 -38 -53 -65v-164c0 -78 -74 -93 -115 -96v-3c41 -3 115 -11 115 -105v-165c0 -27 4 -65 53 -65h41v-120h-118c-75 0 -135 41 -135 148v173c0 63 -65 70 -89 70v120c24 0 89 6 89 61v188c0 108 60 143 135 143h118z" />
    <glyph glyph-name="bar" unicode="|" horiz-adv-x="222" 
d="M39 -214v1000h144v-1000h-144z" />
    <glyph glyph-name="braceright" unicode="}" horiz-adv-x="370" 
d="M14 -174v120h41c49 0 53 38 53 65v165c0 94 74 102 115 105v3c-41 3 -115 18 -115 96v164c0 27 -4 65 -53 65h-41v120h118c75 0 135 -35 135 -143v-188c0 -55 65 -61 89 -61v-120c-24 0 -89 -7 -89 -70v-173c0 -107 -60 -148 -135 -148h-118z" />
    <glyph glyph-name="asciitilde" unicode="~" horiz-adv-x="600" 
d="M495 363l36 -130c-29 -43 -63 -86 -125 -86c-37 0 -69 14 -102 33c-32 19 -68 35 -115 35c-44 0 -68 -37 -84 -72l-36 130c21 43 59 86 125 86c35 0 72 -15 111 -32c37 -16 75 -36 102 -36c41 0 64 37 88 72z" />
    <glyph glyph-name="uni00A0" unicode="&#xa0;" horiz-adv-x="315" 
 />
    <glyph glyph-name="Agrave" unicode="&#xc0;" horiz-adv-x="704" 
d="M-9 0l267 714h189l267 -714h-194l-44 128h-249l-45 -128h-191zM351 516l-81 -250h162l-79 250h-2zM339 911l97 -149h-120l-157 149h180z" />
    <glyph glyph-name="Aacute" unicode="&#xc1;" horiz-adv-x="704" 
d="M-9 0l267 714h189l267 -714h-194l-44 128h-249l-45 -128h-191zM351 516l-81 -250h162l-79 250h-2zM367 911h180l-157 -149h-120z" />
    <glyph glyph-name="Acircumflex" unicode="&#xc2;" horiz-adv-x="704" 
d="M-9 0l267 714h189l267 -714h-194l-44 128h-249l-45 -128h-191zM351 516l-81 -250h162l-79 250h-2zM353 842l-60 -80h-128l112 149h152l112 -149h-128z" />
    <glyph glyph-name="Atilde" unicode="&#xc3;" horiz-adv-x="704" 
d="M-9 0l267 714h189l267 -714h-194l-44 128h-249l-45 -128h-191zM351 516l-81 -250h162l-79 250h-2zM471 904h71c-8 -69 -44 -127 -119 -127c-31 0 -57 9 -81 18s-45 18 -64 18c-23 0 -37 -21 -44 -45h-71c8 65 50 136 121 136c27 0 53 -9 80 -20c25 -11 49 -21 65 -21
c23 0 35 17 42 41z" />
    <glyph glyph-name="Adieresis" unicode="&#xc4;" horiz-adv-x="704" 
d="M-9 0l267 714h189l267 -714h-194l-44 128h-249l-45 -128h-191zM351 516l-81 -250h162l-79 250h-2zM172 774v125h150v-125h-150zM535 774h-150v125h150v-125z" />
    <glyph glyph-name="Amacron" unicode="&#x100;" horiz-adv-x="704" 
d="M-9 0l267 714h189l267 -714h-194l-44 128h-249l-45 -128h-191zM351 516l-81 -250h162l-79 250h-2zM526 793h-345v86h345v-86z" />
    <glyph glyph-name="Abreve" unicode="&#x102;" horiz-adv-x="704" 
d="M-9 0l267 714h189l267 -714h-194l-44 128h-249l-45 -128h-191zM351 516l-81 -250h162l-79 250h-2zM179 913h71c8 -57 60 -68 103 -68s95 11 103 68h71c0 -93 -73 -154 -174 -154s-174 61 -174 154z" />
    <glyph glyph-name="Aring" unicode="&#xc5;" horiz-adv-x="704" 
d="M-9 0l267 714h189l267 -714h-194l-44 128h-249l-45 -128h-191zM351 516l-81 -250h162l-79 250h-2zM353 794c29 0 52 23 52 52c0 31 -23 52 -52 52s-52 -21 -52 -52c0 -29 23 -52 52 -52zM353 742c-62 -4 -110 47 -107 104c0 63 46 104 107 104s107 -40 107 -104
c0 -61 -46 -104 -107 -104z" />
    <glyph glyph-name="Aringacute" unicode="&#x1fa;" horiz-adv-x="704" 
d="M-9 0l266 687c-5 12 -7 25 -7 39c0 58 41 96 102 96c62 0 102 -37 102 -96c0 -14 -3 -26 -7 -37l267 -689h-194l-44 128h-249l-45 -128h-191zM351 507l-81 -241h162l-79 241h-2zM361 950h157l-121 -107h-108zM352 773c-27 0 -47 -18 -47 -47c0 -27 20 -47 47 -47
s47 20 47 47c0 29 -20 47 -47 47z" />
    <glyph glyph-name="Aogonek" unicode="&#x104;" horiz-adv-x="704" 
d="M544 0h-24l-44 128h-249l-45 -128h-191l267 714h189l267 -714h-96c-57 -59 -82 -89 -82 -124c0 -23 14 -33 36 -33c19 0 36 8 57 30l53 -25c-33 -51 -78 -82 -140 -82c-61 0 -105 30 -105 90c0 42 23 84 107 144zM351 516l-81 -250h162l-79 250h-2z" />
    <glyph glyph-name="AE" unicode="&#xc6;" horiz-adv-x="1020" 
d="M-14 0l334 714h648v-149h-328v-125h300v-144h-300v-136h338v-160h-518v128h-218l-58 -128h-198zM428 565l-130 -299h162v299h-32z" />
    <glyph glyph-name="AEacute" unicode="&#x1fc;" horiz-adv-x="1020" 
d="M621 911h180l-157 -149h-120zM-14 0l334 714h648v-149h-328v-125h300v-144h-300v-136h338v-160h-518v128h-218l-58 -128h-198zM428 565l-130 -299h162v299h-32z" />
    <glyph glyph-name="Cacute" unicode="&#x106;" horiz-adv-x="759" 
d="M724 459h-186c-11 72 -65 110 -144 110c-120 0 -166 -105 -166 -212s46 -212 166 -212c88 0 137 49 144 132h186c-11 -185 -145 -292 -326 -292c-217 0 -356 165 -356 372s139 372 356 372c155 0 321 -98 326 -270zM425 911h180l-157 -149h-120z" />
    <glyph glyph-name="Ccircumflex" unicode="&#x108;" horiz-adv-x="759" 
d="M724 459h-186c-11 72 -65 110 -144 110c-120 0 -166 -105 -166 -212s46 -212 166 -212c88 0 137 49 144 132h186c-11 -185 -145 -292 -326 -292c-217 0 -356 165 -356 372s139 372 356 372c155 0 321 -98 326 -270zM401 842l-60 -80h-128l112 149h152l112 -149h-128z" />
    <glyph glyph-name="Ccaron" unicode="&#x10c;" horiz-adv-x="759" 
d="M724 459h-186c-11 72 -65 110 -144 110c-120 0 -166 -105 -166 -212s46 -212 166 -212c88 0 137 49 144 132h186c-11 -185 -145 -292 -326 -292c-217 0 -356 165 -356 372s139 372 356 372c155 0 321 -98 326 -270zM477 762h-152l-112 149h128l60 -80l60 80h128z" />
    <glyph glyph-name="Cdotaccent" unicode="&#x10a;" horiz-adv-x="759" 
d="M724 459h-186c-11 72 -65 110 -144 110c-120 0 -166 -105 -166 -212s46 -212 166 -212c88 0 137 49 144 132h186c-11 -185 -145 -292 -326 -292c-217 0 -356 165 -356 372s139 372 356 372c155 0 321 -98 326 -270zM477 774h-150v125h150v-125z" />
    <glyph glyph-name="Ccedilla" unicode="&#xc7;" horiz-adv-x="759" 
d="M724 459h-186c-11 72 -65 110 -144 110c-120 0 -166 -105 -166 -212s46 -212 166 -212c88 0 137 49 144 132h186c-11 -182 -141 -288 -317 -292l-30 -45l2 -2c13 4 24 5 40 5c37 0 85 -20 85 -80c0 -72 -58 -97 -134 -97c-40 0 -80 11 -112 27l20 50
c31 -13 54 -20 85 -20c30 0 47 12 47 37c0 21 -15 36 -45 36c-15 0 -25 -3 -38 -7l-23 22l49 76c-191 21 -311 177 -311 370c0 207 139 372 356 372c155 0 321 -98 326 -270z" />
    <glyph glyph-name="Dcaron" unicode="&#x10e;" horiz-adv-x="759" 
d="M250 554v-394h88c141 3 197 58 197 201c0 131 -69 193 -197 193h-88zM64 0v714h307c219 0 350 -133 350 -354c0 -234 -133 -360 -350 -360h-307zM411 762h-152l-112 149h128l60 -80l60 80h128z" />
    <glyph glyph-name="Dcroat" unicode="&#x110;" horiz-adv-x="759" 
d="M64 0v314h-72v108h72v292h307c219 0 350 -133 350 -354c0 -234 -133 -360 -350 -360h-307zM250 554v-132h158v-108h-158v-154h88c141 0 197 58 197 201c0 131 -69 193 -197 193h-88z" />
    <glyph glyph-name="Eth" unicode="&#xd0;" horiz-adv-x="759" 
d="M64 0v314h-72v108h72v292h307c219 0 350 -133 350 -354c0 -234 -133 -360 -350 -360h-307zM250 554v-132h158v-108h-158v-154h88c141 0 197 58 197 201c0 131 -69 193 -197 193h-88z" />
    <glyph glyph-name="Egrave" unicode="&#xc8;" horiz-adv-x="685" 
d="M64 0v714h569v-149h-383v-125h350v-144h-350v-136h393v-160h-579zM320 911l97 -149h-120l-157 149h180z" />
    <glyph glyph-name="Eacute" unicode="&#xc9;" horiz-adv-x="685" 
d="M64 0v714h569v-149h-383v-125h350v-144h-350v-136h393v-160h-579zM368 911h180l-157 -149h-120z" />
    <glyph glyph-name="Ecircumflex" unicode="&#xca;" horiz-adv-x="685" 
d="M64 0v714h569v-149h-383v-125h350v-144h-350v-136h393v-160h-579zM344 842l-60 -80h-128l112 149h152l112 -149h-128z" />
    <glyph glyph-name="Ecaron" unicode="&#x11a;" horiz-adv-x="685" 
d="M64 0v714h569v-149h-383v-125h350v-144h-350v-136h393v-160h-579zM420 762h-152l-112 149h128l60 -80l60 80h128z" />
    <glyph glyph-name="Edieresis" unicode="&#xcb;" horiz-adv-x="685" 
d="M64 0v714h569v-149h-383v-125h350v-144h-350v-136h393v-160h-579zM163 774v125h150v-125h-150zM526 774h-150v125h150v-125z" />
    <glyph glyph-name="Emacron" unicode="&#x112;" horiz-adv-x="685" 
d="M64 0v714h569v-149h-383v-125h350v-144h-350v-136h393v-160h-579zM517 793h-345v86h345v-86z" />
    <glyph glyph-name="Ebreve" unicode="&#x114;" horiz-adv-x="685" 
d="M64 0v714h569v-149h-383v-125h350v-144h-350v-136h393v-160h-579zM170 913h71c8 -57 60 -68 103 -68s95 11 103 68h71c0 -93 -73 -154 -174 -154s-174 61 -174 154z" />
    <glyph glyph-name="Edotaccent" unicode="&#x116;" horiz-adv-x="685" 
d="M64 0v714h569v-149h-383v-125h350v-144h-350v-136h393v-160h-579zM420 774h-150v125h150v-125z" />
    <glyph glyph-name="Eogonek" unicode="&#x118;" horiz-adv-x="685" 
d="M64 0v714h569v-149h-383v-125h350v-144h-350v-136h393v-160h-74c-57 -59 -82 -89 -82 -124c0 -23 14 -33 36 -33c19 0 36 8 57 30l53 -25c-33 -51 -78 -82 -140 -82c-61 0 -105 30 -105 90c0 42 23 84 107 144h-431z" />
    <glyph glyph-name="Gcircumflex" unicode="&#x11c;" horiz-adv-x="778" 
d="M723 391v-391h-120l-11 78c-48 -69 -135 -93 -199 -93c-217 0 -356 165 -356 372s139 372 356 372c148 0 307 -78 323 -258h-186c-7 61 -65 98 -141 98c-120 0 -166 -105 -166 -212s46 -212 166 -212c92 0 153 43 164 108h-130v138h300zM397 842l-60 -80h-128l112 149
h152l112 -149h-128z" />
    <glyph glyph-name="Gbreve" unicode="&#x11e;" horiz-adv-x="778" 
d="M723 391v-391h-120l-11 78c-48 -69 -135 -93 -199 -93c-217 0 -356 165 -356 372s139 372 356 372c148 0 307 -78 323 -258h-186c-7 61 -65 98 -141 98c-120 0 -166 -105 -166 -212s46 -212 166 -212c92 0 153 43 164 108h-130v138h300zM223 913h71c8 -57 60 -68 103 -68
s95 11 103 68h71c0 -93 -73 -154 -174 -154s-174 61 -174 154z" />
    <glyph glyph-name="Gdotaccent" unicode="&#x120;" horiz-adv-x="778" 
d="M723 391v-391h-120l-11 78c-48 -69 -135 -93 -199 -93c-217 0 -356 165 -356 372s139 372 356 372c148 0 307 -78 323 -258h-186c-7 61 -65 98 -141 98c-120 0 -166 -105 -166 -212s46 -212 166 -212c92 0 153 43 164 108h-130v138h300zM473 774h-150v125h150v-125z" />
    <glyph glyph-name="Gcommaaccent" unicode="&#x122;" horiz-adv-x="778" 
d="M723 391v-391h-120l-11 78c-48 -69 -135 -93 -199 -93c-217 0 -356 165 -356 372s139 372 356 372c148 0 307 -78 323 -258h-186c-7 61 -65 98 -141 98c-120 0 -166 -105 -166 -212s46 -212 166 -212c92 0 153 43 164 108h-130v138h300zM311 -155v105h154v-81
c0 -91 -82 -103 -140 -103v42c35 4 50 12 55 37h-69z" />
    <glyph glyph-name="Hcircumflex" unicode="&#x124;" horiz-adv-x="741" 
d="M62 0v714h186v-260h245v260h186v-714h-186v294h-245v-294h-186zM370 842l-60 -80h-128l112 149h152l112 -149h-128z" />
    <glyph glyph-name="Hbar" unicode="&#x126;" horiz-adv-x="741" 
d="M62 0v714h186v-97h245v97h186v-714h-186v264h-245v-264h-186zM248 414h245v101h-245v-101z" />
    <glyph glyph-name="Igrave" unicode="&#xcc;" horiz-adv-x="315" 
d="M64 0v714h186v-714h-186zM152 911l97 -149h-120l-157 149h180z" />
    <glyph glyph-name="Iacute" unicode="&#xcd;" horiz-adv-x="315" 
d="M64 0v714h186v-714h-186zM162 911h180l-157 -149h-120z" />
    <glyph glyph-name="Ibreve" unicode="&#x12c;" horiz-adv-x="315" 
d="M64 0v714h186v-714h-186zM-17 913h71c8 -57 60 -68 103 -68s95 11 103 68h71c0 -93 -73 -154 -174 -154s-174 61 -174 154z" />
    <glyph glyph-name="Icircumflex" unicode="&#xce;" horiz-adv-x="315" 
d="M64 0v714h186v-714h-186zM157 842l-60 -80h-128l112 149h152l112 -149h-128z" />
    <glyph glyph-name="Itilde" unicode="&#x128;" horiz-adv-x="315" 
d="M64 0v714h186v-714h-186zM275 904h71c-8 -69 -44 -127 -119 -127c-31 0 -57 9 -81 18s-45 18 -64 18c-23 0 -37 -21 -44 -45h-71c8 65 50 136 121 136c27 0 53 -9 80 -20c25 -11 49 -21 65 -21c23 0 35 17 42 41z" />
    <glyph glyph-name="Idieresis" unicode="&#xcf;" horiz-adv-x="315" 
d="M64 0v714h186v-714h-186zM-24 774v125h150v-125h-150zM339 774h-150v125h150v-125z" />
    <glyph glyph-name="Imacron" unicode="&#x12a;" horiz-adv-x="315" 
d="M64 0v714h186v-714h-186zM330 793h-345v86h345v-86z" />
    <glyph glyph-name="Idotaccent" unicode="&#x130;" horiz-adv-x="315" 
d="M64 0v714h186v-714h-186zM232 774h-150v125h150v-125z" />
    <glyph glyph-name="Iogonek" unicode="&#x12e;" horiz-adv-x="315" 
d="M64 0v714h186v-714h-32c-55 -59 -79 -91 -79 -124c0 -22 13 -33 33 -33c18 0 33 9 53 30l53 -25c-32 -50 -76 -82 -136 -82c-59 0 -102 30 -102 90c0 41 22 84 104 144h-80z" />
    <glyph glyph-name="Jcircumflex" unicode="&#x134;" horiz-adv-x="593" 
d="M528 714v-488c0 -161 -83 -241 -250 -241c-189 0 -250 109 -250 268v31h175v-66c0 -47 25 -73 72 -73c43 0 67 24 67 93v476h186zM432 842l-60 -80h-128l112 149h152l112 -149h-128z" />
    <glyph glyph-name="Kcommaaccent" unicode="&#x136;" horiz-adv-x="741" 
d="M64 0v714h186v-274l235 274h231l-264 -281l297 -433h-231l-192 300l-76 -80v-220h-186zM300 -155v105h154v-81c0 -91 -82 -103 -140 -103v42c35 4 50 12 55 37h-69z" />
    <glyph glyph-name="Lacute" unicode="&#x139;" horiz-adv-x="611" 
d="M64 0v714h186v-554h333v-160h-519zM182 911h180l-157 -149h-120z" />
    <glyph glyph-name="Lcaron" unicode="&#x13d;" horiz-adv-x="611" 
d="M64 0v714h186v-554h333v-160h-519zM349 714h157l-88 -149h-104z" />
    <glyph glyph-name="Lcommaaccent" unicode="&#x13b;" horiz-adv-x="611" 
d="M64 0v714h186v-554h333v-160h-519zM243 -155v105h154v-81c0 -91 -82 -103 -140 -103v42c35 4 50 12 55 37h-69z" />
    <glyph glyph-name="Lslash" unicode="&#x141;" horiz-adv-x="611" 
d="M64 0v190l-66 -45v119l66 45v405h186v-276l180 124v-119l-180 -124v-159h333v-160h-519z" />
    <glyph glyph-name="Ldot" unicode="&#x13f;" horiz-adv-x="611" 
d="M64 0v714h186v-554h333v-160h-519zM506 330h-150v125h150v-125z" />
    <glyph glyph-name="Nacute" unicode="&#x143;" horiz-adv-x="741" 
d="M62 0v714h191l248 -440h2v440h175v-714h-191l-248 445h-2v-445h-175zM394 911h180l-157 -149h-120z" />
    <glyph glyph-name="Ncaron" unicode="&#x147;" horiz-adv-x="741" 
d="M62 0v714h191l248 -440h2v440h175v-714h-191l-248 445h-2v-445h-175zM446 762h-152l-112 149h128l60 -80l60 80h128z" />
    <glyph glyph-name="Ntilde" unicode="&#xd1;" horiz-adv-x="741" 
d="M62 0v714h191l248 -440h2v440h175v-714h-191l-248 445h-2v-445h-175zM488 904h71c-8 -69 -44 -127 -119 -127c-31 0 -57 9 -81 18s-45 18 -64 18c-23 0 -37 -21 -44 -45h-71c8 65 50 136 121 136c27 0 53 -9 80 -20c25 -11 49 -21 65 -21c23 0 35 17 42 41z" />
    <glyph glyph-name="Ncommaaccent" unicode="&#x145;" horiz-adv-x="741" 
d="M62 0v714h191l248 -440h2v440h175v-714h-191l-248 445h-2v-445h-175zM295 -155v105h154v-81c0 -91 -82 -103 -140 -103v42c35 4 50 12 55 37h-69z" />
    <glyph glyph-name="Ograve" unicode="&#xd2;" horiz-adv-x="778" 
d="M223 357c0 -107 46 -212 166 -212s166 105 166 212s-46 212 -166 212s-166 -105 -166 -212zM37 357c0 207 128 372 352 372s352 -165 352 -372s-128 -372 -352 -372s-352 165 -352 372zM366 911l97 -149h-120l-157 149h180z" />
    <glyph glyph-name="Oacute" unicode="&#xd3;" horiz-adv-x="778" 
d="M223 357c0 -107 46 -212 166 -212s166 105 166 212s-46 212 -166 212s-166 -105 -166 -212zM37 357c0 207 128 372 352 372s352 -165 352 -372s-128 -372 -352 -372s-352 165 -352 372zM414 911h180l-157 -149h-120z" />
    <glyph glyph-name="Ocircumflex" unicode="&#xd4;" horiz-adv-x="778" 
d="M223 357c0 -107 46 -212 166 -212s166 105 166 212s-46 212 -166 212s-166 -105 -166 -212zM37 357c0 207 128 372 352 372s352 -165 352 -372s-128 -372 -352 -372s-352 165 -352 372zM390 842l-60 -80h-128l112 149h152l112 -149h-128z" />
    <glyph glyph-name="Otilde" unicode="&#xd5;" horiz-adv-x="778" 
d="M223 357c0 -107 46 -212 166 -212s166 105 166 212s-46 212 -166 212s-166 -105 -166 -212zM37 357c0 207 128 372 352 372s352 -165 352 -372s-128 -372 -352 -372s-352 165 -352 372zM508 904h71c-8 -69 -44 -127 -119 -127c-31 0 -57 9 -81 18s-45 18 -64 18
c-23 0 -37 -21 -44 -45h-71c8 65 50 136 121 136c27 0 53 -9 80 -20c25 -11 49 -21 65 -21c23 0 35 17 42 41z" />
    <glyph glyph-name="Odieresis" unicode="&#xd6;" horiz-adv-x="778" 
d="M223 357c0 -107 46 -212 166 -212s166 105 166 212s-46 212 -166 212s-166 -105 -166 -212zM37 357c0 207 128 372 352 372s352 -165 352 -372s-128 -372 -352 -372s-352 165 -352 372zM209 774v125h150v-125h-150zM572 774h-150v125h150v-125z" />
    <glyph glyph-name="Omacron" unicode="&#x14c;" horiz-adv-x="778" 
d="M223 357c0 -107 46 -212 166 -212s166 105 166 212s-46 212 -166 212s-166 -105 -166 -212zM37 357c0 207 128 372 352 372s352 -165 352 -372s-128 -372 -352 -372s-352 165 -352 372zM563 793h-345v86h345v-86z" />
    <glyph glyph-name="Obreve" unicode="&#x14e;" horiz-adv-x="778" 
d="M223 357c0 -107 46 -212 166 -212s166 105 166 212s-46 212 -166 212s-166 -105 -166 -212zM37 357c0 207 128 372 352 372s352 -165 352 -372s-128 -372 -352 -372s-352 165 -352 372zM216 913h71c8 -57 60 -68 103 -68s95 11 103 68h71c0 -93 -73 -154 -174 -154
s-174 61 -174 154z" />
    <glyph glyph-name="Ohungarumlaut" unicode="&#x150;" horiz-adv-x="778" 
d="M223 357c0 -107 46 -212 166 -212s166 105 166 212s-46 212 -166 212s-166 -105 -166 -212zM37 357c0 207 128 372 352 372s352 -165 352 -372s-128 -372 -352 -372s-352 165 -352 372zM508 911h125l-120 -149h-86zM343 911h125l-120 -149h-86z" />
    <glyph glyph-name="Oslash" unicode="&#xd8;" horiz-adv-x="778" 
d="M693 747l58 -50l-87 -95c51 -65 77 -150 77 -245c0 -207 -128 -372 -352 -372c-91 0 -164 25 -221 72l-89 -97l-57 50l92 101c-51 64 -77 150 -77 246c0 207 128 372 352 372c91 0 163 -25 222 -72zM537 462l-253 -277c27 -25 61 -40 105 -40c120 0 166 105 166 212
c0 36 -5 72 -18 105zM241 251l254 278c-25 25 -59 40 -106 40c-120 0 -166 -105 -166 -212c0 -39 6 -74 18 -106z" />
    <glyph glyph-name="Oslashacute" unicode="&#x1fe;" horiz-adv-x="778" 
d="M693 747l58 -50l-87 -95c51 -65 77 -150 77 -245c0 -207 -128 -372 -352 -372c-91 0 -164 25 -221 72l-89 -97l-57 50l92 101c-51 64 -77 150 -77 246c0 207 128 372 352 372c91 0 163 -25 222 -72zM537 462l-253 -277c27 -25 61 -40 105 -40c120 0 166 105 166 212
c0 36 -5 72 -18 105zM241 251l254 278c-25 25 -59 40 -106 40c-120 0 -166 -105 -166 -212c0 -39 6 -74 18 -106zM411 911h180l-157 -149h-120z" />
    <glyph glyph-name="OE" unicode="&#x152;" horiz-adv-x="1112" 
d="M396 569c-131 0 -173 -105 -173 -212s42 -212 173 -212c91 0 140 81 140 164v96c0 83 -49 164 -140 164zM1060 714v-149h-348v-125h320v-144h-320v-136h358v-160h-532v45c-42 -47 -111 -60 -162 -60c-212 0 -339 179 -339 372s127 372 339 372c59 0 123 -14 160 -62h2v47
h522z" />
    <glyph glyph-name="Racute" unicode="&#x154;" horiz-adv-x="722" 
d="M250 565v-161h156c56 0 86 29 86 84c0 53 -42 77 -94 77h-148zM64 0v714h364c125 0 250 -57 250 -201c0 -77 -36 -150 -112 -179v-2c75 -19 99 -103 104 -171c3 -31 5 -133 30 -161h-184c-16 25 -18 93 -21 114c-5 72 -16 146 -104 146h-141v-260h-186zM372 911h180
l-157 -149h-120z" />
    <glyph glyph-name="Rcaron" unicode="&#x158;" horiz-adv-x="722" 
d="M250 565v-161h156c56 0 86 29 86 84c0 53 -42 77 -94 77h-148zM64 0v714h364c125 0 250 -57 250 -201c0 -77 -36 -150 -112 -179v-2c75 -19 99 -103 104 -171c3 -31 5 -133 30 -161h-184c-16 25 -18 93 -21 114c-5 72 -16 146 -104 146h-141v-260h-186zM424 762h-152
l-112 149h128l60 -80l60 80h128z" />
    <glyph glyph-name="Rcommaaccent" unicode="&#x156;" horiz-adv-x="722" 
d="M250 565v-161h156c56 0 86 29 86 84c0 53 -42 77 -94 77h-148zM64 0v714h364c125 0 250 -57 250 -201c0 -77 -36 -150 -112 -179v-2c75 -19 99 -103 104 -171c3 -31 5 -133 30 -161h-184c-16 25 -18 93 -21 114c-5 72 -16 146 -104 146h-141v-260h-186zM297 -155v105h154
v-81c0 -91 -82 -103 -140 -103v42c35 4 50 12 55 37h-69z" />
    <glyph glyph-name="Sacute" unicode="&#x15a;" horiz-adv-x="667" 
d="M23 240h186c4 -84 55 -111 135 -111c56 0 114 20 114 73c0 64 -102 75 -205 104c-101 29 -209 74 -209 206c0 156 157 217 291 217c141 0 286 -70 286 -230h-186c3 64 -59 86 -115 86c-40 0 -90 -14 -90 -61c0 -56 103 -65 207 -94c103 -29 207 -77 207 -206
c0 -181 -154 -239 -311 -239c-163 0 -310 72 -310 255zM361 911h180l-157 -149h-120z" />
    <glyph glyph-name="Scircumflex" unicode="&#x15c;" horiz-adv-x="667" 
d="M23 240h186c4 -84 55 -111 135 -111c56 0 114 20 114 73c0 64 -102 75 -205 104c-101 29 -209 74 -209 206c0 156 157 217 291 217c141 0 286 -70 286 -230h-186c3 64 -59 86 -115 86c-40 0 -90 -14 -90 -61c0 -56 103 -65 207 -94c103 -29 207 -77 207 -206
c0 -181 -154 -239 -311 -239c-163 0 -310 72 -310 255zM337 842l-60 -80h-128l112 149h152l112 -149h-128z" />
    <glyph glyph-name="Scaron" unicode="&#x160;" horiz-adv-x="667" 
d="M23 240h186c4 -84 55 -111 135 -111c56 0 114 20 114 73c0 64 -102 75 -205 104c-101 29 -209 74 -209 206c0 156 157 217 291 217c141 0 286 -70 286 -230h-186c3 64 -59 86 -115 86c-40 0 -90 -14 -90 -61c0 -56 103 -65 207 -94c103 -29 207 -77 207 -206
c0 -181 -154 -239 -311 -239c-163 0 -310 72 -310 255zM413 762h-152l-112 149h128l60 -80l60 80h128z" />
    <glyph glyph-name="Scedilla" unicode="&#x15e;" horiz-adv-x="667" 
d="M23 240h186c4 -84 55 -111 135 -111c56 0 114 20 114 73c0 64 -102 75 -205 104c-101 29 -209 74 -209 206c0 156 157 217 291 217c141 0 286 -70 286 -230h-186c3 64 -59 86 -115 86c-40 0 -90 -14 -90 -61c0 -56 103 -65 207 -94c103 -29 207 -77 207 -206
c0 -175 -144 -235 -295 -239l-30 -45l2 -2c13 4 24 5 40 5c37 0 85 -20 85 -80c0 -72 -58 -97 -134 -97c-40 0 -80 11 -112 27l20 50c31 -13 54 -20 85 -20c30 0 47 12 47 37c0 21 -15 36 -45 36c-15 0 -25 -3 -38 -7l-23 22l49 75c-147 11 -272 85 -272 254z" />
    <glyph glyph-name="Scommaaccent" unicode="&#x218;" horiz-adv-x="667" 
d="M23 240h186c4 -84 55 -111 135 -111c56 0 114 20 114 73c0 64 -102 75 -205 104c-101 29 -209 74 -209 206c0 156 157 217 291 217c141 0 286 -70 286 -230h-186c3 64 -59 86 -115 86c-40 0 -90 -14 -90 -61c0 -56 103 -65 207 -94c103 -29 207 -77 207 -206
c0 -181 -154 -239 -311 -239c-163 0 -310 72 -310 255zM253 -155v105h154v-81c0 -91 -82 -103 -140 -103v42c35 4 50 12 55 37h-69z" />
    <glyph glyph-name="Tcaron" unicode="&#x164;" horiz-adv-x="648" 
d="M630 714v-160h-213v-554h-186v554h-213v160h612zM400 762h-152l-112 149h128l60 -80l60 80h128z" />
    <glyph glyph-name="Tcommaaccent" unicode="&#x162;" horiz-adv-x="648" 
d="M630 714v-160h-213v-554h-186v554h-213v160h612zM247 -155v105h154v-81c0 -91 -82 -103 -140 -103v42c35 4 50 12 55 37h-69z" />
    <glyph glyph-name="uni021A" unicode="&#x21a;" horiz-adv-x="648" 
d="M630 714v-160h-213v-554h-186v554h-213v160h612zM247 -155v105h154v-81c0 -91 -82 -103 -140 -103v42c35 4 50 12 55 37h-69z" />
    <glyph glyph-name="Tbar" unicode="&#x166;" horiz-adv-x="648" 
d="M630 714v-160h-213v-115h149v-108h-149v-331h-186v331h-149v108h149v115h-213v160h612z" />
    <glyph glyph-name="Thorn" unicode="&#xde;" horiz-adv-x="685" 
d="M250 473v-183h125c59 0 100 24 100 89c0 68 -43 94 -100 94h-125zM64 714h186v-92h153c133 0 258 -61 258 -230c0 -177 -101 -246 -258 -246h-153v-146h-186v714z" />
    <glyph glyph-name="Ugrave" unicode="&#xd9;" horiz-adv-x="741" 
d="M681 714v-419c0 -207 -95 -310 -311 -310s-311 103 -311 310v419h186v-430c0 -92 33 -139 125 -139s125 47 125 139v430h186zM346 911l97 -149h-120l-157 149h180z" />
    <glyph glyph-name="Uacute" unicode="&#xda;" horiz-adv-x="741" 
d="M681 714v-419c0 -207 -95 -310 -311 -310s-311 103 -311 310v419h186v-430c0 -92 33 -139 125 -139s125 47 125 139v430h186zM394 911h180l-157 -149h-120z" />
    <glyph glyph-name="Ucircumflex" unicode="&#xdb;" horiz-adv-x="741" 
d="M681 714v-419c0 -207 -95 -310 -311 -310s-311 103 -311 310v419h186v-430c0 -92 33 -139 125 -139s125 47 125 139v430h186zM370 842l-60 -80h-128l112 149h152l112 -149h-128z" />
    <glyph glyph-name="Utilde" unicode="&#x168;" horiz-adv-x="741" 
d="M681 714v-419c0 -207 -95 -310 -311 -310s-311 103 -311 310v419h186v-430c0 -92 33 -139 125 -139s125 47 125 139v430h186zM488 904h71c-8 -69 -44 -127 -119 -127c-31 0 -57 9 -81 18s-45 18 -64 18c-23 0 -37 -21 -44 -45h-71c8 65 50 136 121 136c27 0 53 -9 80 -20
c25 -11 49 -21 65 -21c23 0 35 17 42 41z" />
    <glyph glyph-name="Udieresis" unicode="&#xdc;" horiz-adv-x="741" 
d="M681 714v-419c0 -207 -95 -310 -311 -310s-311 103 -311 310v419h186v-430c0 -92 33 -139 125 -139s125 47 125 139v430h186zM189 774v125h150v-125h-150zM552 774h-150v125h150v-125z" />
    <glyph glyph-name="Umacron" unicode="&#x16a;" horiz-adv-x="741" 
d="M681 714v-419c0 -207 -95 -310 -311 -310s-311 103 -311 310v419h186v-430c0 -92 33 -139 125 -139s125 47 125 139v430h186zM543 793h-345v86h345v-86z" />
    <glyph glyph-name="Ubreve" unicode="&#x16c;" horiz-adv-x="741" 
d="M681 714v-419c0 -207 -95 -310 -311 -310s-311 103 -311 310v419h186v-430c0 -92 33 -139 125 -139s125 47 125 139v430h186zM196 913h71c8 -57 60 -68 103 -68s95 11 103 68h71c0 -93 -73 -154 -174 -154s-174 61 -174 154z" />
    <glyph glyph-name="Uring" unicode="&#x16e;" horiz-adv-x="741" 
d="M681 714v-419c0 -207 -95 -310 -311 -310s-311 103 -311 310v419h186v-430c0 -92 33 -139 125 -139s125 47 125 139v430h186zM370 794c29 0 52 23 52 52c0 31 -23 52 -52 52s-52 -21 -52 -52c0 -29 23 -52 52 -52zM370 742c-62 -4 -110 47 -107 104c0 63 46 104 107 104
s107 -40 107 -104c0 -61 -46 -104 -107 -104z" />
    <glyph glyph-name="Uhungarumlaut" unicode="&#x170;" horiz-adv-x="741" 
d="M681 714v-419c0 -207 -95 -310 -311 -310s-311 103 -311 310v419h186v-430c0 -92 33 -139 125 -139s125 47 125 139v430h186zM488 911h125l-120 -149h-86zM323 911h125l-120 -149h-86z" />
    <glyph glyph-name="Uogonek" unicode="&#x172;" horiz-adv-x="741" 
d="M681 714v-419c0 -192 -81 -294 -264 -308c-48 -50 -69 -79 -69 -111c0 -23 14 -33 36 -33c19 0 36 8 57 30l53 -25c-33 -51 -78 -82 -140 -82c-61 0 -105 30 -105 90c0 39 19 78 87 130c-192 11 -277 113 -277 309v419h186v-430c0 -92 33 -139 125 -139s125 47 125 139
v430h186z" />
    <glyph glyph-name="Wacute" unicode="&#x1e82;" horiz-adv-x="963" 
d="M963 714l-197 -714h-186l-98 492h-2l-98 -492h-189l-193 714h186l101 -522h2l105 522h175l105 -522h2l101 522h186zM496 911h180l-157 -149h-120z" />
    <glyph glyph-name="Wcircumflex" unicode="&#x174;" horiz-adv-x="963" 
d="M963 714l-197 -714h-186l-98 492h-2l-98 -492h-189l-193 714h186l101 -522h2l105 522h175l105 -522h2l101 522h186zM482 842l-60 -80h-128l112 149h152l112 -149h-128z" />
    <glyph glyph-name="Wdieresis" unicode="&#x1e84;" horiz-adv-x="963" 
d="M963 714l-197 -714h-186l-98 492h-2l-98 -492h-189l-193 714h186l101 -522h2l105 522h175l105 -522h2l101 522h186zM301 774v125h150v-125h-150zM664 774h-150v125h150v-125z" />
    <glyph glyph-name="Wgrave" unicode="&#x1e80;" horiz-adv-x="963" 
d="M963 714l-197 -714h-186l-98 492h-2l-98 -492h-189l-193 714h186l101 -522h2l105 522h175l105 -522h2l101 522h186zM468 911l97 -149h-120l-157 149h180z" />
    <glyph glyph-name="Yacute" unicode="&#xdd;" horiz-adv-x="667" 
d="M687 714l-260 -448v-266h-186v266l-260 448h211l142 -290l142 290h211zM359 911h180l-157 -149h-120z" />
    <glyph glyph-name="Ycircumflex" unicode="&#x176;" horiz-adv-x="667" 
d="M687 714l-260 -448v-266h-186v266l-260 448h211l142 -290l142 290h211zM335 842l-60 -80h-128l112 149h152l112 -149h-128z" />
    <glyph glyph-name="Ydieresis" unicode="&#x178;" horiz-adv-x="667" 
d="M687 714l-260 -448v-266h-186v266l-260 448h211l142 -290l142 290h211zM154 774v125h150v-125h-150zM517 774h-150v125h150v-125z" />
    <glyph glyph-name="Ygrave" unicode="&#x1ef2;" horiz-adv-x="667" 
d="M687 714l-260 -448v-266h-186v266l-260 448h211l142 -290l142 290h211zM311 911l97 -149h-120l-157 149h180z" />
    <glyph glyph-name="Zacute" unicode="&#x179;" horiz-adv-x="667" 
d="M24 0v152l366 402h-344v160h584v-144l-375 -410h388v-160h-619zM356 911h180l-157 -149h-120z" />
    <glyph glyph-name="Zcaron" unicode="&#x17d;" horiz-adv-x="667" 
d="M24 0v152l366 402h-344v160h584v-144l-375 -410h388v-160h-619zM408 762h-152l-112 149h128l60 -80l60 80h128z" />
    <glyph glyph-name="Zdotaccent" unicode="&#x17b;" horiz-adv-x="667" 
d="M24 0v152l366 402h-344v160h584v-144l-375 -410h388v-160h-619zM408 774h-150v125h150v-125z" />
    <glyph glyph-name="agrave" unicode="&#xe0;" horiz-adv-x="593" 
d="M209 359h-159c3 68 34 112 81 139s105 36 165 36c123 0 242 -27 242 -174v-227c0 -44 0 -92 20 -133h-171c-7 16 -7 32 -10 49c-44 -47 -108 -64 -171 -64c-100 0 -177 50 -177 157c0 168 184 156 302 180c29 7 45 16 45 48c0 39 -47 54 -82 54c-49 0 -77 -22 -85 -65z
M199 149c0 -43 32 -59 71 -59c81 0 108 45 104 153c-24 -15 -68 -17 -105 -28c-39 -9 -70 -25 -70 -66zM278 725l97 -149h-120l-157 149h180z" />
    <glyph glyph-name="aacute" unicode="&#xe1;" horiz-adv-x="593" 
d="M209 359h-159c3 68 34 112 81 139s105 36 165 36c123 0 242 -27 242 -174v-227c0 -44 0 -92 20 -133h-171c-7 16 -7 32 -10 49c-44 -47 -108 -64 -171 -64c-100 0 -177 50 -177 157c0 168 184 156 302 180c29 7 45 16 45 48c0 39 -47 54 -82 54c-49 0 -77 -22 -85 -65z
M199 149c0 -43 32 -59 71 -59c81 0 108 45 104 153c-24 -15 -68 -17 -105 -28c-39 -9 -70 -25 -70 -66zM318 725h180l-157 -149h-120z" />
    <glyph glyph-name="acircumflex" unicode="&#xe2;" horiz-adv-x="593" 
d="M209 359h-159c3 68 34 112 81 139s105 36 165 36c123 0 242 -27 242 -174v-227c0 -44 0 -92 20 -133h-171c-7 16 -7 32 -10 49c-44 -47 -108 -64 -171 -64c-100 0 -177 50 -177 157c0 168 184 156 302 180c29 7 45 16 45 48c0 39 -47 54 -82 54c-49 0 -77 -22 -85 -65z
M199 149c0 -43 32 -59 71 -59c81 0 108 45 104 153c-24 -15 -68 -17 -105 -28c-39 -9 -70 -25 -70 -66zM298 656l-60 -80h-128l112 149h152l112 -149h-128z" />
    <glyph glyph-name="atilde" unicode="&#xe3;" horiz-adv-x="593" 
d="M209 359h-159c3 68 34 112 81 139s105 36 165 36c123 0 242 -27 242 -174v-227c0 -44 0 -92 20 -133h-171c-7 16 -7 32 -10 49c-44 -47 -108 -64 -171 -64c-100 0 -177 50 -177 157c0 168 184 156 302 180c29 7 45 16 45 48c0 39 -47 54 -82 54c-49 0 -77 -22 -85 -65z
M199 149c0 -43 32 -59 71 -59c81 0 108 45 104 153c-24 -15 -68 -17 -105 -28c-39 -9 -70 -25 -70 -66zM416 718h71c-8 -69 -44 -127 -119 -127c-31 0 -57 9 -81 18s-45 18 -64 18c-23 0 -37 -21 -44 -45h-71c8 65 50 136 121 136c27 0 53 -9 80 -20c25 -11 49 -21 65 -21
c23 0 35 17 42 41z" />
    <glyph glyph-name="adieresis" unicode="&#xe4;" horiz-adv-x="593" 
d="M209 359h-159c3 68 34 112 81 139s105 36 165 36c123 0 242 -27 242 -174v-227c0 -44 0 -92 20 -133h-171c-7 16 -7 32 -10 49c-44 -47 -108 -64 -171 -64c-100 0 -177 50 -177 157c0 168 184 156 302 180c29 7 45 16 45 48c0 39 -47 54 -82 54c-49 0 -77 -22 -85 -65z
M199 149c0 -43 32 -59 71 -59c81 0 108 45 104 153c-24 -15 -68 -17 -105 -28c-39 -9 -70 -25 -70 -66zM117 588v125h150v-125h-150zM480 588h-150v125h150v-125z" />
    <glyph glyph-name="amacron" unicode="&#x101;" horiz-adv-x="593" 
d="M209 359h-159c3 68 34 112 81 139s105 36 165 36c123 0 242 -27 242 -174v-227c0 -44 0 -92 20 -133h-171c-7 16 -7 32 -10 49c-44 -47 -108 -64 -171 -64c-100 0 -177 50 -177 157c0 168 184 156 302 180c29 7 45 16 45 48c0 39 -47 54 -82 54c-49 0 -77 -22 -85 -65z
M199 149c0 -43 32 -59 71 -59c81 0 108 45 104 153c-24 -15 -68 -17 -105 -28c-39 -9 -70 -25 -70 -66zM471 607h-345v86h345v-86z" />
    <glyph glyph-name="abreve" unicode="&#x103;" horiz-adv-x="593" 
d="M209 359h-159c3 68 34 112 81 139s105 36 165 36c123 0 242 -27 242 -174v-227c0 -44 0 -92 20 -133h-171c-7 16 -7 32 -10 49c-44 -47 -108 -64 -171 -64c-100 0 -177 50 -177 157c0 168 184 156 302 180c29 7 45 16 45 48c0 39 -47 54 -82 54c-49 0 -77 -22 -85 -65z
M199 149c0 -43 32 -59 71 -59c81 0 108 45 104 153c-24 -15 -68 -17 -105 -28c-39 -9 -70 -25 -70 -66zM124 727h71c8 -57 60 -68 103 -68s95 11 103 68h71c0 -93 -73 -154 -174 -154s-174 61 -174 154z" />
    <glyph glyph-name="aring" unicode="&#xe5;" horiz-adv-x="593" 
d="M209 359h-159c3 68 34 112 81 139s105 36 165 36c123 0 242 -27 242 -174v-227c0 -44 0 -92 20 -133h-171c-7 16 -7 32 -10 49c-44 -47 -108 -64 -171 -64c-100 0 -177 50 -177 157c0 168 184 156 302 180c29 7 45 16 45 48c0 39 -47 54 -82 54c-49 0 -77 -22 -85 -65z
M199 149c0 -43 32 -59 71 -59c81 0 108 45 104 153c-24 -15 -68 -17 -105 -28c-39 -9 -70 -25 -70 -66zM299 616c29 0 52 23 52 52c0 31 -23 52 -52 52s-52 -21 -52 -52c0 -29 23 -52 52 -52zM299 564c-62 -4 -110 47 -107 104c0 63 46 104 107 104s107 -40 107 -104
c0 -61 -46 -104 -107 -104z" />
    <glyph glyph-name="aringacute" unicode="&#x1fb;" horiz-adv-x="593" 
d="M209 359h-159c3 68 34 112 81 139s105 36 165 36c123 0 242 -27 242 -174v-227c0 -44 0 -92 20 -133h-171c-7 16 -7 32 -10 49c-44 -47 -108 -64 -171 -64c-100 0 -177 50 -177 157c0 168 184 156 302 180c29 7 45 16 45 48c0 39 -47 54 -82 54c-49 0 -77 -22 -85 -65z
M199 149c0 -43 32 -59 71 -59c81 0 108 45 104 153c-24 -15 -68 -17 -105 -28c-39 -9 -70 -25 -70 -66zM302 562c-59 0 -104 39 -104 101c0 59 45 101 104 101s104 -39 104 -101c0 -59 -45 -101 -104 -101zM319 911h158l-133 -126h-107zM302 613c28 0 50 21 50 50
c0 30 -23 50 -50 50c-28 0 -50 -21 -50 -50c0 -30 23 -50 50 -50z" />
    <glyph glyph-name="aogonek" unicode="&#x105;" horiz-adv-x="593" 
d="M387 0c-7 16 -7 32 -10 49c-44 -47 -108 -64 -171 -64c-100 0 -177 50 -177 157c0 168 184 156 302 180c29 7 45 16 45 48c0 39 -47 54 -82 54c-49 0 -77 -22 -85 -65h-159c3 68 34 112 81 139s105 36 165 36c123 0 242 -27 242 -174v-227c0 -44 0 -92 20 -133h-97
c-57 -59 -82 -89 -82 -124c0 -23 14 -33 36 -33c19 0 36 8 57 30l53 -25c-33 -51 -78 -82 -140 -82c-61 0 -105 30 -105 90c0 42 23 84 107 144zM199 149c0 -43 32 -59 71 -59c81 0 108 45 104 153c-24 -15 -68 -17 -105 -28c-39 -9 -70 -25 -70 -66z" />
    <glyph glyph-name="ae" unicode="&#xe6;" horiz-adv-x="944" 
d="M742 157h160c-15 -53 -48 -95 -92 -126s-98 -46 -154 -46c-73 0 -152 21 -200 79c-72 -59 -138 -79 -240 -79c-109 0 -187 50 -187 157c0 168 184 156 302 180c52 16 59 26 59 45c0 48 -43 57 -96 57c-49 0 -77 -22 -85 -65h-159c3 68 34 112 81 139s105 36 165 36
c67 0 146 -14 189 -65c43 45 101 65 162 65c177 0 276 -149 263 -316h-373c0 -60 33 -118 105 -118c53 0 81 18 100 57zM280 90c119 0 109 108 109 153c-23 -19 -69 -21 -112 -30c-43 -8 -78 -22 -78 -65c0 -46 47 -58 81 -58zM537 313h203c0 60 -35 106 -99 106
c-61 0 -99 -51 -104 -106z" />
    <glyph glyph-name="aeacute" unicode="&#x1fd;" horiz-adv-x="944" 
d="M742 157h160c-15 -53 -48 -95 -92 -126s-98 -46 -154 -46c-73 0 -152 21 -200 79c-72 -59 -138 -79 -240 -79c-109 0 -187 50 -187 157c0 168 184 156 302 180c52 16 59 26 59 45c0 48 -43 57 -96 57c-49 0 -77 -22 -85 -65h-159c3 68 34 112 81 139s105 36 165 36
c67 0 146 -14 189 -65c43 45 101 65 162 65c177 0 276 -149 263 -316h-373c0 -60 33 -118 105 -118c53 0 81 18 100 57zM280 90c119 0 109 108 109 153c-23 -19 -69 -21 -112 -30c-43 -8 -78 -22 -78 -65c0 -46 47 -58 81 -58zM537 313h203c0 60 -35 106 -99 106
c-61 0 -99 -51 -104 -106zM500 725h180l-157 -149h-120z" />
    <glyph glyph-name="cacute" unicode="&#x107;" horiz-adv-x="593" 
d="M560 329h-165c0 44 -40 75 -83 75c-95 0 -110 -81 -110 -153c0 -67 29 -136 101 -136c60 0 89 33 97 89h165c-16 -140 -122 -219 -261 -219c-156 0 -272 106 -272 266c0 165 105 283 272 283c130 0 243 -69 256 -205zM321 725h180l-157 -149h-120z" />
    <glyph glyph-name="ccircumflex" unicode="&#x109;" horiz-adv-x="593" 
d="M560 329h-165c0 44 -40 75 -83 75c-95 0 -110 -81 -110 -153c0 -67 29 -136 101 -136c60 0 89 33 97 89h165c-16 -140 -122 -219 -261 -219c-156 0 -272 106 -272 266c0 165 105 283 272 283c130 0 243 -69 256 -205zM301 656l-60 -80h-128l112 149h152l112 -149h-128z
" />
    <glyph glyph-name="ccaron" unicode="&#x10d;" horiz-adv-x="593" 
d="M560 329h-165c0 44 -40 75 -83 75c-95 0 -110 -81 -110 -153c0 -67 29 -136 101 -136c60 0 89 33 97 89h165c-16 -140 -122 -219 -261 -219c-156 0 -272 106 -272 266c0 165 105 283 272 283c130 0 243 -69 256 -205zM377 576h-152l-112 149h128l60 -80l60 80h128z" />
    <glyph glyph-name="cdotaccent" unicode="&#x10b;" horiz-adv-x="593" 
d="M560 329h-165c0 44 -40 75 -83 75c-95 0 -110 -81 -110 -153c0 -67 29 -136 101 -136c60 0 89 33 97 89h165c-16 -140 -122 -219 -261 -219c-156 0 -272 106 -272 266c0 165 105 283 272 283c130 0 243 -69 256 -205zM377 588h-150v125h150v-125z" />
    <glyph glyph-name="ccedilla" unicode="&#xe7;" horiz-adv-x="593" 
d="M560 329h-165c0 44 -40 75 -83 75c-95 0 -110 -81 -110 -153c0 -67 29 -136 101 -136c60 0 89 33 97 89h165c-16 -136 -116 -214 -248 -219l-30 -45l2 -2c13 4 24 5 40 5c37 0 85 -20 85 -80c0 -72 -58 -97 -134 -97c-40 0 -80 11 -112 27l20 50c31 -13 54 -20 85 -20
c30 0 47 12 47 37c0 21 -15 36 -45 36c-15 0 -25 -3 -38 -7l-23 22l50 77c-136 16 -232 117 -232 263c0 165 105 283 272 283c130 0 243 -69 256 -205z" />
    <glyph glyph-name="dcaron" unicode="&#x10f;" horiz-adv-x="630" 
d="M571 714v-714h-162v60h-2c-34 -50 -82 -75 -143 -75c-163 0 -232 139 -232 286c0 135 72 263 219 263c63 0 113 -24 148 -71h2v251h170zM306 404c-77 0 -104 -73 -104 -139c0 -71 27 -150 104 -150c83 0 101 79 101 145c0 75 -27 144 -101 144zM648 714h157l-88 -149
h-104z" />
    <glyph glyph-name="dcroat" unicode="&#x111;" horiz-adv-x="638" 
d="M571 565v-565h-162v60h-2c-34 -50 -82 -75 -143 -75c-163 0 -232 139 -232 286c0 135 72 263 219 263c63 0 113 -24 148 -71h2v102h-152v84h152v65h170v-65h80v-84h-80zM306 404c-77 0 -104 -73 -104 -139c0 -71 27 -150 104 -150c83 0 101 79 101 145
c0 75 -27 144 -101 144z" />
    <glyph glyph-name="eth" unicode="&#xf0;" horiz-adv-x="611" 
d="M127 564l98 54c-28 17 -67 38 -95 49l113 76c46 -18 85 -38 108 -54l98 53l62 -58l-90 -48c106 -85 158 -205 158 -354c0 -187 -113 -297 -274 -297s-273 110 -273 257s112 253 243 253c33 0 67 -3 97 -19l2 2c-19 32 -39 62 -77 89l-109 -60zM202 242
c0 -54 24 -127 103 -127c80 0 104 73 104 127c0 53 -24 127 -104 127c-79 0 -103 -74 -103 -127z" />
    <glyph glyph-name="egrave" unicode="&#xe8;" horiz-adv-x="611" 
d="M583 218h-381c3 -72 44 -118 116 -118c41 0 81 18 97 57h159c-32 -120 -142 -172 -258 -172c-169 0 -284 102 -284 276c0 159 127 273 280 273c186 0 279 -140 271 -316zM202 313h211c-3 59 -44 106 -101 106c-60 0 -99 -42 -110 -106zM291 725l97 -149h-120l-157 149
h180z" />
    <glyph glyph-name="eacute" unicode="&#xe9;" horiz-adv-x="611" 
d="M583 218h-381c3 -72 44 -118 116 -118c41 0 81 18 97 57h159c-32 -120 -142 -172 -258 -172c-169 0 -284 102 -284 276c0 159 127 273 280 273c186 0 279 -140 271 -316zM202 313h211c-3 59 -44 106 -101 106c-60 0 -99 -42 -110 -106zM331 725h180l-157 -149h-120z" />
    <glyph glyph-name="ecircumflex" unicode="&#xea;" horiz-adv-x="611" 
d="M583 218h-381c3 -72 44 -118 116 -118c41 0 81 18 97 57h159c-32 -120 -142 -172 -258 -172c-169 0 -284 102 -284 276c0 159 127 273 280 273c186 0 279 -140 271 -316zM202 313h211c-3 59 -44 106 -101 106c-60 0 -99 -42 -110 -106zM311 656l-60 -80h-128l112 149h152
l112 -149h-128z" />
    <glyph glyph-name="ecaron" unicode="&#x11b;" horiz-adv-x="611" 
d="M583 218h-381c3 -72 44 -118 116 -118c41 0 81 18 97 57h159c-32 -120 -142 -172 -258 -172c-169 0 -284 102 -284 276c0 159 127 273 280 273c186 0 279 -140 271 -316zM202 313h211c-3 59 -44 106 -101 106c-60 0 -99 -42 -110 -106zM387 576h-152l-112 149h128l60 -80
l60 80h128z" />
    <glyph glyph-name="edieresis" unicode="&#xeb;" horiz-adv-x="611" 
d="M583 218h-381c3 -72 44 -118 116 -118c41 0 81 18 97 57h159c-32 -120 -142 -172 -258 -172c-169 0 -284 102 -284 276c0 159 127 273 280 273c186 0 279 -140 271 -316zM202 313h211c-3 59 -44 106 -101 106c-60 0 -99 -42 -110 -106zM130 588v125h150v-125h-150z
M493 588h-150v125h150v-125z" />
    <glyph glyph-name="emacron" unicode="&#x113;" horiz-adv-x="611" 
d="M583 218h-381c3 -72 44 -118 116 -118c41 0 81 18 97 57h159c-32 -120 -142 -172 -258 -172c-169 0 -284 102 -284 276c0 159 127 273 280 273c186 0 279 -140 271 -316zM202 313h211c-3 59 -44 106 -101 106c-60 0 -99 -42 -110 -106zM484 607h-345v86h345v-86z" />
    <glyph glyph-name="ebreve" unicode="&#x115;" horiz-adv-x="611" 
d="M583 218h-381c3 -72 44 -118 116 -118c41 0 81 18 97 57h159c-32 -120 -142 -172 -258 -172c-169 0 -284 102 -284 276c0 159 127 273 280 273c186 0 279 -140 271 -316zM202 313h211c-3 59 -44 106 -101 106c-60 0 -99 -42 -110 -106zM137 727h71c8 -57 60 -68 103 -68
s95 11 103 68h71c0 -93 -73 -154 -174 -154s-174 61 -174 154z" />
    <glyph glyph-name="edotaccent" unicode="&#x117;" horiz-adv-x="611" 
d="M583 218h-381c3 -72 44 -118 116 -118c41 0 81 18 97 57h159c-32 -120 -142 -172 -258 -172c-169 0 -284 102 -284 276c0 159 127 273 280 273c186 0 279 -140 271 -316zM202 313h211c-3 59 -44 106 -101 106c-60 0 -99 -42 -110 -106zM387 588h-150v125h150v-125z" />
    <glyph glyph-name="eogonek" unicode="&#x119;" horiz-adv-x="611" 
d="M583 218h-381c3 -72 44 -118 116 -118c41 0 81 18 97 57h159c-24 -90 -91 -142 -174 -162c-15 -3 -30 -6 -45 -8c-23 -23 -40 -43 -51 -58c-13 -18 -19 -36 -19 -53c0 -23 14 -33 34 -33s31 3 59 30l53 -25c-33 -53 -87 -82 -135 -82c-61 1 -104 19 -110 86
c0 29 9 61 51 103c10 10 23 21 39 32c-27 3 -52 8 -76 16c-103 38 -168 127 -168 258c0 159 127 273 280 273c186 0 279 -140 271 -316zM202 313h211c-3 59 -44 106 -101 106c-60 0 -99 -42 -110 -106z" />
    <glyph glyph-name="gcircumflex" unicode="&#x11d;" horiz-adv-x="611" 
d="M559 519v-456c0 -84 -16 -245 -259 -245c-120 0 -236 27 -255 166h170c4 -22 14 -37 29 -45c14 -7 35 -11 62 -11c81 0 89 57 89 121v49h-2c-31 -48 -82 -76 -138 -76c-157 0 -228 112 -228 258c0 138 81 254 228 254c63 0 109 -27 139 -80h2v65h163zM398 273
c0 67 -27 131 -102 131s-99 -66 -99 -130c0 -61 29 -122 98 -122c72 0 103 57 103 121zM308 656l-60 -80h-128l112 149h152l112 -149h-128z" />
    <glyph glyph-name="gbreve" unicode="&#x11f;" horiz-adv-x="611" 
d="M559 519v-456c0 -84 -16 -245 -259 -245c-120 0 -236 27 -255 166h170c4 -22 14 -37 29 -45c14 -7 35 -11 62 -11c81 0 89 57 89 121v49h-2c-31 -48 -82 -76 -138 -76c-157 0 -228 112 -228 258c0 138 81 254 228 254c63 0 109 -27 139 -80h2v65h163zM398 273
c0 67 -27 131 -102 131s-99 -66 -99 -130c0 -61 29 -122 98 -122c72 0 103 57 103 121zM134 727h71c8 -57 60 -68 103 -68s95 11 103 68h71c0 -93 -73 -154 -174 -154s-174 61 -174 154z" />
    <glyph glyph-name="gdotaccent" unicode="&#x121;" horiz-adv-x="611" 
d="M559 519v-456c0 -84 -16 -245 -259 -245c-120 0 -236 27 -255 166h170c4 -22 14 -37 29 -45c14 -7 35 -11 62 -11c81 0 89 57 89 121v49h-2c-31 -48 -82 -76 -138 -76c-157 0 -228 112 -228 258c0 138 81 254 228 254c63 0 109 -27 139 -80h2v65h163zM398 273
c0 67 -27 131 -102 131s-99 -66 -99 -130c0 -61 29 -122 98 -122c72 0 103 57 103 121zM384 588h-150v125h150v-125z" />
    <glyph glyph-name="gcommaaccent" unicode="&#x123;" horiz-adv-x="611" 
d="M559 519v-456c0 -84 -16 -245 -259 -245c-120 0 -236 27 -255 166h170c4 -22 14 -37 29 -45c14 -7 35 -11 62 -11c81 0 89 57 89 121v49h-2c-31 -48 -82 -76 -138 -76c-157 0 -228 112 -228 258c0 138 81 254 228 254c63 0 109 -27 139 -80h2v65h163zM398 273
c0 67 -27 131 -102 131s-99 -66 -99 -130c0 -61 29 -122 98 -122c72 0 103 57 103 121zM386 714v-105h-154v81c0 91 82 103 140 103v-42c-35 -4 -50 -12 -55 -37h69z" />
    <glyph glyph-name="hcircumflex" unicode="&#x125;" horiz-adv-x="630" 
d="M57 0v714h170v-266h2c27 53 96 86 158 86c173 0 187 -126 187 -201v-333h-170v251v52c0 50 -17 91 -85 91c-64 0 -92 -55 -92 -111v-283h-170zM301 842l-60 -80h-128l112 149h152l112 -149h-128z" />
    <glyph glyph-name="hbar" unicode="&#x127;" horiz-adv-x="638" 
d="M235 649h152v-84h-152v-117h2c27 53 96 86 158 86c173 0 187 -126 187 -201v-333h-170v303c0 50 -17 91 -85 91c-64 0 -92 -55 -92 -111v-283h-170v565h-80v84h80v65h170v-65z" />
    <glyph glyph-name="dotlessi" unicode="&#x131;" 
d="M233 0h-170v519h170v-519z" />
    <glyph glyph-name="igrave" unicode="&#xec;" 
d="M233 0h-170v519h170v-519zM139 725l97 -149h-120l-157 149h180z" />
    <glyph glyph-name="iacute" unicode="&#xed;" 
d="M233 0h-170v519h170v-519zM159 725h180l-157 -149h-120z" />
    <glyph glyph-name="ibreve" unicode="&#x12d;" 
d="M233 0h-170v519h170v-519zM-25 727h71c8 -57 60 -68 103 -68s95 11 103 68h71c0 -93 -73 -154 -174 -154s-174 61 -174 154z" />
    <glyph glyph-name="icircumflex" unicode="&#xee;" 
d="M233 0h-170v519h170v-519zM149 656l-60 -80h-128l112 149h152l112 -149h-128z" />
    <glyph glyph-name="itilde" unicode="&#x129;" 
d="M233 0h-170v519h170v-519zM267 718h71c-8 -69 -44 -127 -119 -127c-31 0 -57 9 -81 18s-45 18 -64 18c-23 0 -37 -21 -44 -45h-71c8 65 50 136 121 136c27 0 53 -9 80 -20c25 -11 49 -21 65 -21c23 0 35 17 42 41z" />
    <glyph glyph-name="idieresis" unicode="&#xef;" 
d="M233 0h-170v519h170v-519zM-32 588v125h150v-125h-150zM331 588h-150v125h150v-125z" />
    <glyph glyph-name="imacron" unicode="&#x12b;" 
d="M233 0h-170v519h170v-519zM322 607h-345v86h345v-86z" />
    <glyph glyph-name="iogonek" unicode="&#x12f;" 
d="M63 0v519h170v-519h-25c-55 -59 -79 -91 -79 -124c0 -22 13 -33 33 -33c18 0 33 9 53 30l53 -25c-32 -50 -76 -82 -136 -82c-59 0 -102 30 -102 90c0 41 22 84 104 144h-71zM233 714v-130h-170v130h170z" />
    <glyph glyph-name="dotlessj" unicode="&#x237;" 
d="M233 519v-519c0 -131 -52 -174 -172 -174h-86v138h34c35 1 54 11 54 48v507h170z" />
    <glyph glyph-name="jcircumflex" unicode="&#x135;" 
d="M233 519v-519c0 -131 -52 -174 -172 -174h-86v138h34c35 1 54 11 54 48v507h170zM145 656l-60 -80h-128l112 149h152l112 -149h-128z" />
    <glyph glyph-name="kcommaaccent" unicode="&#x137;" horiz-adv-x="593" 
d="M57 0v714h170v-368l155 173h197l-190 -196l214 -323h-205l-127 209l-44 -43v-166h-170zM236 -155v105h154v-81c0 -91 -82 -103 -140 -103v42c35 4 50 12 55 37h-69z" />
    <glyph glyph-name="kgreenlandic" unicode="&#x138;" horiz-adv-x="593" 
d="M57 0v519h170v-180l155 180h196l-191 -205l215 -314h-205l-123 198l-47 -47v-151h-170z" />
    <glyph glyph-name="lacute" unicode="&#x13a;" 
d="M63 0v714h170v-714h-170zM160 911h180l-157 -149h-120z" />
    <glyph glyph-name="lcaron" unicode="&#x13e;" 
d="M63 0v714h170v-714h-170zM310 714h157l-88 -149h-104z" />
    <glyph glyph-name="lcommaaccent" unicode="&#x13c;" 
d="M63 0v714h170v-714h-170zM71 -155v105h154v-81c0 -91 -82 -103 -140 -103v42c35 4 50 12 55 37h-69z" />
    <glyph glyph-name="lslash" unicode="&#x142;" 
d="M63 0v240l-78 -59v112l78 59v362h170v-232l78 59v-112l-78 -59v-370h-170z" />
    <glyph glyph-name="ldot" unicode="&#x140;" horiz-adv-x="450" 
d="M63 0v714h170v-714h-170zM441 330h-150v125h150v-125z" />
    <glyph glyph-name="nacute" unicode="&#x144;" horiz-adv-x="630" 
d="M57 0v519h165v-71h2c32 53 101 86 163 86c173 0 187 -126 187 -201v-333h-170v303c0 50 -17 91 -85 91c-64 0 -92 -55 -92 -111v-283h-170zM335 725h180l-157 -149h-120z" />
    <glyph glyph-name="ncaron" unicode="&#x148;" horiz-adv-x="630" 
d="M57 0v519h165v-71h2c32 53 101 86 163 86c173 0 187 -126 187 -201v-333h-170v303c0 50 -17 91 -85 91c-64 0 -92 -55 -92 -111v-283h-170zM392 576h-152l-112 149h128l60 -80l60 80h128z" />
    <glyph glyph-name="ntilde" unicode="&#xf1;" horiz-adv-x="630" 
d="M57 0v519h165v-71h2c32 53 101 86 163 86c173 0 187 -126 187 -201v-333h-170v303c0 50 -17 91 -85 91c-64 0 -92 -55 -92 -111v-283h-170zM433 718h71c-8 -69 -44 -127 -119 -127c-31 0 -57 9 -81 18s-45 18 -64 18c-23 0 -37 -21 -44 -45h-71c8 65 50 136 121 136
c27 0 53 -9 80 -20c25 -11 49 -21 65 -21c23 0 35 17 42 41z" />
    <glyph glyph-name="ncommaaccent" unicode="&#x146;" horiz-adv-x="630" 
d="M57 0v519h165v-71h2c32 53 101 86 163 86c173 0 187 -126 187 -201v-333h-170v303c0 50 -17 91 -85 91c-64 0 -92 -55 -92 -111v-283h-170zM238 -155v105h154v-81c0 -91 -82 -103 -140 -103v42c35 4 50 12 55 37h-69z" />
    <glyph glyph-name="ograve" unicode="&#xf2;" horiz-adv-x="611" 
d="M32 259c0 156 112 275 273 275s274 -119 274 -275s-113 -274 -274 -274s-273 118 -273 274zM202 259c0 -67 24 -144 103 -144c80 0 104 77 104 144c0 66 -24 145 -104 145c-79 0 -103 -79 -103 -145zM286 725l97 -149h-120l-157 149h180z" />
    <glyph glyph-name="oacute" unicode="&#xf3;" horiz-adv-x="611" 
d="M32 259c0 156 112 275 273 275s274 -119 274 -275s-113 -274 -274 -274s-273 118 -273 274zM202 259c0 -67 24 -144 103 -144c80 0 104 77 104 144c0 66 -24 145 -104 145c-79 0 -103 -79 -103 -145zM326 725h180l-157 -149h-120z" />
    <glyph glyph-name="ocircumflex" unicode="&#xf4;" horiz-adv-x="611" 
d="M32 259c0 156 112 275 273 275s274 -119 274 -275s-113 -274 -274 -274s-273 118 -273 274zM202 259c0 -67 24 -144 103 -144c80 0 104 77 104 144c0 66 -24 145 -104 145c-79 0 -103 -79 -103 -145zM306 656l-60 -80h-128l112 149h152l112 -149h-128z" />
    <glyph glyph-name="otilde" unicode="&#xf5;" horiz-adv-x="611" 
d="M32 259c0 156 112 275 273 275s274 -119 274 -275s-113 -274 -274 -274s-273 118 -273 274zM202 259c0 -67 24 -144 103 -144c80 0 104 77 104 144c0 66 -24 145 -104 145c-79 0 -103 -79 -103 -145zM424 718h71c-8 -69 -44 -127 -119 -127c-31 0 -57 9 -81 18
s-45 18 -64 18c-23 0 -37 -21 -44 -45h-71c8 65 50 136 121 136c27 0 53 -9 80 -20c25 -11 49 -21 65 -21c23 0 35 17 42 41z" />
    <glyph glyph-name="odieresis" unicode="&#xf6;" horiz-adv-x="611" 
d="M32 259c0 156 112 275 273 275s274 -119 274 -275s-113 -274 -274 -274s-273 118 -273 274zM202 259c0 -67 24 -144 103 -144c80 0 104 77 104 144c0 66 -24 145 -104 145c-79 0 -103 -79 -103 -145zM125 588v125h150v-125h-150zM488 588h-150v125h150v-125z" />
    <glyph glyph-name="omacron" unicode="&#x14d;" horiz-adv-x="611" 
d="M32 259c0 156 112 275 273 275s274 -119 274 -275s-113 -274 -274 -274s-273 118 -273 274zM202 259c0 -67 24 -144 103 -144c80 0 104 77 104 144c0 66 -24 145 -104 145c-79 0 -103 -79 -103 -145zM479 607h-345v86h345v-86z" />
    <glyph glyph-name="obreve" unicode="&#x14f;" horiz-adv-x="611" 
d="M32 259c0 156 112 275 273 275s274 -119 274 -275s-113 -274 -274 -274s-273 118 -273 274zM202 259c0 -67 24 -144 103 -144c80 0 104 77 104 144c0 66 -24 145 -104 145c-79 0 -103 -79 -103 -145zM132 727h71c8 -57 60 -68 103 -68s95 11 103 68h71
c0 -93 -73 -154 -174 -154s-174 61 -174 154z" />
    <glyph glyph-name="ohungarumlaut" unicode="&#x151;" horiz-adv-x="611" 
d="M32 259c0 156 112 275 273 275s274 -119 274 -275s-113 -274 -274 -274s-273 118 -273 274zM202 259c0 -67 24 -144 103 -144c80 0 104 77 104 144c0 66 -24 145 -104 145c-79 0 -103 -79 -103 -145zM424 725h125l-120 -149h-86zM259 725h125l-120 -149h-86z" />
    <glyph glyph-name="oslash" unicode="&#xf8;" horiz-adv-x="611" 
d="M88 -34l-42 32l59 69c-47 49 -73 116 -73 192c0 156 112 275 273 275c61 0 115 -16 160 -48l51 60l44 -38l-52 -60c47 -49 71 -114 71 -189c0 -156 -113 -274 -274 -274c-61 0 -115 16 -159 47zM400 324l-159 -183c15 -17 37 -26 64 -26c80 0 104 77 104 144
c0 22 -3 44 -9 65zM212 192l159 185c-17 17 -38 27 -66 27c-79 0 -103 -79 -103 -145c0 -23 3 -46 10 -67z" />
    <glyph glyph-name="oslashacute" unicode="&#x1ff;" horiz-adv-x="611" 
d="M88 -34l-42 32l59 69c-47 49 -73 116 -73 192c0 156 112 275 273 275c61 0 115 -16 160 -48l51 60l44 -38l-52 -60c47 -49 71 -114 71 -189c0 -156 -113 -274 -274 -274c-61 0 -115 16 -159 47zM400 324l-159 -183c15 -17 37 -26 64 -26c80 0 104 77 104 144
c0 22 -3 44 -9 65zM212 192l159 185c-17 17 -38 27 -66 27c-79 0 -103 -79 -103 -145c0 -23 3 -46 10 -67zM326 725h180l-157 -149h-120z" />
    <glyph glyph-name="oe" unicode="&#x153;" horiz-adv-x="963" 
d="M935 218h-380c-1 -71 48 -118 119 -118c48 0 74 14 94 57h162c-32 -118 -144 -172 -263 -172c-71 0 -139 20 -186 76c-45 -57 -116 -76 -187 -76c-159 0 -262 108 -262 267c0 166 106 282 274 282c69 0 139 -18 182 -77c39 49 116 77 178 77c190 0 272 -140 269 -316z
M202 262c0 -72 20 -147 108 -147c77 0 98 83 98 144c0 63 -17 145 -96 145c-84 0 -110 -73 -110 -142zM553 313h212c-7 63 -36 106 -104 106c-63 0 -104 -47 -108 -106z" />
    <glyph glyph-name="racute" unicode="&#x155;" horiz-adv-x="426" 
d="M63 0v519h165v-91h2c25 67 83 101 156 101c13 0 27 -1 40 -4v-155c-23 7 -42 10 -65 10c-84 0 -128 -58 -128 -123v-257h-170zM260 725h180l-157 -149h-120z" />
    <glyph glyph-name="rcaron" unicode="&#x159;" horiz-adv-x="426" 
d="M63 0v519h165v-91h2c25 67 83 101 156 101c13 0 27 -1 40 -4v-155c-23 7 -42 10 -65 10c-84 0 -128 -58 -128 -123v-257h-170zM321 576h-152l-112 149h128l60 -80l60 80h128z" />
    <glyph glyph-name="rcommaaccent" unicode="&#x157;" horiz-adv-x="426" 
d="M63 0v519h165v-91h2c25 67 83 101 156 101c13 0 27 -1 40 -4v-155c-23 7 -42 10 -65 10c-84 0 -128 -58 -128 -123v-257h-170zM71 -155v105h154v-81c0 -91 -82 -103 -140 -103v42c35 4 50 12 55 37h-69z" />
    <glyph glyph-name="sacute" unicode="&#x15b;" horiz-adv-x="556" 
d="M27 171h162c0 -27 11 -45 28 -58c16 -12 39 -18 63 -18c32 0 80 15 80 55c0 41 -54 47 -83 55c-107 27 -241 30 -241 170c0 124 135 159 237 159c113 0 234 -33 239 -168h-157c0 21 -7 36 -22 45c-13 9 -31 13 -54 13c-28 0 -73 -3 -73 -39c0 -48 114 -59 192 -75
c104 -21 132 -97 132 -140c0 -139 -132 -185 -249 -185c-124 0 -249 41 -254 186zM300 725h180l-157 -149h-120z" />
    <glyph glyph-name="scircumflex" unicode="&#x15d;" horiz-adv-x="556" 
d="M27 171h162c0 -27 11 -45 28 -58c16 -12 39 -18 63 -18c32 0 80 15 80 55c0 41 -54 47 -83 55c-107 27 -241 30 -241 170c0 124 135 159 237 159c113 0 234 -33 239 -168h-157c0 21 -7 36 -22 45c-13 9 -31 13 -54 13c-28 0 -73 -3 -73 -39c0 -48 114 -59 192 -75
c104 -21 132 -97 132 -140c0 -139 -132 -185 -249 -185c-124 0 -249 41 -254 186zM280 656l-60 -80h-128l112 149h152l112 -149h-128z" />
    <glyph glyph-name="scaron" unicode="&#x161;" horiz-adv-x="556" 
d="M27 171h162c0 -27 11 -45 28 -58c16 -12 39 -18 63 -18c32 0 80 15 80 55c0 41 -54 47 -83 55c-107 27 -241 30 -241 170c0 124 135 159 237 159c113 0 234 -33 239 -168h-157c0 21 -7 36 -22 45c-13 9 -31 13 -54 13c-28 0 -73 -3 -73 -39c0 -48 114 -59 192 -75
c104 -21 132 -97 132 -140c0 -139 -132 -185 -249 -185c-124 0 -249 41 -254 186zM356 576h-152l-112 149h128l60 -80l60 80h128z" />
    <glyph glyph-name="scedilla" unicode="&#x15f;" horiz-adv-x="556" 
d="M27 171h162c0 -27 11 -45 28 -58c16 -12 39 -18 63 -18c32 0 80 15 80 55c0 41 -54 47 -83 55c-107 27 -241 30 -241 170c0 124 135 159 237 159c113 0 234 -33 239 -168h-157c0 21 -7 36 -22 45c-13 9 -31 13 -54 13c-28 0 -73 -3 -73 -39c0 -48 114 -59 192 -75
c104 -21 132 -97 132 -140c0 -134 -123 -181 -236 -185l-30 -45l2 -2c13 4 24 5 40 5c37 0 85 -20 85 -80c0 -72 -58 -97 -134 -97c-40 0 -80 11 -112 27l20 50c31 -13 54 -20 85 -20c30 0 47 12 47 37c0 21 -15 36 -45 36c-15 0 -25 -3 -38 -7l-23 22l49 76
c-109 8 -209 55 -213 184z" />
    <glyph glyph-name="scommaaccent" unicode="&#x219;" horiz-adv-x="556" 
d="M27 171h162c0 -27 11 -45 28 -58c16 -12 39 -18 63 -18c32 0 80 15 80 55c0 41 -54 47 -83 55c-107 27 -241 30 -241 170c0 124 135 159 237 159c113 0 234 -33 239 -168h-157c0 21 -7 36 -22 45c-13 9 -31 13 -54 13c-28 0 -73 -3 -73 -39c0 -48 114 -59 192 -75
c104 -21 132 -97 132 -140c0 -139 -132 -185 -249 -185c-124 0 -249 41 -254 186zM198 -155v105h154v-81c0 -91 -82 -103 -140 -103v42c35 4 50 12 55 37h-69z" />
    <glyph glyph-name="germandbls" unicode="&#xdf;" horiz-adv-x="630" 
d="M57 0v502c0 122 75 227 251 227c119 0 244 -58 244 -195c0 -59 -31 -117 -87 -137v-2c81 -16 127 -96 127 -175c0 -137 -95 -225 -231 -225c-28 0 -56 2 -84 5v129c15 -3 28 -4 43 -4c65 0 102 45 102 109c0 87 -67 110 -143 105v101c54 -5 114 13 114 80
c0 51 -32 79 -79 79c-83 0 -87 -53 -87 -128v-471h-170z" />
    <glyph glyph-name="tcaron" unicode="&#x165;" horiz-adv-x="389" 
d="M351 714h157l-88 -149h-104zM370 519v-110h-105v-236c0 -41 24 -50 61 -50c15 0 29 2 44 2v-125c-31 -1 -62 -5 -93 -5c-145 0 -182 43 -182 183v231h-86v110h86v157h170v-157h105z" />
    <glyph glyph-name="tcommaaccent" unicode="&#x163;" horiz-adv-x="389" 
d="M370 519v-110h-105v-236c0 -41 24 -50 61 -50c15 0 29 2 44 2v-125c-31 -1 -62 -5 -93 -5c-145 0 -182 43 -182 183v231h-86v110h86v157h170v-157h105zM155 -155v105h154v-81c0 -91 -82 -103 -140 -103v42c35 4 50 12 55 37h-69z" />
    <glyph glyph-name="uni021B" unicode="&#x21b;" horiz-adv-x="389" 
d="M370 519v-110h-105v-236c0 -41 24 -50 61 -50c15 0 29 2 44 2v-125c-31 -1 -62 -5 -93 -5c-145 0 -182 43 -182 183v231h-86v110h86v157h170v-157h105zM155 -155v105h154v-81c0 -91 -82 -103 -140 -103v42c35 4 50 12 55 37h-69z" />
    <glyph glyph-name="tbar" unicode="&#x167;" horiz-adv-x="389" 
d="M370 519v-110h-105v-76h92v-86h-92v-74c0 -41 24 -50 61 -50c15 0 28 1 44 2v-125c-34 -3 -62 -5 -93 -5c-145 0 -182 43 -182 183v69h-77v86h77v76h-86v110h86v157h170v-157h105z" />
    <glyph glyph-name="thorn" unicode="&#xfe;" horiz-adv-x="630" 
d="M325 404c-45 0 -104 -31 -104 -139c0 -91 26 -150 103 -150c75 0 102 79 102 150c0 66 -25 139 -101 139zM227 714v-252h2c35 48 84 72 148 72c150 0 219 -139 219 -286c0 -135 -72 -263 -219 -263c-63 0 -113 24 -148 71h-2v-230h-170v888h170z" />
    <glyph glyph-name="ugrave" unicode="&#xf9;" horiz-adv-x="630" 
d="M573 519v-519h-165v71h-2c-32 -53 -98 -86 -158 -86c-149 0 -192 86 -192 222v312h170v-301c0 -69 29 -93 84 -93c36 0 93 24 93 116v278h170zM296 725l97 -149h-120l-157 149h180z" />
    <glyph glyph-name="uacute" unicode="&#xfa;" horiz-adv-x="630" 
d="M573 519v-519h-165v71h-2c-32 -53 -98 -86 -158 -86c-149 0 -192 86 -192 222v312h170v-301c0 -69 29 -93 84 -93c36 0 93 24 93 116v278h170zM336 725h180l-157 -149h-120z" />
    <glyph glyph-name="ucircumflex" unicode="&#xfb;" horiz-adv-x="630" 
d="M573 519v-519h-165v71h-2c-32 -53 -98 -86 -158 -86c-149 0 -192 86 -192 222v312h170v-301c0 -69 29 -93 84 -93c36 0 93 24 93 116v278h170zM316 656l-60 -80h-128l112 149h152l112 -149h-128z" />
    <glyph glyph-name="utilde" unicode="&#x169;" horiz-adv-x="630" 
d="M573 519v-519h-165v71h-2c-32 -53 -98 -86 -158 -86c-149 0 -192 86 -192 222v312h170v-301c0 -69 29 -93 84 -93c36 0 93 24 93 116v278h170zM434 718h71c-8 -69 -44 -127 -119 -127c-31 0 -57 9 -81 18s-45 18 -64 18c-23 0 -37 -21 -44 -45h-71c8 65 50 136 121 136
c27 0 53 -9 80 -20c25 -11 49 -21 65 -21c23 0 35 17 42 41z" />
    <glyph glyph-name="udieresis" unicode="&#xfc;" horiz-adv-x="630" 
d="M573 519v-519h-165v71h-2c-32 -53 -98 -86 -158 -86c-149 0 -192 86 -192 222v312h170v-301c0 -69 29 -93 84 -93c36 0 93 24 93 116v278h170zM135 588v125h150v-125h-150zM498 588h-150v125h150v-125z" />
    <glyph glyph-name="umacron" unicode="&#x16b;" horiz-adv-x="630" 
d="M573 519v-519h-165v71h-2c-32 -53 -98 -86 -158 -86c-149 0 -192 86 -192 222v312h170v-301c0 -69 29 -93 84 -93c36 0 93 24 93 116v278h170zM489 607h-345v86h345v-86z" />
    <glyph glyph-name="ubreve" unicode="&#x16d;" horiz-adv-x="630" 
d="M573 519v-519h-165v71h-2c-32 -53 -98 -86 -158 -86c-149 0 -192 86 -192 222v312h170v-301c0 -69 29 -93 84 -93c36 0 93 24 93 116v278h170zM142 727h71c8 -57 60 -68 103 -68s95 11 103 68h71c0 -93 -73 -154 -174 -154s-174 61 -174 154z" />
    <glyph glyph-name="uring" unicode="&#x16f;" horiz-adv-x="630" 
d="M573 519v-519h-165v71h-2c-32 -53 -98 -86 -158 -86c-149 0 -192 86 -192 222v312h170v-301c0 -69 29 -93 84 -93c36 0 93 24 93 116v278h170zM316 616c29 0 52 23 52 52c0 31 -23 52 -52 52s-52 -21 -52 -52c0 -29 23 -52 52 -52zM316 564c-62 -4 -110 47 -107 104
c0 63 46 104 107 104s107 -40 107 -104c0 -61 -46 -104 -107 -104z" />
    <glyph glyph-name="uhungarumlaut" unicode="&#x171;" horiz-adv-x="630" 
d="M573 519v-519h-165v71h-2c-32 -53 -98 -86 -158 -86c-149 0 -192 86 -192 222v312h170v-301c0 -69 29 -93 84 -93c36 0 93 24 93 116v278h170zM434 725h125l-120 -149h-86zM269 725h125l-120 -149h-86z" />
    <glyph glyph-name="uogonek" unicode="&#x173;" horiz-adv-x="630" 
d="M408 0v71h-2c-32 -53 -98 -86 -158 -86c-149 0 -192 86 -192 222v312h170v-301c0 -69 29 -93 84 -93c36 0 93 24 93 116v278h170v-519h-91c-57 -59 -82 -89 -82 -124c0 -23 14 -33 36 -33c19 0 36 8 57 30l53 -25c-33 -51 -78 -82 -140 -82c-61 0 -105 30 -105 90
c0 42 23 84 107 144z" />
    <glyph glyph-name="wacute" unicode="&#x1e83;" horiz-adv-x="833" 
d="M833 519l-162 -519h-172l-82 345h-2l-81 -345h-172l-162 519h172l87 -336h2l74 336h162l76 -335h2l85 335h173zM427 725h180l-157 -149h-120z" />
    <glyph glyph-name="wcircumflex" unicode="&#x175;" horiz-adv-x="833" 
d="M833 519l-162 -519h-172l-82 345h-2l-81 -345h-172l-162 519h172l87 -336h2l74 336h162l76 -335h2l85 335h173zM417 656l-60 -80h-128l112 149h152l112 -149h-128z" />
    <glyph glyph-name="wdieresis" unicode="&#x1e85;" horiz-adv-x="833" 
d="M833 519l-162 -519h-172l-82 345h-2l-81 -345h-172l-162 519h172l87 -336h2l74 336h162l76 -335h2l85 335h173zM236 588v125h150v-125h-150zM599 588h-150v125h150v-125z" />
    <glyph glyph-name="wgrave" unicode="&#x1e81;" horiz-adv-x="833" 
d="M833 519l-162 -519h-172l-82 345h-2l-81 -345h-172l-162 519h172l87 -336h2l74 336h162l76 -335h2l85 335h173zM407 725l97 -149h-120l-157 149h180z" />
    <glyph glyph-name="yacute" unicode="&#xfd;" horiz-adv-x="537" 
d="M545 519l-205 -565c-40 -114 -103 -128 -217 -128h-80v138h59c39 0 68 22 68 58c0 28 -33 108 -43 136l-134 361h180l98 -338h2l98 338h174zM292 725h180l-157 -149h-120z" />
    <glyph glyph-name="ycircumflex" unicode="&#x177;" horiz-adv-x="537" 
d="M545 519l-205 -565c-40 -114 -103 -128 -217 -128h-80v138h59c39 0 68 22 68 58c0 28 -33 108 -43 136l-134 361h180l98 -338h2l98 338h174zM272 656l-60 -80h-128l112 149h152l112 -149h-128z" />
    <glyph glyph-name="ydieresis" unicode="&#xff;" horiz-adv-x="537" 
d="M545 519l-205 -565c-40 -114 -103 -128 -217 -128h-80v138h59c39 0 68 22 68 58c0 28 -33 108 -43 136l-134 361h180l98 -338h2l98 338h174zM91 588v125h150v-125h-150zM454 588h-150v125h150v-125z" />
    <glyph glyph-name="ygrave" unicode="&#x1ef3;" horiz-adv-x="537" 
d="M545 519l-205 -565c-40 -114 -103 -128 -217 -128h-80v138h59c39 0 68 22 68 58c0 28 -33 108 -43 136l-134 361h180l98 -338h2l98 338h174zM252 725l97 -149h-120l-157 149h180z" />
    <glyph glyph-name="zacute" unicode="&#x17a;" horiz-adv-x="537" 
d="M22 0v132l259 257h-238v130h454v-129l-259 -260h278v-130h-494zM288 725h180l-157 -149h-120z" />
    <glyph glyph-name="zcaron" unicode="&#x17e;" horiz-adv-x="537" 
d="M22 0v132l259 257h-238v130h454v-129l-259 -260h278v-130h-494zM344 576h-152l-112 149h128l60 -80l60 80h128z" />
    <glyph glyph-name="zdotaccent" unicode="&#x17c;" horiz-adv-x="537" 
d="M22 0v132l259 257h-238v130h454v-129l-259 -260h278v-130h-494zM344 588h-150v125h150v-125z" />
    <glyph glyph-name="grave.cap" unicode="&#xe000;" 
d="M145 911l97 -149h-120l-157 149h180z" />
    <glyph glyph-name="acute" unicode="&#xb4;" 
d="M142 725h180l-157 -149h-120z" />
    <glyph glyph-name="acute.cap" unicode="&#xe002;" 
d="M142 911h180l-157 -149h-120z" />
    <glyph glyph-name="circumflex" unicode="&#x2c6;" 
d="M148 656l-60 -80h-128l112 149h152l112 -149h-128z" />
    <glyph glyph-name="circumflex.cap" unicode="&#xe004;" 
d="M148 842l-60 -80h-128l112 149h152l112 -149h-128z" />
    <glyph glyph-name="caron" unicode="&#x2c7;" 
d="M224 576h-152l-112 149h128l60 -80l60 80h128z" />
    <glyph glyph-name="caron.cap" unicode="&#xe006;" 
d="M224 762h-152l-112 149h128l60 -80l60 80h128z" />
    <glyph glyph-name="caron.alt" unicode="&#xe008;" 
d="M130 714h157l-88 -149h-104z" />
    <glyph glyph-name="tilde" unicode="&#x2dc;" 
d="M267 718h71c-8 -69 -44 -127 -119 -127c-31 0 -57 9 -81 18s-45 18 -64 18c-23 0 -37 -21 -44 -45h-71c8 65 50 136 121 136c27 0 53 -9 80 -20c25 -11 49 -21 65 -21c23 0 35 17 42 41z" />
    <glyph glyph-name="tilde.cap" unicode="&#xe009;" 
d="M267 904h71c-8 -69 -44 -127 -119 -127c-31 0 -57 9 -81 18s-45 18 -64 18c-23 0 -37 -21 -44 -45h-71c8 65 50 136 121 136c27 0 53 -9 80 -20c25 -11 49 -21 65 -21c23 0 35 17 42 41z" />
    <glyph glyph-name="dieresis" unicode="&#xa8;" 
d="M-33 588v125h150v-125h-150zM330 588h-150v125h150v-125z" />
    <glyph glyph-name="dieresis.cap" unicode="&#xe00b;" 
d="M-33 774v125h150v-125h-150zM330 774h-150v125h150v-125z" />
    <glyph glyph-name="macron" unicode="&#xaf;" 
d="M321 607h-345v86h345v-86z" />
    <glyph glyph-name="macron.cap" unicode="&#xe00d;" 
d="M321 793h-345v86h345v-86z" />
    <glyph glyph-name="uni02C9" unicode="&#x2c9;" 
d="M321 607h-345v86h345v-86z" />
    <glyph glyph-name="breve" unicode="&#x2d8;" 
d="M-26 727h71c8 -57 60 -68 103 -68s95 11 103 68h71c0 -93 -73 -154 -174 -154s-174 61 -174 154z" />
    <glyph glyph-name="breve.cap" unicode="&#xe00f;" 
d="M-26 913h71c8 -57 60 -68 103 -68s95 11 103 68h71c0 -93 -73 -154 -174 -154s-174 61 -174 154z" />
    <glyph glyph-name="ring" unicode="&#x2da;" 
d="M148 616c29 0 52 23 52 52c0 31 -23 52 -52 52s-52 -21 -52 -52c0 -29 23 -52 52 -52zM148 564c-62 -4 -110 47 -107 104c0 63 46 104 107 104s107 -40 107 -104c0 -61 -46 -104 -107 -104z" />
    <glyph glyph-name="ring.cap" unicode="&#xe011;" 
d="M148 794c29 0 52 23 52 52c0 31 -23 52 -52 52s-52 -21 -52 -52c0 -29 23 -52 52 -52zM148 742c-62 -4 -110 47 -107 104c0 63 46 104 107 104s107 -40 107 -104c0 -61 -46 -104 -107 -104z" />
    <glyph glyph-name="hungarumlaut" unicode="&#x2dd;" 
d="M229 725h125l-120 -149h-86zM64 725h125l-120 -149h-86z" />
    <glyph glyph-name="hungarumlaut.cap" unicode="&#xe013;" 
d="M229 911h125l-120 -149h-86zM64 911h125l-120 -149h-86z" />
    <glyph glyph-name="dotaccent" unicode="&#x2d9;" 
d="M223 588h-150v125h150v-125z" />
    <glyph glyph-name="dotaccent.cap" unicode="&#xe015;" 
d="M223 774h-150v125h150v-125z" />
    <glyph glyph-name="cedilla" unicode="&#xb8;" 
d="M133 0h55l-40 -60l2 -2c13 4 24 5 40 5c37 0 85 -20 85 -80c0 -72 -58 -97 -134 -97c-40 0 -80 11 -112 27l20 50c31 -13 54 -20 85 -20c30 0 47 12 47 37c0 21 -15 36 -45 36c-15 0 -25 -3 -38 -7l-23 22z" />
    <glyph glyph-name="ogonek" unicode="&#x2db;" 
d="M134 0h74c-57 -59 -82 -89 -82 -124c0 -23 14 -33 36 -33c19 0 36 8 57 30l53 -25c-33 -51 -78 -82 -140 -82c-61 0 -105 30 -105 90c0 42 23 84 107 144z" />
    <glyph glyph-name="commaaccent" unicode="&#xe017;" horiz-adv-x="316" 
d="M78 -155v105h154v-81c0 -91 -82 -103 -140 -103v42c35 4 50 12 55 37h-69z" />
    <glyph glyph-name="commaaccent.alt" unicode="&#xe01a;" horiz-adv-x="316" 
d="M247 714v-105h-154v81c0 91 82 103 140 103v-42c-35 -4 -50 -12 -55 -37h69z" />
    <glyph glyph-name="ellipsis" unicode="&#x2026;" horiz-adv-x="1000" 
d="M926 0h-186v186h186v-186zM593 0h-186v186h186v-186zM260 0h-186v186h186v-186z" />
    <glyph glyph-name="uni00AD" unicode="&#xad;" horiz-adv-x="407" 
d="M359 200h-311v144h311v-144z" />
    <glyph glyph-name="exclamdown" unicode="&#xa1;" 
d="M241 547v-186h-186v186h186zM61 -167v177l46 301h83l46 -301v-177h-175z" />
    <glyph glyph-name="questiondown" unicode="&#xbf;" horiz-adv-x="574" 
d="M392 547v-186h-186v186h186zM368 67h175c-3 -158 -106 -249 -262 -249c-125 0 -250 66 -250 204c0 96 47 133 123 180c51 35 66 47 66 109h158v-50c0 -77 -44 -112 -81 -139c-41 -30 -80 -48 -80 -99c0 -39 29 -61 65 -61c56 0 83 33 86 86v19z" />
    <glyph glyph-name="quoteleft" unicode="&#x2018;" 
d="M228 540v-186h-159v166c1 100 50 175 159 194v-80c-44 -8 -75 -47 -72 -94h72z" />
    <glyph glyph-name="quoteright" unicode="&#x2019;" 
d="M69 528v186h159v-166c-1 -100 -50 -175 -159 -194v80c44 8 75 47 72 94h-72z" />
    <glyph glyph-name="quotedblleft" unicode="&#x201c;" horiz-adv-x="500" 
d="M445 540v-186h-159v166c1 100 50 175 159 194v-80c-44 -8 -75 -47 -72 -94h72zM214 540v-186h-159v166c1 100 50 175 159 194v-80c-44 -8 -75 -47 -72 -94h72z" />
    <glyph glyph-name="quotedblright" unicode="&#x201d;" horiz-adv-x="500" 
d="M55 528v186h159v-166c-1 -100 -50 -175 -159 -194v80c44 8 75 47 72 94h-72zM286 528v186h159v-166c-1 -100 -50 -175 -159 -194v80c44 8 75 47 72 94h-72z" />
    <glyph glyph-name="quotesinglbase" unicode="&#x201a;" 
d="M69 0v186h159v-166c-1 -100 -50 -175 -159 -194v80c44 8 75 47 72 94h-72z" />
    <glyph glyph-name="quotedblbase" unicode="&#x201e;" horiz-adv-x="500" 
d="M55 0v186h159v-166c-1 -100 -50 -175 -159 -194v80c44 8 75 47 72 94h-72zM286 0v186h159v-166c-1 -100 -50 -175 -159 -194v80c44 8 75 47 72 94h-72z" />
    <glyph glyph-name="guilsinglleft" unicode="&#x2039;" horiz-adv-x="241" 
d="M41 194v152l159 128v-137l-86 -67l86 -66v-137z" />
    <glyph glyph-name="guilsinglright" unicode="&#x203a;" horiz-adv-x="241" 
d="M200 347v-152l-159 -128v137l86 67l-86 66v137z" />
    <glyph glyph-name="guillemotleft" unicode="&#xab;" horiz-adv-x="444" 
d="M240 194v152l159 128v-137l-86 -67l86 -66v-137zM45 194v152l159 128v-137l-86 -67l86 -66v-137z" />
    <glyph glyph-name="guillemotright" unicode="&#xbb;" horiz-adv-x="444" 
d="M204 347v-152l-159 -128v137l86 67l-86 66v137zM399 347v-152l-159 -128v137l86 67l-86 66v137z" />
    <glyph glyph-name="endash" unicode="&#x2013;" horiz-adv-x="500" 
d="M0 200v144h500v-144h-500z" />
    <glyph glyph-name="emdash" unicode="&#x2014;" horiz-adv-x="1000" 
d="M130 200v144h740v-144h-740z" />
    <glyph glyph-name="bullet" unicode="&#x2022;" horiz-adv-x="500" 
d="M72 357c0 99 79 178 178 178s179 -79 179 -178s-80 -179 -179 -179s-178 80 -178 179z" />
    <glyph glyph-name="periodcentered" unicode="&#xb7;" horiz-adv-x="315" 
d="M65 286c0 51 42 93 93 93s93 -42 93 -93s-42 -93 -93 -93s-93 42 -93 93z" />
    <glyph glyph-name="uni2219" unicode="&#x2219;" horiz-adv-x="315" 
d="M65 286c0 51 42 93 93 93s93 -42 93 -93s-42 -93 -93 -93s-93 42 -93 93z" />
    <glyph glyph-name="dagger" unicode="&#x2020;" horiz-adv-x="630" 
d="M233 376h-181v144h181v194h164v-194h181v-144h-181v-550h-164v550z" />
    <glyph glyph-name="daggerdbl" unicode="&#x2021;" horiz-adv-x="630" 
d="M397 -174h-164v194h-182v144h182v212h-182v144h182v194h164v-194h181v-144h-181v-212h182v-144h-182v-194z" />
    <glyph glyph-name="section" unicode="&#xa7;" horiz-adv-x="630" 
d="M544 534h-147c0 22 -7 39 -21 52c-13 12 -31 18 -53 18c-31 0 -61 -17 -61 -52c0 -36 44 -56 73 -69l166 -81c55 -32 95 -67 95 -136c0 -68 -36 -131 -103 -150c33 -28 50 -65 50 -110c0 -129 -111 -188 -227 -188c-131 0 -235 58 -235 204h147c0 -25 10 -44 25 -59
c15 -13 35 -20 60 -20c40 0 70 23 70 62c0 101 -348 110 -348 298c0 76 40 127 105 152c-27 31 -38 59 -38 100c0 117 119 174 219 174c122 0 220 -64 223 -195zM220 275l187 -90c15 4 35 16 40 31c13 27 0 56 -47 81l-151 70c-10 5 -19 8 -28 8c-26 0 -40 -20 -42 -46
c-3 -27 17 -39 41 -54z" />
    <glyph glyph-name="paragraph" unicode="&#xb6;" horiz-adv-x="620" 
d="M206 -169v534c-145 0 -223 63 -223 171c0 144 107 178 246 178h314v-883h-120v793h-97v-793h-120z" />
    <glyph glyph-name="brokenbar" unicode="&#xa6;" horiz-adv-x="222" 
d="M183 661v-250h-144v250h144zM39 -89v250h144v-250h-144z" />
    <glyph glyph-name="copyright" unicode="&#xa9;" horiz-adv-x="800" 
d="M499 303h94c-13 -103 -92 -157 -178 -157c-125 0 -208 94 -208 214c0 123 78 215 206 215c91 0 160 -53 176 -153h-90c-9 43 -46 58 -86 58c-57 0 -89 -46 -89 -118c0 -69 36 -121 91 -121c47 0 81 18 84 62zM400 80c141 0 261 114 261 277s-120 277 -261 277
c-144 0 -261 -114 -261 -277s117 -277 261 -277zM400 -15c-200 0 -386 136 -386 372s186 372 386 372c199 0 386 -136 386 -372s-187 -372 -386 -372z" />
    <glyph glyph-name="registered" unicode="&#xae;" horiz-adv-x="800" 
d="M400 80c141 0 261 114 261 277s-120 277 -261 277c-144 0 -261 -114 -261 -277s117 -277 261 -277zM400 -15c-200 0 -386 136 -386 372s186 372 386 372c199 0 386 -136 386 -372s-187 -372 -386 -372zM346 395h71c35 0 55 8 55 51c0 39 -46 42 -75 42h-51v-93zM346 324
v-168h-98v403h151c106 0 171 -27 171 -123c0 -75 -46 -103 -115 -106l103 -174h-95l-92 168h-25z" />
    <glyph glyph-name="trademark" unicode="&#x2122;" horiz-adv-x="1000" 
d="M625 714l89 -239l89 239h156v-412h-110v270h-2l-89 -270h-88l-89 270h-2v-270h-110v412h156zM386 714v-95h-110v-317h-125v317h-110v95h345z" />
    <glyph glyph-name="currency" unicode="&#xa4;" horiz-adv-x="630" 
d="M194 350c0 -81 54 -135 121 -135s121 54 121 135s-54 135 -121 135s-121 -54 -121 -135zM118 88l-60 60l44 45c-33 44 -52 97 -52 157c0 57 18 109 49 154l-45 44l60 60l45 -44c43 32 96 51 156 51s113 -19 156 -51l43 44l60 -60l-44 -44c31 -43 50 -95 50 -154
s-19 -111 -50 -154l44 -44l-60 -60l-44 44c-43 -32 -95 -51 -155 -51c-57 0 -109 17 -152 48z" />
    <glyph glyph-name="Euro" unicode="&#x20ac;" horiz-adv-x="630" 
d="M604 656l-51 -134c-51 33 -98 49 -141 49c-63 0 -107 -34 -132 -101h251l-33 -85h-234c-1 -13 -2 -24 -2 -35c0 -4 1 -16 2 -35h209l-36 -85h-157c18 -71 63 -107 136 -107c49 0 100 20 153 61v-154c-47 -25 -100 -38 -160 -38c-83 0 -151 25 -202 76
c-44 43 -72 97 -84 162h-88l33 85h44v16c-1 3 -1 7 -1 10v11c0 13 1 24 2 33h-78l33 85h57c17 69 49 125 95 166c53 47 120 70 201 70c57 0 118 -17 183 -50z" />
    <glyph glyph-name="cent" unicode="&#xa2;" horiz-adv-x="630" 
d="M299 -105v92c-147 8 -250 113 -250 264c0 157 95 271 250 282v79h46v-79c118 -8 219 -77 232 -204h-165c-1 39 -31 67 -67 72v-283c43 8 65 39 72 86h165c-16 -131 -111 -209 -237 -217v-92h-46zM299 118v283c-68 -16 -80 -86 -80 -150c0 -59 23 -122 80 -133z" />
    <glyph glyph-name="sterling" unicode="&#xa3;" horiz-adv-x="630" 
d="M119 -15l-68 102c48 32 109 85 109 148c0 21 -4 46 -13 65h-106v105h67c-23 31 -43 72 -43 113c0 147 133 211 260 211c157 0 264 -84 259 -248h-165c3 52 -20 104 -81 104c-51 0 -87 -27 -87 -79c0 -29 24 -79 40 -101h119v-105h-89c5 -13 7 -27 7 -42
c0 -43 -18 -83 -69 -122l2 -2c21 15 48 19 75 19c35 0 79 -19 118 -19c43 0 62 14 89 45l69 -123c-57 -59 -113 -71 -174 -71c-66 0 -141 39 -213 39c-39 0 -75 -19 -106 -39z" />
    <glyph glyph-name="florin" unicode="&#x192;" horiz-adv-x="630" 
d="M157 421h97l26 138c24 129 96 170 221 170c27 0 52 -2 79 -3l-23 -125c-18 2 -33 3 -46 3c-36 0 -51 -18 -62 -70l-21 -113h96l-20 -110h-96l-57 -305c-27 -139 -85 -180 -222 -180c-27 0 -50 3 -77 3l19 125c16 -2 30 -3 42 -3c35 0 53 11 64 62l57 298h-97z" />
    <glyph glyph-name="yen" unicode="&#xa5;" horiz-adv-x="630" 
d="M630 714l-149 -301h103v-105h-156l-20 -41v-31h176v-105h-176v-131h-186v131h-176v105h176v31l-20 41h-156v105h104l-150 301h186l128 -301h2l128 301h186z" />
    <glyph glyph-name="ordfeminine" unicode="&#xaa;" horiz-adv-x="377" 
d="M132 592h-118c1 51 21 77 52 93c31 15 69 21 122 21c99 0 176 -16 176 -113v-139c0 -27 0 -55 13 -92h-129c-3 9 -6 19 -7 29c-20 -13 -37 -22 -56 -29c-17 -6 -36 -9 -55 -9c-80 0 -130 30 -130 94c0 60 30 84 70 99c41 15 92 15 141 24c19 4 29 10 29 29s-30 27 -53 27
c-31 0 -50 -11 -55 -34zM239 501v19c-24 -9 -44 -12 -68 -17c-25 -5 -46 -15 -46 -40c0 -20 22 -30 47 -30c45 0 67 23 67 68z" />
    <glyph glyph-name="ordmasculine" unicode="&#xba;" horiz-adv-x="387" 
d="M193 353c-123 0 -195 71 -195 176c0 107 72 177 195 177c124 0 196 -70 196 -177c0 -105 -72 -176 -196 -176zM193 448c55 0 71 47 71 81c0 35 -16 82 -71 82c-53 0 -70 -47 -70 -82c0 -34 17 -81 70 -81z" />
    <glyph glyph-name="onesuperior" unicode="&#xb9;" horiz-adv-x="410" 
d="M292 820v-423h-128v258h-112v84h34c54 0 90 23 97 81h109z" />
    <glyph glyph-name="twosuperior" unicode="&#xb2;" horiz-adv-x="410" 
d="M376 489v-92h-352c0 107 34 155 109 200l74 44c32 19 45 36 45 60c0 23 -17 39 -43 39c-37 0 -51 -23 -52 -66h-126c0 95 64 155 180 155c108 0 168 -50 168 -129c0 -59 -29 -90 -91 -127l-82 -49c-20 -12 -35 -23 -39 -35h209z" />
    <glyph glyph-name="threesuperior" unicode="&#xb3;" horiz-adv-x="410" 
d="M156 577v81h38c35 0 54 18 54 42c0 25 -17 41 -48 41c-34 0 -52 -12 -52 -51h-119c4 92 68 139 175 139c101 0 161 -47 161 -119c0 -35 -19 -66 -66 -83v-3c58 -15 83 -52 83 -100c0 -83 -74 -136 -185 -136c-117 0 -178 56 -178 142h120c4 -32 23 -52 63 -52
c39 0 62 20 62 50c0 37 -22 49 -68 49h-40z" />
    <glyph glyph-name="fraction" unicode="&#x2044;" horiz-adv-x="167" 
d="M-70 -27h-99l411 751h99z" />
    <glyph glyph-name="uni2215" unicode="&#x2215;" horiz-adv-x="167" 
d="M-70 -27h-99l411 751h99z" />
    <glyph glyph-name="onehalf" unicode="&#xbd;" horiz-adv-x="945" 
d="M271 703v-423h-128v258h-112v84h34c54 0 90 23 97 81h109zM263 -27h-99l411 751h99zM872 92v-92h-352c0 107 34 155 109 200l74 44c32 19 45 36 45 60c0 23 -17 39 -43 39c-37 0 -51 -23 -52 -66h-126c0 95 64 155 180 155c108 0 168 -50 168 -129
c0 -59 -29 -90 -91 -127l-82 -49c-20 -12 -35 -23 -39 -35h209z" />
    <glyph glyph-name="onethird" unicode="&#x2153;" horiz-adv-x="945" 
d="M271 703v-423h-128v258h-112v84h34c54 0 90 23 97 81h109zM263 -27h-99l411 751h99zM659 180v81h38c35 0 54 18 54 42c0 25 -17 41 -48 41c-34 0 -52 -12 -52 -51h-119c4 92 68 139 175 139c101 0 161 -47 161 -119c0 -35 -19 -66 -66 -83v-3c58 -15 83 -52 83 -100
c0 -83 -74 -136 -185 -136c-117 0 -178 56 -178 142h120c4 -32 23 -52 63 -52c39 0 62 20 62 50c0 37 -22 49 -68 49h-40z" />
    <glyph glyph-name="onequarter" unicode="&#xbc;" horiz-adv-x="945" 
d="M271 703v-423h-128v258h-112v84h34c54 0 90 23 97 81h109zM293 -27h-99l411 751h99zM706 169v117l-93 -117h93zM706 0v80h-193v90l203 253h112v-254h58v-89h-58v-80h-122z" />
    <glyph glyph-name="oneeighth" unicode="&#x215b;" horiz-adv-x="945" 
d="M271 703v-423h-128v258h-112v84h34c54 0 90 23 97 81h109zM263 -27h-99l411 751h99zM655 305c0 -26 19 -43 48 -43c30 0 48 17 48 43c0 28 -18 45 -48 45c-31 0 -48 -18 -48 -45zM540 311c0 71 67 121 163 121c111 0 164 -52 164 -117c0 -38 -21 -68 -60 -87v-3
c52 -18 78 -52 78 -100c0 -88 -85 -134 -181 -134c-107 0 -183 42 -183 133c0 48 28 83 77 99v3c-41 19 -58 49 -58 85zM641 129c0 -36 27 -54 63 -54c38 0 61 19 61 54c0 33 -25 54 -62 54c-39 0 -62 -19 -62 -54z" />
    <glyph glyph-name="twothirds" unicode="&#x2154;" horiz-adv-x="945" 
d="M695 180v81h38c35 0 54 18 54 42c0 25 -17 41 -48 41c-34 0 -52 -12 -52 -51h-119c4 92 68 139 175 139c101 0 161 -47 161 -119c0 -35 -19 -66 -66 -83v-3c58 -15 83 -52 83 -100c0 -83 -74 -136 -185 -136c-117 0 -178 56 -178 142h120c4 -32 23 -52 63 -52
c39 0 62 20 62 50c0 37 -22 49 -68 49h-40zM375 372v-92h-352c0 107 34 155 109 200l74 44c32 19 45 36 45 60c0 23 -17 39 -43 39c-37 0 -51 -23 -52 -66h-126c0 95 64 155 180 155c108 0 168 -50 168 -129c0 -59 -29 -90 -91 -127l-82 -49c-20 -12 -35 -23 -39 -35h209z
M328 -27h-99l411 751h99z" />
    <glyph glyph-name="threequarters" unicode="&#xbe;" horiz-adv-x="945" 
d="M340 -27h-99l411 751h99zM713 169v117l-93 -117h93zM713 0v80h-193v90l203 253h112v-254h58v-89h-58v-80h-122zM169 460v81h38c35 0 54 18 54 42c0 25 -17 41 -48 41c-34 0 -52 -12 -52 -51h-119c4 92 68 139 175 139c101 0 161 -47 161 -119c0 -35 -19 -66 -66 -83v-3
c58 -15 83 -52 83 -100c0 -83 -74 -136 -185 -136c-117 0 -178 56 -178 142h120c4 -32 23 -52 63 -52c39 0 62 20 62 50c0 37 -22 49 -68 49h-40z" />
    <glyph glyph-name="threeeighths" unicode="&#x215c;" horiz-adv-x="945" 
d="M313 -27h-99l411 751h99zM164 460v81h38c35 0 54 18 54 42c0 25 -17 41 -48 41c-34 0 -52 -12 -52 -51h-119c4 92 68 139 175 139c101 0 161 -47 161 -119c0 -35 -19 -66 -66 -83v-3c58 -15 83 -52 83 -100c0 -83 -74 -136 -185 -136c-117 0 -178 56 -178 142h120
c4 -32 23 -52 63 -52c39 0 62 20 62 50c0 37 -22 49 -68 49h-40zM672 305c0 -26 19 -43 48 -43c30 0 48 17 48 43c0 28 -18 45 -48 45c-31 0 -48 -18 -48 -45zM557 311c0 71 67 121 163 121c111 0 164 -52 164 -117c0 -38 -21 -68 -60 -87v-3c52 -18 78 -52 78 -100
c0 -88 -85 -134 -181 -134c-107 0 -183 42 -183 133c0 48 28 83 77 99v3c-41 19 -58 49 -58 85zM658 129c0 -36 27 -54 63 -54c38 0 61 19 61 54c0 33 -25 54 -62 54c-39 0 -62 -19 -62 -54z" />
    <glyph glyph-name="fiveeighths" unicode="&#x215d;" horiz-adv-x="945" 
d="M313 -27h-99l411 751h99zM672 305c0 -26 19 -43 48 -43c30 0 48 17 48 43c0 28 -18 45 -48 45c-31 0 -48 -18 -48 -45zM557 311c0 71 67 121 163 121c111 0 164 -52 164 -117c0 -38 -21 -68 -60 -87v-3c52 -18 78 -52 78 -100c0 -88 -85 -134 -181 -134
c-107 0 -183 42 -183 133c0 48 28 83 77 99v3c-41 19 -58 49 -58 85zM658 129c0 -36 27 -54 63 -54c38 0 61 19 61 54c0 33 -25 54 -62 54c-39 0 -62 -19 -62 -54zM369 703v-89h-189l-13 -68c18 16 50 22 75 22c92 0 148 -56 148 -139c0 -97 -74 -158 -183 -158
c-108 0 -167 49 -171 130h119c5 -25 25 -40 56 -40c36 0 58 23 58 65c0 39 -19 62 -57 62c-25 0 -41 -10 -51 -26h-116l40 241h284z" />
    <glyph glyph-name="seveneighths" unicode="&#x215e;" horiz-adv-x="945" 
d="M266 -27h-99l411 751h99zM662 305c0 -26 19 -43 48 -43c30 0 48 17 48 43c0 28 -18 45 -48 45c-31 0 -48 -18 -48 -45zM547 311c0 71 67 121 163 121c111 0 164 -52 164 -117c0 -38 -21 -68 -60 -87v-3c52 -18 78 -52 78 -100c0 -88 -85 -134 -181 -134
c-107 0 -183 42 -183 133c0 48 28 83 77 99v3c-41 19 -58 49 -58 85zM648 129c0 -36 27 -54 63 -54c38 0 61 19 61 54c0 33 -25 54 -62 54c-39 0 -62 -19 -62 -54zM393 703v-84c-92 -78 -133 -225 -135 -339h-137c12 135 60 234 138 330h-196v93h330z" />
    <glyph glyph-name="perthousand" unicode="&#x2030;" horiz-adv-x="1167" 
d="M169 532c0 -31 0 -101 46 -101c45 0 48 70 48 101c0 32 1 103 -47 103c-45 0 -47 -71 -47 -103zM904 157c0 -31 0 -101 46 -101c45 0 48 70 48 101c0 32 1 103 -47 103c-45 0 -47 -71 -47 -103zM806 157c0 93 38 174 145 174c112 0 145 -75 145 -174
c0 -97 -41 -172 -146 -172c-107 0 -144 77 -144 172zM556 157c0 -31 0 -101 46 -101c45 0 48 70 48 101c0 32 1 103 -47 103c-45 0 -47 -71 -47 -103zM458 157c0 93 38 174 145 174c112 0 145 -75 145 -174c0 -97 -41 -172 -146 -172c-107 0 -144 77 -144 172zM71 532
c0 93 38 174 145 174c112 0 145 -75 145 -174c0 -97 -41 -172 -146 -172c-107 0 -144 77 -144 172zM259 -27h-99l404 751h99z" />
    <glyph glyph-name="minus" unicode="&#x2212;" horiz-adv-x="600" 
d="M552 181h-504v144h504v-144z" />
    <glyph glyph-name="plusminus" unicode="&#xb1;" horiz-adv-x="600" 
d="M48 -12v144h504v-144h-504zM228 427v111h144v-111h180v-144h-180v-111h-144v111h-180v144h180z" />
    <glyph glyph-name="multiply" unicode="&#xd7;" horiz-adv-x="600" 
d="M198 253l-159 159l102 102l159 -159l159 159l102 -102l-159 -159l159 -159l-102 -102l-159 159l-159 -159l-102 102z" />
    <glyph glyph-name="divide" unicode="&#xf7;" horiz-adv-x="600" 
d="M203 455c0 55 42 97 96 97c55 0 97 -42 97 -97c0 -51 -42 -96 -97 -96c-54 0 -96 45 -96 96zM552 181h-504v144h504v-144zM396 51c0 -55 -42 -97 -96 -97c-55 0 -97 42 -97 97c0 51 42 96 97 96c54 0 96 -45 96 -96z" />
    <glyph glyph-name="notequal" unicode="&#x2260;" horiz-adv-x="600" 
d="M552 196v-139h-276l-76 -144l-124 58l45 86h-73v139h144l58 114h-202v139h276l73 136l123 -58l-42 -78h74v-139h-148l-57 -114h205z" />
    <glyph glyph-name="approxequal" unicode="&#x2248;" horiz-adv-x="600" 
d="M192 501c74 0 154 -66 216 -66c31 0 48 22 53 60h109c-9 -127 -58 -207 -162 -207c-74 0 -154 66 -216 66c-31 0 -48 -22 -53 -60h-109c9 127 58 207 162 207zM192 253c74 0 154 -66 216 -66c31 0 48 22 53 60h109c-9 -127 -58 -207 -162 -207c-74 0 -154 67 -216 67
c-31 0 -48 -23 -53 -61h-109c9 127 58 207 162 207z" />
    <glyph glyph-name="lessequal" unicode="&#x2264;" horiz-adv-x="600" 
d="M48 -12v144h504v-144h-504zM552 143l-504 154v134l504 154v-149l-293 -71v-2l293 -71v-149z" />
    <glyph glyph-name="greaterequal" unicode="&#x2265;" horiz-adv-x="600" 
d="M552 132v-144h-504v144h504zM552 297l-504 -154v149l293 71v2l-293 71v149l504 -154v-134z" />
    <glyph glyph-name="logicalnot" unicode="&#xac;" horiz-adv-x="600" 
d="M408 120v185h-360v144h504v-329h-144z" />
    <glyph glyph-name="Delta" unicode="&#x2206;" horiz-adv-x="714" 
d="M-9 0l273 714h188l271 -714h-732zM356 515l-120 -355h239l-117 355h-2z" />
    <glyph glyph-name="uni0394" unicode="&#x394;" horiz-adv-x="714" 
d="M-9 0l273 714h188l271 -714h-732zM356 515l-120 -355h239l-117 355h-2z" />
    <glyph glyph-name="Omega" unicode="&#x2126;" horiz-adv-x="778" 
d="M389 729c225 0 350 -160 350 -330c0 -111 -43 -187 -113 -240v-5h123v-154h-325v144c96 53 130 127 130 245c0 94 -54 180 -165 180s-165 -86 -165 -180c0 -112 35 -184 130 -245v-144h-325v154h117v5c-66 52 -107 129 -107 240c0 170 125 330 350 330z" />
    <glyph glyph-name="uni03A9" unicode="&#x3a9;" horiz-adv-x="778" 
d="M389 729c225 0 350 -160 350 -330c0 -111 -43 -187 -113 -240v-5h123v-154h-325v144c96 53 130 127 130 245c0 94 -54 180 -165 180s-165 -86 -165 -180c0 -112 35 -184 130 -245v-144h-325v154h117v5c-66 52 -107 129 -107 240c0 170 125 330 350 330z" />
    <glyph glyph-name="mu" unicode="&#xb5;" horiz-adv-x="630" 
d="M573 519v-519h-165v71h-2c-42 -61 -85 -86 -130 -86c-20 0 -36 5 -50 13v-172h-170v693h170v-301c0 -69 29 -93 84 -93c36 0 93 24 93 116v278h170z" />
    <glyph glyph-name="uni03BC" unicode="&#x3bc;" horiz-adv-x="630" 
d="M573 519v-519h-165v71h-2c-42 -61 -85 -86 -130 -86c-20 0 -36 5 -50 13v-172h-170v693h170v-301c0 -69 29 -93 84 -93c36 0 93 24 93 116v278h170z" />
    <glyph glyph-name="pi" unicode="&#x3c0;" horiz-adv-x="703" 
d="M684 519v-130h-99v-240c0 -27 10 -39 32 -39c11 0 22 2 36 5v-106c-39 -18 -73 -24 -109 -24c-83 0 -129 43 -129 119v285h-131v-389h-170v389h-100v130h670z" />
    <glyph glyph-name="degree" unicode="&#xb0;" horiz-adv-x="400" 
d="M200 635c-51 0 -80 -40 -80 -89s29 -89 80 -89s80 40 80 89s-29 89 -80 89zM40 546c0 91 68 160 160 160c93 0 160 -68 160 -160c0 -91 -68 -160 -160 -160c-93 0 -160 68 -160 160z" />
    <glyph glyph-name="afii61289" unicode="&#x2113;" horiz-adv-x="500" 
d="M465 56c-57 -47 -114 -70 -181 -70c-113 0 -173 67 -173 151v25l-54 -45h-2l-54 84l109 86v233c0 112 79 201 192 201c98 0 160 -63 160 -155c0 -103 -62 -195 -196 -303v-101c0 -47 29 -63 57 -63c24 0 54 13 88 37h2zM336 557c0 33 -13 62 -35 62
c-20 0 -35 -29 -35 -69v-157c52 53 70 109 70 164z" />
    <glyph glyph-name="estimated" unicode="&#x212e;" horiz-adv-x="770" 
d="M726 349h-533v-238c52 -51 115 -78 191 -78c109 0 189 48 255 159l46 -28c-81 -125 -162 -178 -301 -178c-207 0 -340 161 -340 363c0 205 133 365 340 365c203 0 341 -150 342 -365zM193 398h384v191c-55 52 -120 79 -194 79c-75 0 -138 -28 -190 -79v-191z" />
    <glyph glyph-name="eng" unicode="&#x14b;" horiz-adv-x="630" 
d="M574 333v-328c0 -134 -54 -179 -177 -179h-89v138h37c38 0 59 13 59 53v286c0 50 -17 91 -85 91c-64 0 -92 -55 -92 -111v-283h-170v519h165v-71h2c32 53 101 86 163 86c173 0 187 -126 187 -201z" />
    <glyph glyph-name="Eng" unicode="&#x14a;" horiz-adv-x="741" 
d="M508 1l-269 444h-2v-445h-175v714h191l248 -415h2v415h175v-706c0 -135 -57 -182 -182 -182h-104v143h52c44 0 64 14 64 32z" />
    <glyph glyph-name="infinity" unicode="&#x221e;" horiz-adv-x="881" 
d="M836 274c0 -121 -73 -216 -200 -216c-88 0 -145 53 -196 117c-51 -64 -104 -116 -191 -116c-128 0 -204 91 -204 215c0 122 74 211 199 211c92 0 146 -56 196 -125c50 71 104 125 197 125c125 0 199 -90 199 -211zM708 272c0 47 -29 80 -76 80c-48 0 -88 -48 -115 -83
c27 -38 69 -78 118 -78c48 0 73 36 73 81zM363 269c-27 36 -69 83 -118 83c-47 0 -73 -38 -73 -81c0 -45 28 -79 75 -79c51 0 87 41 116 77z" />
    <glyph glyph-name="partialdiff" unicode="&#x2202;" horiz-adv-x="588" 
d="M544 358c0 -172 -49 -372 -261 -372c-141 0 -239 93 -239 236c0 129 93 229 224 229c49 0 86 -15 126 -42c0 80 -23 197 -124 197c-51 0 -85 -24 -120 -57l-81 91c59 53 117 81 197 81c210 0 278 -184 278 -363zM391 294c-25 25 -62 45 -98 45c-69 0 -104 -61 -104 -124
c0 -57 29 -118 94 -118c96 0 108 126 108 197z" />
    <glyph glyph-name="integral" unicode="&#x222b;" horiz-adv-x="657" 
d="M561 688c0 -41 -30 -71 -71 -71c-87 0 -48 103 -87 103c-19 0 -19 -27 -19 -40c0 -64 8 -129 8 -193l1 -317c0 -148 19 -384 -193 -384c-60 0 -137 30 -137 101c0 41 29 67 69 67c88 0 49 -103 86 -103c20 0 20 27 20 40c0 56 -8 108 -8 164v410c0 139 8 320 193 320
c58 0 138 -28 138 -97z" />
    <glyph glyph-name="radical" unicode="&#x221a;" horiz-adv-x="603" 
d="M609 786l-224 -1000h-137l-142 290l-57 -27l-56 118l193 88l106 -236l156 767h161z" />
    <glyph glyph-name="summation" unicode="&#x2211;" horiz-adv-x="698" 
d="M668 -214h-639v130l289 377l-277 362v131h615v-150h-413l253 -343l-269 -357h441v-150z" />
    <glyph glyph-name="product" unicode="&#x220f;" horiz-adv-x="757" 
d="M708 -214h-152v851h-354v-851h-153v1000h659v-1000z" />
    <glyph glyph-name="lozenge" unicode="&#x25ca;" horiz-adv-x="593" 
d="M558 356l-194 -391h-138l-191 391l193 391h136zM401 356l-105 237l-106 -237l106 -237z" />
    <glyph glyph-name="f_i" unicode="&#xf001;" horiz-adv-x="648" 
d="M94 0v409h-82v110h82c0 149 52 195 197 195c27 0 55 -2 82 -3v-120c-16 2 -31 3 -46 3c-39 0 -63 -5 -63 -52v-23h102v-110h-102v-409h-170zM585 714v-130h-170v130h170zM415 0v519h170v-519h-170z" />
    <glyph glyph-name="f_l" unicode="&#xf002;" horiz-adv-x="648" 
d="M585 714v-714h-170v714h170zM94 0v409h-82v110h82c0 149 52 195 197 195c27 0 55 -2 82 -3v-120c-16 2 -31 3 -46 3c-39 0 -63 -5 -63 -52v-23h102v-110h-102v-409h-170z" />
    <glyph glyph-name="uniF8FF" unicode="&#xf8ff;" horiz-adv-x="512" 
d="M278 117h-56v67h56v-67zM271 234h-46l-2 17c0 37 4 64 13 81s24 37 46 59c43 41 50 58 50 83c0 48 -35 85 -76 85s-74 -27 -82 -95l-50 8c9 95 63 137 135 137c71 0 124 -52 124 -131c0 -43 -12 -73 -63 -120c-25 -22 -39 -39 -43 -52s-6 -37 -6 -72zM50 50h412v617h-412
v-617zM0 718h512v-718h-512v718z" />
    <glyph glyph-name="uni2010" unicode="&#x2010;" horiz-adv-x="407" 
d="M359 200h-311v144h311v-144z" />
    <glyph glyph-name="afii00208" unicode="&#x2015;" horiz-adv-x="1000" 
d="M70 200v144h860v-144h-860z" />
    <glyph glyph-name="interrobang" unicode="&#x203d;" horiz-adv-x="574" 
d="M350 714v-50c126 -11 197 -65 197 -169c0 -72 -37 -118 -127 -173c-53 -32 -68 -50 -71 -86h-125l-21 297c-19 -14 -31 -30 -32 -63h-144c0 98 65 165 174 188v56h149zM192 0v186h186v-186h-186zM388 491c0 32 -15 49 -40 55l-14 -137c35 25 54 45 54 82z" />
    <glyph glyph-name="zero.superior" unicode="&#x2070;" horiz-adv-x="410" 
d="M205 741c-37 0 -56 -29 -56 -135c0 -101 17 -130 56 -130c37 0 56 29 56 135c0 101 -17 130 -56 130zM205 829c105 0 181 -55 181 -218c0 -167 -78 -223 -181 -223c-105 0 -181 55 -181 218c0 167 78 223 181 223z" />
    <glyph glyph-name="four.superior" unicode="&#x2074;" horiz-adv-x="410" 
d="M206 566v117l-93 -117h93zM206 397v80h-193v90l203 253h112v-254h58v-89h-58v-80h-122z" />
    <glyph glyph-name="five.superior" unicode="&#x2075;" horiz-adv-x="410" 
d="M356 820v-89h-189l-13 -68c18 16 50 22 75 22c92 0 148 -56 148 -139c0 -97 -74 -158 -183 -158c-108 0 -167 49 -171 130h119c5 -25 25 -40 56 -40c36 0 58 23 58 65c0 39 -19 62 -57 62c-25 0 -41 -10 -51 -26h-116l40 241h284z" />
    <glyph glyph-name="six.superior" unicode="&#x2076;" horiz-adv-x="410" 
d="M211 603c-39 0 -58 -25 -58 -65c0 -38 21 -63 57 -63c33 0 57 20 57 62c0 38 -17 66 -56 66zM378 716h-121c-5 19 -21 28 -42 28c-41 0 -61 -43 -64 -91c25 21 54 31 92 31c84 0 143 -51 143 -141c0 -92 -72 -155 -171 -155c-130 0 -186 79 -186 208
c0 132 55 233 191 233c88 0 147 -31 158 -113z" />
    <glyph glyph-name="seven.superior" unicode="&#x2077;" horiz-adv-x="410" 
d="M366 820v-84c-92 -78 -133 -225 -135 -339h-137c12 135 60 234 138 330h-196v93h330z" />
    <glyph glyph-name="eight.superior" unicode="&#x2078;" horiz-adv-x="410" 
d="M155 702c0 -26 19 -43 48 -43c30 0 48 17 48 43c0 28 -18 45 -48 45c-31 0 -48 -18 -48 -45zM40 708c0 71 67 121 163 121c111 0 164 -52 164 -117c0 -38 -21 -68 -60 -87v-3c52 -18 78 -52 78 -100c0 -88 -85 -134 -181 -134c-107 0 -183 42 -183 133c0 48 28 83 77 99
v3c-41 19 -58 49 -58 85zM141 526c0 -36 27 -54 63 -54c38 0 61 19 61 54c0 33 -25 54 -62 54c-39 0 -62 -19 -62 -54z" />
    <glyph glyph-name="nine.superior" unicode="&#x2079;" horiz-adv-x="410" 
d="M199 618c39 0 58 24 58 63c0 37 -21 61 -57 61c-33 0 -57 -21 -57 -62c0 -36 18 -62 56 -62zM31 502h121c5 -20 22 -29 43 -29c44 0 63 40 64 95c-25 -21 -54 -31 -92 -31c-84 0 -143 50 -143 139c0 91 72 153 171 153c130 0 186 -79 186 -208c0 -137 -52 -233 -191 -233
c-88 0 -150 32 -159 114z" />
    <glyph glyph-name="plus.superior" unicode="&#x207a;" horiz-adv-x="420" 
d="M265 709v-111h119v-90h-119v-111h-110v111h-119v90h119v111h110z" />
    <glyph glyph-name="minus.superior" unicode="&#x207b;" horiz-adv-x="284" 
d="M32 514v96h220v-96h-220z" />
    <glyph glyph-name="equal.superior" unicode="&#x207c;" horiz-adv-x="420" 
d="M384 528v-90h-348v90h348zM384 665v-90h-348v90h348z" />
    <glyph glyph-name="parenleft.superior" unicode="&#x207d;" horiz-adv-x="236" 
d="M122 876h108c-50 -88 -70 -184 -70 -277c0 -95 23 -191 70 -281h-108c-63 85 -91 180 -91 275c0 91 28 202 91 283z" />
    <glyph glyph-name="parenright.superior" unicode="&#x207e;" horiz-adv-x="236" 
d="M113 318h-108c50 88 70 184 70 277c0 95 -23 191 -70 281h108c63 -85 91 -180 91 -275c0 -91 -28 -202 -91 -283z" />
    <glyph glyph-name="n.superior" unicode="&#x207f;" horiz-adv-x="410" 
d="M35 397v319h118v-40c26 34 62 49 100 49c84 0 123 -50 123 -131v-197h-128v182c0 36 -10 56 -37 56c-30 0 -49 -23 -49 -65v-173h-127z" />
    <glyph glyph-name="zero.inferior" unicode="&#x2080;" horiz-adv-x="410" 
d="M205 175c-37 0 -56 -29 -56 -135c0 -101 17 -130 56 -130c37 0 56 29 56 135c0 101 -17 130 -56 130zM205 263c105 0 181 -55 181 -218c0 -167 -78 -223 -181 -223c-105 0 -181 55 -181 218c0 167 78 223 181 223z" />
    <glyph glyph-name="one.inferior" unicode="&#x2081;" horiz-adv-x="410" 
d="M292 254v-423h-128v258h-112v84h34c54 0 90 23 97 81h109z" />
    <glyph glyph-name="two.inferior" unicode="&#x2082;" horiz-adv-x="410" 
d="M376 -77v-92h-352c0 107 34 155 109 200l74 44c32 19 45 36 45 60c0 23 -17 39 -43 39c-37 0 -51 -23 -52 -66h-126c0 95 64 155 180 155c108 0 168 -50 168 -129c0 -59 -29 -90 -91 -127l-82 -49c-20 -12 -35 -23 -39 -35h209z" />
    <glyph glyph-name="three.inferior" unicode="&#x2083;" horiz-adv-x="410" 
d="M156 11v81h38c35 0 54 18 54 42c0 25 -17 41 -48 41c-34 0 -52 -12 -52 -51h-119c4 92 68 139 175 139c101 0 161 -47 161 -119c0 -35 -19 -66 -66 -83v-3c58 -15 83 -52 83 -100c0 -83 -74 -136 -185 -136c-117 0 -178 56 -178 142h120c4 -32 23 -52 63 -52
c39 0 62 20 62 50c0 37 -22 49 -68 49h-40z" />
    <glyph glyph-name="four.inferior" unicode="&#x2084;" horiz-adv-x="410" 
d="M206 0v117l-93 -117h93zM206 -169v80h-193v90l203 253h112v-254h58v-89h-58v-80h-122z" />
    <glyph glyph-name="five.inferior" unicode="&#x2085;" horiz-adv-x="410" 
d="M356 254v-89h-189l-13 -68c18 16 50 22 75 22c92 0 148 -56 148 -139c0 -97 -74 -158 -183 -158c-108 0 -167 49 -171 130h119c5 -25 25 -40 56 -40c36 0 58 23 58 65c0 39 -19 62 -57 62c-25 0 -41 -10 -51 -26h-116l40 241h284z" />
    <glyph glyph-name="six.inferior" unicode="&#x2086;" horiz-adv-x="410" 
d="M211 37c-39 0 -58 -25 -58 -65c0 -38 21 -63 57 -63c33 0 57 20 57 62c0 38 -17 66 -56 66zM378 150h-121c-5 19 -21 28 -42 28c-41 0 -61 -43 -64 -91c25 21 54 31 92 31c84 0 143 -51 143 -141c0 -92 -72 -155 -171 -155c-130 0 -186 79 -186 208c0 132 55 233 191 233
c88 0 147 -31 158 -113z" />
    <glyph glyph-name="seven.inferior" unicode="&#x2087;" horiz-adv-x="410" 
d="M366 254v-84c-92 -78 -133 -225 -135 -339h-137c12 135 60 234 138 330h-196v93h330z" />
    <glyph glyph-name="eight.inferior" unicode="&#x2088;" horiz-adv-x="410" 
d="M155 136c0 -26 19 -43 48 -43c30 0 48 17 48 43c0 28 -18 45 -48 45c-31 0 -48 -18 -48 -45zM40 142c0 71 67 121 163 121c111 0 164 -52 164 -117c0 -38 -21 -68 -60 -87v-3c52 -18 78 -52 78 -100c0 -88 -85 -134 -181 -134c-107 0 -183 42 -183 133c0 48 28 83 77 99
v3c-41 19 -58 49 -58 85zM141 -40c0 -36 27 -54 63 -54c38 0 61 19 61 54c0 33 -25 54 -62 54c-39 0 -62 -19 -62 -54z" />
    <glyph glyph-name="nine.inferior" unicode="&#x2089;" horiz-adv-x="410" 
d="M199 52c39 0 58 24 58 63c0 37 -21 61 -57 61c-33 0 -57 -21 -57 -62c0 -36 18 -62 56 -62zM31 -64h121c5 -20 22 -29 43 -29c44 0 63 40 64 95c-25 -21 -54 -31 -92 -31c-84 0 -143 50 -143 139c0 91 72 153 171 153c130 0 186 -79 186 -208c0 -137 -52 -233 -191 -233
c-88 0 -150 32 -159 114z" />
    <glyph glyph-name="plus.inferior" unicode="&#x208a;" horiz-adv-x="420" 
d="M265 143v-111h119v-90h-119v-111h-110v111h-119v90h119v111h110z" />
    <glyph glyph-name="minus.inferior" unicode="&#x208b;" horiz-adv-x="284" 
d="M32 -52v96h220v-96h-220z" />
    <glyph glyph-name="equal.inferior" unicode="&#x208c;" horiz-adv-x="420" 
d="M384 -38v-90h-348v90h348zM384 99v-90h-348v90h348z" />
    <glyph glyph-name="parenleft.inferior" unicode="&#x208d;" horiz-adv-x="236" 
d="M122 310h108c-50 -88 -70 -184 -70 -277c0 -95 23 -191 70 -281h-108c-63 85 -91 180 -91 275c0 91 28 202 91 283z" />
    <glyph glyph-name="parenright.inferior" unicode="&#x208e;" horiz-adv-x="236" 
d="M113 -248h-108c50 88 70 184 70 277c0 95 -23 191 -70 281h108c63 -85 91 -180 91 -275c0 -91 -28 -202 -91 -283z" />
    <glyph glyph-name="afii61248" unicode="&#x2105;" horiz-adv-x="876" 
d="M370 562h-122c-7 47 -26 57 -46 57c-37 0 -51 -37 -51 -133c0 -95 19 -129 51 -129c24 0 44 20 48 68h122c-13 -98 -69 -157 -169 -157c-116 0 -180 68 -180 217c0 157 66 224 183 224c97 0 157 -48 164 -147zM673 339c-37 0 -56 -29 -56 -135c0 -101 17 -130 56 -130
c37 0 56 29 56 135c0 101 -17 130 -56 130zM673 427c105 0 181 -55 181 -218c0 -167 -78 -223 -181 -223c-105 0 -181 55 -181 218c0 167 78 223 181 223zM279 -27h-99l411 751h99z" />
    <glyph glyph-name="afii61352" unicode="&#x2116;" horiz-adv-x="1096" 
d="M869 157c-107 0 -179 67 -179 169s73 169 180 169c106 0 177 -68 177 -169c0 -102 -71 -169 -178 -169zM702 0v113h331v-113h-331zM462 0l-221 385v-385h-179v697h181l219 -383v383h178v-697h-178zM868 405c-34 0 -59 -25 -59 -79c0 -55 24 -79 60 -79c35 0 60 24 60 79
c0 54 -25 79 -61 79z" />
    <glyph glyph-name="published" unicode="&#x2117;" horiz-adv-x="800" 
d="M400 80c141 0 261 114 261 277s-120 277 -261 277c-144 0 -261 -114 -261 -277s117 -277 261 -277zM400 -15c-200 0 -386 136 -386 372s186 372 386 372c199 0 386 -136 386 -372s-187 -372 -386 -372zM358 376h73c35 0 56 18 56 54c0 33 -18 55 -57 55h-72v-109z
M358 302v-146h-98v403h173c104 0 152 -48 152 -129c0 -82 -53 -128 -144 -128h-83z" />
    <glyph glyph-name="uni0374" unicode="&#x374;" horiz-adv-x="278" 
d="M259 732l-94 -171h-122l43 171h173z" />
    <glyph glyph-name="uni0375" unicode="&#x375;" horiz-adv-x="278" 
d="M16 -203l89 171h122l-38 -171h-173z" />
    <glyph glyph-name="uni037E" unicode="&#x37e;" horiz-adv-x="316" 
d="M251 519v-186h-186v186h186zM65 0v186h186v-165c0 -144 -111 -187 -186 -195v80c55 15 75 42 82 94h-82z" />
    <glyph glyph-name="tonos" unicode="&#x384;" horiz-adv-x="241" 
d="M45 576l34 147h188l-80 -147h-142z" />
    <glyph glyph-name="tonos.cap" unicode="&#xe01b;" horiz-adv-x="241" 
d="M45 567l34 147h188l-80 -147h-142z" />
    <glyph glyph-name="dieresistonos" unicode="&#x385;" horiz-adv-x="550" 
d="M15 588v125h141v-125h-141zM531 588h-141v125h141v-125zM176 576l30 147h176l-76 -147h-130z" />
    <glyph glyph-name="Alphatonos" unicode="&#x386;" horiz-adv-x="775" 
d="M62 0l267 714h189l267 -714h-194l-44 128h-249l-45 -128h-191zM422 516l-81 -250h162l-79 250h-2zM3 567l34 147h188l-80 -147h-142z" />
    <glyph glyph-name="anoteleia" unicode="&#x387;" horiz-adv-x="316" 
d="M251 519v-186h-186v186h186z" />
    <glyph glyph-name="Epsilontonos" unicode="&#x388;" horiz-adv-x="900" 
d="M279 0v714h569v-149h-383v-125h350v-144h-350v-136h393v-160h-579zM3 567l34 147h188l-80 -147h-142z" />
    <glyph glyph-name="Etatonos" unicode="&#x389;" horiz-adv-x="958" 
d="M279 0v714h186v-260h245v260h186v-714h-186v294h-245v-294h-186zM3 567l34 147h188l-80 -147h-142z" />
    <glyph glyph-name="Iotatonos" unicode="&#x38a;" horiz-adv-x="530" 
d="M279 0v714h186v-714h-186zM3 567l34 147h188l-80 -147h-142z" />
    <glyph glyph-name="Omicrontonos" unicode="&#x38c;" horiz-adv-x="954" 
d="M3 567l34 147h188l-80 -147h-142zM399 357c0 -107 46 -212 166 -212s166 105 166 212s-46 212 -166 212s-166 -105 -166 -212zM213 357c0 207 128 372 352 372s352 -165 352 -372s-128 -372 -352 -372s-352 165 -352 372z" />
    <glyph glyph-name="Upsilontonos" unicode="&#x38e;" horiz-adv-x="943" 
d="M963 714l-260 -448v-266h-186v266l-260 448h211l142 -290l142 290h211zM3 567l34 147h188l-80 -147h-142z" />
    <glyph glyph-name="Omegatonos" unicode="&#x38f;" horiz-adv-x="958" 
d="M569 729c225 0 350 -160 350 -330c0 -111 -43 -187 -113 -240v-5h123v-154h-325v144c96 53 130 127 130 245c0 94 -54 180 -165 180s-165 -86 -165 -180c0 -112 35 -184 130 -245v-144h-325v154h117v5c-66 52 -107 129 -107 240c0 170 125 330 350 330zM3 567l34 147h188
l-80 -147h-142z" />
    <glyph glyph-name="iotadieresistonos" unicode="&#x390;" horiz-adv-x="302" 
d="M227 519v-370c0 -27 10 -39 32 -39c11 0 19 1 31 5v-104c-39 -19 -70 -26 -106 -26c-81 0 -127 43 -127 119v415h170zM-91 588v125h141v-125h-141zM425 588h-141v125h141v-125zM70 576l30 147h176l-76 -147h-130z" />
    <glyph glyph-name="Alpha" unicode="&#x391;" horiz-adv-x="704" 
d="M-9 0l267 714h189l267 -714h-194l-44 128h-249l-45 -128h-191zM351 516l-81 -250h162l-79 250h-2z" />
    <glyph glyph-name="Beta" unicode="&#x392;" horiz-adv-x="722" 
d="M250 570v-137h144c32 0 76 17 76 68c0 52 -37 69 -76 69h-144zM64 0v714h334c123 3 258 -31 258 -179c0 -64 -38 -116 -94 -144c76 -23 123 -88 123 -169c0 -170 -125 -222 -278 -222h-343zM250 313v-164h149c59 0 100 21 100 80c0 63 -44 84 -100 84h-149z" />
    <glyph glyph-name="Gamma" unicode="&#x393;" horiz-adv-x="625" 
d="M62 0v714h545v-160h-359v-554h-186z" />
    <glyph glyph-name="Epsilon" unicode="&#x395;" horiz-adv-x="685" 
d="M64 0v714h569v-149h-383v-125h350v-144h-350v-136h393v-160h-579z" />
    <glyph glyph-name="Zeta" unicode="&#x396;" horiz-adv-x="667" 
d="M24 0v152l366 402h-344v160h584v-144l-375 -410h388v-160h-619z" />
    <glyph glyph-name="Eta" unicode="&#x397;" horiz-adv-x="741" 
d="M62 0v714h186v-260h245v260h186v-714h-186v294h-245v-294h-186z" />
    <glyph glyph-name="Theta" unicode="&#x398;" horiz-adv-x="778" 
d="M293 292v143h196v-143h-196zM223 357c0 -107 46 -212 166 -212s166 105 166 212s-46 212 -166 212s-166 -105 -166 -212zM37 357c0 207 128 372 352 372s352 -165 352 -372s-128 -372 -352 -372s-352 165 -352 372z" />
    <glyph glyph-name="Iota" unicode="&#x399;" horiz-adv-x="315" 
d="M64 0v714h186v-714h-186z" />
    <glyph glyph-name="Kappa" unicode="&#x39a;" horiz-adv-x="741" 
d="M64 0v714h186v-274l235 274h231l-264 -281l297 -433h-231l-192 300l-76 -80v-220h-186z" />
    <glyph glyph-name="Lambda" unicode="&#x39b;" horiz-adv-x="714" 
d="M-9 0l273 714h188l271 -714h-195l-170 516h-2l-174 -516h-191z" />
    <glyph glyph-name="Mu" unicode="&#x39c;" horiz-adv-x="926" 
d="M65 0v714h274l123 -476h2l123 476h274v-714h-175v542h-2l-150 -542h-142l-150 542h-2v-542h-175z" />
    <glyph glyph-name="Nu" unicode="&#x39d;" horiz-adv-x="741" 
d="M62 0v714h191l248 -440h2v440h175v-714h-191l-248 445h-2v-445h-175z" />
    <glyph glyph-name="Xi" unicode="&#x39e;" horiz-adv-x="650" 
d="M108 288v157h434v-157h-434zM52 554v160h546v-160h-546zM43 0v161h564v-161h-564z" />
    <glyph glyph-name="Omicron" unicode="&#x39f;" horiz-adv-x="778" 
d="M223 357c0 -107 46 -212 166 -212s166 105 166 212s-46 212 -166 212s-166 -105 -166 -212zM37 357c0 207 128 372 352 372s352 -165 352 -372s-128 -372 -352 -372s-352 165 -352 372z" />
    <glyph glyph-name="Pi" unicode="&#x3a0;" horiz-adv-x="767" 
d="M64 0v714h639v-714h-186v555h-267v-555h-186z" />
    <glyph glyph-name="Rho" unicode="&#x3a1;" horiz-adv-x="685" 
d="M250 565v-183h125c59 0 100 24 100 89c0 68 -43 94 -100 94h-125zM64 0v714h339c133 0 258 -61 258 -230c0 -177 -101 -246 -258 -246h-153v-238h-186z" />
    <glyph glyph-name="Sigma" unicode="&#x3a3;" horiz-adv-x="667" 
d="M635 0h-601v158l200 212l-188 184v160h573v-160h-334l182 -181v-1l-198 -212h366v-160z" />
    <glyph glyph-name="Tau" unicode="&#x3a4;" horiz-adv-x="648" 
d="M630 714v-160h-213v-554h-186v554h-213v160h612z" />
    <glyph glyph-name="Upsilon" unicode="&#x3a5;" horiz-adv-x="667" 
d="M687 714l-260 -448v-266h-186v266l-260 448h211l142 -290l142 290h211z" />
    <glyph glyph-name="Phi" unicode="&#x3a6;" horiz-adv-x="822" 
d="M317 209v330c-73 -1 -99 -45 -99 -161c0 -119 26 -167 99 -169zM317 744h185v-70c175 -9 288 -103 288 -292c0 -185 -114 -298 -288 -307v-75h-185v75c-178 9 -285 112 -285 303c0 185 111 287 285 296v70zM501 540v-330c70 2 103 54 103 172s-31 156 -103 158z" />
    <glyph glyph-name="Chi" unicode="&#x3a7;" horiz-adv-x="704" 
d="M-8 0l254 375l-233 339h219l120 -222l127 222h212l-231 -339l252 -375h-226l-134 238l-146 -238h-214z" />
    <glyph glyph-name="Psi" unicode="&#x3a8;" horiz-adv-x="875" 
d="M344 287v427h184v-426c77 -1 103 43 103 150v276h186v-278c0 -171 -94 -267 -289 -283v-153h-184v153c-205 12 -286 107 -286 283v278h186v-276c0 -105 23 -149 100 -151z" />
    <glyph glyph-name="Iotadieresis" unicode="&#x3aa;" horiz-adv-x="315" 
d="M-24 774v125h150v-125h-150zM339 774h-150v125h150v-125zM64 0v714h186v-714h-186z" />
    <glyph glyph-name="Upsilondieresis" unicode="&#x3ab;" horiz-adv-x="667" 
d="M154 774v125h150v-125h-150zM517 774h-150v125h150v-125zM687 714l-260 -448v-266h-186v266l-260 448h211l142 -290l142 290h211z" />
    <glyph glyph-name="alphatonos" unicode="&#x3ac;" horiz-adv-x="631" 
d="M393 259c0 71 -24 145 -92 145c-80 0 -104 -77 -104 -146c0 -68 30 -143 103 -143c72 0 93 74 93 144zM387 519h170v-371c0 -27 12 -39 32 -39c10 0 19 1 30 5v-104c-33 -17 -66 -25 -99 -25c-48 0 -107 22 -125 75h-2c-25 -41 -74 -75 -147 -75
c-146 0 -219 143 -219 276c0 130 58 273 225 273c50 0 103 -23 133 -71h2v56zM232 576l34 147h188l-80 -147h-142z" />
    <glyph glyph-name="epsilontonos" unicode="&#x3ad;" horiz-adv-x="530" 
d="M505 357h-164c-8 48 -35 55 -68 55c-35 0 -62 -9 -62 -43s14 -52 45 -52h59v-98h-60c-39 0 -58 -19 -58 -59c0 -42 31 -52 78 -52c35 0 75 7 85 74h164c-21 -139 -112 -197 -265 -197c-114 0 -235 46 -235 167c0 52 32 99 95 114v4c-57 16 -79 56 -79 100
c0 109 108 164 233 164c132 0 215 -57 232 -177zM195 576l34 147h188l-80 -147h-142z" />
    <glyph glyph-name="etatonos" unicode="&#x3ae;" horiz-adv-x="630" 
d="M57 0v519h165v-71h2c32 53 101 86 163 86c173 0 187 -126 187 -201v-507h-170v477c0 50 -17 91 -85 91c-64 0 -92 -55 -92 -111v-283h-170zM226 576l34 147h188l-80 -147h-142z" />
    <glyph glyph-name="iotatonos" unicode="&#x3af;" horiz-adv-x="302" 
d="M227 519v-370c0 -27 10 -39 32 -39c11 0 19 1 31 5v-104c-39 -19 -70 -26 -106 -26c-81 0 -127 43 -127 119v415h170zM67 576l34 147h188l-80 -147h-142z" />
    <glyph glyph-name="upsilondieresistonos" unicode="&#x3b0;" horiz-adv-x="590" 
d="M54 519h170v-325c0 -52 25 -79 68 -79c62 0 92 38 92 158c0 66 -19 167 -65 246h176c47 -82 60 -181 60 -244c0 -174 -94 -290 -263 -290c-156 0 -238 67 -238 197v337zM32 588v125h141v-125h-141zM548 588h-141v125h141v-125zM193 576l30 147h176l-76 -147h-130z" />
    <glyph glyph-name="alpha" unicode="&#x3b1;" horiz-adv-x="631" 
d="M393 259c0 71 -24 145 -92 145c-80 0 -104 -77 -104 -146c0 -68 30 -143 103 -143c72 0 93 74 93 144zM387 519h170v-371c0 -27 12 -39 32 -39c10 0 19 1 30 5v-104c-33 -17 -66 -25 -99 -25c-48 0 -107 22 -125 75h-2c-25 -41 -74 -75 -147 -75
c-146 0 -219 143 -219 276c0 130 58 273 225 273c50 0 103 -23 133 -71h2v56z" />
    <glyph glyph-name="beta" unicode="&#x3b2;" horiz-adv-x="615" 
d="M57 -174v668c0 163 83 220 241 220c168 0 235 -77 235 -172c0 -58 -29 -114 -89 -127c101 -25 137 -107 137 -193c0 -164 -85 -237 -203 -237c-74 0 -122 33 -149 71h-2v-230h-170zM331 326h-51v115c60 -3 83 12 83 79c0 45 -22 64 -65 64c-56 0 -75 -28 -75 -119v-189
c0 -123 39 -161 95 -161c50 0 93 24 93 105c0 94 -28 106 -80 106z" />
    <glyph glyph-name="gamma" unicode="&#x3b3;" horiz-adv-x="505" 
d="M338 519h173c-35 -235 -125 -416 -192 -517c0 -58 1 -117 1 -176h-170v138c0 153 -85 425 -156 555h177c38 -65 77 -231 87 -333h5c37 72 65 219 75 333z" />
    <glyph glyph-name="delta" unicode="&#x3b4;" horiz-adv-x="605" 
d="M32 249c0 110 58 190 173 227c-75 42 -95 82 -95 119c0 70 49 119 211 119c51 0 129 -8 187 -35v-121c-72 34 -144 43 -187 43c-22 0 -35 -6 -35 -18c0 -20 48 -44 87 -68c95 -60 200 -134 200 -268c0 -132 -94 -262 -264 -262c-186 0 -277 126 -277 264zM202 249
c0 -100 44 -134 107 -134c57 0 94 47 94 132c0 70 -28 124 -104 169c-67 -19 -97 -76 -97 -167z" />
    <glyph glyph-name="epsilon" unicode="&#x3b5;" horiz-adv-x="530" 
d="M505 357h-164c-8 48 -35 55 -68 55c-35 0 -62 -9 -62 -43s14 -52 45 -52h59v-98h-60c-39 0 -58 -19 -58 -59c0 -42 31 -52 78 -52c35 0 75 7 85 74h164c-21 -139 -112 -197 -265 -197c-114 0 -235 46 -235 167c0 52 32 99 95 114v4c-57 16 -79 56 -79 100
c0 109 108 164 233 164c132 0 215 -57 232 -177z" />
    <glyph glyph-name="zeta" unicode="&#x3b6;" horiz-adv-x="494" 
d="M343 -66c0 36 -7 66 -44 66h-31c-150 0 -233 102 -233 262c0 142 65 249 219 322h-176v130h416v-112c-209 -83 -289 -186 -289 -340c0 -89 35 -132 111 -132h29c114 0 147 -80 147 -165c0 -30 -5 -81 -16 -119h-145c9 34 12 71 12 88z" />
    <glyph glyph-name="eta" unicode="&#x3b7;" horiz-adv-x="630" 
d="M57 0v519h165v-71h2c32 53 101 86 163 86c173 0 187 -126 187 -201v-507h-170v477c0 50 -17 91 -85 91c-64 0 -92 -55 -92 -111v-283h-170z" />
    <glyph glyph-name="theta" unicode="&#x3b8;" horiz-adv-x="583" 
d="M291 714c198 0 262 -139 262 -361c0 -219 -66 -368 -262 -368c-198 0 -261 154 -261 368c0 216 67 361 261 361zM291 115c65 0 85 37 89 183h-178c3 -148 26 -183 89 -183zM203 421h176c-3 121 -26 163 -88 163c-64 0 -85 -43 -88 -163z" />
    <glyph glyph-name="iota" unicode="&#x3b9;" horiz-adv-x="302" 
d="M227 519v-370c0 -27 10 -39 32 -39c11 0 19 1 31 5v-104c-39 -19 -70 -26 -106 -26c-81 0 -127 43 -127 119v415h170z" />
    <glyph glyph-name="kappa" unicode="&#x3ba;" horiz-adv-x="592" 
d="M57 0v519h170v-188l155 188h196l-191 -213l215 -306h-205l-123 190l-47 -47v-143h-170z" />
    <glyph glyph-name="lambda" unicode="&#x3bb;" horiz-adv-x="587" 
d="M550 109c11 0 20 1 31 5v-104c-29 -16 -68 -25 -93 -25c-71 0 -105 23 -123 82l-72 244h-3l-97 -311h-181l207 474l-38 82c-13 28 -38 33 -66 33c-15 0 -30 -2 -49 -8v121c36 10 74 12 104 12c101 0 135 -32 178 -135l173 -441c11 -25 17 -29 29 -29z" />
    <glyph glyph-name="nu" unicode="&#x3bd;" horiz-adv-x="533" 
d="M366 519h173c-27 -180 -89 -350 -175 -519h-196l-174 519h179l97 -343h3c45 94 80 218 93 343z" />
    <glyph glyph-name="xi" unicode="&#x3be;" horiz-adv-x="485" 
d="M485 -35c0 -30 -5 -81 -16 -119h-145c9 34 12 71 12 88c0 36 -7 66 -44 66h-32c-148 0 -225 77 -225 201c0 86 42 160 141 184c-84 9 -121 71 -121 130c0 129 103 199 244 199c52 0 110 -7 172 -33v-126c-60 22 -110 29 -148 29c-55 0 -98 -14 -98 -69
c0 -66 28 -81 123 -81h86v-124h-88c-103 0 -141 -15 -141 -83c0 -61 25 -97 99 -97h35c114 0 146 -80 146 -165z" />
    <glyph glyph-name="omicron" unicode="&#x3bf;" horiz-adv-x="611" 
d="M32 259c0 156 112 275 273 275s274 -119 274 -275s-113 -274 -274 -274s-273 118 -273 274zM202 259c0 -67 24 -144 103 -144c80 0 104 77 104 144c0 66 -24 145 -104 145c-79 0 -103 -79 -103 -145z" />
    <glyph glyph-name="rho" unicode="&#x3c1;" horiz-adv-x="622" 
d="M57 -174v431c0 181 91 277 257 277c187 0 274 -138 274 -277c0 -127 -57 -272 -226 -272c-49 0 -104 25 -133 72h-2v-231h-170zM418 263c0 87 -37 141 -102 141c-56 0 -95 -47 -95 -145c0 -91 34 -144 96 -144c72 0 101 74 101 148z" />
    <glyph glyph-name="sigma1" unicode="&#x3c2;" horiz-adv-x="559" 
d="M496 -35c0 -30 -5 -81 -16 -119h-145c9 34 12 71 12 88c0 36 -7 66 -43 66h-42c-126 0 -230 80 -230 262c0 129 85 272 274 272c118 0 216 -63 243 -186h-163c-16 45 -48 56 -80 56c-79 0 -104 -65 -104 -142c0 -92 40 -132 106 -132h41c115 0 147 -80 147 -165z" />
    <glyph glyph-name="sigma" unicode="&#x3c3;" horiz-adv-x="621" 
d="M34 258c0 152 106 261 289 261h288v-130h-120c47 -21 75 -75 75 -131c0 -126 -71 -273 -264 -273c-160 0 -268 122 -268 273zM204 258c0 -103 40 -144 98 -144c56 0 94 45 94 144c0 69 -12 107 -44 132h-23c-73 0 -125 -24 -125 -132z" />
    <glyph glyph-name="tau" unicode="&#x3c4;" horiz-adv-x="532" 
d="M340 389v-239c0 -32 23 -40 46 -40c15 0 30 2 41 5v-103c-39 -19 -83 -27 -119 -27c-91 0 -138 35 -138 118v286h-160v130h512v-130h-182z" />
    <glyph glyph-name="upsilon" unicode="&#x3c5;" horiz-adv-x="590" 
d="M54 519h170v-325c0 -52 25 -79 68 -79c62 0 92 38 92 158c0 66 -19 167 -65 246h176c47 -82 60 -181 60 -244c0 -174 -94 -290 -263 -290c-156 0 -238 67 -238 197v337z" />
    <glyph glyph-name="phi" unicode="&#x3c6;" horiz-adv-x="771" 
d="M469 410v-301c68 -1 97 57 97 154c0 84 -28 147 -97 147zM469 657v-123c162 -2 267 -116 267 -271c0 -172 -108 -275 -266 -277v-160h-168v159c-155 1 -267 103 -267 276c0 155 105 271 267 273v123h167zM302 107v301c-64 1 -97 -63 -97 -147c0 -97 33 -154 97 -154z" />
    <glyph glyph-name="chi" unicode="&#x3c7;" horiz-adv-x="541" 
d="M357 202l194 -376h-187l-95 226l-91 -226h-188l195 371l-178 322h188l78 -178l81 178h180z" />
    <glyph glyph-name="psi" unicode="&#x3c8;" horiz-adv-x="758" 
d="M504 519h174c32 -68 45 -170 45 -244c0 -168 -99 -288 -261 -290v-159h-168v158c-169 3 -240 95 -240 258v277h170v-270c0 -63 7 -130 70 -134v541h168v-541c65 2 91 67 91 158c0 79 -20 179 -49 246z" />
    <glyph glyph-name="omega" unicode="&#x3c9;" horiz-adv-x="782" 
d="M312 210v156h157v-157c0 -66 11 -94 44 -94c49 0 64 43 64 129c0 96 -28 187 -95 275h178c68 -90 88 -182 88 -281c0 -131 -59 -253 -219 -253c-72 0 -115 26 -142 78c-27 -52 -65 -78 -141 -78c-166 0 -212 123 -212 252c0 85 16 181 88 282h178
c-73 -96 -95 -196 -95 -276c0 -88 16 -128 63 -128c34 0 44 30 44 95z" />
    <glyph glyph-name="iotadieresis" unicode="&#x3ca;" horiz-adv-x="302" 
d="M227 519v-370c0 -27 10 -39 32 -39c11 0 19 1 31 5v-104c-39 -19 -70 -26 -106 -26c-81 0 -127 43 -127 119v415h170zM-33 588v125h150v-125h-150zM330 588h-150v125h150v-125z" />
    <glyph glyph-name="upsilondieresis" unicode="&#x3cb;" horiz-adv-x="590" 
d="M54 519h170v-325c0 -52 25 -79 68 -79c62 0 92 38 92 158c0 66 -19 167 -65 246h176c47 -82 60 -181 60 -244c0 -174 -94 -290 -263 -290c-156 0 -238 67 -238 197v337zM103 588v125h150v-125h-150zM466 588h-150v125h150v-125z" />
    <glyph glyph-name="omicrontonos" unicode="&#x3cc;" horiz-adv-x="611" 
d="M232 576l34 147h188l-80 -147h-142zM32 259c0 156 112 275 273 275s274 -119 274 -275s-113 -274 -274 -274s-273 118 -273 274zM202 259c0 -67 24 -144 103 -144c80 0 104 77 104 144c0 66 -24 145 -104 145c-79 0 -103 -79 -103 -145z" />
    <glyph glyph-name="upsilontonos" unicode="&#x3cd;" horiz-adv-x="590" 
d="M210 576l34 147h188l-80 -147h-142zM54 519h170v-325c0 -52 25 -79 68 -79c62 0 92 38 92 158c0 66 -19 167 -65 246h176c47 -82 60 -181 60 -244c0 -174 -94 -290 -263 -290c-156 0 -238 67 -238 197v337z" />
    <glyph glyph-name="omegatonos" unicode="&#x3ce;" horiz-adv-x="782" 
d="M318 576l34 147h188l-80 -147h-142zM312 210v156h157v-157c0 -66 11 -94 44 -94c49 0 64 43 64 129c0 96 -28 187 -95 275h178c68 -90 88 -182 88 -281c0 -131 -59 -253 -219 -253c-72 0 -115 26 -142 78c-27 -52 -65 -78 -141 -78c-166 0 -212 123 -212 252
c0 85 16 181 88 282h178c-73 -96 -95 -196 -95 -276c0 -88 16 -128 63 -128c34 0 44 30 44 95z" />
    <glyph glyph-name="uni0400" unicode="&#x400;" horiz-adv-x="685" 
d="M64 0v714h569v-149h-383v-125h350v-144h-350v-136h393v-160h-579zM320 911l97 -149h-120l-157 149h180z" />
    <glyph glyph-name="afii10023" unicode="&#x401;" horiz-adv-x="685" 
d="M64 0v714h569v-149h-383v-125h350v-144h-350v-136h393v-160h-579zM163 774v125h150v-125h-150zM526 774h-150v125h150v-125z" />
    <glyph glyph-name="afii10051" unicode="&#x402;" horiz-adv-x="814" 
d="M387 0h-186v554h-183v160h602v-160h-233v-156c39 37 93 54 152 54c149 0 250 -104 250 -284c0 -192 -114 -312 -286 -312h-35v151c86 0 133 45 133 161c0 93 -39 138 -106 138c-69 0 -108 -47 -108 -129v-177z" />
    <glyph glyph-name="afii10052" unicode="&#x403;" horiz-adv-x="625" 
d="M62 0v714h545v-160h-359v-554h-186zM315 911h180l-157 -149h-120z" />
    <glyph glyph-name="afii10053" unicode="&#x404;" horiz-adv-x="759" 
d="M730 258c-19 -179 -152 -273 -329 -273c-224 0 -359 158 -359 373c0 219 140 371 362 371c167 0 298 -89 321 -251h-185c-16 62 -66 94 -144 94c-82 0 -140 -48 -157 -132h234v-144h-240c16 -102 75 -153 163 -153c79 0 132 36 146 115h188z" />
    <glyph glyph-name="afii10054" unicode="&#x405;" horiz-adv-x="667" 
d="M23 240h186c4 -84 55 -111 135 -111c56 0 114 20 114 73c0 64 -102 75 -205 104c-101 29 -209 74 -209 206c0 156 157 217 291 217c141 0 286 -70 286 -230h-186c3 64 -59 86 -115 86c-40 0 -90 -14 -90 -61c0 -56 103 -65 207 -94c103 -29 207 -77 207 -206
c0 -181 -154 -239 -311 -239c-163 0 -310 72 -310 255z" />
    <glyph glyph-name="afii10055" unicode="&#x406;" horiz-adv-x="315" 
d="M64 0v714h186v-714h-186z" />
    <glyph glyph-name="afii10056" unicode="&#x407;" horiz-adv-x="315" 
d="M64 0v714h186v-714h-186zM-24 774v125h150v-125h-150zM339 774h-150v125h150v-125z" />
    <glyph glyph-name="afii10057" unicode="&#x408;" horiz-adv-x="593" 
d="M528 714v-488c0 -161 -83 -241 -250 -241c-189 0 -250 109 -250 268v31h175v-66c0 -47 25 -73 72 -73c43 0 67 24 67 93v476h186z" />
    <glyph glyph-name="afii10058" unicode="&#x409;" horiz-adv-x="1084" 
d="M474 0v554h-144l-8 -302c-5 -185 -89 -267 -221 -267c-28 0 -72 6 -93 13v156c14 -5 37 -9 55 -9c42 0 71 20 74 125l13 444h510v-257h120c179 0 278 -71 278 -225c0 -162 -103 -232 -281 -232h-303zM660 308v-159h105c65 0 105 22 105 79c0 61 -43 80 -105 80h-105z" />
    <glyph glyph-name="afii10059" unicode="&#x40a;" horiz-adv-x="1084" 
d="M62 0v714h186v-257h226v257h186v-257h120c179 0 278 -71 278 -225c0 -162 -103 -232 -281 -232h-303v308h-226v-308h-186zM660 308v-159h105c65 0 105 22 105 79c0 61 -43 80 -105 80h-105z" />
    <glyph glyph-name="afii10060" unicode="&#x40b;" horiz-adv-x="814" 
d="M488 304c-26 0 -58 -3 -101 -13v-291h-186v554h-183v160h602v-160h-233v-111c61 12 106 16 135 16c155 0 248 -66 248 -249v-210h-186v198c0 75 -32 106 -96 106z" />
    <glyph glyph-name="afii10061" unicode="&#x40c;" horiz-adv-x="741" 
d="M364 911h180l-157 -149h-120zM64 0v714h186v-274l235 274h231l-264 -281l297 -433h-231l-192 300l-76 -80v-220h-186z" />
    <glyph glyph-name="uni040D" unicode="&#x40d;" horiz-adv-x="741" 
d="M679 714v-714h-180v456l-228 -456h-209v714h180v-468l234 468h203zM347 911l97 -149h-120l-157 149h180z" />
    <glyph glyph-name="afii10062" unicode="&#x40e;" horiz-adv-x="698" 
d="M710 714l-252 -525c-64 -133 -121 -204 -249 -204c-32 0 -81 9 -107 16v158c28 -10 54 -14 85 -14c39 0 65 19 65 46c0 22 -11 46 -27 76l-229 447h211l153 -352l140 352h210zM184 913h71c8 -57 60 -68 103 -68s95 11 103 68h71c0 -93 -73 -154 -174 -154
s-174 61 -174 154z" />
    <glyph glyph-name="afii10145" unicode="&#x40f;" horiz-adv-x="741" 
d="M62 0v714h186v-554h245v554h186v-714h-220v-175h-178v175h-219z" />
    <glyph glyph-name="afii10017" unicode="&#x410;" horiz-adv-x="704" 
d="M-9 0l267 714h189l267 -714h-194l-44 128h-249l-45 -128h-191zM351 516l-81 -250h162l-79 250h-2z" />
    <glyph glyph-name="afii10018" unicode="&#x411;" horiz-adv-x="722" 
d="M686 236c0 -166 -103 -236 -281 -236h-341v714h561v-152h-375v-96h158c179 0 278 -72 278 -230zM250 319v-170h143c65 0 105 24 105 83c0 63 -43 87 -105 87h-143z" />
    <glyph glyph-name="afii10019" unicode="&#x412;" horiz-adv-x="722" 
d="M250 570v-137h144c32 0 76 17 76 68c0 52 -37 69 -76 69h-144zM64 0v714h334c123 3 258 -31 258 -179c0 -64 -38 -116 -94 -144c76 -23 123 -88 123 -169c0 -170 -125 -222 -278 -222h-343zM250 313v-164h149c59 0 100 21 100 80c0 63 -44 84 -100 84h-149z" />
    <glyph glyph-name="afii10020" unicode="&#x413;" horiz-adv-x="625" 
d="M62 0v714h545v-160h-359v-554h-186z" />
    <glyph glyph-name="afii10021" unicode="&#x414;" horiz-adv-x="783" 
d="M775 -175h-177v175h-411v-175h-177v335h72c71 131 95 269 95 426v128h516v-554h82v-335zM507 160v394h-153v-24c0 -125 -12 -241 -76 -370h229z" />
    <glyph glyph-name="afii10022" unicode="&#x415;" horiz-adv-x="685" 
d="M64 0v714h569v-149h-383v-125h350v-144h-350v-136h393v-160h-579z" />
    <glyph glyph-name="afii10024" unicode="&#x416;" horiz-adv-x="1100" 
d="M458 714h184v-278l220 278h223l-260 -291l283 -423h-223l-178 293l-65 -72v-221h-184v219l-67 76l-178 -295h-221l284 419l-261 295h225l218 -276v276z" />
    <glyph glyph-name="afii10025" unicode="&#x417;" horiz-adv-x="667" 
d="M638 226c0 -145 -123 -241 -307 -241c-203 0 -304 92 -307 253h187c0 -74 50 -110 122 -110c68 0 115 34 115 90c0 59 -40 86 -126 86c-18 0 -38 0 -56 -1v129c21 -1 37 -1 55 -1c80 0 109 37 109 80s-33 76 -99 76c-70 0 -107 -33 -111 -87h-177c0 140 111 229 290 229
c182 0 278 -83 278 -204c0 -61 -42 -117 -101 -137v-3c73 -18 128 -66 128 -159z" />
    <glyph glyph-name="afii10026" unicode="&#x418;" horiz-adv-x="741" 
d="M679 714v-714h-180v456l-228 -456h-209v714h180v-468l234 468h203z" />
    <glyph glyph-name="afii10027" unicode="&#x419;" horiz-adv-x="741" 
d="M679 714v-714h-180v456l-228 -456h-209v714h180v-468l234 468h203zM197 913h71c8 -57 60 -68 103 -68s95 11 103 68h71c0 -93 -73 -154 -174 -154s-174 61 -174 154z" />
    <glyph glyph-name="afii10028" unicode="&#x41a;" horiz-adv-x="741" 
d="M64 0v714h186v-274l235 274h231l-264 -281l297 -433h-231l-192 300l-76 -80v-220h-186z" />
    <glyph glyph-name="afii10029" unicode="&#x41b;" horiz-adv-x="741" 
d="M679 714v-714h-186v554h-163l-8 -302c-5 -185 -89 -267 -221 -267c-28 0 -72 6 -93 13v156c14 -5 37 -9 55 -9c42 0 71 20 74 125l13 444h529z" />
    <glyph glyph-name="afii10030" unicode="&#x41c;" horiz-adv-x="926" 
d="M65 0v714h274l123 -476h2l123 476h274v-714h-175v542h-2l-150 -542h-142l-150 542h-2v-542h-175z" />
    <glyph glyph-name="afii10031" unicode="&#x41d;" horiz-adv-x="741" 
d="M62 0v714h186v-260h245v260h186v-714h-186v294h-245v-294h-186z" />
    <glyph glyph-name="afii10032" unicode="&#x41e;" horiz-adv-x="778" 
d="M223 357c0 -107 46 -212 166 -212s166 105 166 212s-46 212 -166 212s-166 -105 -166 -212zM37 357c0 207 128 372 352 372s352 -165 352 -372s-128 -372 -352 -372s-352 165 -352 372z" />
    <glyph glyph-name="afii10033" unicode="&#x41f;" horiz-adv-x="741" 
d="M679 714v-714h-186v554h-245v-554h-186v714h617z" />
    <glyph glyph-name="afii10034" unicode="&#x420;" horiz-adv-x="685" 
d="M250 565v-183h125c59 0 100 24 100 89c0 68 -43 94 -100 94h-125zM64 0v714h339c133 0 258 -61 258 -230c0 -177 -101 -246 -258 -246h-153v-238h-186z" />
    <glyph glyph-name="afii10035" unicode="&#x421;" horiz-adv-x="759" 
d="M724 459h-186c-11 72 -65 110 -144 110c-120 0 -166 -105 -166 -212s46 -212 166 -212c88 0 137 49 144 132h186c-11 -185 -145 -292 -326 -292c-217 0 -356 165 -356 372s139 372 356 372c155 0 321 -98 326 -270z" />
    <glyph glyph-name="afii10036" unicode="&#x422;" horiz-adv-x="648" 
d="M630 714v-160h-213v-554h-186v554h-213v160h612z" />
    <glyph glyph-name="afii10037" unicode="&#x423;" horiz-adv-x="698" 
d="M710 714l-252 -525c-64 -133 -121 -204 -249 -204c-32 0 -81 9 -107 16v158c28 -10 54 -14 85 -14c39 0 65 19 65 46c0 22 -11 46 -27 76l-229 447h211l153 -352l140 352h210z" />
    <glyph glyph-name="afii10038" unicode="&#x424;" horiz-adv-x="866" 
d="M341 498c-75 -7 -126 -55 -126 -135c0 -83 46 -130 126 -143v278zM525 714v-70c185 -10 309 -110 309 -280c0 -174 -129 -278 -309 -291v-73h-184v73c-182 13 -309 115 -309 291c0 168 125 268 309 280v70h184zM525 498v-278c81 11 126 60 126 143c0 78 -53 128 -126 135
z" />
    <glyph glyph-name="afii10039" unicode="&#x425;" horiz-adv-x="704" 
d="M-8 0l254 375l-233 339h219l120 -222l127 222h212l-231 -339l252 -375h-226l-134 238l-146 -238h-214z" />
    <glyph glyph-name="afii10040" unicode="&#x426;" horiz-adv-x="769" 
d="M248 160h245v554h186v-554h82v-335h-178v175h-521v714h186v-554z" />
    <glyph glyph-name="afii10041" unicode="&#x427;" horiz-adv-x="692" 
d="M327 426c36 0 64 3 117 13v275h186v-714h-186v285c-71 -12 -115 -16 -151 -16c-160 0 -255 66 -255 249v196h186v-164c0 -90 34 -124 103 -124z" />
    <glyph glyph-name="afii10042" unicode="&#x428;" horiz-adv-x="1090" 
d="M62 0v714h186v-554h204v554h186v-554h204v554h186v-714h-966z" />
    <glyph glyph-name="afii10043" unicode="&#x429;" horiz-adv-x="1118" 
d="M932 0h-870v714h186v-554h204v554h186v-554h204v554h186v-554h82v-335h-178v175z" />
    <glyph glyph-name="afii10044" unicode="&#x42a;" horiz-adv-x="832" 
d="M390 714v-238h133c179 0 278 -73 278 -235c0 -170 -103 -241 -281 -241h-316v554h-186v160h372zM390 329v-180h118c65 0 105 25 105 88c0 67 -43 92 -105 92h-118z" />
    <glyph glyph-name="afii10045" unicode="&#x42b;" horiz-adv-x="965" 
d="M638 241c0 -170 -103 -241 -281 -241h-293v714h186v-238h110c179 0 278 -73 278 -235zM250 329v-180h95c65 0 105 25 105 88c0 67 -43 92 -105 92h-95zM717 0v714h186v-714h-186z" />
    <glyph glyph-name="afii10046" unicode="&#x42c;" horiz-adv-x="692" 
d="M661 241c0 -170 -103 -241 -281 -241h-316v714h186v-238h133c179 0 278 -73 278 -235zM250 329v-180h118c65 0 105 25 105 88c0 67 -43 92 -105 92h-118z" />
    <glyph glyph-name="afii10047" unicode="&#x42d;" horiz-adv-x="759" 
d="M722 358c0 -215 -128 -373 -354 -373c-190 0 -311 98 -331 273h188c12 -77 66 -115 144 -115c87 0 148 55 162 153h-249v144h244c-13 85 -75 132 -149 132c-78 0 -128 -32 -151 -94h-182c30 153 154 251 331 251c226 0 347 -152 347 -371z" />
    <glyph glyph-name="afii10048" unicode="&#x42e;" horiz-adv-x="1033" 
d="M62 0v714h186v-262h108c28 159 130 277 315 277c220 0 325 -161 325 -372c0 -205 -105 -372 -325 -372c-198 0 -302 131 -320 311h-103v-296h-186zM528 357c0 -127 43 -218 143 -218s141 89 141 218c0 127 -41 218 -141 218s-143 -89 -143 -218z" />
    <glyph glyph-name="afii10049" unicode="&#x42f;" horiz-adv-x="734" 
d="M672 0h-186v261h-76l-176 -261h-228l211 271c-93 26 -163 101 -163 215c0 152 107 228 255 228h363v-714zM486 402v165h-146c-71 0 -104 -31 -104 -83c0 -50 34 -82 102 -82h148z" />
    <glyph glyph-name="afii10065" unicode="&#x430;" horiz-adv-x="593" 
d="M209 359h-159c3 68 34 112 81 139s105 36 165 36c123 0 242 -27 242 -174v-227c0 -44 0 -92 20 -133h-171c-7 16 -7 32 -10 49c-44 -47 -108 -64 -171 -64c-100 0 -177 50 -177 157c0 168 184 156 302 180c29 7 45 16 45 48c0 39 -47 54 -82 54c-49 0 -77 -22 -85 -65z
M199 149c0 -43 32 -59 71 -59c81 0 108 45 104 153c-24 -15 -68 -17 -105 -28c-39 -9 -70 -25 -70 -66z" />
    <glyph glyph-name="afii10066" unicode="&#x431;" horiz-adv-x="611" 
d="M579 254c0 -164 -108 -269 -272 -269c-182 0 -273 129 -273 317c0 195 65 325 222 361l87 20c25 6 43 16 49 31h166c-11 -87 -62 -119 -139 -136l-115 -24c-90 -19 -128 -62 -142 -143c24 55 84 100 177 100c141 0 240 -96 240 -257zM409 257c0 93 -37 138 -104 138
c-64 0 -101 -46 -101 -139c0 -96 37 -148 103 -148c65 0 102 53 102 149z" />
    <glyph glyph-name="afii10067" unicode="&#x432;" horiz-adv-x="611" 
d="M59 0v519h325c89 0 166 -35 166 -131c0 -50 -26 -83 -73 -104c70 -20 99 -64 99 -128c0 -100 -68 -156 -201 -156h-316zM224 415v-98h99c46 0 66 15 66 48c0 38 -26 50 -67 50h-98zM224 225v-117h109c49 0 76 15 76 58c0 41 -25 59 -80 59h-105z" />
    <glyph glyph-name="afii10068" unicode="&#x433;" horiz-adv-x="476" 
d="M228 389v-389h-170v519h404v-130h-234z" />
    <glyph glyph-name="afii10069" unicode="&#x434;" horiz-adv-x="648" 
d="M646 -142h-160v142h-309v-142h-160v272h56c36 71 60 177 60 285v104h447v-389h66v-272zM412 130v259h-117c-1 -94 -20 -188 -51 -259h168z" />
    <glyph glyph-name="afii10070" unicode="&#x435;" horiz-adv-x="611" 
d="M583 218h-381c3 -72 44 -118 116 -118c41 0 81 18 97 57h159c-32 -120 -142 -172 -258 -172c-169 0 -284 102 -284 276c0 159 127 273 280 273c186 0 279 -140 271 -316zM202 313h211c-3 59 -44 106 -101 106c-60 0 -99 -42 -110 -106z" />
    <glyph glyph-name="afii10072" unicode="&#x436;" horiz-adv-x="882" 
d="M357 0v142l-51 56l-116 -198h-198l211 308l-185 211h195l144 -188v188h168v-190l147 190h192l-185 -208l211 -311h-201l-115 199l-49 -52v-147h-168z" />
    <glyph glyph-name="afii10073" unicode="&#x437;" horiz-adv-x="556" 
d="M528 158c0 -107 -96 -173 -253 -173c-127 0 -249 42 -254 184h162c4 -49 40 -69 92 -69c57 0 85 25 85 62c0 29 -21 56 -79 56h-63v95h45c59 0 83 22 83 55c0 31 -21 54 -71 54c-46 0 -76 -17 -81 -57h-157c8 126 116 169 243 169c150 0 231 -56 231 -149
c0 -45 -29 -86 -84 -106v-3c66 -14 101 -55 101 -118z" />
    <glyph glyph-name="afii10074" unicode="&#x438;" horiz-adv-x="633" 
d="M574 0h-165v322l-159 -322h-191v519h165v-322l158 322h192v-519z" />
    <glyph glyph-name="afii10075" unicode="&#x439;" horiz-adv-x="633" 
d="M574 0h-165v322l-159 -322h-191v519h165v-322l158 322h192v-519zM147 727h71c8 -57 60 -68 103 -68s95 11 103 68h71c0 -93 -73 -154 -174 -154s-174 61 -174 154z" />
    <glyph glyph-name="afii10076" unicode="&#x43a;" horiz-adv-x="592" 
d="M57 0v519h170v-188l155 188h196l-191 -213l215 -306h-205l-123 190l-47 -47v-143h-170z" />
    <glyph glyph-name="afii10077" unicode="&#x43b;" horiz-adv-x="612" 
d="M383 0v389h-109l-6 -173c-5 -143 -40 -229 -178 -229c-32 0 -59 6 -85 14v133c11 -5 27 -7 38 -7c42 0 59 30 61 88l8 304h441v-519h-170z" />
    <glyph glyph-name="afii10078" unicode="&#x43c;" horiz-adv-x="783" 
d="M392 140l100 379h234v-519h-161v360l-92 -360h-163l-92 360v-360h-161v519h237z" />
    <glyph glyph-name="afii10079" unicode="&#x43d;" horiz-adv-x="633" 
d="M229 337h175v182h170v-519h-170v208h-175v-208h-170v519h170v-182z" />
    <glyph glyph-name="afii10080" unicode="&#x43e;" horiz-adv-x="611" 
d="M32 259c0 156 112 275 273 275s274 -119 274 -275s-113 -274 -274 -274s-273 118 -273 274zM202 259c0 -67 24 -144 103 -144c80 0 104 77 104 144c0 66 -24 145 -104 145c-79 0 -103 -79 -103 -145z" />
    <glyph glyph-name="afii10081" unicode="&#x43f;" horiz-adv-x="633" 
d="M574 519v-519h-170v389h-175v-389h-170v519h515z" />
    <glyph glyph-name="afii10082" unicode="&#x440;" horiz-adv-x="630" 
d="M57 -174v693h162v-60h2c34 50 82 75 143 75c163 0 232 -139 232 -286c0 -135 -72 -263 -219 -263c-63 0 -113 24 -148 71h-2v-230h-170zM325 404c-45 0 -104 -31 -104 -139c0 -91 26 -150 103 -150c75 0 102 79 102 150c0 66 -25 139 -101 139z" />
    <glyph glyph-name="afii10083" unicode="&#x441;" horiz-adv-x="593" 
d="M560 329h-165c0 44 -40 75 -83 75c-95 0 -110 -81 -110 -153c0 -67 29 -136 101 -136c60 0 89 33 97 89h165c-16 -140 -122 -219 -261 -219c-156 0 -272 106 -272 266c0 165 105 283 272 283c130 0 243 -69 256 -205z" />
    <glyph glyph-name="afii10084" unicode="&#x442;" horiz-adv-x="538" 
d="M354 389v-389h-170v389h-170v130h510v-130h-170z" />
    <glyph glyph-name="afii10085" unicode="&#x443;" horiz-adv-x="537" 
d="M545 519l-205 -565c-40 -114 -103 -128 -217 -128h-80v138h59c39 0 68 22 68 58c0 28 -33 108 -43 136l-134 361h180l98 -338h2l98 338h174z" />
    <glyph glyph-name="afii10086" unicode="&#x444;" horiz-adv-x="870" 
d="M837 266c0 -142 -64 -281 -212 -281c-43 0 -83 19 -105 44v-203h-170v203c-33 -32 -71 -44 -110 -44c-132 0 -207 112 -207 281c0 162 83 268 205 268c62 0 96 -29 112 -50v230h170v-230c23 23 61 50 122 50c115 0 195 -102 195 -268zM667 257c0 101 -29 144 -81 144
c-21 0 -49 -12 -66 -40v-211c11 -20 33 -35 62 -35c63 0 85 55 85 142zM350 150v211c-9 23 -34 40 -66 40c-52 0 -81 -43 -81 -144c0 -87 22 -142 85 -142c29 0 51 14 62 35z" />
    <glyph glyph-name="afii10087" unicode="&#x445;" horiz-adv-x="537" 
d="M-7 0l180 272l-165 247h188l73 -124l73 124h180l-162 -244l184 -275h-188l-90 150l-85 -150h-188z" />
    <glyph glyph-name="afii10088" unicode="&#x446;" horiz-adv-x="642" 
d="M480 0h-421v519h170v-389h175v389h170v-389h66v-272h-160v142z" />
    <glyph glyph-name="afii10089" unicode="&#x447;" horiz-adv-x="594" 
d="M366 309v210h170v-519h-170v184c-59 -11 -99 -14 -129 -14c-135 0 -208 50 -208 201v148h170v-138c0 -60 20 -81 77 -81c23 0 51 3 90 9z" />
    <glyph glyph-name="afii10090" unicode="&#x448;" horiz-adv-x="894" 
d="M835 0h-776v519h168v-389h136v389h168v-389h136v389h168v-519z" />
    <glyph glyph-name="afii10091" unicode="&#x449;" horiz-adv-x="903" 
d="M741 0h-682v519h168v-389h136v389h168v-389h136v389h168v-389h66v-272h-160v142z" />
    <glyph glyph-name="afii10092" unicode="&#x44a;" horiz-adv-x="671" 
d="M326 519v-169h122c127 0 204 -58 204 -174c0 -118 -78 -176 -210 -176h-286v389h-142v130h312zM417 231h-91v-110h91c47 0 68 19 68 55c0 35 -23 55 -68 55z" />
    <glyph glyph-name="afii10093" unicode="&#x44b;" horiz-adv-x="826" 
d="M325 0h-266v519h170v-169h102c127 0 204 -58 204 -174c0 -118 -78 -176 -210 -176zM300 231h-71v-110h71c47 0 68 19 68 55c0 35 -23 55 -68 55zM597 0v519h170v-519h-170z" />
    <glyph glyph-name="afii10094" unicode="&#x44c;" horiz-adv-x="574" 
d="M345 0h-286v519h170v-169h122c127 0 204 -58 204 -174c0 -118 -78 -176 -210 -176zM320 231h-91v-110h91c47 0 68 19 68 55c0 35 -23 55 -68 55z" />
    <glyph glyph-name="afii10095" unicode="&#x44d;" horiz-adv-x="593" 
d="M238 313h148c-5 56 -41 97 -97 97c-50 0 -82 -24 -96 -70h-163c23 123 123 194 263 194c164 0 268 -121 268 -280c0 -149 -108 -269 -270 -269c-149 0 -251 69 -265 202h164c10 -52 49 -78 97 -78c57 0 94 40 102 109h-151v95z" />
    <glyph glyph-name="afii10096" unicode="&#x44e;" horiz-adv-x="872" 
d="M229 335h92c28 117 120 199 254 199c162 0 265 -119 265 -275s-103 -274 -265 -274c-144 0 -240 93 -259 225h-87v-210h-170v519h170v-184zM477 259c0 -67 21 -144 98 -144s98 77 98 144c0 66 -21 145 -98 145s-98 -79 -98 -145z" />
    <glyph glyph-name="afii10097" unicode="&#x44f;" horiz-adv-x="593" 
d="M-5 0l149 200c-57 22 -106 70 -106 152c0 113 76 167 204 167h292v-519h-170v184h-56l-114 -184h-199zM265 299h99v105h-99c-43 0 -60 -22 -60 -53c0 -30 19 -52 60 -52z" />
    <glyph glyph-name="uni0450" unicode="&#x450;" horiz-adv-x="611" 
d="M291 725l97 -149h-120l-157 149h180zM583 218h-381c3 -72 44 -118 116 -118c41 0 81 18 97 57h159c-32 -120 -142 -172 -258 -172c-169 0 -284 102 -284 276c0 159 127 273 280 273c186 0 279 -140 271 -316zM202 313h211c-3 59 -44 106 -101 106
c-60 0 -99 -42 -110 -106z" />
    <glyph glyph-name="afii10071" unicode="&#x451;" horiz-adv-x="611" 
d="M130 588v125h150v-125h-150zM493 588h-150v125h150v-125zM583 218h-381c3 -72 44 -118 116 -118c41 0 81 18 97 57h159c-32 -120 -142 -172 -258 -172c-169 0 -284 102 -284 276c0 159 127 273 280 273c186 0 279 -140 271 -316zM202 313h211c-3 59 -44 106 -101 106
c-60 0 -99 -42 -110 -106z" />
    <glyph glyph-name="afii10099" unicode="&#x452;" horiz-adv-x="611" 
d="M404 100v178c0 50 -17 91 -85 91c-64 0 -92 -55 -92 -111v-258h-170v548h-90v111h90v55h170v-55h162v-111h-162v-125h2c27 53 96 86 158 86c173 0 187 -126 187 -201v-216c0 -168 -94 -274 -305 -274v139c97 8 135 41 135 143z" />
    <glyph glyph-name="afii10100" unicode="&#x453;" horiz-adv-x="476" 
d="M228 389v-389h-170v519h404v-130h-234zM258 725h180l-157 -149h-120z" />
    <glyph glyph-name="afii10101" unicode="&#x454;" horiz-adv-x="593" 
d="M566 187c-23 -128 -120 -202 -264 -202c-162 0 -270 106 -270 269c0 169 106 280 273 280c140 0 242 -76 257 -194h-163c-5 41 -44 70 -90 70c-56 0 -94 -34 -102 -97h143v-95h-146c7 -69 43 -109 102 -109c48 0 84 24 95 78h165z" />
    <glyph glyph-name="afii10102" unicode="&#x455;" horiz-adv-x="556" 
d="M27 171h162c0 -27 11 -45 28 -58c16 -12 39 -18 63 -18c32 0 80 15 80 55c0 41 -54 47 -83 55c-107 27 -241 30 -241 170c0 124 135 159 237 159c113 0 234 -33 239 -168h-157c0 21 -7 36 -22 45c-13 9 -31 13 -54 13c-28 0 -73 -3 -73 -39c0 -48 114 -59 192 -75
c104 -21 132 -97 132 -140c0 -139 -132 -185 -249 -185c-124 0 -249 41 -254 186z" />
    <glyph glyph-name="afii10103" unicode="&#x456;" 
d="M233 714v-130h-170v130h170zM63 0v519h170v-519h-170z" />
    <glyph glyph-name="afii10104" unicode="&#x457;" 
d="M233 0h-170v519h170v-519zM-32 588v125h150v-125h-150zM331 588h-150v125h150v-125z" />
    <glyph glyph-name="afii10105" unicode="&#x458;" 
d="M233 714v-130h-170v130h170zM233 519v-519c0 -131 -52 -174 -172 -174h-86v138h34c35 1 54 11 54 48v507h170z" />
    <glyph glyph-name="afii10106" unicode="&#x459;" horiz-adv-x="854" 
d="M544 519v-180h87c127 0 204 -52 204 -168c0 -118 -78 -171 -210 -171h-251v389h-100l-6 -173c-5 -143 -40 -229 -178 -229c-32 0 -59 6 -85 14v133c11 -5 27 -7 38 -7c42 0 59 30 61 88l8 304h432zM605 220h-61v-99h61c47 0 68 13 68 49c0 35 -23 50 -68 50z" />
    <glyph glyph-name="afii10107" unicode="&#x45a;" horiz-adv-x="854" 
d="M625 0h-251v220h-145v-220h-170v519h170v-180h145v180h170v-180h87c127 0 204 -52 204 -168c0 -118 -78 -171 -210 -171zM605 220h-61v-99h61c47 0 68 13 68 49c0 35 -23 50 -68 50z" />
    <glyph glyph-name="afii10108" unicode="&#x45b;" horiz-adv-x="630" 
d="M227 659h162v-111h-162v-125h2c27 53 96 86 158 86c173 0 187 -126 187 -201v-308h-170v278c0 50 -17 91 -85 91c-64 0 -92 -55 -92 -111v-258h-170v548h-90v111h90v55h170v-55z" />
    <glyph glyph-name="afii10109" unicode="&#x45c;" horiz-adv-x="592" 
d="M57 0v519h170v-188l155 188h196l-191 -213l215 -306h-205l-123 190l-47 -47v-143h-170zM302 725h180l-157 -149h-120z" />
    <glyph glyph-name="uni045D" unicode="&#x45d;" horiz-adv-x="633" 
d="M574 0h-165v322l-159 -322h-191v519h165v-322l158 322h192v-519zM301 725l97 -149h-120l-157 149h180z" />
    <glyph glyph-name="afii10110" unicode="&#x45e;" horiz-adv-x="537" 
d="M545 519l-205 -565c-40 -114 -103 -128 -217 -128h-80v138h59c39 0 68 22 68 58c0 28 -33 108 -43 136l-134 361h180l98 -338h2l98 338h174zM98 727h71c8 -57 60 -68 103 -68s95 11 103 68h71c0 -93 -73 -154 -174 -154s-174 61 -174 154z" />
    <glyph glyph-name="afii10193" unicode="&#x45f;" horiz-adv-x="633" 
d="M59 0v519h170v-389h175v389h170v-519h-177v-142h-162v142h-176z" />
    <glyph glyph-name="afii10146" unicode="&#x462;" horiz-adv-x="766" 
d="M522 511h-182v-70h120c179 0 275 -69 275 -217c0 -156 -100 -224 -278 -224h-303v511h-136v138h136v65h186v-65h182v-138zM340 297v-153h109c65 0 102 22 102 76c0 58 -40 77 -102 77h-109z" />
    <glyph glyph-name="afii10194" unicode="&#x463;" horiz-adv-x="636" 
d="M131 0v389h-117v130h117v195h170v-195h194v-130h-194v-58h120c123 0 196 -53 196 -164c0 -113 -74 -167 -202 -167h-284zM392 216h-91v-99h91c43 0 58 19 58 50c0 30 -17 49 -58 49z" />
    <glyph glyph-name="afii10147" unicode="&#x472;" horiz-adv-x="778" 
d="M37 357c0 207 128 372 352 372s352 -165 352 -372s-128 -372 -352 -372s-352 165 -352 372zM389 139c101 0 150 68 162 158h-325c12 -91 61 -158 163 -158zM389 575c-95 0 -145 -60 -160 -142h319c-15 82 -64 142 -159 142z" />
    <glyph glyph-name="afii10195" unicode="&#x473;" horiz-adv-x="611" 
d="M32 259c0 156 102 275 273 275s274 -119 274 -275s-103 -274 -274 -274s-273 118 -273 274zM305 102c69 0 97 51 105 116h-209c7 -65 36 -116 104 -116zM305 417c-64 0 -92 -46 -102 -104h205c-10 58 -39 104 -103 104z" />
    <glyph glyph-name="afii10148" unicode="&#x474;" horiz-adv-x="676" 
d="M584 525l-156 -525h-214l-225 714h194l140 -531h2l90 393c25 109 88 153 187 153c27 0 53 -2 78 -8v-158c-17 4 -31 6 -43 6c-27 0 -44 -12 -53 -44z" />
    <glyph glyph-name="afii10196" unicode="&#x475;" horiz-adv-x="550" 
d="M482 367l-116 -367h-196l-173 519h177l95 -343h2l59 231c24 95 74 127 156 127c23 0 43 -2 64 -8v-125c-11 2 -18 3 -27 3c-22 0 -33 -12 -41 -37z" />
    <glyph glyph-name="afii10050" unicode="&#x490;" horiz-adv-x="625" 
d="M601 554h-353v-554h-186v714h363v148h176v-308z" />
    <glyph glyph-name="afii10098" unicode="&#x491;" horiz-adv-x="476" 
d="M462 389h-234v-389h-170v519h244v125h160v-255z" />
    </font>
</defs>
</svg>
