<svg xmlns="http://www.w3.org/2000/svg">
<defs>
<font id="HelveticaNeueLTW1G-It" horiz-adv-x="556" >
  <font-face 
    font-family="Helvetica Neue LT W1G"
    font-weight="400"
    font-style="italic"
    font-stretch="normal"
    units-per-em="1000"
    panose-1="2 11 6 4 2 2 2 9 2 4"
    ascent="714"
    descent="-286"
    x-height="517"
    cap-height="714"
    bbox="-166 -248 1106 973"
    underline-thickness="50"
    underline-position="-100"
    stemh="75"
    stemv="85"
    unicode-range="U+000D-FB04"
  />
<missing-glyph horiz-adv-x="512" 
d="M0 0h512v718h-512v-718zM50 50v617h412v-617h-412zM225 234h46c0 35 2 59 6 72s18 30 43 52c51 47 63 77 63 120c0 79 -53 131 -124 131c-72 0 -126 -42 -135 -137l50 -8c8 68 41 95 82 95s76 -37 76 -85c0 -25 -7 -42 -50 -83c-22 -22 -37 -42 -46 -59s-13 -44 -13 -81z
M222 117h56v67h-56v-67z" />
    <glyph glyph-name="napostrophe" unicode="&#x22;n" horiz-adv-x="663" 
d="M102 0l109 517h82l-16 -78h2c43 59 112 90 184 90c97 0 144 -41 144 -133c0 -23 -6 -61 -15 -101l-63 -295h-85l66 302c3 20 12 62 12 80c0 49 -39 72 -90 72c-47 0 -96 -25 -128 -60c-31 -27 -46 -67 -57 -108l-60 -286h-85zM73 603l24 111h111
c-26 -111 -26 -247 -166 -258l10 48c54 8 64 54 77 99h-56z" />
    <glyph glyph-name="IJ" unicode="IJ" horiz-adv-x="770" 
d="M7 0l150 714h95l-150 -714h-95zM242 135c0 24 2 60 9 99h96c-5 -24 -9 -49 -10 -74c0 -68 40 -97 105 -97c96 0 120 85 136 162l104 489h94l-113 -538c-27 -123 -80 -193 -223 -193c-115 0 -198 53 -198 152z" />
    <glyph glyph-name="ij" unicode="ij" horiz-adv-x="438" 
d="M230 714l-22 -104h-86l22 104h86zM-5 0l108 517h85l-108 -517h-85zM446 714l-22 -104h-86l22 104h86zM96 -192l15 75c11 -3 22 -6 33 -6c37 0 46 24 62 97l113 543h85l-130 -614c-15 -64 -54 -101 -122 -101c-19 0 -37 1 -56 6z" />
    <glyph glyph-name="fi" unicode="fi" horiz-adv-x="519" 
d="M23 0l96 442h-88l15 75h88c27 104 32 205 167 205c24 0 48 -1 71 -8l-14 -72c-15 3 -28 5 -40 5c-83 0 -82 -67 -100 -130h99l-14 -75h-100l-95 -442h-85zM527 714l-22 -104h-86l22 104h86zM292 0l108 517h85l-108 -517h-85z" />
    <glyph glyph-name="fl" unicode="fl" horiz-adv-x="519" 
d="M23 0l96 442h-88l15 75h88c27 104 32 205 167 205c24 0 48 -1 71 -8l-14 -72c-15 3 -28 5 -40 5c-83 0 -82 -67 -100 -130h99l-14 -75h-100l-95 -442h-85zM292 0l150 714h85l-150 -714h-85z" />
    <glyph glyph-name="f_f" unicode="ff" horiz-adv-x="577" 
d="M23 0l96 442h-88l15 75h88c27 104 32 205 167 205c24 0 48 -1 71 -8l-14 -72c-15 3 -28 5 -40 5c-83 0 -82 -67 -100 -130h197c27 104 32 205 167 205c24 0 48 -1 71 -8l-14 -72c-15 3 -28 5 -40 5c-83 0 -82 -67 -100 -130h99l-14 -75h-100l-95 -442h-85l96 442h-197
l-95 -442h-85z" />
    <glyph glyph-name="f_f_i" unicode="ffi" horiz-adv-x="799" 
d="M23 0l96 442h-88l15 75h88c27 104 32 205 167 205c24 0 48 -1 71 -8l-14 -72c-15 3 -28 5 -40 5c-83 0 -82 -67 -100 -130h197c27 104 32 205 167 205c24 0 48 -1 71 -8l-14 -72c-15 3 -28 5 -40 5c-83 0 -82 -67 -100 -130h99l-14 -75h-100l-95 -442h-85l96 442h-197
l-95 -442h-85zM807 714l-22 -104h-86l22 104h86zM572 0l108 517h85l-108 -517h-85z" />
    <glyph glyph-name="f_f_l" unicode="ffl" horiz-adv-x="799" 
d="M23 0l96 442h-88l15 75h88c27 104 32 205 167 205c24 0 48 -1 71 -8l-14 -72c-15 3 -28 5 -40 5c-83 0 -82 -67 -100 -130h197c27 104 32 205 167 205c24 0 48 -1 71 -8l-14 -72c-15 3 -28 5 -40 5c-83 0 -82 -67 -100 -130h99l-14 -75h-100l-95 -442h-85l96 442h-197
l-95 -442h-85zM572 0l150 714h85l-150 -714h-85z" />
    <glyph glyph-name=".notdef" horiz-adv-x="512" 
d="M0 0h512v718h-512v-718zM50 50v617h412v-617h-412zM225 234h46c0 35 2 59 6 72s18 30 43 52c51 47 63 77 63 120c0 79 -53 131 -124 131c-72 0 -126 -42 -135 -137l50 -8c8 68 41 95 82 95s76 -37 76 -85c0 -25 -7 -42 -50 -83c-22 -22 -37 -42 -46 -59s-13 -44 -13 -81z
M222 117h56v67h-56v-67z" />
    <glyph glyph-name=".null" horiz-adv-x="500" 
 />
    <glyph glyph-name="CR" unicode="&#xd;" horiz-adv-x="0" 
 />
    <glyph glyph-name="space" unicode=" " horiz-adv-x="278" 
 />
    <glyph glyph-name="exclam" unicode="!" horiz-adv-x="259" 
d="M69 183l43 308l47 223h93l-47 -223l-90 -308h-46zM0 0l24 111h111l-24 -111h-111z" />
    <glyph glyph-name="quotedbl" unicode="&#x22;" horiz-adv-x="426" 
d="M286 456v258h68v-258h-68zM146 456v258h68v-258h-68z" />
    <glyph glyph-name="numbersign" unicode="#" 
d="M102 0l29 206h-97l9 68h97l21 150h-101l9 68h102l29 205h69l-29 -205h122l29 205h69l-29 -205h91l-9 -68h-91l-21 -150h93l-9 -68h-93l-29 -206h-69l29 206h-123l-29 -206h-69zM210 274h122l21 150h-122z" />
    <glyph glyph-name="dollar" unicode="$" 
d="M172 -12c-127 21 -189 109 -182 246h90c-5 -97 31 -153 108 -169l54 269c-96 29 -177 69 -177 185c0 136 125 225 257 212l13 63h53l-14 -69c94 -26 170 -99 162 -222h-90c3 85 -30 129 -87 148l-49 -246l54 -19c100 -28 152 -88 152 -180c0 -160 -160 -242 -292 -223
l-17 -80h-53zM246 424l13 -6l48 238c-60 0 -152 -28 -152 -127c0 -55 43 -89 91 -105zM239 58c52 -14 187 26 187 139c0 95 -64 101 -133 125z" />
    <glyph glyph-name="percent" unicode="%" horiz-adv-x="926" 
d="M209 -28l435 753h64l-435 -753h-64zM223 309c-89 0 -144 54 -144 145c0 108 57 255 185 255c96 0 146 -49 146 -145c0 -114 -54 -255 -187 -255zM226 364c87 0 116 121 116 205c0 57 -24 85 -73 85c-87 0 -122 -128 -122 -196c0 -61 20 -94 79 -94zM513 133
c0 108 57 255 185 255c96 0 146 -49 146 -145c0 -114 -54 -255 -187 -255c-89 0 -144 54 -144 145zM581 137c0 -61 20 -94 79 -94c87 0 116 121 116 205c0 57 -24 85 -73 85c-87 0 -122 -128 -122 -196z" />
    <glyph glyph-name="ampersand" unicode="&#x26;" horiz-adv-x="630" 
d="M21 173c0 120 106 177 199 225c-28 44 -59 94 -59 158c0 95 75 158 178 158c83 0 163 -45 163 -136c0 -100 -97 -160 -176 -202l112 -184c28 39 56 96 63 145h82c-21 -95 -55 -151 -103 -207l85 -130h-97l-44 74c-55 -52 -121 -86 -204 -86c-111 0 -199 69 -199 185z
M291 434c51 29 126 69 126 131c0 45 -35 74 -79 74c-52 0 -92 -33 -92 -88c0 -45 22 -80 45 -117zM106 169c0 -64 59 -106 123 -106s104 24 155 67l-127 208c-68 -35 -151 -82 -151 -169z" />
    <glyph glyph-name="quotesingle" unicode="'" horiz-adv-x="278" 
d="M142 456v258h68v-258h-68z" />
    <glyph glyph-name="parenleft" unicode="(" horiz-adv-x="259" 
d="M35 170c0 227 111 395 258 561h70c-145 -174 -243 -366 -243 -597c0 -113 15 -224 52 -332h-56c-48 104 -81 252 -81 368z" />
    <glyph glyph-name="parenright" unicode=")" horiz-adv-x="259" 
d="M-47 -198h-70c146 170 243 367 243 596c0 113 -15 225 -52 333h56c47 -108 81 -252 81 -369c0 -228 -111 -394 -258 -560z" />
    <glyph glyph-name="asterisk" unicode="*" horiz-adv-x="352" 
d="M130 443l-37 37l77 84l-95 48l25 46l96 -49l22 105h54l-25 -113l110 11l5 -48l-107 -14l49 -100l-49 -23l-47 103z" />
    <glyph glyph-name="plus" unicode="+" horiz-adv-x="600" 
d="M30 219v68h218v219h68v-219h218v-68h-218v-219h-68v219h-218z" />
    <glyph glyph-name="comma" unicode="," horiz-adv-x="278" 
d="M15 0l24 111h111c-26 -111 -26 -247 -166 -258l10 48c54 8 64 54 77 99h-56z" />
    <glyph glyph-name="hyphen" unicode="-" horiz-adv-x="389" 
d="M26 238l16 80h290l-16 -80h-290z" />
    <glyph glyph-name="period" unicode="." horiz-adv-x="278" 
d="M15 0l24 111h111l-24 -111h-111z" />
    <glyph glyph-name="slash" unicode="/" horiz-adv-x="333" 
d="M-18 -17l296 748h73l-296 -748h-73z" />
    <glyph glyph-name="zero" unicode="0" 
d="M221 -12c-149 0 -196 122 -196 275c0 160 88 446 310 446c124 0 191 -79 191 -268c0 -130 -71 -453 -305 -453zM230 63c158 0 206 292 206 354c0 79 15 217 -108 217c-154 0 -213 -285 -213 -385c0 -113 31 -186 115 -186z" />
    <glyph glyph-name="one" unicode="1" 
d="M192 0l115 539c-64 -15 -118 -20 -183 -20l14 68c87 0 186 41 229 122h66l-151 -709h-90z" />
    <glyph glyph-name="two" unicode="2" 
d="M-6 0c16 214 207 261 346 365c51 40 92 79 92 150c0 75 -46 119 -119 119c-96 0 -150 -77 -155 -166h-90c16 147 102 241 255 241c115 0 199 -72 199 -189c0 -173 -192 -246 -313 -323c-45 -29 -97 -71 -116 -122h369l-16 -75h-452z" />
    <glyph glyph-name="three" unicode="3" 
d="M1 219h90c-3 -77 22 -156 135 -156c95 0 164 60 164 156c0 108 -91 117 -176 117l15 68c90 -5 196 10 196 132c0 84 -61 98 -120 98c-80 0 -132 -45 -144 -144h-90c16 116 88 219 239 219c125 0 205 -57 205 -177c0 -83 -63 -143 -127 -162c69 -31 92 -84 92 -147
c0 -98 -81 -235 -256 -235c-140 0 -226 72 -223 231z" />
    <glyph glyph-name="four" unicode="4" 
d="M-4 166l17 84l420 459h72l-98 -468h94l-15 -75h-94l-36 -166h-85l36 166h-311zM94 241h228l67 321h-2z" />
    <glyph glyph-name="five" unicode="5" 
d="M7 190h90c0 -83 41 -127 128 -127c111 0 172 84 172 186c0 92 -49 143 -141 143c-51 0 -102 -26 -126 -69h-76l110 374h359l-15 -75h-291l-56 -192l2 -2c35 27 81 39 125 39c128 0 199 -93 199 -214c0 -75 -25 -147 -80 -198c-55 -48 -114 -67 -187 -67
c-129 0 -213 73 -213 202z" />
    <glyph glyph-name="six" unicode="6" 
d="M29 227c0 94 23 209 60 291c51 119 130 191 270 191c117 0 183 -69 186 -184h-90c-1 72 -35 109 -110 109c-134 0 -177 -144 -207 -249h2c33 49 96 71 155 71c118 0 200 -92 200 -208c0 -147 -97 -260 -253 -260c-148 0 -213 103 -213 239zM119 206
c0 -84 42 -143 131 -143c104 0 155 88 155 181c0 81 -46 137 -130 137c-101 0 -156 -80 -156 -175z" />
    <glyph glyph-name="seven" unicode="7" 
d="M97 0c73 232 203 442 374 622h-369l17 75h457l-12 -71c-163 -152 -304 -416 -370 -626h-97z" />
    <glyph glyph-name="eight" unicode="8" 
d="M22 189c0 107 66 178 170 197v2c-51 23 -88 75 -88 131c0 123 100 190 216 190c104 0 199 -65 199 -176c0 -79 -51 -142 -127 -159v-2c69 -29 100 -94 100 -167c0 -131 -113 -217 -237 -217s-233 64 -233 201zM314 411c68 0 115 47 115 115c0 72 -42 108 -113 108
c-72 0 -122 -46 -122 -118c0 -75 52 -105 120 -105zM112 190c0 -85 57 -127 137 -127c89 0 153 54 153 145c0 76 -47 128 -131 128c-93 0 -159 -50 -159 -146z" />
    <glyph glyph-name="nine" unicode="9" 
d="M4 169h90c0 -68 32 -106 103 -106c135 0 182 140 214 244l-2 2c-33 -49 -97 -70 -156 -70c-118 0 -199 93 -199 208c0 144 97 262 247 262c149 0 218 -96 218 -238c0 -93 -22 -202 -59 -287c-54 -121 -120 -196 -262 -196c-118 0 -197 58 -194 181zM274 314
c101 0 155 81 155 175c0 88 -45 145 -137 145c-98 0 -148 -98 -148 -183c0 -81 45 -137 130 -137z" />
    <glyph glyph-name="colon" unicode=":" horiz-adv-x="278" 
d="M99 406l23 111h112l-23 -111h-112zM15 0l22 111h113l-23 -111h-112z" />
    <glyph glyph-name="semicolon" unicode=";" horiz-adv-x="278" 
d="M99 406l24 111h111l-24 -111h-111zM15 0l24 111h111c-26 -111 -26 -247 -166 -258l10 48c54 8 64 54 77 99h-56z" />
    <glyph glyph-name="less" unicode="&#x3c;" horiz-adv-x="600" 
d="M26 222v62l508 230v-68l-425 -193l425 -193v-68z" />
    <glyph glyph-name="equal" unicode="=" horiz-adv-x="600" 
d="M31 320v68h504v-68h-504zM31 118v68h504v-68h-504z" />
    <glyph glyph-name="greater" unicode="&#x3e;" horiz-adv-x="600" 
d="M36 -8v68l425 193l-425 193v68l508 -230v-62z" />
    <glyph glyph-name="question" unicode="?" 
d="M196 183c8 47 19 90 50 129c24 32 57 58 104 90c48 32 95 77 95 140c0 72 -47 105 -115 105c-95 0 -151 -71 -159 -159h-85c8 134 106 234 242 234c100 0 207 -52 207 -165c0 -206 -220 -202 -252 -352l-4 -22h-83zM145 0l24 111h111l-24 -111h-111z" />
    <glyph glyph-name="at" unicode="@" horiz-adv-x="800" 
d="M185 289c0 139 94 284 235 284c47 0 89 -22 112 -82l23 63h63l-84 -284c-5 -17 -11 -36 -11 -51c0 -19 7 -31 24 -31c61 0 138 123 138 230c0 158 -131 258 -271 258c-171 0 -304 -146 -304 -321c0 -179 141 -317 309 -317c95 0 191 48 248 121h63
c-65 -110 -184 -176 -313 -176c-211 0 -375 165 -375 377c0 205 168 371 371 371c185 0 340 -128 340 -308c0 -173 -141 -290 -234 -290c-35 0 -61 21 -64 65h-3c-31 -35 -75 -67 -124 -67c-85 0 -143 70 -143 158zM260 296c0 -56 35 -97 86 -97c87 0 155 130 155 213
c0 48 -39 93 -81 93c-93 0 -160 -122 -160 -209z" />
    <glyph glyph-name="A" unicode="A" horiz-adv-x="667" 
d="M51 0h-106l430 714h104l129 -714h-98l-33 215h-301zM219 295h246l-53 335h-2z" />
    <glyph glyph-name="B" unicode="B" horiz-adv-x="685" 
d="M7 0l149 714h287c140 0 199 -63 199 -171c0 -79 -52 -158 -136 -172v-2c65 -19 107 -72 107 -148c0 -136 -112 -221 -253 -221h-353zM183 407h212c100 0 152 47 152 136c0 84 -81 91 -140 91h-176zM115 80h230c47 0 173 10 173 141c0 91 -70 106 -147 106h-204z" />
    <glyph glyph-name="C" unicode="C" horiz-adv-x="722" 
d="M38 296c0 231 148 435 392 435c154 0 272 -82 272 -247h-95c0 112 -73 167 -177 167c-199 0 -297 -183 -297 -355c0 -139 68 -233 211 -233c117 0 190 66 221 178h95c-36 -160 -140 -258 -316 -258c-195 0 -306 116 -306 313z" />
    <glyph glyph-name="D" unicode="D" horiz-adv-x="704" 
d="M7 0l151 714h250c177 0 270 -104 270 -273c0 -269 -161 -441 -397 -441h-274zM117 80h165c203 0 301 178 301 351c0 105 -39 203 -197 203h-152z" />
    <glyph glyph-name="E" unicode="E" horiz-adv-x="611" 
d="M7 0l151 714h492l-16 -80h-397l-48 -227h370l-16 -80h-371l-52 -247h402l-18 -80h-497z" />
    <glyph glyph-name="F" unicode="F" horiz-adv-x="574" 
d="M7 0l149 714h470l-17 -80h-375l-47 -227h330l-17 -80h-330l-68 -327h-95z" />
    <glyph glyph-name="G" unicode="G" horiz-adv-x="759" 
d="M38 296c0 231 148 435 392 435c158 0 287 -74 287 -239h-95c0 109 -88 159 -192 159c-199 0 -297 -183 -297 -355c0 -139 68 -233 211 -233c152 0 223 94 258 233h-228l16 80h311l-78 -376h-60l-6 71c-55 -60 -136 -88 -213 -88c-195 0 -306 116 -306 313z" />
    <glyph glyph-name="H" unicode="H" horiz-adv-x="722" 
d="M7 0l150 714h96l-65 -307h374l64 307h95l-150 -714h-95l69 327h-374l-69 -327h-95z" />
    <glyph glyph-name="I" unicode="I" horiz-adv-x="259" 
d="M7 0l150 714h95l-150 -714h-95z" />
    <glyph glyph-name="J" unicode="J" horiz-adv-x="519" 
d="M-9 135c0 24 2 60 9 99h96c-5 -24 -9 -49 -10 -74c0 -68 40 -97 105 -97c96 0 120 85 136 162l104 489h94l-113 -538c-27 -123 -80 -193 -223 -193c-115 0 -198 53 -198 152z" />
    <glyph glyph-name="K" unicode="K" horiz-adv-x="667" 
d="M7 0l151 714h95l-75 -352l2 -2l404 354h127l-344 -294l229 -420h-105l-195 362l-143 -121l-51 -241h-95z" />
    <glyph glyph-name="L" unicode="L" 
d="M7 0l150 714h95l-132 -634h377l-17 -80h-473z" />
    <glyph glyph-name="M" unicode="M" horiz-adv-x="870" 
d="M7 0l150 714h132l95 -614h2l353 614h132l-151 -714h-91l146 625h-2l-364 -625h-91l-93 625h-2l-125 -625h-91z" />
    <glyph glyph-name="N" unicode="N" horiz-adv-x="722" 
d="M7 0l151 714h102l255 -591h2l119 591h92l-151 -714h-102l-253 587h-2l-121 -587h-92z" />
    <glyph glyph-name="O" unicode="O" horiz-adv-x="759" 
d="M38 296c0 231 148 435 392 435c185 0 298 -139 298 -316c0 -224 -146 -432 -384 -432c-195 0 -306 116 -306 313zM133 296c0 -139 68 -233 211 -233c189 0 289 181 289 352c0 132 -71 236 -203 236c-199 0 -297 -183 -297 -355z" />
    <glyph glyph-name="P" unicode="P" horiz-adv-x="648" 
d="M7 0l149 714h281c137 0 212 -66 212 -197c0 -89 -62 -225 -273 -225h-212l-62 -292h-95zM236 634l-55 -262h215c103 0 158 60 158 145c0 88 -54 117 -117 117h-201z" />
    <glyph glyph-name="Q" unicode="Q" horiz-adv-x="759" 
d="M663 -18l-54 -56l-99 96c-48 -25 -103 -39 -166 -39c-195 0 -306 116 -306 313c0 231 148 435 392 435c185 0 298 -139 298 -316c0 -137 -55 -268 -152 -349zM381 146l54 57l79 -77c80 66 119 182 119 289c0 132 -71 236 -203 236c-199 0 -297 -183 -297 -355
c0 -139 68 -233 211 -233c38 0 72 7 102 21z" />
    <glyph glyph-name="R" unicode="R" horiz-adv-x="685" 
d="M7 0l151 714h275c121 0 235 -41 235 -182c0 -95 -66 -179 -161 -192v-2c61 -19 81 -83 73 -155c-5 -64 -28 -127 1 -183h-99c-9 27 -13 80 2 153c22 128 -26 149 -69 152h-38h-211l-64 -305h-95zM236 634l-53 -249h214c149 0 176 90 176 141c0 88 -69 108 -140 108h-197z
" />
    <glyph glyph-name="S" unicode="S" horiz-adv-x="648" 
d="M614 503h-95c3 113 -65 148 -164 148c-69 0 -165 -33 -165 -117c0 -69 51 -96 116 -115l96 -26c88 -24 172 -65 172 -193c0 -148 -150 -217 -278 -217c-172 0 -294 76 -281 251h95c-5 -129 74 -171 190 -171c89 0 179 41 179 137c0 73 -58 99 -127 118l-97 26
c-85 24 -160 74 -160 180c0 138 133 207 260 207c140 0 264 -69 259 -228z" />
    <glyph glyph-name="T" unicode="T" horiz-adv-x="574" 
d="M653 714l-18 -80h-240l-134 -634h-95l134 634h-240l17 80h576z" />
    <glyph glyph-name="U" unicode="U" horiz-adv-x="722" 
d="M728 714l-89 -428c-12 -56 -24 -109 -36 -137c-48 -117 -157 -166 -278 -166c-211 0 -300 111 -259 311l89 420h95l-94 -444c-32 -139 30 -207 169 -207c157 0 188 89 218 223l90 428h95z" />
    <glyph glyph-name="V" unicode="V" horiz-adv-x="611" 
d="M691 714l-403 -714h-107l-102 714h97l73 -621h2l339 621h101z" />
    <glyph glyph-name="W" unicode="W" horiz-adv-x="926" 
d="M983 714l-328 -714h-99l-45 616h-2l-282 -616h-102l-45 714h94l25 -601h2l274 601h108l40 -603h2l260 603h98z" />
    <glyph glyph-name="X" unicode="X" horiz-adv-x="611" 
d="M-44 0l310 373l-172 341h102l132 -282l229 282h107l-294 -354l181 -360h-98l-144 302l-244 -302h-109z" />
    <glyph glyph-name="Y" unicode="Y" horiz-adv-x="611" 
d="M193 0l61 287l-188 427h101l146 -346l271 346h110l-346 -427l-62 -287h-93z" />
    <glyph glyph-name="Z" unicode="Z" horiz-adv-x="611" 
d="M-38 0l17 79l536 555h-409l20 80h521l-17 -81l-540 -553h456l-17 -80h-567z" />
    <glyph glyph-name="bracketleft" unicode="[" horiz-adv-x="259" 
d="M-29 -198l192 929h189l-14 -65h-108l-164 -799h108l-14 -65h-189z" />
    <glyph glyph-name="backslash" unicode="\" horiz-adv-x="333" 
d="M55 731l296 -748h-73l-296 748h73z" />
    <glyph glyph-name="bracketright" unicode="]" horiz-adv-x="259" 
d="M253 731l-192 -929h-189l14 65h108l164 799h-108l14 65h189z" />
    <glyph glyph-name="asciicircum" unicode="^" horiz-adv-x="600" 
d="M50 264l218 433h64l218 -433h-70l-181 360l-178 -360h-71z" />
    <glyph glyph-name="underscore" unicode="_" horiz-adv-x="500" 
d="M0 -125v50h500v-50h-500z" />
    <glyph glyph-name="grave" unicode="`" horiz-adv-x="222" 
d="M217 732l67 -143h-67l-101 143h101z" />
    <glyph glyph-name="a" unicode="a" horiz-adv-x="519" 
d="M138 361h-85c16 115 115 168 224 168c100 0 189 -28 189 -132c0 -29 -9 -66 -16 -94l-33 -141c-5 -21 -14 -53 -14 -74c0 -24 10 -32 25 -32c8 0 19 4 27 7l-13 -63c-13 -7 -37 -12 -52 -12c-47 0 -72 28 -67 73l-2 2c-36 -48 -85 -75 -173 -75c-86 0 -158 40 -158 146
c0 146 138 159 261 170c91 8 130 13 130 82c0 55 -59 68 -104 68c-65 0 -128 -26 -139 -93zM75 135c0 -48 45 -72 93 -72c55 0 96 16 124 43c39 38 49 78 66 158h-2c-31 -19 -67 -23 -115 -28c-105 -10 -166 -30 -166 -101z" />
    <glyph glyph-name="b" unicode="b" horiz-adv-x="593" 
d="M-5 0l151 714h85l-55 -261l2 -2c39 49 94 78 158 78c138 0 203 -91 203 -223c0 -161 -98 -318 -273 -318c-95 0 -163 56 -174 108h-2l-19 -96h-76zM454 306c0 83 -39 148 -118 148c-149 0 -211 -153 -211 -262c0 -81 57 -129 141 -129c123 0 188 143 188 243z" />
    <glyph glyph-name="c" unicode="c" horiz-adv-x="537" 
d="M501 353h-85c0 64 -42 101 -109 101c-131 0 -201 -130 -201 -243c0 -80 32 -148 128 -148c73 0 127 42 151 106h85c-31 -116 -116 -181 -236 -181c-141 0 -213 83 -213 223c0 164 101 318 286 318c117 0 190 -55 194 -176z" />
    <glyph glyph-name="d" unicode="d" horiz-adv-x="593" 
d="M606 714l-151 -714h-80l18 74h-2c-51 -67 -102 -86 -171 -86c-132 0 -203 87 -203 212c0 156 106 329 287 329c64 0 140 -22 161 -91h2l55 276h84zM102 200c0 -84 40 -137 133 -137c129 0 202 149 202 257c0 77 -46 134 -130 134c-135 0 -205 -139 -205 -254z" />
    <glyph glyph-name="e" unicode="e" horiz-adv-x="537" 
d="M487 233h-389c-2 -15 -3 -30 -3 -45c0 -80 65 -125 134 -125c75 0 125 35 149 99h85c-27 -115 -122 -174 -234 -174c-172 0 -219 118 -219 208c0 198 124 333 266 333c152 0 219 -84 219 -229c0 -27 -5 -52 -8 -67zM110 308h300c5 73 -27 146 -121 146
c-100 0 -155 -66 -179 -146z" />
    <glyph glyph-name="f" unicode="f" horiz-adv-x="296" 
d="M23 0l96 442h-88l15 75h88c27 104 32 205 167 205c24 0 48 -1 71 -8l-14 -72c-15 3 -28 5 -40 5c-83 0 -82 -67 -100 -130h99l-14 -75h-100l-95 -442h-85z" />
    <glyph glyph-name="g" unicode="g" horiz-adv-x="574" 
d="M552 517l-93 -442c-12 -53 -25 -105 -40 -141c-44 -104 -124 -144 -235 -144c-105 0 -203 45 -206 160h85c5 -69 65 -85 130 -85c131 0 159 105 185 208l-2 2c-37 -56 -96 -79 -161 -79c-128 0 -194 90 -194 214c0 152 101 319 269 319c76 0 148 -41 164 -105v-2h2l16 95
h80zM106 210c0 -74 42 -139 127 -139c128 0 188 144 188 248c0 81 -43 135 -132 135c-119 0 -183 -149 -183 -244z" />
    <glyph glyph-name="h" unicode="h" 
d="M-5 0l151 714h85l-61 -273l2 -2c43 59 112 90 184 90c97 0 144 -41 144 -133c0 -23 -6 -61 -15 -101l-63 -295h-85l66 302c3 20 12 62 12 80c0 49 -39 72 -90 72c-47 0 -96 -25 -128 -60c-31 -27 -46 -67 -57 -108l-60 -286h-85z" />
    <glyph glyph-name="i" unicode="i" horiz-adv-x="222" 
d="M230 714l-22 -104h-86l22 104h86zM-5 0l108 517h85l-108 -517h-85z" />
    <glyph glyph-name="j" unicode="j" horiz-adv-x="222" 
d="M230 714l-22 -104h-86l22 104h86zM-120 -192l15 75c11 -3 22 -6 33 -6c37 0 46 24 62 97l113 543h85l-130 -614c-15 -64 -54 -101 -122 -101c-19 0 -37 1 -56 6z" />
    <glyph glyph-name="k" unicode="k" horiz-adv-x="481" 
d="M-5 0l151 714h84l-89 -420l2 -2l260 225h111l-225 -191l128 -326h-95l-101 275l-102 -91l-39 -184h-85z" />
    <glyph glyph-name="l" unicode="l" horiz-adv-x="222" 
d="M-5 0l150 714h85l-150 -714h-85z" />
    <glyph glyph-name="m" unicode="m" horiz-adv-x="852" 
d="M-5 0l110 517h79l-19 -77l2 -2c44 55 108 91 180 91c65 0 115 -25 130 -93c40 56 108 93 177 93c73 0 144 -32 144 -116c0 -31 -8 -74 -15 -103l-65 -310h-85l72 328c4 16 8 41 8 56c0 40 -34 70 -79 70c-48 0 -101 -34 -130 -71c-28 -31 -39 -72 -48 -116l-57 -267h-85
l62 295c9 40 16 79 16 91c0 43 -25 68 -72 68c-46 0 -97 -31 -127 -66c-36 -35 -44 -66 -55 -117l-58 -271h-85z" />
    <glyph glyph-name="n" unicode="n" 
d="M-5 0l109 517h82l-16 -78h2c43 59 112 90 184 90c97 0 144 -41 144 -133c0 -23 -6 -61 -15 -101l-63 -295h-85l66 302c3 20 12 62 12 80c0 49 -39 72 -90 72c-47 0 -96 -25 -128 -60c-31 -27 -46 -67 -57 -108l-60 -286h-85z" />
    <glyph glyph-name="o" unicode="o" horiz-adv-x="574" 
d="M17 204c0 169 108 325 289 325c139 0 215 -75 215 -214c0 -168 -105 -327 -286 -327c-136 0 -218 91 -218 216zM102 205c0 -85 49 -142 142 -142c124 0 192 144 192 245c0 81 -43 146 -136 146c-131 0 -198 -142 -198 -249z" />
    <glyph glyph-name="p" unicode="p" horiz-adv-x="593" 
d="M-49 -198l151 715h80l-18 -74h2c51 67 102 86 171 86c132 0 203 -87 203 -212c0 -156 -106 -329 -287 -329c-62 0 -142 22 -161 91h-2l-55 -277h-84zM455 317c0 84 -40 137 -133 137c-129 0 -202 -149 -202 -257c0 -77 46 -134 130 -134c135 0 205 139 205 254z" />
    <glyph glyph-name="q" unicode="q" horiz-adv-x="593" 
d="M561 517l-151 -715h-86l56 264h-2c-40 -49 -99 -78 -163 -78c-135 0 -198 96 -198 224c0 160 101 317 272 317c76 0 139 -23 167 -94h2l17 82h86zM102 212c0 -81 39 -149 132 -149c136 0 197 155 197 264c0 79 -49 127 -133 127c-125 0 -196 -135 -196 -242z" />
    <glyph glyph-name="r" unicode="r" horiz-adv-x="333" 
d="M-5 0l108 517h80l-25 -111h2c40 71 101 123 188 123c11 0 19 3 30 0l-20 -91c-4 1 -8 1 -13 1h-12c-21 0 -31 0 -51 -5c-47 -12 -83 -43 -110 -84c-23 -33 -35 -82 -43 -121l-49 -229h-85z" />
    <glyph glyph-name="s" unicode="s" horiz-adv-x="481" 
d="M440 365h-85c3 59 -47 89 -107 89c-52 0 -110 -14 -110 -66c0 -40 47 -59 97 -80l38 -16c75 -32 138 -63 138 -144c0 -115 -111 -160 -211 -160c-118 0 -209 43 -209 175h85c-5 -76 61 -100 132 -100c56 0 118 20 118 79c0 38 -35 56 -94 80l-51 21
c-70 29 -128 63 -128 137c0 96 96 149 192 149s195 -43 195 -164z" />
    <glyph glyph-name="t" unicode="t" horiz-adv-x="315" 
d="M253 670l-32 -153h103l-16 -75h-103l-64 -304c-1 -12 -3 -22 -3 -34c0 -27 24 -35 51 -35c17 0 33 4 49 9l-15 -78c-20 -4 -40 -6 -60 -6c-63 0 -116 18 -116 84c0 15 2 27 5 43l68 321h-87l16 75h87l32 153h85z" />
    <glyph glyph-name="u" unicode="u" 
d="M520 517l-109 -517h-82l16 78h-2c-43 -59 -112 -90 -184 -90c-97 0 -144 41 -144 133c0 23 6 61 15 101l63 295h85l-66 -302c-5 -19 -12 -62 -12 -80c0 -49 39 -72 90 -72c95 0 166 82 185 168l60 286h85z" />
    <glyph glyph-name="v" unicode="v" horiz-adv-x="481" 
d="M494 517l-287 -517h-91l-74 517h90l44 -430h2l224 430h92z" />
    <glyph glyph-name="w" unicode="w" horiz-adv-x="759" 
d="M762 517l-267 -517h-90l-26 402h-2l-185 -402h-90l-61 517h90l32 -411h2l186 411h96l25 -411h2l196 411h92z" />
    <glyph glyph-name="x" unicode="x" horiz-adv-x="481" 
d="M-66 0l242 274l-115 243h98l78 -188l154 188h103l-222 -250l132 -267h-97l-94 212l-176 -212h-103z" />
    <glyph glyph-name="y" unicode="y" horiz-adv-x="481" 
d="M505 517l-342 -605c-43 -67 -79 -122 -167 -122c-20 0 -43 5 -59 13l15 69c13 -8 34 -14 49 -14c39 0 60 23 80 56l52 86l-91 517h91l60 -411h2l217 411h93z" />
    <glyph glyph-name="z" unicode="z" horiz-adv-x="444" 
d="M-53 0l12 64l360 378h-278l15 75h393l-13 -61l-363 -381h309l-14 -75h-421z" />
    <glyph glyph-name="braceleft" unicode="{" horiz-adv-x="333" 
d="M395 731l-13 -60h-50c-38 0 -58 -44 -66 -88l-37 -181c-21 -93 -90 -128 -115 -134l-1 -3c19 -3 65 -25 65 -96c0 -12 -3 -23 -6 -38l-37 -181c-2 -11 -3 -23 -3 -34c0 -31 5 -54 33 -54h50l-13 -60h-70c-41 0 -85 31 -85 90c0 12 1 26 4 41l38 182c3 15 4 29 4 41
c0 47 -28 76 -63 76l15 68c43 0 91 46 107 118l38 182c16 85 85 131 135 131h70z" />
    <glyph glyph-name="bar" unicode="|" horiz-adv-x="222" 
d="M77 -214v1000h68v-1000h-68z" />
    <glyph glyph-name="braceright" unicode="}" horiz-adv-x="333" 
d="M-91 -198l13 60h50c38 0 58 44 66 88l37 181c19 93 92 129 115 134l1 3c-19 3 -65 25 -65 96c0 12 3 23 6 38l37 181c2 11 3 22 3 34c0 31 -5 54 -33 54h-50l13 60h70c41 0 85 -31 85 -90c0 -12 -1 -26 -4 -41l-38 -182c-3 -15 -4 -29 -4 -41c0 -48 28 -77 63 -77
l-15 -68c-43 0 -91 -48 -107 -117l-38 -182c-16 -85 -85 -131 -135 -131h-70z" />
    <glyph glyph-name="asciitilde" unicode="~" horiz-adv-x="600" 
d="M475 319l36 -50c-29 -43 -63 -86 -125 -86c-37 0 -69 14 -102 33c-32 19 -68 39 -115 39c-44 0 -68 -41 -84 -76l-36 50c21 43 59 86 125 86c35 0 72 -15 111 -32c37 -16 75 -40 102 -40c41 0 64 41 88 76z" />
    <glyph glyph-name="uni00A0" unicode="&#xa0;" horiz-adv-x="278" 
 />
    <glyph glyph-name="Agrave" unicode="&#xc0;" horiz-adv-x="667" 
d="M51 0h-106l430 714h104l129 -714h-98l-33 215h-301zM219 295h246l-53 335h-2zM423 922l67 -143h-67l-101 143h101z" />
    <glyph glyph-name="Aacute" unicode="&#xc1;" horiz-adv-x="667" 
d="M51 0h-106l430 714h104l129 -714h-98l-33 215h-301zM219 295h246l-53 335h-2zM387 779l93 143h113l-136 -143h-70z" />
    <glyph glyph-name="Acircumflex" unicode="&#xc2;" horiz-adv-x="667" 
d="M51 0h-106l430 714h104l129 -714h-98l-33 215h-301zM219 295h246l-53 335h-2zM287 779l133 143h86l75 -143h-74l-51 93l-87 -93h-82z" />
    <glyph glyph-name="Atilde" unicode="&#xc3;" horiz-adv-x="667" 
d="M51 0h-106l430 714h104l129 -714h-98l-33 215h-301zM219 295h246l-53 335h-2zM330 798h-52c16 47 41 109 99 109c27 0 52 -13 77 -25c25 -11 47 -24 64 -21c31 0 39 18 51 41h51c-16 -51 -41 -109 -102 -109l-141 46c-27 0 -39 -18 -47 -41z" />
    <glyph glyph-name="Adieresis" unicode="&#xc4;" horiz-adv-x="667" 
d="M51 0h-106l430 714h104l129 -714h-98l-33 215h-301zM219 295h246l-53 335h-2zM473 792l21 104h89l-21 -104h-89zM310 792l21 104h89l-21 -104h-89z" />
    <glyph glyph-name="Amacron" unicode="&#x100;" horiz-adv-x="667" 
d="M51 0h-106l430 714h104l129 -714h-98l-33 215h-301zM219 295h246l-53 335h-2zM306 817l12 55h269l-11 -55h-270z" />
    <glyph glyph-name="Abreve" unicode="&#x102;" horiz-adv-x="667" 
d="M51 0h-106l430 714h104l129 -714h-98l-33 215h-301zM219 295h246l-53 335h-2zM309 920h45c1 -61 34 -84 94 -84c65 0 98 24 117 84h45c-12 -89 -78 -139 -166 -139c-89 0 -138 47 -135 139z" />
    <glyph glyph-name="Aring" unicode="&#xc5;" horiz-adv-x="667" 
d="M51 0h-106l430 714h104l129 -714h-98l-33 215h-301zM219 295h246l-53 335h-2zM328 860c0 61 52 113 113 113s113 -52 113 -113s-52 -113 -113 -113s-113 52 -113 113zM373 860c0 -39 29 -68 68 -68s68 29 68 68s-29 68 -68 68s-68 -29 -68 -68z" />
    <glyph glyph-name="Aringacute" unicode="&#x1fa;" horiz-adv-x="667" 
d="M403 867l66 106h102l-104 -106h-64zM-55 0l416 685c-18 17 -29 40 -29 69c0 55 44 95 96 95c51 0 95 -39 95 -95c0 -33 -16 -60 -39 -77l124 -677h-98l-33 215h-301l-125 -215h-106zM373 754c0 -32 23 -55 54 -55c32 0 55 23 55 55s-23 55 -54 55c-32 0 -55 -23 -55 -55z
M410 630l-191 -335h246l-53 335h-2z" />
    <glyph glyph-name="Aogonek" unicode="&#x104;" horiz-adv-x="667" 
d="M510 0l-33 215h-301l-125 -215h-106l430 714h104l129 -714h-38c-79 -58 -109 -91 -109 -124c0 -22 15 -36 38 -36c22 0 43 11 66 30l28 -22c-30 -38 -66 -58 -115 -58c-47 0 -88 25 -88 75c0 49 46 87 120 135zM410 630l-191 -335h246l-53 335h-2z" />
    <glyph glyph-name="AE" unicode="&#xc6;" horiz-adv-x="926" 
d="M-79 0l520 714h524l-17 -80h-351l-47 -227h330l-18 -80h-329l-53 -247h357l-16 -80h-455l43 208h-230l-149 -208h-109zM480 634l-245 -346h192l75 346h-22z" />
    <glyph glyph-name="AEacute" unicode="&#x1fc;" horiz-adv-x="926" 
d="M-79 0l520 714h524l-17 -80h-351l-47 -227h330l-18 -80h-329l-53 -247h357l-16 -80h-455l43 208h-230l-149 -208h-109zM480 634l-245 -346h192l75 346h-22zM623 779l93 143h113l-136 -143h-70z" />
    <glyph glyph-name="Cacute" unicode="&#x106;" horiz-adv-x="722" 
d="M38 296c0 231 148 435 392 435c154 0 272 -82 272 -247h-95c0 112 -73 167 -177 167c-199 0 -297 -183 -297 -355c0 -139 68 -233 211 -233c117 0 190 66 221 178h95c-36 -160 -140 -258 -316 -258c-195 0 -306 116 -306 313zM402 779l93 143h113l-136 -143h-70z" />
    <glyph glyph-name="Ccircumflex" unicode="&#x108;" horiz-adv-x="722" 
d="M38 296c0 231 148 435 392 435c154 0 272 -82 272 -247h-95c0 112 -73 167 -177 167c-199 0 -297 -183 -297 -355c0 -139 68 -233 211 -233c117 0 190 66 221 178h95c-36 -160 -140 -258 -316 -258c-195 0 -306 116 -306 313zM292 779l133 143h86l75 -143h-74l-51 93
l-87 -93h-82z" />
    <glyph glyph-name="Ccaron" unicode="&#x10c;" horiz-adv-x="722" 
d="M38 296c0 231 148 435 392 435c154 0 272 -82 272 -247h-95c0 112 -73 167 -177 167c-199 0 -297 -183 -297 -355c0 -139 68 -233 211 -233c117 0 190 66 221 178h95c-36 -160 -140 -258 -316 -258c-195 0 -306 116 -306 313zM615 922l-135 -143h-86l-77 143h76l51 -93
l93 93h78z" />
    <glyph glyph-name="Cdotaccent" unicode="&#x10a;" horiz-adv-x="722" 
d="M38 296c0 231 148 435 392 435c154 0 272 -82 272 -247h-95c0 112 -73 167 -177 167c-199 0 -297 -183 -297 -355c0 -139 68 -233 211 -233c117 0 190 66 221 178h95c-36 -160 -140 -258 -316 -258c-195 0 -306 116 -306 313zM397 792l21 104h89l-21 -104h-89z" />
    <glyph glyph-name="Ccedilla" unicode="&#xc7;" horiz-adv-x="722" 
d="M183 -188l18 43c22 -9 47 -15 70 -15c34 0 54 11 54 31c0 19 -16 30 -45 30c-15 0 -31 -3 -43 -8l-19 30l57 66c-152 24 -237 134 -237 307c0 231 148 435 392 435c154 0 272 -82 272 -247h-95c0 112 -73 167 -177 167c-199 0 -297 -183 -297 -355
c0 -139 68 -233 211 -233c117 0 190 66 221 178h95c-36 -160 -140 -258 -316 -258l-26 1l-35 -38l1 -1c11 4 22 5 33 5c50 0 83 -28 83 -73c0 -55 -51 -87 -119 -87c-33 0 -65 6 -98 22z" />
    <glyph glyph-name="Dcaron" unicode="&#x10e;" horiz-adv-x="704" 
d="M7 0l151 714h250c177 0 270 -104 270 -273c0 -269 -161 -441 -397 -441h-274zM117 80h165c203 0 301 178 301 351c0 105 -39 203 -197 203h-152zM567 922l-135 -143h-86l-77 143h76l51 -93l93 93h78z" />
    <glyph glyph-name="Dcroat" unicode="&#x110;" horiz-adv-x="704" 
d="M7 0l72 341h-66l14 64h66l65 309h250c177 0 270 -104 270 -273c0 -269 -161 -441 -397 -441h-274zM234 634l-48 -229h200l-14 -64h-200l-55 -261h165c203 0 301 178 301 351c0 105 -39 203 -197 203h-152z" />
    <glyph glyph-name="Eth" unicode="&#xd0;" horiz-adv-x="704" 
d="M7 0l72 341h-66l14 64h66l65 309h250c177 0 270 -104 270 -273c0 -269 -161 -441 -397 -441h-274zM234 634l-48 -229h200l-14 -64h-200l-55 -261h165c203 0 301 178 301 351c0 105 -39 203 -197 203h-152z" />
    <glyph glyph-name="Egrave" unicode="&#xc8;" horiz-adv-x="611" 
d="M7 0l151 714h492l-16 -80h-397l-48 -227h370l-16 -80h-371l-52 -247h402l-18 -80h-497zM381 922l67 -143h-67l-101 143h101z" />
    <glyph glyph-name="Eacute" unicode="&#xc9;" horiz-adv-x="611" 
d="M7 0l151 714h492l-16 -80h-397l-48 -227h370l-16 -80h-371l-52 -247h402l-18 -80h-497zM365 779l93 143h113l-136 -143h-70z" />
    <glyph glyph-name="Ecircumflex" unicode="&#xca;" horiz-adv-x="611" 
d="M7 0l151 714h492l-16 -80h-397l-48 -227h370l-16 -80h-371l-52 -247h402l-18 -80h-497zM255 779l133 143h86l75 -143h-74l-51 93l-87 -93h-82z" />
    <glyph glyph-name="Ecaron" unicode="&#x11a;" horiz-adv-x="611" 
d="M7 0l151 714h492l-16 -80h-397l-48 -227h370l-16 -80h-371l-52 -247h402l-18 -80h-497zM578 922l-135 -143h-86l-77 143h76l51 -93l93 93h78z" />
    <glyph glyph-name="Edieresis" unicode="&#xcb;" horiz-adv-x="611" 
d="M7 0l151 714h492l-16 -80h-397l-48 -227h370l-16 -80h-371l-52 -247h402l-18 -80h-497zM441 792l21 104h89l-21 -104h-89zM278 792l21 104h89l-21 -104h-89z" />
    <glyph glyph-name="Emacron" unicode="&#x112;" horiz-adv-x="611" 
d="M7 0l151 714h492l-16 -80h-397l-48 -227h370l-16 -80h-371l-52 -247h402l-18 -80h-497zM274 817l12 55h269l-11 -55h-270z" />
    <glyph glyph-name="Ebreve" unicode="&#x114;" horiz-adv-x="611" 
d="M7 0l151 714h492l-16 -80h-397l-48 -227h370l-16 -80h-371l-52 -247h402l-18 -80h-497zM277 920h45c1 -61 34 -84 94 -84c65 0 98 24 117 84h45c-12 -89 -78 -139 -166 -139c-89 0 -138 47 -135 139z" />
    <glyph glyph-name="Edotaccent" unicode="&#x116;" horiz-adv-x="611" 
d="M7 0l151 714h492l-16 -80h-397l-48 -227h370l-16 -80h-371l-52 -247h402l-18 -80h-497zM360 792l21 104h89l-21 -104h-89z" />
    <glyph glyph-name="Eogonek" unicode="&#x118;" horiz-adv-x="611" 
d="M7 0l151 714h492l-16 -80h-397l-48 -227h370l-16 -80h-371l-52 -247h402l-18 -80h-61c-79 -58 -109 -91 -109 -124c0 -22 15 -36 38 -36c22 0 43 11 66 30l28 -22c-30 -38 -66 -58 -115 -58c-47 0 -88 25 -88 75c0 49 46 87 120 135h-376z" />
    <glyph glyph-name="Gcircumflex" unicode="&#x11c;" horiz-adv-x="759" 
d="M38 296c0 231 148 435 392 435c158 0 287 -74 287 -239h-95c0 109 -88 159 -192 159c-199 0 -297 -183 -297 -355c0 -139 68 -233 211 -233c152 0 223 94 258 233h-228l16 80h311l-78 -376h-60l-6 71c-55 -60 -136 -88 -213 -88c-195 0 -306 116 -306 313zM295 779
l133 143h86l75 -143h-74l-51 93l-87 -93h-82z" />
    <glyph glyph-name="Gbreve" unicode="&#x11e;" horiz-adv-x="759" 
d="M38 296c0 231 148 435 392 435c158 0 287 -74 287 -239h-95c0 109 -88 159 -192 159c-199 0 -297 -183 -297 -355c0 -139 68 -233 211 -233c152 0 223 94 258 233h-228l16 80h311l-78 -376h-60l-6 71c-55 -60 -136 -88 -213 -88c-195 0 -306 116 -306 313zM317 920h45
c1 -61 34 -84 94 -84c65 0 98 24 117 84h45c-12 -89 -78 -139 -166 -139c-89 0 -138 47 -135 139z" />
    <glyph glyph-name="Gdotaccent" unicode="&#x120;" horiz-adv-x="759" 
d="M38 296c0 231 148 435 392 435c158 0 287 -74 287 -239h-95c0 109 -88 159 -192 159c-199 0 -297 -183 -297 -355c0 -139 68 -233 211 -233c152 0 223 94 258 233h-228l16 80h311l-78 -376h-60l-6 71c-55 -60 -136 -88 -213 -88c-195 0 -306 116 -306 313zM400 792
l21 104h89l-21 -104h-89z" />
    <glyph glyph-name="Gcommaaccent" unicode="&#x122;" horiz-adv-x="759" 
d="M38 296c0 231 148 435 392 435c158 0 287 -74 287 -239h-95c0 109 -88 159 -192 159c-199 0 -297 -183 -297 -355c0 -139 68 -233 211 -233c152 0 223 94 258 233h-228l16 80h311l-78 -376h-60l-6 71c-55 -60 -136 -88 -213 -88c-195 0 -306 116 -306 313zM253 -138
l19 88h111c-9 -51 -15 -82 -18 -91c-3 -10 -7 -20 -13 -29c-12 -20 -36 -39 -101 -40l8 35c26 6 38 12 46 37h-52z" />
    <glyph glyph-name="Hcircumflex" unicode="&#x124;" horiz-adv-x="722" 
d="M7 0l150 714h96l-65 -307h374l64 307h95l-150 -714h-95l69 327h-374l-69 -327h-95zM294 779l133 143h86l75 -143h-74l-51 93l-87 -93h-82z" />
    <glyph glyph-name="Hbar" unicode="&#x126;" horiz-adv-x="722" 
d="M476 0l64 306h-374l-64 -306h-95l150 714h95l-30 -144h374l30 144h95l-150 -714h-95zM211 512l-28 -128h375l26 128h-373z" />
    <glyph glyph-name="Igrave" unicode="&#xcc;" horiz-adv-x="259" 
d="M7 0l150 714h95l-150 -714h-95zM203 922l67 -143h-67l-101 143h101z" />
    <glyph glyph-name="Iacute" unicode="&#xcd;" horiz-adv-x="259" 
d="M7 0l150 714h95l-150 -714h-95zM167 779l93 143h113l-136 -143h-70z" />
    <glyph glyph-name="Ibreve" unicode="&#x12c;" horiz-adv-x="259" 
d="M7 0l150 714h95l-150 -714h-95zM89 920h45c1 -61 34 -84 94 -84c65 0 98 24 117 84h45c-12 -89 -78 -139 -166 -139c-89 0 -138 47 -135 139z" />
    <glyph glyph-name="Icircumflex" unicode="&#xce;" horiz-adv-x="259" 
d="M7 0l150 714h95l-150 -714h-95zM67 779l133 143h86l75 -143h-74l-51 93l-87 -93h-82z" />
    <glyph glyph-name="Itilde" unicode="&#x128;" horiz-adv-x="259" 
d="M7 0l150 714h95l-150 -714h-95zM110 798h-52c16 47 41 109 99 109c27 0 52 -13 77 -25c25 -11 47 -24 64 -21c31 0 39 18 51 41h51c-16 -51 -41 -109 -102 -109l-141 46c-27 0 -39 -18 -47 -41z" />
    <glyph glyph-name="Idieresis" unicode="&#xcf;" horiz-adv-x="259" 
d="M7 0l150 714h95l-150 -714h-95zM253 792l21 104h89l-21 -104h-89zM90 792l21 104h89l-21 -104h-89z" />
    <glyph glyph-name="Imacron" unicode="&#x12a;" horiz-adv-x="259" 
d="M7 0l150 714h95l-150 -714h-95zM86 817l12 55h269l-11 -55h-270z" />
    <glyph glyph-name="Idotaccent" unicode="&#x130;" horiz-adv-x="259" 
d="M7 0l150 714h95l-150 -714h-95zM174 792l21 104h89l-21 -104h-89z" />
    <glyph glyph-name="Iogonek" unicode="&#x12e;" horiz-adv-x="259" 
d="M7 0l150 714h95l-150 -714c-75 -58 -103 -91 -103 -124c0 -22 15 -36 35 -36c19 0 40 10 61 29l28 -22c-29 -38 -64 -57 -110 -57c-43 0 -83 25 -83 75c0 49 42 87 112 135h-35z" />
    <glyph glyph-name="Jcircumflex" unicode="&#x134;" horiz-adv-x="519" 
d="M-9 135c0 24 2 60 9 99h96c-5 -24 -9 -49 -10 -74c0 -68 40 -97 105 -97c96 0 120 85 136 162l104 489h94l-113 -538c-27 -123 -80 -193 -223 -193c-115 0 -198 53 -198 152zM333 779l133 143h86l75 -143h-74l-51 93l-87 -93h-82z" />
    <glyph glyph-name="Kcommaaccent" unicode="&#x136;" horiz-adv-x="667" 
d="M7 0l151 714h95l-75 -352l2 -2l404 354h127l-344 -294l229 -420h-105l-195 362l-143 -121l-51 -241h-95zM206 -138l19 88h111c-9 -51 -15 -82 -18 -91c-3 -10 -7 -20 -13 -29c-12 -20 -36 -39 -101 -40l8 35c26 6 38 12 46 37h-52z" />
    <glyph glyph-name="Lacute" unicode="&#x139;" 
d="M7 0l150 714h95l-132 -634h377l-17 -80h-473zM180 779l93 143h113l-136 -143h-70z" />
    <glyph glyph-name="Lcaron" unicode="&#x13d;" 
d="M7 0l150 714h95l-132 -634h377l-17 -80h-473zM321 571l53 143h113l-100 -143h-66z" />
    <glyph glyph-name="Lcommaaccent" unicode="&#x13b;" 
d="M7 0l150 714h95l-132 -634h377l-17 -80h-473zM161 -138l19 88h111c-9 -51 -15 -82 -18 -91c-3 -10 -7 -20 -13 -29c-12 -20 -36 -39 -101 -40l8 35c26 6 38 12 46 37h-52z" />
    <glyph glyph-name="Lslash" unicode="&#x141;" 
d="M7 0l50 235l-78 -48l17 82l78 48l83 397h95l-69 -330l221 136l-17 -83l-221 -135l-46 -222h377l-17 -80h-473z" />
    <glyph glyph-name="Ldot" unicode="&#x13f;" 
d="M7 0l150 714h95l-132 -634h377l-17 -80h-473zM314 337l21 104h89l-21 -104h-89z" />
    <glyph glyph-name="Nacute" unicode="&#x143;" horiz-adv-x="722" 
d="M7 0l151 714h102l255 -591h2l119 591h92l-151 -714h-102l-253 587h-2l-121 -587h-92zM409 779l93 143h113l-136 -143h-70z" />
    <glyph glyph-name="Ncaron" unicode="&#x147;" horiz-adv-x="722" 
d="M7 0l151 714h102l255 -591h2l119 591h92l-151 -714h-102l-253 587h-2l-121 -587h-92zM622 922l-135 -143h-86l-77 143h76l51 -93l93 93h78z" />
    <glyph glyph-name="Ntilde" unicode="&#xd1;" horiz-adv-x="722" 
d="M7 0l151 714h102l255 -591h2l119 591h92l-151 -714h-102l-253 587h-2l-121 -587h-92zM342 798h-52c16 47 41 109 99 109c27 0 52 -13 77 -25c25 -11 47 -24 64 -21c31 0 39 18 51 41h51c-16 -51 -41 -109 -102 -109l-141 46c-27 0 -39 -18 -47 -41z" />
    <glyph glyph-name="Ncommaaccent" unicode="&#x145;" horiz-adv-x="722" 
d="M7 0l151 714h102l255 -591h2l119 591h92l-151 -714h-102l-253 587h-2l-121 -587h-92zM216 -138l19 88h111c-9 -51 -15 -82 -18 -91c-3 -10 -7 -20 -13 -29c-12 -20 -36 -39 -101 -40l8 35c26 6 38 12 46 37h-52z" />
    <glyph glyph-name="Ograve" unicode="&#xd2;" horiz-adv-x="759" 
d="M38 296c0 231 148 435 392 435c185 0 298 -139 298 -316c0 -224 -146 -432 -384 -432c-195 0 -306 116 -306 313zM133 296c0 -139 68 -233 211 -233c189 0 289 181 289 352c0 132 -71 236 -203 236c-199 0 -297 -183 -297 -355zM430 922l67 -143h-67l-101 143h101z" />
    <glyph glyph-name="Oacute" unicode="&#xd3;" horiz-adv-x="759" 
d="M38 296c0 231 148 435 392 435c185 0 298 -139 298 -316c0 -224 -146 -432 -384 -432c-195 0 -306 116 -306 313zM133 296c0 -139 68 -233 211 -233c189 0 289 181 289 352c0 132 -71 236 -203 236c-199 0 -297 -183 -297 -355zM414 779l93 143h113l-136 -143h-70z" />
    <glyph glyph-name="Ocircumflex" unicode="&#xd4;" horiz-adv-x="759" 
d="M38 296c0 231 148 435 392 435c185 0 298 -139 298 -316c0 -224 -146 -432 -384 -432c-195 0 -306 116 -306 313zM133 296c0 -139 68 -233 211 -233c189 0 289 181 289 352c0 132 -71 236 -203 236c-199 0 -297 -183 -297 -355zM304 779l133 143h86l75 -143h-74l-51 93
l-87 -93h-82z" />
    <glyph glyph-name="Otilde" unicode="&#xd5;" horiz-adv-x="759" 
d="M38 296c0 231 148 435 392 435c185 0 298 -139 298 -316c0 -224 -146 -432 -384 -432c-195 0 -306 116 -306 313zM133 296c0 -139 68 -233 211 -233c189 0 289 181 289 352c0 132 -71 236 -203 236c-199 0 -297 -183 -297 -355zM347 798h-52c16 47 41 109 99 109
c27 0 52 -13 77 -25c25 -11 47 -24 64 -21c31 0 39 18 51 41h51c-16 -51 -41 -109 -102 -109l-141 46c-27 0 -39 -18 -47 -41z" />
    <glyph glyph-name="Odieresis" unicode="&#xd6;" horiz-adv-x="759" 
d="M38 296c0 231 148 435 392 435c185 0 298 -139 298 -316c0 -224 -146 -432 -384 -432c-195 0 -306 116 -306 313zM133 296c0 -139 68 -233 211 -233c189 0 289 181 289 352c0 132 -71 236 -203 236c-199 0 -297 -183 -297 -355zM490 792l21 104h89l-21 -104h-89zM327 792
l21 104h89l-21 -104h-89z" />
    <glyph glyph-name="Omacron" unicode="&#x14c;" horiz-adv-x="759" 
d="M38 296c0 231 148 435 392 435c185 0 298 -139 298 -316c0 -224 -146 -432 -384 -432c-195 0 -306 116 -306 313zM133 296c0 -139 68 -233 211 -233c189 0 289 181 289 352c0 132 -71 236 -203 236c-199 0 -297 -183 -297 -355zM323 817l12 55h269l-11 -55h-270z" />
    <glyph glyph-name="Obreve" unicode="&#x14e;" horiz-adv-x="759" 
d="M38 296c0 231 148 435 392 435c185 0 298 -139 298 -316c0 -224 -146 -432 -384 -432c-195 0 -306 116 -306 313zM133 296c0 -139 68 -233 211 -233c189 0 289 181 289 352c0 132 -71 236 -203 236c-199 0 -297 -183 -297 -355zM326 920h45c1 -61 34 -84 94 -84
c65 0 98 24 117 84h45c-12 -89 -78 -139 -166 -139c-89 0 -138 47 -135 139z" />
    <glyph glyph-name="Ohungarumlaut" unicode="&#x150;" horiz-adv-x="759" 
d="M38 296c0 231 148 435 392 435c185 0 298 -139 298 -316c0 -224 -146 -432 -384 -432c-195 0 -306 116 -306 313zM133 296c0 -139 68 -233 211 -233c189 0 289 181 289 352c0 132 -71 236 -203 236c-199 0 -297 -183 -297 -355zM495 779l93 143h113l-136 -143h-70z
M329 779l93 143h113l-136 -143h-70z" />
    <glyph glyph-name="Oslash" unicode="&#xd8;" horiz-adv-x="759" 
d="M-12 10l100 96c-32 49 -50 114 -50 190c0 231 148 435 392 435c93 0 166 -35 217 -91l98 93l29 -32l-100 -95c35 -53 54 -119 54 -191c0 -224 -146 -432 -384 -432c-100 0 -177 32 -229 88h-3l-95 -93zM158 173l425 406c-35 45 -85 72 -153 72
c-199 0 -297 -183 -297 -355c0 -47 8 -88 25 -123zM606 541l-425 -406c35 -45 87 -72 163 -72c189 0 289 181 289 352c0 48 -9 90 -27 126z" />
    <glyph glyph-name="Oslashacute" unicode="&#x1fe;" horiz-adv-x="759" 
d="M414 779l93 143h113l-136 -143h-70zM-12 10l100 96c-32 49 -50 114 -50 190c0 231 148 435 392 435c93 0 166 -35 217 -91l98 93l29 -32l-100 -95c35 -53 54 -119 54 -191c0 -224 -146 -432 -384 -432c-100 0 -177 32 -229 88h-3l-95 -93zM158 173l425 406
c-35 45 -85 72 -153 72c-199 0 -297 -183 -297 -355c0 -47 8 -88 25 -123zM606 541l-425 -406c35 -45 87 -72 163 -72c189 0 289 181 289 352c0 48 -9 90 -27 126z" />
    <glyph glyph-name="OE" unicode="&#x152;" horiz-adv-x="1074" 
d="M1106 714l-16 -80h-379l-48 -227h347l-16 -80h-347l-52 -247h384l-16 -80h-475l13 57h-2c-40 -51 -111 -74 -176 -74c-187 0 -281 141 -281 317c0 212 144 431 376 431c78 0 163 -28 206 -97l16 80h466zM538 257l56 277c11 59 -93 117 -167 117
c-192 0 -290 -187 -290 -359c0 -116 62 -229 191 -229c55 0 110 19 150 58s49 83 60 136z" />
    <glyph glyph-name="Racute" unicode="&#x154;" horiz-adv-x="685" 
d="M7 0l151 714h275c121 0 235 -41 235 -182c0 -95 -66 -179 -161 -192v-2c61 -19 81 -83 73 -155c-5 -64 -28 -127 1 -183h-99c-9 27 -13 80 2 153c22 128 -26 149 -69 152h-38h-211l-64 -305h-95zM236 634l-53 -249h214c149 0 176 90 176 141c0 88 -69 108 -140 108h-197z
M349 779l93 143h113l-136 -143h-70z" />
    <glyph glyph-name="Rcaron" unicode="&#x158;" horiz-adv-x="685" 
d="M7 0l151 714h275c121 0 235 -41 235 -182c0 -95 -66 -179 -161 -192v-2c61 -19 81 -83 73 -155c-5 -64 -28 -127 1 -183h-99c-9 27 -13 80 2 153c22 128 -26 149 -69 152h-38h-211l-64 -305h-95zM236 634l-53 -249h214c149 0 176 90 176 141c0 88 -69 108 -140 108h-197z
M572 922l-135 -143h-86l-77 143h76l51 -93l93 93h78z" />
    <glyph glyph-name="Rcommaaccent" unicode="&#x156;" horiz-adv-x="685" 
d="M7 0l151 714h275c121 0 235 -41 235 -182c0 -95 -66 -179 -161 -192v-2c61 -19 81 -83 73 -155c-5 -64 -28 -127 1 -183h-99c-9 27 -13 80 2 153c22 128 -26 149 -69 152h-38h-211l-64 -305h-95zM236 634l-53 -249h214c149 0 176 90 176 141c0 88 -69 108 -140 108h-197z
M204 -138l19 88h111c-9 -51 -15 -82 -18 -91c-3 -10 -7 -20 -13 -29c-12 -20 -36 -39 -101 -40l8 35c26 6 38 12 46 37h-52z" />
    <glyph glyph-name="Sacute" unicode="&#x15a;" horiz-adv-x="648" 
d="M614 503h-95c3 113 -65 148 -164 148c-69 0 -165 -33 -165 -117c0 -69 51 -96 116 -115l96 -26c88 -24 172 -65 172 -193c0 -148 -150 -217 -278 -217c-172 0 -294 76 -281 251h95c-5 -129 74 -171 190 -171c89 0 179 41 179 137c0 73 -58 99 -127 118l-97 26
c-85 24 -160 74 -160 180c0 138 133 207 260 207c140 0 264 -69 259 -228zM346 779l93 143h113l-136 -143h-70z" />
    <glyph glyph-name="Scircumflex" unicode="&#x15c;" horiz-adv-x="648" 
d="M614 503h-95c3 113 -65 148 -164 148c-69 0 -165 -33 -165 -117c0 -69 51 -96 116 -115l96 -26c88 -24 172 -65 172 -193c0 -148 -150 -217 -278 -217c-172 0 -294 76 -281 251h95c-5 -129 74 -171 190 -171c89 0 179 41 179 137c0 73 -58 99 -127 118l-97 26
c-85 24 -160 74 -160 180c0 138 133 207 260 207c140 0 264 -69 259 -228zM236 779l133 143h86l75 -143h-74l-51 93l-87 -93h-82z" />
    <glyph glyph-name="Scaron" unicode="&#x160;" horiz-adv-x="648" 
d="M614 503h-95c3 113 -65 148 -164 148c-69 0 -165 -33 -165 -117c0 -69 51 -96 116 -115l96 -26c88 -24 172 -65 172 -193c0 -148 -150 -217 -278 -217c-172 0 -294 76 -281 251h95c-5 -129 74 -171 190 -171c89 0 179 41 179 137c0 73 -58 99 -127 118l-97 26
c-85 24 -160 74 -160 180c0 138 133 207 260 207c140 0 264 -69 259 -228zM559 922l-135 -143h-86l-77 143h76l51 -93l93 93h78z" />
    <glyph glyph-name="Scedilla" unicode="&#x15e;" horiz-adv-x="648" 
d="M142 -188l18 43c22 -9 47 -15 70 -15c34 0 54 11 54 31c0 19 -16 30 -45 30c-15 0 -31 -3 -43 -8l-19 30l56 64c-138 16 -230 94 -218 247h95c-5 -129 74 -171 190 -171c89 0 179 41 179 137c0 73 -58 99 -127 118l-97 26c-85 23 -160 74 -160 180c0 138 133 207 260 207
c140 0 264 -69 259 -228h-95c3 113 -65 148 -164 148c-69 0 -165 -33 -165 -117c0 -69 51 -97 116 -115l96 -26c88 -24 172 -65 172 -193c0 -148 -150 -217 -278 -217h-19l-35 -37l1 -1c11 4 22 5 33 5c50 0 83 -28 83 -73c0 -55 -51 -87 -119 -87c-33 0 -65 6 -98 22z" />
    <glyph glyph-name="Scommaaccent" unicode="&#x218;" horiz-adv-x="648" 
d="M614 503h-95c3 113 -65 148 -164 148c-69 0 -165 -33 -165 -117c0 -69 51 -96 116 -115l96 -26c88 -24 172 -65 172 -193c0 -148 -150 -217 -278 -217c-172 0 -294 76 -281 251h95c-5 -129 74 -171 190 -171c89 0 179 41 179 137c0 73 -58 99 -127 118l-97 26
c-85 24 -160 74 -160 180c0 138 133 207 260 207c140 0 264 -69 259 -228zM195 -138l19 88h111c-9 -51 -15 -82 -18 -91c-3 -10 -7 -20 -13 -29c-12 -20 -36 -39 -101 -40l8 35c26 6 38 12 46 37h-52z" />
    <glyph glyph-name="Tcaron" unicode="&#x164;" horiz-adv-x="574" 
d="M653 714l-18 -80h-240l-134 -634h-95l134 634h-240l17 80h576zM550 922l-135 -143h-86l-77 143h76l51 -93l93 93h78z" />
    <glyph glyph-name="Tcommaaccent" unicode="&#x162;" horiz-adv-x="574" 
d="M653 714l-18 -80h-240l-134 -634h-95l134 634h-240l17 80h576zM131 -138l19 88h111c-9 -51 -15 -82 -18 -91c-3 -10 -7 -20 -13 -29c-12 -20 -36 -39 -101 -40l8 35c26 6 38 12 46 37h-52z" />
    <glyph glyph-name="uni021A" unicode="&#x21a;" horiz-adv-x="574" 
d="M653 714l-18 -80h-240l-134 -634h-95l134 634h-240l17 80h576zM131 -138l19 88h111c-9 -51 -15 -82 -18 -91c-3 -10 -7 -20 -13 -29c-12 -20 -36 -39 -101 -40l8 35c26 6 38 12 46 37h-52z" />
    <glyph glyph-name="Tbar" unicode="&#x166;" horiz-adv-x="574" 
d="M101 426l13 61h155l31 147h-240l17 80h576l-18 -80h-240l-31 -147h158l-12 -61h-159l-90 -426h-95l90 426h-155z" />
    <glyph glyph-name="Thorn" unicode="&#xde;" horiz-adv-x="648" 
d="M7 0l149 714h95l-23 -114h184c137 0 212 -66 212 -197c0 -89 -62 -225 -273 -225h-212l-37 -178h-95zM211 520l-55 -262h215c103 0 158 60 158 145c0 88 -54 117 -117 117h-201z" />
    <glyph glyph-name="Ugrave" unicode="&#xd9;" horiz-adv-x="722" 
d="M728 714l-89 -428c-12 -56 -24 -109 -36 -137c-48 -117 -157 -166 -278 -166c-211 0 -300 111 -259 311l89 420h95l-94 -444c-32 -139 30 -207 169 -207c157 0 188 89 218 223l90 428h95zM420 922l67 -143h-67l-101 143h101z" />
    <glyph glyph-name="Uacute" unicode="&#xda;" horiz-adv-x="722" 
d="M728 714l-89 -428c-12 -56 -24 -109 -36 -137c-48 -117 -157 -166 -278 -166c-211 0 -300 111 -259 311l89 420h95l-94 -444c-32 -139 30 -207 169 -207c157 0 188 89 218 223l90 428h95zM404 779l93 143h113l-136 -143h-70z" />
    <glyph glyph-name="Ucircumflex" unicode="&#xdb;" horiz-adv-x="722" 
d="M728 714l-89 -428c-12 -56 -24 -109 -36 -137c-48 -117 -157 -166 -278 -166c-211 0 -300 111 -259 311l89 420h95l-94 -444c-32 -139 30 -207 169 -207c157 0 188 89 218 223l90 428h95zM294 779l133 143h86l75 -143h-74l-51 93l-87 -93h-82z" />
    <glyph glyph-name="Utilde" unicode="&#x168;" horiz-adv-x="722" 
d="M728 714l-89 -428c-12 -56 -24 -109 -36 -137c-48 -117 -157 -166 -278 -166c-211 0 -300 111 -259 311l89 420h95l-94 -444c-32 -139 30 -207 169 -207c157 0 188 89 218 223l90 428h95zM337 798h-52c16 47 41 109 99 109c27 0 52 -13 77 -25c25 -11 47 -24 64 -21
c31 0 39 18 51 41h51c-16 -51 -41 -109 -102 -109l-141 46c-27 0 -39 -18 -47 -41z" />
    <glyph glyph-name="Udieresis" unicode="&#xdc;" horiz-adv-x="722" 
d="M728 714l-89 -428c-12 -56 -24 -109 -36 -137c-48 -117 -157 -166 -278 -166c-211 0 -300 111 -259 311l89 420h95l-94 -444c-32 -139 30 -207 169 -207c157 0 188 89 218 223l90 428h95zM480 792l21 104h89l-21 -104h-89zM317 792l21 104h89l-21 -104h-89z" />
    <glyph glyph-name="Umacron" unicode="&#x16a;" horiz-adv-x="722" 
d="M728 714l-89 -428c-12 -56 -24 -109 -36 -137c-48 -117 -157 -166 -278 -166c-211 0 -300 111 -259 311l89 420h95l-94 -444c-32 -139 30 -207 169 -207c157 0 188 89 218 223l90 428h95zM313 817l12 55h269l-11 -55h-270z" />
    <glyph glyph-name="Ubreve" unicode="&#x16c;" horiz-adv-x="722" 
d="M728 714l-89 -428c-12 -56 -24 -109 -36 -137c-48 -117 -157 -166 -278 -166c-211 0 -300 111 -259 311l89 420h95l-94 -444c-32 -139 30 -207 169 -207c157 0 188 89 218 223l90 428h95zM316 920h45c1 -61 34 -84 94 -84c65 0 98 24 117 84h45
c-12 -89 -78 -139 -166 -139c-89 0 -138 47 -135 139z" />
    <glyph glyph-name="Uring" unicode="&#x16e;" horiz-adv-x="722" 
d="M728 714l-89 -428c-12 -56 -24 -109 -36 -137c-48 -117 -157 -166 -278 -166c-211 0 -300 111 -259 311l89 420h95l-94 -444c-32 -139 30 -207 169 -207c157 0 188 89 218 223l90 428h95zM337 860c0 61 52 113 113 113s113 -52 113 -113s-52 -113 -113 -113
s-113 52 -113 113zM382 860c0 -39 29 -68 68 -68s68 29 68 68s-29 68 -68 68s-68 -29 -68 -68z" />
    <glyph glyph-name="Uhungarumlaut" unicode="&#x170;" horiz-adv-x="722" 
d="M728 714l-89 -428c-12 -56 -24 -109 -36 -137c-48 -117 -157 -166 -278 -166c-211 0 -300 111 -259 311l89 420h95l-94 -444c-32 -139 30 -207 169 -207c157 0 188 89 218 223l90 428h95zM485 779l93 143h113l-136 -143h-70zM319 779l93 143h113l-136 -143h-70z" />
    <glyph glyph-name="Uogonek" unicode="&#x172;" horiz-adv-x="722" 
d="M728 714l-89 -428c-12 -56 -24 -109 -36 -137c-48 -117 -157 -166 -281 -166c-62 -47 -86 -77 -86 -107c0 -22 15 -36 38 -36c22 0 43 11 66 30l28 -22c-30 -38 -66 -58 -115 -58c-47 0 -88 25 -88 75c0 45 37 80 99 122c-137 16 -208 91 -208 217c0 27 3 58 10 90
l89 420h95l-94 -444c-5 -24 -8 -46 -8 -65c0 -96 61 -142 177 -142c157 0 190 89 218 223l90 428h95z" />
    <glyph glyph-name="Wacute" unicode="&#x1e82;" horiz-adv-x="926" 
d="M983 714l-328 -714h-99l-45 616h-2l-282 -616h-102l-45 714h94l25 -601h2l274 601h108l40 -603h2l260 603h98zM489 779l93 143h113l-136 -143h-70z" />
    <glyph glyph-name="Wcircumflex" unicode="&#x174;" horiz-adv-x="926" 
d="M983 714l-328 -714h-99l-45 616h-2l-282 -616h-102l-45 714h94l25 -601h2l274 601h108l40 -603h2l260 603h98zM389 779l133 143h86l75 -143h-74l-51 93l-87 -93h-82z" />
    <glyph glyph-name="Wdieresis" unicode="&#x1e84;" horiz-adv-x="926" 
d="M983 714l-328 -714h-99l-45 616h-2l-282 -616h-102l-45 714h94l25 -601h2l274 601h108l40 -603h2l260 603h98zM575 792l21 104h89l-21 -104h-89zM412 792l21 104h89l-21 -104h-89z" />
    <glyph glyph-name="Wgrave" unicode="&#x1e80;" horiz-adv-x="926" 
d="M983 714l-328 -714h-99l-45 616h-2l-282 -616h-102l-45 714h94l25 -601h2l274 601h108l40 -603h2l260 603h98zM525 922l67 -143h-67l-101 143h101z" />
    <glyph glyph-name="Yacute" unicode="&#xdd;" horiz-adv-x="611" 
d="M193 0l61 287l-188 427h101l146 -346l271 346h110l-346 -427l-62 -287h-93zM346 779l93 143h113l-136 -143h-70z" />
    <glyph glyph-name="Ycircumflex" unicode="&#x176;" horiz-adv-x="611" 
d="M193 0l61 287l-188 427h101l146 -346l271 346h110l-346 -427l-62 -287h-93zM236 779l133 143h86l75 -143h-74l-51 93l-87 -93h-82z" />
    <glyph glyph-name="Ydieresis" unicode="&#x178;" horiz-adv-x="611" 
d="M193 0l61 287l-188 427h101l146 -346l271 346h110l-346 -427l-62 -287h-93zM422 792l21 104h89l-21 -104h-89zM259 792l21 104h89l-21 -104h-89z" />
    <glyph glyph-name="Ygrave" unicode="&#x1ef2;" horiz-adv-x="611" 
d="M193 0l61 287l-188 427h101l146 -346l271 346h110l-346 -427l-62 -287h-93zM362 922l67 -143h-67l-101 143h101z" />
    <glyph glyph-name="Zacute" unicode="&#x179;" horiz-adv-x="611" 
d="M-38 0l17 79l536 555h-409l20 80h521l-17 -81l-540 -553h456l-17 -80h-567zM341 779l93 143h113l-136 -143h-70z" />
    <glyph glyph-name="Zcaron" unicode="&#x17d;" horiz-adv-x="611" 
d="M-38 0l17 79l536 555h-409l20 80h521l-17 -81l-540 -553h456l-17 -80h-567zM554 922l-135 -143h-86l-77 143h76l51 -93l93 93h78z" />
    <glyph glyph-name="Zdotaccent" unicode="&#x17b;" horiz-adv-x="611" 
d="M-38 0l17 79l536 555h-409l20 80h521l-17 -81l-540 -553h456l-17 -80h-567zM336 792l21 104h89l-21 -104h-89z" />
    <glyph glyph-name="agrave" unicode="&#xe0;" horiz-adv-x="519" 
d="M138 361h-85c16 115 115 168 224 168c100 0 189 -28 189 -132c0 -29 -9 -66 -16 -94l-33 -141c-5 -21 -14 -53 -14 -74c0 -24 10 -32 25 -32c8 0 19 4 27 7l-13 -63c-13 -7 -37 -12 -52 -12c-47 0 -72 28 -67 73l-2 2c-36 -48 -85 -75 -173 -75c-86 0 -158 40 -158 146
c0 146 138 159 261 170c91 8 130 13 130 82c0 55 -59 68 -104 68c-65 0 -128 -26 -139 -93zM75 135c0 -48 45 -72 93 -72c55 0 96 16 124 43c39 38 49 78 66 158h-2c-31 -19 -67 -23 -115 -28c-105 -10 -166 -30 -166 -101zM276 732l67 -143h-67l-101 143h101z" />
    <glyph glyph-name="aacute" unicode="&#xe1;" horiz-adv-x="519" 
d="M138 361h-85c16 115 115 168 224 168c100 0 189 -28 189 -132c0 -29 -9 -66 -16 -94l-33 -141c-5 -21 -14 -53 -14 -74c0 -24 10 -32 25 -32c8 0 19 4 27 7l-13 -63c-13 -7 -37 -12 -52 -12c-47 0 -72 28 -67 73l-2 2c-36 -48 -85 -75 -173 -75c-86 0 -158 40 -158 146
c0 146 138 159 261 170c91 8 130 13 130 82c0 55 -59 68 -104 68c-65 0 -128 -26 -139 -93zM75 135c0 -48 45 -72 93 -72c55 0 96 16 124 43c39 38 49 78 66 158h-2c-31 -19 -67 -23 -115 -28c-105 -10 -166 -30 -166 -101zM260 589l93 143h113l-136 -143h-70z" />
    <glyph glyph-name="acircumflex" unicode="&#xe2;" horiz-adv-x="519" 
d="M138 361h-85c16 115 115 168 224 168c100 0 189 -28 189 -132c0 -29 -9 -66 -16 -94l-33 -141c-5 -21 -14 -53 -14 -74c0 -24 10 -32 25 -32c8 0 19 4 27 7l-13 -63c-13 -7 -37 -12 -52 -12c-47 0 -72 28 -67 73l-2 2c-36 -48 -85 -75 -173 -75c-86 0 -158 40 -158 146
c0 146 138 159 261 170c91 8 130 13 130 82c0 55 -59 68 -104 68c-65 0 -128 -26 -139 -93zM75 135c0 -48 45 -72 93 -72c55 0 96 16 124 43c39 38 49 78 66 158h-2c-31 -19 -67 -23 -115 -28c-105 -10 -166 -30 -166 -101zM150 589l133 143h86l75 -143h-74l-51 93l-87 -93
h-82z" />
    <glyph glyph-name="atilde" unicode="&#xe3;" horiz-adv-x="519" 
d="M138 361h-85c16 115 115 168 224 168c100 0 189 -28 189 -132c0 -29 -9 -66 -16 -94l-33 -141c-5 -21 -14 -53 -14 -74c0 -24 10 -32 25 -32c8 0 19 4 27 7l-13 -63c-13 -7 -37 -12 -52 -12c-47 0 -72 28 -67 73l-2 2c-36 -48 -85 -75 -173 -75c-86 0 -158 40 -158 146
c0 146 138 159 261 170c91 8 130 13 130 82c0 55 -59 68 -104 68c-65 0 -128 -26 -139 -93zM75 135c0 -48 45 -72 93 -72c55 0 96 16 124 43c39 38 49 78 66 158h-2c-31 -19 -67 -23 -115 -28c-105 -10 -166 -30 -166 -101zM193 608h-52c16 47 41 109 99 109
c27 0 52 -13 77 -25c25 -11 47 -24 64 -21c31 0 39 18 51 41h51c-16 -51 -41 -109 -102 -109l-141 46c-27 0 -39 -18 -47 -41z" />
    <glyph glyph-name="adieresis" unicode="&#xe4;" horiz-adv-x="519" 
d="M138 361h-85c16 115 115 168 224 168c100 0 189 -28 189 -132c0 -29 -9 -66 -16 -94l-33 -141c-5 -21 -14 -53 -14 -74c0 -24 10 -32 25 -32c8 0 19 4 27 7l-13 -63c-13 -7 -37 -12 -52 -12c-47 0 -72 28 -67 73l-2 2c-36 -48 -85 -75 -173 -75c-86 0 -158 40 -158 146
c0 146 138 159 261 170c91 8 130 13 130 82c0 55 -59 68 -104 68c-65 0 -128 -26 -139 -93zM75 135c0 -48 45 -72 93 -72c55 0 96 16 124 43c39 38 49 78 66 158h-2c-31 -19 -67 -23 -115 -28c-105 -10 -166 -30 -166 -101zM336 602l21 104h89l-21 -104h-89zM173 602l21 104
h89l-21 -104h-89z" />
    <glyph glyph-name="amacron" unicode="&#x101;" horiz-adv-x="519" 
d="M138 361h-85c16 115 115 168 224 168c100 0 189 -28 189 -132c0 -29 -9 -66 -16 -94l-33 -141c-5 -21 -14 -53 -14 -74c0 -24 10 -32 25 -32c8 0 19 4 27 7l-13 -63c-13 -7 -37 -12 -52 -12c-47 0 -72 28 -67 73l-2 2c-36 -48 -85 -75 -173 -75c-86 0 -158 40 -158 146
c0 146 138 159 261 170c91 8 130 13 130 82c0 55 -59 68 -104 68c-65 0 -128 -26 -139 -93zM75 135c0 -48 45 -72 93 -72c55 0 96 16 124 43c39 38 49 78 66 158h-2c-31 -19 -67 -23 -115 -28c-105 -10 -166 -30 -166 -101zM169 627l12 55h269l-11 -55h-270z" />
    <glyph glyph-name="abreve" unicode="&#x103;" horiz-adv-x="519" 
d="M138 361h-85c16 115 115 168 224 168c100 0 189 -28 189 -132c0 -29 -9 -66 -16 -94l-33 -141c-5 -21 -14 -53 -14 -74c0 -24 10 -32 25 -32c8 0 19 4 27 7l-13 -63c-13 -7 -37 -12 -52 -12c-47 0 -72 28 -67 73l-2 2c-36 -48 -85 -75 -173 -75c-86 0 -158 40 -158 146
c0 146 138 159 261 170c91 8 130 13 130 82c0 55 -59 68 -104 68c-65 0 -128 -26 -139 -93zM75 135c0 -48 45 -72 93 -72c55 0 96 16 124 43c39 38 49 78 66 158h-2c-31 -19 -67 -23 -115 -28c-105 -10 -166 -30 -166 -101zM172 730h45c1 -61 34 -84 94 -84
c65 0 98 24 117 84h45c-12 -89 -78 -139 -166 -139c-89 0 -138 47 -135 139z" />
    <glyph glyph-name="aring" unicode="&#xe5;" horiz-adv-x="519" 
d="M138 361h-85c16 115 115 168 224 168c100 0 189 -28 189 -132c0 -29 -9 -66 -16 -94l-33 -141c-5 -21 -14 -53 -14 -74c0 -24 10 -32 25 -32c8 0 19 4 27 7l-13 -63c-13 -7 -37 -12 -52 -12c-47 0 -72 28 -67 73l-2 2c-36 -48 -85 -75 -173 -75c-86 0 -158 40 -158 146
c0 146 138 159 261 170c91 8 130 13 130 82c0 55 -59 68 -104 68c-65 0 -128 -26 -139 -93zM75 135c0 -48 45 -72 93 -72c55 0 96 16 124 43c39 38 49 78 66 158h-2c-31 -19 -67 -23 -115 -28c-105 -10 -166 -30 -166 -101zM204 674c0 61 52 113 113 113s113 -52 113 -113
s-52 -113 -113 -113s-113 52 -113 113zM249 674c0 -39 29 -68 68 -68s68 29 68 68s-29 68 -68 68s-68 -29 -68 -68z" />
    <glyph glyph-name="aringacute" unicode="&#x1fb;" horiz-adv-x="519" 
d="M284 796l83 126h109l-129 -126h-63zM312 565c-59 0 -106 44 -106 103s48 103 106 103c59 0 106 -44 106 -103s-48 -103 -106 -103zM373 668c0 36 -24 62 -61 62s-61 -26 -61 -62c0 -35 24 -62 61 -62s61 27 61 62zM138 361h-85c16 115 115 168 224 168
c100 0 189 -28 189 -132c0 -29 -9 -66 -16 -94l-33 -141c-5 -21 -14 -53 -14 -74c0 -24 10 -32 25 -32c8 0 19 4 27 7l-13 -63c-13 -7 -37 -12 -52 -12c-47 0 -72 28 -67 73l-2 2c-36 -48 -85 -75 -173 -75c-86 0 -158 40 -158 146c0 146 138 159 261 170
c91 8 130 13 130 82c0 55 -59 68 -104 68c-65 0 -128 -26 -139 -93zM75 135c0 -48 45 -72 93 -72c55 0 96 16 124 43c39 38 49 78 66 158h-2c-31 -19 -67 -23 -115 -28c-105 -10 -166 -30 -166 -101z" />
    <glyph glyph-name="aogonek" unicode="&#x105;" horiz-adv-x="519" 
d="M138 361h-85c16 115 115 168 224 168c100 0 189 -28 189 -132c0 -29 -9 -66 -16 -94l-33 -141c-5 -21 -14 -53 -14 -74c0 -24 10 -32 25 -32c8 0 19 4 27 7l-13 -63c-13 -7 -37 -12 -52 -12c-4 0 -8 0 -12 1c-67 -51 -93 -82 -93 -113c0 -22 15 -36 38 -36
c22 0 43 11 66 30l28 -22c-30 -38 -66 -58 -115 -58c-47 0 -88 25 -88 75c0 49 46 89 126 139c-12 10 -18 26 -18 45c0 4 0 8 1 12l-2 2c-36 -48 -85 -75 -173 -75c-86 0 -158 40 -158 146c0 146 138 159 261 170c91 8 130 13 130 82c0 55 -59 68 -104 68
c-65 0 -128 -26 -139 -93zM75 135c0 -48 45 -72 93 -72c55 0 96 16 124 43c39 38 49 78 66 158h-2c-31 -19 -67 -23 -115 -28c-105 -10 -166 -30 -166 -101z" />
    <glyph glyph-name="ae" unicode="&#xe6;" horiz-adv-x="870" 
d="M147 362h-83c19 122 118 167 231 167c67 0 133 -17 165 -81c37 52 101 81 165 81c132 0 199 -74 199 -203c0 -31 -6 -62 -14 -93h-375c-3 -16 -5 -33 -5 -52c0 -62 39 -118 124 -118c76 0 126 35 153 99h87c-7 -20 -16 -39 -28 -58c-53 -80 -122 -116 -219 -116
c-80 0 -153 24 -182 112c-45 -76 -115 -112 -203 -112c-86 0 -167 31 -167 144c0 112 98 147 197 158c98 11 196 11 196 95c0 59 -62 69 -113 69c-64 0 -113 -32 -128 -92zM449 308h290c11 76 -23 146 -118 146c-93 0 -153 -70 -172 -146zM80 132c0 -51 47 -69 96 -69
c47 0 92 12 125 45c35 35 53 108 61 158c-101 -48 -282 -8 -282 -134z" />
    <glyph glyph-name="aeacute" unicode="&#x1fd;" horiz-adv-x="870" 
d="M147 362h-83c19 122 118 167 231 167c67 0 133 -17 165 -81c37 52 101 81 165 81c132 0 199 -74 199 -203c0 -31 -6 -62 -14 -93h-375c-3 -16 -5 -33 -5 -52c0 -62 39 -118 124 -118c76 0 126 35 153 99h87c-7 -20 -16 -39 -28 -58c-53 -80 -122 -116 -219 -116
c-80 0 -153 24 -182 112c-45 -76 -115 -112 -203 -112c-86 0 -167 31 -167 144c0 112 98 147 197 158c98 11 196 11 196 95c0 59 -62 69 -113 69c-64 0 -113 -32 -128 -92zM449 308h290c11 76 -23 146 -118 146c-93 0 -153 -70 -172 -146zM80 132c0 -51 47 -69 96 -69
c47 0 92 12 125 45c35 35 53 108 61 158c-101 -48 -282 -8 -282 -134zM431 589l93 143h113l-136 -143h-70z" />
    <glyph glyph-name="cacute" unicode="&#x107;" horiz-adv-x="537" 
d="M501 353h-85c0 64 -42 101 -109 101c-131 0 -201 -130 -201 -243c0 -80 32 -148 128 -148c73 0 127 42 151 106h85c-31 -116 -116 -181 -236 -181c-141 0 -213 83 -213 223c0 164 101 318 286 318c117 0 190 -55 194 -176zM280 589l93 143h113l-136 -143h-70z" />
    <glyph glyph-name="ccircumflex" unicode="&#x109;" horiz-adv-x="537" 
d="M501 353h-85c0 64 -42 101 -109 101c-131 0 -201 -130 -201 -243c0 -80 32 -148 128 -148c73 0 127 42 151 106h85c-31 -116 -116 -181 -236 -181c-141 0 -213 83 -213 223c0 164 101 318 286 318c117 0 190 -55 194 -176zM170 589l133 143h86l75 -143h-74l-51 93
l-87 -93h-82z" />
    <glyph glyph-name="ccaron" unicode="&#x10d;" horiz-adv-x="537" 
d="M501 353h-85c0 64 -42 101 -109 101c-131 0 -201 -130 -201 -243c0 -80 32 -148 128 -148c73 0 127 42 151 106h85c-31 -116 -116 -181 -236 -181c-141 0 -213 83 -213 223c0 164 101 318 286 318c117 0 190 -55 194 -176zM493 732l-135 -143h-86l-77 143h76l51 -93
l93 93h78z" />
    <glyph glyph-name="cdotaccent" unicode="&#x10b;" horiz-adv-x="537" 
d="M501 353h-85c0 64 -42 101 -109 101c-131 0 -201 -130 -201 -243c0 -80 32 -148 128 -148c73 0 127 42 151 106h85c-31 -116 -116 -181 -236 -181c-141 0 -213 83 -213 223c0 164 101 318 286 318c117 0 190 -55 194 -176zM274 602l21 104h89l-21 -104h-89z" />
    <glyph glyph-name="ccedilla" unicode="&#xe7;" horiz-adv-x="537" 
d="M79 -188l18 43c22 -9 47 -15 70 -15c34 0 54 11 54 31c0 19 -16 30 -45 30c-15 0 -31 -3 -43 -8l-19 30l62 71c-103 20 -155 97 -155 217c0 164 101 318 286 318c117 0 190 -55 194 -176h-85c0 64 -42 101 -109 101c-131 0 -201 -130 -201 -243c0 -80 32 -148 128 -148
c73 0 127 42 151 106h85c-31 -116 -116 -181 -236 -181h-15l-40 -42l1 -1c11 4 22 5 33 5c50 0 83 -28 83 -73c0 -55 -51 -87 -119 -87c-33 0 -65 6 -98 22z" />
    <glyph glyph-name="dcaron" unicode="&#x10f;" horiz-adv-x="593" 
d="M606 714l-151 -714h-80l18 74h-2c-51 -67 -102 -86 -171 -86c-132 0 -203 87 -203 212c0 156 106 329 287 329c64 0 140 -22 161 -91h2l55 276h84zM102 200c0 -84 40 -137 133 -137c129 0 202 149 202 257c0 77 -46 134 -130 134c-135 0 -205 -139 -205 -254zM627 571
l53 143h113l-100 -143h-66z" />
    <glyph glyph-name="dcroat" unicode="&#x111;" horiz-adv-x="598" 
d="M606 714l-16 -78h87l-12 -53h-87l-123 -583h-80l18 74h-2c-51 -67 -102 -86 -171 -86c-132 0 -203 87 -203 212c0 156 106 329 287 329c64 0 140 -22 161 -91h2l29 145h-172l12 53h171l15 78h84zM102 200c0 -84 40 -137 133 -137c129 0 202 149 202 257
c0 77 -46 134 -130 134c-135 0 -205 -139 -205 -254z" />
    <glyph glyph-name="eth" unicode="&#xf0;" horiz-adv-x="574" 
d="M464 734l44 -38l-108 -55c78 -75 129 -150 129 -299c0 -195 -99 -354 -294 -354c-136 0 -218 91 -218 211c0 160 108 307 289 307c45 0 90 -10 129 -53h2c-19 62 -74 128 -109 152l-114 -57l-42 40l113 56c-19 15 -36 27 -59 42l64 45c23 -15 45 -29 69 -50zM300 431
c-131 0 -198 -133 -198 -231c0 -80 49 -137 142 -137c124 0 195 139 195 236c0 76 -46 132 -139 132z" />
    <glyph glyph-name="egrave" unicode="&#xe8;" horiz-adv-x="537" 
d="M487 233h-389c-2 -15 -3 -30 -3 -45c0 -80 65 -125 134 -125c75 0 125 35 149 99h85c-27 -115 -122 -174 -234 -174c-172 0 -219 118 -219 208c0 198 124 333 266 333c152 0 219 -84 219 -229c0 -27 -5 -52 -8 -67zM110 308h300c5 73 -27 146 -121 146
c-100 0 -155 -66 -179 -146zM283 732l67 -143h-67l-101 143h101z" />
    <glyph glyph-name="eacute" unicode="&#xe9;" horiz-adv-x="537" 
d="M487 233h-389c-2 -15 -3 -30 -3 -45c0 -80 65 -125 134 -125c75 0 125 35 149 99h85c-27 -115 -122 -174 -234 -174c-172 0 -219 118 -219 208c0 198 124 333 266 333c152 0 219 -84 219 -229c0 -27 -5 -52 -8 -67zM110 308h300c5 73 -27 146 -121 146
c-100 0 -155 -66 -179 -146zM267 589l93 143h113l-136 -143h-70z" />
    <glyph glyph-name="ecircumflex" unicode="&#xea;" horiz-adv-x="537" 
d="M487 233h-389c-2 -15 -3 -30 -3 -45c0 -80 65 -125 134 -125c75 0 125 35 149 99h85c-27 -115 -122 -174 -234 -174c-172 0 -219 118 -219 208c0 198 124 333 266 333c152 0 219 -84 219 -229c0 -27 -5 -52 -8 -67zM110 308h300c5 73 -27 146 -121 146
c-100 0 -155 -66 -179 -146zM157 589l133 143h86l75 -143h-74l-51 93l-87 -93h-82z" />
    <glyph glyph-name="ecaron" unicode="&#x11b;" horiz-adv-x="537" 
d="M487 233h-389c-2 -15 -3 -30 -3 -45c0 -80 65 -125 134 -125c75 0 125 35 149 99h85c-27 -115 -122 -174 -234 -174c-172 0 -219 118 -219 208c0 198 124 333 266 333c152 0 219 -84 219 -229c0 -27 -5 -52 -8 -67zM110 308h300c5 73 -27 146 -121 146
c-100 0 -155 -66 -179 -146zM480 732l-135 -143h-86l-77 143h76l51 -93l93 93h78z" />
    <glyph glyph-name="edieresis" unicode="&#xeb;" horiz-adv-x="537" 
d="M487 233h-389c-2 -15 -3 -30 -3 -45c0 -80 65 -125 134 -125c75 0 125 35 149 99h85c-27 -115 -122 -174 -234 -174c-172 0 -219 118 -219 208c0 198 124 333 266 333c152 0 219 -84 219 -229c0 -27 -5 -52 -8 -67zM110 308h300c5 73 -27 146 -121 146
c-100 0 -155 -66 -179 -146zM343 602l21 104h89l-21 -104h-89zM180 602l21 104h89l-21 -104h-89z" />
    <glyph glyph-name="emacron" unicode="&#x113;" horiz-adv-x="537" 
d="M487 233h-389c-2 -15 -3 -30 -3 -45c0 -80 65 -125 134 -125c75 0 125 35 149 99h85c-27 -115 -122 -174 -234 -174c-172 0 -219 118 -219 208c0 198 124 333 266 333c152 0 219 -84 219 -229c0 -27 -5 -52 -8 -67zM110 308h300c5 73 -27 146 -121 146
c-100 0 -155 -66 -179 -146zM176 627l12 55h269l-11 -55h-270z" />
    <glyph glyph-name="ebreve" unicode="&#x115;" horiz-adv-x="537" 
d="M487 233h-389c-2 -15 -3 -30 -3 -45c0 -80 65 -125 134 -125c75 0 125 35 149 99h85c-27 -115 -122 -174 -234 -174c-172 0 -219 118 -219 208c0 198 124 333 266 333c152 0 219 -84 219 -229c0 -27 -5 -52 -8 -67zM110 308h300c5 73 -27 146 -121 146
c-100 0 -155 -66 -179 -146zM179 730h45c1 -61 34 -84 94 -84c65 0 98 24 117 84h45c-12 -89 -78 -139 -166 -139c-89 0 -138 47 -135 139z" />
    <glyph glyph-name="edotaccent" unicode="&#x117;" horiz-adv-x="537" 
d="M487 233h-389c-2 -15 -3 -30 -3 -45c0 -80 65 -125 134 -125c75 0 125 35 149 99h85c-27 -115 -122 -174 -234 -174c-172 0 -219 118 -219 208c0 198 124 333 266 333c152 0 219 -84 219 -229c0 -27 -5 -52 -8 -67zM110 308h300c5 73 -27 146 -121 146
c-100 0 -155 -66 -179 -146zM261 602l21 104h89l-21 -104h-89z" />
    <glyph glyph-name="eogonek" unicode="&#x119;" horiz-adv-x="537" 
d="M487 233h-389c-2 -15 -3 -30 -3 -45c0 -80 65 -125 134 -125c75 0 125 35 149 99h85c-25 -105 -106 -163 -206 -172c-68 -52 -94 -83 -94 -114c0 -22 15 -36 38 -36c22 0 43 11 66 30l28 -22c-30 -38 -66 -58 -115 -58c-47 0 -88 25 -88 75c0 46 39 82 104 125
c-145 13 -186 122 -186 206c0 198 124 333 266 333c152 0 219 -84 219 -229c0 -27 -5 -52 -8 -67zM110 308h300c5 73 -27 146 -121 146c-100 0 -155 -66 -179 -146z" />
    <glyph glyph-name="gcircumflex" unicode="&#x11d;" horiz-adv-x="574" 
d="M552 517l-93 -442c-12 -53 -25 -105 -40 -141c-44 -104 -124 -144 -235 -144c-105 0 -203 45 -206 160h85c5 -69 65 -85 130 -85c131 0 159 105 185 208l-2 2c-37 -56 -96 -79 -161 -79c-128 0 -194 90 -194 214c0 152 101 319 269 319c76 0 148 -41 164 -105v-2h2l16 95
h80zM106 210c0 -74 42 -139 127 -139c128 0 188 144 188 248c0 81 -43 135 -132 135c-119 0 -183 -149 -183 -244zM187 589l133 143h86l75 -143h-74l-51 93l-87 -93h-82z" />
    <glyph glyph-name="gbreve" unicode="&#x11f;" horiz-adv-x="574" 
d="M552 517l-93 -442c-12 -53 -25 -105 -40 -141c-44 -104 -124 -144 -235 -144c-105 0 -203 45 -206 160h85c5 -69 65 -85 130 -85c131 0 159 105 185 208l-2 2c-37 -56 -96 -79 -161 -79c-128 0 -194 90 -194 214c0 152 101 319 269 319c76 0 148 -41 164 -105v-2h2l16 95
h80zM106 210c0 -74 42 -139 127 -139c128 0 188 144 188 248c0 81 -43 135 -132 135c-119 0 -183 -149 -183 -244zM209 730h45c1 -61 34 -84 94 -84c65 0 98 24 117 84h45c-12 -89 -78 -139 -166 -139c-89 0 -138 47 -135 139z" />
    <glyph glyph-name="gdotaccent" unicode="&#x121;" horiz-adv-x="574" 
d="M552 517l-93 -442c-12 -53 -25 -105 -40 -141c-44 -104 -124 -144 -235 -144c-105 0 -203 45 -206 160h85c5 -69 65 -85 130 -85c131 0 159 105 185 208l-2 2c-37 -56 -96 -79 -161 -79c-128 0 -194 90 -194 214c0 152 101 319 269 319c76 0 148 -41 164 -105v-2h2l16 95
h80zM106 210c0 -74 42 -139 127 -139c128 0 188 144 188 248c0 81 -43 135 -132 135c-119 0 -183 -149 -183 -244zM291 602l21 104h89l-21 -104h-89z" />
    <glyph glyph-name="gcommaaccent" unicode="&#x123;" horiz-adv-x="574" 
d="M552 517l-93 -442c-12 -53 -25 -105 -40 -141c-44 -104 -124 -144 -235 -144c-105 0 -203 45 -206 160h85c5 -69 65 -85 130 -85c131 0 159 105 185 208l-2 2c-37 -56 -96 -79 -161 -79c-128 0 -194 90 -194 214c0 152 101 319 269 319c76 0 148 -41 164 -105v-2h2l16 95
h80zM106 210c0 -74 42 -139 127 -139c128 0 188 144 188 248c0 81 -43 135 -132 135c-119 0 -183 -149 -183 -244zM415 714l-19 -88h-111c9 51 15 82 18 91c3 10 7 20 13 29c12 20 36 39 101 40l-8 -35c-26 -6 -38 -12 -46 -37h52z" />
    <glyph glyph-name="hcircumflex" unicode="&#x125;" 
d="M-5 0l151 714h85l-61 -273l2 -2c43 59 112 90 184 90c97 0 144 -41 144 -133c0 -23 -6 -61 -15 -101l-63 -295h-85l66 302c3 20 12 62 12 80c0 49 -39 72 -90 72c-47 0 -96 -25 -128 -60c-31 -27 -46 -67 -57 -108l-60 -286h-85zM197 779l133 143h86l75 -143h-74l-51 93
l-87 -93h-82z" />
    <glyph glyph-name="hbar" unicode="&#x127;" horiz-adv-x="561" 
d="M0 0l123 583h-87l12 53h87l16 78h85l-17 -78h170l-12 -53h-171l-31 -142l2 -2c43 59 112 90 184 90c97 0 144 -41 144 -133c0 -23 -6 -61 -15 -101l-63 -295h-85l66 302c4 20 12 62 12 80c0 49 -39 72 -90 72c-47 0 -96 -25 -128 -60c-31 -27 -46 -67 -57 -108l-60 -286
h-85z" />
    <glyph glyph-name="dotlessi" unicode="&#x131;" horiz-adv-x="222" 
d="M80 0h-85l108 517h85z" />
    <glyph glyph-name="igrave" unicode="&#xec;" horiz-adv-x="222" 
d="M80 0h-85l108 517h85zM145 732l67 -143h-67l-101 143h101z" />
    <glyph glyph-name="iacute" unicode="&#xed;" horiz-adv-x="222" 
d="M80 0h-85l108 517h85zM109 589l93 143h113l-136 -143h-70z" />
    <glyph glyph-name="ibreve" unicode="&#x12d;" horiz-adv-x="222" 
d="M80 0h-85l108 517h85zM31 730h45c1 -61 34 -84 94 -84c65 0 98 24 117 84h45c-12 -89 -78 -139 -166 -139c-89 0 -138 47 -135 139z" />
    <glyph glyph-name="icircumflex" unicode="&#xee;" horiz-adv-x="222" 
d="M80 0h-85l108 517h85zM9 589l133 143h86l75 -143h-74l-51 93l-87 -93h-82z" />
    <glyph glyph-name="itilde" unicode="&#x129;" horiz-adv-x="222" 
d="M80 0h-85l108 517h85zM52 608h-52c16 47 41 109 99 109c27 0 52 -13 77 -25c25 -11 47 -24 64 -21c31 0 39 18 51 41h51c-16 -51 -41 -109 -102 -109l-141 46c-27 0 -39 -18 -47 -41z" />
    <glyph glyph-name="idieresis" unicode="&#xef;" horiz-adv-x="222" 
d="M80 0h-85l108 517h85zM195 602l21 104h89l-21 -104h-89zM32 602l21 104h89l-21 -104h-89z" />
    <glyph glyph-name="imacron" unicode="&#x12b;" horiz-adv-x="222" 
d="M80 0h-85l108 517h85zM28 627l12 55h269l-11 -55h-270z" />
    <glyph glyph-name="iogonek" unicode="&#x12f;" horiz-adv-x="222" 
d="M230 714l-22 -104h-86l22 104h86zM-5 0l108 517h85l-108 -517c-75 -58 -103 -91 -103 -124c0 -22 15 -36 35 -36c19 0 40 10 61 29l28 -22c-29 -38 -64 -57 -110 -57c-43 0 -83 25 -83 75c0 49 42 87 112 135h-25z" />
    <glyph glyph-name="dotlessj" unicode="&#x237;" horiz-adv-x="222" 
d="M-120 -192l15 75c11 -3 22 -6 33 -6c37 0 47 24 62 97l113 543h85l-130 -614c-14 -64 -54 -101 -122 -101c-19 0 -37 1 -56 6z" />
    <glyph glyph-name="jcircumflex" unicode="&#x135;" horiz-adv-x="222" 
d="M-120 -192l15 75c11 -3 22 -6 33 -6c37 0 47 24 62 97l113 543h85l-130 -614c-14 -64 -54 -101 -122 -101c-19 0 -37 1 -56 6zM2 589l133 143h86l75 -143h-74l-51 93l-87 -93h-82z" />
    <glyph glyph-name="kcommaaccent" unicode="&#x137;" horiz-adv-x="481" 
d="M-5 0l151 714h84l-89 -420l2 -2l260 225h111l-225 -191l128 -326h-95l-101 275l-102 -91l-39 -184h-85zM116 -138l19 88h111c-9 -51 -15 -82 -18 -91c-3 -10 -7 -20 -13 -29c-12 -20 -36 -39 -101 -40l8 35c26 6 38 12 46 37h-52z" />
    <glyph glyph-name="kgreenlandic" unicode="&#x138;" horiz-adv-x="481" 
d="M-5 0l109 517h84l-47 -223l2 -2l260 225h111l-225 -191l128 -326h-95l-101 275l-102 -91l-39 -184h-85z" />
    <glyph glyph-name="lacute" unicode="&#x13a;" horiz-adv-x="222" 
d="M-5 0l150 714h85l-150 -714h-85zM152 779l93 143h113l-136 -143h-70z" />
    <glyph glyph-name="lcaron" unicode="&#x13e;" horiz-adv-x="222" 
d="M-5 0l150 714h85l-150 -714h-85zM251 571l53 143h113l-100 -143h-66z" />
    <glyph glyph-name="lcommaaccent" unicode="&#x13c;" horiz-adv-x="222" 
d="M-5 0l150 714h85l-150 -714h-85zM-45 -138l19 88h111c-9 -51 -15 -82 -18 -91c-3 -10 -7 -20 -13 -29c-12 -20 -36 -39 -101 -40l8 35c26 6 38 12 46 37h-52z" />
    <glyph glyph-name="lslash" unicode="&#x142;" horiz-adv-x="222" 
d="M145 714h85l-53 -232l2 -2l66 52l-10 -78l-74 -57l-81 -397h-85l68 322l-70 -54l10 77l74 57z" />
    <glyph glyph-name="ldot" unicode="&#x140;" horiz-adv-x="342" 
d="M-5 0l150 714h85l-150 -714h-85zM223 337l21 104h89l-21 -104h-89z" />
    <glyph glyph-name="nacute" unicode="&#x144;" 
d="M-5 0l109 517h82l-16 -78h2c43 59 112 90 184 90c97 0 144 -41 144 -133c0 -23 -6 -61 -15 -101l-63 -295h-85l66 302c3 20 12 62 12 80c0 49 -39 72 -90 72c-47 0 -96 -25 -128 -60c-31 -27 -46 -67 -57 -108l-60 -286h-85zM284 589l93 143h113l-136 -143h-70z" />
    <glyph glyph-name="ncaron" unicode="&#x148;" 
d="M-5 0l109 517h82l-16 -78h2c43 59 112 90 184 90c97 0 144 -41 144 -133c0 -23 -6 -61 -15 -101l-63 -295h-85l66 302c3 20 12 62 12 80c0 49 -39 72 -90 72c-47 0 -96 -25 -128 -60c-31 -27 -46 -67 -57 -108l-60 -286h-85zM497 732l-135 -143h-86l-77 143h76l51 -93
l93 93h78z" />
    <glyph glyph-name="ntilde" unicode="&#xf1;" 
d="M-5 0l109 517h82l-16 -78h2c43 59 112 90 184 90c97 0 144 -41 144 -133c0 -23 -6 -61 -15 -101l-63 -295h-85l66 302c3 20 12 62 12 80c0 49 -39 72 -90 72c-47 0 -96 -25 -128 -60c-31 -27 -46 -67 -57 -108l-60 -286h-85zM217 608h-52c16 47 41 109 99 109
c27 0 52 -13 77 -25c25 -11 47 -24 64 -21c31 0 39 18 51 41h51c-16 -51 -41 -109 -102 -109l-141 46c-27 0 -39 -18 -47 -41z" />
    <glyph glyph-name="ncommaaccent" unicode="&#x146;" 
d="M-5 0l109 517h82l-16 -78h2c43 59 112 90 184 90c97 0 144 -41 144 -133c0 -23 -6 -61 -15 -101l-63 -295h-85l66 302c3 20 12 62 12 80c0 49 -39 72 -90 72c-47 0 -96 -25 -128 -60c-31 -27 -46 -67 -57 -108l-60 -286h-85zM126 -138l19 88h111c-9 -51 -15 -82 -18 -91
c-3 -10 -7 -20 -13 -29c-12 -20 -36 -39 -101 -40l8 35c26 6 38 12 46 37h-52z" />
    <glyph glyph-name="ograve" unicode="&#xf2;" horiz-adv-x="574" 
d="M17 204c0 169 108 325 289 325c139 0 215 -75 215 -214c0 -168 -105 -327 -286 -327c-136 0 -218 91 -218 216zM102 205c0 -85 49 -142 142 -142c124 0 192 144 192 245c0 81 -43 146 -136 146c-131 0 -198 -142 -198 -249zM308 732l67 -143h-67l-101 143h101z" />
    <glyph glyph-name="oacute" unicode="&#xf3;" horiz-adv-x="574" 
d="M17 204c0 169 108 325 289 325c139 0 215 -75 215 -214c0 -168 -105 -327 -286 -327c-136 0 -218 91 -218 216zM102 205c0 -85 49 -142 142 -142c124 0 192 144 192 245c0 81 -43 146 -136 146c-131 0 -198 -142 -198 -249zM292 589l93 143h113l-136 -143h-70z" />
    <glyph glyph-name="ocircumflex" unicode="&#xf4;" horiz-adv-x="574" 
d="M17 204c0 169 108 325 289 325c139 0 215 -75 215 -214c0 -168 -105 -327 -286 -327c-136 0 -218 91 -218 216zM102 205c0 -85 49 -142 142 -142c124 0 192 144 192 245c0 81 -43 146 -136 146c-131 0 -198 -142 -198 -249zM182 589l133 143h86l75 -143h-74l-51 93
l-87 -93h-82z" />
    <glyph glyph-name="otilde" unicode="&#xf5;" horiz-adv-x="574" 
d="M17 204c0 169 108 325 289 325c139 0 215 -75 215 -214c0 -168 -105 -327 -286 -327c-136 0 -218 91 -218 216zM102 205c0 -85 49 -142 142 -142c124 0 192 144 192 245c0 81 -43 146 -136 146c-131 0 -198 -142 -198 -249zM225 608h-52c16 47 41 109 99 109
c27 0 52 -13 77 -25c25 -11 47 -24 64 -21c31 0 39 18 51 41h51c-16 -51 -41 -109 -102 -109l-141 46c-27 0 -39 -18 -47 -41z" />
    <glyph glyph-name="odieresis" unicode="&#xf6;" horiz-adv-x="574" 
d="M17 204c0 169 108 325 289 325c139 0 215 -75 215 -214c0 -168 -105 -327 -286 -327c-136 0 -218 91 -218 216zM102 205c0 -85 49 -142 142 -142c124 0 192 144 192 245c0 81 -43 146 -136 146c-131 0 -198 -142 -198 -249zM368 602l21 104h89l-21 -104h-89zM205 602
l21 104h89l-21 -104h-89z" />
    <glyph glyph-name="omacron" unicode="&#x14d;" horiz-adv-x="574" 
d="M17 204c0 169 108 325 289 325c139 0 215 -75 215 -214c0 -168 -105 -327 -286 -327c-136 0 -218 91 -218 216zM102 205c0 -85 49 -142 142 -142c124 0 192 144 192 245c0 81 -43 146 -136 146c-131 0 -198 -142 -198 -249zM201 627l12 55h269l-11 -55h-270z" />
    <glyph glyph-name="obreve" unicode="&#x14f;" horiz-adv-x="574" 
d="M17 204c0 169 108 325 289 325c139 0 215 -75 215 -214c0 -168 -105 -327 -286 -327c-136 0 -218 91 -218 216zM102 205c0 -85 49 -142 142 -142c124 0 192 144 192 245c0 81 -43 146 -136 146c-131 0 -198 -142 -198 -249zM204 730h45c1 -61 34 -84 94 -84
c65 0 98 24 117 84h45c-12 -89 -78 -139 -166 -139c-89 0 -138 47 -135 139z" />
    <glyph glyph-name="ohungarumlaut" unicode="&#x151;" horiz-adv-x="574" 
d="M17 204c0 169 108 325 289 325c139 0 215 -75 215 -214c0 -168 -105 -327 -286 -327c-136 0 -218 91 -218 216zM102 205c0 -85 49 -142 142 -142c124 0 192 144 192 245c0 81 -43 146 -136 146c-131 0 -198 -142 -198 -249zM373 589l93 143h113l-136 -143h-70zM207 589
l93 143h113l-136 -143h-70z" />
    <glyph glyph-name="oslash" unicode="&#xf8;" horiz-adv-x="574" 
d="M-30 13l77 70c-20 33 -30 73 -30 121c0 169 108 325 289 325c74 0 129 -21 165 -63l70 63l25 -28l-73 -66c19 -32 28 -72 28 -120c0 -168 -105 -327 -286 -327c-73 0 -129 22 -166 65l-75 -68zM113 142l295 267c-23 27 -57 45 -108 45c-131 0 -198 -142 -198 -249
c0 -25 3 -46 10 -63h1zM425 374l-295 -266c23 -27 61 -45 114 -45c124 0 192 144 192 245c0 25 -4 47 -11 66z" />
    <glyph glyph-name="oslashacute" unicode="&#x1ff;" horiz-adv-x="574" 
d="M292 589l93 143h113l-136 -143h-70zM-30 13l77 70c-20 33 -30 73 -30 121c0 169 108 325 289 325c74 0 129 -21 165 -63l70 63l25 -28l-73 -66c19 -32 28 -72 28 -120c0 -168 -105 -327 -286 -327c-73 0 -129 22 -166 65l-75 -68zM113 142l295 267c-23 27 -57 45 -108 45
c-131 0 -198 -142 -198 -249c0 -25 3 -46 10 -63h1zM425 374l-295 -266c23 -27 61 -45 114 -45c124 0 192 144 192 245c0 25 -4 47 -11 66z" />
    <glyph glyph-name="oe" unicode="&#x153;" horiz-adv-x="907" 
d="M751 163h87c-39 -117 -129 -175 -250 -175c-81 0 -147 22 -179 102c-37 -65 -109 -102 -184 -102c-129 0 -208 63 -208 203c0 163 109 338 288 338c81 0 145 -21 174 -101c37 69 114 101 190 101c135 0 200 -81 200 -205c0 -24 -6 -68 -11 -91h-379c-4 -16 -7 -34 -7 -53
c0 -80 51 -117 131 -117c68 0 125 41 148 100zM667 454c-95 0 -157 -64 -175 -146h290c1 11 2 18 2 29c0 61 -37 117 -117 117zM102 195c0 -72 43 -132 128 -132c141 0 187 174 187 282c0 72 -52 109 -120 109c-127 0 -195 -152 -195 -259z" />
    <glyph glyph-name="racute" unicode="&#x155;" horiz-adv-x="333" 
d="M-5 0l108 517h80l-25 -111h2c40 71 101 123 188 123c11 0 19 3 30 0l-20 -91c-4 1 -8 1 -13 1h-12c-21 0 -31 0 -51 -5c-47 -12 -83 -43 -110 -84c-23 -33 -35 -82 -43 -121l-49 -229h-85zM212 589l93 143h113l-136 -143h-70z" />
    <glyph glyph-name="rcaron" unicode="&#x159;" horiz-adv-x="333" 
d="M-5 0l108 517h80l-25 -111h2c40 71 101 123 188 123c11 0 19 3 30 0l-20 -91c-4 1 -8 1 -13 1h-12c-21 0 -31 0 -51 -5c-47 -12 -83 -43 -110 -84c-23 -33 -35 -82 -43 -121l-49 -229h-85zM425 732l-135 -143h-86l-77 143h76l51 -93l93 93h78z" />
    <glyph glyph-name="rcommaaccent" unicode="&#x157;" horiz-adv-x="333" 
d="M-5 0l108 517h80l-25 -111h2c40 71 101 123 188 123c11 0 19 3 30 0l-20 -91c-4 1 -8 1 -13 1h-12c-21 0 -31 0 -51 -5c-47 -12 -83 -43 -110 -84c-23 -33 -35 -82 -43 -121l-49 -229h-85zM-45 -138l19 88h111c-9 -51 -15 -82 -18 -91c-3 -10 -7 -20 -13 -29
c-12 -20 -36 -39 -101 -40l8 35c26 6 38 12 46 37h-52z" />
    <glyph glyph-name="sacute" unicode="&#x15b;" horiz-adv-x="481" 
d="M440 365h-85c3 59 -47 89 -107 89c-52 0 -110 -14 -110 -66c0 -40 47 -59 97 -80l38 -16c75 -32 138 -63 138 -144c0 -115 -111 -160 -211 -160c-118 0 -209 43 -209 175h85c-5 -76 61 -100 132 -100c56 0 118 20 118 79c0 38 -35 56 -94 80l-51 21
c-70 29 -128 63 -128 137c0 96 96 149 192 149s195 -43 195 -164zM238 589l93 143h113l-136 -143h-70z" />
    <glyph glyph-name="scircumflex" unicode="&#x15d;" horiz-adv-x="481" 
d="M440 365h-85c3 59 -47 89 -107 89c-52 0 -110 -14 -110 -66c0 -40 47 -59 97 -80l38 -16c75 -32 138 -63 138 -144c0 -115 -111 -160 -211 -160c-118 0 -209 43 -209 175h85c-5 -76 61 -100 132 -100c56 0 118 20 118 79c0 38 -35 56 -94 80l-51 21
c-70 29 -128 63 -128 137c0 96 96 149 192 149s195 -43 195 -164zM128 589l133 143h86l75 -143h-74l-51 93l-87 -93h-82z" />
    <glyph glyph-name="scaron" unicode="&#x161;" horiz-adv-x="481" 
d="M440 365h-85c3 59 -47 89 -107 89c-52 0 -110 -14 -110 -66c0 -40 47 -59 97 -80l38 -16c75 -32 138 -63 138 -144c0 -115 -111 -160 -211 -160c-118 0 -209 43 -209 175h85c-5 -76 61 -100 132 -100c56 0 118 20 118 79c0 38 -35 56 -94 80l-51 21
c-70 29 -128 63 -128 137c0 96 96 149 192 149s195 -43 195 -164zM451 732l-135 -143h-86l-77 143h76l51 -93l93 93h78z" />
    <glyph glyph-name="scedilla" unicode="&#x15f;" horiz-adv-x="481" 
d="M54 -188l18 43c22 -9 47 -15 70 -15c34 0 54 11 54 31c0 19 -16 30 -45 30c-15 0 -31 -3 -43 -8l-19 30l60 68c-92 12 -158 60 -158 172h85c-5 -76 61 -100 132 -100c56 0 118 20 118 79c0 38 -35 56 -94 80l-51 21c-70 29 -128 63 -128 137c0 96 96 149 192 149
s195 -43 195 -164h-85c3 59 -47 89 -107 89c-52 0 -110 -14 -110 -66c0 -40 47 -59 97 -80l38 -16c75 -32 138 -63 138 -144c0 -115 -111 -160 -211 -160h-7l-39 -42l1 -1c11 4 22 5 33 5c50 0 83 -28 83 -73c0 -55 -51 -87 -119 -87c-33 0 -65 6 -98 22z" />
    <glyph glyph-name="scommaaccent" unicode="&#x219;" horiz-adv-x="481" 
d="M440 365h-85c3 59 -47 89 -107 89c-52 0 -110 -14 -110 -66c0 -40 47 -59 97 -80l38 -16c75 -32 138 -63 138 -144c0 -115 -111 -160 -211 -160c-118 0 -209 43 -209 175h85c-5 -76 61 -100 132 -100c56 0 118 20 118 79c0 38 -35 56 -94 80l-51 21
c-70 29 -128 63 -128 137c0 96 96 149 192 149s195 -43 195 -164zM106 -138l19 88h111c-9 -51 -15 -82 -18 -91c-3 -10 -7 -20 -13 -29c-12 -20 -36 -39 -101 -40l8 35c26 6 38 12 46 37h-52z" />
    <glyph glyph-name="germandbls" unicode="&#xdf;" horiz-adv-x="537" 
d="M-5 0l107 504c26 135 86 227 225 227c97 0 187 -41 187 -150c0 -96 -63 -173 -149 -184v-2c74 -11 113 -75 113 -147c0 -140 -106 -260 -249 -260c-25 0 -49 1 -73 5l14 72c5 -1 10 -2 15 -2h15c107 0 193 64 193 178c0 103 -74 119 -161 116l15 70c90 -5 182 35 182 137
c0 60 -53 92 -98 92c-101 0 -129 -82 -145 -159l-105 -497h-86z" />
    <glyph glyph-name="tcaron" unicode="&#x165;" horiz-adv-x="315" 
d="M296 571l53 143h113l-100 -143h-66zM253 670l-32 -153h103l-16 -75h-103l-64 -304c-1 -12 -3 -22 -3 -34c0 -27 24 -35 51 -35c17 0 33 4 49 9l-15 -78c-20 -4 -40 -6 -60 -6c-63 0 -116 18 -116 84c0 15 2 27 5 43l68 321h-87l16 75h87l32 153h85z" />
    <glyph glyph-name="tcommaaccent" unicode="&#x163;" horiz-adv-x="315" 
d="M253 670l-32 -153h103l-16 -75h-103l-64 -304c-1 -12 -3 -22 -3 -34c0 -27 24 -35 51 -35c17 0 33 4 49 9l-15 -78c-20 -4 -40 -6 -60 -6c-63 0 -116 18 -116 84c0 15 2 27 5 43l68 321h-87l16 75h87l32 153h85zM45 -138l19 88h111c-9 -51 -15 -82 -18 -91
c-3 -10 -7 -20 -13 -29c-12 -20 -36 -39 -101 -40l8 35c26 6 38 12 46 37h-52z" />
    <glyph glyph-name="uni021B" unicode="&#x21b;" horiz-adv-x="315" 
d="M253 670l-32 -153h103l-16 -75h-103l-64 -304c-1 -12 -3 -22 -3 -34c0 -27 24 -35 51 -35c17 0 33 4 49 9l-15 -78c-20 -4 -40 -6 -60 -6c-63 0 -116 18 -116 84c0 15 2 27 5 43l68 321h-87l16 75h87l32 153h85zM45 -138l19 88h111c-9 -51 -15 -82 -18 -91
c-3 -10 -7 -20 -13 -29c-12 -20 -36 -39 -101 -40l8 35c26 6 38 12 46 37h-52z" />
    <glyph glyph-name="tbar" unicode="&#x167;" horiz-adv-x="315" 
d="M7 291l12 55h80l21 96h-87l16 75h87l32 153h85l-32 -153h103l-16 -75h-103l-21 -96h98l-11 -55h-98l-32 -153c-1 -12 -3 -22 -3 -34c0 -27 24 -35 51 -35c17 0 33 4 49 9l-15 -78c-20 -4 -40 -6 -60 -6c-63 0 -116 18 -116 84c0 15 2 27 5 43l36 170h-81z" />
    <glyph glyph-name="thorn" unicode="&#xfe;" horiz-adv-x="593" 
d="M-49 -198l191 912h85l-63 -271h2c51 67 102 86 171 86c132 0 203 -87 203 -212c0 -156 -106 -329 -287 -329c-62 0 -142 22 -161 91h-2l-55 -277h-84zM455 317c0 84 -40 137 -133 137c-129 0 -202 -149 -202 -257c0 -77 46 -134 130 -134c135 0 205 139 205 254z" />
    <glyph glyph-name="ugrave" unicode="&#xf9;" 
d="M520 517l-109 -517h-82l16 78h-2c-43 -59 -112 -90 -184 -90c-97 0 -144 41 -144 133c0 23 6 61 15 101l63 295h85l-66 -302c-5 -19 -12 -62 -12 -80c0 -49 39 -72 90 -72c95 0 166 82 185 168l60 286h85zM294 732l67 -143h-67l-101 143h101z" />
    <glyph glyph-name="uacute" unicode="&#xfa;" 
d="M520 517l-109 -517h-82l16 78h-2c-43 -59 -112 -90 -184 -90c-97 0 -144 41 -144 133c0 23 6 61 15 101l63 295h85l-66 -302c-5 -19 -12 -62 -12 -80c0 -49 39 -72 90 -72c95 0 166 82 185 168l60 286h85zM278 589l93 143h113l-136 -143h-70z" />
    <glyph glyph-name="ucircumflex" unicode="&#xfb;" 
d="M520 517l-109 -517h-82l16 78h-2c-43 -59 -112 -90 -184 -90c-97 0 -144 41 -144 133c0 23 6 61 15 101l63 295h85l-66 -302c-5 -19 -12 -62 -12 -80c0 -49 39 -72 90 -72c95 0 166 82 185 168l60 286h85zM168 589l133 143h86l75 -143h-74l-51 93l-87 -93h-82z" />
    <glyph glyph-name="utilde" unicode="&#x169;" 
d="M520 517l-109 -517h-82l16 78h-2c-43 -59 -112 -90 -184 -90c-97 0 -144 41 -144 133c0 23 6 61 15 101l63 295h85l-66 -302c-5 -19 -12 -62 -12 -80c0 -49 39 -72 90 -72c95 0 166 82 185 168l60 286h85zM211 608h-52c16 47 41 109 99 109c27 0 52 -13 77 -25
c25 -11 47 -24 64 -21c31 0 39 18 51 41h51c-16 -51 -41 -109 -102 -109l-141 46c-27 0 -39 -18 -47 -41z" />
    <glyph glyph-name="udieresis" unicode="&#xfc;" 
d="M520 517l-109 -517h-82l16 78h-2c-43 -59 -112 -90 -184 -90c-97 0 -144 41 -144 133c0 23 6 61 15 101l63 295h85l-66 -302c-5 -19 -12 -62 -12 -80c0 -49 39 -72 90 -72c95 0 166 82 185 168l60 286h85zM354 602l21 104h89l-21 -104h-89zM191 602l21 104h89l-21 -104
h-89z" />
    <glyph glyph-name="umacron" unicode="&#x16b;" 
d="M520 517l-109 -517h-82l16 78h-2c-43 -59 -112 -90 -184 -90c-97 0 -144 41 -144 133c0 23 6 61 15 101l63 295h85l-66 -302c-5 -19 -12 -62 -12 -80c0 -49 39 -72 90 -72c95 0 166 82 185 168l60 286h85zM187 627l12 55h269l-11 -55h-270z" />
    <glyph glyph-name="ubreve" unicode="&#x16d;" 
d="M520 517l-109 -517h-82l16 78h-2c-43 -59 -112 -90 -184 -90c-97 0 -144 41 -144 133c0 23 6 61 15 101l63 295h85l-66 -302c-5 -19 -12 -62 -12 -80c0 -49 39 -72 90 -72c95 0 166 82 185 168l60 286h85zM190 730h45c1 -61 34 -84 94 -84c65 0 98 24 117 84h45
c-12 -89 -78 -139 -166 -139c-89 0 -138 47 -135 139z" />
    <glyph glyph-name="uring" unicode="&#x16f;" 
d="M520 517l-109 -517h-82l16 78h-2c-43 -59 -112 -90 -184 -90c-97 0 -144 41 -144 133c0 23 6 61 15 101l63 295h85l-66 -302c-5 -19 -12 -62 -12 -80c0 -49 39 -72 90 -72c95 0 166 82 185 168l60 286h85zM210 680c0 61 52 113 113 113s113 -52 113 -113
s-52 -113 -113 -113s-113 52 -113 113zM255 680c0 -39 29 -68 68 -68s68 29 68 68s-29 68 -68 68s-68 -29 -68 -68z" />
    <glyph glyph-name="uhungarumlaut" unicode="&#x171;" 
d="M520 517l-109 -517h-82l16 78h-2c-43 -59 -112 -90 -184 -90c-97 0 -144 41 -144 133c0 23 6 61 15 101l63 295h85l-66 -302c-5 -19 -12 -62 -12 -80c0 -49 39 -72 90 -72c95 0 166 82 185 168l60 286h85zM359 589l93 143h113l-136 -143h-70zM193 589l93 143h113
l-136 -143h-70z" />
    <glyph glyph-name="uogonek" unicode="&#x173;" 
d="M329 0l16 78h-2c-43 -59 -112 -90 -184 -90c-97 0 -144 41 -144 133c0 23 6 61 15 101l63 295h85l-66 -302c-5 -19 -12 -62 -12 -80c0 -49 39 -72 90 -72c95 0 166 82 185 168l60 286h85l-109 -517h-22c-79 -58 -109 -91 -109 -124c0 -22 15 -36 38 -36c22 0 43 11 66 30
l28 -22c-30 -38 -66 -58 -115 -58c-47 0 -88 25 -88 75c0 49 46 87 120 135z" />
    <glyph glyph-name="wacute" unicode="&#x1e83;" horiz-adv-x="759" 
d="M762 517l-267 -517h-90l-26 402h-2l-185 -402h-90l-61 517h90l32 -411h2l186 411h96l25 -411h2l196 411h92zM360 589l93 143h113l-136 -143h-70z" />
    <glyph glyph-name="wcircumflex" unicode="&#x175;" horiz-adv-x="759" 
d="M762 517l-267 -517h-90l-26 402h-2l-185 -402h-90l-61 517h90l32 -411h2l186 411h96l25 -411h2l196 411h92zM260 589l133 143h86l75 -143h-74l-51 93l-87 -93h-82z" />
    <glyph glyph-name="wdieresis" unicode="&#x1e85;" horiz-adv-x="759" 
d="M762 517l-267 -517h-90l-26 402h-2l-185 -402h-90l-61 517h90l32 -411h2l186 411h96l25 -411h2l196 411h92zM446 602l21 104h89l-21 -104h-89zM283 602l21 104h89l-21 -104h-89z" />
    <glyph glyph-name="wgrave" unicode="&#x1e81;" horiz-adv-x="759" 
d="M762 517l-267 -517h-90l-26 402h-2l-185 -402h-90l-61 517h90l32 -411h2l186 411h96l25 -411h2l196 411h92zM396 732l67 -143h-67l-101 143h101z" />
    <glyph glyph-name="yacute" unicode="&#xfd;" horiz-adv-x="481" 
d="M505 517l-342 -605c-43 -67 -79 -122 -167 -122c-20 0 -43 5 -59 13l15 69c13 -8 34 -14 49 -14c39 0 60 23 80 56l52 86l-91 517h91l60 -411h2l217 411h93zM245 589l93 143h113l-136 -143h-70z" />
    <glyph glyph-name="ycircumflex" unicode="&#x177;" horiz-adv-x="481" 
d="M505 517l-342 -605c-43 -67 -79 -122 -167 -122c-20 0 -43 5 -59 13l15 69c13 -8 34 -14 49 -14c39 0 60 23 80 56l52 86l-91 517h91l60 -411h2l217 411h93zM135 589l133 143h86l75 -143h-74l-51 93l-87 -93h-82z" />
    <glyph glyph-name="ydieresis" unicode="&#xff;" horiz-adv-x="481" 
d="M505 517l-342 -605c-43 -67 -79 -122 -167 -122c-20 0 -43 5 -59 13l15 69c13 -8 34 -14 49 -14c39 0 60 23 80 56l52 86l-91 517h91l60 -411h2l217 411h93zM321 602l21 104h89l-21 -104h-89zM158 602l21 104h89l-21 -104h-89z" />
    <glyph glyph-name="ygrave" unicode="&#x1ef3;" horiz-adv-x="481" 
d="M505 517l-342 -605c-43 -67 -79 -122 -167 -122c-20 0 -43 5 -59 13l15 69c13 -8 34 -14 49 -14c39 0 60 23 80 56l52 86l-91 517h91l60 -411h2l217 411h93zM261 732l67 -143h-67l-101 143h101z" />
    <glyph glyph-name="zacute" unicode="&#x17a;" horiz-adv-x="444" 
d="M-53 0l12 64l360 378h-278l15 75h393l-13 -61l-363 -381h309l-14 -75h-421zM217 589l93 143h113l-136 -143h-70z" />
    <glyph glyph-name="zcaron" unicode="&#x17e;" horiz-adv-x="444" 
d="M-53 0l12 64l360 378h-278l15 75h393l-13 -61l-363 -381h309l-14 -75h-421zM430 732l-135 -143h-86l-77 143h76l51 -93l93 93h78z" />
    <glyph glyph-name="zdotaccent" unicode="&#x17c;" horiz-adv-x="444" 
d="M-53 0l12 64l360 378h-278l15 75h393l-13 -61l-363 -381h309l-14 -75h-421zM211 602l21 104h89l-21 -104h-89z" />
    <glyph glyph-name="grave.cap" unicode="&#xe000;" horiz-adv-x="222" 
d="M217 922l67 -143h-67l-101 143h101z" />
    <glyph glyph-name="acute" unicode="&#xb4;" horiz-adv-x="222" 
d="M177 589l93 143h113l-136 -143h-70z" />
    <glyph glyph-name="acute.cap" unicode="&#xe002;" horiz-adv-x="222" 
d="M177 779l93 143h113l-136 -143h-70z" />
    <glyph glyph-name="circumflex" unicode="&#x2c6;" horiz-adv-x="222" 
d="M70 589l133 143h86l75 -143h-74l-51 93l-87 -93h-82z" />
    <glyph glyph-name="circumflex.cap" unicode="&#xe004;" horiz-adv-x="222" 
d="M70 779l133 143h86l75 -143h-74l-51 93l-87 -93h-82z" />
    <glyph glyph-name="caron" unicode="&#x2c7;" horiz-adv-x="222" 
d="M403 732l-135 -143h-86l-77 143h76l51 -93l93 93h78z" />
    <glyph glyph-name="caron.cap" unicode="&#xe006;" horiz-adv-x="222" 
d="M403 922l-135 -143h-86l-77 143h76l51 -93l93 93h78z" />
    <glyph glyph-name="caron.alt" unicode="&#xe008;" horiz-adv-x="222" 
d="M195 571l53 143h113l-100 -143h-66z" />
    <glyph glyph-name="tilde" unicode="&#x2dc;" horiz-adv-x="222" 
d="M115 608h-52c16 47 41 109 99 109c27 0 52 -13 77 -25c25 -11 47 -24 64 -21c31 0 39 18 51 41h51c-16 -51 -41 -109 -102 -109l-141 46c-27 0 -39 -18 -47 -41z" />
    <glyph glyph-name="tilde.cap" unicode="&#xe009;" horiz-adv-x="222" 
d="M115 798h-52c16 47 41 109 99 109c27 0 52 -13 77 -25c25 -11 47 -24 64 -21c31 0 39 18 51 41h51c-16 -51 -41 -109 -102 -109l-141 46c-27 0 -39 -18 -47 -41z" />
    <glyph glyph-name="dieresis" unicode="&#xa8;" horiz-adv-x="222" 
d="M278 602l21 104h89l-21 -104h-89zM115 602l21 104h89l-21 -104h-89z" />
    <glyph glyph-name="dieresis.cap" unicode="&#xe00b;" horiz-adv-x="222" 
d="M278 792l21 104h89l-21 -104h-89zM115 792l21 104h89l-21 -104h-89z" />
    <glyph glyph-name="macron" unicode="&#xaf;" horiz-adv-x="222" 
d="M92 627l12 55h269l-11 -55h-270z" />
    <glyph glyph-name="macron.cap" unicode="&#xe00d;" horiz-adv-x="222" 
d="M92 817l12 55h269l-11 -55h-270z" />
    <glyph glyph-name="uni02C9" unicode="&#x2c9;" horiz-adv-x="222" 
d="M92 627l12 55h269l-11 -55h-270z" />
    <glyph glyph-name="breve" unicode="&#x2d8;" horiz-adv-x="222" 
d="M94 730h45c1 -61 34 -84 94 -84c65 0 98 24 117 84h45c-12 -89 -78 -139 -166 -139c-89 0 -138 47 -135 139z" />
    <glyph glyph-name="breve.cap" unicode="&#xe00f;" horiz-adv-x="222" 
d="M94 920h45c1 -61 34 -84 94 -84c65 0 98 24 117 84h45c-12 -89 -78 -139 -166 -139c-89 0 -138 47 -135 139z" />
    <glyph glyph-name="ring" unicode="&#x2da;" horiz-adv-x="222" 
d="M126 680c0 61 52 113 113 113s113 -52 113 -113s-52 -113 -113 -113s-113 52 -113 113zM171 680c0 -39 29 -68 68 -68s68 29 68 68s-29 68 -68 68s-68 -29 -68 -68z" />
    <glyph glyph-name="ring.cap" unicode="&#xe011;" horiz-adv-x="222" 
d="M126 860c0 61 52 113 113 113s113 -52 113 -113s-52 -113 -113 -113s-113 52 -113 113zM171 860c0 -39 29 -68 68 -68s68 29 68 68s-29 68 -68 68s-68 -29 -68 -68z" />
    <glyph glyph-name="hungarumlaut" unicode="&#x2dd;" horiz-adv-x="222" 
d="M219 589l93 143h113l-136 -143h-70zM53 589l93 143h113l-136 -143h-70z" />
    <glyph glyph-name="hungarumlaut.cap" unicode="&#xe013;" horiz-adv-x="222" 
d="M219 779l93 143h113l-136 -143h-70zM53 779l93 143h113l-136 -143h-70z" />
    <glyph glyph-name="dotaccent" unicode="&#x2d9;" horiz-adv-x="222" 
d="M175 602l21 104h89l-21 -104h-89z" />
    <glyph glyph-name="dotaccent.cap" unicode="&#xe015;" horiz-adv-x="222" 
d="M175 792l21 104h89l-21 -104h-89z" />
    <glyph glyph-name="cedilla" unicode="&#xb8;" horiz-adv-x="222" 
d="M-121 -188l18 43c22 -9 47 -15 70 -15c34 0 54 11 54 31c0 19 -16 30 -45 30c-15 0 -31 -3 -43 -8l-19 30l68 77h48l-51 -54l1 -1c11 4 22 5 33 5c50 0 83 -28 83 -73c0 -55 -51 -87 -119 -87c-33 0 -65 6 -98 22z" />
    <glyph glyph-name="ogonek" unicode="&#x2db;" horiz-adv-x="222" 
d="M15 0h60c-79 -58 -109 -91 -109 -124c0 -22 15 -36 38 -36c22 0 43 11 66 30l28 -22c-30 -38 -66 -58 -115 -58c-47 0 -88 25 -88 75c0 49 46 87 120 135z" />
    <glyph glyph-name="commaaccent" unicode="&#xe017;" horiz-adv-x="278" 
d="M-36 -138l19 88h111c-9 -51 -15 -82 -18 -91c-3 -10 -7 -20 -13 -29c-12 -20 -36 -39 -101 -40l8 35c26 6 38 12 46 37h-52z" />
    <glyph glyph-name="commaaccent.alt" unicode="&#xe01a;" horiz-adv-x="278" 
d="M295 714l-19 -88h-111c9 51 15 82 18 91c3 10 7 20 13 29c12 20 36 39 101 40l-8 -35c-26 -6 -38 -12 -46 -37h52z" />
    <glyph glyph-name="ellipsis" unicode="&#x2026;" horiz-adv-x="1000" 
d="M705 0l24 111h111l-24 -111h-111zM372 0l24 111h111l-24 -111h-111zM39 0l24 111h111l-24 -111h-111z" />
    <glyph glyph-name="uni00AD" unicode="&#xad;" horiz-adv-x="389" 
d="M26 238l16 80h290l-16 -80h-290z" />
    <glyph glyph-name="exclamdown" unicode="&#xa1;" horiz-adv-x="259" 
d="M225 517l-24 -111h-111l24 111h111zM-27 -198l47 223l90 308h46l-43 -308l-47 -223h-93z" />
    <glyph glyph-name="questiondown" unicode="&#xbf;" 
d="M373 517l-25 -111h-110l22 111h113zM346 25h85c-16 -143 -107 -235 -253 -235c-105 0 -197 65 -197 178c0 81 47 136 110 183c68 49 137 89 145 181h83c-19 -119 -68 -161 -161 -225c-44 -32 -87 -73 -87 -132c0 -64 47 -110 110 -110c100 0 149 67 165 160z" />
    <glyph glyph-name="quoteleft" unicode="&#x2018;" horiz-adv-x="278" 
d="M246 567l-24 -111h-111c27 113 26 245 166 258l-10 -48c-53 -8 -66 -54 -77 -99h56z" />
    <glyph glyph-name="quoteright" unicode="&#x2019;" horiz-adv-x="278" 
d="M138 603l24 111h111c-26 -111 -26 -247 -166 -258l10 48c54 8 64 54 77 99h-56z" />
    <glyph glyph-name="quotedblleft" unicode="&#x201c;" horiz-adv-x="426" 
d="M406 567l-24 -111h-111c27 113 26 245 166 258l-10 -48c-53 -8 -66 -54 -77 -99h56zM224 567l-24 -111h-111c27 113 26 245 166 258l-10 -48c-53 -8 -66 -54 -77 -99h56z" />
    <glyph glyph-name="quotedblright" unicode="&#x201d;" horiz-adv-x="426" 
d="M298 603l24 111h111c-26 -111 -26 -247 -166 -258l10 48c54 8 64 54 77 99h-56zM116 603l24 111h111c-26 -111 -26 -247 -166 -258l10 48c54 8 64 54 77 99h-56z" />
    <glyph glyph-name="quotesinglbase" unicode="&#x201a;" horiz-adv-x="278" 
d="M-2 0l24 111h111c-26 -111 -26 -247 -166 -258l10 48c54 8 64 54 77 99h-56z" />
    <glyph glyph-name="quotedblbase" unicode="&#x201e;" horiz-adv-x="426" 
d="M177 0l24 111h111c-26 -111 -26 -247 -166 -258l10 48c54 8 64 54 77 99h-56zM-5 0l24 111h111c-26 -111 -26 -247 -166 -258l10 48c54 8 64 54 77 99h-56z" />
    <glyph glyph-name="guilsinglleft" unicode="&#x2039;" horiz-adv-x="259" 
d="M153 114l-123 136l22 92l174 100l-21 -85l-120 -68l87 -90z" />
    <glyph glyph-name="guilsinglright" unicode="&#x203a;" horiz-adv-x="259" 
d="M92 442l123 -136l-22 -92l-174 -100l21 85l120 68l-87 90z" />
    <glyph glyph-name="guillemotleft" unicode="&#xab;" horiz-adv-x="463" 
d="M349 114l-123 136l22 92l174 100l-21 -85l-120 -68l87 -90zM153 114l-123 136l22 92l174 100l-21 -85l-120 -68l87 -90z" />
    <glyph glyph-name="guillemotright" unicode="&#xbb;" horiz-adv-x="463" 
d="M296 442l123 -136l-22 -92l-174 -100l21 85l120 68l-87 90zM100 442l123 -136l-22 -92l-174 -100l21 85l120 68l-87 90z" />
    <glyph glyph-name="endash" unicode="&#x2013;" horiz-adv-x="500" 
d="M-23 238l16 80h500l-16 -80h-500z" />
    <glyph glyph-name="emdash" unicode="&#x2014;" horiz-adv-x="1000" 
d="M107 238l16 80h740l-16 -80h-740z" />
    <glyph glyph-name="bullet" unicode="&#x2022;" horiz-adv-x="500" 
d="M72 357c0 99 79 178 178 178s179 -79 179 -178s-80 -179 -179 -179s-178 80 -178 179z" />
    <glyph glyph-name="periodcentered" unicode="&#xb7;" horiz-adv-x="278" 
d="M67 253c0 37 31 64 64 64c36 0 64 -28 64 -64c0 -37 -28 -64 -64 -64c-35 0 -64 29 -64 64z" />
    <glyph glyph-name="uni2219" unicode="&#x2219;" horiz-adv-x="278" 
d="M67 253c0 37 31 64 64 64c36 0 64 -28 64 -64c0 -37 -28 -64 -64 -64c-35 0 -64 29 -64 64z" />
    <glyph glyph-name="dagger" unicode="&#x2020;" 
d="M128 -155l126 597h-191l16 75h191l42 197h85l-42 -197h191l-16 -75h-191l-126 -597h-85z" />
    <glyph glyph-name="daggerdbl" unicode="&#x2021;" 
d="M128 -155l42 197h-191l16 75h191l68 325h-191l16 75h191l42 197h85l-42 -197h191l-16 -75h-191l-68 -325h191l-16 -75h-191l-42 -197h-85z" />
    <glyph glyph-name="section" unicode="&#xa7;" 
d="M520 555h-80c1 60 -29 101 -97 101c-51 0 -95 -32 -95 -77c0 -39 22 -66 47 -93c56 -57 114 -111 161 -175c23 -31 35 -57 35 -96c0 -88 -56 -151 -143 -162c19 -20 29 -62 29 -89c0 -113 -93 -159 -194 -162c-113 3 -176 81 -176 189h80c0 -69 37 -114 110 -114
c52 0 95 29 95 80c0 35 -27 76 -49 101l-134 145c-31 34 -63 87 -63 136c0 91 55 138 139 157c-16 23 -22 51 -22 79c0 103 88 156 182 156c105 0 183 -66 175 -176zM126 351c0 -40 32 -79 59 -107l70 -75c8 -8 43 -46 59 -65c56 12 97 40 97 100c0 75 -152 179 -193 241
c-13 0 -53 -22 -62 -31c-20 -17 -30 -38 -30 -63z" />
    <glyph glyph-name="paragraph" unicode="&#xb6;" horiz-adv-x="600" 
d="M142 -155l102 491c-123 0 -192 82 -171 186c27 129 127 192 267 192h238l-181 -869h-64l169 814h-126l-169 -814h-65z" />
    <glyph glyph-name="brokenbar" unicode="&#xa6;" horiz-adv-x="222" 
d="M145 661v-250h-68v250h68zM77 -89v250h68v-250h-68z" />
    <glyph glyph-name="copyright" unicode="&#xa9;" horiz-adv-x="800" 
d="M24 359c0 211 172 372 377 372c204 0 375 -161 375 -372c0 -215 -171 -376 -375 -376c-205 0 -377 161 -377 376zM92 359c0 -183 133 -321 309 -321c173 0 307 138 307 321c0 178 -134 317 -307 317c-176 0 -309 -139 -309 -317zM535 285h64c-21 -97 -94 -157 -186 -157
c-136 0 -222 98 -222 229c0 133 82 228 219 228c96 0 172 -53 188 -152h-63c-11 56 -57 97 -124 97c-99 0 -152 -75 -152 -171c0 -93 58 -176 154 -176c67 0 113 42 122 102z" />
    <glyph glyph-name="registered" unicode="&#xae;" horiz-adv-x="800" 
d="M24 359c0 211 172 372 377 372c204 0 375 -161 375 -372c0 -215 -171 -376 -375 -376c-205 0 -377 161 -377 376zM92 359c0 -183 133 -321 309 -321c173 0 307 138 307 321c0 179 -134 317 -307 317c-176 0 -309 -138 -309 -317zM255 139v437h169c104 0 153 -41 153 -125
c0 -79 -50 -112 -115 -119l125 -193h-73l-119 188h-72v-188h-68zM323 521v-139h71c60 0 115 3 115 72c0 58 -50 67 -96 67h-90z" />
    <glyph glyph-name="trademark" unicode="&#x2122;" horiz-adv-x="990" 
d="M926 714v-412h-68v344h-2l-135 -344h-43l-135 344h-2v-344h-68v412h105l123 -313l121 313h104zM390 714v-55h-129v-357h-68v357h-129v55h326z" />
    <glyph glyph-name="currency" unicode="&#xa4;" 
d="M25 555l49 49l56 -56c39 32 95 51 151 51c53 0 107 -19 143 -50l57 56l50 -51l-55 -55c35 -37 52 -92 52 -148s-17 -109 -52 -150l55 -56l-47 -47l-56 58c-39 -36 -92 -55 -148 -55c-59 0 -112 18 -152 54l-55 -58l-48 48l55 58c-33 40 -52 90 -52 146s17 111 54 148z
M281 524c-95 0 -168 -76 -168 -175c0 -97 74 -173 167 -173s163 79 163 175c0 93 -70 173 -162 173z" />
    <glyph glyph-name="Euro" unicode="&#x20ac;" 
d="M586 660l-42 -75c-41 35 -83 56 -139 56c-117 0 -186 -90 -223 -191h325l-34 -59h-308l-9 -57h299l-34 -59h-267c5 -119 53 -215 186 -215c75 0 126 32 185 73l-21 -101c-57 -33 -107 -49 -175 -49c-173 0 -254 131 -257 292h-78l33 59h47l8 57h-67l33 59h48
c43 147 150 270 313 270c68 0 121 -20 177 -60z" />
    <glyph glyph-name="cent" unicode="&#xa2;" 
d="M395 169h85c-31 -116 -116 -181 -239 -181l-22 -104h-39l23 107c-115 15 -172 95 -172 220c0 164 112 318 286 318l19 91h39l-20 -93c96 -12 156 -67 156 -174h-85c0 60 -33 96 -86 104l-84 -399c68 5 116 47 139 111zM116 211c0 -77 27 -139 102 -150l84 398
c-121 -8 -186 -135 -186 -248z" />
    <glyph glyph-name="sterling" unicode="&#xa3;" 
d="M26 -12l-29 75c75 59 125 107 125 184c0 24 -2 49 -10 80h-86l10 45h62c-11 41 -23 84 -23 127c0 133 116 232 242 232c149 0 227 -109 219 -246h-90c8 83 -33 171 -122 171c-92 0 -159 -71 -159 -167c0 -40 8 -80 23 -117h154l-10 -45h-130c7 -19 10 -45 10 -68
c0 -65 -67 -148 -134 -188v-2c29 15 77 27 112 27c31 0 57 -8 84 -16c27 -9 53 -22 85 -22c35 0 67 27 94 46l32 -72c-36 -25 -93 -49 -136 -49c-36 0 -71 12 -104 24c-35 12 -66 24 -101 24c-44 0 -81 -22 -118 -43z" />
    <glyph glyph-name="florin" unicode="&#x192;" 
d="M150 449h95l46 164c21 75 80 101 156 101c23 0 44 -4 65 -8l-20 -73c-12 5 -27 6 -40 6c-64 0 -75 -28 -96 -103l-24 -87h111l-18 -68h-111l-118 -415c-23 -87 -68 -131 -159 -131c-19 0 -37 2 -56 5l21 74c11 -3 23 -5 38 -4c48 7 66 43 77 84l110 387h-95z" />
    <glyph glyph-name="yen" unicode="&#xa5;" 
d="M170 0l36 174h-145l14 60h144l8 52l-8 23h-130l14 60h97l-110 345h98l101 -344l239 344h108l-249 -345h96l-13 -60h-129l-24 -33l-9 -42h147l-14 -60h-146l-36 -174h-89z" />
    <glyph glyph-name="ordfeminine" unicode="&#xaa;" horiz-adv-x="311" 
d="M135 606h-60c9 69 74 103 147 103c48 0 127 -20 127 -73c0 -15 -7 -37 -10 -53l-20 -83c-4 -17 -13 -43 -13 -58c0 -11 9 -12 17 -12c5 0 10 1 15 3l-8 -46c-9 -4 -23 -7 -34 -7c-31 0 -47 19 -44 46h-3c-21 -28 -58 -46 -97 -46c-71 0 -119 22 -119 93
c0 70 74 90 130 95c65 5 126 11 126 56c0 29 -35 35 -67 35c-43 0 -79 -14 -87 -53zM262 499l12 45h-2c-41 -34 -181 3 -179 -77c0 -25 27 -37 59 -37c73 4 98 25 110 69z" />
    <glyph glyph-name="ordmasculine" unicode="&#xba;" horiz-adv-x="344" 
d="M44 512c0 101 72 197 190 197c91 0 141 -46 141 -130c0 -101 -71 -199 -186 -199c-88 0 -146 43 -145 132zM104 513c0 -47 28 -83 85 -83c76 0 126 73 126 145c0 47 -25 84 -85 84c-83 0 -126 -81 -126 -146z" />
    <glyph glyph-name="onesuperior" unicode="&#xb9;" horiz-adv-x="370" 
d="M344 822l-89 -425h-66l65 321c-39 -13 -70 -17 -117 -17l9 50c72 0 128 32 151 71h47z" />
    <glyph glyph-name="twosuperior" unicode="&#xb2;" horiz-adv-x="370" 
d="M177 679h-68c13 89 63 150 163 150c82 0 130 -50 130 -119c0 -66 -50 -110 -107 -141l-62 -34c-68 -37 -94 -62 -97 -83h220l-10 -55h-284c2 80 36 129 122 176l71 39c59 33 79 57 79 97c0 38 -25 65 -65 65c-55 0 -84 -40 -92 -95z" />
    <glyph glyph-name="threesuperior" unicode="&#xb3;" horiz-adv-x="370" 
d="M264 775c-53 0 -80 -33 -85 -80h-67c6 77 64 135 155 135c78 0 133 -44 133 -112c0 -47 -33 -84 -86 -97v-2c44 -15 65 -50 65 -91c0 -68 -59 -140 -161 -140c-99 0 -151 52 -151 140h68c0 -53 32 -85 87 -85c52 0 89 33 89 86c0 43 -32 66 -80 66h-27l9 49h27
c51 0 94 18 94 69c0 37 -25 62 -70 62z" />
    <glyph glyph-name="fraction" unicode="&#x2044;" horiz-adv-x="167" 
d="M-166 -28l435 753h64l-435 -753h-64z" />
    <glyph glyph-name="uni2215" unicode="&#x2215;" horiz-adv-x="167" 
d="M-166 -28l435 753h64l-435 -753h-64z" />
    <glyph glyph-name="onehalf" unicode="&#xbd;" horiz-adv-x="834" 
d="M113 -28l435 753h64l-435 -753h-64zM298 705l-89 -425h-66l65 321c-39 -13 -70 -17 -117 -17l9 50c72 0 128 32 151 71h47zM537 282h-68c13 89 63 150 163 150c82 0 130 -50 130 -119c0 -66 -50 -110 -107 -141l-62 -34c-68 -37 -94 -62 -97 -83h220l-10 -55h-284
c2 80 36 129 122 176l71 39c59 33 79 57 79 97c0 38 -25 65 -65 65c-55 0 -84 -40 -92 -95z" />
    <glyph glyph-name="onethird" unicode="&#x2153;" horiz-adv-x="834" 
d="M117 -28l435 753h64l-435 -753h-64zM298 705l-89 -425h-66l65 321c-39 -13 -70 -17 -117 -17l9 50c72 0 128 32 151 71h47zM635 378c-53 0 -80 -33 -85 -80h-67c6 77 64 135 155 135c78 0 133 -44 133 -112c0 -47 -33 -84 -86 -97v-2c44 -15 65 -50 65 -91
c0 -68 -59 -140 -161 -140c-99 0 -151 52 -151 140h68c0 -53 32 -85 87 -85c52 0 89 33 89 86c0 43 -32 66 -80 66h-27l9 49h27c51 0 94 18 94 69c0 37 -25 62 -70 62z" />
    <glyph glyph-name="onequarter" unicode="&#xbc;" horiz-adv-x="834" 
d="M137 -28l435 753h64l-435 -753h-64zM298 705l-89 -425h-66l65 321c-39 -13 -70 -17 -117 -17l9 50c72 0 128 32 151 71h47zM725 157l-11 -55h-57l-20 -102h-66l20 102h-192l15 68l246 253h66l-57 -266h56zM640 334l-170 -177h133l39 177h-2z" />
    <glyph glyph-name="oneeighth" unicode="&#x215b;" horiz-adv-x="834" 
d="M127 -28l435 753h64l-435 -753h-64zM309 709l-91 -429h-68l65 308h-115l11 50c65 0 124 16 148 71h50zM438 111c0 65 50 106 103 119c-35 19 -53 45 -53 81c0 66 57 121 147 121c71 0 125 -41 125 -109c0 -56 -35 -84 -78 -99c42 -19 62 -50 62 -96
c0 -72 -66 -137 -160 -137s-146 49 -146 120zM554 311c0 -39 31 -62 66 -62c46 0 74 25 74 71c0 42 -32 61 -65 61c-43 0 -75 -29 -75 -70zM507 115c0 -49 35 -72 77 -72c54 0 91 36 91 87c0 48 -33 73 -79 73c-49 0 -89 -35 -89 -88z" />
    <glyph glyph-name="twothirds" unicode="&#x2154;" horiz-adv-x="834" 
d="M167 -28l435 753h64l-435 -753h-64zM144 562h-68c13 89 63 150 163 150c82 0 130 -50 130 -119c0 -66 -50 -110 -107 -141l-62 -34c-68 -37 -94 -62 -97 -83h220l-10 -55h-284c2 80 36 129 122 176l71 39c59 33 79 57 79 97c0 38 -25 65 -65 65c-55 0 -84 -40 -92 -95z
M645 378c-53 0 -80 -33 -85 -80h-67c6 77 64 135 155 135c78 0 133 -44 133 -112c0 -47 -33 -84 -86 -97v-2c44 -15 65 -50 65 -91c0 -68 -59 -140 -161 -140c-99 0 -151 52 -151 140h68c0 -53 32 -85 87 -85c52 0 89 33 89 86c0 43 -32 66 -80 66h-27l9 49h27
c51 0 94 18 94 69c0 37 -25 62 -70 62z" />
    <glyph glyph-name="threequarters" unicode="&#xbe;" horiz-adv-x="834" 
d="M185 -28l435 753h64l-435 -753h-64zM239 658c-53 0 -80 -33 -85 -80h-67c6 77 64 135 155 135c78 0 133 -44 133 -112c0 -47 -33 -84 -86 -97v-2c44 -15 65 -50 65 -91c0 -68 -59 -140 -161 -140c-99 0 -151 52 -151 140h68c0 -53 32 -85 87 -85c52 0 89 33 89 86
c0 43 -32 66 -80 66h-27l9 49h27c51 0 94 18 94 69c0 37 -25 62 -70 62zM735 157l-11 -55h-57l-20 -102h-66l20 102h-192l15 68l246 253h66l-57 -266h56zM650 334l-170 -177h133l39 177h-2z" />
    <glyph glyph-name="threeeighths" unicode="&#x215c;" horiz-adv-x="834" 
d="M170 -28l435 753h64l-435 -753h-64zM239 658c-53 0 -80 -33 -85 -80h-67c6 77 64 135 155 135c78 0 133 -44 133 -112c0 -47 -33 -84 -86 -97v-2c44 -15 65 -50 65 -91c0 -68 -59 -140 -161 -140c-99 0 -151 52 -151 140h68c0 -53 32 -85 87 -85c52 0 89 33 89 86
c0 43 -32 66 -80 66h-27l9 49h27c51 0 94 18 94 69c0 37 -25 62 -70 62zM448 111c0 65 50 106 103 119c-35 19 -53 45 -53 81c0 66 57 121 147 121c71 0 125 -41 125 -109c0 -56 -35 -84 -78 -99c42 -19 62 -50 62 -96c0 -72 -66 -137 -160 -137s-146 49 -146 120zM564 311
c0 -39 31 -62 66 -62c46 0 74 25 74 71c0 42 -32 61 -65 61c-43 0 -75 -29 -75 -70zM517 115c0 -49 35 -72 77 -72c54 0 91 36 91 87c0 48 -33 73 -79 73c-49 0 -89 -35 -89 -88z" />
    <glyph glyph-name="fiveeighths" unicode="&#x215d;" horiz-adv-x="834" 
d="M164 -28l435 753h64l-435 -753h-64zM63 470l78 233h232l-11 -55h-181l-38 -110l3 -1c27 20 54 26 86 26c79 0 119 -60 119 -123c0 -94 -74 -169 -172 -169c-80 0 -136 43 -139 128h68c0 -42 27 -74 74 -74c63 0 100 46 100 111c0 44 -26 76 -72 76c-40 0 -68 -19 -87 -42
h-60zM448 111c0 65 50 106 103 119c-35 19 -53 45 -53 81c0 66 57 121 147 121c71 0 125 -41 125 -109c0 -56 -35 -84 -78 -99c42 -19 62 -50 62 -96c0 -72 -66 -137 -160 -137s-146 49 -146 120zM564 311c0 -39 31 -62 66 -62c46 0 74 25 74 71c0 42 -32 61 -65 61
c-43 0 -75 -29 -75 -70zM517 115c0 -49 35 -72 77 -72c54 0 91 36 91 87c0 48 -33 73 -79 73c-49 0 -89 -35 -89 -88z" />
    <glyph glyph-name="seveneighths" unicode="&#x215e;" horiz-adv-x="834" 
d="M117 -28l435 753h64l-435 -753h-64zM113 646l12 57h288l-11 -52c-106 -101 -182 -216 -226 -371h-74c38 136 119 266 225 366h-214zM438 111c0 65 50 106 103 119c-35 19 -53 45 -53 81c0 66 57 121 147 121c71 0 125 -41 125 -109c0 -56 -35 -84 -78 -99
c42 -19 62 -50 62 -96c0 -72 -66 -137 -160 -137s-146 49 -146 120zM554 311c0 -39 31 -62 66 -62c46 0 74 25 74 71c0 42 -32 61 -65 61c-43 0 -75 -29 -75 -70zM507 115c0 -49 35 -72 77 -72c54 0 91 36 91 87c0 48 -33 73 -79 73c-49 0 -89 -35 -89 -88z" />
    <glyph glyph-name="perthousand" unicode="&#x2030;" horiz-adv-x="1074" 
d="M104 -28l435 753h64l-435 -753h-64zM48 501c0 107 57 208 174 208c83 0 120 -55 120 -134c0 -103 -52 -213 -172 -213c-90 0 -122 59 -122 139zM116 501c0 -40 18 -84 58 -84c67 0 103 93 100 153c0 40 -18 84 -58 84c-67 0 -103 -93 -100 -153zM723 127
c0 107 57 208 174 208c83 0 120 -55 120 -134c0 -103 -52 -213 -172 -213c-90 0 -122 59 -122 139zM373 127c0 107 57 208 174 208c83 0 120 -55 120 -134c0 -103 -52 -213 -172 -213c-90 0 -122 59 -122 139zM791 127c0 -40 18 -84 58 -84c67 0 103 93 100 153
c0 40 -18 84 -58 84c-67 0 -103 -93 -100 -153zM441 127c0 -40 18 -84 58 -84c67 0 103 93 100 153c0 40 -18 84 -58 84c-67 0 -103 -93 -100 -153z" />
    <glyph glyph-name="minus" unicode="&#x2212;" horiz-adv-x="600" 
d="M28 219v68h504v-68h-504z" />
    <glyph glyph-name="plusminus" unicode="&#xb1;" horiz-adv-x="600" 
d="M28 271v68h218v166h68v-166h218v-68h-218v-167h-68v167h-218zM28 0v68h504v-68h-504z" />
    <glyph glyph-name="multiply" unicode="&#xd7;" horiz-adv-x="600" 
d="M109 24l-48 48l182 182l-181 180l48 48l181 -180l180 180l48 -48l-180 -180l181 -182l-48 -48l-181 182z" />
    <glyph glyph-name="divide" unicode="&#xf7;" horiz-adv-x="600" 
d="M216 459c0 35 29 64 64 64s64 -29 64 -64c0 -32 -30 -64 -63 -64c-35 0 -65 29 -65 64zM28 219v68h504v-68h-504zM216 47c0 35 29 64 64 64s64 -29 64 -64c0 -32 -30 -64 -63 -64c-35 0 -65 29 -65 64z" />
    <glyph glyph-name="notequal" unicode="&#x2260;" horiz-adv-x="600" 
d="M535 388v-66h-174l-76 -138h250v-66h-289l-83 -146l-58 32l65 114h-139v66h178l76 138h-254v66h293l80 140l58 -32l-62 -108h135z" />
    <glyph glyph-name="approxequal" unicode="&#x2248;" horiz-adv-x="600" 
d="M147 417c89 0 197 -71 265 -71c43 0 64 31 71 75h65c-8 -72 -48 -143 -134 -143c-89 0 -197 71 -265 71c-43 0 -64 -31 -71 -75h-65c8 72 48 143 134 143zM147 227c89 0 197 -71 265 -71c43 0 64 31 71 75h65c-8 -72 -48 -143 -134 -143c-89 0 -197 71 -265 71
c-43 0 -64 -31 -71 -75h-65c8 72 48 143 134 143z" />
    <glyph glyph-name="lessequal" unicode="&#x2264;" horiz-adv-x="600" 
d="M532 528v-71l-418 -150l418 -150v-71l-504 188v66zM28 0v68h504v-68h-504z" />
    <glyph glyph-name="greaterequal" unicode="&#x2265;" horiz-adv-x="600" 
d="M38 457v71l504 -188v-66l-504 -188v71l418 150zM542 68v-68h-504v68h504z" />
    <glyph glyph-name="logicalnot" unicode="&#xac;" horiz-adv-x="600" 
d="M532 388v-279h-68v211h-436v68h504z" />
    <glyph glyph-name="Delta" unicode="&#x2206;" horiz-adv-x="664" 
d="M601 0h-652l424 714h104zM490 80l-80 553l-309 -553h389z" />
    <glyph glyph-name="uni0394" unicode="&#x394;" horiz-adv-x="664" 
d="M601 0h-652l424 714h104zM490 80l-80 553l-309 -553h389z" />
    <glyph glyph-name="Omega" unicode="&#x2126;" horiz-adv-x="759" 
d="M672 80l-17 -80h-291l15 72c137 72 253 189 253 357c0 122 -69 222 -207 222c-167 0 -286 -143 -286 -323c0 -96 41 -193 121 -256l-15 -72h-274l17 80h169l1 4c-72 59 -115 153 -115 244c0 233 164 403 383 403c202 0 302 -138 302 -299c0 -171 -109 -283 -227 -348
l-1 -4h172z" />
    <glyph glyph-name="uni03A9" unicode="&#x3a9;" horiz-adv-x="759" 
d="M672 80l-17 -80h-291l15 72c137 72 253 189 253 357c0 122 -69 222 -207 222c-167 0 -286 -143 -286 -323c0 -96 41 -193 121 -256l-15 -72h-274l17 80h169l1 4c-72 59 -115 153 -115 244c0 233 164 403 383 403c202 0 302 -138 302 -299c0 -171 -109 -283 -227 -348
l-1 -4h172z" />
    <glyph glyph-name="mu" unicode="&#xb5;" 
d="M521 517l-109 -517h-82l16 78h-2c-54 -68 -115 -90 -171 -90c-43 0 -74 16 -92 35h-2l-47 -221h-85l149 715h85l-66 -302c-7 -33 -12 -57 -12 -80c0 -49 39 -72 89 -72c93 0 166 82 184 168l60 286h85z" />
    <glyph glyph-name="uni03BC" unicode="&#x3bc;" 
d="M521 517l-109 -517h-82l16 78h-2c-54 -68 -115 -90 -171 -90c-43 0 -74 16 -92 35h-2l-47 -221h-85l149 715h85l-66 -302c-7 -33 -12 -57 -12 -80c0 -49 39 -72 89 -72c93 0 166 82 184 168l60 286h85z" />
    <glyph glyph-name="pi" unicode="&#x3c0;" horiz-adv-x="658" 
d="M462 442h-237l-94 -442h-85l94 442h-105l16 75h615l-16 -75h-103l-70 -327c-2 -8 -3 -16 -3 -22c0 -23 14 -31 36 -31c10 0 24 2 36 5l-14 -66c-21 -8 -48 -13 -71 -13c-48 0 -78 23 -78 71c0 10 2 24 5 37z" />
    <glyph glyph-name="degree" unicode="&#xb0;" horiz-adv-x="400" 
d="M95 561c0 83 65 148 148 148s148 -65 148 -148s-65 -148 -148 -148s-148 65 -148 148zM145 561c0 -56 42 -98 98 -98s98 42 98 98s-42 98 -98 98s-98 -42 -98 -98z" />
    <glyph glyph-name="afii61289" unicode="&#x2113;" horiz-adv-x="500" 
d="M466 617c0 -118 -111 -242 -245 -344c-32 -138 -34 -159 -34 -173c0 -42 27 -55 52 -55c28 0 57 11 100 41h2l20 -46c-50 -37 -93 -54 -143 -54c-66 0 -110 35 -110 100c0 15 2 34 24 134l-68 -58h-2l-23 46l108 83l55 258c24 116 87 172 164 172c59 0 100 -44 100 -104z
M399 613c0 31 -17 54 -41 54c-31 0 -59 -25 -75 -101l-47 -220c69 63 163 175 163 267z" />
    <glyph glyph-name="estimated" unicode="&#x212e;" horiz-adv-x="760" 
d="M719 348h-527v-236c51 -51 113 -77 189 -77c108 0 187 47 252 157l46 -28c-80 -124 -161 -176 -298 -176c-205 0 -337 159 -337 360c0 203 132 361 337 361c201 0 337 -149 338 -361zM192 396h380v189c-55 52 -119 78 -192 78c-75 0 -137 -27 -188 -78v-189z" />
    <glyph glyph-name="eng" unicode="&#x14b;" 
d="M485 295l-74 -345c-23 -107 -76 -148 -166 -148c-20 0 -45 2 -63 7l15 74c18 -4 32 -6 51 -6c39 0 66 19 81 87l74 338c4 20 12 62 12 80c0 49 -39 72 -90 72c-65 0 -161 -52 -185 -168l-60 -286h-85l109 517h82l-16 -78h2c43 59 112 90 184 90c97 0 144 -41 144 -133
c0 -23 -6 -61 -15 -101z" />
    <glyph glyph-name="Eng" unicode="&#x14a;" horiz-adv-x="722" 
d="M7 0l151 714h102l255 -591h2l119 591h92l-160 -754c-25 -117 -83 -158 -184 -158c-21 0 -54 3 -75 9l17 79c22 -5 45 -8 65 -8c44 0 74 17 90 93l2 11l-261 601h-2l-121 -587h-92z" />
    <glyph glyph-name="infinity" unicode="&#x221e;" horiz-adv-x="759" 
d="M696 255c0 -88 -55 -157 -147 -157c-76 0 -140 56 -190 109c-57 -51 -110 -108 -191 -108c-89 0 -148 65 -148 153c0 85 54 156 145 156c82 0 140 -60 194 -114c53 53 108 116 189 116c90 0 148 -68 148 -155zM631 252c0 51 -30 90 -83 90c-56 0 -109 -56 -147 -91
c42 -39 88 -85 150 -85c51 0 80 38 80 86zM315 251c-37 34 -96 90 -150 90c-51 0 -80 -42 -80 -89c0 -51 31 -86 83 -86c54 0 111 49 147 85z" />
    <glyph glyph-name="partialdiff" unicode="&#x2202;" horiz-adv-x="511" 
d="M450 362c0 -153 -35 -374 -233 -374c-126 0 -204 105 -204 225c0 117 75 214 199 214c63 0 121 -29 161 -76l1 45c0 107 -41 262 -173 262c-45 0 -79 -20 -114 -47l-41 50c44 39 93 60 153 60c196 0 251 -198 251 -359zM369 280c-35 47 -87 85 -147 85
c-89 0 -134 -75 -134 -155c0 -77 43 -162 131 -162c111 0 150 143 150 232z" />
    <glyph glyph-name="integral" unicode="&#x222b;" horiz-adv-x="554" 
d="M420 730c0 -24 -19 -38 -42 -38c-32 0 -40 43 -55 43c-41 0 -31 -125 -31 -141l1 -39v-512c0 -92 6 -256 -126 -256c-30 0 -69 16 -69 52c0 20 18 36 37 36c31 0 38 -42 52 -42c35 0 28 139 28 151v22v495c0 95 -23 285 125 285c35 0 80 -15 80 -56z" />
    <glyph glyph-name="radical" unicode="&#x221a;" horiz-adv-x="504" 
d="M485 786l-211 -1000h-75l-162 334l-47 -22l-28 60l112 52l151 -317l184 893h76z" />
    <glyph glyph-name="summation" unicode="&#x2211;" horiz-adv-x="615" 
d="M589 -214h-564v64l322 440l-308 432v64h538v-72h-437l301 -424l-319 -432h467v-72z" />
    <glyph glyph-name="product" unicode="&#x220f;" horiz-adv-x="719" 
d="M650 -214h-78v928h-426v-928h-78v1000h582v-1000z" />
    <glyph glyph-name="lozenge" unicode="&#x25ca;" horiz-adv-x="593" 
d="M504 356l-172 -391h-72l-171 391l171 391h72zM428 356l-132 315l-131 -315l131 -315z" />
    <glyph glyph-name="f_i" unicode="&#xf001;" horiz-adv-x="519" 
d="M23 0l96 442h-88l15 75h88c27 104 32 205 167 205c24 0 48 -1 71 -8l-14 -72c-15 3 -28 5 -40 5c-83 0 -82 -67 -100 -130h99l-14 -75h-100l-95 -442h-85zM527 714l-22 -104h-86l22 104h86zM292 0l108 517h85l-108 -517h-85z" />
    <glyph glyph-name="f_l" unicode="&#xf002;" horiz-adv-x="519" 
d="M23 0l96 442h-88l15 75h88c27 104 32 205 167 205c24 0 48 -1 71 -8l-14 -72c-15 3 -28 5 -40 5c-83 0 -82 -67 -100 -130h99l-14 -75h-100l-95 -442h-85zM292 0l150 714h85l-150 -714h-85z" />
    <glyph glyph-name="uniF8FF" unicode="&#xf8ff;" horiz-adv-x="512" 
d="M512 718h-512v-718h512v718zM462 50h-412v617h412v-617zM225 234h46c0 35 2 59 6 72s18 30 43 52c51 47 63 77 63 120c0 79 -53 131 -124 131c-72 0 -126 -42 -135 -137l50 -8c8 68 41 95 82 95s76 -37 76 -85c0 -25 -7 -42 -50 -83c-22 -22 -37 -42 -46 -59
s-13 -44 -13 -81zM222 117h56v67h-56v-67z" />
    <glyph glyph-name="uni2010" unicode="&#x2010;" horiz-adv-x="389" 
d="M26 238l16 80h290l-16 -80h-290z" />
    <glyph glyph-name="afii00208" unicode="&#x2015;" horiz-adv-x="1000" 
d="M77 238l16 80h800l-16 -80h-800z" />
    <glyph glyph-name="interrobang" unicode="&#x203d;" 
d="M378 714l-13 -64c98 -11 148 -78 148 -148c0 -77 -52 -127 -110 -168c-98 -70 -115 -88 -125 -131l-6 -26h-81l56 317l18 85c-50 -8 -91 -44 -100 -93h-81c17 85 87 153 196 164l13 64h85zM277 313c20 26 43 44 81 72c52 38 70 64 70 113c0 42 -29 80 -78 84l-18 -88z
M141 0l24 111h111l-24 -111h-111z" />
    <glyph glyph-name="zero.superior" unicode="&#x2070;" horiz-adv-x="370" 
d="M273 829c85 0 130 -51 130 -144c0 -134 -69 -297 -196 -297c-85 0 -130 52 -130 145c0 134 69 296 196 296zM211 444c75 0 123 131 123 240c0 61 -26 89 -65 89c-75 0 -123 -130 -123 -239c0 -61 26 -90 65 -90z" />
    <glyph glyph-name="four.superior" unicode="&#x2074;" horiz-adv-x="370" 
d="M385 554l-11 -55h-57l-20 -102h-66l20 102h-192l15 68l246 253h66l-57 -266h56zM300 731l-170 -177h133l39 177h-2z" />
    <glyph glyph-name="five.superior" unicode="&#x2075;" horiz-adv-x="370" 
d="M93 587l78 233h232l-11 -55h-181l-38 -110l3 -1c27 20 54 26 86 26c79 0 119 -60 119 -123c0 -94 -74 -169 -172 -169c-80 0 -136 43 -139 128h68c0 -42 27 -74 74 -74c63 0 100 46 100 111c0 44 -26 76 -72 76c-40 0 -68 -19 -87 -42h-60z" />
    <glyph glyph-name="six.superior" unicode="&#x2076;" horiz-adv-x="370" 
d="M280 829c77 0 119 -42 126 -109h-66c-5 36 -28 55 -64 55c-68 0 -102 -73 -116 -144l1 -2c24 26 57 45 97 45c67 0 121 -42 121 -118c0 -91 -62 -168 -161 -168c-102 0 -132 76 -132 154c0 111 53 287 194 287zM245 623c-56 0 -92 -45 -92 -102c0 -46 21 -80 68 -80
c56 0 91 57 91 111c0 39 -22 71 -67 71z" />
    <glyph glyph-name="seven.superior" unicode="&#x2077;" horiz-adv-x="370" 
d="M126 763l12 57h288l-11 -52c-106 -101 -182 -216 -226 -371h-74c38 136 119 266 225 366h-214z" />
    <glyph glyph-name="eight.superior" unicode="&#x2078;" horiz-adv-x="370" 
d="M75 508c0 65 50 106 103 119c-35 19 -53 45 -53 81c0 66 57 121 147 121c71 0 125 -41 125 -109c0 -56 -35 -84 -78 -99c42 -19 62 -50 62 -96c0 -72 -66 -137 -160 -137s-146 49 -146 120zM191 708c0 -39 31 -62 66 -62c46 0 74 25 74 71c0 42 -32 61 -65 61
c-43 0 -75 -29 -75 -70zM144 512c0 -49 35 -72 77 -72c54 0 91 36 91 87c0 48 -33 73 -79 73c-49 0 -89 -35 -89 -88z" />
    <glyph glyph-name="nine.superior" unicode="&#x2079;" horiz-adv-x="370" 
d="M70 497h66c5 -36 27 -55 65 -55c70 0 102 72 115 144l-1 2c-24 -26 -57 -45 -97 -45c-67 0 -121 42 -121 118c0 91 62 168 161 168c102 0 132 -76 132 -154c0 -112 -53 -287 -193 -287c-79 0 -120 42 -127 109zM231 594c56 0 92 45 92 102c0 46 -21 80 -68 80
c-56 0 -91 -57 -91 -111c0 -39 22 -71 67 -71z" />
    <glyph glyph-name="plus.superior" unicode="&#x207a;" horiz-adv-x="400" 
d="M221 583l26 124h63l-26 -124h128l-13 -62h-128l-26 -124h-63l26 124h-128l13 62h128z" />
    <glyph glyph-name="minus.superior" unicode="&#x207b;" horiz-adv-x="250" 
d="M76 530l13 64h180l-13 -64h-180z" />
    <glyph glyph-name="equal.superior" unicode="&#x207c;" horiz-adv-x="400" 
d="M422 643l-13 -62h-319l13 62h319zM398 519l-13 -62h-319l13 62h319z" />
    <glyph glyph-name="parenleft.superior" unicode="&#x207d;" horiz-adv-x="190" 
d="M238 876h59c-90 -106 -143 -227 -143 -363c0 -65 11 -131 34 -195h-53c-29 66 -48 135 -48 210c0 142 61 251 151 348z" />
    <glyph glyph-name="parenright.superior" unicode="&#x207e;" horiz-adv-x="190" 
d="M63 318h-59c90 106 143 227 143 363c0 65 -11 131 -34 195h53c29 -66 48 -135 48 -210c0 -142 -61 -251 -151 -348z" />
    <glyph glyph-name="n.superior" unicode="&#x207f;" horiz-adv-x="370" 
d="M57 397l67 313h66l-10 -46c29 34 64 55 111 55c66 0 98 -40 98 -87c0 -10 -2 -28 -5 -44l-41 -191h-67l39 184c3 16 5 31 5 39c0 26 -17 44 -52 44c-54 0 -97 -41 -108 -93l-37 -174h-66z" />
    <glyph glyph-name="zero.inferior" unicode="&#x2080;" horiz-adv-x="370" 
d="M157 263c85 0 130 -51 130 -144c0 -134 -69 -297 -196 -297c-85 0 -130 52 -130 145c0 134 69 296 196 296zM95 -122c75 0 123 131 123 240c0 61 -26 89 -65 89c-75 0 -123 -130 -123 -239c0 -61 26 -90 65 -90z" />
    <glyph glyph-name="one.inferior" unicode="&#x2081;" horiz-adv-x="370" 
d="M228 256l-89 -425h-66l65 321c-39 -13 -70 -17 -117 -17l9 50c72 0 128 32 151 71h47z" />
    <glyph glyph-name="two.inferior" unicode="&#x2082;" horiz-adv-x="370" 
d="M61 113h-68c13 89 63 150 163 150c82 0 130 -50 130 -119c0 -66 -50 -110 -107 -141l-62 -34c-68 -37 -94 -62 -97 -83h220l-10 -55h-284c2 80 36 129 122 176l71 39c59 33 79 57 79 97c0 38 -25 65 -65 65c-55 0 -84 -40 -92 -95z" />
    <glyph glyph-name="three.inferior" unicode="&#x2083;" horiz-adv-x="370" 
d="M148 209c-53 0 -80 -33 -85 -80h-67c6 77 64 135 155 135c78 0 133 -44 133 -112c0 -47 -33 -84 -86 -97v-2c44 -15 65 -50 65 -91c0 -68 -59 -140 -161 -140c-99 0 -151 52 -151 140h68c0 -53 32 -85 87 -85c52 0 89 33 89 86c0 43 -32 66 -80 66h-27l9 49h27
c51 0 94 18 94 69c0 37 -25 62 -70 62z" />
    <glyph glyph-name="four.inferior" unicode="&#x2084;" horiz-adv-x="370" 
d="M269 -12l-11 -55h-57l-20 -102h-66l20 102h-192l15 68l246 253h66l-57 -266h56zM184 165l-170 -177h133l39 177h-2z" />
    <glyph glyph-name="five.inferior" unicode="&#x2085;" horiz-adv-x="370" 
d="M-23 21l78 233h232l-11 -55h-181l-38 -110l3 -1c27 20 54 26 86 26c79 0 119 -60 119 -123c0 -94 -74 -169 -172 -169c-80 0 -136 43 -139 128h68c0 -42 27 -74 74 -74c63 0 100 46 100 111c0 44 -26 76 -72 76c-40 0 -68 -19 -87 -42h-60z" />
    <glyph glyph-name="six.inferior" unicode="&#x2086;" horiz-adv-x="370" 
d="M164 263c77 0 119 -42 126 -109h-66c-5 36 -28 55 -64 55c-68 0 -102 -73 -116 -144l1 -2c24 26 57 45 97 45c67 0 121 -42 121 -118c0 -91 -62 -168 -161 -168c-102 0 -132 76 -132 154c0 111 53 287 194 287zM129 57c-56 0 -92 -45 -92 -102c0 -46 21 -80 68 -80
c56 0 91 57 91 111c0 39 -22 71 -67 71z" />
    <glyph glyph-name="seven.inferior" unicode="&#x2087;" horiz-adv-x="370" 
d="M10 197l12 57h288l-11 -52c-106 -101 -182 -216 -226 -371h-74c38 136 119 266 225 366h-214z" />
    <glyph glyph-name="eight.inferior" unicode="&#x2088;" horiz-adv-x="370" 
d="M-41 -58c0 65 50 106 103 119c-35 19 -53 45 -53 81c0 66 57 121 147 121c71 0 125 -41 125 -109c0 -56 -35 -84 -78 -99c42 -19 62 -50 62 -96c0 -72 -66 -137 -160 -137s-146 49 -146 120zM75 142c0 -39 31 -62 66 -62c46 0 74 25 74 71c0 42 -32 61 -65 61
c-43 0 -75 -29 -75 -70zM28 -54c0 -49 35 -72 77 -72c54 0 91 36 91 87c0 48 -33 73 -79 73c-49 0 -89 -35 -89 -88z" />
    <glyph glyph-name="nine.inferior" unicode="&#x2089;" horiz-adv-x="370" 
d="M-46 -69h66c5 -36 27 -55 65 -55c70 0 102 72 115 144l-1 2c-24 -26 -57 -45 -97 -45c-67 0 -121 42 -121 118c0 91 62 168 161 168c102 0 132 -76 132 -154c0 -112 -53 -287 -193 -287c-79 0 -120 42 -127 109zM115 28c56 0 92 45 92 102c0 46 -21 80 -68 80
c-56 0 -91 -57 -91 -111c0 -39 22 -71 67 -71z" />
    <glyph glyph-name="plus.inferior" unicode="&#x208a;" horiz-adv-x="400" 
d="M105 17l26 124h63l-26 -124h128l-13 -62h-128l-26 -124h-63l26 124h-128l13 62h128z" />
    <glyph glyph-name="minus.inferior" unicode="&#x208b;" horiz-adv-x="250" 
d="M-40 -36l13 64h180l-13 -64h-180z" />
    <glyph glyph-name="equal.inferior" unicode="&#x208c;" horiz-adv-x="400" 
d="M306 77l-13 -62h-319l13 62h319zM282 -47l-13 -62h-319l13 62h319z" />
    <glyph glyph-name="parenleft.inferior" unicode="&#x208d;" horiz-adv-x="190" 
d="M122 310h59c-90 -106 -143 -227 -143 -363c0 -65 11 -131 34 -195h-53c-29 66 -48 135 -48 210c0 142 61 251 151 348z" />
    <glyph glyph-name="parenright.inferior" unicode="&#x208e;" horiz-adv-x="190" 
d="M-53 -248h-59c90 106 143 227 143 363c0 65 -11 131 -34 195h53c29 -66 48 -135 48 -210c0 -142 -61 -251 -151 -348z" />
    <glyph glyph-name="afii61248" unicode="&#x2105;" horiz-adv-x="834" 
d="M164 -28l435 753h64l-435 -753h-64zM381 568h-71v14c0 42 -22 70 -59 70c-79 0 -119 -133 -119 -233c0 -63 28 -94 70 -94c45 0 74 28 85 89h72c-21 -102 -80 -146 -163 -146c-86 0 -137 57 -137 151c0 133 57 290 195 290c79 0 128 -44 128 -118c0 -7 0 -15 -1 -23z
M641 429c89 0 139 -52 139 -147c0 -134 -76 -294 -205 -294c-89 0 -139 52 -139 147c0 134 76 294 205 294zM578 44c76 0 129 130 129 237c0 63 -29 92 -69 92c-76 0 -129 -130 -129 -237c0 -63 29 -92 69 -92z" />
    <glyph glyph-name="afii61352" unicode="&#x2116;" horiz-adv-x="1000" 
d="M520 0h-104l-199 556h-2l-118 -556h-90l148 697h101l201 -562h2l119 562h90zM770 132c-84 0 -131 50 -131 122c0 92 67 167 166 167c84 0 132 -49 132 -124c0 -97 -64 -165 -167 -165zM864 299c0 46 -24 67 -61 67c-64 0 -91 -56 -91 -112c0 -46 24 -67 64 -67
c65 0 88 57 88 112zM874 0h-280l13 63h280z" />
    <glyph glyph-name="published" unicode="&#x2117;" horiz-adv-x="800" 
d="M24 359c0 211 172 372 377 372c204 0 375 -161 375 -372c0 -215 -171 -376 -375 -376c-205 0 -377 161 -377 376zM92 359c0 -183 133 -321 309 -321c173 0 307 138 307 321c0 179 -134 317 -307 317c-176 0 -309 -138 -309 -317zM265 139v437h169c104 0 153 -49 153 -127
c0 -80 -50 -130 -147 -130h-107v-180h-68zM333 521v-147h100c62 0 86 25 86 74c0 45 -25 73 -88 73h-98z" />
    <glyph glyph-name="uni0374" unicode="&#x374;" horiz-adv-x="222" 
d="M261 732l-93 -171h-69l55 171h107z" />
    <glyph glyph-name="uni0375" unicode="&#x375;" horiz-adv-x="222" 
d="M-78 -203l93 171h69l-55 -171h-107z" />
    <glyph glyph-name="uni037E" unicode="&#x37e;" horiz-adv-x="278" 
d="M234 517l-24 -111h-111l24 111h111zM15 0l24 111h111c-26 -111 -26 -247 -166 -258l10 48c54 8 64 54 77 99h-56z" />
    <glyph glyph-name="tonos" unicode="&#x384;" horiz-adv-x="241" 
d="M203 589l73 143h110l-115 -143h-68z" />
    <glyph glyph-name="tonos.cap" unicode="&#xe01b;" horiz-adv-x="241" 
d="M203 571l73 143h110l-115 -143h-68z" />
    <glyph glyph-name="dieresistonos" unicode="&#x385;" horiz-adv-x="332" 
d="M218 589l73 143h110l-115 -143h-68zM386 602l21 104h89l-21 -104h-89zM105 602l21 104h89l-21 -104h-89z" />
    <glyph glyph-name="Alphatonos" unicode="&#x386;" horiz-adv-x="667" 
d="M51 0h-106l430 714h104l129 -714h-98l-33 215h-301zM219 295h246l-53 335h-2zM87 571l73 143h110l-115 -143h-68z" />
    <glyph glyph-name="anoteleia" unicode="&#x387;" horiz-adv-x="278" 
d="M234 517l-23 -111h-112l23 111h112z" />
    <glyph glyph-name="Epsilontonos" unicode="&#x388;" horiz-adv-x="712" 
d="M108 0l151 714h492l-16 -80h-397l-48 -227h370l-16 -80h-371l-52 -247h402l-18 -80h-497zM-1 571l73 143h110l-115 -143h-68z" />
    <glyph glyph-name="Etatonos" unicode="&#x389;" horiz-adv-x="821" 
d="M106 0l150 714h96l-65 -307h374l64 307h95l-150 -714h-95l69 327h-374l-69 -327h-95zM-1 571l73 143h110l-115 -143h-68z" />
    <glyph glyph-name="Iotatonos" unicode="&#x38a;" horiz-adv-x="358" 
d="M106 0l150 714h95l-150 -714h-95zM-1 571l73 143h110l-115 -143h-68z" />
    <glyph glyph-name="Omicrontonos" unicode="&#x38c;" horiz-adv-x="839" 
d="M118 296c0 231 148 435 392 435c185 0 298 -139 298 -316c0 -224 -146 -432 -384 -432c-195 0 -306 116 -306 313zM213 296c0 -139 68 -233 211 -233c189 0 289 181 289 352c0 132 -71 236 -203 236c-199 0 -297 -183 -297 -355zM-1 571l73 143h110l-115 -143h-68z" />
    <glyph glyph-name="Upsilontonos" unicode="&#x38e;" horiz-adv-x="781" 
d="M363 0l61 287l-188 427h101l146 -346l271 346h110l-346 -427l-62 -287h-93zM-1 571l73 143h110l-115 -143h-68z" />
    <glyph glyph-name="Omegatonos" unicode="&#x38f;" horiz-adv-x="839" 
d="M752 80l-17 -80h-291l15 72c137 72 253 189 253 357c0 122 -69 222 -207 222c-167 0 -286 -143 -286 -323c0 -96 41 -193 121 -256l-15 -72h-274l17 80h169l1 4c-72 59 -115 153 -115 244c0 233 164 403 383 403c202 0 302 -138 302 -299c0 -171 -109 -283 -227 -348
l-1 -4h172zM-1 571l73 143h110l-115 -143h-68z" />
    <glyph glyph-name="iotadieresistonos" unicode="&#x390;" horiz-adv-x="319" 
d="M80 -12c-48 0 -72 31 -72 75c0 10 2 21 4 31l89 423h85l-76 -355c-5 -21 -14 -60 -14 -74c0 -26 13 -32 28 -32c8 0 22 4 30 7l-13 -63c-13 -7 -43 -12 -61 -12zM101 589l73 143h110l-115 -143h-68zM269 602l21 104h89l-21 -104h-89zM-12 602l21 104h89l-21 -104h-89z
" />
    <glyph glyph-name="Alpha" unicode="&#x391;" horiz-adv-x="667" 
d="M51 0h-106l430 714h104l129 -714h-98l-33 215h-301zM219 295h246l-53 335h-2z" />
    <glyph glyph-name="Beta" unicode="&#x392;" horiz-adv-x="685" 
d="M7 0l149 714h287c140 0 199 -63 199 -171c0 -79 -52 -158 -136 -172v-2c65 -19 107 -72 107 -148c0 -136 -112 -221 -253 -221h-353zM183 407h212c100 0 152 47 152 136c0 84 -81 91 -140 91h-176zM115 80h230c47 0 173 10 173 141c0 91 -70 106 -147 106h-204z" />
    <glyph glyph-name="Gamma" unicode="&#x393;" horiz-adv-x="587" 
d="M102 0h-95l150 714h469l-17 -80h-373z" />
    <glyph glyph-name="Epsilon" unicode="&#x395;" horiz-adv-x="611" 
d="M7 0l151 714h492l-16 -80h-397l-48 -227h370l-16 -80h-371l-52 -247h402l-18 -80h-497z" />
    <glyph glyph-name="Zeta" unicode="&#x396;" horiz-adv-x="611" 
d="M-38 0l17 79l536 555h-409l20 80h521l-17 -81l-540 -553h456l-17 -80h-567z" />
    <glyph glyph-name="Eta" unicode="&#x397;" horiz-adv-x="722" 
d="M7 0l150 714h96l-65 -307h374l64 307h95l-150 -714h-95l69 327h-374l-69 -327h-95z" />
    <glyph glyph-name="Theta" unicode="&#x398;" horiz-adv-x="759" 
d="M38 296c0 231 148 435 392 435c185 0 298 -139 298 -316c0 -224 -146 -432 -384 -432c-195 0 -306 116 -306 313zM133 296c0 -139 68 -233 211 -233c189 0 289 181 289 352c0 132 -71 236 -203 236c-199 0 -297 -183 -297 -355zM224 328l17 80h300l-17 -80h-300z" />
    <glyph glyph-name="Iota" unicode="&#x399;" horiz-adv-x="259" 
d="M7 0l150 714h95l-150 -714h-95z" />
    <glyph glyph-name="Kappa" unicode="&#x39a;" horiz-adv-x="667" 
d="M7 0l151 714h95l-75 -352l2 -2l404 354h127l-344 -294l229 -420h-105l-195 362l-143 -121l-51 -241h-95z" />
    <glyph glyph-name="Lambda" unicode="&#x39b;" horiz-adv-x="632" 
d="M-70 0l430 714h104l129 -714h-98l-98 630h-2l-359 -630h-106z" />
    <glyph glyph-name="Mu" unicode="&#x39c;" horiz-adv-x="870" 
d="M7 0l150 714h132l95 -614h2l353 614h132l-151 -714h-91l146 625h-2l-364 -625h-91l-93 625h-2l-125 -625h-91z" />
    <glyph glyph-name="Nu" unicode="&#x39d;" horiz-adv-x="722" 
d="M7 0l151 714h102l255 -591h2l119 591h92l-151 -714h-102l-253 587h-2l-121 -587h-92z" />
    <glyph glyph-name="Xi" unicode="&#x39e;" horiz-adv-x="570" 
d="M116 634l17 80h476l-17 -80h-476zM85 327l17 80h408l-17 -80h-408zM-28 0l17 80h496l-17 -80h-496z" />
    <glyph glyph-name="Omicron" unicode="&#x39f;" horiz-adv-x="759" 
d="M38 296c0 231 148 435 392 435c185 0 298 -139 298 -316c0 -224 -146 -432 -384 -432c-195 0 -306 116 -306 313zM133 296c0 -139 68 -233 211 -233c189 0 289 181 289 352c0 132 -71 236 -203 236c-199 0 -297 -183 -297 -355z" />
    <glyph glyph-name="Pi" unicode="&#x3a0;" horiz-adv-x="724" 
d="M7 0l151 714h559l-151 -714h-95l134 634h-369l-134 -634h-95z" />
    <glyph glyph-name="Rho" unicode="&#x3a1;" horiz-adv-x="648" 
d="M7 0l149 714h281c137 0 212 -66 212 -197c0 -89 -62 -225 -273 -225h-212l-62 -292h-95zM236 634l-55 -262h215c103 0 158 60 158 145c0 88 -54 117 -117 117h-201z" />
    <glyph glyph-name="Sigma" unicode="&#x3a3;" horiz-adv-x="601" 
d="M509 0h-534l16 77l338 294l-207 266l16 77h505l-17 -80h-381l201 -258v-4l-332 -292h412z" />
    <glyph glyph-name="Tau" unicode="&#x3a4;" horiz-adv-x="574" 
d="M653 714l-18 -80h-240l-134 -634h-95l134 634h-240l17 80h576z" />
    <glyph glyph-name="Upsilon" unicode="&#x3a5;" horiz-adv-x="611" 
d="M193 0l61 287l-188 427h101l146 -346l271 346h110l-346 -427l-62 -287h-93z" />
    <glyph glyph-name="Phi" unicode="&#x3a6;" horiz-adv-x="788" 
d="M431 744h95l-15 -69c154 -5 249 -73 249 -216c0 -26 -3 -55 -10 -87c-42 -197 -186 -291 -367 -297l-15 -75h-95l15 75c-153 5 -250 66 -250 208c0 26 3 54 10 85c42 197 188 301 368 307zM493 595l-94 -440c129 6 223 63 256 217c6 26 8 50 8 71c0 104 -65 147 -170 152
zM306 155l94 440c-128 -6 -225 -73 -257 -227c-5 -26 -8 -49 -8 -69c0 -103 67 -139 171 -144z" />
    <glyph glyph-name="Chi" unicode="&#x3a7;" horiz-adv-x="611" 
d="M-44 0l310 373l-172 341h102l132 -282l229 282h107l-294 -354l181 -360h-98l-144 302l-244 -302h-109z" />
    <glyph glyph-name="Psi" unicode="&#x3a8;" horiz-adv-x="836" 
d="M344 236l101 478h95l-100 -477c134 2 211 58 242 205l58 272h95l-58 -275c-38 -180 -133 -276 -356 -285l-32 -154h-95l33 157c-183 9 -244 92 -244 202c0 26 3 52 9 80l58 275h95l-58 -272c-7 -32 -11 -61 -11 -85c0 -77 40 -117 168 -121z" />
    <glyph glyph-name="Iotadieresis" unicode="&#x3aa;" horiz-adv-x="259" 
d="M253 792l21 104h89l-21 -104h-89zM90 792l21 104h89l-21 -104h-89zM7 0l150 714h95l-150 -714h-95z" />
    <glyph glyph-name="Upsilondieresis" unicode="&#x3ab;" horiz-adv-x="611" 
d="M422 792l21 104h89l-21 -104h-89zM259 792l21 104h89l-21 -104h-89zM193 0l61 287l-188 427h101l146 -346l271 346h110l-346 -427l-62 -287h-93z" />
    <glyph glyph-name="alphatonos" unicode="&#x3ac;" horiz-adv-x="570" 
d="M542 517l-75 -355c-4 -21 -14 -60 -14 -74c0 -24 10 -32 25 -32c8 0 19 4 27 7l-13 -63c-13 -7 -37 -12 -52 -12c-47 0 -74 27 -69 86h-2c-46 -63 -90 -86 -160 -86c-131 0 -192 105 -192 212c0 165 106 329 286 329c70 0 127 -37 140 -91h2l16 79h81zM301 454
c-123 0 -199 -125 -199 -254c0 -81 43 -137 125 -137c126 0 188 155 188 256c0 75 -33 135 -114 135zM275 589l73 143h110l-115 -143h-68z" />
    <glyph glyph-name="epsilontonos" unicode="&#x3ad;" horiz-adv-x="494" 
d="M456 378h-85c-8 45 -42 80 -108 80c-58 0 -119 -23 -119 -91c0 -42 25 -59 80 -59h81l-14 -75h-81c-71 0 -113 -36 -113 -94c0 -55 38 -80 111 -80c62 0 121 30 152 110h85c-38 -126 -120 -181 -237 -181c-88 0 -204 21 -204 151c0 74 50 116 116 129v2
c-38 13 -65 55 -65 98c0 103 95 161 208 161c121 0 185 -59 193 -151zM235 589l73 143h110l-115 -143h-68z" />
    <glyph glyph-name="etatonos" unicode="&#x3ae;" 
d="M-5 0l109 517h82l-16 -78h2c43 59 112 90 184 90c97 0 144 -41 144 -133c0 -23 -6 -61 -15 -101l-106 -493h-85l109 500c3 20 12 62 12 80c0 49 -39 72 -90 72c-47 0 -96 -25 -128 -60c-31 -27 -46 -67 -57 -108l-60 -286h-85zM286 589l73 143h110l-115 -143h-68z" />
    <glyph glyph-name="iotatonos" unicode="&#x3af;" horiz-adv-x="214" 
d="M80 -12c-48 0 -72 31 -72 75c0 10 2 21 4 31l89 423h85l-76 -355c-5 -21 -14 -60 -14 -74c0 -26 13 -32 28 -32c8 0 22 4 30 7l-13 -63c-13 -7 -43 -12 -61 -12zM114 589l73 143h110l-115 -143h-68z" />
    <glyph glyph-name="upsilondieresistonos" unicode="&#x3b0;" horiz-adv-x="539" 
d="M98 517h85l-65 -302c-4 -19 -7 -43 -7 -57c0 -58 32 -95 93 -95c112 0 198 128 198 317c0 47 -6 96 -21 137h92c13 -36 18 -79 18 -121c0 -255 -124 -408 -288 -408c-130 0 -175 71 -175 164c0 17 2 42 7 63zM222 589l73 143h110l-115 -143h-68zM390 602l21 104h89
l-21 -104h-89zM109 602l21 104h89l-21 -104h-89z" />
    <glyph glyph-name="alpha" unicode="&#x3b1;" horiz-adv-x="570" 
d="M542 517l-75 -355c-4 -21 -14 -60 -14 -74c0 -24 10 -32 25 -32c8 0 19 4 27 7l-13 -63c-13 -7 -37 -12 -52 -12c-47 0 -74 27 -69 86h-2c-46 -63 -90 -86 -160 -86c-131 0 -192 105 -192 212c0 165 106 329 286 329c70 0 127 -37 140 -91h2l16 79h81zM301 454
c-123 0 -199 -125 -199 -254c0 -81 43 -137 125 -137c126 0 188 155 188 256c0 75 -33 135 -114 135z" />
    <glyph glyph-name="beta" unicode="&#x3b2;" horiz-adv-x="554" 
d="M-49 -198l144 694c35 167 110 225 234 225c123 0 186 -66 186 -154c0 -86 -43 -154 -117 -166l-1 -2c72 -15 101 -75 101 -154c0 -139 -75 -257 -250 -257c-81 0 -144 41 -155 91h-2l-55 -277h-85zM182 494l-55 -246c-4 -17 -6 -34 -6 -50c0 -77 44 -135 130 -135
c80 0 163 41 163 182c0 66 -31 105 -106 105h-60l16 75h27c85 0 140 59 140 142c0 51 -38 80 -102 80c-83 0 -124 -41 -147 -153z" />
    <glyph glyph-name="gamma" unicode="&#x3b3;" horiz-adv-x="460" 
d="M374 517h92c-68 -251 -191 -421 -312 -529l-37 -186h-84l31 146c34 159 8 437 -36 569h90c36 -92 50 -310 40 -421h4c90 94 166 226 212 421z" />
    <glyph glyph-name="delta" unicode="&#x3b4;" horiz-adv-x="567" 
d="M17 205c0 146 93 241 244 281c-58 39 -78 75 -78 110c0 45 40 125 190 125c45 0 124 -9 162 -30l-14 -72c-41 20 -112 28 -148 28c-49 0 -106 -9 -106 -51c0 -20 20 -52 83 -83c81 -40 160 -102 160 -218c0 -150 -109 -307 -282 -307c-136 0 -211 95 -211 217zM315 446
c-127 -22 -212 -108 -212 -241c0 -84 48 -142 125 -142c119 0 198 123 198 229c0 70 -31 126 -111 154z" />
    <glyph glyph-name="epsilon" unicode="&#x3b5;" horiz-adv-x="494" 
d="M456 378h-85c-8 45 -42 80 -108 80c-58 0 -119 -23 -119 -91c0 -42 25 -59 80 -59h81l-14 -75h-81c-71 0 -113 -36 -113 -94c0 -55 38 -80 111 -80c62 0 121 30 152 110h85c-38 -126 -120 -181 -237 -181c-88 0 -204 21 -204 151c0 74 50 116 116 129v2
c-38 13 -65 55 -65 98c0 103 95 161 208 161c121 0 185 -59 193 -151z" />
    <glyph glyph-name="zeta" unicode="&#x3b6;" horiz-adv-x="405" 
d="M211 75h27c83 0 117 -24 117 -84c0 -47 -9 -93 -42 -145h-84c38 60 41 92 41 120c0 19 -8 34 -34 34h-35c-125 0 -184 73 -184 204c0 187 101 356 299 435h-192l15 75h348l-13 -63c-266 -97 -372 -256 -372 -447c0 -89 36 -129 109 -129z" />
    <glyph glyph-name="eta" unicode="&#x3b7;" 
d="M-5 0l109 517h82l-16 -78h2c43 59 112 90 184 90c97 0 144 -41 144 -133c0 -23 -6 -61 -15 -101l-106 -493h-85l109 500c3 20 12 62 12 80c0 49 -39 72 -90 72c-47 0 -96 -25 -128 -60c-31 -27 -46 -67 -57 -108l-60 -286h-85z" />
    <glyph glyph-name="theta" unicode="&#x3b8;" horiz-adv-x="531" 
d="M198 -12c-144 0 -178 88 -178 218c0 274 114 515 304 515c144 0 178 -89 178 -218c0 -275 -124 -515 -304 -515zM318 646c-110 0 -161 -109 -195 -241h291c5 30 8 65 8 93c0 102 -25 148 -104 148zM201 63c106 0 169 123 201 267h-294c-8 -40 -10 -83 -10 -118
c0 -103 24 -149 103 -149z" />
    <glyph glyph-name="iota" unicode="&#x3b9;" horiz-adv-x="214" 
d="M80 -12c-48 0 -72 31 -72 75c0 10 2 21 4 31l89 423h85l-76 -355c-5 -21 -14 -60 -14 -74c0 -26 13 -32 28 -32c8 0 22 4 30 7l-13 -63c-13 -7 -43 -12 -61 -12z" />
    <glyph glyph-name="kappa" unicode="&#x3ba;" horiz-adv-x="481" 
d="M-5 0l108 517h85l-49 -236l261 236h114l-222 -194l126 -323h-95l-99 271l-107 -96l-37 -175h-85z" />
    <glyph glyph-name="lambda" unicode="&#x3bb;" horiz-adv-x="468" 
d="M297 42l-44 350h-2l-202 -392h-97l280 486l-19 113c-6 33 -21 47 -56 47c-15 0 -31 -2 -49 -6l9 70c20 7 50 11 73 11c76 0 100 -36 116 -138l70 -494c4 -26 14 -33 29 -33c8 0 22 4 30 7l-13 -63c-13 -7 -43 -12 -61 -12c-39 0 -60 20 -64 54z" />
    <glyph glyph-name="nu" unicode="&#x3bd;" horiz-adv-x="488" 
d="M402 517h92c-65 -175 -161 -347 -287 -517h-91l-74 517h90l44 -430h2c93 122 173 288 224 430z" />
    <glyph glyph-name="xi" unicode="&#x3be;" horiz-adv-x="457" 
d="M232 0h-35c-123 0 -180 75 -180 168c0 114 65 183 175 211v2c-48 17 -76 66 -76 133c-1 142 97 207 231 207c46 0 116 -11 152 -30l-14 -72c-37 17 -102 28 -139 28c-82 0 -146 -34 -146 -133c0 -60 40 -98 122 -98h93l-17 -75h-96c-122 0 -199 -61 -199 -173
c0 -57 34 -93 104 -93h27c83 0 117 -24 117 -84c0 -47 -9 -93 -42 -145h-84c38 60 41 92 41 120c0 19 -8 34 -34 34z" />
    <glyph glyph-name="omicron" unicode="&#x3bf;" horiz-adv-x="574" 
d="M17 204c0 169 108 325 289 325c139 0 215 -75 215 -214c0 -168 -105 -327 -286 -327c-136 0 -218 91 -218 216zM102 205c0 -85 49 -142 142 -142c124 0 192 144 192 245c0 81 -43 146 -136 146c-131 0 -198 -142 -198 -249z" />
    <glyph glyph-name="rho" unicode="&#x3c1;" horiz-adv-x="576" 
d="M-49 -198l97 471c37 179 144 256 270 256c134 0 205 -93 205 -201c0 -138 -79 -340 -280 -340c-61 0 -130 29 -149 91h-2l-56 -277h-85zM252 63c124 0 185 152 185 264c0 71 -40 127 -119 127c-103 0 -196 -94 -196 -259c0 -74 46 -132 130 -132z" />
    <glyph glyph-name="sigma1" unicode="&#x3c2;" horiz-adv-x="540" 
d="M504 378h-85c-11 53 -53 76 -108 76c-138 0 -209 -123 -209 -263c0 -85 43 -116 135 -116h29c72 0 106 -27 106 -85c0 -46 -12 -101 -42 -144h-84c34 52 41 90 41 120c0 19 -8 34 -35 34h-46c-124 0 -189 69 -189 187c0 179 104 342 294 342c100 0 182 -43 193 -151z" />
    <glyph glyph-name="sigma" unicode="&#x3c3;" horiz-adv-x="589" 
d="M17 198c0 195 122 319 315 319h269l-15 -75h-131c36 -26 52 -76 52 -127c0 -150 -88 -327 -279 -327c-146 0 -211 96 -211 210zM325 442c-135 0 -223 -83 -223 -244c0 -90 54 -135 126 -135c117 0 194 116 194 252c0 52 -21 102 -47 127h-50z" />
    <glyph glyph-name="tau" unicode="&#x3c4;" horiz-adv-x="449" 
d="M191 442h-171l15 75h436l-15 -75h-180l-69 -327c-2 -8 -3 -15 -3 -21c0 -27 18 -32 42 -32c14 0 28 2 40 5l-14 -66c-21 -8 -48 -13 -75 -13c-53 0 -84 19 -84 68c0 11 1 22 4 35z" />
    <glyph glyph-name="upsilon" unicode="&#x3c5;" horiz-adv-x="539" 
d="M98 517h85l-65 -302c-4 -19 -7 -43 -7 -57c0 -58 32 -95 93 -95c112 0 198 128 198 317c0 47 -6 96 -21 137h92c13 -36 18 -79 18 -121c0 -255 -124 -408 -288 -408c-130 0 -175 71 -175 164c0 17 2 42 7 63z" />
    <glyph glyph-name="phi" unicode="&#x3c6;" horiz-adv-x="724" 
d="M205 -198l42 186c-155 0 -227 88 -227 215c0 220 162 330 339 327l29 136h85l-29 -136c155 0 227 -88 227 -215c0 -220 -162 -330 -339 -327l-41 -186h-86zM429 454l-83 -389c116 0 240 69 240 250c0 80 -49 139 -149 139h-8zM262 64l83 389c-116 0 -240 -69 -240 -250
c0 -80 49 -139 149 -139h8z" />
    <glyph glyph-name="chi" unicode="&#x3c7;" horiz-adv-x="494" 
d="M263 180l149 -378h-97l-108 304l-202 -304h-103l275 385l-130 330h96l90 -262l182 262h103z" />
    <glyph glyph-name="psi" unicode="&#x3c8;" horiz-adv-x="669" 
d="M315 63c118 0 217 102 217 317c0 47 -6 96 -21 137h92c13 -36 18 -79 18 -121c0 -257 -119 -408 -321 -408l-41 -186h-85l41 185c-132 4 -187 50 -187 172c0 19 6 56 12 83l58 275h85l-57 -266c-10 -45 -13 -76 -14 -92c0 -73 37 -96 118 -96l128 602h85z" />
    <glyph glyph-name="omega" unicode="&#x3c9;" horiz-adv-x="734" 
d="M294 179l40 191h85l-40 -191c-4 -17 -6 -32 -6 -45c0 -43 31 -71 72 -71c109 0 151 102 151 248c0 61 -17 144 -56 206h92c33 -55 49 -148 49 -206c0 -185 -75 -323 -238 -323c-57 0 -115 32 -120 108h-3c-32 -78 -90 -108 -140 -108c-122 0 -163 79 -163 166
c0 105 39 246 143 363h98c-120 -124 -156 -265 -156 -352c0 -64 27 -103 80 -103c57 0 96 40 112 117z" />
    <glyph glyph-name="iotadieresis" unicode="&#x3ca;" horiz-adv-x="214" 
d="M80 -12c-48 0 -72 31 -72 75c0 10 2 21 4 31l89 423h85l-76 -355c-5 -21 -14 -60 -14 -74c0 -26 13 -32 28 -32c8 0 22 4 30 7l-13 -63c-13 -7 -43 -12 -61 -12zM193 602l21 104h89l-21 -104h-89zM30 602l21 104h89l-21 -104h-89z" />
    <glyph glyph-name="upsilondieresis" unicode="&#x3cb;" horiz-adv-x="539" 
d="M98 517h85l-65 -302c-4 -19 -7 -43 -7 -57c0 -58 32 -95 93 -95c112 0 198 128 198 317c0 47 -6 96 -21 137h92c13 -36 18 -79 18 -121c0 -255 -124 -408 -288 -408c-130 0 -175 71 -175 164c0 17 2 42 7 63zM338 602l21 104h89l-21 -104h-89zM175 602l21 104h89
l-21 -104h-89z" />
    <glyph glyph-name="omicrontonos" unicode="&#x3cc;" horiz-adv-x="574" 
d="M290 589l73 143h110l-115 -143h-68zM17 204c0 169 108 325 289 325c139 0 215 -75 215 -214c0 -168 -105 -327 -286 -327c-136 0 -218 91 -218 216zM102 205c0 -85 49 -142 142 -142c124 0 192 144 192 245c0 81 -43 146 -136 146c-131 0 -198 -142 -198 -249z" />
    <glyph glyph-name="upsilontonos" unicode="&#x3cd;" horiz-adv-x="539" 
d="M98 517h85l-65 -302c-4 -19 -7 -43 -7 -57c0 -58 32 -95 93 -95c112 0 198 128 198 317c0 47 -6 96 -21 137h92c13 -36 18 -79 18 -121c0 -255 -124 -408 -288 -408c-130 0 -175 71 -175 164c0 17 2 42 7 63zM254 589l73 143h110l-115 -143h-68z" />
    <glyph glyph-name="omegatonos" unicode="&#x3ce;" horiz-adv-x="734" 
d="M294 179l40 191h85l-40 -191c-4 -17 -6 -32 -6 -45c0 -43 31 -71 72 -71c109 0 151 102 151 248c0 61 -17 144 -56 206h92c33 -55 49 -148 49 -206c0 -185 -75 -323 -238 -323c-57 0 -115 32 -120 108h-3c-32 -78 -90 -108 -140 -108c-122 0 -163 79 -163 166
c0 105 39 246 143 363h98c-120 -124 -156 -265 -156 -352c0 -64 27 -103 80 -103c57 0 96 40 112 117zM364 589l73 143h110l-115 -143h-68z" />
    <glyph glyph-name="uni0400" unicode="&#x400;" horiz-adv-x="611" 
d="M381 922l67 -143h-67l-101 143h101zM7 0l151 714h492l-16 -80h-397l-48 -227h370l-16 -80h-371l-52 -247h402l-18 -80h-497z" />
    <glyph glyph-name="afii10023" unicode="&#x401;" horiz-adv-x="611" 
d="M441 792l21 104h89l-21 -104h-89zM278 792l21 104h89l-21 -104h-89zM7 0l151 714h492l-16 -80h-397l-48 -227h370l-16 -80h-371l-52 -247h402l-18 -80h-497z" />
    <glyph glyph-name="afii10051" unicode="&#x402;" horiz-adv-x="746" 
d="M362 634l-58 -274h2c45 53 113 82 180 82c121 0 195 -80 195 -207c0 -182 -131 -370 -346 -370h-9l17 81c162 10 241 138 241 289c0 81 -42 128 -121 128c-97 0 -174 -71 -199 -192l-36 -171h-95l134 634h-207l17 80h563l-18 -80h-260z" />
    <glyph glyph-name="afii10052" unicode="&#x403;" horiz-adv-x="552" 
d="M102 0h-95l150 714h469l-17 -80h-373zM331 779l93 143h113l-136 -143h-70z" />
    <glyph glyph-name="afii10053" unicode="&#x404;" horiz-adv-x="722" 
d="M490 414l-16 -80h-341c-1 -13 -2 -28 -2 -41c0 -132 63 -230 207 -230c122 0 196 57 229 178h96c-40 -159 -147 -258 -329 -258c-186 0 -296 117 -296 310c0 230 140 438 393 438c158 0 257 -83 270 -223h-94c-14 99 -72 143 -187 143c-141 0 -242 -109 -273 -237h343z
" />
    <glyph glyph-name="afii10054" unicode="&#x405;" horiz-adv-x="648" 
d="M614 503h-95c3 113 -65 148 -164 148c-69 0 -165 -33 -165 -117c0 -69 51 -96 116 -115l96 -26c88 -24 172 -65 172 -193c0 -148 -150 -217 -278 -217c-172 0 -294 76 -281 251h95c-5 -129 74 -171 190 -171c89 0 179 41 179 137c0 73 -58 99 -127 118l-97 26
c-85 24 -160 74 -160 180c0 138 133 207 260 207c140 0 264 -69 259 -228z" />
    <glyph glyph-name="afii10055" unicode="&#x406;" horiz-adv-x="259" 
d="M7 0l150 714h95l-150 -714h-95z" />
    <glyph glyph-name="afii10056" unicode="&#x407;" horiz-adv-x="259" 
d="M7 0l150 714h95l-150 -714h-95zM253 792l21 104h89l-21 -104h-89zM90 792l21 104h89l-21 -104h-89z" />
    <glyph glyph-name="afii10057" unicode="&#x408;" horiz-adv-x="519" 
d="M525 714l-113 -538c-27 -123 -80 -193 -223 -193c-115 0 -198 53 -198 152c0 24 2 60 9 99h96c-5 -24 -9 -49 -10 -74c0 -68 40 -97 105 -97c96 0 120 85 136 162l104 489h94z" />
    <glyph glyph-name="afii10058" unicode="&#x409;" horiz-adv-x="1000" 
d="M538 634h-228l-102 -421c-39 -162 -108 -230 -206 -230c-24 0 -48 4 -68 12l18 80c12 -6 30 -9 46 -9c46 0 90 32 124 177l112 471h415l-62 -293h131c154 0 227 -68 227 -186c0 -126 -83 -235 -255 -235h-286zM851 229c0 97 -64 112 -169 112h-111l-55 -261h154
c109 0 181 44 181 149z" />
    <glyph glyph-name="afii10059" unicode="&#x40a;" horiz-adv-x="1000" 
d="M649 714l-62 -293h131c154 0 227 -68 227 -186c0 -126 -83 -235 -255 -235h-286l72 341h-302l-72 -341h-95l150 714h96l-62 -293h302l61 293h95zM851 229c0 97 -64 112 -169 112h-111l-55 -261h154c109 0 181 44 181 149z" />
    <glyph glyph-name="afii10060" unicode="&#x40b;" horiz-adv-x="746" 
d="M640 714l-18 -80h-260l-47 -222c51 16 112 30 165 30c166 0 201 -80 201 -153c0 -22 -3 -45 -7 -64l-48 -225h-95l46 217c4 20 8 40 8 58c0 44 -22 84 -123 84c-51 0 -96 -8 -164 -29l-70 -330h-95l134 634h-207l17 80h563z" />
    <glyph glyph-name="afii10061" unicode="&#x40c;" horiz-adv-x="667" 
d="M7 0l151 714h95l-75 -352l2 -2l404 354h127l-344 -294l229 -420h-105l-195 362l-143 -121l-51 -241h-95zM357 779l93 143h113l-136 -143h-70z" />
    <glyph glyph-name="uni040D" unicode="&#x40d;" horiz-adv-x="722" 
d="M7 0l150 714h96l-126 -592h2l472 592h120l-150 -714h-95l127 597h-2l-473 -597h-121zM427 922l67 -143h-67l-101 143h101z" />
    <glyph glyph-name="afii10062" unicode="&#x40e;" horiz-adv-x="611" 
d="M229 191l-154 523h98l121 -428l290 428h107l-415 -598c-66 -96 -121 -133 -199 -133c-29 0 -63 9 -81 18l17 78c27 -12 45 -16 68 -16c36 0 76 21 127 97zM251 920h45c1 -61 34 -84 94 -84c65 0 98 24 117 84h45c-12 -89 -78 -139 -166 -139c-89 0 -138 47 -135 139z" />
    <glyph glyph-name="afii10145" unicode="&#x40f;" horiz-adv-x="722" 
d="M337 0l-37 -177h-95l38 177h-236l150 714h96l-134 -634h374l133 634h95l-150 -714h-234z" />
    <glyph glyph-name="afii10017" unicode="&#x410;" horiz-adv-x="667" 
d="M51 0h-106l430 714h104l129 -714h-98l-33 215h-301zM219 295h246l-53 335h-2z" />
    <glyph glyph-name="afii10018" unicode="&#x411;" horiz-adv-x="681" 
d="M645 714l-18 -80h-391l-45 -213h192c154 0 227 -68 227 -186c0 -126 -83 -235 -255 -235h-348l150 714h488zM516 229c0 97 -64 112 -169 112h-173l-55 -261h216c109 0 181 44 181 149z" />
    <glyph glyph-name="afii10019" unicode="&#x412;" horiz-adv-x="685" 
d="M7 0l149 714h287c140 0 199 -63 199 -171c0 -79 -52 -158 -136 -172v-2c65 -19 107 -72 107 -148c0 -136 -112 -221 -253 -221h-353zM183 407h212c100 0 152 47 152 136c0 84 -81 91 -140 91h-176zM115 80h230c47 0 173 10 173 141c0 91 -70 106 -147 106h-204z" />
    <glyph glyph-name="afii10020" unicode="&#x413;" horiz-adv-x="552" 
d="M102 0h-95l150 714h469l-17 -80h-373z" />
    <glyph glyph-name="afii10021" unicode="&#x414;" horiz-adv-x="722" 
d="M602 -177h-95l38 177h-511l-37 -177h-94l54 257h71c83 114 152 277 188 449l39 185h455l-133 -634h79zM482 80l116 554h-267l-27 -129c-41 -197 -99 -321 -172 -425h350z" />
    <glyph glyph-name="afii10022" unicode="&#x415;" horiz-adv-x="611" 
d="M7 0l151 714h492l-16 -80h-397l-48 -227h370l-16 -80h-371l-52 -247h402l-18 -80h-497z" />
    <glyph glyph-name="afii10024" unicode="&#x416;" horiz-adv-x="1003" 
d="M1049 714l-344 -297l230 -417h-105l-194 358l-108 -92l-56 -266h-93l58 273l-63 84l-331 -357h-120l403 422l-222 292h109l246 -334l70 334h93l-68 -325l368 325h127z" />
    <glyph glyph-name="afii10025" unicode="&#x417;" horiz-adv-x="654" 
d="M611 545c0 -94 -68 -146 -142 -166v-3c84 -25 120 -87 120 -155c0 -158 -134 -236 -294 -236c-174 0 -273 84 -273 226c0 6 0 14 1 23h90v-12c0 -107 67 -160 186 -160c112 0 197 50 197 156c0 84 -77 117 -164 117c-21 0 -53 -1 -68 -2l16 78c16 -2 46 -2 62 -2
c96 0 174 29 174 131c0 72 -58 112 -142 112c-101 0 -171 -38 -193 -145h-91c24 160 137 221 288 221c137 0 233 -72 233 -183z" />
    <glyph glyph-name="afii10026" unicode="&#x418;" horiz-adv-x="722" 
d="M7 0l150 714h96l-126 -592h2l472 592h120l-150 -714h-95l127 597h-2l-473 -597h-121z" />
    <glyph glyph-name="afii10027" unicode="&#x419;" horiz-adv-x="722" 
d="M7 0l150 714h96l-126 -592h2l472 592h120l-150 -714h-95l127 597h-2l-473 -597h-121zM316 920h45c1 -61 34 -84 94 -84c65 0 98 24 117 84h45c-12 -89 -78 -139 -166 -139c-89 0 -138 47 -135 139z" />
    <glyph glyph-name="afii10028" unicode="&#x41a;" horiz-adv-x="667" 
d="M7 0l151 714h95l-75 -352l2 -2l404 354h127l-344 -294l229 -420h-105l-195 362l-143 -121l-51 -241h-95z" />
    <glyph glyph-name="afii10029" unicode="&#x41b;" horiz-adv-x="685" 
d="M439 0l133 634h-262l-102 -421c-39 -162 -108 -230 -206 -230c-24 0 -48 4 -68 12l18 80c12 -6 30 -9 46 -9c46 0 90 32 124 177l112 471h450l-150 -714h-95z" />
    <glyph glyph-name="afii10030" unicode="&#x41c;" horiz-adv-x="870" 
d="M7 0l150 714h132l95 -614h2l353 614h132l-151 -714h-91l146 625h-2l-364 -625h-91l-93 625h-2l-125 -625h-91z" />
    <glyph glyph-name="afii10031" unicode="&#x41d;" horiz-adv-x="722" 
d="M7 0l150 714h96l-65 -307h374l64 307h95l-150 -714h-95l69 327h-374l-69 -327h-95z" />
    <glyph glyph-name="afii10032" unicode="&#x41e;" horiz-adv-x="759" 
d="M38 296c0 231 148 435 392 435c185 0 298 -139 298 -316c0 -224 -146 -432 -384 -432c-195 0 -306 116 -306 313zM133 296c0 -139 68 -233 211 -233c189 0 289 181 289 352c0 132 -71 236 -203 236c-199 0 -297 -183 -297 -355z" />
    <glyph glyph-name="afii10033" unicode="&#x41f;" horiz-adv-x="722" 
d="M721 714l-150 -714h-95l133 634h-373l-134 -634h-95l150 714h564z" />
    <glyph glyph-name="afii10034" unicode="&#x420;" horiz-adv-x="648" 
d="M7 0l149 714h281c137 0 212 -66 212 -197c0 -89 -62 -225 -273 -225h-212l-62 -292h-95zM236 634l-55 -262h215c103 0 158 60 158 145c0 88 -54 117 -117 117h-201z" />
    <glyph glyph-name="afii10035" unicode="&#x421;" horiz-adv-x="722" 
d="M38 296c0 231 148 435 392 435c154 0 272 -82 272 -247h-95c0 112 -73 167 -177 167c-199 0 -297 -183 -297 -355c0 -139 68 -233 211 -233c117 0 190 66 221 178h95c-36 -160 -140 -258 -316 -258c-195 0 -306 116 -306 313z" />
    <glyph glyph-name="afii10036" unicode="&#x422;" horiz-adv-x="574" 
d="M653 714l-18 -80h-240l-134 -634h-95l134 634h-240l17 80h576z" />
    <glyph glyph-name="afii10037" unicode="&#x423;" horiz-adv-x="611" 
d="M229 191l-154 523h98l121 -428l290 428h107l-415 -598c-66 -96 -121 -133 -199 -133c-29 0 -63 9 -81 18l17 78c27 -12 45 -16 68 -16c36 0 76 21 127 97z" />
    <glyph glyph-name="afii10038" unicode="&#x424;" horiz-adv-x="778" 
d="M750 394c0 -199 -165 -308 -372 -310l-18 -84h-95l18 86c-144 10 -254 95 -254 243c0 199 164 313 371 314l15 71h95l-16 -74c148 -8 256 -98 256 -246zM384 565c-142 0 -261 -84 -261 -236c0 -101 73 -156 176 -166zM656 394c0 102 -71 161 -178 170l-84 -402
c140 0 262 81 262 232z" />
    <glyph glyph-name="afii10039" unicode="&#x425;" horiz-adv-x="611" 
d="M-44 0l310 373l-172 341h102l132 -282l229 282h107l-294 -354l181 -360h-98l-144 302l-244 -302h-109z" />
    <glyph glyph-name="afii10040" unicode="&#x426;" horiz-adv-x="722" 
d="M7 0l150 714h96l-134 -634h363l133 634h95l-133 -634h79l-54 -257h-95l38 177h-538z" />
    <glyph glyph-name="afii10041" unicode="&#x427;" horiz-adv-x="669" 
d="M518 0h-95l67 317c-68 -14 -141 -25 -209 -25c-141 0 -204 62 -204 165c0 18 2 37 5 52l43 205h95l-41 -196c-3 -14 -6 -34 -6 -50c0 -56 31 -96 126 -96c64 0 140 11 208 27l66 315h95z" />
    <glyph glyph-name="afii10042" unicode="&#x428;" horiz-adv-x="1073" 
d="M7 0l150 714h96l-134 -634h315l133 634h95l-133 -634h314l133 634h96l-151 -714h-914z" />
    <glyph glyph-name="afii10043" unicode="&#x429;" horiz-adv-x="1083" 
d="M7 0l150 714h96l-134 -634h315l133 634h95l-133 -634h314l133 634h95l-133 -634h79l-54 -257h-95l38 177h-899z" />
    <glyph glyph-name="afii10044" unicode="&#x42a;" horiz-adv-x="799" 
d="M408 714l-62 -293h171c154 0 227 -68 227 -186c0 -126 -83 -235 -255 -235h-327l133 634h-225l17 80h321zM650 229c0 97 -64 112 -169 112h-152l-55 -261h195c109 0 181 44 181 149z" />
    <glyph glyph-name="afii10045" unicode="&#x42b;" horiz-adv-x="871" 
d="M625 0l150 714h95l-150 -714h-95zM253 714l-62 -293h166c154 0 227 -68 227 -186c0 -126 -83 -235 -255 -235h-322l150 714h96zM490 229c0 97 -64 112 -169 112h-147l-55 -261h190c109 0 181 44 181 149z" />
    <glyph glyph-name="afii10046" unicode="&#x42c;" horiz-adv-x="648" 
d="M253 714l-62 -293h175c154 0 227 -68 227 -186c0 -126 -83 -235 -255 -235h-331l150 714h96zM499 229c0 97 -64 112 -169 112h-156l-55 -261h199c109 0 181 44 181 149z" />
    <glyph glyph-name="afii10047" unicode="&#x42d;" horiz-adv-x="722" 
d="M688 419c0 -230 -132 -436 -371 -436c-165 0 -277 95 -283 245h92c14 -108 79 -165 197 -165c155 0 238 129 263 271h-351l17 80h342c0 137 -63 235 -202 235c-96 0 -177 -48 -214 -141h-97c45 140 166 221 315 221c184 0 292 -122 292 -310z" />
    <glyph glyph-name="afii10048" unicode="&#x42e;" horiz-adv-x="1000" 
d="M305 296c0 11 0 23 1 35h-134l-70 -331h-95l150 714h96l-64 -303h128c39 179 170 320 365 320c179 0 285 -139 285 -316c0 -224 -138 -432 -369 -432c-187 0 -293 116 -293 313zM396 296c0 -139 64 -233 202 -233c182 0 276 181 276 352c0 132 -65 236 -192 236
c-192 0 -286 -183 -286 -355z" />
    <glyph glyph-name="afii10049" unicode="&#x42f;" horiz-adv-x="665" 
d="M340 305l-287 -305h-122l301 313c-97 21 -144 82 -144 175c0 130 93 226 265 226h311l-150 -714h-95l65 305h-144zM553 634h-200c-110 0 -172 -57 -172 -141c0 -72 42 -108 131 -108h189z" />
    <glyph glyph-name="afii10065" unicode="&#x430;" horiz-adv-x="519" 
d="M138 361h-85c16 115 115 168 224 168c100 0 189 -28 189 -132c0 -29 -9 -66 -16 -94l-33 -141c-5 -21 -14 -53 -14 -74c0 -24 10 -32 25 -32c8 0 19 4 27 7l-13 -63c-13 -7 -37 -12 -52 -12c-47 0 -72 28 -67 73l-2 2c-36 -48 -85 -75 -173 -75c-86 0 -158 40 -158 146
c0 146 138 159 261 170c91 8 130 13 130 82c0 55 -59 68 -104 68c-65 0 -128 -26 -139 -93zM75 135c0 -48 45 -72 93 -72c55 0 96 16 124 43c39 38 49 78 66 158h-2c-31 -19 -67 -23 -115 -28c-105 -10 -166 -30 -166 -101z" />
    <glyph glyph-name="afii10066" unicode="&#x431;" horiz-adv-x="574" 
d="M23 219c0 234 130 415 323 447l91 15c47 8 64 17 70 33h85c-24 -74 -69 -91 -134 -102l-85 -14c-99 -16 -166 -51 -234 -179c54 64 123 96 194 96c111 0 187 -75 187 -208c0 -164 -106 -319 -283 -319c-131 0 -214 88 -214 231zM107 225c0 -102 49 -163 139 -163
c117 0 189 126 189 238c0 84 -41 144 -130 144c-123 0 -198 -113 -198 -219z" />
    <glyph glyph-name="afii10067" unicode="&#x432;" horiz-adv-x="537" 
d="M103 517h239c101 0 150 -53 150 -129c0 -61 -42 -104 -98 -118c48 -14 77 -51 77 -103c0 -92 -65 -167 -190 -167h-286zM172 446l-30 -139h168c55 0 97 19 97 77c0 44 -28 62 -91 62h-144zM128 237l-35 -166h168c84 0 125 39 125 97c0 56 -43 69 -90 69h-168z" />
    <glyph glyph-name="afii10068" unicode="&#x433;" horiz-adv-x="426" 
d="M445 442h-273l-92 -442h-85l108 517h357z" />
    <glyph glyph-name="afii10069" unicode="&#x434;" horiz-adv-x="574" 
d="M452 -164h-83l34 164h-384l-34 -164h-83l50 239h54c58 82 100 177 133 317l29 125h363l-92 -442h63zM354 75l77 367h-195l-14 -59c-37 -157 -74 -234 -123 -308h255z" />
    <glyph glyph-name="afii10070" unicode="&#x435;" horiz-adv-x="537" 
d="M487 233h-389c-2 -15 -3 -30 -3 -45c0 -80 65 -125 134 -125c75 0 125 35 149 99h85c-27 -115 -122 -174 -234 -174c-172 0 -219 118 -219 208c0 198 124 333 266 333c152 0 219 -84 219 -229c0 -27 -5 -52 -8 -67zM110 308h300c5 73 -27 146 -121 146
c-100 0 -155 -66 -179 -146z" />
    <glyph glyph-name="afii10072" unicode="&#x436;" horiz-adv-x="769" 
d="M260 251l-223 -251h-107l287 304l-155 213h98l169 -237l50 237h85l-48 -232l252 232h113l-245 -215l164 -302h-98l-126 250l-82 -70l-38 -180h-85l39 182z" />
    <glyph glyph-name="afii10073" unicode="&#x437;" horiz-adv-x="500" 
d="M80 169c0 -71 45 -114 134 -114c83 0 136 45 136 108c0 51 -46 77 -111 77c-15 0 -37 0 -57 -1l14 67c19 -1 35 -1 47 -1c77 0 126 29 126 77c0 49 -39 80 -103 80c-74 0 -123 -27 -140 -103h-82c20 130 117 172 227 172c111 0 182 -54 182 -139
c0 -64 -47 -102 -103 -117c58 -17 85 -61 85 -110c0 -116 -109 -180 -226 -180c-129 0 -211 63 -211 171v13h82z" />
    <glyph glyph-name="afii10074" unicode="&#x438;" horiz-adv-x="558" 
d="M109 0h-114l108 517h85l-89 -419l316 419h114l-108 -517h-85l89 420z" />
    <glyph glyph-name="afii10075" unicode="&#x439;" horiz-adv-x="558" 
d="M109 0h-114l108 517h85l-89 -419l316 419h114l-108 -517h-85l89 420zM192 730h45c1 -61 34 -84 94 -84c65 0 98 24 117 84h45c-12 -89 -78 -139 -166 -139c-89 0 -138 47 -135 139z" />
    <glyph glyph-name="afii10076" unicode="&#x43a;" horiz-adv-x="481" 
d="M-5 0l108 517h85l-49 -236l261 236h114l-222 -194l126 -323h-95l-99 271l-107 -96l-37 -175h-85z" />
    <glyph glyph-name="afii10077" unicode="&#x43b;" horiz-adv-x="546" 
d="M517 517l-108 -517h-85l93 442h-176l-64 -262c-36 -148 -93 -192 -174 -192c-18 0 -44 4 -61 12l15 66c12 -5 26 -7 37 -7c38 0 74 20 102 137l77 321h344z" />
    <glyph glyph-name="afii10078" unicode="&#x43c;" horiz-adv-x="688" 
d="M551 0h-85l85 408h-3l-235 -408h-78l-67 408h-3l-85 -408h-85l108 517h120l69 -419h2l241 419h124z" />
    <glyph glyph-name="afii10079" unicode="&#x43d;" horiz-adv-x="558" 
d="M80 0h-85l108 517h85l-44 -208h256l44 208h85l-108 -517h-85l49 238h-256z" />
    <glyph glyph-name="afii10080" unicode="&#x43e;" horiz-adv-x="574" 
d="M17 204c0 169 108 325 289 325c139 0 215 -75 215 -214c0 -168 -105 -327 -286 -327c-136 0 -218 91 -218 216zM102 205c0 -85 49 -142 142 -142c124 0 192 144 192 245c0 81 -43 146 -136 146c-131 0 -198 -142 -198 -249z" />
    <glyph glyph-name="afii10081" unicode="&#x43f;" horiz-adv-x="558" 
d="M80 0h-85l108 517h426l-108 -517h-85l91 442h-256z" />
    <glyph glyph-name="afii10082" unicode="&#x440;" horiz-adv-x="593" 
d="M-49 -198l151 715h80l-18 -74h2c51 67 102 86 171 86c132 0 203 -87 203 -212c0 -156 -106 -329 -287 -329c-62 0 -142 22 -161 91h-2l-55 -277h-84zM455 317c0 84 -40 137 -133 137c-129 0 -202 -149 -202 -257c0 -77 46 -134 130 -134c135 0 205 139 205 254z" />
    <glyph glyph-name="afii10083" unicode="&#x441;" horiz-adv-x="537" 
d="M501 353h-85c0 64 -42 101 -109 101c-131 0 -201 -130 -201 -243c0 -80 32 -148 128 -148c73 0 127 42 151 106h85c-31 -116 -116 -181 -236 -181c-141 0 -213 83 -213 223c0 164 101 318 286 318c117 0 190 -55 194 -176z" />
    <glyph glyph-name="afii10084" unicode="&#x442;" horiz-adv-x="463" 
d="M480 442h-185l-94 -442h-85l94 442h-185l16 75h454z" />
    <glyph glyph-name="afii10085" unicode="&#x443;" horiz-adv-x="481" 
d="M505 517l-342 -605c-43 -67 -79 -122 -167 -122c-20 0 -43 5 -59 13l15 69c13 -8 34 -14 49 -14c39 0 60 23 80 56l52 86l-91 517h91l60 -411h2l217 411h93z" />
    <glyph glyph-name="afii10086" unicode="&#x444;" horiz-adv-x="800" 
d="M479 -12c-45 0 -82 22 -100 51h-2l-50 -237h-84l50 235h-2c-25 -25 -65 -49 -115 -49c-105 0 -159 79 -159 192c0 156 84 349 254 349c48 0 88 -20 111 -56h3l50 241h85l-51 -240h3c26 31 67 55 121 55c97 0 154 -75 154 -185c0 -160 -87 -356 -268 -356zM450 382
l-54 -257c5 -40 32 -66 83 -66c129 0 182 178 182 285c0 69 -29 114 -93 114c-37 0 -88 -22 -118 -76zM313 131l54 255c-13 50 -50 72 -92 72c-122 0 -172 -173 -172 -277c0 -67 25 -122 96 -122c52 0 99 35 114 72z" />
    <glyph glyph-name="afii10087" unicode="&#x445;" horiz-adv-x="481" 
d="M-66 0l242 274l-115 243h98l78 -188l154 188h103l-222 -250l132 -267h-97l-94 212l-176 -212h-103z" />
    <glyph glyph-name="afii10088" unicode="&#x446;" horiz-adv-x="570" 
d="M404 0h-409l108 517h85l-93 -442h254l93 442h85l-93 -442h67l-51 -239h-81z" />
    <glyph glyph-name="afii10089" unicode="&#x447;" horiz-adv-x="523" 
d="M385 0h-85l48 229c-50 -13 -105 -24 -155 -24c-92 0 -149 39 -149 115c0 13 2 31 5 46l32 151h85l-32 -150c-2 -11 -3 -22 -3 -30c0 -40 22 -63 82 -63c43 0 91 10 150 25l46 218h85z" />
    <glyph glyph-name="afii10090" unicode="&#x448;" horiz-adv-x="813" 
d="M784 517l-108 -517h-681l108 517h85l-93 -442h213l93 442h85l-93 -442h213l93 442h85z" />
    <glyph glyph-name="afii10091" unicode="&#x449;" horiz-adv-x="827" 
d="M661 0h-666l108 517h85l-93 -442h213l93 442h85l-93 -442h213l93 442h85l-93 -442h67l-51 -239h-81z" />
    <glyph glyph-name="afii10092" unicode="&#x44a;" horiz-adv-x="611" 
d="M559 178c0 -101 -66 -178 -194 -178h-279l92 442h-151l16 75h236l-42 -198h153c112 0 169 -50 169 -141zM473 173c0 55 -33 75 -100 75h-152l-36 -177h166c73 0 122 33 122 102z" />
    <glyph glyph-name="afii10093" unicode="&#x44b;" horiz-adv-x="708" 
d="M486 0l108 517h85l-108 -517h-85zM443 178c0 -101 -66 -178 -194 -178h-254l108 517h85l-41 -198h127c112 0 169 -50 169 -141zM357 173c0 55 -33 75 -100 75h-126l-37 -177h141c73 0 122 33 122 102z" />
    <glyph glyph-name="afii10094" unicode="&#x44c;" horiz-adv-x="520" 
d="M468 178c0 -101 -66 -178 -194 -178h-279l108 517h85l-41 -198h152c112 0 169 -50 169 -141zM382 173c0 55 -33 75 -100 75h-151l-37 -177h166c73 0 122 33 122 102z" />
    <glyph glyph-name="afii10095" unicode="&#x44d;" horiz-adv-x="537" 
d="M486 316c0 -175 -100 -328 -275 -328c-123 0 -206 68 -206 181h85c4 -74 50 -109 124 -109c89 0 159 68 177 174h-218l16 73h212v12c0 88 -50 138 -132 138c-63 0 -116 -31 -143 -91h-89c37 106 123 163 236 163c132 0 213 -77 213 -213z" />
    <glyph glyph-name="afii10096" unicode="&#x44e;" horiz-adv-x="766" 
d="M-5 0l108 517h85l-44 -208h98c34 122 126 220 264 220c134 0 207 -75 207 -214c0 -168 -102 -327 -277 -327c-131 0 -208 91 -208 216c0 11 0 22 1 34h-100l-49 -238h-85zM310 205c0 -85 46 -142 135 -142c119 0 184 144 184 245c0 81 -40 146 -129 146
c-126 0 -190 -142 -190 -249z" />
    <glyph glyph-name="afii10097" unicode="&#x44f;" horiz-adv-x="537" 
d="M253 218l-197 -218h-111l215 223c-68 17 -106 62 -106 124c0 92 63 170 186 170h268l-108 -517h-85l45 218h-107zM408 446h-166c-68 0 -102 -44 -102 -93c0 -44 32 -66 85 -66h150z" />
    <glyph glyph-name="uni0450" unicode="&#x450;" horiz-adv-x="537" 
d="M283 732l67 -143h-67l-101 143h101zM487 233h-389c-2 -15 -3 -30 -3 -45c0 -80 65 -125 134 -125c75 0 125 35 149 99h85c-27 -115 -122 -174 -234 -174c-172 0 -219 118 -219 208c0 198 124 333 266 333c152 0 219 -84 219 -229c0 -27 -5 -52 -8 -67zM110 308h300
c5 73 -27 146 -121 146c-100 0 -155 -66 -179 -146z" />
    <glyph glyph-name="afii10071" unicode="&#x451;" horiz-adv-x="537" 
d="M343 602l21 104h89l-21 -104h-89zM180 602l21 104h89l-21 -104h-89zM487 233h-389c-2 -15 -3 -30 -3 -45c0 -80 65 -125 134 -125c75 0 125 35 149 99h85c-27 -115 -122 -174 -234 -174c-172 0 -219 118 -219 208c0 198 124 333 266 333c152 0 219 -84 219 -229
c0 -27 -5 -52 -8 -67zM110 308h300c5 73 -27 146 -121 146c-100 0 -155 -66 -179 -146z" />
    <glyph glyph-name="afii10099" unicode="&#x452;" 
d="M360 107l40 180c7 31 12 58 12 80c0 49 -39 72 -90 72c-47 0 -90 -22 -128 -59c-32 -32 -46 -67 -57 -108l-57 -272h-85l122 580h-86l13 61h86l15 73h85l-16 -73h171l-13 -61h-172l-33 -154l2 -2c43 59 113 90 185 90c93 0 143 -41 143 -133c0 -23 -6 -61 -15 -101
l-42 -198c-35 -166 -158 -270 -331 -280l16 79c128 18 205 90 235 226z" />
    <glyph glyph-name="afii10100" unicode="&#x453;" horiz-adv-x="426" 
d="M445 442h-273l-92 -442h-85l108 517h357zM227 589l93 143h113l-136 -143h-70z" />
    <glyph glyph-name="afii10101" unicode="&#x454;" horiz-adv-x="537" 
d="M341 307l-15 -73h-220c-1 -10 -1 -18 -1 -29c0 -91 43 -145 129 -145c71 0 126 38 150 109h88c-34 -117 -121 -181 -242 -181c-134 0 -209 79 -209 219c0 172 107 322 288 322c116 0 191 -62 193 -163h-85c-4 59 -45 91 -114 91c-87 0 -153 -61 -182 -150h220z" />
    <glyph glyph-name="afii10102" unicode="&#x455;" horiz-adv-x="481" 
d="M440 365h-85c3 59 -47 89 -107 89c-52 0 -110 -14 -110 -66c0 -40 47 -59 97 -80l38 -16c75 -32 138 -63 138 -144c0 -115 -111 -160 -211 -160c-118 0 -209 43 -209 175h85c-5 -76 61 -100 132 -100c56 0 118 20 118 79c0 38 -35 56 -94 80l-51 21
c-70 29 -128 63 -128 137c0 96 96 149 192 149s195 -43 195 -164z" />
    <glyph glyph-name="afii10103" unicode="&#x456;" horiz-adv-x="222" 
d="M230 714l-22 -104h-86l22 104h86zM-5 0l108 517h85l-108 -517h-85z" />
    <glyph glyph-name="afii10104" unicode="&#x457;" horiz-adv-x="222" 
d="M80 0h-85l108 517h85zM195 602l21 104h89l-21 -104h-89zM32 602l21 104h89l-21 -104h-89z" />
    <glyph glyph-name="afii10105" unicode="&#x458;" horiz-adv-x="222" 
d="M230 714l-22 -104h-86l22 104h86zM-120 -192l15 75c11 -3 22 -6 33 -6c37 0 46 24 62 97l113 543h85l-130 -614c-15 -64 -54 -101 -122 -101c-19 0 -37 1 -56 6z" />
    <glyph glyph-name="afii10106" unicode="&#x459;" horiz-adv-x="773" 
d="M721 178c0 -101 -66 -178 -194 -178h-225l93 442h-160l-67 -277c-33 -137 -90 -177 -167 -177c-17 0 -42 4 -59 12l15 66c12 -5 25 -7 35 -7c34 0 70 17 95 122l80 336h328l-41 -198h98c112 0 169 -50 169 -141zM635 173c0 55 -33 75 -100 75h-97l-37 -177h112
c73 0 122 33 122 102z" />
    <glyph glyph-name="afii10107" unicode="&#x45a;" horiz-adv-x="778" 
d="M726 178c0 -101 -66 -178 -194 -178h-238l52 248h-215l-51 -248h-85l108 517h85l-42 -198h215l41 198h85l-41 -198h111c112 0 169 -50 169 -141zM640 173c0 55 -33 75 -100 75h-110l-37 -177h125c73 0 122 33 122 102z" />
    <glyph glyph-name="afii10108" unicode="&#x45b;" 
d="M385 641l-13 -61h-172l-33 -154l2 -2c43 59 113 90 185 90c93 0 143 -41 143 -133c0 -23 -6 -61 -15 -101l-60 -280h-85l63 287c7 31 12 58 12 80c0 49 -39 72 -90 72c-47 0 -90 -22 -128 -59c-32 -32 -46 -67 -57 -108l-57 -272h-85l122 580h-86l13 61h86l15 73h85
l-16 -73h171z" />
    <glyph glyph-name="afii10109" unicode="&#x45c;" horiz-adv-x="481" 
d="M-5 0l108 517h85l-49 -236l261 236h114l-222 -194l126 -323h-95l-99 271l-107 -96l-37 -175h-85zM251 589l93 143h113l-136 -143h-70z" />
    <glyph glyph-name="uni045D" unicode="&#x45d;" horiz-adv-x="558" 
d="M109 0h-114l108 517h85l-89 -419l316 419h114l-108 -517h-85l89 420zM308 732l67 -143h-67l-101 143h101z" />
    <glyph glyph-name="afii10110" unicode="&#x45e;" horiz-adv-x="481" 
d="M153 730h45c1 -61 34 -84 94 -84c65 0 98 24 117 84h45c-12 -89 -78 -139 -166 -139c-89 0 -138 47 -135 139zM505 517l-342 -605c-43 -67 -79 -122 -167 -122c-20 0 -43 5 -59 13l15 69c13 -8 34 -14 49 -14c39 0 60 23 80 56l52 86l-91 517h91l60 -411h2l217 411h93z
" />
    <glyph glyph-name="afii10193" unicode="&#x45f;" horiz-adv-x="558" 
d="M250 0l-34 -164h-85l34 164h-170l108 517h85l-93 -442h256l93 442h85l-108 -517h-171z" />
    <glyph glyph-name="afii10146" unicode="&#x462;" horiz-adv-x="726" 
d="M331 714l-22 -102h195l-15 -76h-196l-24 -115h175c154 0 227 -68 227 -186c0 -126 -83 -235 -255 -235h-331l112 536h-153l15 76h154l22 102h96zM577 229c0 97 -64 112 -169 112h-156l-55 -261h199c109 0 181 44 181 149z" />
    <glyph glyph-name="afii10194" unicode="&#x463;" horiz-adv-x="587" 
d="M29 442l16 75h125l42 197h85l-42 -197h226l-16 -75h-226l-25 -123h152c112 0 169 -50 169 -141c0 -101 -66 -178 -194 -178h-279l92 442h-125zM449 173c0 55 -33 75 -100 75h-151l-37 -177h166c73 0 122 33 122 102z" />
    <glyph glyph-name="afii10147" unicode="&#x472;" horiz-adv-x="759" 
d="M38 296c0 231 148 435 392 435c185 0 298 -139 298 -316c0 -224 -146 -432 -384 -432c-195 0 -306 116 -306 313zM430 651c-157 0 -251 -113 -284 -244h488v8c0 132 -71 236 -204 236zM132 296c0 -139 68 -233 212 -233c158 0 254 125 281 266h-492c-1 -11 -1 -22 -1 -33
z" />
    <glyph glyph-name="afii10195" unicode="&#x473;" horiz-adv-x="574" 
d="M17 204c0 169 108 325 289 325c139 0 215 -75 215 -214c0 -168 -105 -327 -286 -327c-136 0 -218 91 -218 216zM300 454c-93 0 -153 -70 -182 -148h320c0 83 -44 148 -138 148zM100 205c0 -85 50 -142 144 -142c96 0 159 85 183 170h-326c-1 -10 -1 -19 -1 -28z" />
    <glyph glyph-name="afii10148" unicode="&#x474;" horiz-adv-x="632" 
d="M611 594l-323 -594h-107l-102 714h97l73 -621h2l274 521c48 91 91 117 155 117c18 0 38 -2 59 -8l-17 -80c-16 5 -28 8 -40 8c-26 0 -45 -10 -71 -57z" />
    <glyph glyph-name="afii10196" unicode="&#x475;" horiz-adv-x="510" 
d="M178 87l180 355c34 66 69 87 124 87c17 0 32 -2 48 -7l-15 -74c-12 4 -22 6 -34 6c-21 0 -37 -12 -53 -42l-221 -412h-91l-74 517h90l44 -430h2z" />
    <glyph glyph-name="afii10050" unicode="&#x490;" horiz-adv-x="552" 
d="M102 0h-95l150 714h375l34 159h95l-52 -239h-373z" />
    <glyph glyph-name="afii10098" unicode="&#x491;" horiz-adv-x="426" 
d="M445 442h-273l-92 -442h-85l108 517h273l32 155h85z" />
    </font>
</defs>
</svg>
