<svg xmlns="http://www.w3.org/2000/svg" width="30" height="30" viewBox="0 0 30 30">
  <metadata><?xpacket begin="﻿" id="W5M0MpCehiHzreSzNTczkc9d"?>
<x:xmpmeta xmlns:x="adobe:ns:meta/" x:xmptk="Adobe XMP Core 5.6-c138 79.159824, 2016/09/14-01:09:01        ">
   <rdf:RDF xmlns:rdf="http://www.w3.org/1999/02/22-rdf-syntax-ns#">
      <rdf:Description rdf:about=""/>
   </rdf:RDF>
</x:xmpmeta>
                                                                                                    
                                                                                                    
                                                                                                    
                                                                                                    
                                                                                                    
                                                                                                    
                                                                                                    
                                                                                                    
                                                                                                    
                                                                                                    
                                                                                                    
                                                                                                    
                                                                                                    
                                                                                                    
                                                                                                    
                                                                                                    
                                                                                                    
                                                                                                    
                                                                                                    
                                                                                                    
                           
<?xpacket end="w"?></metadata>
<defs>
    <style>
      .cls-1 {
        fill: #496588;
        fill-rule: evenodd;
      }
    </style>
  </defs>
  <path id="_" data-name="" class="cls-1" d="M247,60a15,15,0,1,1-15,15A15,15,0,0,1,247,60Zm9.022,10.933a0.555,0.555,0,0,0-.294-0.157,1.491,1.491,0,0,0-.607-0.024l-2.732.019a0.769,0.769,0,0,0-.19,0,0.509,0.509,0,0,0-.123.028l-0.048.024-0.038.028a0.419,0.419,0,0,0-.1.1,0.644,0.644,0,0,0-.095.166,15.5,15.5,0,0,1-1.015,2.135q-0.351.588-.645,1.02a4.862,4.862,0,0,1-.494.636,3.39,3.39,0,0,1-.36.327,0.349,0.349,0,0,1-.247.1l-0.161-.038a0.619,0.619,0,0,1-.213-0.232,1.019,1.019,0,0,1-.109-0.37c-0.019-.148-0.031-0.277-0.034-0.384s0-.259,0-0.455,0.01-.329.01-0.4c0-.24,0-0.5.014-0.783s0.017-.5.023-0.669,0.01-.338.01-0.522a2.2,2.2,0,0,0-.033-0.432,1.494,1.494,0,0,0-.1-0.3,0.509,0.509,0,0,0-.194-0.228,1.113,1.113,0,0,0-.318-0.128,6.308,6.308,0,0,0-1.281-.123,6.224,6.224,0,0,0-2.267.228,1.139,1.139,0,0,0-.361.285c-0.113.139-.129,0.215-0.047,0.228a1.164,1.164,0,0,1,.806.408l0.057,0.114a1.813,1.813,0,0,1,.133.436,4.368,4.368,0,0,1,.085.693,7.284,7.284,0,0,1,0,1.186q-0.047.493-.09,0.768a1.519,1.519,0,0,1-.128.446,1.879,1.879,0,0,1-.114.209,0.157,0.157,0,0,1-.047.047,0.706,0.706,0,0,1-.256.047,0.6,0.6,0,0,1-.323-0.133,2.285,2.285,0,0,1-.393-0.365,4.8,4.8,0,0,1-.46-0.65q-0.256-.417-0.532-0.987l-0.152-.275c-0.094-.177-0.224-0.435-0.388-0.773s-0.31-.666-0.437-0.982a0.625,0.625,0,0,0-.228-0.3l-0.047-.028a0.646,0.646,0,0,0-.152-0.081,1,1,0,0,0-.218-0.062l-2.6.019a0.661,0.661,0,0,0-.541.18l-0.038.057a0.308,0.308,0,0,0-.028.152,0.775,0.775,0,0,0,.056.256q0.57,1.338,1.239,2.58t1.162,2q0.492,0.759,1,1.433t0.678,0.863q0.166,0.19.261,0.285l0.238,0.228a5.552,5.552,0,0,0,.668.545,11.345,11.345,0,0,0,.977.626,5.307,5.307,0,0,0,1.248.5,4.306,4.306,0,0,0,1.385.157h1.091a0.755,0.755,0,0,0,.5-0.209l0.038-.047a0.646,0.646,0,0,0,.071-0.175,0.971,0.971,0,0,0,.033-0.261,3.115,3.115,0,0,1,.062-0.735,1.933,1.933,0,0,1,.161-0.493,1.2,1.2,0,0,1,.2-0.28,0.819,0.819,0,0,1,.161-0.138,0.678,0.678,0,0,1,.076-0.033,0.6,0.6,0,0,1,.536.147,3.128,3.128,0,0,1,.579.55q0.27,0.327.65,0.735a4.383,4.383,0,0,0,.664.607l0.189,0.114a2.306,2.306,0,0,0,.494.209,1.063,1.063,0,0,0,.531.047l2.429-.038a1.1,1.1,0,0,0,.559-0.119,0.467,0.467,0,0,0,.237-0.261,0.724,0.724,0,0,0,0-.323,1.177,1.177,0,0,0-.066-0.251,1.3,1.3,0,0,0-.062-0.119,9.44,9.44,0,0,0-1.812-2.1,0.1,0.1,0,0,0-.047-0.038c-0.215-.2-0.4-0.364-0.541-0.5a1.345,1.345,0,0,1-.308-0.408,2.05,2.05,0,0,1-.124-0.327,0.628,0.628,0,0,1,.114-0.4,4.532,4.532,0,0,1,.29-0.47q0.141-.2.521-0.683,0.39-.5.617-0.806,1.641-2.182,1.423-2.789Z" transform="translate(-232 -60)"/>
</svg>
