<svg xmlns="http://www.w3.org/2000/svg">
<defs>
<font id="HelveticaNeueLTW1G-BdIt" horiz-adv-x="741" >
  <font-face 
    font-family="Helvetica Neue LT W1G"
    font-weight="700"
    font-style="italic"
    font-stretch="normal"
    units-per-em="1000"
    panose-1="2 11 8 4 2 2 2 9 2 4"
    ascent="714"
    descent="-286"
    x-height="517"
    cap-height="714"
    bbox="-166 -248 1129 973"
    underline-thickness="50"
    underline-position="-100"
    stemh="107"
    stemv="142"
    unicode-range="U+000D-FB04"
  />
<missing-glyph horiz-adv-x="512" 
d="M278 117h-56v67h56v-67zM271 234h-46l-2 17c0 37 4 64 13 81s24 37 46 59c43 41 50 58 50 83c0 48 -35 85 -76 85s-74 -27 -82 -95l-50 8c9 95 63 137 135 137c71 0 124 -52 124 -131c0 -43 -12 -73 -63 -120c-25 -22 -39 -39 -43 -52s-6 -37 -6 -72zM50 50h412v617h-412
v-617zM0 718h512v-718h-512v718z" />
    <glyph glyph-name="napostrophe" unicode="&#x22;n" horiz-adv-x="758" 
d="M145 0l108 517h136l-16 -72h2c46 57 107 86 181 86c98 0 151 -49 151 -139c0 -21 -11 -71 -15 -89l-64 -303h-142l63 303c6 27 9 45 9 58c0 34 -30 58 -68 58c-86 0 -130 -72 -145 -144l-58 -275h-142zM62 560l32 154h158l-32 -154c-19 -90 -63 -162 -193 -167l15 70
c59 11 78 40 89 97h-69z" />
    <glyph glyph-name="IJ" unicode="IJ" horiz-adv-x="845" 
d="M-4 0l151 714h158l-151 -714h-158zM854 714l-106 -511c-32 -140 -106 -220 -261 -220c-112 0 -217 48 -217 173c0 38 7 73 13 110h143c-7 -31 -14 -61 -14 -84c0 -44 37 -67 77 -67c81 0 92 57 108 122l99 477h158z" />
    <glyph glyph-name="ij" unicode="ij" horiz-adv-x="520" 
d="M-13 0l110 517h143l-110 -517h-143zM282 714l-26 -117h-143l26 117h143zM123 -177l24 114c13 -1 28 -2 41 -2c38 0 48 15 64 93l103 489h142l-113 -536c-23 -110 -64 -163 -192 -163c-21 0 -44 2 -69 5zM538 714l-26 -117h-143l26 117h143z" />
    <glyph glyph-name="fi" unicode="fi" horiz-adv-x="615" 
d="M17 0l89 422h-84l20 95h85c27 132 52 203 201 203c31 0 62 -3 93 -8l-22 -102c-15 1 -31 3 -46 3c-71 0 -68 -36 -84 -96h101l-20 -95h-102l-89 -422h-142zM341 0l110 517h142l-110 -517h-142zM635 714l-26 -117h-142l26 117h142z" />
    <glyph glyph-name="fl" unicode="fl" horiz-adv-x="614" 
d="M17 0l89 422h-84l20 95h85c27 132 52 203 201 203c31 0 62 -3 93 -8l-22 -102c-15 1 -31 3 -46 3c-71 0 -68 -36 -84 -96h101l-20 -95h-102l-89 -422h-142zM340 0l152 714h142l-152 -714h-142z" />
    <glyph glyph-name="f_f" unicode="ff" horiz-adv-x="657" 
d="M322 0l89 422h-163l-89 -422h-142l89 422h-84l20 95h85c28 132 52 203 201 203c31 0 62 -3 93 -8l-22 -102c-15 1 -31 3 -46 3c-70 0 -69 -36 -84 -96h163c28 132 52 203 201 203c31 0 62 -3 93 -8l-22 -102c-15 1 -31 3 -46 3c-70 0 -69 -36 -84 -96h101l-20 -95h-102
l-89 -422h-142z" />
    <glyph glyph-name="f_f_i" unicode="ffi" horiz-adv-x="920" 
d="M322 0l89 422h-163l-89 -422h-142l89 422h-84l20 95h85c28 132 52 203 201 203c31 0 62 -3 93 -8l-22 -102c-15 1 -31 3 -46 3c-70 0 -69 -36 -84 -96h163c28 132 52 203 201 203c31 0 62 -3 93 -8l-22 -102c-15 1 -31 3 -46 3c-70 0 -69 -36 -84 -96h101l-20 -95h-102
l-89 -422h-142zM645 0l110 517h143l-110 -517h-143zM940 714l-26 -117h-143l26 117h143z" />
    <glyph glyph-name="f_f_l" unicode="ffl" horiz-adv-x="919" 
d="M645 0l152 714h142l-152 -714h-142zM322 0l89 422h-163l-89 -422h-142l89 422h-84l20 95h85c28 132 52 203 201 203c31 0 62 -3 93 -8l-22 -102c-15 1 -31 3 -46 3c-70 0 -69 -36 -84 -96h163c28 132 52 203 201 203c31 0 62 -3 93 -8l-22 -102c-15 1 -31 3 -46 3
c-70 0 -69 -36 -84 -96h101l-20 -95h-102l-89 -422h-142z" />
    <glyph glyph-name=".notdef" horiz-adv-x="512" 
d="M278 117h-56v67h56v-67zM271 234h-46l-2 17c0 37 4 64 13 81s24 37 46 59c43 41 50 58 50 83c0 48 -35 85 -76 85s-74 -27 -82 -95l-50 8c9 95 63 137 135 137c71 0 124 -52 124 -131c0 -43 -12 -73 -63 -120c-25 -22 -39 -39 -43 -52s-6 -37 -6 -72zM50 50h412v617h-412
v-617zM0 718h512v-718h-512v718z" />
    <glyph glyph-name=".null" horiz-adv-x="500" 
 />
    <glyph glyph-name="CR" unicode="&#xd;" horiz-adv-x="0" 
 />
    <glyph glyph-name="space" unicode=" " horiz-adv-x="278" 
 />
    <glyph glyph-name="exclam" unicode="!" horiz-adv-x="296" 
d="M-4 0l33 154h158l-33 -154h-158zM301 714l-42 -194l-105 -306h-70l25 306l41 194h151z" />
    <glyph glyph-name="quotedbl" unicode="&#x22;" horiz-adv-x="481" 
d="M313 393v321h107v-321h-107zM127 393v321h107v-321h-107z" />
    <glyph glyph-name="numbersign" unicode="#" horiz-adv-x="556" 
d="M81 0l28 198h-83l10 90h85l18 124h-83l10 90h85l28 198h97l-28 -198h97l27 198h97l-27 -198h84l-10 -90h-87l-17 -124h84l-10 -90h-87l-27 -198h-97l27 198h-96l-28 -198h-97zM332 412h-96l-18 -124h97z" />
    <glyph glyph-name="dollar" unicode="$" horiz-adv-x="556" 
d="M312 296l-38 -196c52 0 117 28 117 104c0 54 -41 77 -79 92zM291 444l32 170h-7c-47 0 -106 -28 -106 -88c0 -45 36 -68 81 -82zM186 -104l18 90c-131 15 -201 92 -198 254h137c-2 -89 30 -126 83 -135l40 206l-11 4c-100 34 -182 67 -182 200c0 150 130 216 270 216h3
l16 79h48l-17 -86c101 -21 180 -90 170 -218h-137c3 54 -23 85 -57 99l-33 -177c102 -31 192 -65 192 -205c0 -171 -143 -240 -276 -240l-17 -87h-49z" />
    <glyph glyph-name="percent" unicode="%" horiz-adv-x="963" 
d="M73 482c0 118 64 232 193 232c100 0 158 -51 158 -152c0 -122 -73 -238 -204 -238c-97 0 -147 66 -147 158zM175 464c0 -37 14 -65 52 -65c71 0 95 128 95 184c0 28 -18 56 -48 56c-78 0 -99 -114 -99 -175zM644 126c0 -37 14 -65 52 -65c71 0 95 128 95 184
c0 28 -18 56 -48 56c-78 0 -99 -114 -99 -175zM542 144c0 118 64 232 193 232c100 0 158 -51 158 -152c0 -122 -73 -238 -204 -238c-97 0 -147 66 -147 158zM175 -22l538 744h85l-537 -744h-86z" />
    <glyph glyph-name="ampersand" unicode="&#x26;" horiz-adv-x="685" 
d="M365 156l-98 159c-56 -33 -114 -58 -114 -132c0 -49 48 -80 94 -80c44 0 85 27 118 53zM459 0l-32 56c-58 -48 -116 -70 -192 -70c-115 0 -219 73 -219 197c0 120 91 186 193 227c-23 38 -48 81 -48 126c0 118 83 186 197 186c99 0 187 -54 187 -162
c0 -98 -88 -153 -164 -194l77 -124c27 28 43 64 52 101h127c-14 -77 -55 -150 -113 -203l91 -140h-156zM288 554c0 -38 19 -69 38 -100c39 19 102 56 102 105c0 41 -27 68 -63 68c-40 0 -77 -24 -77 -73z" />
    <glyph glyph-name="quotesingle" unicode="'" horiz-adv-x="278" 
d="M110 393v321h107v-321h-107z" />
    <glyph glyph-name="parenleft" unicode="(" horiz-adv-x="296" 
d="M262 731h125c-174 -229 -229 -413 -229 -650c0 -88 18 -177 38 -263h-108c-36 83 -62 236 -62 320c0 248 88 405 236 593z" />
    <glyph glyph-name="parenright" unicode=")" horiz-adv-x="296" 
d="M13 -182h-125c174 229 229 413 229 650c0 88 -18 177 -38 263h108c36 -83 62 -236 62 -320c0 -248 -88 -405 -236 -593z" />
    <glyph glyph-name="asterisk" unicode="*" horiz-adv-x="407" 
d="M313 710l-24 -128l121 23l14 -79l-120 -18l57 -105l-72 -39l-55 109l-86 -97l-58 56l89 92l-108 52l34 73l109 -55l17 120z" />
    <glyph glyph-name="plus" unicode="+" horiz-adv-x="600" 
d="M31 199v107h199v199h107v-199h199v-107h-199v-199h-107v199h-199z" />
    <glyph glyph-name="comma" unicode="," horiz-adv-x="278" 
d="M-13 0l32 154h158c-36 -144 -28 -314 -225 -321l15 71c59 10 78 39 89 96h-69z" />
    <glyph glyph-name="hyphen" unicode="-" horiz-adv-x="407" 
d="M27 212l26 122h301l-26 -122h-301z" />
    <glyph glyph-name="period" unicode="." horiz-adv-x="278" 
d="M-13 0l33 154h158l-33 -154h-158z" />
    <glyph glyph-name="slash" unicode="/" horiz-adv-x="389" 
d="M-2 -17l279 748h114l-279 -748h-114z" />
    <glyph glyph-name="zero" unicode="0" horiz-adv-x="556" 
d="M-4 255c0 198 108 459 331 459c158 0 234 -108 234 -265c0 -204 -108 -463 -343 -463c-160 0 -222 126 -222 269zM138 226c0 -67 20 -123 98 -123c143 0 183 273 183 368c0 70 -29 126 -102 126c-141 0 -179 -273 -179 -371z" />
    <glyph glyph-name="one" unicode="1" horiz-adv-x="556" 
d="M471 700l-148 -700h-151l96 454h-171l23 107c105 5 184 30 235 139h116z" />
    <glyph glyph-name="two" unicode="2" horiz-adv-x="556" 
d="M179 448h-135c14 168 120 266 281 266c127 0 233 -66 233 -211c0 -205 -289 -266 -398 -381h345l-28 -122h-519c12 175 145 246 282 319c68 39 176 82 176 175c0 70 -48 98 -108 98c-77 0 -126 -67 -129 -144z" />
    <glyph glyph-name="three" unicode="3" horiz-adv-x="556" 
d="M216 317l19 100h43c61 -1 134 20 134 93c0 60 -45 87 -96 87c-80 0 -117 -41 -134 -120h-135c21 153 124 237 271 237c112 0 231 -47 231 -183c0 -82 -55 -145 -132 -161v-2c71 -22 98 -73 98 -143c0 -165 -133 -239 -288 -239c-170 0 -255 89 -245 254h135
c-9 -82 31 -137 114 -137c76 0 135 46 135 127c0 61 -43 87 -99 87h-51z" />
    <glyph glyph-name="four" unicode="4" horiz-adv-x="556" 
d="M106 279h208l57 269h-2zM538 700l-89 -421h93l-25 -117h-93l-35 -162h-135l35 162h-325l26 129l410 409h138z" />
    <glyph glyph-name="five" unicode="5" horiz-adv-x="556" 
d="M556 700l-25 -117h-298l-46 -149l2 -2c31 27 64 44 137 44c103 0 195 -79 195 -209c0 -174 -125 -281 -292 -281c-147 0 -241 68 -246 218h137c1 -69 51 -101 119 -101c77 0 140 61 140 147c0 78 -43 119 -119 119c-49 0 -84 -18 -112 -59h-128l122 390h414z" />
    <glyph glyph-name="six" unicode="6" horiz-adv-x="556" 
d="M150 221c0 -68 45 -118 107 -118c82 0 132 61 132 142c0 78 -45 118 -111 118c-79 0 -128 -66 -128 -142zM577 519h-137c-1 53 -37 88 -89 88c-110 0 -154 -119 -183 -209l2 -2c36 52 95 74 154 74c126 0 207 -84 207 -214c0 -150 -117 -270 -270 -270
c-178 0 -248 120 -248 285c0 245 127 443 343 443c122 0 215 -59 221 -195z" />
    <glyph glyph-name="seven" unicode="7" horiz-adv-x="556" 
d="M591 700l-26 -122c-160 -134 -294 -377 -346 -578h-151c49 193 194 433 342 568h-344l28 132h497z" />
    <glyph glyph-name="eight" unicode="8" horiz-adv-x="556" 
d="M122 201c0 -67 59 -108 123 -108c83 0 137 45 137 118c0 76 -65 112 -124 112c-75 0 -136 -41 -136 -122zM68 509c0 128 116 205 264 205c133 0 218 -84 218 -188c0 -67 -55 -140 -135 -156v-2c60 -12 109 -87 109 -157c0 -143 -140 -225 -284 -225
c-151 0 -260 86 -260 206c0 107 77 162 175 185v2c-48 23 -87 71 -87 130zM195 509c0 -68 66 -91 114 -91c58 0 114 36 114 94c0 66 -53 95 -111 95c-73 0 -117 -37 -117 -98z" />
    <glyph glyph-name="nine" unicode="9" horiz-adv-x="556" 
d="M415 479c0 68 -45 118 -107 118c-82 0 -132 -61 -132 -142c0 -78 45 -118 111 -118c79 0 128 66 128 142zM-12 181h137c1 -53 37 -88 89 -88c110 0 154 119 183 209l-2 2c-36 -52 -95 -74 -154 -74c-126 0 -207 84 -207 214c0 150 117 270 270 270
c178 0 248 -120 248 -285c0 -245 -127 -443 -343 -443c-122 0 -215 59 -221 195z" />
    <glyph glyph-name="colon" unicode=":" horiz-adv-x="278" 
d="M-13 0l33 154h158l-33 -154h-158zM252 508l-33 -154h-158l33 154h158z" />
    <glyph glyph-name="semicolon" unicode=";" horiz-adv-x="278" 
d="M-13 0l32 154h158c-36 -144 -28 -314 -225 -321l15 71c59 10 78 39 89 96h-69zM61 354l33 154h158l-33 -154h-158z" />
    <glyph glyph-name="less" unicode="&#x3c;" horiz-adv-x="600" 
d="M534 514v-115l-367 -146l367 -146v-115l-508 202v118z" />
    <glyph glyph-name="equal" unicode="=" horiz-adv-x="600" 
d="M536 413v-107h-505v107h505zM536 199v-107h-505v107h505z" />
    <glyph glyph-name="greater" unicode="&#x3e;" horiz-adv-x="600" 
d="M46 -8v115l367 146l-367 146v115l508 -202v-118z" />
    <glyph glyph-name="question" unicode="?" horiz-adv-x="574" 
d="M216 491h-142c8 159 127 240 278 240c115 0 218 -57 218 -185c0 -95 -65 -148 -139 -190c-60 -33 -105 -63 -114 -136h-132c19 131 69 165 165 216c39 22 71 53 71 100c0 53 -40 78 -87 78c-71 0 -110 -58 -118 -123zM123 0l33 154h158l-33 -154h-158z" />
    <glyph glyph-name="at" unicode="@" horiz-adv-x="800" 
d="M291 319c0 -53 32 -89 78 -89c72 0 123 82 123 151c0 49 -34 85 -77 85c-72 0 -124 -81 -124 -147zM622 545l-63 -258c-8 -27 -16 -66 9 -66c55 0 116 77 116 184c0 159 -119 246 -269 246c-172 0 -283 -127 -283 -296c0 -175 123 -292 295 -292c84 0 163 30 215 82h84
c-68 -103 -180 -162 -305 -162c-213 0 -385 160 -385 374c0 211 172 374 380 374c182 0 348 -121 348 -305c0 -206 -171 -290 -235 -290c-42 0 -71 24 -73 57h-2c-24 -40 -66 -58 -108 -58c-86 0 -157 78 -157 171c0 126 86 255 218 255c43 0 94 -18 117 -70l16 54h82z" />
    <glyph glyph-name="A" unicode="A" horiz-adv-x="685" 
d="M395 560l-154 -284h191l-35 284h-2zM-77 0l422 714h161l119 -714h-156l-23 159h-267l-90 -159h-166z" />
    <glyph glyph-name="B" unicode="B" horiz-adv-x="722" 
d="M215 318l-42 -196h197c71 0 123 39 123 115c0 75 -67 81 -124 81h-154zM-4 0l150 714h300c143 0 232 -31 232 -167c0 -81 -50 -156 -134 -166v-2c68 -18 106 -76 106 -145c0 -155 -130 -234 -273 -234h-381zM272 592l-35 -167h178c57 0 106 32 106 94c0 54 -32 73 -83 73
h-166z" />
    <glyph glyph-name="C" unicode="C" 
d="M713 466h-157c0 88 -53 133 -128 133c-161 0 -234 -163 -234 -300c0 -98 48 -184 162 -184c87 0 154 67 168 142h157c-64 -199 -172 -274 -327 -274c-200 0 -317 115 -317 316c0 231 149 432 390 432c165 0 290 -91 286 -265z" />
    <glyph glyph-name="D" unicode="D" 
d="M-4 0l151 714h258c199 0 303 -103 303 -278c0 -249 -138 -436 -413 -436h-299zM277 582l-96 -450h121c160 0 249 126 249 277c0 103 -44 173 -156 173h-118z" />
    <glyph glyph-name="E" unicode="E" horiz-adv-x="667" 
d="M-4 0l150 714h545l-27 -132h-388l-32 -153h359l-26 -122h-359l-37 -175h394l-28 -132h-551z" />
    <glyph glyph-name="F" unicode="F" horiz-adv-x="593" 
d="M-4 0l151 714h508l-29 -132h-350l-35 -165h306l-26 -122h-305l-63 -295h-157z" />
    <glyph glyph-name="G" unicode="G" horiz-adv-x="759" 
d="M536 0v73h-2c-47 -64 -114 -90 -180 -90c-200 0 -317 115 -317 316c0 231 149 432 390 432c167 0 303 -78 303 -253h-157c-4 86 -58 121 -145 121c-161 0 -234 -163 -234 -300c0 -98 48 -184 162 -184c119 0 171 63 198 154h-165l25 117h303l-82 -386h-99z" />
    <glyph glyph-name="H" unicode="H" 
d="M-4 0l151 714h158l-58 -274h289l58 274h158l-151 -714h-158l65 308h-289l-65 -308h-158z" />
    <glyph glyph-name="I" unicode="I" horiz-adv-x="296" 
d="M-4 0l151 714h158l-151 -714h-158z" />
    <glyph glyph-name="J" unicode="J" horiz-adv-x="556" 
d="M565 714l-106 -511c-32 -140 -106 -220 -261 -220c-112 0 -217 48 -217 173c0 38 7 73 13 110h143c-7 -31 -14 -61 -14 -84c0 -44 37 -67 77 -67c81 0 92 57 108 122l99 477h158z" />
    <glyph glyph-name="K" unicode="K" horiz-adv-x="722" 
d="M-4 0l149 714h157l-62 -299h2l324 299h208l-343 -294l219 -420h-177l-163 321l-109 -95l-47 -226h-158z" />
    <glyph glyph-name="L" unicode="L" horiz-adv-x="574" 
d="M-4 0l150 714h158l-122 -582h345l-28 -132h-503z" />
    <glyph glyph-name="M" unicode="M" horiz-adv-x="907" 
d="M-4 0l151 714h217l55 -517h2l275 517h219l-151 -714h-147l130 568h-2l-302 -568h-120l-69 568h-2l-107 -568h-149z" />
    <glyph glyph-name="N" unicode="N" 
d="M-4 0l151 714h162l194 -508h2l102 508h144l-151 -714h-157l-196 501h-2l-102 -501h-147z" />
    <glyph glyph-name="O" unicode="O" horiz-adv-x="778" 
d="M194 299c0 -98 48 -184 162 -184c154 0 231 164 231 299c0 100 -44 185 -159 185c-161 0 -234 -163 -234 -300zM37 299c0 231 149 432 390 432c193 0 317 -106 317 -306c0 -235 -140 -442 -390 -442c-200 0 -317 115 -317 316z" />
    <glyph glyph-name="P" unicode="P" horiz-adv-x="667" 
d="M277 592l-44 -214h160c79 0 129 40 129 125c0 72 -56 89 -111 89h-134zM-4 0l149 714h286c144 -1 248 -50 248 -208s-130 -250 -278 -250h-194l-54 -256h-157z" />
    <glyph glyph-name="Q" unicode="Q" horiz-adv-x="778" 
d="M362 189l84 69l63 -71c52 60 78 149 78 227c0 100 -44 185 -159 185c-161 0 -234 -163 -234 -300c0 -98 48 -184 162 -184c22 0 43 4 62 11zM682 -9l-84 -70l-84 96c-47 -22 -100 -34 -160 -34c-200 0 -317 115 -317 316c0 231 149 432 390 432c193 0 317 -106 317 -306
c0 -137 -48 -265 -138 -348z" />
    <glyph glyph-name="R" unicode="R" horiz-adv-x="722" 
d="M-4 0l150 714h341c129 2 213 -49 213 -187c0 -97 -68 -178 -164 -192v-2c59 -18 74 -70 74 -126c0 -32 -5 -80 -5 -124c0 -32 2 -62 10 -83h-153c-4 17 -7 32 -7 48c0 48 8 97 8 145c0 69 -41 86 -103 86h-148l-59 -279h-157zM278 592l-42 -201h145c83 1 162 33 162 113
c0 77 -54 88 -116 88h-149z" />
    <glyph glyph-name="S" unicode="S" horiz-adv-x="648" 
d="M5 237h149c-5 -101 64 -132 154 -132c63 0 136 30 136 101c0 70 -92 84 -181 111c-90 28 -180 69 -180 192c0 159 145 222 283 222c146 0 268 -65 268 -230h-149c3 80 -55 108 -128 108c-60 0 -125 -23 -125 -89c0 -71 121 -89 170 -101c112 -29 191 -72 191 -200
c0 -171 -155 -236 -291 -236c-197 0 -297 82 -297 254z" />
    <glyph glyph-name="T" unicode="T" horiz-adv-x="611" 
d="M156 0l122 582h-224l28 132h596l-28 -132h-214l-122 -582h-158z" />
    <glyph glyph-name="U" unicode="U" 
d="M750 714l-87 -415c-43 -205 -122 -316 -344 -316c-139 0 -281 56 -281 212c0 34 6 63 15 106l87 413h157l-87 -413c-7 -31 -15 -69 -15 -90c0 -36 26 -96 134 -96c128 0 152 68 175 176l89 423h157z" />
    <glyph glyph-name="V" unicode="V" horiz-adv-x="630" 
d="M712 714l-381 -714h-177l-82 714h157l47 -536h2l271 536h163z" />
    <glyph glyph-name="W" unicode="W" horiz-adv-x="944" 
d="M1013 714l-335 -714h-156l-18 510h-2l-222 -510h-158l-49 714h157l10 -523h2l226 523h150l18 -521h2l218 521h157z" />
    <glyph glyph-name="X" unicode="X" horiz-adv-x="667" 
d="M-70 0l325 376l-167 338h171l101 -236l183 236h186l-297 -345l177 -369h-173l-112 255l-204 -255h-190z" />
    <glyph glyph-name="Y" unicode="Y" horiz-adv-x="648" 
d="M175 0l57 277l-171 437h161l107 -304l222 304h185l-348 -444l-55 -270h-158z" />
    <glyph glyph-name="Z" unicode="Z" horiz-adv-x="648" 
d="M-43 0l27 130l477 452h-366l29 132h564l-26 -126l-481 -456h403l-26 -132h-601z" />
    <glyph glyph-name="bracketleft" unicode="[" horiz-adv-x="333" 
d="M-37 -182l192 913h258l-24 -112h-125l-145 -689h126l-24 -112h-258z" />
    <glyph glyph-name="backslash" unicode="\" horiz-adv-x="389" 
d="M112 731l279 -748h-114l-279 748h114z" />
    <glyph glyph-name="bracketright" unicode="]" horiz-adv-x="333" 
d="M338 731l-192 -913h-258l24 112h125l145 689h-126l24 112h258z" />
    <glyph glyph-name="asciicircum" unicode="^" horiz-adv-x="600" 
d="M71 315l172 385h134l172 -385h-117l-122 275l-122 -275h-117z" />
    <glyph glyph-name="underscore" unicode="_" horiz-adv-x="500" 
d="M0 -125v50h500v-50h-500z" />
    <glyph glyph-name="grave" unicode="`" horiz-adv-x="259" 
d="M186 731l78 -142h-100l-130 142h152z" />
    <glyph glyph-name="a" unicode="a" horiz-adv-x="574" 
d="M346 198l14 50c-24 -14 -49 -19 -106 -24c-70 -6 -119 -20 -119 -85c0 -39 37 -58 78 -58c88 0 117 61 133 117zM60 360c18 130 128 171 245 171c93 0 215 -20 215 -136c0 -22 -4 -55 -11 -87l-46 -208c-4 -18 -7 -50 -7 -70c0 -9 2 -21 5 -30h-142v51
c-39 -44 -100 -65 -158 -65c-113 0 -168 64 -168 136c0 99 76 164 207 177l69 7c81 8 119 16 119 67s-54 63 -90 63c-51 0 -96 -24 -105 -76h-133z" />
    <glyph glyph-name="b" unicode="b" horiz-adv-x="616" 
d="M325 424c-111 0 -154 -130 -154 -222c0 -63 38 -109 103 -109c107 0 152 127 152 216c0 65 -28 115 -101 115zM-12 0l150 714h142l-53 -252h2c44 48 85 69 153 69c131 0 186 -100 186 -220c0 -160 -92 -325 -268 -325c-71 0 -137 23 -162 95h-2l-17 -81h-131z" />
    <glyph glyph-name="c" unicode="c" horiz-adv-x="559" 
d="M537 338h-142c0 61 -33 86 -95 86c-108 0 -145 -130 -145 -219c0 -62 26 -112 98 -112c63 0 99 45 115 96h142c-43 -129 -133 -203 -267 -203c-144 0 -230 71 -230 222c0 176 106 323 292 323c126 0 229 -56 232 -193z" />
    <glyph glyph-name="d" unicode="d" horiz-adv-x="621" 
d="M352 0l14 64l-2 2c-32 -56 -92 -80 -155 -80c-124 0 -197 80 -197 204c0 170 91 341 282 341c60 0 123 -26 145 -83h2l57 266h142l-151 -714h-137zM309 424c-107 0 -155 -125 -155 -216c0 -62 34 -115 101 -115c106 0 156 130 156 219c0 66 -33 112 -102 112z" />
    <glyph glyph-name="e" unicode="e" horiz-adv-x="580" 
d="M531 224h-381c-1 -13 -1 -22 -1 -30c0 -60 37 -101 114 -101c57 0 85 38 106 71h142c-45 -116 -119 -178 -268 -178c-138 0 -230 79 -230 226c0 165 109 319 285 319c144 0 241 -76 241 -226c0 -28 -3 -56 -8 -81zM165 314h237c0 53 -13 110 -96 110
c-80 0 -120 -52 -141 -110z" />
    <glyph glyph-name="f" unicode="f" horiz-adv-x="352" 
d="M17 0l89 422h-84l20 95h85c28 132 52 203 201 203c31 0 62 -3 93 -8l-22 -102c-15 1 -31 3 -46 3c-70 0 -69 -36 -84 -96h101l-20 -95h-102l-89 -422h-142z" />
    <glyph glyph-name="g" unicode="g" horiz-adv-x="613" 
d="M304 424c-95 0 -145 -112 -145 -195c0 -61 30 -114 96 -114c102 0 151 109 151 197c0 65 -33 112 -102 112zM590 517l-103 -490c-35 -157 -114 -223 -285 -223c-105 0 -221 45 -221 169h142c-2 -52 47 -74 93 -74c90 0 116 79 144 180l-2 2c-37 -49 -84 -73 -142 -73
c-123 0 -199 84 -199 211c0 151 95 312 261 312c71 0 129 -25 158 -93h2l16 79h136z" />
    <glyph glyph-name="h" unicode="h" horiz-adv-x="601" 
d="M333 419c-86 0 -130 -72 -145 -144l-58 -275h-142l149 714h142l-53 -257h2c22 30 78 74 171 74c98 0 151 -49 151 -139c0 -21 -11 -71 -15 -89l-64 -303h-142l63 303c6 27 9 45 9 58c0 34 -30 58 -68 58z" />
    <glyph glyph-name="i" unicode="i" horiz-adv-x="262" 
d="M-13 0l110 517h143l-110 -517h-143zM282 714l-26 -117h-143l26 117h143z" />
    <glyph glyph-name="j" unicode="j" horiz-adv-x="266" 
d="M-131 -177l24 114c13 -1 28 -2 41 -2c38 0 48 15 64 93l103 489h142l-113 -536c-23 -110 -64 -163 -192 -163c-21 0 -44 2 -69 5zM284 714l-26 -117h-143l26 117h143z" />
    <glyph glyph-name="k" unicode="k" horiz-adv-x="556" 
d="M-12 0l150 714h142l-82 -388l2 -2l204 193h175l-232 -196l133 -321h-156l-85 231l-74 -63l-35 -168h-142z" />
    <glyph glyph-name="l" unicode="l" horiz-adv-x="261" 
d="M-13 0l152 714h142l-152 -714h-142z" />
    <glyph glyph-name="m" unicode="m" horiz-adv-x="907" 
d="M-12 0l108 517h136l-16 -73h2c43 58 107 87 181 87c62 0 113 -28 125 -90c35 53 109 90 175 90c81 0 157 -42 157 -131c0 -32 -9 -65 -15 -96l-64 -304h-142l68 327c3 13 4 27 4 37c0 31 -26 55 -62 55c-76 0 -120 -80 -133 -142l-58 -277h-143l68 327c3 15 4 27 4 37
c0 31 -26 55 -62 55c-76 0 -120 -81 -133 -142l-58 -277h-142z" />
    <glyph glyph-name="n" unicode="n" horiz-adv-x="601" 
d="M-12 0l108 517h136l-16 -72h2c46 57 107 86 181 86c98 0 151 -49 151 -139c0 -21 -11 -71 -15 -89l-64 -303h-142l63 303c6 27 9 45 9 58c0 34 -30 58 -68 58c-86 0 -130 -72 -145 -144l-58 -275h-142z" />
    <glyph glyph-name="o" unicode="o" horiz-adv-x="599" 
d="M13 209c0 175 113 322 297 322c142 0 241 -70 241 -219c0 -182 -113 -326 -301 -326c-144 0 -237 75 -237 223zM155 209c0 -61 35 -116 102 -116c106 0 152 130 152 217c0 69 -30 114 -104 114c-104 0 -150 -128 -150 -215z" />
    <glyph glyph-name="p" unicode="p" horiz-adv-x="621" 
d="M330 424c-106 0 -156 -130 -156 -219c0 -66 33 -112 102 -112c107 0 155 125 155 216c0 62 -34 115 -101 115zM-52 -182l149 699h137l-14 -64l2 -2c32 56 92 80 155 80c124 0 196 -80 196 -204c0 -170 -90 -341 -281 -341c-60 0 -123 26 -145 83h-3l-54 -251h-142z" />
    <glyph glyph-name="q" unicode="q" horiz-adv-x="615" 
d="M592 517l-147 -699h-142l47 223h-2c-31 -33 -75 -55 -146 -55c-133 0 -190 100 -190 220c0 160 92 325 268 325c71 0 137 -23 162 -95h2l17 81h131zM310 424c-111 0 -156 -127 -156 -216c0 -65 28 -115 105 -115c102 0 154 130 154 222c0 63 -38 109 -103 109z" />
    <glyph glyph-name="r" unicode="r" horiz-adv-x="389" 
d="M-12 0l108 517h135l-21 -93l2 -2c32 71 102 109 178 109c15 0 29 -1 44 -3l-29 -138c-20 4 -40 9 -60 9c-109 0 -148 -82 -167 -170l-48 -229h-142z" />
    <glyph glyph-name="s" unicode="s" horiz-adv-x="519" 
d="M484 366h-132c-1 44 -26 70 -80 70c-50 0 -87 -14 -87 -51c0 -23 17 -37 65 -52l71 -23c76 -25 136 -61 136 -148c0 -128 -127 -176 -246 -176c-101 0 -220 40 -220 161v21h132v-17c0 -47 53 -70 102 -70c43 0 90 15 90 62c0 36 -20 47 -51 57l-109 35
c-71 23 -112 51 -112 132c0 122 129 164 229 164c113 0 214 -32 212 -165z" />
    <glyph glyph-name="t" unicode="t" horiz-adv-x="370" 
d="M310 674l-32 -157h102l-22 -95h-101l-53 -257c-2 -11 -4 -24 -4 -28c0 -25 18 -34 44 -34c17 0 38 1 55 3l-24 -110c-29 -3 -59 -5 -89 -5c-66 0 -135 21 -135 102c0 13 3 34 7 52l58 277h-93l22 95h91l32 157h142z" />
    <glyph glyph-name="u" unicode="u" horiz-adv-x="601" 
d="M578 517l-108 -517h-136l16 72h-2c-46 -57 -107 -86 -181 -86c-98 0 -150 49 -150 136c0 22 7 60 14 92l64 303h142l-63 -303c-4 -21 -9 -49 -9 -62c0 -33 29 -54 68 -54c86 0 130 72 145 144l58 275h142z" />
    <glyph glyph-name="v" unicode="v" horiz-adv-x="519" 
d="M543 517l-283 -517h-162l-68 517h146l32 -368h2l183 368h150z" />
    <glyph glyph-name="w" unicode="w" horiz-adv-x="815" 
d="M834 517l-270 -517h-148l-18 363h-2l-160 -363h-149l-57 517h145l20 -364h2l159 364h144l16 -361h2l166 361h150z" />
    <glyph glyph-name="x" unicode="x" horiz-adv-x="519" 
d="M531 517l-215 -248l131 -269h-150l-75 170l-138 -170h-161l240 277l-117 240h152l57 -149l117 149h159z" />
    <glyph glyph-name="y" unicode="y" horiz-adv-x="519" 
d="M543 517l-329 -590c-49 -89 -95 -109 -202 -109c-25 0 -50 2 -75 6l24 117c22 -4 44 -6 58 -6c40 0 61 13 80 46l14 24l-92 512h146l45 -370h2l179 370h150z" />
    <glyph glyph-name="z" unicode="z" horiz-adv-x="500" 
d="M-51 0l22 105l324 305h-249l23 107h434l-22 -105l-325 -305h285l-23 -107h-469z" />
    <glyph glyph-name="braceleft" unicode="{" horiz-adv-x="333" 
d="M411 731l-23 -112h-54c-44 0 -62 -34 -69 -73l-32 -152c-20 -98 -93 -114 -124 -118v-3c25 -3 79 -20 79 -79c0 -9 -1 -20 -3 -31l-33 -160c-3 -12 -4 -26 -4 -38c0 -19 12 -35 42 -35h54l-23 -112h-127c-40 0 -98 35 -98 107c0 9 1 18 3 28l41 195c1 6 2 11 2 16
c0 49 -48 67 -77 67l18 87c32 0 97 23 111 90l39 188c19 91 106 135 151 135h127z" />
    <glyph glyph-name="bar" unicode="|" horiz-adv-x="222" 
d="M58 -214v1000h107v-1000h-107z" />
    <glyph glyph-name="braceright" unicode="}" horiz-adv-x="333" 
d="M-110 -182l23 112h54c44 0 62 34 69 73l32 152c20 98 93 114 124 118v3c-25 3 -79 20 -79 79c0 9 1 20 3 31l33 160c3 12 4 26 4 38c0 19 -12 35 -42 35h-54l23 112h127c40 0 98 -35 98 -107c0 -9 -1 -18 -3 -28l-41 -195c-1 -6 -2 -11 -2 -16c0 -49 48 -67 77 -67
l-18 -87c-32 0 -97 -23 -111 -90l-39 -188c-19 -91 -106 -135 -151 -135h-127z" />
    <glyph glyph-name="asciitilde" unicode="~" horiz-adv-x="600" 
d="M476 344l40 -93c-30 -42 -63 -86 -125 -86c-78 0 -143 68 -217 68c-44 0 -68 -37 -84 -72l-40 93c22 42 58 86 125 86c76 0 160 -68 213 -68c40 0 65 37 88 72z" />
    <glyph glyph-name="uni00A0" unicode="&#xa0;" horiz-adv-x="278" 
 />
    <glyph glyph-name="Agrave" unicode="&#xc0;" horiz-adv-x="685" 
d="M395 560l-154 -284h191l-35 284h-2zM-77 0l422 714h161l119 -714h-156l-23 159h-267l-90 -159h-166zM423 921l78 -142h-100l-130 142h152z" />
    <glyph glyph-name="Aacute" unicode="&#xc1;" horiz-adv-x="685" 
d="M395 560l-154 -284h191l-35 284h-2zM-77 0l422 714h161l119 -714h-156l-23 159h-267l-90 -159h-166zM600 921l-140 -142h-100l88 142h152z" />
    <glyph glyph-name="Acircumflex" unicode="&#xc2;" horiz-adv-x="685" 
d="M395 560l-154 -284h191l-35 284h-2zM-77 0l422 714h161l119 -714h-156l-23 159h-267l-90 -159h-166zM258 779l137 142h126l83 -142h-100l-51 81l-86 -81h-109z" />
    <glyph glyph-name="Atilde" unicode="&#xc3;" horiz-adv-x="685" 
d="M395 560l-154 -284h191l-35 284h-2zM-77 0l422 714h161l119 -714h-156l-23 159h-267l-90 -159h-166zM514 797c-60 0 -103 34 -147 34c-25 0 -38 -17 -45 -42h-63c7 59 48 122 117 122c54 0 101 -35 143 -35c24 0 36 10 43 35h64c-12 -60 -39 -114 -112 -114z" />
    <glyph glyph-name="Adieresis" unicode="&#xc4;" horiz-adv-x="685" 
d="M395 560l-154 -284h191l-35 284h-2zM-77 0l422 714h161l119 -714h-156l-23 159h-267l-90 -159h-166zM268 788l24 117h131l-24 -117h-131zM464 788l24 117h131l-24 -117h-131z" />
    <glyph glyph-name="Amacron" unicode="&#x100;" horiz-adv-x="685" 
d="M395 560l-154 -284h191l-35 284h-2zM-77 0l422 714h161l119 -714h-156l-23 159h-267l-90 -159h-166zM285 809l14 75h305l-14 -75h-305z" />
    <glyph glyph-name="Abreve" unicode="&#x102;" horiz-adv-x="685" 
d="M395 560l-154 -284h191l-35 284h-2zM-77 0l422 714h161l119 -714h-156l-23 159h-267l-90 -159h-166zM287 921h65c4 -46 43 -67 94 -67c60 0 90 25 114 67h66c-27 -90 -88 -142 -189 -142c-92 0 -150 56 -150 142z" />
    <glyph glyph-name="Aring" unicode="&#xc5;" horiz-adv-x="685" 
d="M395 560l-154 -284h191l-35 284h-2zM-77 0l422 714h161l119 -714h-156l-23 159h-267l-90 -159h-166zM561 859c0 -64 -52 -114 -117 -114c-67 0 -117 50 -117 114s52 114 117 114c67 0 117 -50 117 -114zM383 859c0 -36 24 -63 61 -63s61 26 61 63c0 36 -24 63 -61 63
s-61 -26 -61 -63z" />
    <glyph glyph-name="Aringacute" unicode="&#x1fa;" horiz-adv-x="685" 
d="M-77 0l414 694c-7 13 -10 28 -10 45c0 56 43 98 104 98c62 0 103 -42 103 -98c0 -26 -10 -49 -25 -66l116 -673h-156l-23 159h-267l-90 -159h-166zM397 570l-156 -294h191l-33 294h-2zM607 973l-120 -115h-99l74 115h145zM380 739c0 -29 20 -53 50 -53c31 0 51 23 51 53
c0 29 -20 53 -50 53c-31 0 -51 -23 -51 -53z" />
    <glyph glyph-name="Aogonek" unicode="&#x104;" horiz-adv-x="685" 
d="M540 -127l44 -24c-30 -43 -72 -66 -125 -66c-64 0 -104 32 -104 78c0 52 48 99 127 139h-13l-23 159h-267l-90 -159h-166l422 714h161l119 -714h-69c-66 -42 -108 -83 -108 -123c0 -21 16 -34 35 -34c22 0 39 11 57 30zM395 560l-154 -284h191l-35 284h-2z" />
    <glyph glyph-name="AE" unicode="&#xc6;" horiz-adv-x="981" 
d="M439 271l67 311h-20l-219 -311h172zM-91 0l501 714h611l-28 -132h-329l-33 -153h308l-26 -122h-308l-38 -175h339l-28 -132h-497l33 154h-220l-109 -154h-176z" />
    <glyph glyph-name="AEacute" unicode="&#x1fc;" horiz-adv-x="981" 
d="M439 271l67 311h-20l-219 -311h172zM-91 0l501 714h611l-28 -132h-329l-33 -153h308l-26 -122h-308l-38 -175h339l-28 -132h-497l33 154h-220l-109 -154h-176zM849 921l-140 -142h-100l88 142h152z" />
    <glyph glyph-name="Cacute" unicode="&#x106;" 
d="M713 466h-157c0 88 -53 133 -128 133c-161 0 -234 -163 -234 -300c0 -98 48 -184 162 -184c87 0 154 67 168 142h157c-64 -199 -172 -274 -327 -274c-200 0 -317 115 -317 316c0 231 149 432 390 432c165 0 290 -91 286 -265zM626 921l-140 -142h-100l88 142h152z" />
    <glyph glyph-name="Ccircumflex" unicode="&#x108;" 
d="M713 466h-157c0 88 -53 133 -128 133c-161 0 -234 -163 -234 -300c0 -98 48 -184 162 -184c87 0 154 67 168 142h157c-64 -199 -172 -274 -327 -274c-200 0 -317 115 -317 316c0 231 149 432 390 432c165 0 290 -91 286 -265zM274 779l137 142h126l83 -142h-100l-51 81
l-86 -81h-109z" />
    <glyph glyph-name="Ccaron" unicode="&#x10c;" 
d="M713 466h-157c0 88 -53 133 -128 133c-161 0 -234 -163 -234 -300c0 -98 48 -184 162 -184c87 0 154 67 168 142h157c-64 -199 -172 -274 -327 -274c-200 0 -317 115 -317 316c0 231 149 432 390 432c165 0 290 -91 286 -265zM652 921l-137 -142h-126l-83 142h100l51 -82
l86 82h109z" />
    <glyph glyph-name="Cdotaccent" unicode="&#x10a;" 
d="M713 466h-157c0 88 -53 133 -128 133c-161 0 -234 -163 -234 -300c0 -98 48 -184 162 -184c87 0 154 67 168 142h157c-64 -199 -172 -274 -327 -274c-200 0 -317 115 -317 316c0 231 149 432 390 432c165 0 290 -91 286 -265zM382 788l24 117h131l-24 -117h-131z" />
    <glyph glyph-name="Ccedilla" unicode="&#xc7;" 
d="M168 -195l24 48c21 -9 49 -18 77 -18c29 0 49 11 49 34c0 19 -16 33 -40 33c-14 0 -28 -3 -41 -8l-19 24l57 72c-152 26 -238 136 -238 309c0 231 149 432 390 432c165 0 290 -91 286 -265h-157c0 88 -53 133 -128 133c-161 0 -234 -163 -234 -300
c0 -98 48 -184 162 -184c87 0 154 67 168 142h157c-64 -199 -172 -274 -327 -274c-10 0 -21 1 -30 1l-32 -36l2 -2c12 5 27 7 38 7c51 0 81 -30 81 -73c0 -66 -59 -97 -135 -97c-45 0 -73 8 -110 22z" />
    <glyph glyph-name="Dcaron" unicode="&#x10e;" 
d="M-4 0l151 714h258c199 0 303 -103 303 -278c0 -249 -138 -436 -413 -436h-299zM277 582l-96 -450h121c160 0 249 126 249 277c0 103 -44 173 -156 173h-118zM594 921l-137 -142h-126l-83 142h100l51 -82l86 82h109z" />
    <glyph glyph-name="Dcroat" unicode="&#x110;" 
d="M-4 0l67 319h-80l21 99h81l62 296h258c199 0 303 -103 303 -278c0 -249 -138 -436 -413 -436h-299zM277 582l-35 -164h164l-21 -99h-165l-39 -187h121c160 0 249 126 249 277c0 103 -44 173 -156 173h-118z" />
    <glyph glyph-name="Eth" unicode="&#xd0;" 
d="M-4 0l67 319h-80l21 99h81l62 296h258c199 0 303 -103 303 -278c0 -249 -138 -436 -413 -436h-299zM277 582l-35 -164h164l-21 -99h-165l-39 -187h121c160 0 249 126 249 277c0 103 -44 173 -156 173h-118z" />
    <glyph glyph-name="Egrave" unicode="&#xc8;" horiz-adv-x="667" 
d="M-4 0l150 714h545l-27 -132h-388l-32 -153h359l-26 -122h-359l-37 -175h394l-28 -132h-551zM399 921l78 -142h-100l-130 142h152z" />
    <glyph glyph-name="Eacute" unicode="&#xc9;" horiz-adv-x="667" 
d="M-4 0l150 714h545l-27 -132h-388l-32 -153h359l-26 -122h-359l-37 -175h394l-28 -132h-551zM596 921l-140 -142h-100l88 142h152z" />
    <glyph glyph-name="Ecircumflex" unicode="&#xca;" horiz-adv-x="667" 
d="M-4 0l150 714h545l-27 -132h-388l-32 -153h359l-26 -122h-359l-37 -175h394l-28 -132h-551zM244 779l137 142h126l83 -142h-100l-51 81l-86 -81h-109z" />
    <glyph glyph-name="Ecaron" unicode="&#x11a;" horiz-adv-x="667" 
d="M-4 0l150 714h545l-27 -132h-388l-32 -153h359l-26 -122h-359l-37 -175h394l-28 -132h-551zM622 921l-137 -142h-126l-83 142h100l51 -82l86 82h109z" />
    <glyph glyph-name="Edieresis" unicode="&#xcb;" horiz-adv-x="667" 
d="M-4 0l150 714h545l-27 -132h-388l-32 -153h359l-26 -122h-359l-37 -175h394l-28 -132h-551zM254 788l24 117h131l-24 -117h-131zM450 788l24 117h131l-24 -117h-131z" />
    <glyph glyph-name="Emacron" unicode="&#x112;" horiz-adv-x="667" 
d="M-4 0l150 714h545l-27 -132h-388l-32 -153h359l-26 -122h-359l-37 -175h394l-28 -132h-551zM271 809l14 75h305l-14 -75h-305z" />
    <glyph glyph-name="Ebreve" unicode="&#x114;" horiz-adv-x="667" 
d="M-4 0l150 714h545l-27 -132h-388l-32 -153h359l-26 -122h-359l-37 -175h394l-28 -132h-551zM273 921h65c4 -46 43 -67 94 -67c60 0 90 25 114 67h66c-27 -90 -88 -142 -189 -142c-92 0 -150 56 -150 142z" />
    <glyph glyph-name="Edotaccent" unicode="&#x116;" horiz-adv-x="667" 
d="M-4 0l150 714h545l-27 -132h-388l-32 -153h359l-26 -122h-359l-37 -175h394l-28 -132h-551zM352 788l24 117h131l-24 -117h-131z" />
    <glyph glyph-name="Eogonek" unicode="&#x118;" horiz-adv-x="667" 
d="M-4 0l150 714h545l-27 -132h-388l-32 -153h359l-26 -122h-359l-37 -175h394l-28 -132h-67c-66 -42 -108 -83 -108 -123c0 -21 16 -34 35 -34c22 0 39 11 57 30l44 -24c-30 -43 -72 -66 -125 -66c-64 0 -104 32 -104 78c0 52 48 99 127 139h-410z" />
    <glyph glyph-name="Gcircumflex" unicode="&#x11c;" horiz-adv-x="759" 
d="M536 0v73h-2c-47 -64 -114 -90 -180 -90c-200 0 -317 115 -317 316c0 231 149 432 390 432c167 0 303 -78 303 -253h-157c-4 86 -58 121 -145 121c-161 0 -234 -163 -234 -300c0 -98 48 -184 162 -184c119 0 171 63 198 154h-165l25 117h303l-82 -386h-99zM278 779
l137 142h126l83 -142h-100l-51 81l-86 -81h-109z" />
    <glyph glyph-name="Gbreve" unicode="&#x11e;" horiz-adv-x="759" 
d="M536 0v73h-2c-47 -64 -114 -90 -180 -90c-200 0 -317 115 -317 316c0 231 149 432 390 432c167 0 303 -78 303 -253h-157c-4 86 -58 121 -145 121c-161 0 -234 -163 -234 -300c0 -98 48 -184 162 -184c119 0 171 63 198 154h-165l25 117h303l-82 -386h-99zM307 921h65
c4 -46 43 -67 94 -67c60 0 90 25 114 67h66c-27 -90 -88 -142 -189 -142c-92 0 -150 56 -150 142z" />
    <glyph glyph-name="Gdotaccent" unicode="&#x120;" horiz-adv-x="759" 
d="M536 0v73h-2c-47 -64 -114 -90 -180 -90c-200 0 -317 115 -317 316c0 231 149 432 390 432c167 0 303 -78 303 -253h-157c-4 86 -58 121 -145 121c-161 0 -234 -163 -234 -300c0 -98 48 -184 162 -184c119 0 171 63 198 154h-165l25 117h303l-82 -386h-99zM385 788
l24 117h131l-24 -117h-131z" />
    <glyph glyph-name="Gcommaaccent" unicode="&#x122;" horiz-adv-x="759" 
d="M536 0v73h-2c-47 -64 -114 -90 -180 -90c-200 0 -317 115 -317 316c0 231 149 432 390 432c167 0 303 -78 303 -253h-157c-4 86 -58 121 -145 121c-161 0 -234 -163 -234 -300c0 -98 48 -184 162 -184c119 0 171 63 198 154h-165l25 117h303l-82 -386h-99zM246 -143
l19 93h145l-15 -71c-18 -83 -73 -96 -155 -96l8 37c32 3 53 12 65 37h-67z" />
    <glyph glyph-name="Hcircumflex" unicode="&#x124;" 
d="M-4 0l151 714h158l-58 -274h289l58 274h158l-151 -714h-158l65 308h-289l-65 -308h-158zM277 779l137 142h126l83 -142h-100l-51 81l-86 -81h-109z" />
    <glyph glyph-name="Hbar" unicode="&#x126;" 
d="M443 0l59 281h-289l-59 -281h-158l151 714h158l-23 -109h289l23 109h158l-151 -714h-158zM263 516l-24 -113h289l24 113h-289z" />
    <glyph glyph-name="Igrave" unicode="&#xcc;" horiz-adv-x="296" 
d="M-4 0l151 714h158l-151 -714h-158zM236 921l78 -142h-100l-130 142h152z" />
    <glyph glyph-name="Iacute" unicode="&#xcd;" horiz-adv-x="296" 
d="M-4 0l151 714h158l-151 -714h-158zM397 921l-140 -142h-100l88 142h152z" />
    <glyph glyph-name="Ibreve" unicode="&#x12c;" horiz-adv-x="296" 
d="M-4 0l151 714h158l-151 -714h-158zM92 921h65c4 -46 43 -67 94 -67c60 0 90 25 114 67h66c-27 -90 -88 -142 -189 -142c-92 0 -150 56 -150 142z" />
    <glyph glyph-name="Icircumflex" unicode="&#xce;" horiz-adv-x="296" 
d="M-4 0l151 714h158l-151 -714h-158zM63 779l137 142h126l83 -142h-100l-51 81l-86 -81h-109z" />
    <glyph glyph-name="Itilde" unicode="&#x128;" horiz-adv-x="296" 
d="M-4 0l151 714h158l-151 -714h-158zM319 797c-60 0 -103 34 -147 34c-25 0 -38 -17 -45 -42h-63c7 59 48 122 117 122c54 0 101 -35 143 -35c24 0 36 10 43 35h64c-12 -60 -39 -114 -112 -114z" />
    <glyph glyph-name="Idieresis" unicode="&#xcf;" horiz-adv-x="296" 
d="M-4 0l151 714h158l-151 -714h-158zM73 788l24 117h131l-24 -117h-131zM269 788l24 117h131l-24 -117h-131z" />
    <glyph glyph-name="Imacron" unicode="&#x12a;" horiz-adv-x="296" 
d="M-4 0l151 714h158l-151 -714h-158zM90 809l14 75h305l-14 -75h-305z" />
    <glyph glyph-name="Idotaccent" unicode="&#x130;" horiz-adv-x="296" 
d="M-4 0l151 714h158l-151 -714h-158zM171 788l24 117h131l-24 -117h-131z" />
    <glyph glyph-name="Iogonek" unicode="&#x12e;" horiz-adv-x="296" 
d="M-4 0l151 714h158l-151 -714c-70 -42 -113 -83 -113 -123c0 -21 13 -34 32 -34s36 9 54 28l42 -25c-29 -42 -68 -63 -121 -63c-63 0 -100 32 -100 78c0 52 46 99 129 139h-81z" />
    <glyph glyph-name="Jcircumflex" unicode="&#x134;" horiz-adv-x="556" 
d="M565 714l-106 -511c-32 -140 -106 -220 -261 -220c-112 0 -217 48 -217 173c0 38 7 73 13 110h143c-7 -31 -14 -61 -14 -84c0 -44 37 -67 77 -67c81 0 92 57 108 122l99 477h158zM312 779l137 142h126l83 -142h-100l-51 81l-86 -81h-109z" />
    <glyph glyph-name="Kcommaaccent" unicode="&#x136;" horiz-adv-x="722" 
d="M-4 0l149 714h157l-62 -299h2l324 299h208l-343 -294l219 -420h-177l-163 321l-109 -95l-47 -226h-158zM211 -143l19 93h145l-15 -71c-18 -83 -73 -96 -155 -96l8 37c32 3 53 12 65 37h-67z" />
    <glyph glyph-name="Lacute" unicode="&#x139;" horiz-adv-x="574" 
d="M-4 0l150 714h158l-122 -582h345l-28 -132h-503zM417 921l-140 -142h-100l88 142h152z" />
    <glyph glyph-name="Lcaron" unicode="&#x13d;" horiz-adv-x="574" 
d="M-4 0l150 714h158l-122 -582h345l-28 -132h-503zM551 714l-95 -142h-97l48 142h144z" />
    <glyph glyph-name="Lcommaaccent" unicode="&#x13b;" horiz-adv-x="574" 
d="M-4 0l150 714h158l-122 -582h345l-28 -132h-503zM156 -143l19 93h145l-15 -71c-18 -83 -73 -96 -155 -96l8 37c32 3 53 12 65 37h-67z" />
    <glyph glyph-name="Lslash" unicode="&#x141;" horiz-adv-x="574" 
d="M-4 0l42 200l-82 -56l21 111l85 58l84 401h158l-58 -274l204 140l-26 -115l-202 -139l-41 -194h346l-28 -132h-503z" />
    <glyph glyph-name="Ldot" unicode="&#x13f;" horiz-adv-x="574" 
d="M-4 0l150 714h158l-122 -582h345l-28 -132h-503zM339 333l24 117h131l-24 -117h-131z" />
    <glyph glyph-name="Nacute" unicode="&#x143;" 
d="M-4 0l151 714h162l194 -508h2l102 508h144l-151 -714h-157l-196 501h-2l-102 -501h-147zM620 921l-140 -142h-100l88 142h152z" />
    <glyph glyph-name="Ncaron" unicode="&#x147;" 
d="M-4 0l151 714h162l194 -508h2l102 508h144l-151 -714h-157l-196 501h-2l-102 -501h-147zM646 921l-137 -142h-126l-83 142h100l51 -82l86 82h109z" />
    <glyph glyph-name="Ntilde" unicode="&#xd1;" 
d="M-4 0l151 714h162l194 -508h2l102 508h144l-151 -714h-157l-196 501h-2l-102 -501h-147zM524 797c-60 0 -103 34 -147 34c-25 0 -38 -17 -45 -42h-63c7 59 48 122 117 122c54 0 101 -35 143 -35c24 0 36 10 43 35h64c-12 -60 -39 -114 -112 -114z" />
    <glyph glyph-name="Ncommaaccent" unicode="&#x145;" 
d="M-4 0l151 714h162l194 -508h2l102 508h144l-151 -714h-157l-196 501h-2l-102 -501h-147zM207 -143l19 93h145l-15 -71c-18 -83 -73 -96 -155 -96l8 37c32 3 53 12 65 37h-67z" />
    <glyph glyph-name="Ograve" unicode="&#xd2;" horiz-adv-x="778" 
d="M194 299c0 -98 48 -184 162 -184c154 0 231 164 231 299c0 100 -44 185 -159 185c-161 0 -234 -163 -234 -300zM37 299c0 231 149 432 390 432c193 0 317 -106 317 -306c0 -235 -140 -442 -390 -442c-200 0 -317 115 -317 316zM441 921l78 -142h-100l-130 142h152z" />
    <glyph glyph-name="Oacute" unicode="&#xd3;" horiz-adv-x="778" 
d="M194 299c0 -98 48 -184 162 -184c154 0 231 164 231 299c0 100 -44 185 -159 185c-161 0 -234 -163 -234 -300zM37 299c0 231 149 432 390 432c193 0 317 -106 317 -306c0 -235 -140 -442 -390 -442c-200 0 -317 115 -317 316zM638 921l-140 -142h-100l88 142h152z" />
    <glyph glyph-name="Ocircumflex" unicode="&#xd4;" horiz-adv-x="778" 
d="M194 299c0 -98 48 -184 162 -184c154 0 231 164 231 299c0 100 -44 185 -159 185c-161 0 -234 -163 -234 -300zM37 299c0 231 149 432 390 432c193 0 317 -106 317 -306c0 -235 -140 -442 -390 -442c-200 0 -317 115 -317 316zM286 779l137 142h126l83 -142h-100l-51 81
l-86 -81h-109z" />
    <glyph glyph-name="Otilde" unicode="&#xd5;" horiz-adv-x="778" 
d="M194 299c0 -98 48 -184 162 -184c154 0 231 164 231 299c0 100 -44 185 -159 185c-161 0 -234 -163 -234 -300zM37 299c0 231 149 432 390 432c193 0 317 -106 317 -306c0 -235 -140 -442 -390 -442c-200 0 -317 115 -317 316zM542 797c-60 0 -103 34 -147 34
c-25 0 -38 -17 -45 -42h-63c7 59 48 122 117 122c54 0 101 -35 143 -35c24 0 36 10 43 35h64c-12 -60 -39 -114 -112 -114z" />
    <glyph glyph-name="Odieresis" unicode="&#xd6;" horiz-adv-x="778" 
d="M194 299c0 -98 48 -184 162 -184c154 0 231 164 231 299c0 100 -44 185 -159 185c-161 0 -234 -163 -234 -300zM37 299c0 231 149 432 390 432c193 0 317 -106 317 -306c0 -235 -140 -442 -390 -442c-200 0 -317 115 -317 316zM296 788l24 117h131l-24 -117h-131z
M492 788l24 117h131l-24 -117h-131z" />
    <glyph glyph-name="Omacron" unicode="&#x14c;" horiz-adv-x="778" 
d="M194 299c0 -98 48 -184 162 -184c154 0 231 164 231 299c0 100 -44 185 -159 185c-161 0 -234 -163 -234 -300zM37 299c0 231 149 432 390 432c193 0 317 -106 317 -306c0 -235 -140 -442 -390 -442c-200 0 -317 115 -317 316zM313 809l14 75h305l-14 -75h-305z" />
    <glyph glyph-name="Obreve" unicode="&#x14e;" horiz-adv-x="778" 
d="M194 299c0 -98 48 -184 162 -184c154 0 231 164 231 299c0 100 -44 185 -159 185c-161 0 -234 -163 -234 -300zM37 299c0 231 149 432 390 432c193 0 317 -106 317 -306c0 -235 -140 -442 -390 -442c-200 0 -317 115 -317 316zM315 921h65c4 -46 43 -67 94 -67
c60 0 90 25 114 67h66c-27 -90 -88 -142 -189 -142c-92 0 -150 56 -150 142z" />
    <glyph glyph-name="Ohungarumlaut" unicode="&#x150;" horiz-adv-x="778" 
d="M194 299c0 -98 48 -184 162 -184c154 0 231 164 231 299c0 100 -44 185 -159 185c-161 0 -234 -163 -234 -300zM37 299c0 231 149 432 390 432c193 0 317 -106 317 -306c0 -235 -140 -442 -390 -442c-200 0 -317 115 -317 316zM743 921l-140 -142h-100l88 142h152z
M543 921l-140 -142h-100l88 142h152z" />
    <glyph glyph-name="Oslash" unicode="&#xd8;" horiz-adv-x="778" 
d="M205 224l345 321c-26 34 -66 54 -122 54c-161 0 -234 -163 -234 -300c0 -27 4 -53 11 -75zM577 489l-344 -319c26 -34 67 -55 123 -55c154 0 231 164 231 299c0 27 -3 53 -10 75zM801 696l-102 -94c29 -47 45 -106 45 -177c0 -235 -140 -442 -390 -442
c-100 0 -179 29 -232 83l-101 -94l-40 44l103 96c-31 48 -47 112 -47 187c0 231 149 432 390 432c99 0 179 -27 234 -82l99 92z" />
    <glyph glyph-name="Oslashacute" unicode="&#x1fe;" horiz-adv-x="778" 
d="M638 921l-140 -142h-100l88 142h152zM205 224l345 321c-26 34 -66 54 -122 54c-161 0 -234 -163 -234 -300c0 -27 4 -53 11 -75zM577 489l-344 -319c26 -34 67 -55 123 -55c154 0 231 164 231 299c0 27 -3 53 -10 75zM801 696l-102 -94c29 -47 45 -106 45 -177
c0 -235 -140 -442 -390 -442c-100 0 -179 29 -232 83l-101 -94l-40 44l103 96c-31 48 -47 112 -47 187c0 231 149 432 390 432c99 0 179 -27 234 -82l99 92z" />
    <glyph glyph-name="OE" unicode="&#x152;" horiz-adv-x="1111" 
d="M482 0l12 56l-2 2c-43 -50 -115 -75 -182 -75c-180 0 -273 136 -273 305c0 231 143 443 390 443c70 0 139 -23 181 -82l14 65h507l-28 -132h-361l-33 -153h330l-26 -122h-329l-38 -175h368l-28 -132h-502zM425 599c-161 0 -231 -173 -231 -310c0 -97 41 -174 146 -174
c88 0 152 50 179 124c19 52 47 192 47 243c0 82 -67 117 -141 117z" />
    <glyph glyph-name="Racute" unicode="&#x154;" horiz-adv-x="722" 
d="M-4 0l150 714h341c129 2 213 -49 213 -187c0 -97 -68 -178 -164 -192v-2c59 -18 74 -70 74 -126c0 -32 -5 -80 -5 -124c0 -32 2 -62 10 -83h-153c-4 17 -7 32 -7 48c0 48 8 97 8 145c0 69 -41 86 -103 86h-148l-59 -279h-157zM278 592l-42 -201h145c83 1 162 33 162 113
c0 77 -54 88 -116 88h-149zM579 921l-140 -142h-100l88 142h152z" />
    <glyph glyph-name="Rcaron" unicode="&#x158;" horiz-adv-x="722" 
d="M-4 0l150 714h341c129 2 213 -49 213 -187c0 -97 -68 -178 -164 -192v-2c59 -18 74 -70 74 -126c0 -32 -5 -80 -5 -124c0 -32 2 -62 10 -83h-153c-4 17 -7 32 -7 48c0 48 8 97 8 145c0 69 -41 86 -103 86h-148l-59 -279h-157zM278 592l-42 -201h145c83 1 162 33 162 113
c0 77 -54 88 -116 88h-149zM605 921l-137 -142h-126l-83 142h100l51 -82l86 82h109z" />
    <glyph glyph-name="Rcommaaccent" unicode="&#x156;" horiz-adv-x="722" 
d="M-4 0l150 714h341c129 2 213 -49 213 -187c0 -97 -68 -178 -164 -192v-2c59 -18 74 -70 74 -126c0 -32 -5 -80 -5 -124c0 -32 2 -62 10 -83h-153c-4 17 -7 32 -7 48c0 48 8 97 8 145c0 69 -41 86 -103 86h-148l-59 -279h-157zM278 592l-42 -201h145c83 1 162 33 162 113
c0 77 -54 88 -116 88h-149zM208 -143l19 93h145l-15 -71c-18 -83 -73 -96 -155 -96l8 37c32 3 53 12 65 37h-67z" />
    <glyph glyph-name="Sacute" unicode="&#x15a;" horiz-adv-x="648" 
d="M5 237h149c-5 -101 64 -132 154 -132c63 0 136 30 136 101c0 70 -92 84 -181 111c-90 28 -180 69 -180 192c0 159 145 222 283 222c146 0 268 -65 268 -230h-149c3 80 -55 108 -128 108c-60 0 -125 -23 -125 -89c0 -71 121 -89 170 -101c112 -29 191 -72 191 -200
c0 -171 -155 -236 -291 -236c-197 0 -297 82 -297 254zM562 921l-140 -142h-100l88 142h152z" />
    <glyph glyph-name="Scircumflex" unicode="&#x15c;" horiz-adv-x="648" 
d="M5 237h149c-5 -101 64 -132 154 -132c63 0 136 30 136 101c0 70 -92 84 -181 111c-90 28 -180 69 -180 192c0 159 145 222 283 222c146 0 268 -65 268 -230h-149c3 80 -55 108 -128 108c-60 0 -125 -23 -125 -89c0 -71 121 -89 170 -101c112 -29 191 -72 191 -200
c0 -171 -155 -236 -291 -236c-197 0 -297 82 -297 254zM210 779l137 142h126l83 -142h-100l-51 81l-86 -81h-109z" />
    <glyph glyph-name="Scaron" unicode="&#x160;" horiz-adv-x="648" 
d="M5 237h149c-5 -101 64 -132 154 -132c63 0 136 30 136 101c0 70 -92 84 -181 111c-90 28 -180 69 -180 192c0 159 145 222 283 222c146 0 268 -65 268 -230h-149c3 80 -55 108 -128 108c-60 0 -125 -23 -125 -89c0 -71 121 -89 170 -101c112 -29 191 -72 191 -200
c0 -171 -155 -236 -291 -236c-197 0 -297 82 -297 254zM588 921l-137 -142h-126l-83 142h100l51 -82l86 82h109z" />
    <glyph glyph-name="Scedilla" unicode="&#x15e;" horiz-adv-x="648" 
d="M127 -195l24 48c21 -9 49 -18 77 -18c29 0 49 11 49 34c0 19 -16 33 -40 33c-14 0 -28 -3 -41 -8l-19 24l55 69c-151 18 -227 99 -227 250h149c-5 -101 64 -132 154 -132c63 0 136 30 136 101c0 70 -92 84 -181 111c-90 28 -180 69 -180 192c0 159 145 222 283 222
c146 0 268 -65 268 -230h-149c3 80 -55 108 -128 108c-60 0 -125 -23 -125 -89c0 -71 121 -89 170 -101c112 -29 191 -72 191 -200c0 -171 -155 -236 -291 -236h-20l-31 -35l2 -2c12 5 27 7 38 7c51 0 81 -30 81 -73c0 -66 -59 -97 -135 -97c-45 0 -73 8 -110 22z" />
    <glyph glyph-name="Scommaaccent" unicode="&#x218;" horiz-adv-x="648" 
d="M5 237h149c-5 -101 64 -132 154 -132c63 0 136 30 136 101c0 70 -92 84 -181 111c-90 28 -180 69 -180 192c0 159 145 222 283 222c146 0 268 -65 268 -230h-149c3 80 -55 108 -128 108c-60 0 -125 -23 -125 -89c0 -71 121 -89 170 -101c112 -29 191 -72 191 -200
c0 -171 -155 -236 -291 -236c-197 0 -297 82 -297 254zM182 -143l19 93h145l-15 -71c-18 -83 -73 -96 -155 -96l8 37c32 3 53 12 65 37h-67z" />
    <glyph glyph-name="Tcaron" unicode="&#x164;" horiz-adv-x="611" 
d="M156 0l122 582h-224l28 132h596l-28 -132h-214l-122 -582h-158zM589 921l-137 -142h-126l-83 142h100l51 -82l86 82h109z" />
    <glyph glyph-name="Tcommaaccent" unicode="&#x162;" horiz-adv-x="611" 
d="M156 0l122 582h-224l28 132h596l-28 -132h-214l-122 -582h-158zM135 -143l19 93h145l-15 -71c-18 -83 -73 -96 -155 -96l8 37c32 3 53 12 65 37h-67z" />
    <glyph glyph-name="uni021A" unicode="&#x21a;" horiz-adv-x="611" 
d="M156 0l122 582h-224l28 132h596l-28 -132h-214l-122 -582h-158zM135 -143l19 93h145l-15 -71c-18 -83 -73 -96 -155 -96l8 37c32 3 53 12 65 37h-67z" />
    <glyph glyph-name="Tbar" unicode="&#x166;" horiz-adv-x="611" 
d="M156 0l77 366h-147l20 96h147l25 120h-224l28 132h596l-28 -132h-214l-25 -120h147l-20 -96h-147l-77 -366h-158z" />
    <glyph glyph-name="Thorn" unicode="&#xde;" horiz-adv-x="667" 
d="M257 495l-44 -213h161c79 0 129 40 129 124c0 72 -56 89 -111 89h-135zM-4 0l149 714h157l-20 -97h130c144 -1 248 -50 248 -208c0 -157 -130 -249 -278 -249h-195l-34 -160h-157z" />
    <glyph glyph-name="Ugrave" unicode="&#xd9;" 
d="M750 714l-87 -415c-43 -205 -122 -316 -344 -316c-139 0 -281 56 -281 212c0 34 6 63 15 106l87 413h157l-87 -413c-7 -31 -15 -69 -15 -90c0 -36 26 -96 134 -96c128 0 152 68 175 176l89 423h157zM432 921l78 -142h-100l-130 142h152z" />
    <glyph glyph-name="Uacute" unicode="&#xda;" 
d="M750 714l-87 -415c-43 -205 -122 -316 -344 -316c-139 0 -281 56 -281 212c0 34 6 63 15 106l87 413h157l-87 -413c-7 -31 -15 -69 -15 -90c0 -36 26 -96 134 -96c128 0 152 68 175 176l89 423h157zM629 921l-140 -142h-100l88 142h152z" />
    <glyph glyph-name="Ucircumflex" unicode="&#xdb;" 
d="M750 714l-87 -415c-43 -205 -122 -316 -344 -316c-139 0 -281 56 -281 212c0 34 6 63 15 106l87 413h157l-87 -413c-7 -31 -15 -69 -15 -90c0 -36 26 -96 134 -96c128 0 152 68 175 176l89 423h157zM277 779l137 142h126l83 -142h-100l-51 81l-86 -81h-109z" />
    <glyph glyph-name="Utilde" unicode="&#x168;" 
d="M750 714l-87 -415c-43 -205 -122 -316 -344 -316c-139 0 -281 56 -281 212c0 34 6 63 15 106l87 413h157l-87 -413c-7 -31 -15 -69 -15 -90c0 -36 26 -96 134 -96c128 0 152 68 175 176l89 423h157zM533 797c-60 0 -103 34 -147 34c-25 0 -38 -17 -45 -42h-63
c7 59 48 122 117 122c54 0 101 -35 143 -35c24 0 36 10 43 35h64c-12 -60 -39 -114 -112 -114z" />
    <glyph glyph-name="Udieresis" unicode="&#xdc;" 
d="M750 714l-87 -415c-43 -205 -122 -316 -344 -316c-139 0 -281 56 -281 212c0 34 6 63 15 106l87 413h157l-87 -413c-7 -31 -15 -69 -15 -90c0 -36 26 -96 134 -96c128 0 152 68 175 176l89 423h157zM287 788l24 117h131l-24 -117h-131zM483 788l24 117h131l-24 -117h-131
z" />
    <glyph glyph-name="Umacron" unicode="&#x16a;" 
d="M750 714l-87 -415c-43 -205 -122 -316 -344 -316c-139 0 -281 56 -281 212c0 34 6 63 15 106l87 413h157l-87 -413c-7 -31 -15 -69 -15 -90c0 -36 26 -96 134 -96c128 0 152 68 175 176l89 423h157zM304 809l14 75h305l-14 -75h-305z" />
    <glyph glyph-name="Ubreve" unicode="&#x16c;" 
d="M750 714l-87 -415c-43 -205 -122 -316 -344 -316c-139 0 -281 56 -281 212c0 34 6 63 15 106l87 413h157l-87 -413c-7 -31 -15 -69 -15 -90c0 -36 26 -96 134 -96c128 0 152 68 175 176l89 423h157zM306 921h65c4 -46 43 -67 94 -67c60 0 90 25 114 67h66
c-27 -90 -88 -142 -189 -142c-92 0 -150 56 -150 142z" />
    <glyph glyph-name="Uring" unicode="&#x16e;" 
d="M750 714l-87 -415c-43 -205 -122 -316 -344 -316c-139 0 -281 56 -281 212c0 34 6 63 15 106l87 413h157l-87 -413c-7 -31 -15 -69 -15 -90c0 -36 26 -96 134 -96c128 0 152 68 175 176l89 423h157zM581 859c0 -64 -52 -114 -117 -114c-67 0 -117 50 -117 114
s52 114 117 114c67 0 117 -50 117 -114zM403 859c0 -36 24 -63 61 -63s61 26 61 63c0 36 -24 63 -61 63s-61 -26 -61 -63z" />
    <glyph glyph-name="Uhungarumlaut" unicode="&#x170;" 
d="M750 714l-87 -415c-43 -205 -122 -316 -344 -316c-139 0 -281 56 -281 212c0 34 6 63 15 106l87 413h157l-87 -413c-7 -31 -15 -69 -15 -90c0 -36 26 -96 134 -96c128 0 152 68 175 176l89 423h157zM734 921l-140 -142h-100l88 142h152zM534 921l-140 -142h-100l88 142
h152z" />
    <glyph glyph-name="Uogonek" unicode="&#x172;" 
d="M338 -127l44 -24c-30 -43 -72 -66 -125 -66c-64 0 -104 32 -104 78c0 47 38 89 102 126c-115 15 -217 76 -217 208c0 34 6 63 15 106l87 413h157l-87 -413c-7 -31 -15 -69 -15 -90c0 -36 26 -96 134 -96c128 0 152 68 175 176l89 423h157l-87 -415
c-43 -202 -120 -313 -335 -316c-51 -36 -82 -71 -82 -106c0 -21 16 -34 35 -34c22 0 39 11 57 30z" />
    <glyph glyph-name="Wacute" unicode="&#x1e82;" horiz-adv-x="944" 
d="M1013 714l-335 -714h-156l-18 510h-2l-222 -510h-158l-49 714h157l10 -523h2l226 523h150l18 -521h2l218 521h157zM717 921l-140 -142h-100l88 142h152z" />
    <glyph glyph-name="Wcircumflex" unicode="&#x174;" horiz-adv-x="944" 
d="M1013 714l-335 -714h-156l-18 510h-2l-222 -510h-158l-49 714h157l10 -523h2l226 523h150l18 -521h2l218 521h157zM375 779l137 142h126l83 -142h-100l-51 81l-86 -81h-109z" />
    <glyph glyph-name="Wdieresis" unicode="&#x1e84;" horiz-adv-x="944" 
d="M1013 714l-335 -714h-156l-18 510h-2l-222 -510h-158l-49 714h157l10 -523h2l226 523h150l18 -521h2l218 521h157zM385 788l24 117h131l-24 -117h-131zM581 788l24 117h131l-24 -117h-131z" />
    <glyph glyph-name="Wgrave" unicode="&#x1e80;" horiz-adv-x="944" 
d="M1013 714l-335 -714h-156l-18 510h-2l-222 -510h-158l-49 714h157l10 -523h2l226 523h150l18 -521h2l218 521h157zM540 921l78 -142h-100l-130 142h152z" />
    <glyph glyph-name="Yacute" unicode="&#xdd;" horiz-adv-x="648" 
d="M175 0l57 277l-171 437h161l107 -304l222 304h185l-348 -444l-55 -270h-158zM578 921l-140 -142h-100l88 142h152z" />
    <glyph glyph-name="Ycircumflex" unicode="&#x176;" horiz-adv-x="648" 
d="M175 0l57 277l-171 437h161l107 -304l222 304h185l-348 -444l-55 -270h-158zM226 779l137 142h126l83 -142h-100l-51 81l-86 -81h-109z" />
    <glyph glyph-name="Ydieresis" unicode="&#x178;" horiz-adv-x="648" 
d="M175 0l57 277l-171 437h161l107 -304l222 304h185l-348 -444l-55 -270h-158zM236 788l24 117h131l-24 -117h-131zM432 788l24 117h131l-24 -117h-131z" />
    <glyph glyph-name="Ygrave" unicode="&#x1ef2;" horiz-adv-x="648" 
d="M175 0l57 277l-171 437h161l107 -304l222 304h185l-348 -444l-55 -270h-158zM381 921l78 -142h-100l-130 142h152z" />
    <glyph glyph-name="Zacute" unicode="&#x179;" horiz-adv-x="648" 
d="M-43 0l27 130l477 452h-366l29 132h564l-26 -126l-481 -456h403l-26 -132h-601zM581 921l-140 -142h-100l88 142h152z" />
    <glyph glyph-name="Zcaron" unicode="&#x17d;" horiz-adv-x="648" 
d="M-43 0l27 130l477 452h-366l29 132h564l-26 -126l-481 -456h403l-26 -132h-601zM607 921l-137 -142h-126l-83 142h100l51 -82l86 82h109z" />
    <glyph glyph-name="Zdotaccent" unicode="&#x17b;" horiz-adv-x="648" 
d="M-43 0l27 130l477 452h-366l29 132h564l-26 -126l-481 -456h403l-26 -132h-601zM336 788l24 117h131l-24 -117h-131z" />
    <glyph glyph-name="agrave" unicode="&#xe0;" horiz-adv-x="574" 
d="M346 198l14 50c-24 -14 -49 -19 -106 -24c-70 -6 -119 -20 -119 -85c0 -39 37 -58 78 -58c88 0 117 61 133 117zM60 360c18 130 128 171 245 171c93 0 215 -20 215 -136c0 -22 -4 -55 -11 -87l-46 -208c-4 -18 -7 -50 -7 -70c0 -9 2 -21 5 -30h-142v51
c-39 -44 -100 -65 -158 -65c-113 0 -168 64 -168 136c0 99 76 164 207 177l69 7c81 8 119 16 119 67s-54 63 -90 63c-51 0 -96 -24 -105 -76h-133zM313 731l78 -142h-100l-130 142h152z" />
    <glyph glyph-name="aacute" unicode="&#xe1;" horiz-adv-x="574" 
d="M346 198l14 50c-24 -14 -49 -19 -106 -24c-70 -6 -119 -20 -119 -85c0 -39 37 -58 78 -58c88 0 117 61 133 117zM60 360c18 130 128 171 245 171c93 0 215 -20 215 -136c0 -22 -4 -55 -11 -87l-46 -208c-4 -18 -7 -50 -7 -70c0 -9 2 -21 5 -30h-142v51
c-39 -44 -100 -65 -158 -65c-113 0 -168 64 -168 136c0 99 76 164 207 177l69 7c81 8 119 16 119 67s-54 63 -90 63c-51 0 -96 -24 -105 -76h-133zM502 731l-140 -142h-100l88 142h152z" />
    <glyph glyph-name="acircumflex" unicode="&#xe2;" horiz-adv-x="574" 
d="M346 198l14 50c-24 -14 -49 -19 -106 -24c-70 -6 -119 -20 -119 -85c0 -39 37 -58 78 -58c88 0 117 61 133 117zM60 360c18 130 128 171 245 171c93 0 215 -20 215 -136c0 -22 -4 -55 -11 -87l-46 -208c-4 -18 -7 -50 -7 -70c0 -9 2 -21 5 -30h-142v51
c-39 -44 -100 -65 -158 -65c-113 0 -168 64 -168 136c0 99 76 164 207 177l69 7c81 8 119 16 119 67s-54 63 -90 63c-51 0 -96 -24 -105 -76h-133zM154 589l137 142h126l83 -142h-100l-51 81l-86 -81h-109z" />
    <glyph glyph-name="atilde" unicode="&#xe3;" horiz-adv-x="574" 
d="M346 198l14 50c-24 -14 -49 -19 -106 -24c-70 -6 -119 -20 -119 -85c0 -39 37 -58 78 -58c88 0 117 61 133 117zM60 360c18 130 128 171 245 171c93 0 215 -20 215 -136c0 -22 -4 -55 -11 -87l-46 -208c-4 -18 -7 -50 -7 -70c0 -9 2 -21 5 -30h-142v51
c-39 -44 -100 -65 -158 -65c-113 0 -168 64 -168 136c0 99 76 164 207 177l69 7c81 8 119 16 119 67s-54 63 -90 63c-51 0 -96 -24 -105 -76h-133zM410 607c-60 0 -103 34 -147 34c-25 0 -38 -17 -45 -42h-63c7 59 48 122 117 122c54 0 101 -35 143 -35c24 0 36 10 43 35h64
c-12 -60 -39 -114 -112 -114z" />
    <glyph glyph-name="adieresis" unicode="&#xe4;" horiz-adv-x="574" 
d="M346 198l14 50c-24 -14 -49 -19 -106 -24c-70 -6 -119 -20 -119 -85c0 -39 37 -58 78 -58c88 0 117 61 133 117zM60 360c18 130 128 171 245 171c93 0 215 -20 215 -136c0 -22 -4 -55 -11 -87l-46 -208c-4 -18 -7 -50 -7 -70c0 -9 2 -21 5 -30h-142v51
c-39 -44 -100 -65 -158 -65c-113 0 -168 64 -168 136c0 99 76 164 207 177l69 7c81 8 119 16 119 67s-54 63 -90 63c-51 0 -96 -24 -105 -76h-133zM164 598l24 117h131l-24 -117h-131zM360 598l24 117h131l-24 -117h-131z" />
    <glyph glyph-name="amacron" unicode="&#x101;" horiz-adv-x="574" 
d="M346 198l14 50c-24 -14 -49 -19 -106 -24c-70 -6 -119 -20 -119 -85c0 -39 37 -58 78 -58c88 0 117 61 133 117zM60 360c18 130 128 171 245 171c93 0 215 -20 215 -136c0 -22 -4 -55 -11 -87l-46 -208c-4 -18 -7 -50 -7 -70c0 -9 2 -21 5 -30h-142v51
c-39 -44 -100 -65 -158 -65c-113 0 -168 64 -168 136c0 99 76 164 207 177l69 7c81 8 119 16 119 67s-54 63 -90 63c-51 0 -96 -24 -105 -76h-133zM181 619l14 75h305l-14 -75h-305z" />
    <glyph glyph-name="abreve" unicode="&#x103;" horiz-adv-x="574" 
d="M346 198l14 50c-24 -14 -49 -19 -106 -24c-70 -6 -119 -20 -119 -85c0 -39 37 -58 78 -58c88 0 117 61 133 117zM60 360c18 130 128 171 245 171c93 0 215 -20 215 -136c0 -22 -4 -55 -11 -87l-46 -208c-4 -18 -7 -50 -7 -70c0 -9 2 -21 5 -30h-142v51
c-39 -44 -100 -65 -158 -65c-113 0 -168 64 -168 136c0 99 76 164 207 177l69 7c81 8 119 16 119 67s-54 63 -90 63c-51 0 -96 -24 -105 -76h-133zM183 731h65c4 -46 43 -67 94 -67c60 0 90 25 114 67h66c-27 -90 -88 -142 -189 -142c-92 0 -150 56 -150 142z" />
    <glyph glyph-name="aring" unicode="&#xe5;" horiz-adv-x="574" 
d="M346 198l14 50c-24 -14 -49 -19 -106 -24c-70 -6 -119 -20 -119 -85c0 -39 37 -58 78 -58c88 0 117 61 133 117zM60 360c18 130 128 171 245 171c93 0 215 -20 215 -136c0 -22 -4 -55 -11 -87l-46 -208c-4 -18 -7 -50 -7 -70c0 -9 2 -21 5 -30h-142v51
c-39 -44 -100 -65 -158 -65c-113 0 -168 64 -168 136c0 99 76 164 207 177l69 7c81 8 119 16 119 67s-54 63 -90 63c-51 0 -96 -24 -105 -76h-133zM221 684c0 69 54 120 123 120c71 0 122 -51 122 -120s-54 -120 -123 -120c-71 0 -122 51 -122 120zM407 684
c0 39 -24 67 -63 67s-64 -28 -64 -67s24 -67 63 -67s64 28 64 67z" />
    <glyph glyph-name="aringacute" unicode="&#x1fb;" horiz-adv-x="574" 
d="M524 921l-118 -119h-102l74 119h146zM342 564c-63 0 -108 44 -108 105s47 105 108 105c63 0 108 -44 108 -105s-47 -105 -108 -105zM286 669c0 -34 22 -58 56 -58s56 25 56 58c0 34 -22 58 -56 58s-56 -25 -56 -58zM346 198l14 50c-24 -14 -49 -19 -106 -24
c-70 -6 -119 -20 -119 -85c0 -39 37 -58 78 -58c88 0 117 61 133 117zM60 360c18 130 128 171 245 171c93 0 215 -20 215 -136c0 -22 -4 -55 -11 -87l-46 -208c-4 -18 -7 -50 -7 -70c0 -9 2 -21 5 -30h-142v51c-39 -44 -100 -65 -158 -65c-113 0 -168 64 -168 136
c0 99 76 164 207 177l69 7c81 8 119 16 119 67s-54 63 -90 63c-51 0 -96 -24 -105 -76h-133z" />
    <glyph glyph-name="aogonek" unicode="&#x105;" horiz-adv-x="574" 
d="M60 360c18 130 128 171 245 171c93 0 215 -20 215 -136c0 -22 -4 -55 -11 -87l-46 -208c-4 -18 -7 -50 -7 -70c0 -9 2 -21 5 -30h-55c-62 -42 -100 -83 -100 -123c0 -21 16 -34 35 -34c22 0 39 11 57 30l44 -24c-30 -43 -72 -66 -125 -66c-64 0 -104 32 -104 78
c0 52 44 99 115 139c-6 15 -9 33 -9 51c-39 -44 -100 -65 -158 -65c-113 0 -168 64 -168 136c0 99 76 164 207 177l69 7c81 8 119 16 119 67s-54 63 -90 63c-51 0 -96 -24 -105 -76h-133zM346 198l14 50c-24 -14 -49 -19 -106 -24c-70 -6 -119 -20 -119 -85
c0 -39 37 -58 78 -58c88 0 117 61 133 117z" />
    <glyph glyph-name="ae" unicode="&#xe6;" horiz-adv-x="914" 
d="M510 314h236c0 69 -18 122 -99 122c-73 0 -125 -54 -137 -122zM209 360h-137c27 134 130 171 254 171c56 0 139 -16 167 -68c41 50 107 68 171 68c151 0 209 -96 209 -234c0 -24 -3 -47 -5 -73h-372c-4 -17 -5 -29 -5 -46c0 -51 41 -97 110 -97c50 0 91 22 109 79h142
c-50 -130 -147 -174 -261 -174c-89 0 -153 34 -188 96c-43 -66 -122 -96 -212 -96c-139 0 -187 64 -187 139c0 99 61 162 212 174c100 8 186 4 186 71c0 55 -44 66 -80 66c-54 0 -106 -15 -113 -76zM370 205l8 44c-37 -21 -93 -25 -143 -30s-89 -32 -89 -76
c0 -50 42 -62 83 -62c90 0 128 56 141 124z" />
    <glyph glyph-name="aeacute" unicode="&#x1fd;" horiz-adv-x="914" 
d="M510 314h236c0 69 -18 122 -99 122c-73 0 -125 -54 -137 -122zM209 360h-137c27 134 130 171 254 171c56 0 139 -16 167 -68c41 50 107 68 171 68c151 0 209 -96 209 -234c0 -24 -3 -47 -5 -73h-372c-4 -17 -5 -29 -5 -46c0 -51 41 -97 110 -97c50 0 91 22 109 79h142
c-50 -130 -147 -174 -261 -174c-89 0 -153 34 -188 96c-43 -66 -122 -96 -212 -96c-139 0 -187 64 -187 139c0 99 61 162 212 174c100 8 186 4 186 71c0 55 -44 66 -80 66c-54 0 -106 -15 -113 -76zM370 205l8 44c-37 -21 -93 -25 -143 -30s-89 -32 -89 -76
c0 -50 42 -62 83 -62c90 0 128 56 141 124zM684 731l-140 -142h-100l88 142h152z" />
    <glyph glyph-name="cacute" unicode="&#x107;" horiz-adv-x="559" 
d="M537 338h-142c0 61 -33 86 -95 86c-108 0 -145 -130 -145 -219c0 -62 26 -112 98 -112c63 0 99 45 115 96h142c-43 -129 -133 -203 -267 -203c-144 0 -230 71 -230 222c0 176 106 323 292 323c126 0 229 -56 232 -193zM504 731l-140 -142h-100l88 142h152z" />
    <glyph glyph-name="ccircumflex" unicode="&#x109;" horiz-adv-x="559" 
d="M537 338h-142c0 61 -33 86 -95 86c-108 0 -145 -130 -145 -219c0 -62 26 -112 98 -112c63 0 99 45 115 96h142c-43 -129 -133 -203 -267 -203c-144 0 -230 71 -230 222c0 176 106 323 292 323c126 0 229 -56 232 -193zM156 589l137 142h126l83 -142h-100l-51 81l-86 -81
h-109z" />
    <glyph glyph-name="ccaron" unicode="&#x10d;" horiz-adv-x="559" 
d="M537 338h-142c0 61 -33 86 -95 86c-108 0 -145 -130 -145 -219c0 -62 26 -112 98 -112c63 0 99 45 115 96h142c-43 -129 -133 -203 -267 -203c-144 0 -230 71 -230 222c0 176 106 323 292 323c126 0 229 -56 232 -193zM534 731l-137 -142h-126l-83 142h100l51 -82l86 82
h109z" />
    <glyph glyph-name="cdotaccent" unicode="&#x10b;" horiz-adv-x="559" 
d="M537 338h-142c0 61 -33 86 -95 86c-108 0 -145 -130 -145 -219c0 -62 26 -112 98 -112c63 0 99 45 115 96h142c-43 -129 -133 -203 -267 -203c-144 0 -230 71 -230 222c0 176 106 323 292 323c126 0 229 -56 232 -193zM264 598l24 117h131l-24 -117h-131z" />
    <glyph glyph-name="ccedilla" unicode="&#xe7;" horiz-adv-x="559" 
d="M74 -195l24 48c21 -9 49 -18 77 -18c29 0 49 11 49 34c0 19 -16 33 -40 33c-14 0 -28 -3 -41 -8l-19 24l58 73c-107 18 -169 88 -169 217c0 176 106 323 292 323c126 0 229 -56 232 -193h-142c0 61 -33 86 -95 86c-108 0 -145 -130 -145 -219c0 -62 26 -112 98 -112
c63 0 99 45 115 96h142c-43 -129 -133 -203 -267 -203h-12l-33 -38l2 -2c12 5 27 7 38 7c51 0 81 -30 81 -73c0 -66 -59 -97 -135 -97c-45 0 -73 8 -110 22z" />
    <glyph glyph-name="dcaron" unicode="&#x10f;" horiz-adv-x="621" 
d="M352 0l14 64l-2 2c-32 -56 -92 -80 -155 -80c-124 0 -197 80 -197 204c0 170 91 341 282 341c60 0 123 -26 145 -83h2l57 266h142l-151 -714h-137zM309 424c-107 0 -155 -125 -155 -216c0 -62 34 -115 101 -115c106 0 156 130 156 219c0 66 -33 112 -102 112zM855 714
l-95 -142h-97l48 142h144z" />
    <glyph glyph-name="dcroat" unicode="&#x111;" horiz-adv-x="631" 
d="M352 0l14 64l-2 2c-32 -56 -92 -80 -155 -80c-124 0 -197 80 -197 204c0 170 91 341 282 341c60 0 123 -26 145 -83h2l25 120h-160l16 76h161l15 70h142l-15 -70h80l-16 -76h-80l-120 -568h-137zM309 424c-107 0 -155 -125 -155 -216c0 -62 34 -115 101 -115
c106 0 156 130 156 219c0 66 -33 112 -102 112z" />
    <glyph glyph-name="eth" unicode="&#xf0;" horiz-adv-x="600" 
d="M12 209c0 151 113 297 281 297c56 0 106 -19 134 -65l3 1c-9 66 -50 125 -83 153l-111 -53l-38 57l86 40c-21 13 -40 23 -67 34l84 70c42 -16 67 -30 93 -48l100 48l38 -57l-81 -39c78 -79 101 -178 101 -278c0 -165 -72 -383 -303 -383c-144 0 -237 75 -237 223z
M154 209c0 -69 35 -116 102 -116c106 0 152 130 152 212c0 62 -31 106 -105 106c-96 0 -149 -115 -149 -202z" />
    <glyph glyph-name="egrave" unicode="&#xe8;" horiz-adv-x="580" 
d="M531 224h-381c-1 -13 -1 -22 -1 -30c0 -60 37 -101 114 -101c57 0 85 38 106 71h142c-45 -116 -119 -178 -268 -178c-138 0 -230 79 -230 226c0 165 109 319 285 319c144 0 241 -76 241 -226c0 -28 -3 -56 -8 -81zM165 314h237c0 53 -13 110 -96 110
c-80 0 -120 -52 -141 -110zM313 731l78 -142h-100l-130 142h152z" />
    <glyph glyph-name="eacute" unicode="&#xe9;" horiz-adv-x="580" 
d="M531 224h-381c-1 -13 -1 -22 -1 -30c0 -60 37 -101 114 -101c57 0 85 38 106 71h142c-45 -116 -119 -178 -268 -178c-138 0 -230 79 -230 226c0 165 109 319 285 319c144 0 241 -76 241 -226c0 -28 -3 -56 -8 -81zM165 314h237c0 53 -13 110 -96 110
c-80 0 -120 -52 -141 -110zM502 731l-140 -142h-100l88 142h152z" />
    <glyph glyph-name="ecircumflex" unicode="&#xea;" horiz-adv-x="580" 
d="M531 224h-381c-1 -13 -1 -22 -1 -30c0 -60 37 -101 114 -101c57 0 85 38 106 71h142c-45 -116 -119 -178 -268 -178c-138 0 -230 79 -230 226c0 165 109 319 285 319c144 0 241 -76 241 -226c0 -28 -3 -56 -8 -81zM165 314h237c0 53 -13 110 -96 110
c-80 0 -120 -52 -141 -110zM154 589l137 142h126l83 -142h-100l-51 81l-86 -81h-109z" />
    <glyph glyph-name="ecaron" unicode="&#x11b;" horiz-adv-x="580" 
d="M531 224h-381c-1 -13 -1 -22 -1 -30c0 -60 37 -101 114 -101c57 0 85 38 106 71h142c-45 -116 -119 -178 -268 -178c-138 0 -230 79 -230 226c0 165 109 319 285 319c144 0 241 -76 241 -226c0 -28 -3 -56 -8 -81zM165 314h237c0 53 -13 110 -96 110
c-80 0 -120 -52 -141 -110zM532 731l-137 -142h-126l-83 142h100l51 -82l86 82h109z" />
    <glyph glyph-name="edieresis" unicode="&#xeb;" horiz-adv-x="580" 
d="M531 224h-381c-1 -13 -1 -22 -1 -30c0 -60 37 -101 114 -101c57 0 85 38 106 71h142c-45 -116 -119 -178 -268 -178c-138 0 -230 79 -230 226c0 165 109 319 285 319c144 0 241 -76 241 -226c0 -28 -3 -56 -8 -81zM165 314h237c0 53 -13 110 -96 110
c-80 0 -120 -52 -141 -110zM164 598l24 117h131l-24 -117h-131zM360 598l24 117h131l-24 -117h-131z" />
    <glyph glyph-name="emacron" unicode="&#x113;" horiz-adv-x="580" 
d="M531 224h-381c-1 -13 -1 -22 -1 -30c0 -60 37 -101 114 -101c57 0 85 38 106 71h142c-45 -116 -119 -178 -268 -178c-138 0 -230 79 -230 226c0 165 109 319 285 319c144 0 241 -76 241 -226c0 -28 -3 -56 -8 -81zM165 314h237c0 53 -13 110 -96 110
c-80 0 -120 -52 -141 -110zM181 619l14 75h305l-14 -75h-305z" />
    <glyph glyph-name="ebreve" unicode="&#x115;" horiz-adv-x="580" 
d="M531 224h-381c-1 -13 -1 -22 -1 -30c0 -60 37 -101 114 -101c57 0 85 38 106 71h142c-45 -116 -119 -178 -268 -178c-138 0 -230 79 -230 226c0 165 109 319 285 319c144 0 241 -76 241 -226c0 -28 -3 -56 -8 -81zM165 314h237c0 53 -13 110 -96 110
c-80 0 -120 -52 -141 -110zM183 731h65c4 -46 43 -67 94 -67c60 0 90 25 114 67h66c-27 -90 -88 -142 -189 -142c-92 0 -150 56 -150 142z" />
    <glyph glyph-name="edotaccent" unicode="&#x117;" horiz-adv-x="580" 
d="M531 224h-381c-1 -13 -1 -22 -1 -30c0 -60 37 -101 114 -101c57 0 85 38 106 71h142c-45 -116 -119 -178 -268 -178c-138 0 -230 79 -230 226c0 165 109 319 285 319c144 0 241 -76 241 -226c0 -28 -3 -56 -8 -81zM165 314h237c0 53 -13 110 -96 110
c-80 0 -120 -52 -141 -110zM262 598l24 117h131l-24 -117h-131z" />
    <glyph glyph-name="eogonek" unicode="&#x119;" horiz-adv-x="580" 
d="M293 -127l44 -24c-30 -43 -72 -66 -125 -66c-64 0 -104 32 -104 78c0 47 38 90 103 127c-120 11 -198 88 -198 224c0 165 109 319 285 319c144 0 241 -76 241 -226c0 -28 -3 -56 -8 -81h-381c-1 -13 -1 -22 -1 -30c0 -60 37 -101 114 -101c57 0 85 38 106 71h142
c-40 -103 -103 -163 -220 -175c-56 -38 -90 -75 -90 -112c0 -21 16 -34 35 -34c22 0 39 11 57 30zM165 314h237c0 53 -13 110 -96 110c-80 0 -120 -52 -141 -110z" />
    <glyph glyph-name="gcircumflex" unicode="&#x11d;" horiz-adv-x="613" 
d="M304 424c-95 0 -145 -112 -145 -195c0 -61 30 -114 96 -114c102 0 151 109 151 197c0 65 -33 112 -102 112zM590 517l-103 -490c-35 -157 -114 -223 -285 -223c-105 0 -221 45 -221 169h142c-2 -52 47 -74 93 -74c90 0 116 79 144 180l-2 2c-37 -49 -84 -73 -142 -73
c-123 0 -199 84 -199 211c0 151 95 312 261 312c71 0 129 -25 158 -93h2l16 79h136zM170 589l137 142h126l83 -142h-100l-51 81l-86 -81h-109z" />
    <glyph glyph-name="gbreve" unicode="&#x11f;" horiz-adv-x="613" 
d="M304 424c-95 0 -145 -112 -145 -195c0 -61 30 -114 96 -114c102 0 151 109 151 197c0 65 -33 112 -102 112zM590 517l-103 -490c-35 -157 -114 -223 -285 -223c-105 0 -221 45 -221 169h142c-2 -52 47 -74 93 -74c90 0 116 79 144 180l-2 2c-37 -49 -84 -73 -142 -73
c-123 0 -199 84 -199 211c0 151 95 312 261 312c71 0 129 -25 158 -93h2l16 79h136zM199 731h65c4 -46 43 -67 94 -67c60 0 90 25 114 67h66c-27 -90 -88 -142 -189 -142c-92 0 -150 56 -150 142z" />
    <glyph glyph-name="gdotaccent" unicode="&#x121;" horiz-adv-x="613" 
d="M304 424c-95 0 -145 -112 -145 -195c0 -61 30 -114 96 -114c102 0 151 109 151 197c0 65 -33 112 -102 112zM590 517l-103 -490c-35 -157 -114 -223 -285 -223c-105 0 -221 45 -221 169h142c-2 -52 47 -74 93 -74c90 0 116 79 144 180l-2 2c-37 -49 -84 -73 -142 -73
c-123 0 -199 84 -199 211c0 151 95 312 261 312c71 0 129 -25 158 -93h2l16 79h136zM278 598l24 117h131l-24 -117h-131z" />
    <glyph glyph-name="gcommaaccent" unicode="&#x123;" horiz-adv-x="613" 
d="M304 424c-95 0 -145 -112 -145 -195c0 -61 30 -114 96 -114c102 0 151 109 151 197c0 65 -33 112 -102 112zM590 517l-103 -490c-35 -157 -114 -223 -285 -223c-105 0 -221 45 -221 169h142c-2 -52 47 -74 93 -74c90 0 116 79 144 180l-2 2c-37 -49 -84 -73 -142 -73
c-123 0 -199 84 -199 211c0 151 95 312 261 312c71 0 129 -25 158 -93h2l16 79h136zM440 714l-19 -93h-145l15 71c18 83 73 96 155 96l-8 -37c-32 -3 -53 -12 -65 -37h67z" />
    <glyph glyph-name="hcircumflex" unicode="&#x125;" horiz-adv-x="601" 
d="M333 419c-86 0 -130 -72 -145 -144l-58 -275h-142l149 714h142l-53 -257h2c22 30 78 74 171 74c98 0 151 -49 151 -139c0 -21 -11 -71 -15 -89l-64 -303h-142l63 303c6 27 9 45 9 58c0 34 -30 58 -68 58zM184 779l137 142h126l83 -142h-100l-51 81l-86 -81h-109z" />
    <glyph glyph-name="hbar" unicode="&#x127;" horiz-adv-x="611" 
d="M-2 0l118 568h-81l17 76h80l15 70h142l-15 -70h157l-17 -76h-155l-23 -111h2c22 30 78 74 171 74c98 0 151 -49 151 -139c0 -21 -11 -71 -15 -89l-64 -303h-142l63 303c4 15 9 49 9 63c0 31 -35 53 -68 53c-86 0 -130 -72 -145 -144l-58 -275h-142z" />
    <glyph glyph-name="dotlessi" unicode="&#x131;" horiz-adv-x="262" 
d="M240 517l-110 -517h-143l110 517h143z" />
    <glyph glyph-name="igrave" unicode="&#xec;" horiz-adv-x="262" 
d="M240 517l-110 -517h-143l110 517h143zM171 731l78 -142h-100l-130 142h152z" />
    <glyph glyph-name="iacute" unicode="&#xed;" horiz-adv-x="262" 
d="M240 517l-110 -517h-143l110 517h143zM350 731l-140 -142h-100l88 142h152z" />
    <glyph glyph-name="ibreve" unicode="&#x12d;" horiz-adv-x="262" 
d="M240 517l-110 -517h-143l110 517h143zM36 731h65c4 -46 43 -67 94 -67c60 0 90 25 114 67h66c-27 -90 -88 -142 -189 -142c-92 0 -150 56 -150 142z" />
    <glyph glyph-name="icircumflex" unicode="&#xee;" horiz-adv-x="262" 
d="M240 517l-110 -517h-143l110 517h143zM7 589l137 142h126l83 -142h-100l-51 81l-86 -81h-109z" />
    <glyph glyph-name="itilde" unicode="&#x129;" horiz-adv-x="262" 
d="M240 517l-110 -517h-143l110 517h143zM263 607c-60 0 -103 34 -147 34c-25 0 -38 -17 -45 -42h-63c7 59 48 122 117 122c54 0 101 -35 143 -35c24 0 36 10 43 35h64c-12 -60 -39 -114 -112 -114z" />
    <glyph glyph-name="idieresis" unicode="&#xef;" horiz-adv-x="262" 
d="M240 517l-110 -517h-143l110 517h143zM17 598l24 117h131l-24 -117h-131zM213 598l24 117h131l-24 -117h-131z" />
    <glyph glyph-name="imacron" unicode="&#x12b;" horiz-adv-x="262" 
d="M240 517l-110 -517h-143l110 517h143zM34 619l14 75h305l-14 -75h-305z" />
    <glyph glyph-name="iogonek" unicode="&#x12f;" horiz-adv-x="262" 
d="M-13 0l110 517h143l-110 -517c-66 -42 -105 -83 -105 -123c0 -21 13 -34 32 -34s34 9 52 28l41 -26c-29 -42 -67 -62 -116 -62c-61 0 -98 32 -98 78c0 52 41 99 120 139h-69zM282 714l-26 -117h-143l26 117h143z" />
    <glyph glyph-name="dotlessj" unicode="&#x237;" horiz-adv-x="266" 
d="M-131 -177l24 114c13 -1 28 -2 41 -2c38 0 48 15 64 93l103 489h142l-113 -536c-23 -110 -64 -163 -192 -163c-21 0 -44 2 -69 5z" />
    <glyph glyph-name="jcircumflex" unicode="&#x135;" horiz-adv-x="266" 
d="M-131 -177l24 114c13 -1 28 -2 41 -2c38 0 48 15 64 93l103 489h142l-113 -536c-23 -110 -64 -163 -192 -163c-21 0 -44 2 -69 5zM5 589l137 142h126l83 -142h-100l-51 81l-86 -81h-109z" />
    <glyph glyph-name="kcommaaccent" unicode="&#x137;" horiz-adv-x="556" 
d="M-12 0l150 714h142l-82 -388l2 -2l204 193h175l-232 -196l133 -321h-156l-85 231l-74 -63l-35 -168h-142zM131 -143l19 93h145l-15 -71c-18 -83 -73 -96 -155 -96l8 37c32 3 53 12 65 37h-67z" />
    <glyph glyph-name="kgreenlandic" unicode="&#x138;" horiz-adv-x="556" 
d="M-12 0l108 517h142l-44 -205h3l207 205h175l-235 -208l136 -309h-156l-88 220l-74 -63l-32 -157h-142z" />
    <glyph glyph-name="lacute" unicode="&#x13a;" horiz-adv-x="261" 
d="M-13 0l152 714h142l-152 -714h-142zM385 921l-140 -142h-100l88 142h152z" />
    <glyph glyph-name="lcaron" unicode="&#x13e;" horiz-adv-x="261" 
d="M-13 0l152 714h142l-152 -714h-142zM496 714l-95 -142h-97l48 142h144z" />
    <glyph glyph-name="lcommaaccent" unicode="&#x13c;" horiz-adv-x="261" 
d="M-13 0l152 714h142l-152 -714h-142zM-43 -143l19 93h145l-15 -71c-18 -83 -73 -96 -155 -96l8 37c32 3 53 12 65 37h-67z" />
    <glyph glyph-name="lslash" unicode="&#x142;" horiz-adv-x="261" 
d="M129 0h-142l59 278l-71 -54l26 122l71 54l67 314h142l-39 -186l83 63l-26 -121l-83 -63z" />
    <glyph glyph-name="ldot" unicode="&#x140;" horiz-adv-x="425" 
d="M-13 0l152 714h142l-152 -714h-142zM264 333l24 117h131l-24 -117h-131z" />
    <glyph glyph-name="nacute" unicode="&#x144;" horiz-adv-x="601" 
d="M-12 0l108 517h136l-16 -72h2c46 57 107 86 181 86c98 0 151 -49 151 -139c0 -21 -11 -71 -15 -89l-64 -303h-142l63 303c6 27 9 45 9 58c0 34 -30 58 -68 58c-86 0 -130 -72 -145 -144l-58 -275h-142zM505 731l-140 -142h-100l88 142h152z" />
    <glyph glyph-name="ncaron" unicode="&#x148;" horiz-adv-x="601" 
d="M-12 0l108 517h136l-16 -72h2c46 57 107 86 181 86c98 0 151 -49 151 -139c0 -21 -11 -71 -15 -89l-64 -303h-142l63 303c6 27 9 45 9 58c0 34 -30 58 -68 58c-86 0 -130 -72 -145 -144l-58 -275h-142zM535 731l-137 -142h-126l-83 142h100l51 -82l86 82h109z" />
    <glyph glyph-name="ntilde" unicode="&#xf1;" horiz-adv-x="601" 
d="M-12 0l108 517h136l-16 -72h2c46 57 107 86 181 86c98 0 151 -49 151 -139c0 -21 -11 -71 -15 -89l-64 -303h-142l63 303c6 27 9 45 9 58c0 34 -30 58 -68 58c-86 0 -130 -72 -145 -144l-58 -275h-142zM413 607c-60 0 -103 34 -147 34c-25 0 -38 -17 -45 -42h-63
c7 59 48 122 117 122c54 0 101 -35 143 -35c24 0 36 10 43 35h64c-12 -60 -39 -114 -112 -114z" />
    <glyph glyph-name="ncommaaccent" unicode="&#x146;" horiz-adv-x="601" 
d="M-12 0l108 517h136l-16 -72h2c46 57 107 86 181 86c98 0 151 -49 151 -139c0 -21 -11 -71 -15 -89l-64 -303h-142l63 303c6 27 9 45 9 58c0 34 -30 58 -68 58c-86 0 -130 -72 -145 -144l-58 -275h-142zM131 -143l19 93h145l-15 -71c-18 -83 -73 -96 -155 -96l8 37
c32 3 53 12 65 37h-67z" />
    <glyph glyph-name="ograve" unicode="&#xf2;" horiz-adv-x="599" 
d="M13 209c0 175 113 322 297 322c142 0 241 -70 241 -219c0 -182 -113 -326 -301 -326c-144 0 -237 75 -237 223zM155 209c0 -61 35 -116 102 -116c106 0 152 130 152 217c0 69 -30 114 -104 114c-104 0 -150 -128 -150 -215zM319 731l78 -142h-100l-130 142h152z" />
    <glyph glyph-name="oacute" unicode="&#xf3;" horiz-adv-x="599" 
d="M13 209c0 175 113 322 297 322c142 0 241 -70 241 -219c0 -182 -113 -326 -301 -326c-144 0 -237 75 -237 223zM155 209c0 -61 35 -116 102 -116c106 0 152 130 152 217c0 69 -30 114 -104 114c-104 0 -150 -128 -150 -215zM508 731l-140 -142h-100l88 142h152z" />
    <glyph glyph-name="ocircumflex" unicode="&#xf4;" horiz-adv-x="599" 
d="M13 209c0 175 113 322 297 322c142 0 241 -70 241 -219c0 -182 -113 -326 -301 -326c-144 0 -237 75 -237 223zM155 209c0 -61 35 -116 102 -116c106 0 152 130 152 217c0 69 -30 114 -104 114c-104 0 -150 -128 -150 -215zM160 589l137 142h126l83 -142h-100l-51 81
l-86 -81h-109z" />
    <glyph glyph-name="otilde" unicode="&#xf5;" horiz-adv-x="599" 
d="M13 209c0 175 113 322 297 322c142 0 241 -70 241 -219c0 -182 -113 -326 -301 -326c-144 0 -237 75 -237 223zM155 209c0 -61 35 -116 102 -116c106 0 152 130 152 217c0 69 -30 114 -104 114c-104 0 -150 -128 -150 -215zM416 607c-60 0 -103 34 -147 34
c-25 0 -38 -17 -45 -42h-63c7 59 48 122 117 122c54 0 101 -35 143 -35c24 0 36 10 43 35h64c-12 -60 -39 -114 -112 -114z" />
    <glyph glyph-name="odieresis" unicode="&#xf6;" horiz-adv-x="599" 
d="M13 209c0 175 113 322 297 322c142 0 241 -70 241 -219c0 -182 -113 -326 -301 -326c-144 0 -237 75 -237 223zM155 209c0 -61 35 -116 102 -116c106 0 152 130 152 217c0 69 -30 114 -104 114c-104 0 -150 -128 -150 -215zM170 598l24 117h131l-24 -117h-131zM366 598
l24 117h131l-24 -117h-131z" />
    <glyph glyph-name="omacron" unicode="&#x14d;" horiz-adv-x="599" 
d="M13 209c0 175 113 322 297 322c142 0 241 -70 241 -219c0 -182 -113 -326 -301 -326c-144 0 -237 75 -237 223zM155 209c0 -61 35 -116 102 -116c106 0 152 130 152 217c0 69 -30 114 -104 114c-104 0 -150 -128 -150 -215zM187 619l14 75h305l-14 -75h-305z" />
    <glyph glyph-name="obreve" unicode="&#x14f;" horiz-adv-x="599" 
d="M13 209c0 175 113 322 297 322c142 0 241 -70 241 -219c0 -182 -113 -326 -301 -326c-144 0 -237 75 -237 223zM155 209c0 -61 35 -116 102 -116c106 0 152 130 152 217c0 69 -30 114 -104 114c-104 0 -150 -128 -150 -215zM189 731h65c4 -46 43 -67 94 -67
c60 0 90 25 114 67h66c-27 -90 -88 -142 -189 -142c-92 0 -150 56 -150 142z" />
    <glyph glyph-name="ohungarumlaut" unicode="&#x151;" horiz-adv-x="599" 
d="M13 209c0 175 113 322 297 322c142 0 241 -70 241 -219c0 -182 -113 -326 -301 -326c-144 0 -237 75 -237 223zM155 209c0 -61 35 -116 102 -116c106 0 152 130 152 217c0 69 -30 114 -104 114c-104 0 -150 -128 -150 -215zM617 731l-140 -142h-100l88 142h152zM417 731
l-140 -142h-100l88 142h152z" />
    <glyph glyph-name="oslash" unicode="&#xf8;" horiz-adv-x="599" 
d="M159 177l229 211c-15 23 -43 36 -83 36c-104 0 -150 -128 -150 -215c0 -11 1 -22 4 -32zM406 344l-229 -210c17 -25 44 -41 80 -41c106 0 152 130 152 217c0 12 -1 24 -3 34zM552 539l30 -33l-68 -62c24 -35 37 -78 37 -132c0 -182 -113 -326 -301 -326
c-72 0 -132 19 -172 57l-73 -67l-29 33l73 67c-23 34 -36 78 -36 133c0 175 113 322 297 322c72 0 132 -18 174 -54z" />
    <glyph glyph-name="oslashacute" unicode="&#x1ff;" horiz-adv-x="599" 
d="M509 731l-140 -142h-100l88 142h152zM159 177l229 211c-15 23 -43 36 -83 36c-104 0 -150 -128 -150 -215c0 -11 1 -22 4 -32zM406 344l-229 -210c17 -25 44 -41 80 -41c106 0 152 130 152 217c0 12 -1 24 -3 34zM552 539l30 -33l-68 -62c24 -35 37 -78 37 -132
c0 -182 -113 -326 -301 -326c-72 0 -132 19 -172 57l-73 -67l-29 33l73 67c-23 34 -36 78 -36 133c0 175 113 322 297 322c72 0 132 -18 174 -54z" />
    <glyph glyph-name="oe" unicode="&#x153;" horiz-adv-x="936" 
d="M522 314h234c1 7 2 15 2 22c0 43 -33 88 -94 88c-83 0 -119 -49 -142 -110zM721 161h142c-36 -117 -142 -175 -259 -175c-78 0 -141 17 -184 86c-42 -61 -115 -86 -186 -86c-170 0 -221 120 -221 234c0 153 125 311 301 311c67 0 139 -24 174 -84c34 51 115 84 177 84
c145 0 230 -85 230 -227c0 -25 -4 -49 -10 -80h-377c-3 -16 -3 -28 -3 -34c0 -55 38 -97 102 -97c54 0 98 23 114 68zM155 201c0 -58 30 -108 97 -108c107 0 146 148 146 238c0 47 -26 93 -90 93c-110 0 -153 -146 -153 -223z" />
    <glyph glyph-name="racute" unicode="&#x155;" horiz-adv-x="389" 
d="M-12 0l108 517h135l-21 -93l2 -2c32 71 102 109 178 109c15 0 29 -1 44 -3l-29 -138c-20 4 -40 9 -60 9c-109 0 -148 -82 -167 -170l-48 -229h-142zM435 731l-140 -142h-100l88 142h152z" />
    <glyph glyph-name="rcaron" unicode="&#x159;" horiz-adv-x="389" 
d="M-12 0l108 517h135l-21 -93l2 -2c32 71 102 109 178 109c15 0 29 -1 44 -3l-29 -138c-20 4 -40 9 -60 9c-109 0 -148 -82 -167 -170l-48 -229h-142zM465 731l-137 -142h-126l-83 142h100l51 -82l86 82h109z" />
    <glyph glyph-name="rcommaaccent" unicode="&#x157;" horiz-adv-x="389" 
d="M-42 -143l19 93h145l-15 -71c-18 -83 -73 -96 -155 -96l8 37c32 3 53 12 65 37h-67zM-12 0l108 517h135l-21 -93l2 -2c32 71 102 109 178 109c15 0 29 -1 44 -3l-29 -138c-20 4 -40 9 -60 9c-109 0 -148 -82 -167 -170l-48 -229h-142z" />
    <glyph glyph-name="sacute" unicode="&#x15b;" horiz-adv-x="519" 
d="M484 366h-132c-1 44 -26 70 -80 70c-50 0 -87 -14 -87 -51c0 -23 17 -37 65 -52l71 -23c76 -25 136 -61 136 -148c0 -128 -127 -176 -246 -176c-101 0 -220 40 -220 161v21h132v-17c0 -47 53 -70 102 -70c43 0 90 15 90 62c0 36 -20 47 -51 57l-109 35
c-71 23 -112 51 -112 132c0 122 129 164 229 164c113 0 214 -32 212 -165zM461 731l-140 -142h-100l88 142h152z" />
    <glyph glyph-name="scircumflex" unicode="&#x15d;" horiz-adv-x="519" 
d="M484 366h-132c-1 44 -26 70 -80 70c-50 0 -87 -14 -87 -51c0 -23 17 -37 65 -52l71 -23c76 -25 136 -61 136 -148c0 -128 -127 -176 -246 -176c-101 0 -220 40 -220 161v21h132v-17c0 -47 53 -70 102 -70c43 0 90 15 90 62c0 36 -20 47 -51 57l-109 35
c-71 23 -112 51 -112 132c0 122 129 164 229 164c113 0 214 -32 212 -165zM113 589l137 142h126l83 -142h-100l-51 81l-86 -81h-109z" />
    <glyph glyph-name="scaron" unicode="&#x161;" horiz-adv-x="519" 
d="M484 366h-132c-1 44 -26 70 -80 70c-50 0 -87 -14 -87 -51c0 -23 17 -37 65 -52l71 -23c76 -25 136 -61 136 -148c0 -128 -127 -176 -246 -176c-101 0 -220 40 -220 161v21h132v-17c0 -47 53 -70 102 -70c43 0 90 15 90 62c0 36 -20 47 -51 57l-109 35
c-71 23 -112 51 -112 132c0 122 129 164 229 164c113 0 214 -32 212 -165zM491 731l-137 -142h-126l-83 142h100l51 -82l86 82h109z" />
    <glyph glyph-name="scedilla" unicode="&#x15f;" horiz-adv-x="519" 
d="M52 -195l24 48c21 -9 49 -18 77 -18c29 0 49 11 49 34c0 19 -16 33 -40 33c-14 0 -28 -3 -41 -8l-19 24l57 72c-86 11 -168 56 -168 157v21h132v-17c0 -47 53 -70 102 -70c43 0 90 15 90 62c0 36 -20 47 -51 57l-109 35c-71 23 -112 51 -112 132c0 122 129 164 229 164
c113 0 214 -32 212 -165h-132c-1 44 -26 70 -80 70c-50 0 -87 -14 -87 -51c0 -23 17 -37 65 -52l71 -23c76 -25 136 -61 136 -148c0 -128 -127 -176 -248 -176l-33 -38l2 -2c12 5 27 7 38 7c51 0 81 -30 81 -73c0 -66 -59 -97 -135 -97c-45 0 -73 8 -110 22z" />
    <glyph glyph-name="scommaaccent" unicode="&#x219;" horiz-adv-x="519" 
d="M484 366h-132c-1 44 -26 70 -80 70c-50 0 -87 -14 -87 -51c0 -23 17 -37 65 -52l71 -23c76 -25 136 -61 136 -148c0 -128 -127 -176 -246 -176c-101 0 -220 40 -220 161v21h132v-17c0 -47 53 -70 102 -70c43 0 90 15 90 62c0 36 -20 47 -51 57l-109 35
c-71 23 -112 51 -112 132c0 122 129 164 229 164c113 0 214 -32 212 -165zM107 -143l19 93h145l-15 -71c-18 -83 -73 -96 -155 -96l8 37c32 3 53 12 65 37h-67z" />
    <glyph glyph-name="germandbls" unicode="&#xdf;" horiz-adv-x="593" 
d="M-12 0l110 521c28 141 112 210 251 210c101 0 215 -47 215 -171c0 -86 -58 -147 -139 -165v-2c73 -17 110 -72 110 -146c0 -159 -124 -261 -277 -261c-23 0 -46 2 -72 8l23 111c15 -1 29 -2 44 -2c81 0 140 61 140 142c0 73 -43 102 -111 101h-20l19 90h22
c72 0 119 34 119 109c0 42 -37 69 -75 69c-81 0 -98 -55 -113 -121l-104 -493h-142z" />
    <glyph glyph-name="tcaron" unicode="&#x165;" horiz-adv-x="370" 
d="M538 714l-95 -142h-97l48 142h144zM310 674l-32 -157h102l-22 -95h-101l-53 -257c-2 -11 -4 -24 -4 -28c0 -25 18 -34 44 -34c17 0 38 1 55 3l-24 -110c-29 -3 -59 -5 -89 -5c-66 0 -135 21 -135 102c0 13 3 34 7 52l58 277h-93l22 95h91l32 157h142z" />
    <glyph glyph-name="tcommaaccent" unicode="&#x163;" horiz-adv-x="370" 
d="M310 674l-32 -157h102l-22 -95h-101l-53 -257c-2 -11 -4 -24 -4 -28c0 -25 18 -34 44 -34c17 0 38 1 55 3l-24 -110c-29 -3 -59 -5 -89 -5c-66 0 -135 21 -135 102c0 13 3 34 7 52l58 277h-93l22 95h91l32 157h142zM61 -143l19 93h145l-15 -71c-18 -83 -73 -96 -155 -96
l8 37c32 3 53 12 65 37h-67z" />
    <glyph glyph-name="uni021B" unicode="&#x21b;" horiz-adv-x="370" 
d="M310 674l-32 -157h102l-22 -95h-101l-53 -257c-2 -11 -4 -24 -4 -28c0 -25 18 -34 44 -34c17 0 38 1 55 3l-24 -110c-29 -3 -59 -5 -89 -5c-66 0 -135 21 -135 102c0 13 3 34 7 52l58 277h-93l22 95h91l32 157h142zM61 -143l19 93h145l-15 -71c-18 -83 -73 -96 -155 -96
l8 37c32 3 53 12 65 37h-67z" />
    <glyph glyph-name="tbar" unicode="&#x167;" horiz-adv-x="370" 
d="M58 145l25 120h-78l16 76h78l17 81h-93l22 95h91l32 157h142l-32 -157h102l-22 -95h-101l-17 -81h95l-16 -76h-95l-20 -100c-2 -11 -4 -24 -4 -28c0 -25 18 -34 44 -34c17 0 38 1 55 3l-24 -110c-29 -3 -59 -5 -89 -5c-66 0 -135 21 -135 102c0 13 3 34 7 52z" />
    <glyph glyph-name="thorn" unicode="&#xfe;" horiz-adv-x="611" 
d="M-59 -182l189 896h142l-57 -262h2c29 55 89 79 153 79c124 0 196 -80 196 -204c0 -170 -90 -341 -281 -341c-60 0 -123 26 -146 83h-2l-54 -251h-142zM323 424c-106 0 -156 -130 -156 -219c0 -66 33 -112 102 -112c107 0 155 125 155 216c0 62 -34 115 -101 115z" />
    <glyph glyph-name="ugrave" unicode="&#xf9;" horiz-adv-x="601" 
d="M578 517l-108 -517h-136l16 72h-2c-46 -57 -107 -86 -181 -86c-98 0 -150 49 -150 136c0 22 7 60 14 92l64 303h142l-63 -303c-4 -21 -9 -49 -9 -62c0 -33 29 -54 68 -54c86 0 130 72 145 144l58 275h142zM330 731l78 -142h-100l-130 142h152z" />
    <glyph glyph-name="uacute" unicode="&#xfa;" horiz-adv-x="601" 
d="M578 517l-108 -517h-136l16 72h-2c-46 -57 -107 -86 -181 -86c-98 0 -150 49 -150 136c0 22 7 60 14 92l64 303h142l-63 -303c-4 -21 -9 -49 -9 -62c0 -33 29 -54 68 -54c86 0 130 72 145 144l58 275h142zM519 731l-140 -142h-100l88 142h152z" />
    <glyph glyph-name="ucircumflex" unicode="&#xfb;" horiz-adv-x="601" 
d="M578 517l-108 -517h-136l16 72h-2c-46 -57 -107 -86 -181 -86c-98 0 -150 49 -150 136c0 22 7 60 14 92l64 303h142l-63 -303c-4 -21 -9 -49 -9 -62c0 -33 29 -54 68 -54c86 0 130 72 145 144l58 275h142zM171 589l137 142h126l83 -142h-100l-51 81l-86 -81h-109z" />
    <glyph glyph-name="utilde" unicode="&#x169;" horiz-adv-x="601" 
d="M578 517l-108 -517h-136l16 72h-2c-46 -57 -107 -86 -181 -86c-98 0 -150 49 -150 136c0 22 7 60 14 92l64 303h142l-63 -303c-4 -21 -9 -49 -9 -62c0 -33 29 -54 68 -54c86 0 130 72 145 144l58 275h142zM427 607c-60 0 -103 34 -147 34c-25 0 -38 -17 -45 -42h-63
c7 59 48 122 117 122c54 0 101 -35 143 -35c24 0 36 10 43 35h64c-12 -60 -39 -114 -112 -114z" />
    <glyph glyph-name="udieresis" unicode="&#xfc;" horiz-adv-x="601" 
d="M578 517l-108 -517h-136l16 72h-2c-46 -57 -107 -86 -181 -86c-98 0 -150 49 -150 136c0 22 7 60 14 92l64 303h142l-63 -303c-4 -21 -9 -49 -9 -62c0 -33 29 -54 68 -54c86 0 130 72 145 144l58 275h142zM181 598l24 117h131l-24 -117h-131zM377 598l24 117h131
l-24 -117h-131z" />
    <glyph glyph-name="umacron" unicode="&#x16b;" horiz-adv-x="601" 
d="M578 517l-108 -517h-136l16 72h-2c-46 -57 -107 -86 -181 -86c-98 0 -150 49 -150 136c0 22 7 60 14 92l64 303h142l-63 -303c-4 -21 -9 -49 -9 -62c0 -33 29 -54 68 -54c86 0 130 72 145 144l58 275h142zM198 619l14 75h305l-14 -75h-305z" />
    <glyph glyph-name="ubreve" unicode="&#x16d;" horiz-adv-x="601" 
d="M578 517l-108 -517h-136l16 72h-2c-46 -57 -107 -86 -181 -86c-98 0 -150 49 -150 136c0 22 7 60 14 92l64 303h142l-63 -303c-4 -21 -9 -49 -9 -62c0 -33 29 -54 68 -54c86 0 130 72 145 144l58 275h142zM200 731h65c4 -46 43 -67 94 -67c60 0 90 25 114 67h66
c-27 -90 -88 -142 -189 -142c-92 0 -150 56 -150 142z" />
    <glyph glyph-name="uring" unicode="&#x16f;" horiz-adv-x="601" 
d="M578 517l-108 -517h-136l16 72h-2c-46 -57 -107 -86 -181 -86c-98 0 -150 49 -150 136c0 22 7 60 14 92l64 303h142l-63 -303c-4 -21 -9 -49 -9 -62c0 -33 29 -54 68 -54c86 0 130 72 145 144l58 275h142zM231 684c0 69 54 120 123 120c71 0 122 -51 122 -120
s-54 -120 -123 -120c-71 0 -122 51 -122 120zM417 684c0 39 -24 67 -63 67s-64 -28 -64 -67s24 -67 63 -67s64 28 64 67z" />
    <glyph glyph-name="uhungarumlaut" unicode="&#x171;" horiz-adv-x="601" 
d="M578 517l-108 -517h-136l16 72h-2c-46 -57 -107 -86 -181 -86c-98 0 -150 49 -150 136c0 22 7 60 14 92l64 303h142l-63 -303c-4 -21 -9 -49 -9 -62c0 -33 29 -54 68 -54c86 0 130 72 145 144l58 275h142zM628 731l-140 -142h-100l88 142h152zM428 731l-140 -142h-100
l88 142h152z" />
    <glyph glyph-name="uogonek" unicode="&#x173;" horiz-adv-x="601" 
d="M579 517l-108 -517h-58c-58 -42 -97 -83 -97 -123c0 -21 16 -34 35 -34c22 0 39 11 57 30l44 -24c-30 -43 -72 -66 -125 -66c-64 0 -104 32 -104 78c0 52 45 99 113 139l15 72h-2c-46 -57 -107 -86 -181 -86c-98 0 -150 49 -150 136c0 22 7 60 14 92l64 303h142l-63 -303
c-4 -21 -9 -49 -9 -62c0 -33 29 -54 68 -54c86 0 130 72 145 144l58 275h142z" />
    <glyph glyph-name="wacute" unicode="&#x1e83;" horiz-adv-x="815" 
d="M834 517l-270 -517h-148l-18 363h-2l-160 -363h-149l-57 517h145l20 -364h2l159 364h144l16 -361h2l166 361h150zM605 731l-140 -142h-100l88 142h152z" />
    <glyph glyph-name="wcircumflex" unicode="&#x175;" horiz-adv-x="815" 
d="M834 517l-270 -517h-148l-18 363h-2l-160 -363h-149l-57 517h145l20 -364h2l159 364h144l16 -361h2l166 361h150zM262 589l137 142h126l83 -142h-100l-51 81l-86 -81h-109z" />
    <glyph glyph-name="wdieresis" unicode="&#x1e85;" horiz-adv-x="815" 
d="M834 517l-270 -517h-148l-18 363h-2l-160 -363h-149l-57 517h145l20 -364h2l159 364h144l16 -361h2l166 361h150zM272 598l24 117h131l-24 -117h-131zM468 598l24 117h131l-24 -117h-131z" />
    <glyph glyph-name="wgrave" unicode="&#x1e81;" horiz-adv-x="815" 
d="M834 517l-270 -517h-148l-18 363h-2l-160 -363h-149l-57 517h145l20 -364h2l159 364h144l16 -361h2l166 361h150zM426 731l78 -142h-100l-130 142h152z" />
    <glyph glyph-name="yacute" unicode="&#xfd;" horiz-adv-x="519" 
d="M543 517l-329 -590c-49 -89 -95 -109 -202 -109c-25 0 -50 2 -75 6l24 117c22 -4 44 -6 58 -6c40 0 61 13 80 46l14 24l-92 512h146l45 -370h2l179 370h150zM462 731l-140 -142h-100l88 142h152z" />
    <glyph glyph-name="ycircumflex" unicode="&#x177;" horiz-adv-x="519" 
d="M543 517l-329 -590c-49 -89 -95 -109 -202 -109c-25 0 -50 2 -75 6l24 117c22 -4 44 -6 58 -6c40 0 61 13 80 46l14 24l-92 512h146l45 -370h2l179 370h150zM114 589l137 142h126l83 -142h-100l-51 81l-86 -81h-109z" />
    <glyph glyph-name="ydieresis" unicode="&#xff;" horiz-adv-x="519" 
d="M543 517l-329 -590c-49 -89 -95 -109 -202 -109c-25 0 -50 2 -75 6l24 117c22 -4 44 -6 58 -6c40 0 61 13 80 46l14 24l-92 512h146l45 -370h2l179 370h150zM124 598l24 117h131l-24 -117h-131zM320 598l24 117h131l-24 -117h-131z" />
    <glyph glyph-name="ygrave" unicode="&#x1ef3;" horiz-adv-x="519" 
d="M543 517l-329 -590c-49 -89 -95 -109 -202 -109c-25 0 -50 2 -75 6l24 117c22 -4 44 -6 58 -6c40 0 61 13 80 46l14 24l-92 512h146l45 -370h2l179 370h150zM273 731l78 -142h-100l-130 142h152z" />
    <glyph glyph-name="zacute" unicode="&#x17a;" horiz-adv-x="500" 
d="M-51 0l22 105l324 305h-249l23 107h434l-22 -105l-325 -305h285l-23 -107h-469zM463 731l-140 -142h-100l88 142h152z" />
    <glyph glyph-name="zcaron" unicode="&#x17e;" horiz-adv-x="500" 
d="M-51 0l22 105l324 305h-249l23 107h434l-22 -105l-325 -305h285l-23 -107h-469zM493 731l-137 -142h-126l-83 142h100l51 -82l86 82h109z" />
    <glyph glyph-name="zdotaccent" unicode="&#x17c;" horiz-adv-x="500" 
d="M-51 0l22 105l324 305h-249l23 107h434l-22 -105l-325 -305h285l-23 -107h-469zM223 598l24 117h131l-24 -117h-131z" />
    <glyph glyph-name="grave.cap" unicode="&#xe000;" horiz-adv-x="259" 
d="M186 921l78 -142h-100l-130 142h152z" />
    <glyph glyph-name="acute" unicode="&#xb4;" horiz-adv-x="259" 
d="M374 731l-140 -142h-100l88 142h152z" />
    <glyph glyph-name="acute.cap" unicode="&#xe002;" horiz-adv-x="259" 
d="M374 921l-140 -142h-100l88 142h152z" />
    <glyph glyph-name="circumflex" unicode="&#x2c6;" horiz-adv-x="259" 
d="M9 589l137 142h126l83 -142h-100l-51 81l-86 -81h-109z" />
    <glyph glyph-name="circumflex.cap" unicode="&#xe004;" horiz-adv-x="259" 
d="M9 779l137 142h126l83 -142h-100l-51 81l-86 -81h-109z" />
    <glyph glyph-name="caron" unicode="&#x2c7;" horiz-adv-x="259" 
d="M377 731l-137 -142h-126l-83 142h100l51 -82l86 82h109z" />
    <glyph glyph-name="caron.cap" unicode="&#xe006;" horiz-adv-x="259" 
d="M377 921l-137 -142h-126l-83 142h100l51 -82l86 82h109z" />
    <glyph glyph-name="caron.alt" unicode="&#xe008;" horiz-adv-x="259" 
d="M353 714l-95 -142h-97l48 142h144z" />
    <glyph glyph-name="tilde" unicode="&#x2dc;" horiz-adv-x="259" 
d="M268 607c-60 0 -103 34 -147 34c-25 0 -38 -17 -45 -42h-63c7 59 48 122 117 122c54 0 101 -35 143 -35c24 0 36 10 43 35h64c-12 -60 -39 -114 -112 -114z" />
    <glyph glyph-name="tilde.cap" unicode="&#xe009;" horiz-adv-x="259" 
d="M268 797c-60 0 -103 34 -147 34c-25 0 -38 -17 -45 -42h-63c7 59 48 122 117 122c54 0 101 -35 143 -35c24 0 36 10 43 35h64c-12 -60 -39 -114 -112 -114z" />
    <glyph glyph-name="dieresis" unicode="&#xa8;" horiz-adv-x="259" 
d="M17 598l24 117h131l-24 -117h-131zM213 598l24 117h131l-24 -117h-131z" />
    <glyph glyph-name="dieresis.cap" unicode="&#xe00b;" horiz-adv-x="259" 
d="M17 788l24 117h131l-24 -117h-131zM213 788l24 117h131l-24 -117h-131z" />
    <glyph glyph-name="macron" unicode="&#xaf;" horiz-adv-x="259" 
d="M35 619l14 75h305l-14 -75h-305z" />
    <glyph glyph-name="macron.cap" unicode="&#xe00d;" horiz-adv-x="259" 
d="M35 809l14 75h305l-14 -75h-305z" />
    <glyph glyph-name="uni02C9" unicode="&#x2c9;" horiz-adv-x="259" 
d="M35 619l14 75h305l-14 -75h-305z" />
    <glyph glyph-name="breve" unicode="&#x2d8;" horiz-adv-x="259" 
d="M38 731h65c4 -46 43 -67 94 -67c60 0 90 25 114 67h66c-27 -90 -88 -142 -189 -142c-92 0 -150 56 -150 142z" />
    <glyph glyph-name="breve.cap" unicode="&#xe00f;" horiz-adv-x="259" 
d="M38 921h65c4 -46 43 -67 94 -67c60 0 90 25 114 67h66c-27 -90 -88 -142 -189 -142c-92 0 -150 56 -150 142z" />
    <glyph glyph-name="ring" unicode="&#x2da;" horiz-adv-x="259" 
d="M73 684c0 69 54 120 123 120c71 0 122 -51 122 -120s-54 -120 -123 -120c-71 0 -122 51 -122 120zM259 684c0 39 -24 67 -63 67s-64 -28 -64 -67s24 -67 63 -67s64 28 64 67z" />
    <glyph glyph-name="ring.cap" unicode="&#xe011;" horiz-adv-x="259" 
d="M313 859c0 -64 -52 -114 -117 -114c-67 0 -117 50 -117 114s52 114 117 114c67 0 117 -50 117 -114zM135 859c0 -36 24 -63 61 -63s61 26 61 63c0 36 -24 63 -61 63s-61 -26 -61 -63z" />
    <glyph glyph-name="hungarumlaut" unicode="&#x2dd;" horiz-adv-x="259" 
d="M434 731l-140 -142h-100l88 142h152zM234 731l-140 -142h-100l88 142h152z" />
    <glyph glyph-name="hungarumlaut.cap" unicode="&#xe013;" horiz-adv-x="259" 
d="M434 921l-140 -142h-100l88 142h152zM234 921l-140 -142h-100l88 142h152z" />
    <glyph glyph-name="dotaccent" unicode="&#x2d9;" horiz-adv-x="259" 
d="M115 598l24 117h131l-24 -117h-131z" />
    <glyph glyph-name="dotaccent.cap" unicode="&#xe015;" horiz-adv-x="259" 
d="M115 788l24 117h131l-24 -117h-131z" />
    <glyph glyph-name="cedilla" unicode="&#xb8;" horiz-adv-x="259" 
d="M7 -195l24 48c21 -9 49 -18 77 -18c29 0 49 11 49 34c0 19 -16 33 -40 33c-14 0 -28 -3 -41 -8l-19 24l66 82h54l-46 -52l2 -2c12 5 27 7 38 7c51 0 81 -30 81 -73c0 -66 -59 -97 -135 -97c-45 0 -73 8 -110 22z" />
    <glyph glyph-name="ogonek" unicode="&#x2db;" horiz-adv-x="259" 
d="M201 -127l44 -24c-30 -43 -72 -66 -125 -66c-64 0 -104 32 -104 78c0 52 48 99 127 139h74c-66 -42 -108 -83 -108 -123c0 -21 16 -34 35 -34c22 0 39 11 57 30z" />
    <glyph glyph-name="commaaccent" unicode="&#xe017;" horiz-adv-x="278" 
d="M8 -143l19 93h145l-15 -71c-18 -83 -73 -96 -155 -96l8 37c32 3 53 12 65 37h-67z" />
    <glyph glyph-name="commaaccent.alt" unicode="&#xe01a;" horiz-adv-x="278" 
d="M227 714l-19 -93h-145l15 71c18 83 73 96 155 96l-8 -37c-32 -3 -53 -12 -65 -37h67z" />
    <glyph glyph-name="ellipsis" unicode="&#x2026;" horiz-adv-x="1000" 
d="M16 0l33 154h158l-33 -154h-158zM682 0l33 154h158l-33 -154h-158zM349 0l33 154h158l-33 -154h-158z" />
    <glyph glyph-name="uni00AD" unicode="&#xad;" horiz-adv-x="407" 
d="M27 212l26 122h301l-26 -122h-301z" />
    <glyph glyph-name="exclamdown" unicode="&#xa1;" horiz-adv-x="296" 
d="M269 531l-33 -154h-158l33 154h158zM-37 -183l42 194l105 306h70l-25 -306l-41 -194h-151z" />
    <glyph glyph-name="questiondown" unicode="&#xbf;" horiz-adv-x="574" 
d="M416 531l-33 -154h-158l33 154h158zM323 44h142c-8 -160 -127 -240 -278 -240c-115 0 -218 57 -218 185c0 95 65 148 139 190c59 32 106 64 114 136h132c-19 -131 -69 -165 -165 -216c-39 -23 -71 -53 -71 -100c0 -53 40 -78 87 -78c71 0 110 58 118 123z" />
    <glyph glyph-name="quoteleft" unicode="&#x2018;" horiz-adv-x="278" 
d="M268 547l-32 -154h-158l32 154c19 88 63 162 193 167l-15 -70c-59 -11 -78 -40 -89 -97h69z" />
    <glyph glyph-name="quoteright" unicode="&#x2019;" horiz-adv-x="278" 
d="M110 560l32 154h158l-32 -154c-19 -90 -63 -162 -193 -167l15 70c59 11 78 40 89 97h-69z" />
    <glyph glyph-name="quotedblleft" unicode="&#x201c;" horiz-adv-x="481" 
d="M467 547l-32 -154h-158l32 154c19 88 63 162 193 167l-15 -70c-59 -11 -78 -40 -89 -97h69zM256 547l-32 -154h-158l32 154c19 88 63 162 193 167l-15 -70c-59 -11 -78 -40 -89 -97h69z" />
    <glyph glyph-name="quotedblright" unicode="&#x201d;" horiz-adv-x="481" 
d="M98 560l32 154h158l-32 -154c-19 -90 -63 -162 -193 -167l15 70c59 11 78 40 89 97h-69zM309 560l32 154h158l-32 -154c-19 -90 -63 -162 -193 -167l15 70c59 11 78 40 89 97h-69z" />
    <glyph glyph-name="quotesinglbase" unicode="&#x201a;" horiz-adv-x="278" 
d="M-13 0l32 154h158l-32 -154c-19 -90 -63 -162 -193 -167l15 70c59 11 78 40 89 97h-69z" />
    <glyph glyph-name="quotedblbase" unicode="&#x201e;" horiz-adv-x="481" 
d="M200 0l32 154h158l-32 -154c-19 -90 -63 -162 -193 -167l15 70c59 11 78 40 89 97h-69zM-11 0l32 154h158l-32 -154c-19 -90 -63 -162 -193 -167l15 70c59 11 78 40 89 97h-69z" />
    <glyph glyph-name="guilsinglleft" unicode="&#x2039;" horiz-adv-x="259" 
d="M145 80l-128 138l28 130l181 115l-26 -123l-110 -68l77 -85z" />
    <glyph glyph-name="guilsinglright" unicode="&#x203a;" horiz-adv-x="259" 
d="M76 463l128 -138l-28 -130l-181 -115l26 123l110 68l-77 85z" />
    <glyph glyph-name="guillemotleft" unicode="&#xab;" horiz-adv-x="463" 
d="M149 80l-128 138l28 130l181 115l-26 -123l-110 -68l77 -85zM345 80l-128 138l28 130l181 115l-26 -123l-110 -68l77 -85z" />
    <glyph glyph-name="guillemotright" unicode="&#xbb;" horiz-adv-x="463" 
d="M283 463l128 -138l-28 -130l-181 -115l26 123l110 68l-77 85zM87 463l128 -138l-28 -130l-181 -115l26 123l110 68l-77 85z" />
    <glyph glyph-name="endash" unicode="&#x2013;" horiz-adv-x="500" 
d="M-29 212l26 122h500l-26 -122h-500z" />
    <glyph glyph-name="emdash" unicode="&#x2014;" horiz-adv-x="1000" 
d="M101 212l26 122h740l-26 -122h-740z" />
    <glyph glyph-name="bullet" unicode="&#x2022;" horiz-adv-x="500" 
d="M72 357c0 99 79 178 178 178s179 -79 179 -178s-80 -179 -179 -179s-178 80 -178 179z" />
    <glyph glyph-name="periodcentered" unicode="&#xb7;" horiz-adv-x="278" 
d="M43 287c0 48 40 85 85 85s84 -38 84 -85c0 -43 -39 -84 -83 -84c-47 0 -86 38 -86 84z" />
    <glyph glyph-name="uni2219" unicode="&#x2219;" horiz-adv-x="278" 
d="M43 287c0 48 40 85 85 85s84 -38 84 -85c0 -43 -39 -84 -83 -84c-47 0 -86 38 -86 84z" />
    <glyph glyph-name="dagger" unicode="&#x2020;" horiz-adv-x="593" 
d="M124 -166l118 566h-188l25 117h188l41 197h132l-41 -197h188l-25 -117h-188l-118 -566h-132z" />
    <glyph glyph-name="daggerdbl" unicode="&#x2021;" horiz-adv-x="593" 
d="M124 -166l41 193h-188l24 117h188l54 256h-186l23 117h188l41 197h132l-41 -197h188l-25 -117h-188l-54 -256h188l-24 -117h-188l-41 -193h-132z" />
    <glyph glyph-name="section" unicode="&#xa7;" horiz-adv-x="593" 
d="M8 17h127c-4 -51 28 -92 83 -92c45 0 89 17 89 70c0 42 -55 83 -87 104l-101 73c-51 35 -90 87 -90 148c0 84 59 146 143 157c-23 31 -32 47 -32 84c0 113 123 170 223 170c116 -3 214 -61 198 -190h-127c3 47 -22 83 -75 83c-44 0 -77 -25 -77 -68c0 -35 51 -77 78 -93
l92 -66c53 -40 98 -87 98 -156c0 -90 -70 -141 -131 -157c20 -23 30 -56 30 -87c0 -117 -112 -179 -227 -179c-125 0 -219 67 -214 199zM213 256l72 -59c17 -15 42 -43 69 -43c36 0 69 25 69 64c0 47 -39 71 -71 98l-63 53c-30 25 -33 35 -69 35c-32 0 -64 -28 -64 -63
c0 -46 27 -58 57 -85z" />
    <glyph glyph-name="paragraph" unicode="&#xb6;" horiz-adv-x="600" 
d="M146 -166l110 519c-136 0 -201 70 -180 177c29 138 137 184 276 184h282l-185 -880h-96l169 800h-111l-169 -800h-96z" />
    <glyph glyph-name="brokenbar" unicode="&#xa6;" horiz-adv-x="222" 
d="M165 661v-250h-107v250h107zM58 -89v250h107v-250h-107z" />
    <glyph glyph-name="copyright" unicode="&#xa9;" horiz-adv-x="800" 
d="M515 295h81c-16 -100 -93 -158 -182 -158c-130 0 -215 97 -215 222c0 128 80 224 213 224c92 0 168 -54 181 -155h-78c-11 47 -51 75 -103 75c-76 0 -117 -59 -117 -142c0 -78 47 -144 119 -144c56 0 94 30 101 78zM118 357c0 -171 125 -294 282 -294
c155 0 282 123 282 294s-127 294 -282 294c-157 0 -282 -123 -282 -294zM16 357c0 228 181 374 384 374s384 -146 384 -374c0 -227 -181 -374 -384 -374s-384 147 -384 374z" />
    <glyph glyph-name="registered" unicode="&#xae;" horiz-adv-x="800" 
d="M336 503v-110h72c45 0 80 7 80 58c0 44 -48 52 -84 52h-68zM251 149v419h158c105 0 164 -33 164 -124c0 -77 -49 -107 -110 -112l112 -183h-87l-102 179h-50v-179h-85zM118 358c0 -171 125 -295 282 -295c155 0 282 124 282 295c0 170 -127 293 -282 293
c-157 0 -282 -123 -282 -293zM16 358c0 227 181 373 384 373s384 -146 384 -373c0 -228 -181 -375 -384 -375s-384 147 -384 375z" />
    <glyph glyph-name="trademark" unicode="&#x2122;" horiz-adv-x="990" 
d="M398 714v-80h-117v-332h-102v332h-117v80h336zM928 714v-412h-96v292h-2l-106 -292h-69l-106 292h-2v-292h-96v412h136l103 -271l103 271h135z" />
    <glyph glyph-name="currency" unicode="&#xa4;" horiz-adv-x="556" 
d="M280 491c-81 0 -124 -68 -124 -142c0 -73 44 -140 123 -140s119 70 119 142c0 70 -41 140 -118 140zM20 149l57 58c-31 36 -48 86 -48 142s15 111 48 144l-57 58l57 57l57 -56c33 28 90 46 146 46c53 0 106 -18 137 -45l58 57l61 -61l-56 -55c29 -32 45 -87 45 -143
s-15 -109 -46 -146l55 -56l-55 -55l-57 58c-33 -32 -87 -50 -143 -50c-59 0 -112 17 -147 49l-56 -58z" />
    <glyph glyph-name="Euro" unicode="&#x20ac;" horiz-adv-x="556" 
d="M585 658l-61 -113c-37 38 -76 57 -117 57c-71 0 -124 -49 -160 -147h244l-35 -71h-227l-5 -45h213l-35 -71h-178c8 -110 53 -165 136 -165c45 0 100 22 165 67l-26 -148c-54 -25 -107 -38 -159 -38c-82 0 -145 27 -189 82c-39 49 -61 116 -67 202h-75l35 71h41l6 45h-57
l35 71h37c22 78 57 140 105 187c55 53 119 80 194 80c65 0 125 -21 180 -64z" />
    <glyph glyph-name="cent" unicode="&#xa2;" horiz-adv-x="556" 
d="M171 -117l22 107c-117 15 -182 85 -182 218c0 176 106 323 292 323h4l18 86h49l-19 -90c101 -13 177 -72 180 -189h-142c0 47 -20 74 -60 82l-68 -327c56 7 86 49 101 96h142c-40 -139 -120 -203 -264 -203h-2l-22 -103h-49zM216 99l68 325c-96 -11 -131 -135 -131 -219
c0 -51 16 -93 63 -106z" />
    <glyph glyph-name="sterling" unicode="&#xa3;" horiz-adv-x="556" 
d="M31 -17l-42 97c59 43 126 93 126 172c0 23 -1 40 -4 59h-97l18 85h64c-11 29 -22 84 -22 111c0 145 127 224 262 224c151 0 239 -84 232 -255h-137c3 83 -21 138 -95 138c-72 0 -113 -48 -113 -117c0 -33 9 -78 18 -101h141l-17 -85h-114c1 -5 1 -9 1 -14v-14
c0 -79 -35 -126 -95 -169l2 -2c25 11 54 16 83 16c48 0 90 -23 139 -23c33 0 69 16 96 36l41 -107c-56 -36 -101 -51 -166 -51c-62 0 -137 38 -203 38c-48 0 -77 -13 -118 -38z" />
    <glyph glyph-name="florin" unicode="&#x192;" horiz-adv-x="556" 
d="M-31 -166l28 104c12 0 24 -1 36 -1c59 0 68 60 82 104l81 296h-96l28 95h95l39 147c23 103 96 152 204 152c29 0 56 -5 84 -8l-28 -103c-15 1 -27 4 -42 4c-59 0 -68 -38 -84 -78l-30 -114h104l-26 -95h-106l-85 -314c-32 -121 -81 -193 -215 -193c-23 0 -46 3 -69 4z
" />
    <glyph glyph-name="yen" unicode="&#xa5;" horiz-adv-x="556" 
d="M130 0l29 138h-155l20 95h155l9 45l-8 30h-141l20 95h94l-88 311h165l59 -311h2l189 311h165l-217 -311h93l-20 -95h-139l-21 -30l-12 -45h157l-20 -95h-155l-29 -138h-152z" />
    <glyph glyph-name="ordfeminine" unicode="&#xaa;" horiz-adv-x="344" 
d="M168 609h-95c13 84 90 105 165 105c70 0 150 -12 150 -87c0 -13 -3 -33 -7 -52l-30 -125c-3 -11 -5 -30 -5 -42c0 -5 1 -13 4 -24h-106v31c-24 -27 -65 -40 -99 -40c-80 0 -116 38 -116 82c0 73 49 110 129 119c64 8 128 5 128 38c0 28 -35 35 -52 35
c-31 0 -59 -13 -66 -40zM265 509l8 27c-23 -11 -50 -12 -77 -15c-35 -4 -65 -12 -65 -48c0 -21 24 -33 47 -33c59 0 76 37 87 69z" />
    <glyph glyph-name="ordmasculine" unicode="&#xba;" horiz-adv-x="356" 
d="M139 514c0 -31 23 -64 63 -64c67 0 96 78 96 125c0 37 -20 64 -65 64c-64 0 -94 -76 -94 -125zM37 514c0 112 73 200 200 200c100 0 163 -42 163 -138c0 -116 -73 -201 -202 -201c-101 0 -161 44 -161 139z" />
    <glyph glyph-name="onesuperior" unicode="&#xb9;" horiz-adv-x="390" 
d="M369 820l-94 -423h-102l62 268h-113l15 72h23c59 0 105 23 125 83h84z" />
    <glyph glyph-name="twosuperior" unicode="&#xb2;" horiz-adv-x="390" 
d="M376 477l-17 -80h-313c10 100 48 150 130 191l90 45c40 20 57 45 57 72s-19 47 -51 47c-39 0 -65 -31 -71 -76h-100c11 89 71 153 177 153c101 0 147 -56 147 -119c0 -65 -43 -107 -114 -142l-85 -42c-29 -14 -52 -34 -55 -49h205z" />
    <glyph glyph-name="threesuperior" unicode="&#xb3;" horiz-adv-x="390" 
d="M204 586l14 69h36c32 0 64 18 64 50c0 29 -22 48 -55 48c-36 0 -64 -23 -70 -66h-95c13 89 77 142 175 142c90 0 137 -53 137 -109c0 -49 -29 -80 -81 -96c39 -12 64 -42 64 -81c0 -100 -81 -155 -180 -155c-95 0 -155 43 -155 139h96c0 -35 21 -60 65 -60
c47 0 80 27 80 72c0 30 -22 47 -57 47h-38z" />
    <glyph glyph-name="fraction" unicode="&#x2044;" horiz-adv-x="167" 
d="M-166 -22l414 744h85l-412 -744h-87z" />
    <glyph glyph-name="uni2215" unicode="&#x2215;" horiz-adv-x="167" 
d="M-166 -22l414 744h85l-412 -744h-87z" />
    <glyph glyph-name="onehalf" unicode="&#xbd;" horiz-adv-x="834" 
d="M738 80l-17 -80h-313c10 100 48 150 130 191l90 45c40 20 57 45 57 72s-19 47 -51 47c-39 0 -65 -31 -71 -76h-100c11 89 71 153 177 153c101 0 147 -56 147 -119c0 -65 -43 -107 -114 -142l-85 -42c-29 -14 -52 -34 -55 -49h205zM326 704l-94 -423h-102l62 268h-113
l15 72h23c59 0 105 23 125 83h84zM120 -22l414 744h85l-412 -744h-87z" />
    <glyph glyph-name="onethird" unicode="&#x2153;" horiz-adv-x="834" 
d="M124 -22l414 744h85l-412 -744h-87zM326 704l-94 -423h-102l62 268h-113l15 72h23c59 0 105 23 125 83h84zM578 189l14 69h36c32 0 64 18 64 50c0 29 -22 48 -55 48c-36 0 -64 -23 -70 -66h-95c13 89 77 142 175 142c90 0 137 -53 137 -109c0 -49 -29 -80 -81 -96
c39 -12 64 -42 64 -81c0 -100 -81 -155 -180 -155c-95 0 -155 43 -155 139h96c0 -35 21 -60 65 -60c47 0 80 27 80 72c0 30 -22 47 -57 47h-38z" />
    <glyph glyph-name="onequarter" unicode="&#xbc;" horiz-adv-x="834" 
d="M147 -22l414 744h85l-412 -744h-87zM326 704l-94 -423h-102l62 268h-113l15 72h23c59 0 105 23 125 83h84zM596 159l32 151l-140 -151h108zM563 0l17 83h-185l17 84l240 256h96l-56 -264h61l-16 -76h-61l-17 -83h-96z" />
    <glyph glyph-name="oneeighth" unicode="&#x215b;" horiz-adv-x="834" 
d="M132 -22l414 744h85l-412 -744h-87zM326 704l-94 -423h-102l62 268h-113l15 72h23c59 0 105 23 125 83h84zM641 362c-35 0 -66 -20 -66 -57c0 -26 24 -47 55 -47c34 0 64 19 64 59c0 25 -22 45 -53 45zM485 307c0 84 79 125 161 125c88 0 140 -44 140 -110
c0 -47 -32 -86 -88 -97c49 -17 69 -51 69 -92c0 -97 -88 -142 -182 -142s-156 48 -156 118c0 65 47 111 111 121c-36 14 -55 44 -55 77zM605 191c-45 0 -80 -28 -80 -69c0 -35 28 -58 67 -58c46 0 80 28 80 70c0 33 -27 57 -67 57z" />
    <glyph glyph-name="twothirds" unicode="&#x2154;" horiz-adv-x="834" 
d="M169 -22l414 744h85l-412 -744h-87zM587 189l14 69h36c32 0 64 18 64 50c0 29 -22 48 -55 48c-36 0 -64 -23 -70 -66h-95c13 89 77 142 175 142c90 0 137 -53 137 -109c0 -49 -29 -80 -81 -96c39 -12 64 -42 64 -81c0 -100 -81 -155 -180 -155c-95 0 -155 43 -155 139h96
c0 -35 21 -60 65 -60c47 0 80 27 80 72c0 30 -22 47 -57 47h-38zM338 361l-17 -80h-307c10 100 48 150 130 191l90 45c40 20 57 45 57 72s-19 47 -51 47c-39 0 -65 -31 -71 -76h-100c11 89 71 153 177 153c101 0 147 -56 147 -119c0 -65 -43 -107 -114 -142l-85 -42
c-29 -14 -52 -34 -55 -49h199z" />
    <glyph glyph-name="threequarters" unicode="&#xbe;" horiz-adv-x="834" 
d="M188 470l14 69h36c32 0 64 18 64 50c0 29 -22 48 -55 48c-36 0 -64 -23 -70 -66h-95c13 89 77 142 175 142c90 0 137 -53 137 -109c0 -49 -29 -80 -81 -96c39 -12 64 -42 64 -81c0 -100 -81 -155 -180 -155c-95 0 -155 43 -155 139h96c0 -35 21 -60 65 -60
c47 0 80 27 80 72c0 30 -22 47 -57 47h-38zM202 -22l414 744h85l-412 -744h-87zM624 159l32 151l-140 -151h108zM591 0l17 83h-185l17 84l240 256h96l-56 -264h61l-16 -76h-61l-17 -83h-96z" />
    <glyph glyph-name="threeeighths" unicode="&#x215c;" horiz-adv-x="834" 
d="M180 470l14 69h36c32 0 64 18 64 50c0 29 -22 48 -55 48c-36 0 -64 -23 -70 -66h-95c13 89 77 142 175 142c90 0 137 -53 137 -109c0 -49 -29 -80 -81 -96c39 -12 64 -42 64 -81c0 -100 -81 -155 -180 -155c-95 0 -155 43 -155 139h96c0 -35 21 -60 65 -60
c47 0 80 27 80 72c0 30 -22 47 -57 47h-38zM175 -22l414 744h85l-412 -744h-87zM649 362c-35 0 -66 -20 -66 -57c0 -26 24 -47 55 -47c34 0 64 19 64 59c0 25 -22 45 -53 45zM493 307c0 84 79 125 161 125c88 0 140 -44 140 -110c0 -47 -32 -86 -88 -97
c49 -17 69 -51 69 -92c0 -97 -88 -142 -182 -142s-156 48 -156 118c0 65 47 111 111 121c-36 14 -55 44 -55 77zM613 191c-45 0 -80 -28 -80 -69c0 -35 28 -58 67 -58c46 0 80 28 80 70c0 33 -27 57 -67 57z" />
    <glyph glyph-name="fiveeighths" unicode="&#x215d;" horiz-adv-x="834" 
d="M173 -22l414 744h85l-412 -744h-87zM649 362c-35 0 -66 -20 -66 -57c0 -26 24 -47 55 -47c34 0 64 19 64 59c0 25 -22 45 -53 45zM493 307c0 84 79 125 161 125c88 0 140 -44 140 -110c0 -47 -32 -86 -88 -97c49 -17 69 -51 69 -92c0 -97 -88 -142 -182 -142
s-156 48 -156 118c0 65 47 111 111 121c-36 14 -55 44 -55 77zM613 191c-45 0 -80 -28 -80 -69c0 -35 28 -58 67 -58c46 0 80 28 80 70c0 33 -27 57 -67 57zM395 704l-16 -77h-179l-28 -86c24 19 53 27 83 27c72 0 116 -52 116 -117c0 -105 -75 -179 -187 -179
c-90 0 -146 42 -146 125h93c3 -26 24 -46 60 -46c46 0 83 37 83 91c0 34 -20 58 -57 58c-27 0 -51 -14 -62 -31h-91l75 235h256z" />
    <glyph glyph-name="seveneighths" unicode="&#x215e;" horiz-adv-x="834" 
d="M128 -22l414 744h85l-412 -744h-87zM629 362c-35 0 -66 -20 -66 -57c0 -26 24 -47 55 -47c34 0 64 19 64 59c0 25 -22 45 -53 45zM473 307c0 84 79 125 161 125c88 0 140 -44 140 -110c0 -47 -32 -86 -88 -97c49 -17 69 -51 69 -92c0 -97 -88 -142 -182 -142
s-156 48 -156 118c0 65 47 111 111 121c-36 14 -55 44 -55 77zM593 191c-45 0 -80 -28 -80 -69c0 -35 28 -58 67 -58c46 0 80 28 80 70c0 33 -27 57 -67 57zM425 704l-16 -77c-108 -87 -172 -231 -192 -346h-115c34 138 102 259 198 342h-193l17 81h301z" />
    <glyph glyph-name="perthousand" unicode="&#x2030;" horiz-adv-x="1130" 
d="M160 497c0 -27 9 -62 42 -62c60 0 80 114 80 160c0 27 -13 54 -42 54c-58 0 -80 -108 -80 -152zM70 504c0 104 58 210 172 210c81 0 130 -44 130 -125c0 -109 -54 -219 -177 -219c-84 0 -125 54 -125 134zM76 -22l538 744h85l-537 -744h-86zM845 113c0 -27 9 -62 42 -62
c60 0 80 114 80 160c0 27 -13 54 -42 54c-58 0 -80 -108 -80 -152zM755 120c0 104 58 210 172 210c81 0 130 -44 130 -125c0 -109 -54 -219 -177 -219c-84 0 -125 54 -125 134zM494 113c0 -27 9 -62 42 -62c60 0 80 114 80 160c0 27 -13 54 -42 54c-58 0 -80 -108 -80 -152z
M404 120c0 104 58 210 172 210c81 0 130 -44 130 -125c0 -109 -54 -219 -177 -219c-84 0 -125 54 -125 134z" />
    <glyph glyph-name="minus" unicode="&#x2212;" horiz-adv-x="600" 
d="M31 199v107h505v-107h-505z" />
    <glyph glyph-name="plusminus" unicode="&#xb1;" horiz-adv-x="600" 
d="M31 0v107h505v-107h-505zM31 268v107h199v131h107v-131h199v-107h-199v-131h-107v131h-199z" />
    <glyph glyph-name="multiply" unicode="&#xd7;" horiz-adv-x="600" 
d="M123 17l-76 76l161 160l-159 160l76 76l159 -160l160 160l76 -76l-161 -160l161 -160l-76 -76l-160 161z" />
    <glyph glyph-name="divide" unicode="&#xf7;" horiz-adv-x="600" 
d="M199 45c0 47 40 84 85 84s84 -37 84 -84c0 -42 -39 -85 -83 -85c-47 0 -86 40 -86 85zM199 460c0 48 40 85 85 85s84 -38 84 -85c0 -43 -39 -84 -83 -84c-47 0 -86 38 -86 84zM31 199v107h505v-107h-505z" />
    <glyph glyph-name="notequal" unicode="&#x2260;" horiz-adv-x="600" 
d="M536 412v-104h-172l-55 -111h227v-104h-285l-71 -134l-87 43l49 91h-111v104h173l54 111h-227v104h285l72 135l87 -43l-50 -92h111z" />
    <glyph glyph-name="approxequal" unicode="&#x2248;" horiz-adv-x="600" 
d="M387 56c-78 0 -145 63 -216 63c-41 0 -56 -26 -61 -60h-84c8 92 50 162 153 162c71 0 154 -63 216 -63c41 0 56 28 61 62h84c-8 -92 -50 -164 -153 -164zM387 270c-78 0 -145 63 -216 63c-41 0 -56 -26 -61 -60h-84c8 92 50 162 153 162c71 0 154 -63 216 -63
c41 0 56 28 61 62h84c-8 -92 -50 -164 -153 -164z" />
    <glyph glyph-name="lessequal" unicode="&#x2264;" horiz-adv-x="600" 
d="M28 0v107h505v-107h-505zM533 514v-113l-356 -83l356 -83v-113l-505 142v108z" />
    <glyph glyph-name="greaterequal" unicode="&#x2265;" horiz-adv-x="600" 
d="M553 107v-107h-505v107h505zM48 400v114l505 -142v-108l-505 -142v112l356 83z" />
    <glyph glyph-name="logicalnot" unicode="&#xac;" horiz-adv-x="600" 
d="M542 406v-307h-107v200h-397v107h504z" />
    <glyph glyph-name="Delta" unicode="&#x2206;" horiz-adv-x="685" 
d="M-77 0l422 714h161l119 -714h-702zM395 560l-234 -428h291l-55 428h-2z" />
    <glyph glyph-name="uni0394" unicode="&#x394;" horiz-adv-x="685" 
d="M-77 0l422 714h161l119 -714h-702zM395 560l-234 -428h291l-55 428h-2z" />
    <glyph glyph-name="Omega" unicode="&#x2126;" horiz-adv-x="774" 
d="M425 599c-152 0 -231 -125 -231 -255c0 -90 33 -162 104 -226l-25 -118h-297l27 128h139l-1 5c-64 54 -102 122 -102 218c0 203 159 380 394 380c190 0 315 -122 315 -279c0 -152 -67 -250 -193 -319l1 -5h143l-27 -128h-314l25 118c135 73 205 189 205 319
c0 97 -67 162 -163 162z" />
    <glyph glyph-name="uni03A9" unicode="&#x3a9;" horiz-adv-x="774" 
d="M425 599c-152 0 -231 -125 -231 -255c0 -90 33 -162 104 -226l-25 -118h-297l27 128h139l-1 5c-64 54 -102 122 -102 218c0 203 159 380 394 380c190 0 315 -122 315 -279c0 -152 -67 -250 -193 -319l1 -5h143l-27 -128h-314l25 118c135 73 205 189 205 319
c0 97 -67 162 -163 162z" />
    <glyph glyph-name="mu" unicode="&#xb5;" horiz-adv-x="603" 
d="M580 517l-108 -517h-136l16 72h-2c-60 -66 -111 -86 -156 -86c-19 0 -52 7 -66 20l-39 -188h-142l150 699h142l-63 -303c-5 -25 -9 -48 -9 -64c0 -31 29 -52 65 -52c89 0 133 72 148 144l58 275h142z" />
    <glyph glyph-name="uni03BC" unicode="&#x3bc;" horiz-adv-x="603" 
d="M580 517l-108 -517h-136l16 72h-2c-60 -66 -111 -86 -156 -86c-19 0 -52 7 -66 20l-39 -188h-142l150 699h142l-63 -303c-5 -25 -9 -48 -9 -64c0 -31 29 -52 65 -52c89 0 133 72 148 144l58 275h142z" />
    <glyph glyph-name="pi" unicode="&#x3c0;" horiz-adv-x="694" 
d="M44 0l87 410h-104l23 107h657l-23 -107h-110l-58 -272c-1 -6 -2 -12 -2 -17c0 -17 10 -27 32 -27c11 0 26 2 36 4l-20 -92c-29 -13 -57 -20 -97 -20c-65 0 -101 31 -101 86c0 11 2 24 5 37l63 301h-159l-87 -410h-142z" />
    <glyph glyph-name="degree" unicode="&#xb0;" horiz-adv-x="400" 
d="M157 566c0 -48 40 -88 83 -88s83 40 83 88s-40 88 -83 88s-83 -40 -83 -88zM92 566c0 83 65 148 148 148s148 -65 148 -148s-65 -148 -148 -148s-148 65 -148 148z" />
    <glyph glyph-name="afii61289" unicode="&#x2113;" horiz-adv-x="500" 
d="M500 595c0 -113 -88 -214 -259 -329c-26 -108 -28 -125 -28 -137c0 -32 20 -45 44 -45c26 0 53 10 98 39h2l33 -77c-59 -42 -112 -60 -173 -60c-88 0 -138 49 -138 119c0 11 2 24 12 73l-61 -44h-2l-35 75l122 83l50 237c25 120 104 192 206 192c76 0 129 -56 129 -126z
M388 589c0 24 -12 44 -31 44c-23 0 -41 -21 -52 -71l-39 -179c63 54 122 135 122 206z" />
    <glyph glyph-name="estimated" unicode="&#x212e;" horiz-adv-x="770" 
d="M726 349h-533v-238c52 -51 115 -78 191 -78c109 0 189 48 255 159l46 -28c-81 -125 -162 -178 -301 -178c-207 0 -340 161 -340 363c0 205 133 365 340 365c203 0 341 -150 342 -365zM193 398h384v191c-55 52 -120 79 -194 79c-75 0 -138 -28 -190 -79v-191z" />
    <glyph glyph-name="eng" unicode="&#x14b;" horiz-adv-x="601" 
d="M535 303l-69 -329c-22 -103 -73 -156 -212 -156c-15 0 -49 1 -70 4l24 117c17 -3 34 -4 47 -4c35 0 64 19 74 65l63 303c6 27 9 45 9 58c0 34 -30 58 -68 58c-86 0 -130 -72 -145 -144l-58 -275h-142l108 517h136l-16 -72h2c46 57 107 86 181 86c98 0 151 -49 151 -139
c0 -21 -11 -71 -15 -89z" />
    <glyph glyph-name="Eng" unicode="&#x14a;" 
d="M454 -2l-207 503h-2l-102 -501h-147l151 714h162l196 -498h2l100 498h144l-155 -735c-23 -111 -82 -161 -221 -161c-21 0 -59 2 -87 6l25 121c23 -4 43 -6 59 -6c40 0 72 17 82 59z" />
    <glyph glyph-name="infinity" unicode="&#x221e;" horiz-adv-x="848" 
d="M783 269c0 -112 -68 -200 -184 -200c-85 0 -143 54 -194 116c-54 -62 -104 -114 -192 -114c-116 0 -187 84 -187 197c0 111 68 195 183 195c91 0 143 -56 196 -122c50 66 105 122 195 122c115 0 183 -85 183 -194zM675 266c0 47 -29 83 -78 83c-50 0 -95 -50 -125 -85
c33 -38 74 -80 128 -80c48 0 75 37 75 82zM337 264c-30 35 -78 84 -127 84c-47 0 -75 -38 -75 -82c0 -47 29 -81 77 -81c51 0 96 42 125 79z" />
    <glyph glyph-name="partialdiff" unicode="&#x2202;" horiz-adv-x="572" 
d="M509 357c0 -172 -46 -372 -258 -372c-137 0 -229 96 -229 232c0 128 91 224 220 224c52 0 93 -16 134 -47v14c0 88 -28 211 -137 211c-49 0 -85 -22 -121 -53l-70 80c58 48 109 74 185 74c207 0 276 -184 276 -363zM375 266v24c-28 32 -69 54 -112 54
c-76 0 -114 -64 -114 -133c0 -64 32 -128 104 -128c90 0 125 108 122 183z" />
    <glyph glyph-name="integral" unicode="&#x222b;" horiz-adv-x="628" 
d="M519 702c0 -36 -24 -64 -61 -64c-66 0 -49 87 -79 87c-18 0 -19 -25 -19 -37c0 -55 6 -106 6 -161v-413v-69c0 -119 -17 -258 -167 -258c-51 0 -122 29 -122 89c0 35 30 57 63 57c66 0 45 -87 75 -87c19 0 19 22 19 35c0 48 -6 96 -6 144v465c0 131 -1 294 173 294
c47 0 118 -26 118 -82z" />
    <glyph glyph-name="radical" unicode="&#x221a;" horiz-adv-x="570" 
d="M556 786l-218 -1000h-121l-147 303l-54 -26l-49 105l171 78l118 -255l161 795h139z" />
    <glyph glyph-name="summation" unicode="&#x2211;" horiz-adv-x="673" 
d="M646 -214h-619v110l295 396l-283 384v110h595v-126h-418l263 -367l-280 -381h447v-126z" />
    <glyph glyph-name="product" unicode="&#x220f;" horiz-adv-x="749" 
d="M693 -214h-132v874h-373v-874h-133v1000h638v-1000z" />
    <glyph glyph-name="lozenge" unicode="&#x25ca;" horiz-adv-x="593" 
d="M541 356l-186 -391h-119l-184 391l185 391h118zM408 356l-112 261l-112 -261l112 -262z" />
    <glyph glyph-name="f_i" unicode="&#xf001;" horiz-adv-x="615" 
d="M17 0l89 422h-84l20 95h85c27 132 52 203 201 203c31 0 62 -3 93 -8l-22 -102c-15 1 -31 3 -46 3c-71 0 -68 -36 -84 -96h101l-20 -95h-102l-89 -422h-142zM341 0l110 517h142l-110 -517h-142zM635 714l-26 -117h-142l26 117h142z" />
    <glyph glyph-name="f_l" unicode="&#xf002;" horiz-adv-x="614" 
d="M17 0l89 422h-84l20 95h85c27 132 52 203 201 203c31 0 62 -3 93 -8l-22 -102c-15 1 -31 3 -46 3c-71 0 -68 -36 -84 -96h101l-20 -95h-102l-89 -422h-142zM340 0l152 714h142l-152 -714h-142z" />
    <glyph glyph-name="uniF8FF" unicode="&#xf8ff;" horiz-adv-x="512" 
d="M278 117h-56v67h56v-67zM271 234h-46l-2 17c0 37 4 64 13 81s24 37 46 59c43 41 50 58 50 83c0 48 -35 85 -76 85s-74 -27 -82 -95l-50 8c9 95 63 137 135 137c71 0 124 -52 124 -131c0 -43 -12 -73 -63 -120c-25 -22 -39 -39 -43 -52s-6 -37 -6 -72zM50 50h412v617h-412
v-617zM0 718h512v-718h-512v718z" />
    <glyph glyph-name="uni2010" unicode="&#x2010;" horiz-adv-x="407" 
d="M27 212l26 122h301l-26 -122h-301z" />
    <glyph glyph-name="afii00208" unicode="&#x2015;" horiz-adv-x="1000" 
d="M51 212l26 122h840l-26 -122h-840z" />
    <glyph glyph-name="interrobang" unicode="&#x203d;" horiz-adv-x="574" 
d="M418 714l-14 -62c108 -18 159 -78 159 -149c0 -183 -192 -162 -233 -283h-123l38 300l6 29c-41 -13 -56 -40 -61 -75h-122c7 102 77 165 205 180l13 60h132zM145 0l33 154h158l-33 -154h-158zM430 493c0 25 -14 49 -48 57l-6 -30l-57 -154l24 16c57 38 87 62 87 111z" />
    <glyph glyph-name="zero.superior" unicode="&#x2070;" horiz-adv-x="390" 
d="M218 465c63 0 104 124 104 221c0 44 -22 66 -51 66c-63 0 -104 -124 -104 -221c0 -44 22 -66 51 -66zM209 388c-92 0 -140 58 -140 156c0 139 69 285 211 285c92 0 140 -58 140 -156c0 -139 -69 -285 -211 -285z" />
    <glyph glyph-name="four.superior" unicode="&#x2074;" horiz-adv-x="390" 
d="M247 556l32 151l-140 -151h108zM214 397l17 83h-185l17 84l240 256h96l-56 -264h61l-16 -76h-61l-17 -83h-96z" />
    <glyph glyph-name="five.superior" unicode="&#x2075;" horiz-adv-x="390" 
d="M420 820l-16 -77h-179l-28 -86c24 19 53 27 83 27c72 0 116 -52 116 -117c0 -105 -75 -179 -187 -179c-90 0 -146 42 -146 125h93c3 -26 24 -46 60 -46c46 0 83 37 83 91c0 34 -20 58 -57 58c-27 0 -51 -14 -62 -31h-91l75 235h256z" />
    <glyph glyph-name="six.superior" unicode="&#x2076;" horiz-adv-x="390" 
d="M239 611c-45 0 -75 -36 -75 -83c0 -38 27 -64 62 -64c46 0 74 37 74 86c0 34 -22 61 -61 61zM415 722h-95c-4 22 -19 34 -46 34c-50 0 -83 -50 -100 -117c29 28 63 41 103 41c74 0 119 -53 119 -120c0 -97 -74 -172 -170 -172c-98 0 -154 61 -154 164
c0 127 64 277 213 277c77 0 124 -41 130 -107z" />
    <glyph glyph-name="seven.superior" unicode="&#x2077;" horiz-adv-x="390" 
d="M435 820l-16 -77c-108 -87 -172 -231 -192 -346h-115c34 138 102 259 198 342h-193l17 81h301z" />
    <glyph glyph-name="eight.superior" unicode="&#x2078;" horiz-adv-x="390" 
d="M270 759c-35 0 -66 -20 -66 -57c0 -26 24 -47 55 -47c34 0 64 19 64 59c0 25 -22 45 -53 45zM114 704c0 84 79 125 161 125c88 0 140 -44 140 -110c0 -47 -32 -86 -88 -97c49 -17 69 -51 69 -92c0 -97 -88 -142 -182 -142s-156 48 -156 118c0 65 47 111 111 121
c-36 14 -55 44 -55 77zM234 588c-45 0 -80 -28 -80 -69c0 -35 28 -58 67 -58c46 0 80 28 80 70c0 33 -27 57 -67 57z" />
    <glyph glyph-name="nine.superior" unicode="&#x2079;" horiz-adv-x="390" 
d="M247 608c45 0 75 34 75 81c0 38 -27 64 -62 64c-46 0 -74 -37 -74 -85c0 -34 22 -60 61 -60zM71 495h95c4 -22 20 -34 47 -34c50 0 84 51 99 118c-29 -28 -62 -39 -102 -39c-74 0 -120 51 -120 118c0 96 74 171 170 171c98 0 154 -61 154 -164c0 -130 -63 -277 -212 -277
c-77 0 -125 41 -131 107z" />
    <glyph glyph-name="plus.superior" unicode="&#x207a;" horiz-adv-x="400" 
d="M312 709l-25 -117h116l-17 -77h-116l-25 -118h-86l25 118h-116l17 77h116l25 117h86z" />
    <glyph glyph-name="minus.superior" unicode="&#x207b;" horiz-adv-x="270" 
d="M70 520l17 84h192l-17 -84h-192z" />
    <glyph glyph-name="equal.superior" unicode="&#x207c;" horiz-adv-x="400" 
d="M389 524l-17 -77h-318l17 77h318zM417 657l-17 -77h-318l17 77h318z" />
    <glyph glyph-name="parenleft.superior" unicode="&#x207d;" horiz-adv-x="225" 
d="M235 876h87c-87 -136 -139 -259 -139 -387c0 -54 4 -99 25 -171h-85c-32 72 -41 136 -41 196c0 123 48 236 153 362z" />
    <glyph glyph-name="parenright.superior" unicode="&#x207e;" horiz-adv-x="225" 
d="M87 318h-87c87 136 139 259 139 387c0 54 -4 99 -25 171h85c32 -72 41 -136 41 -196c0 -123 -48 -236 -153 -362z" />
    <glyph glyph-name="n.superior" unicode="&#x207f;" horiz-adv-x="390" 
d="M54 397l67 319h97l-10 -47c34 41 69 56 110 56c62 0 92 -34 92 -88c0 -13 -2 -28 -5 -44l-41 -196h-102l39 186c2 11 4 23 4 32c0 19 -13 32 -36 32c-35 0 -66 -28 -76 -76l-37 -174h-102z" />
    <glyph glyph-name="zero.inferior" unicode="&#x2080;" horiz-adv-x="390" 
d="M106 -101c63 0 104 124 104 221c0 44 -22 66 -51 66c-63 0 -104 -124 -104 -221c0 -44 22 -66 51 -66zM97 -178c-92 0 -140 58 -140 156c0 139 69 285 211 285c92 0 140 -58 140 -156c0 -139 -69 -285 -211 -285z" />
    <glyph glyph-name="one.inferior" unicode="&#x2081;" horiz-adv-x="390" 
d="M257 254l-94 -423h-102l62 268h-113l15 72h23c59 0 105 23 125 83h84z" />
    <glyph glyph-name="two.inferior" unicode="&#x2082;" horiz-adv-x="390" 
d="M264 -89l-17 -80h-313c10 100 48 150 130 191l90 45c40 20 57 45 57 72s-19 47 -51 47c-39 0 -65 -31 -71 -76h-100c11 89 71 153 177 153c101 0 147 -56 147 -119c0 -65 -43 -107 -114 -142l-85 -42c-29 -14 -52 -34 -55 -49h205z" />
    <glyph glyph-name="three.inferior" unicode="&#x2083;" horiz-adv-x="390" 
d="M92 20l14 69h36c32 0 64 18 64 50c0 29 -22 48 -55 48c-36 0 -64 -23 -70 -66h-95c13 89 77 142 175 142c90 0 137 -53 137 -109c0 -49 -29 -80 -81 -96c39 -12 64 -42 64 -81c0 -100 -81 -155 -180 -155c-95 0 -155 43 -155 139h96c0 -35 21 -60 65 -60
c47 0 80 27 80 72c0 30 -22 47 -57 47h-38z" />
    <glyph glyph-name="four.inferior" unicode="&#x2084;" horiz-adv-x="390" 
d="M135 -10l32 151l-140 -151h108zM102 -169l17 83h-185l17 84l240 256h96l-56 -264h61l-16 -76h-61l-17 -83h-96z" />
    <glyph glyph-name="five.inferior" unicode="&#x2085;" horiz-adv-x="390" 
d="M308 254l-16 -77h-179l-28 -86c24 19 53 27 83 27c72 0 116 -52 116 -117c0 -105 -75 -179 -187 -179c-90 0 -146 42 -146 125h93c3 -26 24 -46 60 -46c46 0 83 37 83 91c0 34 -20 58 -57 58c-27 0 -51 -14 -62 -31h-91l75 235h256z" />
    <glyph glyph-name="six.inferior" unicode="&#x2086;" horiz-adv-x="390" 
d="M127 45c-45 0 -75 -36 -75 -83c0 -38 27 -64 62 -64c46 0 74 37 74 86c0 34 -22 61 -61 61zM303 156h-95c-4 22 -19 34 -46 34c-50 0 -83 -50 -100 -117c29 28 63 41 103 41c74 0 119 -53 119 -120c0 -97 -74 -172 -170 -172c-98 0 -154 61 -154 164
c0 127 64 277 213 277c77 0 124 -41 130 -107z" />
    <glyph glyph-name="seven.inferior" unicode="&#x2087;" horiz-adv-x="390" 
d="M323 254l-16 -77c-108 -87 -172 -231 -192 -346h-115c34 138 102 259 198 342h-193l17 81h301z" />
    <glyph glyph-name="eight.inferior" unicode="&#x2088;" horiz-adv-x="390" 
d="M158 193c-35 0 -66 -20 -66 -57c0 -26 24 -47 55 -47c34 0 64 19 64 59c0 25 -22 45 -53 45zM2 138c0 84 79 125 161 125c88 0 140 -44 140 -110c0 -47 -32 -86 -88 -97c49 -17 69 -51 69 -92c0 -97 -88 -142 -182 -142s-156 48 -156 118c0 65 47 111 111 121
c-36 14 -55 44 -55 77zM122 22c-45 0 -80 -28 -80 -69c0 -35 28 -58 67 -58c46 0 80 28 80 70c0 33 -27 57 -67 57z" />
    <glyph glyph-name="nine.inferior" unicode="&#x2089;" horiz-adv-x="390" 
d="M135 42c45 0 75 34 75 81c0 38 -27 64 -62 64c-46 0 -74 -37 -74 -85c0 -34 22 -60 61 -60zM-41 -71h95c4 -22 20 -34 47 -34c50 0 84 51 99 118c-29 -28 -62 -39 -102 -39c-74 0 -120 51 -120 118c0 96 74 171 170 171c98 0 154 -61 154 -164c0 -130 -63 -277 -212 -277
c-77 0 -125 41 -131 107z" />
    <glyph glyph-name="plus.inferior" unicode="&#x208a;" horiz-adv-x="400" 
d="M200 143l-25 -117h116l-17 -77h-116l-25 -118h-86l25 118h-116l17 77h116l25 117h86z" />
    <glyph glyph-name="minus.inferior" unicode="&#x208b;" horiz-adv-x="270" 
d="M-42 -46l17 84h192l-17 -84h-192z" />
    <glyph glyph-name="equal.inferior" unicode="&#x208c;" horiz-adv-x="400" 
d="M277 -42l-17 -77h-318l17 77h318zM305 91l-17 -77h-318l17 77h318z" />
    <glyph glyph-name="parenleft.inferior" unicode="&#x208d;" horiz-adv-x="225" 
d="M123 310h87c-87 -136 -139 -259 -139 -387c0 -54 4 -99 25 -171h-85c-32 72 -41 136 -41 196c0 123 48 236 153 362z" />
    <glyph glyph-name="parenright.inferior" unicode="&#x208e;" horiz-adv-x="225" 
d="M-25 -248h-87c87 136 139 259 139 387c0 54 -4 99 -25 171h85c32 -72 41 -136 41 -196c0 -123 -48 -236 -153 -362z" />
    <glyph glyph-name="afii61248" unicode="&#x2105;" horiz-adv-x="834" 
d="M388 576h-100c0 35 -13 60 -42 60c-59 0 -98 -130 -98 -212c0 -55 24 -73 50 -73c27 0 54 23 64 70h98c-22 -86 -77 -148 -165 -148c-101 0 -150 53 -150 164c0 136 70 277 206 277c84 0 137 -39 137 -138zM592 63c63 0 104 124 104 221c0 44 -22 66 -51 66
c-63 0 -104 -124 -104 -221c0 -44 22 -66 51 -66zM583 -14c-92 0 -140 58 -140 156c0 139 69 285 211 285c92 0 140 -58 140 -156c0 -139 -69 -285 -211 -285zM166 -22l414 744h85l-412 -744h-87z" />
    <glyph glyph-name="afii61352" unicode="&#x2116;" horiz-adv-x="1046" 
d="M-4 0l148 700h142l158 -460l97 460h142l-148 -700h-140l-160 461l-97 -461h-142zM946 98l-21 -98h-301l21 98h301zM849 452c89 0 142 -55 142 -136c0 -108 -77 -187 -188 -187c-89 0 -143 55 -143 136c0 109 79 187 189 187zM758 263c0 -40 19 -60 52 -60
c60 0 83 66 83 114c0 41 -20 61 -53 61c-59 0 -82 -67 -82 -115z" />
    <glyph glyph-name="published" unicode="&#x2117;" horiz-adv-x="800" 
d="M345 503v-130h82c45 0 72 24 72 65c0 40 -26 65 -73 65h-81zM260 149v419h162c106 0 160 -43 160 -130c0 -82 -57 -130 -145 -130h-92v-159h-85zM118 358c0 -171 125 -295 282 -295c155 0 282 124 282 295c0 170 -127 293 -282 293c-157 0 -282 -123 -282 -293zM16 358
c0 227 181 373 384 373s384 -146 384 -373c0 -228 -181 -375 -384 -375s-384 147 -384 375z" />
    <glyph glyph-name="uni0374" unicode="&#x374;" horiz-adv-x="278" 
d="M303 732l-102 -171h-101l53 171h150z" />
    <glyph glyph-name="uni0375" unicode="&#x375;" horiz-adv-x="278" 
d="M-76 -203l97 171h101l-48 -171h-150z" />
    <glyph glyph-name="uni037E" unicode="&#x37e;" horiz-adv-x="278" 
d="M-13 0l32 154h158c-36 -144 -28 -314 -225 -321l15 71c59 10 78 39 89 96h-69zM61 354l33 154h158l-33 -154h-158z" />
    <glyph glyph-name="tonos" unicode="&#x384;" horiz-adv-x="241" 
d="M192 589l57 142h152l-109 -142h-100z" />
    <glyph glyph-name="tonos.cap" unicode="&#xe01b;" horiz-adv-x="241" 
d="M192 572l57 142h152l-109 -142h-100z" />
    <glyph glyph-name="dieresistonos" unicode="&#x385;" horiz-adv-x="512" 
d="M160 598l25 117h125l-25 -117h-125zM491 598l25 117h125l-25 -117h-125zM307 589l53 142h152l-105 -142h-100z" />
    <glyph glyph-name="Alphatonos" unicode="&#x386;" horiz-adv-x="762" 
d="M472 560l-154 -284h191l-35 284h-2zM0 0l422 714h161l119 -714h-156l-23 159h-267l-90 -159h-166zM109 572l57 142h152l-109 -142h-100z" />
    <glyph glyph-name="anoteleia" unicode="&#x387;" horiz-adv-x="278" 
d="M325 508l-32 -154h-157l32 154h157z" />
    <glyph glyph-name="Epsilontonos" unicode="&#x388;" horiz-adv-x="825" 
d="M46 572l57 142h152l-109 -142h-100zM154 0l150 714h545l-27 -132h-388l-32 -153h359l-26 -122h-359l-37 -175h394l-28 -132h-551z" />
    <glyph glyph-name="Etatonos" unicode="&#x389;" horiz-adv-x="898" 
d="M46 572l57 142h152l-109 -142h-100zM153 0l151 714h158l-58 -274h289l58 274h158l-151 -714h-158l65 308h-289l-65 -308h-158z" />
    <glyph glyph-name="Iotatonos" unicode="&#x38a;" horiz-adv-x="453" 
d="M46 572l57 142h152l-109 -142h-100zM153 0l151 714h158l-151 -714h-158z" />
    <glyph glyph-name="Omicrontonos" unicode="&#x38c;" horiz-adv-x="936" 
d="M352 299c0 -98 48 -184 162 -184c154 0 231 164 231 299c0 100 -44 185 -159 185c-161 0 -234 -163 -234 -300zM195 299c0 231 149 432 390 432c193 0 317 -106 317 -306c0 -235 -140 -442 -390 -442c-200 0 -317 115 -317 316zM46 572l57 142h152l-109 -142h-100z" />
    <glyph glyph-name="Upsilontonos" unicode="&#x38e;" horiz-adv-x="876" 
d="M46 572l57 142h152l-109 -142h-100zM403 0l57 277l-171 437h161l107 -304l222 304h185l-348 -444l-55 -270h-158z" />
    <glyph glyph-name="Omegatonos" unicode="&#x38f;" horiz-adv-x="942" 
d="M46 572l57 142h152l-109 -142h-100zM593 599c-152 0 -231 -125 -231 -255c0 -90 33 -162 104 -226l-25 -118h-297l27 128h139l-1 5c-64 54 -102 122 -102 218c0 203 159 380 394 380c190 0 315 -122 315 -279c0 -152 -67 -250 -193 -319l1 -5h143l-27 -128h-314l25 118
c135 73 205 189 205 319c0 97 -67 162 -163 162z" />
    <glyph glyph-name="iotadieresistonos" unicode="&#x390;" horiz-adv-x="266" 
d="M-36 598l25 117h125l-25 -117h-125zM295 598l25 117h125l-25 -117h-125zM111 589l53 142h152l-105 -142h-100zM238 517l-82 -380c-1 -7 -2 -13 -2 -18c0 -17 8 -25 26 -25c11 0 21 2 33 5l-19 -91c-36 -16 -63 -21 -96 -21c-64 0 -93 34 -93 85c0 10 1 22 4 35l87 410
h142z" />
    <glyph glyph-name="Alpha" unicode="&#x391;" horiz-adv-x="685" 
d="M395 560l-154 -284h191l-35 284h-2zM-77 0l422 714h161l119 -714h-156l-23 159h-267l-90 -159h-166z" />
    <glyph glyph-name="Beta" unicode="&#x392;" horiz-adv-x="722" 
d="M215 318l-42 -196h197c71 0 123 39 123 115c0 75 -67 81 -124 81h-154zM-4 0l150 714h300c143 0 232 -31 232 -167c0 -81 -50 -156 -134 -166v-2c68 -18 106 -76 106 -145c0 -155 -130 -234 -273 -234h-381zM272 592l-35 -167h178c57 0 106 32 106 94c0 54 -32 73 -83 73
h-166z" />
    <glyph glyph-name="Gamma" unicode="&#x393;" horiz-adv-x="569" 
d="M-4 0l151 714h489l-28 -132h-332l-123 -582h-157z" />
    <glyph glyph-name="Epsilon" unicode="&#x395;" horiz-adv-x="667" 
d="M-4 0l150 714h545l-27 -132h-388l-32 -153h359l-26 -122h-359l-37 -175h394l-28 -132h-551z" />
    <glyph glyph-name="Zeta" unicode="&#x396;" horiz-adv-x="648" 
d="M-43 0l27 130l477 452h-366l29 132h564l-26 -126l-481 -456h403l-26 -132h-601z" />
    <glyph glyph-name="Eta" unicode="&#x397;" 
d="M-4 0l151 714h158l-58 -274h289l58 274h158l-151 -714h-158l65 308h-289l-65 -308h-158z" />
    <glyph glyph-name="Theta" unicode="&#x398;" horiz-adv-x="778" 
d="M264 294l28 132h226l-28 -132h-226zM37 299c0 231 149 432 390 432c193 0 317 -106 317 -306c0 -235 -140 -442 -390 -442c-201 0 -317 113 -317 316zM194 299c0 -98 48 -184 162 -184c154 0 231 163 231 299c0 100 -43 185 -159 185c-161 0 -234 -163 -234 -300z" />
    <glyph glyph-name="Iota" unicode="&#x399;" horiz-adv-x="296" 
d="M-4 0l151 714h158l-151 -714h-158z" />
    <glyph glyph-name="Kappa" unicode="&#x39a;" horiz-adv-x="722" 
d="M-4 0l149 714h157l-62 -299h2l324 299h208l-343 -294l219 -420h-177l-163 321l-109 -95l-47 -226h-158z" />
    <glyph glyph-name="Lambda" unicode="&#x39b;" horiz-adv-x="685" 
d="M469 0l-72 560h-2l-306 -560h-166l422 714h161l119 -714h-156z" />
    <glyph glyph-name="Mu" unicode="&#x39c;" horiz-adv-x="907" 
d="M-4 0l151 714h217l55 -517h2l275 517h219l-151 -714h-147l130 568h-2l-302 -568h-120l-69 568h-2l-107 -568h-149z" />
    <glyph glyph-name="Nu" unicode="&#x39d;" 
d="M-4 0l151 714h162l194 -508h2l102 508h144l-151 -714h-157l-196 501h-2l-102 -501h-147z" />
    <glyph glyph-name="Xi" unicode="&#x39e;" horiz-adv-x="680" 
d="M80 306l28 132h425l-28 -132h-425zM89 582l28 132h523l-28 -132h-523zM-43 0l28 132h541l-28 -132h-541z" />
    <glyph glyph-name="Omicron" unicode="&#x39f;" horiz-adv-x="778" 
d="M194 299c0 -98 48 -184 162 -184c154 0 231 164 231 299c0 100 -44 185 -159 185c-161 0 -234 -163 -234 -300zM37 299c0 231 149 432 390 432c193 0 317 -106 317 -306c0 -235 -140 -442 -390 -442c-200 0 -317 115 -317 316z" />
    <glyph glyph-name="Pi" unicode="&#x3a0;" horiz-adv-x="755" 
d="M-4 0l151 714h617l-151 -714h-158l123 582h-301l-123 -582h-158z" />
    <glyph glyph-name="Rho" unicode="&#x3a1;" horiz-adv-x="667" 
d="M277 592l-44 -214h160c79 0 129 40 129 125c0 72 -56 89 -111 89h-134zM-4 0l149 714h286c144 -1 248 -50 248 -208s-130 -250 -278 -250h-194l-54 -256h-157z" />
    <glyph glyph-name="Sigma" unicode="&#x3a3;" horiz-adv-x="630" 
d="M556 0h-599l27 130l276 240l-167 214l27 130h550l-28 -131h-357l161 -215l-264 -236h402z" />
    <glyph glyph-name="Tau" unicode="&#x3a4;" horiz-adv-x="611" 
d="M156 0l122 582h-224l28 132h596l-28 -132h-214l-122 -582h-158z" />
    <glyph glyph-name="Upsilon" unicode="&#x3a5;" horiz-adv-x="648" 
d="M175 0l57 277l-171 437h161l107 -304l222 304h185l-348 -444l-55 -270h-158z" />
    <glyph glyph-name="Phi" unicode="&#x3a6;" horiz-adv-x="834" 
d="M302 191l79 372c-134 -12 -187 -152 -187 -266c0 -75 37 -104 108 -106zM421 749h157l-15 -70c148 -7 237 -80 237 -219c0 -241 -171 -376 -366 -385l-15 -75h-157l15 75c-149 7 -240 85 -240 223c0 223 168 383 369 381zM538 563l-79 -371c137 10 184 147 184 262
c0 74 -36 107 -105 109z" />
    <glyph glyph-name="Chi" unicode="&#x3a7;" horiz-adv-x="667" 
d="M-70 0l325 376l-167 338h171l101 -236l183 236h186l-297 -345l177 -369h-173l-112 255l-204 -255h-190z" />
    <glyph glyph-name="Psi" unicode="&#x3a8;" horiz-adv-x="809" 
d="M300 271l94 443h159l-94 -442c95 0 144 47 169 167l58 275h158l-59 -277c-40 -190 -135 -282 -351 -283l-32 -154h-159l33 154c-169 7 -239 86 -239 208c0 27 4 56 11 89l57 263h158l-58 -275c-6 -28 -9 -52 -9 -72c0 -67 30 -95 104 -96z" />
    <glyph glyph-name="Iotadieresis" unicode="&#x3aa;" horiz-adv-x="296" 
d="M73 788l24 117h131l-24 -117h-131zM269 788l24 117h131l-24 -117h-131zM-4 0l151 714h158l-151 -714h-158z" />
    <glyph glyph-name="Upsilondieresis" unicode="&#x3ab;" horiz-adv-x="648" 
d="M236 788l24 117h131l-24 -117h-131zM432 788l24 117h131l-24 -117h-131zM175 0l57 277l-171 437h161l107 -304l222 304h185l-348 -444l-55 -270h-158z" />
    <glyph glyph-name="alphatonos" unicode="&#x3ac;" horiz-adv-x="614" 
d="M394 259c4 19 6 37 6 55c0 60 -26 110 -86 110c-126 0 -160 -137 -160 -218c0 -70 40 -113 105 -113c73 0 118 87 135 166zM444 517h142l-80 -381c-1 -6 -2 -11 -2 -16c0 -19 8 -27 23 -27c10 0 22 2 32 5l-19 -91c-30 -14 -60 -21 -90 -21c-49 0 -96 25 -98 80h-2
c-38 -49 -76 -80 -153 -80c-118 0 -185 93 -185 200c0 165 75 345 276 345c62 0 117 -29 139 -82h2zM272 589l57 142h152l-109 -142h-100z" />
    <glyph glyph-name="epsilontonos" unicode="&#x3ad;" horiz-adv-x="520" 
d="M502 364h-142c-1 46 -35 63 -82 63c-57 0 -89 -25 -89 -65c0 -30 24 -48 61 -48h61l-19 -91h-73c-47 0 -84 -25 -84 -69c0 -41 35 -64 89 -64c47 0 96 19 116 86h142c-36 -127 -129 -190 -261 -190c-143 0 -232 45 -232 151c0 69 46 117 123 132l1 3
c-37 18 -61 52 -61 93c0 101 87 166 239 166c131 0 211 -58 211 -167zM242 589l57 142h152l-109 -142h-100z" />
    <glyph glyph-name="etatonos" unicode="&#x3ae;" horiz-adv-x="601" 
d="M-12 0l108 517h136l-16 -72h2c46 57 107 86 181 86c98 0 151 -49 151 -139c0 -21 -11 -71 -15 -89l-103 -485h-142l102 485c6 27 9 45 9 58c0 34 -30 58 -68 58c-86 0 -130 -72 -145 -144l-58 -275h-142zM297 589l57 142h152l-109 -142h-100z" />
    <glyph glyph-name="iotatonos" unicode="&#x3af;" horiz-adv-x="266" 
d="M238 517l-82 -380c-1 -7 -2 -13 -2 -18c0 -17 8 -25 26 -25c11 0 21 2 33 5l-19 -91c-36 -16 -63 -21 -96 -21c-64 0 -93 34 -93 85c0 10 1 22 4 35l87 410h142zM117 589l57 142h152l-109 -142h-100z" />
    <glyph glyph-name="upsilondieresistonos" unicode="&#x3b0;" horiz-adv-x="577" 
d="M92 517h143l-70 -323c-3 -14 -5 -26 -5 -37c0 -43 22 -64 69 -64c81 0 161 85 161 281c0 48 -7 99 -23 143h145c15 -40 20 -85 20 -128c0 -236 -98 -403 -314 -403c-143 0 -200 65 -200 158c0 16 2 34 6 53zM85 598l25 117h125l-25 -117h-125zM416 598l25 117h125
l-25 -117h-125zM232 589l53 142h152l-105 -142h-100z" />
    <glyph glyph-name="alpha" unicode="&#x3b1;" horiz-adv-x="614" 
d="M394 259c4 19 6 37 6 55c0 60 -26 110 -86 110c-126 0 -160 -137 -160 -218c0 -70 40 -113 105 -113c73 0 118 87 135 166zM444 517h142l-80 -381c-1 -6 -2 -11 -2 -16c0 -19 8 -27 23 -27c10 0 22 2 32 5l-19 -91c-30 -14 -60 -21 -90 -21c-49 0 -96 25 -98 80h-2
c-38 -49 -76 -80 -153 -80c-118 0 -185 93 -185 200c0 165 75 345 276 345c62 0 117 -29 139 -82h2z" />
    <glyph glyph-name="beta" unicode="&#x3b2;" horiz-adv-x="596" 
d="M430 420v-2c78 -15 113 -74 113 -144c0 -154 -99 -288 -255 -288c-78 0 -124 44 -140 83h-3l-54 -251h-143l143 672c34 161 97 230 265 230c132 0 205 -57 205 -158c0 -75 -45 -131 -131 -142zM326 351h-54l19 90h26c51 0 98 32 98 109c0 37 -22 61 -67 61
c-65 0 -99 -35 -120 -133l-43 -204c-4 -20 -7 -38 -7 -55c0 -87 38 -126 90 -126c61 0 134 47 134 183c0 54 -27 75 -76 75z" />
    <glyph glyph-name="gamma" unicode="&#x3b3;" horiz-adv-x="495" 
d="M363 517h150c-85 -236 -217 -414 -307 -520c-13 -59 -24 -119 -37 -179h-143l30 141c33 155 8 427 -36 558h147c29 -74 36 -253 24 -358h5c60 82 121 220 167 358z" />
    <glyph glyph-name="delta" unicode="&#x3b4;" horiz-adv-x="592" 
d="M243 -14c-122 0 -233 77 -233 218c0 135 96 243 233 275c-55 36 -72 71 -72 104c0 71 58 137 226 137c49 0 121 -8 169 -33l-22 -102c-56 29 -128 31 -169 31c-32 0 -58 -5 -58 -24c0 -20 36 -43 74 -70c74 -53 151 -126 151 -233c0 -160 -105 -303 -299 -303zM316 426
c-106 -18 -163 -118 -163 -219c0 -68 34 -114 98 -114c79 0 149 71 149 197c0 52 -25 96 -84 136z" />
    <glyph glyph-name="epsilon" unicode="&#x3b5;" horiz-adv-x="520" 
d="M502 364h-142c-1 46 -35 63 -82 63c-57 0 -89 -25 -89 -65c0 -30 24 -48 61 -48h61l-19 -91h-73c-47 0 -84 -25 -84 -69c0 -41 35 -64 89 -64c47 0 96 19 116 86h142c-36 -127 -129 -190 -261 -190c-143 0 -232 45 -232 151c0 69 46 117 123 132l1 3
c-37 18 -61 52 -61 93c0 101 87 166 239 166c131 0 211 -58 211 -167z" />
    <glyph glyph-name="zeta" unicode="&#x3b6;" horiz-adv-x="489" 
d="M256 -66c2 11 4 22 4 32c0 19 -8 34 -33 34h-32c-122 0 -182 72 -182 184c0 182 111 341 320 423h-198l23 107h393l-22 -105c-192 -75 -374 -192 -374 -402c0 -65 32 -100 103 -100h24c83 0 113 -40 113 -97c0 -40 -15 -104 -45 -164h-124c16 36 27 70 30 88z" />
    <glyph glyph-name="eta" unicode="&#x3b7;" horiz-adv-x="601" 
d="M-12 0l108 517h136l-16 -72h2c46 57 107 86 181 86c98 0 151 -49 151 -139c0 -21 -11 -71 -15 -89l-103 -485h-142l102 485c6 27 9 45 9 58c0 34 -30 58 -68 58c-86 0 -130 -72 -145 -144l-58 -275h-142z" />
    <glyph glyph-name="theta" unicode="&#x3b8;" horiz-adv-x="583" 
d="M557 514c0 -47 -3 -100 -15 -159c-47 -227 -121 -369 -330 -369c-140 3 -188 100 -188 212c0 47 3 100 15 157c46 216 122 365 317 365c138 0 201 -88 201 -206zM234 94c79 0 116 50 152 215h-212c-11 -53 -17 -94 -17 -126c0 -66 25 -89 77 -89zM198 416h210
c9 41 13 75 13 103c0 65 -24 94 -76 94c-79 0 -120 -64 -147 -197z" />
    <glyph glyph-name="iota" unicode="&#x3b9;" horiz-adv-x="266" 
d="M238 517l-82 -380c-1 -7 -2 -13 -2 -18c0 -17 8 -25 26 -25c11 0 21 2 33 5l-19 -91c-36 -16 -63 -21 -96 -21c-64 0 -93 34 -93 85c0 10 1 22 4 35l87 410h142z" />
    <glyph glyph-name="kappa" unicode="&#x3ba;" horiz-adv-x="556" 
d="M-12 0l108 517h142l-44 -205h3l207 205h175l-235 -208l136 -309h-156l-88 219l-74 -63l-32 -156h-142z" />
    <glyph glyph-name="lambda" unicode="&#x3bb;" horiz-adv-x="546" 
d="M489 93c11 0 20 1 33 5l-19 -91c-29 -14 -59 -20 -84 -20c-63 0 -84 25 -89 72l-33 270h-3l-192 -329h-146l308 478l-18 96c-6 30 -31 38 -60 38c-15 0 -31 0 -50 -5l22 102c32 9 65 11 93 11c93 0 109 -36 129 -138l82 -464c3 -21 15 -25 27 -25z" />
    <glyph glyph-name="nu" unicode="&#x3bd;" horiz-adv-x="530" 
d="M391 517h150c-65 -178 -165 -360 -287 -517h-162l-64 517h145l36 -364h3c72 104 136 233 179 364z" />
    <glyph glyph-name="xi" unicode="&#x3be;" horiz-adv-x="476" 
d="M272 107h20c83 0 112 -36 112 -95c0 -42 -15 -105 -45 -166h-124c29 65 35 101 35 120c0 23 -12 34 -52 34h-18c-135 0 -187 70 -187 172c0 111 66 183 190 209v1c-70 13 -100 71 -100 129c0 149 129 209 281 209c50 0 104 -9 154 -33l-23 -103c-44 22 -97 31 -138 31
c-71 0 -130 -35 -130 -106c0 -59 26 -84 114 -84h88l-22 -102h-91c-111 0 -174 -34 -174 -126c0 -56 31 -90 110 -90z" />
    <glyph glyph-name="omicron" unicode="&#x3bf;" horiz-adv-x="599" 
d="M13 209c0 175 113 322 297 322c142 0 241 -70 241 -219c0 -182 -113 -326 -301 -326c-144 0 -237 75 -237 223zM155 209c0 -61 35 -116 102 -116c106 0 152 130 152 217c0 69 -30 114 -104 114c-104 0 -150 -128 -150 -215z" />
    <glyph glyph-name="rho" unicode="&#x3c1;" horiz-adv-x="604" 
d="M-56 -182l93 439c37 175 125 274 305 274c149 0 214 -93 214 -203c0 -162 -87 -341 -278 -341c-49 0 -114 28 -135 82h-3l-54 -251h-142zM268 93c103 0 146 136 146 225c0 63 -29 106 -90 106c-87 0 -155 -81 -155 -216c0 -67 34 -115 99 -115z" />
    <glyph glyph-name="sigma1" unicode="&#x3c2;" horiz-adv-x="559" 
d="M258 107h38c83 0 113 -37 113 -96c0 -41 -15 -105 -45 -165h-124c28 63 34 97 34 120c0 19 -8 34 -33 34h-43c-123 0 -185 69 -185 191c0 182 99 340 323 340c111 0 204 -55 205 -173h-142c-6 48 -38 66 -79 66c-114 0 -165 -108 -165 -212c0 -84 44 -105 103 -105z" />
    <glyph glyph-name="sigma" unicode="&#x3c3;" horiz-adv-x="625" 
d="M13 197c0 208 150 320 344 320h278l-22 -107h-129c38 -18 59 -66 59 -115c0 -132 -89 -308 -305 -308c-140 0 -225 93 -225 210zM340 410c-119 0 -184 -80 -184 -213c0 -71 34 -104 89 -104c94 0 157 88 157 202c0 36 -10 97 -30 115h-32z" />
    <glyph glyph-name="tau" unicode="&#x3c4;" horiz-adv-x="521" 
d="M324 410l-58 -272c-1 -6 -2 -10 -2 -15c0 -23 18 -29 39 -29c15 0 30 2 42 5l-20 -91c-35 -15 -74 -21 -107 -21c-69 0 -104 26 -104 81c0 11 1 22 4 35l64 307h-164l23 108h490l-23 -108h-184z" />
    <glyph glyph-name="upsilon" unicode="&#x3c5;" horiz-adv-x="577" 
d="M92 517h143l-70 -323c-3 -14 -5 -26 -5 -37c0 -43 22 -64 69 -64c81 0 161 85 161 281c0 48 -7 99 -23 143h145c15 -40 20 -85 20 -128c0 -236 -98 -403 -314 -403c-143 0 -200 65 -200 158c0 16 2 34 6 53z" />
    <glyph glyph-name="phi" unicode="&#x3c6;" horiz-adv-x="759" 
d="M468 426l-70 -331c120 6 171 125 171 227c0 66 -32 104 -101 104zM518 660l-28 -129c139 -4 221 -86 221 -208c0 -195 -148 -328 -334 -336l-36 -169h-142l36 169c-134 2 -222 80 -222 210c0 200 151 328 337 334l28 129h140zM257 93l71 331c-97 0 -172 -90 -172 -227
c0 -72 37 -104 101 -104z" />
    <glyph glyph-name="chi" unicode="&#x3c7;" horiz-adv-x="511" 
d="M299 198l115 -380h-150l-53 274l-174 -274h-161l276 375l-110 324h153l50 -212l139 212h159z" />
    <glyph glyph-name="psi" unicode="&#x3c8;" horiz-adv-x="716" 
d="M515 517h144c9 -31 12 -67 12 -105c0 -250 -91 -425 -330 -425l-36 -169h-142l36 169c-136 4 -192 78 -192 182c0 26 4 55 11 86l57 262h142l-58 -268c-5 -25 -11 -51 -11 -73c0 -46 13 -81 73 -84l121 567h142l-121 -567c104 3 166 127 166 303c0 44 -4 86 -14 122z" />
    <glyph glyph-name="omega" unicode="&#x3c9;" horiz-adv-x="770" 
d="M285 200l37 172h141l-37 -173c-5 -23 -8 -43 -8 -58c0 -37 17 -49 51 -49c66 0 114 90 114 247c0 61 -15 119 -46 178h148c28 -54 40 -120 40 -178c0 -207 -82 -353 -267 -353c-67 0 -108 24 -123 88c-32 -61 -86 -88 -147 -88c-118 0 -178 56 -178 180
c0 97 36 231 157 351h149c-125 -118 -164 -269 -164 -351c0 -44 18 -74 53 -74c43 0 64 34 80 108z" />
    <glyph glyph-name="iotadieresis" unicode="&#x3ca;" horiz-adv-x="266" 
d="M238 517l-82 -380c-1 -7 -2 -13 -2 -18c0 -17 8 -25 26 -25c11 0 21 2 33 5l-19 -91c-36 -16 -63 -21 -96 -21c-64 0 -93 34 -93 85c0 10 1 22 4 35l87 410h142zM18 598l24 117h131l-24 -117h-131zM214 598l24 117h131l-24 -117h-131z" />
    <glyph glyph-name="upsilondieresis" unicode="&#x3cb;" horiz-adv-x="577" 
d="M92 517h143l-70 -323c-3 -14 -5 -26 -5 -37c0 -43 22 -64 69 -64c81 0 161 85 161 281c0 48 -7 99 -23 143h145c15 -40 20 -85 20 -128c0 -236 -98 -403 -314 -403c-143 0 -200 65 -200 158c0 16 2 34 6 53zM148 598l24 117h131l-24 -117h-131zM344 598l24 117h131
l-24 -117h-131z" />
    <glyph glyph-name="omicrontonos" unicode="&#x3cc;" horiz-adv-x="599" 
d="M278 589l57 142h152l-109 -142h-100zM13 209c0 175 113 322 297 322c142 0 241 -70 241 -219c0 -182 -113 -326 -301 -326c-144 0 -237 75 -237 223zM155 209c0 -61 35 -116 102 -116c106 0 152 130 152 217c0 69 -30 114 -104 114c-104 0 -150 -128 -150 -215z" />
    <glyph glyph-name="upsilontonos" unicode="&#x3cd;" horiz-adv-x="577" 
d="M92 517h143l-70 -323c-3 -14 -5 -26 -5 -37c0 -43 22 -64 69 -64c81 0 161 85 161 281c0 48 -7 99 -23 143h145c15 -40 20 -85 20 -128c0 -236 -98 -403 -314 -403c-143 0 -200 65 -200 158c0 16 2 34 6 53zM254 589l57 142h152l-109 -142h-100z" />
    <glyph glyph-name="omegatonos" unicode="&#x3ce;" horiz-adv-x="770" 
d="M285 200l37 172h141l-37 -173c-5 -23 -8 -43 -8 -58c0 -37 17 -49 51 -49c66 0 114 90 114 247c0 61 -15 119 -46 178h148c28 -54 40 -120 40 -178c0 -207 -82 -353 -267 -353c-67 0 -108 24 -123 88c-32 -61 -86 -88 -147 -88c-118 0 -178 56 -178 180
c0 97 36 231 157 351h149c-125 -118 -164 -269 -164 -351c0 -44 18 -74 53 -74c43 0 64 34 80 108zM377 589l57 142h152l-109 -142h-100z" />
    <glyph glyph-name="uni0400" unicode="&#x400;" horiz-adv-x="667" 
d="M399 921l78 -142h-100l-130 142h152zM-4 0l150 714h545l-27 -132h-388l-32 -153h359l-26 -122h-359l-37 -175h394l-28 -132h-551z" />
    <glyph glyph-name="afii10023" unicode="&#x401;" horiz-adv-x="667" 
d="M-4 0l150 714h545l-27 -132h-388l-32 -153h359l-26 -122h-359l-37 -175h394l-28 -132h-551zM254 788l24 117h131l-24 -117h-131zM450 788l24 117h131l-24 -117h-131z" />
    <glyph glyph-name="afii10051" unicode="&#x402;" horiz-adv-x="778" 
d="M275 0h-158l122 582h-185l28 132h576l-28 -132h-233l-46 -218c49 53 110 78 176 78c117 0 195 -78 195 -215c0 -201 -123 -372 -340 -372h-31l26 126c117 1 185 104 185 237c0 67 -35 103 -96 103c-77 0 -136 -59 -157 -159z" />
    <glyph glyph-name="afii10052" unicode="&#x403;" horiz-adv-x="569" 
d="M-4 0l151 714h489l-28 -132h-332l-123 -582h-157zM555 921l-140 -142h-100l88 142h152z" />
    <glyph glyph-name="afii10053" unicode="&#x404;" 
d="M474 429l-26 -122h-257c0 -116 56 -194 163 -194c86 0 148 44 172 134h156c-42 -168 -161 -264 -335 -264c-195 0 -310 116 -310 314c0 232 143 434 389 434c169 0 285 -94 288 -238h-153c-10 68 -56 108 -133 108c-109 0 -184 -75 -214 -172h260z" />
    <glyph glyph-name="afii10054" unicode="&#x405;" horiz-adv-x="648" 
d="M5 237h149c-5 -101 64 -132 154 -132c63 0 136 30 136 101c0 70 -92 84 -181 111c-90 28 -180 69 -180 192c0 159 145 222 283 222c146 0 268 -65 268 -230h-149c3 80 -55 108 -128 108c-60 0 -125 -23 -125 -89c0 -71 121 -89 170 -101c112 -29 191 -72 191 -200
c0 -171 -155 -236 -291 -236c-197 0 -297 82 -297 254z" />
    <glyph glyph-name="afii10055" unicode="&#x406;" horiz-adv-x="296" 
d="M-4 0l151 714h158l-151 -714h-158z" />
    <glyph glyph-name="afii10056" unicode="&#x407;" horiz-adv-x="296" 
d="M-4 0l151 714h158l-151 -714h-158zM73 788l24 117h131l-24 -117h-131zM269 788l24 117h131l-24 -117h-131z" />
    <glyph glyph-name="afii10057" unicode="&#x408;" horiz-adv-x="556" 
d="M565 714l-106 -511c-32 -140 -106 -220 -261 -220c-112 0 -217 48 -217 173c0 38 7 73 13 110h143c-7 -31 -14 -61 -14 -84c0 -44 37 -67 77 -67c81 0 92 57 108 122l99 477h158z" />
    <glyph glyph-name="afii10058" unicode="&#x409;" horiz-adv-x="1065" 
d="M412 0l123 582h-174l-81 -333c-46 -191 -128 -266 -255 -266c-28 0 -55 5 -82 14l25 121c20 -6 35 -8 49 -8c42 0 78 18 113 164l105 440h486l-57 -271h119c157 0 232 -78 232 -192c0 -141 -88 -251 -264 -251h-339zM861 235c0 51 -37 80 -104 80h-120l-41 -187h144
c67 0 121 33 121 107z" />
    <glyph glyph-name="afii10059" unicode="&#x40a;" horiz-adv-x="1065" 
d="M-4 0l151 714h158l-57 -271h258l57 271h158l-57 -271h119c157 0 232 -78 232 -192c0 -141 -88 -251 -264 -251h-339l67 315h-259l-66 -315h-158zM861 235c0 51 -37 80 -104 80h-120l-41 -187h144c67 0 121 33 121 107z" />
    <glyph glyph-name="afii10060" unicode="&#x40b;" horiz-adv-x="782" 
d="M658 0h-158l42 201c3 16 6 33 6 47c0 51 -28 70 -91 70c-33 0 -75 -7 -118 -16l-64 -302h-158l122 582h-185l28 132h576l-28 -132h-233l-32 -154c61 14 104 20 146 20c130 0 198 -56 198 -164c0 -26 -4 -54 -10 -85z" />
    <glyph glyph-name="afii10061" unicode="&#x40c;" horiz-adv-x="722" 
d="M-4 0l149 714h157l-62 -299h2l324 299h208l-343 -294l219 -420h-177l-163 321l-109 -95l-47 -226h-158zM601 921l-140 -142h-100l88 142h152z" />
    <glyph glyph-name="uni040D" unicode="&#x40d;" 
d="M752 714l-151 -714h-158l101 476h-3l-364 -476h-181l151 714h158l-100 -475h3l362 475h182zM433 921l78 -142h-100l-130 142h152z" />
    <glyph glyph-name="afii10062" unicode="&#x40e;" horiz-adv-x="656" 
d="M19 2l28 123c26 -9 54 -15 75 -15c61 0 100 46 100 86c0 17 -5 39 -12 61l-138 457h165l98 -371l215 371h180l-372 -593c-64 -102 -131 -138 -227 -138c-35 0 -76 7 -112 19zM248 921h65c4 -46 43 -67 94 -67c60 0 90 25 114 67h66c-27 -90 -88 -142 -189 -142
c-92 0 -150 56 -150 142z" />
    <glyph glyph-name="afii10145" unicode="&#x40f;" 
d="M-4 0l151 714h158l-124 -582h290l123 582h158l-151 -714h-226l-37 -183h-153l37 183h-226z" />
    <glyph glyph-name="afii10017" unicode="&#x410;" horiz-adv-x="685" 
d="M395 560l-154 -284h191l-35 284h-2zM-77 0l422 714h161l119 -714h-156l-23 159h-267l-90 -159h-166z" />
    <glyph glyph-name="afii10018" unicode="&#x411;" horiz-adv-x="704" 
d="M276 582l-26 -124h152c162 0 239 -78 239 -200c0 -149 -93 -258 -274 -258h-371l151 714h516l-28 -132h-359zM484 242c0 60 -39 88 -114 88h-146l-44 -202h171c75 0 133 32 133 114z" />
    <glyph glyph-name="afii10019" unicode="&#x412;" horiz-adv-x="722" 
d="M215 318l-42 -196h197c71 0 123 39 123 115c0 75 -67 81 -124 81h-154zM-4 0l150 714h300c143 0 232 -31 232 -167c0 -81 -50 -156 -134 -166v-2c68 -18 106 -76 106 -145c0 -155 -130 -234 -273 -234h-381zM272 592l-35 -167h178c57 0 106 32 106 94c0 54 -32 73 -83 73
h-166z" />
    <glyph glyph-name="afii10020" unicode="&#x413;" horiz-adv-x="569" 
d="M-4 0l151 714h489l-28 -132h-332l-123 -582h-157z" />
    <glyph glyph-name="afii10021" unicode="&#x414;" horiz-adv-x="770" 
d="M95 0l-37 -183h-153l64 315h57c109 116 168 246 203 415l35 167h501l-123 -582h77l-64 -315h-153l38 183h-445zM209 132h275l95 450h-188l-13 -60c-36 -166 -87 -286 -169 -390z" />
    <glyph glyph-name="afii10022" unicode="&#x415;" horiz-adv-x="667" 
d="M-4 0l150 714h545l-27 -132h-388l-32 -153h359l-26 -122h-359l-37 -175h394l-28 -132h-551z" />
    <glyph glyph-name="afii10024" unicode="&#x416;" horiz-adv-x="1059" 
d="M371 309l-253 -309h-197l367 429l-193 285h182l191 -296l62 296h156l-61 -287l299 287h198l-323 -298l193 -416h-178l-130 308l-103 -92l-46 -216h-156l48 225z" />
    <glyph glyph-name="afii10025" unicode="&#x417;" horiz-adv-x="648" 
d="M616 541c0 -70 -41 -128 -128 -156c73 -17 113 -67 113 -143c0 -165 -141 -259 -315 -259c-166 0 -286 64 -286 234v17h153v-10c0 -80 49 -121 138 -121c85 0 152 47 152 132c0 66 -58 84 -121 84h-58l23 105h48c75 0 133 29 133 99c0 48 -38 87 -106 87
c-75 0 -129 -34 -146 -107h-148c26 157 148 228 301 228c176 0 247 -91 247 -190z" />
    <glyph glyph-name="afii10026" unicode="&#x418;" 
d="M752 714l-151 -714h-158l101 476h-3l-364 -476h-181l151 714h158l-100 -475h3l362 475h182z" />
    <glyph glyph-name="afii10027" unicode="&#x419;" 
d="M752 714l-151 -714h-158l101 476h-3l-364 -476h-181l151 714h158l-100 -475h3l362 475h182zM307 921h65c4 -46 43 -67 94 -67c60 0 90 25 114 67h66c-27 -90 -88 -142 -189 -142c-92 0 -150 56 -150 142z" />
    <glyph glyph-name="afii10028" unicode="&#x41a;" horiz-adv-x="722" 
d="M-4 0l149 714h157l-62 -299h2l324 299h208l-343 -294l219 -420h-177l-163 321l-109 -95l-47 -226h-158z" />
    <glyph glyph-name="afii10029" unicode="&#x41b;" horiz-adv-x="722" 
d="M733 714l-151 -714h-158l123 582h-186l-81 -333c-46 -191 -128 -266 -255 -266c-28 0 -55 5 -82 14l25 121c20 -6 35 -8 49 -8c42 0 78 18 113 164l105 440h498z" />
    <glyph glyph-name="afii10030" unicode="&#x41c;" horiz-adv-x="907" 
d="M-4 0l151 714h217l55 -517h2l275 517h219l-151 -714h-147l130 568h-2l-302 -568h-120l-69 568h-2l-107 -568h-149z" />
    <glyph glyph-name="afii10031" unicode="&#x41d;" 
d="M-4 0l151 714h158l-58 -274h289l58 274h158l-151 -714h-158l65 308h-289l-65 -308h-158z" />
    <glyph glyph-name="afii10032" unicode="&#x41e;" horiz-adv-x="778" 
d="M194 299c0 -98 48 -184 162 -184c154 0 231 164 231 299c0 100 -44 185 -159 185c-161 0 -234 -163 -234 -300zM37 299c0 231 149 432 390 432c193 0 317 -106 317 -306c0 -235 -140 -442 -390 -442c-200 0 -317 115 -317 316z" />
    <glyph glyph-name="afii10033" unicode="&#x41f;" 
d="M752 714l-151 -714h-158l124 582h-290l-123 -582h-158l151 714h605z" />
    <glyph glyph-name="afii10034" unicode="&#x420;" horiz-adv-x="667" 
d="M277 592l-44 -214h160c79 0 129 40 129 125c0 72 -56 89 -111 89h-134zM-4 0l149 714h286c144 -1 248 -50 248 -208s-130 -250 -278 -250h-194l-54 -256h-157z" />
    <glyph glyph-name="afii10035" unicode="&#x421;" 
d="M713 466h-157c0 88 -53 133 -128 133c-161 0 -234 -163 -234 -300c0 -98 48 -184 162 -184c87 0 154 67 168 142h157c-64 -199 -172 -274 -327 -274c-200 0 -317 115 -317 316c0 231 149 432 390 432c165 0 290 -91 286 -265z" />
    <glyph glyph-name="afii10036" unicode="&#x422;" horiz-adv-x="611" 
d="M156 0l122 582h-224l28 132h596l-28 -132h-214l-122 -582h-158z" />
    <glyph glyph-name="afii10037" unicode="&#x423;" horiz-adv-x="656" 
d="M19 2l28 123c26 -9 54 -15 75 -15c61 0 100 46 100 86c0 17 -5 39 -12 61l-138 457h165l98 -371l215 371h180l-372 -593c-64 -102 -131 -138 -227 -138c-35 0 -76 7 -112 19z" />
    <glyph glyph-name="afii10038" unicode="&#x424;" horiz-adv-x="848" 
d="M820 408c0 -218 -175 -329 -376 -331l-16 -77h-156l17 78c-158 11 -256 96 -256 234c0 218 173 329 375 331l15 71h156l-15 -72c157 -11 256 -96 256 -234zM669 397c0 78 -46 125 -129 132l-71 -335c116 1 200 76 200 203zM383 526c-117 -1 -199 -76 -199 -203
c0 -78 45 -125 129 -132z" />
    <glyph glyph-name="afii10039" unicode="&#x425;" horiz-adv-x="667" 
d="M-70 0l325 376l-167 338h171l101 -236l183 236h186l-297 -345l177 -369h-173l-112 255l-204 -255h-190z" />
    <glyph glyph-name="afii10040" unicode="&#x426;" horiz-adv-x="757" 
d="M-4 0l151 714h158l-124 -582h290l123 582h158l-123 -582h77l-64 -315h-153l38 183h-531z" />
    <glyph glyph-name="afii10041" unicode="&#x427;" horiz-adv-x="670" 
d="M284 274c-132 0 -218 61 -218 183c0 24 4 51 10 81l37 176h158l-41 -193c-4 -18 -6 -34 -6 -47c0 -50 29 -69 92 -69c40 0 79 5 145 17l62 292h158l-152 -714h-158l63 294c-67 -13 -108 -20 -150 -20z" />
    <glyph glyph-name="afii10042" unicode="&#x428;" horiz-adv-x="1076" 
d="M-4 0l151 714h158l-124 -582h234l123 582h158l-123 -582h233l123 582h158l-151 -714h-940z" />
    <glyph glyph-name="afii10043" unicode="&#x429;" horiz-adv-x="1092" 
d="M-4 0l151 714h158l-124 -582h234l123 582h158l-123 -582h233l123 582h158l-123 -582h77l-64 -315h-153l38 183h-866z" />
    <glyph glyph-name="afii10044" unicode="&#x42a;" horiz-adv-x="813" 
d="M760 258c0 -149 -93 -258 -274 -258h-351l123 582h-204l28 132h362l-55 -256h132c162 0 239 -78 239 -200zM603 242c0 60 -39 88 -114 88h-126l-44 -202h151c75 0 133 32 133 114z" />
    <glyph glyph-name="afii10045" unicode="&#x42b;" horiz-adv-x="913" 
d="M615 0l151 714h158l-151 -714h-158zM590 258c0 -149 -93 -258 -274 -258h-320l151 714h158l-55 -256h101c162 0 239 -78 239 -200zM433 242c0 60 -39 88 -114 88h-95l-44 -202h120c75 0 133 32 133 114z" />
    <glyph glyph-name="afii10046" unicode="&#x42c;" horiz-adv-x="674" 
d="M621 258c0 -149 -93 -258 -274 -258h-351l151 714h158l-55 -256h132c162 0 239 -78 239 -200zM464 242c0 60 -39 88 -114 88h-126l-44 -202h151c75 0 133 32 133 114z" />
    <glyph glyph-name="afii10047" unicode="&#x42d;" 
d="M704 421c0 -239 -138 -438 -380 -438c-162 0 -292 98 -292 264h153c8 -87 62 -134 149 -134c110 0 180 91 200 194h-262l26 122h251c-3 112 -61 172 -157 172c-76 0 -134 -40 -165 -108h-155c43 148 166 238 329 238c187 0 303 -114 303 -310z" />
    <glyph glyph-name="afii10048" unicode="&#x42e;" horiz-adv-x="1018" 
d="M695 603c-149 0 -211 -195 -211 -326c0 -107 46 -166 131 -166c154 0 212 202 212 328c0 103 -44 164 -132 164zM707 731c183 0 277 -117 277 -288c0 -239 -124 -460 -387 -460c-169 0 -267 112 -267 293c0 10 1 26 1 36h-111l-66 -312h-158l151 714h158l-59 -280h106
c57 179 171 297 355 297z" />
    <glyph glyph-name="afii10049" unicode="&#x42f;" horiz-adv-x="712" 
d="M373 279l-247 -279h-196l276 294c-68 25 -122 80 -122 176c0 136 92 244 264 244h375l-151 -714h-156l59 279h-102zM499 391l44 201h-183c-75 0 -120 -45 -120 -113c0 -65 48 -88 114 -88h145z" />
    <glyph glyph-name="afii10065" unicode="&#x430;" horiz-adv-x="574" 
d="M346 198l14 50c-24 -14 -49 -19 -106 -24c-70 -6 -119 -20 -119 -85c0 -39 37 -58 78 -58c88 0 117 61 133 117zM60 360c18 130 128 171 245 171c93 0 215 -20 215 -136c0 -22 -4 -55 -11 -87l-46 -208c-4 -18 -7 -50 -7 -70c0 -9 2 -21 5 -30h-142v51
c-39 -44 -100 -65 -158 -65c-113 0 -168 64 -168 136c0 99 76 164 207 177l69 7c81 8 119 16 119 67s-54 63 -90 63c-51 0 -96 -24 -105 -76h-133z" />
    <glyph glyph-name="afii10066" unicode="&#x431;" horiz-adv-x="599" 
d="M154 209c0 -68 35 -116 102 -116c96 0 152 109 152 211c0 59 -27 106 -92 106c-105 0 -162 -101 -162 -201zM550 306c0 -180 -115 -320 -301 -320c-142 0 -234 77 -234 233c0 182 82 410 279 445l100 18c49 9 61 13 67 32h134c-15 -79 -59 -115 -146 -129l-107 -17
c-91 -14 -151 -63 -186 -162h3c56 72 120 105 198 105c125 0 193 -88 193 -205z" />
    <glyph glyph-name="afii10067" unicode="&#x432;" horiz-adv-x="575" 
d="M100 517h254c123 0 175 -43 175 -123c0 -59 -37 -106 -100 -121v-2c48 -16 80 -50 80 -102c0 -107 -76 -169 -212 -169h-306zM218 423l-23 -109h113c60 0 84 18 84 63c0 30 -22 46 -62 46h-112zM176 224l-27 -128h131c51 0 87 21 87 72c0 38 -23 56 -71 56h-120z" />
    <glyph glyph-name="afii10068" unicode="&#x433;" horiz-adv-x="456" 
d="M461 410h-242l-86 -410h-142l109 517h384z" />
    <glyph glyph-name="afii10069" unicode="&#x434;" horiz-adv-x="620" 
d="M371 -152l32 152h-331l-32 -152h-136l55 259h62c55 72 107 198 133 320l19 90h411l-87 -410h65l-55 -259h-136zM356 107l64 303h-135l-3 -13c-25 -109 -67 -219 -115 -290h189z" />
    <glyph glyph-name="afii10070" unicode="&#x435;" horiz-adv-x="580" 
d="M531 224h-381c-1 -13 -1 -22 -1 -30c0 -60 37 -101 114 -101c57 0 85 38 106 71h142c-45 -116 -119 -178 -268 -178c-138 0 -230 79 -230 226c0 165 109 319 285 319c144 0 241 -76 241 -226c0 -28 -3 -56 -8 -81zM165 314h237c0 53 -13 110 -96 110
c-80 0 -120 -52 -141 -110z" />
    <glyph glyph-name="afii10072" unicode="&#x436;" horiz-adv-x="797" 
d="M829 517l-226 -205l126 -312h-153l-76 219l-77 -70l-31 -149h-139l33 154l-41 63l-161 -217h-173l264 322l-130 195h153l121 -204l43 204h139l-42 -193l194 193h176z" />
    <glyph glyph-name="afii10073" unicode="&#x437;" horiz-adv-x="516" 
d="M320 166c0 42 -34 58 -81 58h-54l20 90h39c51 0 97 20 97 68c0 30 -24 53 -74 53c-51 0 -93 -16 -105 -69h-132c19 116 117 165 245 165c138 0 201 -61 201 -143c0 -57 -43 -97 -102 -110v-2c50 -12 87 -50 87 -105c0 -118 -106 -185 -253 -185c-143 0 -224 63 -224 182
h132c1 -53 37 -85 103 -85c62 0 101 30 101 83z" />
    <glyph glyph-name="afii10074" unicode="&#x438;" horiz-adv-x="608" 
d="M473 0h-137l72 343l-249 -343h-168l109 517h137l-72 -343l249 343h168z" />
    <glyph glyph-name="afii10075" unicode="&#x439;" horiz-adv-x="608" 
d="M473 0h-137l72 343l-249 -343h-168l109 517h137l-72 -343l249 343h168zM200 731h65c4 -46 43 -67 94 -67c60 0 90 25 114 67h66c-27 -90 -88 -142 -189 -142c-92 0 -150 56 -150 142z" />
    <glyph glyph-name="afii10076" unicode="&#x43a;" horiz-adv-x="559" 
d="M-9 0l108 517h142l-44 -205h3l207 205h175l-235 -208l136 -309h-156l-88 219l-74 -63l-32 -156h-142z" />
    <glyph glyph-name="afii10077" unicode="&#x43b;" horiz-adv-x="607" 
d="M472 0h-142l87 410h-144l-49 -198c-30 -123 -72 -226 -212 -226c-20 0 -52 4 -74 10l24 111c12 -3 30 -5 42 -5c40 0 60 24 85 130l68 285h424z" />
    <glyph glyph-name="afii10078" unicode="&#x43c;" horiz-adv-x="738" 
d="M603 0h-135l82 389h-3l-184 -389h-134l-18 389h-3l-82 -389h-135l109 517h205l16 -373h4l179 373h208z" />
    <glyph glyph-name="afii10079" unicode="&#x43d;" horiz-adv-x="608" 
d="M473 0h-142l46 217h-199l-45 -217h-142l109 517h142l-41 -188h199l40 188h142z" />
    <glyph glyph-name="afii10080" unicode="&#x43e;" horiz-adv-x="599" 
d="M13 209c0 175 113 322 297 322c142 0 241 -70 241 -219c0 -182 -113 -326 -301 -326c-144 0 -237 75 -237 223zM155 209c0 -61 35 -116 102 -116c106 0 152 130 152 217c0 69 -30 114 -104 114c-104 0 -150 -128 -150 -215z" />
    <glyph glyph-name="afii10081" unicode="&#x43f;" horiz-adv-x="608" 
d="M473 0h-142l87 410h-199l-86 -410h-142l109 517h482z" />
    <glyph glyph-name="afii10082" unicode="&#x440;" horiz-adv-x="621" 
d="M330 424c-106 0 -156 -130 -156 -219c0 -66 33 -112 102 -112c107 0 155 125 155 216c0 62 -34 115 -101 115zM-52 -182l149 699h137l-14 -64l2 -2c32 56 92 80 155 80c124 0 196 -80 196 -204c0 -170 -90 -341 -281 -341c-60 0 -123 26 -145 83h-3l-54 -251h-142z" />
    <glyph glyph-name="afii10083" unicode="&#x441;" horiz-adv-x="559" 
d="M537 338h-142c0 61 -33 86 -95 86c-108 0 -145 -130 -145 -219c0 -62 26 -112 98 -112c63 0 99 45 115 96h142c-43 -129 -133 -203 -267 -203c-144 0 -230 71 -230 222c0 176 106 323 292 323c126 0 229 -56 232 -193z" />
    <glyph glyph-name="afii10084" unicode="&#x442;" horiz-adv-x="500" 
d="M502 410h-170l-86 -410h-142l87 410h-170l23 107h481z" />
    <glyph glyph-name="afii10085" unicode="&#x443;" horiz-adv-x="519" 
d="M543 517l-329 -590c-49 -89 -95 -109 -202 -109c-25 0 -50 2 -75 6l24 117c22 -4 44 -6 58 -6c40 0 61 13 80 46l14 24l-92 512h146l45 -370h2l179 370h150z" />
    <glyph glyph-name="afii10086" unicode="&#x444;" horiz-adv-x="863" 
d="M314 145l48 226c-8 36 -39 55 -71 55c-100 0 -139 -154 -139 -238c0 -53 18 -93 73 -93c38 0 72 20 89 50zM666 339c0 56 -23 87 -72 87c-30 0 -69 -14 -91 -55l-48 -227c0 -25 25 -49 66 -49c103 0 145 158 145 244zM541 -14c-43 0 -87 19 -107 48h-3l-46 -216h-142
l46 216h-3c-38 -33 -74 -48 -117 -48c-117 0 -159 94 -159 199c0 156 89 346 258 346c65 0 100 -27 113 -53h3l50 236h142l-50 -236h3c24 26 64 53 123 53c101 0 156 -79 156 -196c0 -159 -95 -349 -267 -349z" />
    <glyph glyph-name="afii10087" unicode="&#x445;" horiz-adv-x="519" 
d="M531 517l-215 -248l131 -269h-150l-75 170l-138 -170h-161l240 277l-117 240h152l57 -149l117 149h159z" />
    <glyph glyph-name="afii10088" unicode="&#x446;" horiz-adv-x="610" 
d="M361 -152l32 152h-402l109 517h142l-87 -410h191l86 410h142l-87 -410h65l-55 -259h-136z" />
    <glyph glyph-name="afii10089" unicode="&#x447;" horiz-adv-x="570" 
d="M358 304l44 213h142l-109 -517h-142l44 198c-52 -12 -90 -18 -140 -18c-113 0 -169 61 -169 142c0 18 2 39 6 60l28 135h142l-28 -127c-4 -20 -6 -35 -6 -48c0 -36 22 -55 64 -55c36 0 67 4 124 17z" />
    <glyph glyph-name="afii10090" unicode="&#x448;" horiz-adv-x="858" 
d="M832 517l-109 -517h-732l109 517h142l-87 -410h154l86 410h142l-87 -410h154l86 410h142z" />
    <glyph glyph-name="afii10091" unicode="&#x449;" horiz-adv-x="868" 
d="M619 -152l32 152h-660l109 517h142l-87 -410h154l86 410h142l-87 -410h154l86 410h142l-87 -410h65l-55 -259h-136z" />
    <glyph glyph-name="afii10092" unicode="&#x44a;" horiz-adv-x="648" 
d="M593 191c0 -118 -79 -191 -207 -191h-301l86 410h-152l23 107h294l-39 -181h116c112 0 180 -48 180 -145zM379 236h-104l-28 -135h123c54 0 81 27 81 77c0 42 -28 58 -72 58z" />
    <glyph glyph-name="afii10093" unicode="&#x44b;" horiz-adv-x="776" 
d="M499 0l109 517h142l-109 -517h-142zM469 191c0 -118 -79 -191 -207 -191h-271l109 517h142l-39 -181h86c112 0 180 -48 180 -145zM255 236h-74l-28 -135h93c54 0 81 27 81 77c0 42 -28 58 -72 58z" />
    <glyph glyph-name="afii10094" unicode="&#x44c;" horiz-adv-x="554" 
d="M499 191c0 -118 -79 -191 -207 -191h-301l109 517h142l-39 -181h116c112 0 180 -48 180 -145zM285 236h-104l-28 -135h123c54 0 81 27 81 77c0 42 -28 58 -72 58z" />
    <glyph glyph-name="afii10095" unicode="&#x44d;" horiz-adv-x="563" 
d="M198 224l19 90h157c-1 75 -37 110 -99 110c-53 0 -93 -27 -110 -76h-135c30 120 121 183 255 183c146 0 230 -85 230 -227c0 -175 -108 -318 -296 -318c-119 0 -220 58 -222 191h138c4 -57 39 -84 93 -84c74 0 121 62 134 131h-164z" />
    <glyph glyph-name="afii10096" unicode="&#x44e;" horiz-adv-x="842" 
d="M244 517l-42 -199h99c37 121 129 213 272 213c139 0 221 -78 221 -215c0 -172 -104 -330 -292 -330c-135 0 -218 74 -218 215c0 6 0 13 1 19h-104l-47 -220h-143l110 517h143zM567 426c-106 0 -147 -149 -147 -227c0 -71 32 -108 92 -108c103 0 142 149 142 228
c0 68 -33 107 -87 107z" />
    <glyph glyph-name="afii10097" unicode="&#x44f;" horiz-adv-x="567" 
d="M259 191l-165 -191h-168l203 212c-51 20 -89 58 -89 127c0 100 65 178 200 178h301l-109 -517h-140l40 191h-73zM380 415h-125c-44 0 -72 -25 -72 -70c0 -37 26 -52 68 -52h103z" />
    <glyph glyph-name="uni0450" unicode="&#x450;" horiz-adv-x="580" 
d="M313 731l78 -142h-100l-130 142h152zM531 224h-381c-1 -13 -1 -22 -1 -30c0 -60 37 -101 114 -101c57 0 85 38 106 71h142c-45 -116 -119 -178 -268 -178c-138 0 -230 79 -230 226c0 165 109 319 285 319c144 0 241 -76 241 -226c0 -28 -3 -56 -8 -81zM165 314h237
c0 53 -13 110 -96 110c-80 0 -120 -52 -141 -110z" />
    <glyph glyph-name="afii10071" unicode="&#x451;" horiz-adv-x="580" 
d="M164 598l24 117h131l-24 -117h-131zM360 598l24 117h131l-24 -117h-131zM531 224h-381c-1 -13 -1 -22 -1 -30c0 -60 37 -101 114 -101c57 0 85 38 106 71h142c-45 -116 -119 -178 -268 -178c-138 0 -230 79 -230 226c0 165 109 319 285 319c144 0 241 -76 241 -226
c0 -28 -3 -56 -8 -81zM165 314h237c0 53 -13 110 -96 110c-80 0 -120 -52 -141 -110z" />
    <glyph glyph-name="afii10099" unicode="&#x452;" horiz-adv-x="598" 
d="M351 105l36 173c6 27 9 45 9 58c0 34 -30 58 -68 58c-86 0 -130 -72 -145 -144l-53 -250h-142l116 559h-89l21 97h89l12 58h142l-12 -58h176l-21 -97h-175l-26 -127h2c22 30 78 74 171 74c98 0 151 -49 151 -139c0 -21 -11 -71 -15 -89l-42 -198
c-35 -165 -141 -270 -321 -270h-29l26 118c97 4 160 48 187 177z" />
    <glyph glyph-name="afii10100" unicode="&#x453;" horiz-adv-x="456" 
d="M461 410h-242l-86 -410h-142l109 517h384zM470 731l-140 -142h-100l88 142h152z" />
    <glyph glyph-name="afii10101" unicode="&#x454;" horiz-adv-x="559" 
d="M341 314l-19 -90h-169v-15c0 -79 34 -116 104 -116c52 0 90 24 111 84h141c-38 -126 -130 -191 -260 -191c-147 0 -236 69 -236 225c0 176 108 320 296 320c126 0 221 -58 227 -183h-137c-5 51 -37 76 -91 76c-71 0 -114 -39 -138 -110h171z" />
    <glyph glyph-name="afii10102" unicode="&#x455;" horiz-adv-x="519" 
d="M484 366h-132c-1 44 -26 70 -80 70c-50 0 -87 -14 -87 -51c0 -23 17 -37 65 -52l71 -23c76 -25 136 -61 136 -148c0 -128 -127 -176 -246 -176c-101 0 -220 40 -220 161v21h132v-17c0 -47 53 -70 102 -70c43 0 90 15 90 62c0 36 -20 47 -51 57l-109 35
c-71 23 -112 51 -112 132c0 122 129 164 229 164c113 0 214 -32 212 -165z" />
    <glyph glyph-name="afii10103" unicode="&#x456;" horiz-adv-x="262" 
d="M-13 0l110 517h143l-110 -517h-143zM282 714l-26 -117h-143l26 117h143z" />
    <glyph glyph-name="afii10104" unicode="&#x457;" horiz-adv-x="262" 
d="M240 517l-110 -517h-143l110 517h143zM17 598l24 117h131l-24 -117h-131zM213 598l24 117h131l-24 -117h-131z" />
    <glyph glyph-name="afii10105" unicode="&#x458;" horiz-adv-x="266" 
d="M-131 -177l24 114c13 -1 28 -2 41 -2c38 0 48 15 64 93l103 489h142l-113 -536c-23 -110 -64 -163 -192 -163c-21 0 -44 2 -69 5zM284 714l-26 -117h-143l26 117h143z" />
    <glyph glyph-name="afii10106" unicode="&#x459;" horiz-adv-x="837" 
d="M782 188c0 -115 -79 -188 -205 -188h-272l86 410h-118l-49 -198c-30 -123 -72 -226 -212 -226c-20 0 -52 4 -74 10l24 111c12 -3 30 -5 42 -5c40 0 60 24 85 130l68 285h399l-40 -188h87c110 0 179 -47 179 -141zM571 229h-77l-27 -128h96c52 0 81 27 81 74
c0 39 -31 54 -73 54z" />
    <glyph glyph-name="afii10107" unicode="&#x45a;" horiz-adv-x="838" 
d="M783 188c0 -115 -79 -188 -205 -188h-272l48 229h-173l-48 -229h-142l109 517h142l-41 -188h174l40 188h142l-40 -188h87c110 0 179 -47 179 -141zM572 229h-77l-27 -128h96c52 0 81 27 81 74c0 39 -31 54 -73 54z" />
    <glyph glyph-name="afii10108" unicode="&#x45b;" horiz-adv-x="598" 
d="M328 394c-86 0 -130 -72 -145 -144l-53 -250h-142l116 559h-89l21 97h89l12 58h142l-12 -58h176l-21 -97h-175l-26 -127h2c22 30 78 74 171 74c98 0 151 -49 151 -139c0 -21 -11 -71 -15 -89l-59 -278h-142l58 278c6 27 9 45 9 58c0 34 -30 58 -68 58z" />
    <glyph glyph-name="afii10109" unicode="&#x45c;" horiz-adv-x="559" 
d="M-9 0l108 517h142l-44 -205h3l207 205h175l-235 -208l136 -309h-156l-88 219l-74 -63l-32 -156h-142zM498 731l-140 -142h-100l88 142h152z" />
    <glyph glyph-name="uni045D" unicode="&#x45d;" horiz-adv-x="608" 
d="M473 0h-137l72 343l-249 -343h-168l109 517h137l-72 -343l249 343h168zM330 731l78 -142h-100l-130 142h152z" />
    <glyph glyph-name="afii10110" unicode="&#x45e;" horiz-adv-x="519" 
d="M143 731h65c4 -46 43 -67 94 -67c60 0 90 25 114 67h66c-27 -90 -88 -142 -189 -142c-92 0 -150 56 -150 142zM543 517l-329 -590c-49 -89 -95 -109 -202 -109c-25 0 -50 2 -75 6l24 117c22 -4 44 -6 58 -6c40 0 61 13 80 46l14 24l-92 512h146l45 -370h2l179 370h150z
" />
    <glyph glyph-name="afii10193" unicode="&#x45f;" horiz-adv-x="608" 
d="M100 517h142l-87 -410h199l86 410h142l-109 -517h-173l-32 -152h-136l32 152h-173z" />
    <glyph glyph-name="afii10146" unicode="&#x462;" horiz-adv-x="743" 
d="M70 0l112 530h-132l24 110h131l16 74h158l-16 -74h185l-24 -110h-185l-18 -92h139c157 0 233 -78 233 -190c0 -139 -88 -248 -264 -248h-359zM539 232c0 49 -38 78 -105 78h-140l-40 -182h164c67 0 121 32 121 104z" />
    <glyph glyph-name="afii10194" unicode="&#x463;" horiz-adv-x="612" 
d="M557 188c0 -115 -79 -188 -205 -188h-303l86 410h-116l23 107h116l42 197h142l-42 -197h195l-22 -107h-196l-17 -81h118c110 0 179 -47 179 -141zM344 229h-106l-27 -128h125c52 0 79 27 79 74c0 39 -29 54 -71 54z" />
    <glyph glyph-name="afii10147" unicode="&#x472;" horiz-adv-x="778" 
d="M37 299c0 231 149 432 390 432c193 0 317 -106 317 -306c0 -235 -140 -442 -390 -442c-200 0 -317 115 -317 316zM192 307c0 -112 50 -192 164 -192s188 88 217 192h-381zM428 599c-111 0 -181 -75 -215 -170h375c-3 94 -51 170 -160 170z" />
    <glyph glyph-name="afii10195" unicode="&#x473;" horiz-adv-x="599" 
d="M13 209c0 175 113 322 297 322c142 0 241 -70 241 -219c0 -182 -113 -326 -301 -326c-144 0 -237 75 -237 223zM153 221c0 -82 37 -128 104 -128c73 0 121 59 140 128h-244zM305 424c-67 0 -110 -49 -134 -113h240c0 68 -33 113 -106 113z" />
    <glyph glyph-name="afii10148" unicode="&#x474;" horiz-adv-x="650" 
d="M611 549l-280 -549h-177l-82 714h157l47 -536h2l211 437c44 92 89 116 158 116c24 0 61 -6 85 -15l-27 -123c-11 4 -25 6 -35 6c-22 0 -40 -13 -59 -50z" />
    <glyph glyph-name="afii10196" unicode="&#x475;" horiz-adv-x="531" 
d="M452 378l-192 -378h-162l-68 517h146l32 -368h2l129 278c38 81 82 104 143 104c23 0 51 -4 73 -11l-22 -101c-9 3 -19 5 -29 5c-19 0 -35 -12 -52 -46z" />
    <glyph glyph-name="afii10050" unicode="&#x490;" horiz-adv-x="569" 
d="M602 582h-326l-123 -582h-157l151 714h331l34 157h151z" />
    <glyph glyph-name="afii10098" unicode="&#x491;" horiz-adv-x="456" 
d="M457 410h-238l-86 -410h-142l109 517h246l30 141h134z" />
    </font>
</defs>
</svg>
