<svg xmlns="http://www.w3.org/2000/svg">
<defs>
<font id="HelveticaNeueLTW1G-BdCn" horiz-adv-x="500" >
  <font-face 
    font-family="HelveticaNeueLT W1G 57 Cn"
    font-weight="700"
    font-stretch="condensed"
    units-per-em="1000"
    panose-1="2 11 7 6 3 5 2 3 2 4"
    ascent="714"
    descent="-286"
    x-height="538"
    cap-height="712"
    bbox="-164 -253 1066 954"
    underline-thickness="50"
    underline-position="-100"
    stemh="106"
    stemv="138"
    unicode-range="U+000D-FB04"
  />
<missing-glyph horiz-adv-x="512" 
d="M278 117h-56v67h56v-67zM271 234h-46l-2 17c0 37 4 64 13 81s24 37 46 59c43 41 50 58 50 83c0 48 -35 85 -76 85s-74 -27 -82 -95l-50 8c9 95 63 137 135 137c71 0 124 -52 124 -131c0 -43 -12 -73 -63 -120c-25 -22 -39 -39 -43 -52s-6 -37 -6 -72zM50 50h412v617h-412
v-617zM0 718h512v-718h-512v718z" />
    <glyph glyph-name="napostrophe" unicode="&#x22;n" horiz-adv-x="670" 
d="M216 0v538h132v-63h2c29 53 78 77 137 77c87 0 137 -46 137 -153v-399h-138v371c0 55 -18 75 -59 75c-49 0 -73 -30 -73 -89v-357h-138zM155 714v-130c0 -107 -25 -180 -132 -191v70c35 7 52 42 52 79v16h-52v156h132z" />
    <glyph glyph-name="IJ" unicode="IJ" horiz-adv-x="719" 
d="M201 0h-144v714h144v-714zM531 714h144v-514c0 -152 -70 -214 -215 -214c-152 0 -189 97 -189 209v31h132v-22c0 -76 12 -112 64 -112s64 36 64 112v510z" />
    <glyph glyph-name="ij" unicode="ij" horiz-adv-x="480" 
d="M51 604v118h138v-118h-138zM51 0v538h138v-538h-138zM291 604v118h138v-118h-138zM291 10v528h138v-575c0 -91 -35 -139 -158 -139c-16 0 -36 1 -56 2v100s11 -2 22 -2c49 0 54 26 54 86z" />
    <glyph glyph-name="fi" unicode="fi" horiz-adv-x="537" 
d="M348 604v118h138v-118h-138zM348 0v538h138v-538h-138zM76 0v444h-70v94h70v61c0 97 55 129 144 129c24 0 49 -1 74 -3v-98s-11 1 -27 1c-39 0 -53 -12 -53 -43v-47h80v-94h-80v-444h-138z" />
    <glyph glyph-name="fl" unicode="fl" horiz-adv-x="537" 
d="M348 0v722h138v-722h-138zM76 0v444h-70v94h70v61c0 97 55 129 144 129c24 0 49 -1 74 -3v-98s-11 1 -27 1c-39 0 -53 -12 -53 -43v-47h80v-94h-80v-444h-138z" />
    <glyph glyph-name="f_f" unicode="ff" horiz-adv-x="582" 
d="M362 0v444h-148v-444h-138v444h-70v94h70v61c0 97 55 129 144 129c24 0 49 -1 74 -3v-98s-11 1 -27 1c-39 0 -53 -12 -53 -43v-47h148v61c0 97 55 129 144 129c24 0 49 -1 74 -3v-98s-11 1 -27 1c-39 0 -53 -12 -53 -43v-47h80v-94h-80v-444h-138z" />
    <glyph glyph-name="f_f_i" unicode="ffi" horiz-adv-x="832" 
d="M372 0v444h-158v-444h-138v444h-70v94h70v61c0 97 55 129 144 129c24 0 49 -1 74 -3v-98s-11 1 -27 1c-39 0 -53 -12 -53 -43v-47h158v61c0 97 55 129 144 129c24 0 49 -1 74 -3v-98s-11 1 -27 1c-39 0 -53 -12 -53 -43v-47h80v-94h-80v-444h-138zM643 604v118h138v-118
h-138zM643 0v538h138v-538h-138z" />
    <glyph glyph-name="f_f_l" unicode="ffl" horiz-adv-x="832" 
d="M372 0v444h-158v-444h-138v444h-70v94h70v61c0 97 55 129 144 129c24 0 49 -1 74 -3v-98s-11 1 -27 1c-39 0 -53 -12 -53 -43v-47h158v61c0 97 55 129 144 129c24 0 49 -1 74 -3v-98s-11 1 -27 1c-39 0 -53 -12 -53 -43v-47h80v-94h-80v-444h-138zM643 0v714h138v-714
h-138z" />
    <glyph glyph-name=".notdef" horiz-adv-x="512" 
d="M278 117h-56v67h56v-67zM271 234h-46l-2 17c0 37 4 64 13 81s24 37 46 59c43 41 50 58 50 83c0 48 -35 85 -76 85s-74 -27 -82 -95l-50 8c9 95 63 137 135 137c71 0 124 -52 124 -131c0 -43 -12 -73 -63 -120c-25 -22 -39 -39 -43 -52s-6 -37 -6 -72zM50 50h412v617h-412
v-617zM0 718h512v-718h-512v718z" />
    <glyph glyph-name=".null" 
 />
    <glyph glyph-name="CR" unicode="&#xd;" horiz-adv-x="0" 
 />
    <glyph glyph-name="space" unicode=" " horiz-adv-x="240" 
 />
    <glyph glyph-name="exclam" unicode="!" horiz-adv-x="296" 
d="M79 132h138v-132h-138v132zM198 199h-100l-19 283v232h138v-232z" />
    <glyph glyph-name="quotedbl" unicode="&#x22;" horiz-adv-x="463" 
d="M72 393v321h124v-321h-124zM267 393v321h124v-321h-124z" />
    <glyph glyph-name="numbersign" unicode="#" horiz-adv-x="480" 
d="M199 408l-15 -122h97l16 122h-98zM0 174v112h87l16 122h-73v112h86l22 174h96l-21 -174h97l22 174h97l-22 -174h73v-112h-86l-16 -122h73v-112h-86l-22 -174h-97l22 174h-98l-21 -174h-97l22 174h-74z" />
    <glyph glyph-name="dollar" unicode="$" horiz-adv-x="480" 
d="M205 -101v87c-165 13 -196 101 -196 205v21h138c0 -56 5 -107 58 -120v202l-50 18c-97 35 -137 101 -137 192c0 123 68 191 187 204v69h64v-69c148 -13 185 -100 185 -189v-14h-138c-1 51 -12 86 -47 97v-189l79 -32c74 -32 123 -69 123 -181c0 -144 -70 -205 -202 -214
v-87h-64zM205 442v160c-31 -9 -49 -33 -49 -76c0 -37 16 -65 49 -84zM269 269v-177c41 9 58 43 58 80c0 51 -19 77 -58 97z" />
    <glyph glyph-name="percent" unicode="%" horiz-adv-x="778" 
d="M140 -31l406 756h89l-406 -756h-89zM133 521c0 -80 4 -119 44 -119s44 39 44 119c0 72 -4 111 -44 111s-44 -39 -44 -111zM27 517c0 129 26 191 150 191s150 -62 150 -191s-26 -191 -150 -191s-150 62 -150 191zM451 177c0 129 26 191 150 191s150 -62 150 -191
s-26 -191 -150 -191s-150 62 -150 191zM557 181c0 -80 4 -119 44 -119s44 39 44 119c0 72 -4 111 -44 111s-44 -39 -44 -111z" />
    <glyph glyph-name="ampersand" unicode="&#x26;" horiz-adv-x="593" 
d="M319 380l107 -145c15 31 25 78 25 108h124c0 -77 -30 -150 -73 -211l94 -132h-153l-40 55c-36 -43 -101 -69 -172 -69c-180 0 -219 126 -219 206c0 84 55 150 144 206l-25 37c-40 58 -48 88 -48 129c0 92 75 150 182 150c123 0 178 -66 178 -149
c0 -72 -40 -125 -124 -185zM343 143l-120 170c-55 -43 -73 -77 -73 -121s35 -94 100 -94c38 0 69 15 93 45zM201 568c0 -20 12 -46 36 -78l17 -24l26 22c32 27 45 53 45 78c0 39 -26 60 -63 60c-35 0 -61 -21 -61 -58z" />
    <glyph glyph-name="quotesingle" unicode="'" horiz-adv-x="260" 
d="M68 393v321h124v-321h-124z" />
    <glyph glyph-name="parenleft" unicode="(" horiz-adv-x="296" 
d="M190 714h106c-83 -153 -114 -279 -114 -449s31 -296 114 -449h-106c-99 157 -140 308 -140 449s41 292 140 449z" />
    <glyph glyph-name="parenright" unicode=")" horiz-adv-x="296" 
d="M0 714h106c99 -157 140 -308 140 -449s-41 -292 -140 -449h-106c83 153 114 279 114 449s-31 296 -114 449z" />
    <glyph glyph-name="asterisk" unicode="*" horiz-adv-x="390" 
d="M154 714h82v-128l122 40l25 -78l-122 -40l76 -104l-67 -48l-75 104l-75 -104l-67 48l76 104l-122 40l25 78l122 -40v128z" />
    <glyph glyph-name="plus" unicode="+" horiz-adv-x="600" 
d="M238 0v191h-191v124h191v191h124v-191h191v-124h-191v-191h-124z" />
    <glyph glyph-name="comma" unicode="," horiz-adv-x="240" 
d="M54 156h132v-130c0 -107 -25 -180 -132 -191v70c35 7 52 42 52 79v16h-52v156z" />
    <glyph glyph-name="hyphen" unicode="-" horiz-adv-x="370" 
d="M44 348h282v-118h-282v118z" />
    <glyph glyph-name="period" unicode="." horiz-adv-x="240" 
d="M54 156h132v-156h-132v156z" />
    <glyph glyph-name="slash" unicode="/" horiz-adv-x="332" 
d="M-3 -14l226 742h112l-226 -742h-112z" />
    <glyph glyph-name="zero" unicode="0" horiz-adv-x="480" 
d="M18 330c0 196 11 378 222 378c172 0 222 -93 222 -344c0 -196 -11 -378 -222 -378c-172 0 -222 93 -222 344zM162 376v-77c0 -179 17 -219 78 -219c63 0 78 56 78 238v77c0 179 -17 219 -78 219c-63 0 -78 -56 -78 -238z" />
    <glyph glyph-name="one" unicode="1" horiz-adv-x="480" 
d="M326 0h-144v500h-141v94h13c95 0 151 35 166 114h106v-708z" />
    <glyph glyph-name="two" unicode="2" horiz-adv-x="480" 
d="M454 112v-112h-436c0 126 51 213 156 310l58 54c62 58 74 90 74 162c0 59 -23 88 -70 88c-71 0 -80 -63 -80 -138h-138v27c0 132 68 205 220 205c143 0 212 -70 212 -193c0 -92 -31 -152 -110 -225l-80 -74c-43 -39 -66 -77 -73 -104h267z" />
    <glyph glyph-name="three" unicode="3" horiz-adv-x="480" 
d="M20 207h138c1 -83 16 -127 79 -127c69 0 79 52 79 114c0 63 -14 121 -93 121h-48v94h47c60 0 82 54 82 112c0 67 -22 93 -69 93c-62 0 -73 -48 -73 -115h-132c0 140 73 209 208 209c129 0 204 -57 204 -182c0 -85 -40 -141 -108 -156v-2c92 -15 126 -78 126 -167
c0 -96 -39 -215 -235 -215c-137 0 -205 82 -205 218v3z" />
    <glyph glyph-name="four" unicode="4" horiz-adv-x="480" 
d="M14 147v118l235 443h149v-449h68v-112h-68v-147h-132v147h-252zM266 259v269h-2l-138 -269h140z" />
    <glyph glyph-name="five" unicode="5" horiz-adv-x="480" 
d="M425 694v-112h-261l-15 -161h2c27 37 69 53 130 53c136 0 173 -114 173 -226c0 -156 -46 -262 -227 -262c-180 0 -209 117 -209 197v19h138c0 -47 8 -116 70 -116c59 0 84 46 84 138c0 117 -19 150 -83 150c-41 0 -63 -25 -68 -65h-129l26 385h369z" />
    <glyph glyph-name="six" unicode="6" horiz-adv-x="480" 
d="M165 220c0 -81 12 -140 79 -140c69 0 78 60 78 140c0 96 -22 134 -78 134c-57 0 -79 -38 -79 -134zM449 528h-138c0 55 -17 86 -65 86c-76 0 -88 -76 -88 -180v-35h2c24 37 70 61 133 61c125 0 173 -93 173 -221c0 -163 -70 -253 -229 -253c-198 0 -223 158 -223 331
c0 200 4 391 238 391c102 0 194 -44 197 -180z" />
    <glyph glyph-name="seven" unicode="7" horiz-adv-x="480" 
d="M22 694h436v-110c-117 -165 -184 -384 -208 -584h-151c21 171 83 381 221 570h-298v124z" />
    <glyph glyph-name="eight" unicode="8" horiz-adv-x="480" 
d="M158 202c0 -68 17 -122 82 -122s82 54 82 122s-17 122 -82 122s-82 -54 -82 -122zM170 517c0 -67 27 -99 70 -99s70 32 70 99c0 65 -23 97 -70 97s-70 -32 -70 -97zM14 200c0 89 40 159 120 175v2c-77 19 -102 86 -102 136c0 139 79 195 208 195s208 -56 208 -195
c0 -50 -27 -117 -102 -136v-2c80 -16 120 -86 120 -175c0 -81 -29 -214 -226 -214s-226 133 -226 214z" />
    <glyph glyph-name="nine" unicode="9" horiz-adv-x="480" 
d="M158 474c0 -96 22 -134 78 -134c57 0 79 38 79 134c0 81 -12 140 -79 140c-69 0 -78 -60 -78 -140zM31 165h138c0 -53 17 -85 65 -85c76 0 88 76 88 180v34h-2c-24 -36 -70 -60 -133 -60c-125 0 -173 93 -173 221c0 163 70 253 229 253c197 0 223 -158 223 -331
c0 -201 -5 -391 -238 -391c-102 0 -194 43 -197 179z" />
    <glyph glyph-name="colon" unicode=":" horiz-adv-x="240" 
d="M54 365v156h132v-156h-132zM54 0v156h132v-156h-132z" />
    <glyph glyph-name="semicolon" unicode=";" horiz-adv-x="240" 
d="M54 521h132v-156h-132v156zM54 156h132v-130c0 -107 -25 -180 -132 -191v70c35 7 52 42 52 79v16h-52v156z" />
    <glyph glyph-name="less" unicode="&#x3c;" horiz-adv-x="600" 
d="M47 200v106l506 208v-124l-338 -137l338 -137v-124z" />
    <glyph glyph-name="equal" unicode="=" horiz-adv-x="600" 
d="M47 82v124h506v-124h-506zM47 300v124h506v-124h-506z" />
    <glyph glyph-name="greater" unicode="&#x3e;" horiz-adv-x="600" 
d="M47 -8v124l338 137l-338 137v124l506 -208v-106z" />
    <glyph glyph-name="question" unicode="?" horiz-adv-x="481" 
d="M162 132h138v-132h-138v132zM168 493h-132v23c0 120 66 206 198 206c141 0 211 -76 211 -193c0 -55 -15 -101 -63 -156l-40 -45c-35 -39 -49 -64 -49 -115v-15h-124v39c0 67 17 106 62 157l38 43c28 31 38 66 38 106c0 51 -23 85 -68 85c-51 0 -71 -45 -71 -110v-25z" />
    <glyph glyph-name="at" unicode="@" horiz-adv-x="800" 
d="M522 488l13 53h88l-58 -250c-4 -19 -6 -34 -6 -41c0 -13 7 -20 20 -20c39 0 104 69 104 174c0 133 -127 230 -266 230c-157 0 -276 -134 -276 -278c0 -153 131 -276 283 -276c92 0 162 31 217 64h89c-71 -100 -179 -158 -330 -158c-205 0 -371 166 -371 371
s166 371 371 371c200 0 371 -120 371 -303c0 -211 -186 -286 -251 -286c-39 0 -62 18 -65 53h-2c-27 -28 -67 -53 -120 -53c-71 0 -146 63 -146 170c0 122 83 246 214 246c51 0 92 -20 121 -67zM299 326c0 -44 28 -81 71 -81c68 0 116 68 116 128c0 43 -34 76 -75 76
c-64 0 -112 -68 -112 -123z" />
    <glyph glyph-name="A" unicode="A" horiz-adv-x="556" 
d="M277 590l-69 -321h140l-69 321h-2zM0 0l189 714h178l189 -714h-150l-33 151h-190l-33 -151h-150z" />
    <glyph glyph-name="B" unicode="B" horiz-adv-x="556" 
d="M194 321v-215h56c69 0 116 25 116 108s-47 107 -110 107h-62zM194 608v-187h41c80 0 115 26 115 94s-32 93 -104 93h-52zM50 0v714h241c118 0 203 -44 203 -181c0 -77 -36 -136 -108 -156v-2c80 -11 130 -70 130 -166c0 -112 -55 -209 -223 -209h-243z" />
    <glyph glyph-name="C" unicode="C" horiz-adv-x="537" 
d="M499 473h-144c0 104 -21 149 -86 149c-72 0 -90 -72 -90 -275c0 -216 30 -255 92 -255c51 0 90 26 90 181h144c0 -155 -38 -287 -227 -287c-216 0 -243 154 -243 371s27 371 243 371c206 0 221 -151 221 -255z" />
    <glyph glyph-name="D" unicode="D" horiz-adv-x="574" 
d="M201 608v-502h64c100 0 120 63 120 257c0 162 -14 245 -123 245h-61zM57 0v714h236c199 0 236 -136 236 -347c0 -252 -54 -367 -245 -367h-227z" />
    <glyph glyph-name="E" unicode="E" horiz-adv-x="481" 
d="M50 714h399v-118h-255v-168h240v-118h-240v-192h265v-118h-409v714z" />
    <glyph glyph-name="F" unicode="F" horiz-adv-x="463" 
d="M50 0v714h399v-118h-255v-168h240v-118h-240v-310h-144z" />
    <glyph glyph-name="G" unicode="G" horiz-adv-x="556" 
d="M505 502h-138c0 52 -23 120 -82 120c-69 0 -98 -71 -98 -250c0 -172 16 -280 99 -280c35 0 89 37 89 114v73h-95v106h233v-385h-106v66h-2c-35 -56 -82 -80 -150 -80c-177 0 -212 132 -212 379c0 240 56 363 240 363c157 0 222 -81 222 -226z" />
    <glyph glyph-name="H" unicode="H" horiz-adv-x="556" 
d="M50 0v714h144v-273h168v273h144v-714h-144v317h-168v-317h-144z" />
    <glyph glyph-name="I" unicode="I" horiz-adv-x="258" 
d="M201 0h-144v714h144v-714z" />
    <glyph glyph-name="J" unicode="J" horiz-adv-x="463" 
d="M275 714h144v-514c0 -152 -70 -214 -215 -214c-152 0 -189 97 -189 209v31h132v-22c0 -76 12 -112 64 -112s64 36 64 112v510z" />
    <glyph glyph-name="K" unicode="K" horiz-adv-x="537" 
d="M50 714h144v-286h2l182 286h156l-194 -306l216 -408h-162l-147 293l-53 -81v-212h-144v714z" />
    <glyph glyph-name="L" unicode="L" horiz-adv-x="463" 
d="M449 0h-399v714h144v-596h255v-118z" />
    <glyph glyph-name="M" unicode="M" horiz-adv-x="740" 
d="M53 0v714h214l102 -504h2l103 504h213v-714h-132v570h-2l-127 -570h-112l-127 570h-2v-570h-132z" />
    <glyph glyph-name="N" unicode="N" horiz-adv-x="574" 
d="M50 714h166l174 -489h2v489h132v-714h-164l-176 500h-2v-500h-132v714z" />
    <glyph glyph-name="O" unicode="O" horiz-adv-x="556" 
d="M35 357c0 217 27 371 243 371s243 -154 243 -371s-27 -371 -243 -371s-243 154 -243 371zM179 357c0 -192 14 -265 99 -265s99 73 99 265c0 191 -14 265 -99 265s-99 -74 -99 -265z" />
    <glyph glyph-name="P" unicode="P" horiz-adv-x="519" 
d="M194 608v-217h64c57 0 96 34 96 107c0 71 -28 110 -100 110h-60zM50 0v714h252c147 0 196 -107 196 -214c0 -148 -91 -215 -227 -215h-77v-285h-144z" />
    <glyph glyph-name="Q" unicode="Q" horiz-adv-x="556" 
d="M179 357c0 -192 14 -265 99 -265s99 73 99 265c0 191 -14 265 -99 265s-99 -74 -99 -265zM543 -11l-85 -77l-85 88c-14 -5 -29 -9 -44 -11s-32 -3 -51 -3c-216 0 -243 154 -243 371s27 371 243 371s243 -154 243 -371c0 -121 -8 -222 -55 -290z" />
    <glyph glyph-name="R" unicode="R" horiz-adv-x="556" 
d="M50 0v714h266c119 0 190 -61 190 -184c0 -96 -38 -159 -119 -176v-2c98 -13 112 -67 115 -218c1 -76 5 -113 32 -128v-6h-156c-15 20 -17 59 -19 97l-3 115c-2 56 -26 90 -85 90h-77v-302h-144zM194 608v-206h60c69 0 108 30 108 107c0 66 -33 99 -100 99h-68z" />
    <glyph glyph-name="S" unicode="S" horiz-adv-x="519" 
d="M22 223h144v-21c0 -67 19 -110 95 -110c44 0 86 28 86 88c0 43 -12 74 -54 91l-107 43c-105 42 -154 97 -154 204c0 140 84 210 221 210c128 0 221 -55 221 -192v-20h-138c0 68 -22 106 -78 106c-65 0 -82 -40 -82 -83c0 -44 13 -71 74 -97l111 -48
c108 -48 136 -101 136 -189c0 -151 -92 -219 -248 -219c-163 0 -227 76 -227 208v29z" />
    <glyph glyph-name="T" unicode="T" horiz-adv-x="480" 
d="M12 714h456v-118h-156v-596h-144v596h-156v118z" />
    <glyph glyph-name="U" unicode="U" horiz-adv-x="538" 
d="M41 714h144v-498c0 -71 16 -124 84 -124s84 53 84 124v498h144v-498c0 -181 -111 -230 -228 -230s-228 39 -228 230v498z" />
    <glyph glyph-name="V" unicode="V" horiz-adv-x="519" 
d="M3 714h154l101 -528h3l106 528h149l-164 -714h-185z" />
    <glyph glyph-name="W" unicode="W" horiz-adv-x="760" 
d="M138 0l-130 714h138l79 -528h2l84 528h138l84 -528h2l79 528h138l-130 -714h-161l-80 518h-2l-80 -518h-161z" />
    <glyph glyph-name="X" unicode="X" horiz-adv-x="537" 
d="M184 361l-164 353h159l92 -231l91 231h157l-166 -353l178 -361h-162l-103 242l-102 -242h-158z" />
    <glyph glyph-name="Y" unicode="Y" horiz-adv-x="520" 
d="M3 714h162l94 -276h2l100 276h156l-185 -433v-281h-144v281z" />
    <glyph glyph-name="Z" unicode="Z" horiz-adv-x="481" 
d="M24 0v105l263 491h-245v118h411v-109l-267 -487h271v-118h-433z" />
    <glyph glyph-name="bracketleft" unicode="[" horiz-adv-x="315" 
d="M80 -184v898h229v-100h-105v-698h105v-100h-229z" />
    <glyph glyph-name="backslash" unicode="\" horiz-adv-x="332" 
d="M223 -14l-226 742h112l226 -742h-112z" />
    <glyph glyph-name="bracketright" unicode="]" horiz-adv-x="315" 
d="M6 -184v100h105v698h-105v100h229v-898h-229z" />
    <glyph glyph-name="asciicircum" unicode="^" horiz-adv-x="600" 
d="M180 309h-124l188 385h112l188 -385h-124l-120 247z" />
    <glyph glyph-name="underscore" unicode="_" 
d="M500 -125h-500v50h500v-50z" />
    <glyph glyph-name="grave" unicode="`" horiz-adv-x="222" 
d="M176 602h-94l-98 144h138z" />
    <glyph glyph-name="a" unicode="a" horiz-adv-x="481" 
d="M169 373h-124v13c0 124 85 166 189 166c164 0 195 -68 195 -165v-283c0 -51 4 -72 17 -104h-132c-9 17 -13 37 -17 56h-2c-32 -56 -70 -70 -137 -70c-96 0 -130 82 -130 154c0 102 41 142 144 170l63 17c48 13 62 29 62 65c0 41 -17 66 -64 66c-43 0 -64 -27 -64 -70v-15
zM297 163v108c-14 -11 -30 -19 -47 -25l-30 -11c-52 -19 -60 -47 -60 -80c0 -41 15 -75 52 -75s85 23 85 83z" />
    <glyph glyph-name="b" unicode="b" 
d="M46 0v714h138v-226h2c29 43 64 64 116 64c113 0 165 -83 165 -283s-52 -283 -165 -283c-55 0 -91 20 -122 71h-2v-57h-132zM184 269c0 -117 12 -177 73 -177c60 0 72 60 72 177s-12 177 -72 177c-61 0 -73 -60 -73 -177z" />
    <glyph glyph-name="c" unicode="c" horiz-adv-x="463" 
d="M437 344h-132c0 52 -10 108 -62 108c-68 0 -79 -60 -79 -184c0 -133 13 -188 74 -188c47 0 67 38 67 126h132c0 -141 -58 -220 -205 -220c-138 0 -206 67 -206 283c0 221 90 283 218 283s193 -80 193 -208z" />
    <glyph glyph-name="d" unicode="d" 
d="M322 0v57h-2c-31 -51 -67 -71 -122 -71c-113 0 -165 83 -165 283s52 283 165 283c52 0 87 -21 116 -64h2v226h138v-714h-132zM171 269c0 -117 12 -177 72 -177c61 0 73 60 73 177s-12 177 -73 177c-60 0 -72 -60 -72 -177z" />
    <glyph glyph-name="e" unicode="e" horiz-adv-x="463" 
d="M437 248h-273v-43c0 -64 17 -125 68 -125c47 0 65 33 73 101h124c-5 -125 -63 -195 -195 -195c-200 0 -208 154 -208 288c0 144 28 278 214 278c161 0 197 -108 197 -273v-31zM164 330h141c-3 82 -13 128 -70 128c-55 0 -71 -56 -71 -107v-21z" />
    <glyph glyph-name="f" unicode="f" horiz-adv-x="296" 
d="M76 0v444h-70v94h70v61c0 97 55 129 144 129c24 0 49 -1 74 -3v-98s-11 1 -27 1c-39 0 -53 -12 -53 -43v-47h80v-94h-80v-444h-138z" />
    <glyph glyph-name="g" unicode="g" 
d="M173 252c0 -74 10 -140 69 -140s75 63 75 154c0 131 -17 180 -72 180c-61 0 -72 -49 -72 -194zM317 538h132v-511c0 -143 -63 -211 -224 -211c-117 0 -183 52 -183 144h132c0 -17 7 -31 21 -41c13 -9 29 -15 46 -15c56 0 76 41 76 97v71h-2c-28 -40 -71 -66 -115 -66
c-109 0 -165 76 -165 272c0 126 20 274 169 274c39 0 84 -18 111 -74h2v60z" />
    <glyph glyph-name="h" unicode="h" 
d="M46 0v714h138v-231h2c27 47 72 69 131 69c87 0 137 -46 137 -153v-399h-138v371c0 55 -18 75 -59 75c-49 0 -73 -30 -73 -89v-357h-138z" />
    <glyph glyph-name="i" unicode="i" horiz-adv-x="240" 
d="M51 604v118h138v-118h-138zM51 0v538h138v-538h-138z" />
    <glyph glyph-name="j" unicode="j" horiz-adv-x="240" 
d="M51 604v118h138v-118h-138zM51 10v528h138v-575c0 -91 -35 -139 -158 -139c-16 0 -36 1 -56 2v100s11 -2 22 -2c49 0 54 26 54 86z" />
    <glyph glyph-name="k" unicode="k" 
d="M51 714h138v-377h2l139 201h152l-155 -212l178 -326h-152l-115 221l-49 -64v-157h-138v714z" />
    <glyph glyph-name="l" unicode="l" horiz-adv-x="240" 
d="M51 0v714h138v-714h-138z" />
    <glyph glyph-name="m" unicode="m" horiz-adv-x="758" 
d="M46 0v538h132v-55h2c35 49 77 69 136 69c64 0 109 -30 124 -86h2c21 57 71 86 136 86c92 0 134 -57 134 -161v-391h-138v376c0 45 -15 70 -54 70c-44 0 -72 -29 -72 -92v-354h-138v376c0 45 -15 70 -54 70c-44 0 -72 -29 -72 -92v-354h-138z" />
    <glyph glyph-name="n" unicode="n" 
d="M46 0v538h132v-63h2c29 53 78 77 137 77c87 0 137 -46 137 -153v-399h-138v371c0 55 -18 75 -59 75c-49 0 -73 -30 -73 -89v-357h-138z" />
    <glyph glyph-name="o" unicode="o" horiz-adv-x="480" 
d="M28 269c0 184 55 283 212 283c165 3 212 -95 212 -283c0 -184 -55 -283 -212 -283c-165 -3 -212 95 -212 283zM166 269c0 -110 6 -189 74 -189c56 0 74 54 74 189s-18 189 -74 189c-68 0 -74 -79 -74 -189z" />
    <glyph glyph-name="p" unicode="p" 
d="M46 -176v714h132v-57h2c31 51 67 71 122 71c113 0 165 -83 165 -283s-52 -283 -165 -283c-52 0 -87 21 -116 64h-2v-226h-138zM184 269c0 -117 12 -177 73 -177c60 0 72 60 72 177s-12 177 -72 177c-61 0 -73 -60 -73 -177z" />
    <glyph glyph-name="q" unicode="q" 
d="M316 -176v226h-2c-29 -43 -64 -64 -116 -64c-113 0 -165 83 -165 283s52 283 165 283c55 0 91 -20 122 -71h2v57h132v-714h-138zM316 269c0 117 -12 177 -73 177c-60 0 -72 -60 -72 -177s12 -177 72 -177c61 0 73 60 73 177z" />
    <glyph glyph-name="r" unicode="r" horiz-adv-x="333" 
d="M46 0v538h132v-72h2c28 52 67 86 124 86c8 0 17 -1 25 -2v-132c-15 1 -28 2 -43 2c-48 0 -102 -25 -102 -97v-323h-138z" />
    <glyph glyph-name="s" unicode="s" horiz-adv-x="444" 
d="M23 176h124v-18c0 -47 25 -78 72 -78c43 0 70 21 70 64c0 35 -23 51 -50 61l-97 35c-76 27 -115 74 -115 150c0 88 57 162 198 162c125 0 184 -56 184 -153v-22h-124c0 55 -16 81 -61 81c-35 0 -65 -19 -65 -58c0 -27 13 -48 60 -63l83 -28c87 -29 119 -73 119 -154
c0 -113 -84 -169 -200 -169c-156 0 -198 67 -198 171v19z" />
    <glyph glyph-name="t" unicode="t" horiz-adv-x="296" 
d="M76 538v154h138v-154h80v-94h-80v-291c0 -43 9 -59 49 -59c11 0 22 1 31 2v-96c-31 -3 -58 -6 -90 -6c-108 0 -128 34 -128 142v308h-70v94h70z" />
    <glyph glyph-name="u" unicode="u" 
d="M322 0v63h-2c-29 -53 -78 -77 -137 -77c-87 0 -137 46 -137 153v399h138v-371c0 -55 18 -75 59 -75c49 0 73 30 73 89v357h138v-538h-132z" />
    <glyph glyph-name="v" unicode="v" horiz-adv-x="444" 
d="M228 153l73 385h138l-135 -538h-160l-139 538h144l77 -385h2z" />
    <glyph glyph-name="w" unicode="w" horiz-adv-x="704" 
d="M124 0l-117 538h138l63 -382h2l67 382h150l71 -382h2l65 382h132l-116 -538h-157l-71 382h-2l-67 -382h-160z" />
    <glyph glyph-name="x" unicode="x" horiz-adv-x="462" 
d="M231 376l74 162h144l-140 -261l146 -277h-144l-80 176l-80 -176h-144l146 277l-140 261h144z" />
    <glyph glyph-name="y" unicode="y" horiz-adv-x="444" 
d="M46 -176v103c12 -2 24 -3 36 -3c51 0 70 28 74 76l-151 538h144l80 -372h2l70 372h138l-130 -502c-48 -186 -79 -212 -207 -212h-56z" />
    <glyph glyph-name="z" unicode="z" horiz-adv-x="426" 
d="M24 0v106l215 320h-205v112h368v-106l-215 -320h215v-112h-378z" />
    <glyph glyph-name="braceleft" unicode="{" horiz-adv-x="315" 
d="M30 224v82c33 0 66 34 66 81v193c0 85 36 134 104 134h89v-100h-30c-32 0 -39 -33 -39 -72v-166c0 -60 -29 -102 -72 -110v-2c43 -8 72 -50 72 -110v-166c0 -39 7 -72 39 -72h30v-100h-89c-68 0 -104 49 -104 134v193c0 47 -33 81 -66 81z" />
    <glyph glyph-name="bar" unicode="|" horiz-adv-x="222" 
d="M49 -14v742h124v-742h-124z" />
    <glyph glyph-name="braceright" unicode="}" horiz-adv-x="315" 
d="M26 -184v100h30c32 0 39 33 39 72v166c0 60 29 102 72 110v2c-43 8 -72 50 -72 110v166c0 39 -7 72 -39 72h-30v100h89c68 0 104 -49 104 -134v-193c0 -47 33 -81 66 -81v-82c-33 0 -66 -34 -66 -81v-193c0 -85 -36 -134 -104 -134h-89z" />
    <glyph glyph-name="asciitilde" unicode="~" horiz-adv-x="600" 
d="M495 349l36 -106c-27 -51 -64 -86 -123 -86c-45 0 -79 14 -118 34c-56 29 -74 34 -95 34c-39 0 -79 -43 -90 -68l-36 106c27 51 64 86 123 86c35 0 72 -10 109 -29c55 -29 76 -39 104 -39c39 0 79 43 90 68z" />
    <glyph glyph-name="uni00A0" unicode="&#xa0;" horiz-adv-x="240" 
 />
    <glyph glyph-name="Agrave" unicode="&#xc0;" horiz-adv-x="556" 
d="M277 590l-69 -321h140l-69 321h-2zM0 0l189 714h178l189 -714h-150l-33 151h-190l-33 -151h-150zM340 756h-94l-98 144h138z" />
    <glyph glyph-name="Aacute" unicode="&#xc1;" horiz-adv-x="556" 
d="M277 590l-69 -321h140l-69 321h-2zM0 0l189 714h178l189 -714h-150l-33 151h-190l-33 -151h-150zM212 756l54 144h138l-98 -144h-94z" />
    <glyph glyph-name="Acircumflex" unicode="&#xc2;" horiz-adv-x="556" 
d="M277 590l-69 -321h140l-69 321h-2zM0 0l189 714h178l189 -714h-150l-33 151h-190l-33 -151h-150zM127 756l78 144h144l78 -144h-106l-46 85l-48 -85h-100z" />
    <glyph glyph-name="Atilde" unicode="&#xc3;" horiz-adv-x="556" 
d="M277 590l-69 -321h140l-69 321h-2zM0 0l189 714h178l189 -714h-150l-33 151h-190l-33 -151h-150zM191 765h-70c11 79 42 124 93 124c43 0 88 -34 121 -34c19 0 28 23 28 36h72c-7 -72 -42 -124 -93 -124c-42 0 -87 34 -119 34c-17 0 -27 -12 -32 -36z" />
    <glyph glyph-name="Adieresis" unicode="&#xc4;" horiz-adv-x="556" 
d="M277 590l-69 -321h140l-69 321h-2zM0 0l189 714h178l189 -714h-150l-33 151h-190l-33 -151h-150zM308 771v118h112v-118h-112zM136 771v118h112v-118h-112z" />
    <glyph glyph-name="Amacron" unicode="&#x100;" horiz-adv-x="556" 
d="M277 590l-69 -321h140l-69 321h-2zM0 0l189 714h178l189 -714h-150l-33 151h-190l-33 -151h-150zM131 866h294v-76h-294v76z" />
    <glyph glyph-name="Abreve" unicode="&#x102;" horiz-adv-x="556" 
d="M277 590l-69 -321h140l-69 321h-2zM0 0l189 714h178l189 -714h-150l-33 151h-190l-33 -151h-150zM139 899h65c4 -39 35 -65 74 -65s70 26 74 65h65c0 -53 -32 -141 -139 -141c-108 0 -139 88 -139 141z" />
    <glyph glyph-name="Aring" unicode="&#xc5;" horiz-adv-x="556" 
d="M277 590l-69 -321h140l-69 321h-2zM0 0l189 714h178l189 -714h-150l-33 151h-190l-33 -151h-150zM222 844c0 -32 25 -57 57 -57s57 25 57 57s-25 57 -57 57s-57 -25 -57 -57zM166 844c0 65 51 110 113 110s113 -45 113 -110c0 -66 -51 -108 -113 -108
c-64 0 -113 42 -113 108z" />
    <glyph glyph-name="Aringacute" unicode="&#x1fa;" horiz-adv-x="556" 
d="M173 737c0 59 46 100 103 100s104 -41 104 -100c0 -22 -6 -40 -16 -55l192 -682h-150l-33 151h-190l-33 -151h-150l188 681c-10 15 -15 34 -15 56zM277 548l-69 -279h140l-69 279h-2zM401 954l-79 -96h-96l47 96h128zM224 737c0 -29 22 -52 52 -52s52 23 52 52
s-22 50 -52 50s-52 -21 -52 -50z" />
    <glyph glyph-name="Aogonek" unicode="&#x104;" horiz-adv-x="556" 
d="M463 -133l30 -49c-37 -27 -67 -35 -114 -35c-78 0 -96 43 -96 79c0 49 47 103 123 138l-33 151h-190l-33 -151h-150l189 714h178l189 -714h-83c-83 -60 -101 -91 -101 -122c0 -20 11 -31 28 -31c19 0 34 3 63 20zM277 590l-69 -321h140l-69 321h-2z" />
    <glyph glyph-name="AE" unicode="&#xc6;" horiz-adv-x="759" 
d="M234 269h120v333h-9zM-5 0l269 714h463v-118h-235v-168h220v-118h-220v-192h245v-118h-383v151h-159l-50 -151h-150z" />
    <glyph glyph-name="AEacute" unicode="&#x1fc;" horiz-adv-x="759" 
d="M234 269h120v333h-9zM-5 0l269 714h463v-118h-235v-168h220v-118h-220v-192h245v-118h-383v151h-159l-50 -151h-150zM394 778l54 144h138l-98 -144h-94z" />
    <glyph glyph-name="Cacute" unicode="&#x106;" horiz-adv-x="537" 
d="M499 473h-144c0 104 -21 149 -86 149c-72 0 -90 -72 -90 -275c0 -216 30 -255 92 -255c51 0 90 26 90 181h144c0 -155 -38 -287 -227 -287c-216 0 -243 154 -243 371s27 371 243 371c206 0 221 -151 221 -255zM222 756l54 144h138l-98 -144h-94z" />
    <glyph glyph-name="Ccircumflex" unicode="&#x108;" horiz-adv-x="537" 
d="M499 473h-144c0 104 -21 149 -86 149c-72 0 -90 -72 -90 -275c0 -216 30 -255 92 -255c51 0 90 26 90 181h144c0 -155 -38 -287 -227 -287c-216 0 -243 154 -243 371s27 371 243 371c206 0 221 -151 221 -255zM126 756l78 144h144l78 -144h-106l-46 85l-48 -85h-100z" />
    <glyph glyph-name="Ccaron" unicode="&#x10c;" horiz-adv-x="537" 
d="M499 473h-144c0 104 -21 149 -86 149c-72 0 -90 -72 -90 -275c0 -216 30 -255 92 -255c51 0 90 26 90 181h144c0 -155 -38 -287 -227 -287c-216 0 -243 154 -243 371s27 371 243 371c206 0 221 -151 221 -255zM203 756l-78 144h106l46 -85l48 85h100l-78 -144h-144z" />
    <glyph glyph-name="Cdotaccent" unicode="&#x10a;" horiz-adv-x="537" 
d="M499 473h-144c0 104 -21 149 -86 149c-72 0 -90 -72 -90 -275c0 -216 30 -255 92 -255c51 0 90 26 90 181h144c0 -155 -38 -287 -227 -287c-216 0 -243 154 -243 371s27 371 243 371c206 0 221 -151 221 -255zM219 887h112v-118h-112v118z" />
    <glyph glyph-name="Ccedilla" unicode="&#xc7;" horiz-adv-x="537" 
d="M499 473h-144c0 104 -21 149 -86 149c-72 0 -90 -72 -90 -275c0 -216 30 -255 92 -255c51 0 90 26 90 181h144c0 -117 -21 -218 -112 -264c-26 -13 -59 -21 -98 -23l-29 -44c12 4 21 5 33 5c43 0 87 -25 84 -72c0 -59 -45 -92 -126 -92c-44 0 -84 10 -100 19l19 46
c15 -8 44 -15 69 -15c28 0 50 13 50 33s-17 31 -44 32c-15 0 -23 -2 -34 -6l-22 20l49 76c-39 3 -70 11 -95 25c-98 57 -114 179 -114 344c0 217 27 371 243 371c206 0 221 -151 221 -255z" />
    <glyph glyph-name="Dcaron" unicode="&#x10e;" horiz-adv-x="574" 
d="M201 608v-502h64c100 0 120 63 120 257c0 162 -14 245 -123 245h-61zM57 0v714h236c199 0 236 -136 236 -347c0 -252 -54 -367 -245 -367h-227zM184 756l-78 144h106l46 -85l48 85h100l-78 -144h-144z" />
    <glyph glyph-name="Dcroat" unicode="&#x110;" horiz-adv-x="574" 
d="M201 608v-187h93v-106h-93v-209h64c100 0 120 63 120 257c0 162 -14 245 -123 245h-61zM57 0v315h-57v106h57v293h236c199 0 236 -136 236 -347c0 -252 -54 -367 -245 -367h-227z" />
    <glyph glyph-name="Eth" unicode="&#xd0;" horiz-adv-x="574" 
d="M201 608v-187h93v-106h-93v-209h64c100 0 120 63 120 257c0 162 -14 245 -123 245h-61zM57 0v315h-57v106h57v293h236c199 0 236 -136 236 -347c0 -252 -54 -367 -245 -367h-227z" />
    <glyph glyph-name="Egrave" unicode="&#xc8;" horiz-adv-x="481" 
d="M50 714h399v-118h-255v-168h240v-118h-240v-192h265v-118h-409v714zM319 756h-94l-98 144h138z" />
    <glyph glyph-name="Eacute" unicode="&#xc9;" horiz-adv-x="481" 
d="M50 714h399v-118h-255v-168h240v-118h-240v-192h265v-118h-409v714zM199 756l54 144h138l-98 -144h-94z" />
    <glyph glyph-name="Ecircumflex" unicode="&#xca;" horiz-adv-x="481" 
d="M50 714h399v-118h-255v-168h240v-118h-240v-192h265v-118h-409v714zM101 756l78 144h144l78 -144h-106l-46 85l-48 -85h-100z" />
    <glyph glyph-name="Ecaron" unicode="&#x11a;" horiz-adv-x="481" 
d="M50 714h399v-118h-255v-168h240v-118h-240v-192h265v-118h-409v714zM181 756l-78 144h106l46 -85l48 85h100l-78 -144h-144z" />
    <glyph glyph-name="Edieresis" unicode="&#xcb;" horiz-adv-x="481" 
d="M50 714h399v-118h-255v-168h240v-118h-240v-192h265v-118h-409v714zM278 769v118h112v-118h-112zM106 769v118h112v-118h-112z" />
    <glyph glyph-name="Emacron" unicode="&#x112;" horiz-adv-x="481" 
d="M50 714h399v-118h-255v-168h240v-118h-240v-192h265v-118h-409v714zM104 866h294v-76h-294v76z" />
    <glyph glyph-name="Ebreve" unicode="&#x114;" horiz-adv-x="481" 
d="M50 714h399v-118h-255v-168h240v-118h-240v-192h265v-118h-409v714zM108 899h65c4 -39 35 -65 74 -65s70 26 74 65h65c0 -53 -32 -141 -139 -141c-108 0 -139 88 -139 141z" />
    <glyph glyph-name="Edotaccent" unicode="&#x116;" horiz-adv-x="481" 
d="M50 714h399v-118h-255v-168h240v-118h-240v-192h265v-118h-409v714zM196 887h112v-118h-112v118z" />
    <glyph glyph-name="Eogonek" unicode="&#x118;" horiz-adv-x="481" 
d="M429 -133l30 -49c-37 -27 -67 -35 -114 -35c-78 0 -96 43 -96 79c0 49 47 103 123 138h-322v714h399v-118h-255v-168h240v-118h-240v-192h265v-118h-20c-83 -60 -101 -91 -101 -122c0 -20 11 -31 28 -31c19 0 34 3 63 20z" />
    <glyph glyph-name="Gcircumflex" unicode="&#x11c;" horiz-adv-x="556" 
d="M505 502h-138c0 52 -23 120 -82 120c-69 0 -98 -71 -98 -250c0 -172 16 -280 99 -280c35 0 89 37 89 114v73h-95v106h233v-385h-106v66h-2c-35 -56 -82 -80 -150 -80c-177 0 -212 132 -212 379c0 240 56 363 240 363c157 0 222 -81 222 -226zM137 756l78 144h144l78 -144
h-106l-46 85l-48 -85h-100z" />
    <glyph glyph-name="Gbreve" unicode="&#x11e;" horiz-adv-x="556" 
d="M505 502h-138c0 52 -23 120 -82 120c-69 0 -98 -71 -98 -250c0 -172 16 -280 99 -280c35 0 89 37 89 114v73h-95v106h233v-385h-106v66h-2c-35 -56 -82 -80 -150 -80c-177 0 -212 132 -212 379c0 240 56 363 240 363c157 0 222 -81 222 -226zM145 899h65
c4 -39 35 -65 74 -65s70 26 74 65h65c0 -53 -32 -141 -139 -141c-108 0 -139 88 -139 141z" />
    <glyph glyph-name="Gdotaccent" unicode="&#x120;" horiz-adv-x="556" 
d="M505 502h-138c0 52 -23 120 -82 120c-69 0 -98 -71 -98 -250c0 -172 16 -280 99 -280c35 0 89 37 89 114v73h-95v106h233v-385h-106v66h-2c-35 -56 -82 -80 -150 -80c-177 0 -212 132 -212 379c0 240 56 363 240 363c157 0 222 -81 222 -226zM230 887h112v-118h-112v118z
" />
    <glyph glyph-name="Gcommaaccent" unicode="&#x122;" horiz-adv-x="556" 
d="M505 502h-138c0 52 -23 120 -82 120c-69 0 -98 -71 -98 -250c0 -172 16 -280 99 -280c35 0 89 37 89 114v73h-95v106h233v-385h-106v66h-2c-35 -56 -82 -80 -150 -80c-177 0 -212 132 -212 379c0 240 56 363 240 363c157 0 222 -81 222 -226zM225 -50h112v-97
c0 -91 -51 -100 -97 -106v36c23 7 35 18 36 49h-51v118z" />
    <glyph glyph-name="Hcircumflex" unicode="&#x124;" horiz-adv-x="556" 
d="M50 0v714h144v-273h168v273h144v-714h-144v317h-168v-317h-144zM129 756l78 144h144l78 -144h-106l-46 85l-48 -85h-100z" />
    <glyph glyph-name="Hbar" unicode="&#x126;" horiz-adv-x="556" 
d="M50 0v714h144v-146h168v146h144v-714h-144v300h-168v-300h-144zM194 420h168v87h-168v-87z" />
    <glyph glyph-name="Igrave" unicode="&#xcc;" horiz-adv-x="258" 
d="M201 0h-144v714h144v-714zM202 756h-94l-98 144h138z" />
    <glyph glyph-name="Iacute" unicode="&#xcd;" horiz-adv-x="258" 
d="M201 0h-144v714h144v-714zM58 756l54 144h138l-98 -144h-94z" />
    <glyph glyph-name="Ibreve" unicode="&#x12c;" horiz-adv-x="258" 
d="M201 0h-144v714h144v-714zM-10 921h65c4 -39 35 -65 74 -65s70 26 74 65h65c0 -53 -32 -141 -139 -141c-108 0 -139 88 -139 141z" />
    <glyph glyph-name="Icircumflex" unicode="&#xce;" horiz-adv-x="258" 
d="M201 0h-144v714h144v-714zM-19 756l78 144h144l78 -144h-106l-46 85l-48 -85h-100z" />
    <glyph glyph-name="Itilde" unicode="&#x128;" horiz-adv-x="258" 
d="M201 0h-144v714h144v-714zM43 765h-70c11 79 42 124 93 124c43 0 88 -34 121 -34c19 0 28 23 28 36h72c-7 -72 -42 -124 -93 -124c-42 0 -87 34 -119 34c-17 0 -27 -12 -32 -36z" />
    <glyph glyph-name="Idieresis" unicode="&#xcf;" horiz-adv-x="258" 
d="M201 0h-144v714h144v-714zM160 769v118h112v-118h-112zM-12 769v118h112v-118h-112z" />
    <glyph glyph-name="Imacron" unicode="&#x12a;" horiz-adv-x="258" 
d="M201 0h-144v714h144v-714zM-17 866h294v-76h-294v76z" />
    <glyph glyph-name="Idotaccent" unicode="&#x130;" horiz-adv-x="258" 
d="M201 0h-144v714h144v-714zM73 887h112v-118h-112v118z" />
    <glyph glyph-name="Iogonek" unicode="&#x12e;" horiz-adv-x="258" 
d="M191 -133l30 -49c-37 -27 -67 -35 -114 -35c-78 0 -96 43 -96 79c0 49 47 103 123 138h-77v714h144v-714c-83 -60 -101 -91 -101 -122c0 -20 11 -31 28 -31c19 0 34 3 63 20z" />
    <glyph glyph-name="Jcircumflex" unicode="&#x134;" horiz-adv-x="463" 
d="M275 714h144v-514c0 -152 -70 -214 -215 -214c-152 0 -189 97 -189 209v31h132v-22c0 -76 12 -112 64 -112s64 36 64 112v510zM196 756l78 144h144l78 -144h-106l-46 85l-48 -85h-100z" />
    <glyph glyph-name="Kcommaaccent" unicode="&#x136;" horiz-adv-x="537" 
d="M50 714h144v-286h2l182 286h156l-194 -306l216 -408h-162l-147 293l-53 -81v-212h-144v714zM233 -50h112v-97c0 -91 -51 -100 -97 -106v36c23 7 35 18 36 49h-51v118z" />
    <glyph glyph-name="Lacute" unicode="&#x139;" horiz-adv-x="463" 
d="M449 0h-399v714h144v-596h255v-118zM70 756l54 144h138l-98 -144h-94z" />
    <glyph glyph-name="Lcaron" unicode="&#x13d;" horiz-adv-x="463" 
d="M449 0h-399v714h144v-596h255v-118zM245 570l33 144h120l-63 -144h-90z" />
    <glyph glyph-name="Lcommaaccent" unicode="&#x13b;" horiz-adv-x="463" 
d="M449 0h-399v714h144v-596h255v-118zM197 -50h112v-97c0 -91 -51 -100 -97 -106v36c23 7 35 18 36 49h-51v118z" />
    <glyph glyph-name="Lslash" unicode="&#x141;" horiz-adv-x="463" 
d="M50 0v256l-50 -31v106l50 31v352h144v-262l126 79v-106l-126 -79v-228h255v-118h-399z" />
    <glyph glyph-name="Ldot" unicode="&#x13f;" horiz-adv-x="463" 
d="M449 0h-399v714h144v-596h255v-118zM267 448h112v-118h-112v118z" />
    <glyph glyph-name="Nacute" unicode="&#x143;" horiz-adv-x="574" 
d="M50 714h166l174 -489h2v489h132v-714h-164l-176 500h-2v-500h-132v714zM238 756l54 144h138l-98 -144h-94z" />
    <glyph glyph-name="Ncaron" unicode="&#x147;" horiz-adv-x="574" 
d="M50 714h166l174 -489h2v489h132v-714h-164l-176 500h-2v-500h-132v714zM215 756l-78 144h106l46 -85l48 85h100l-78 -144h-144z" />
    <glyph glyph-name="Ntilde" unicode="&#xd1;" horiz-adv-x="574" 
d="M50 714h166l174 -489h2v489h132v-714h-164l-176 500h-2v-500h-132v714zM202 765h-70c11 79 42 124 93 124c43 0 88 -34 121 -34c19 0 28 23 28 36h72c-7 -72 -42 -124 -93 -124c-42 0 -87 34 -119 34c-17 0 -27 -12 -32 -36z" />
    <glyph glyph-name="Ncommaaccent" unicode="&#x145;" horiz-adv-x="574" 
d="M50 714h166l174 -489h2v489h132v-714h-164l-176 500h-2v-500h-132v714zM232 -50h112v-97c0 -91 -51 -100 -97 -106v36c23 7 35 18 36 49h-51v118z" />
    <glyph glyph-name="Ograve" unicode="&#xd2;" horiz-adv-x="556" 
d="M35 357c0 217 27 371 243 371s243 -154 243 -371s-27 -371 -243 -371s-243 154 -243 371zM179 357c0 -192 14 -265 99 -265s99 73 99 265c0 191 -14 265 -99 265s-99 -74 -99 -265zM340 756h-94l-98 144h138z" />
    <glyph glyph-name="Oacute" unicode="&#xd3;" horiz-adv-x="556" 
d="M35 357c0 217 27 371 243 371s243 -154 243 -371s-27 -371 -243 -371s-243 154 -243 371zM179 357c0 -192 14 -265 99 -265s99 73 99 265c0 191 -14 265 -99 265s-99 -74 -99 -265zM227 756l54 144h138l-98 -144h-94z" />
    <glyph glyph-name="Ocircumflex" unicode="&#xd4;" horiz-adv-x="556" 
d="M35 357c0 217 27 371 243 371s243 -154 243 -371s-27 -371 -243 -371s-243 154 -243 371zM179 357c0 -192 14 -265 99 -265s99 73 99 265c0 191 -14 265 -99 265s-99 -74 -99 -265zM130 756l78 144h144l78 -144h-106l-46 85l-48 -85h-100z" />
    <glyph glyph-name="Otilde" unicode="&#xd5;" horiz-adv-x="556" 
d="M35 357c0 217 27 371 243 371s243 -154 243 -371s-27 -371 -243 -371s-243 154 -243 371zM179 357c0 -192 14 -265 99 -265s99 73 99 265c0 191 -14 265 -99 265s-99 -74 -99 -265zM190 765h-70c11 79 42 124 93 124c43 0 88 -34 121 -34c19 0 28 23 28 36h72
c-7 -72 -42 -124 -93 -124c-42 0 -87 34 -119 34c-17 0 -27 -12 -32 -36z" />
    <glyph glyph-name="Odieresis" unicode="&#xd6;" horiz-adv-x="556" 
d="M35 357c0 217 27 371 243 371s243 -154 243 -371s-27 -371 -243 -371s-243 154 -243 371zM179 357c0 -192 14 -265 99 -265s99 73 99 265c0 191 -14 265 -99 265s-99 -74 -99 -265zM309 769v118h112v-118h-112zM137 769v118h112v-118h-112z" />
    <glyph glyph-name="Omacron" unicode="&#x14c;" horiz-adv-x="556" 
d="M35 357c0 217 27 371 243 371s243 -154 243 -371s-27 -371 -243 -371s-243 154 -243 371zM179 357c0 -192 14 -265 99 -265s99 73 99 265c0 191 -14 265 -99 265s-99 -74 -99 -265zM130 866h294v-76h-294v76z" />
    <glyph glyph-name="Obreve" unicode="&#x14e;" horiz-adv-x="556" 
d="M35 357c0 217 27 371 243 371s243 -154 243 -371s-27 -371 -243 -371s-243 154 -243 371zM179 357c0 -192 14 -265 99 -265s99 73 99 265c0 191 -14 265 -99 265s-99 -74 -99 -265zM138 899h65c4 -39 35 -65 74 -65s70 26 74 65h65c0 -53 -32 -141 -139 -141
c-108 0 -139 88 -139 141z" />
    <glyph glyph-name="Ohungarumlaut" unicode="&#x150;" horiz-adv-x="556" 
d="M35 357c0 217 27 371 243 371s243 -154 243 -371s-27 -371 -243 -371s-243 154 -243 371zM179 357c0 -192 14 -265 99 -265s99 73 99 265c0 191 -14 265 -99 265s-99 -74 -99 -265zM310 756l54 144h138l-98 -144h-94zM144 756l54 144h138l-98 -144h-94z" />
    <glyph glyph-name="Oslash" unicode="&#xd8;" horiz-adv-x="556" 
d="M83 -30l30 70c-67 61 -78 176 -78 317c0 217 27 371 243 371c49 0 89 -8 121 -24l26 61l48 -21l-30 -70c67 -61 78 -176 78 -317c0 -217 -27 -371 -243 -371c-50 0 -90 8 -121 24l-26 -61zM369 505l-161 -376c13 -25 37 -37 70 -37c85 0 99 73 99 265c0 61 -1 109 -6 148
h-2zM187 209l161 377c-15 24 -38 36 -70 36c-85 0 -99 -74 -99 -265c0 -63 1 -111 6 -148h2z" />
    <glyph glyph-name="Oslashacute" unicode="&#x1fe;" horiz-adv-x="556" 
d="M83 -30l30 70c-67 61 -78 176 -78 317c0 217 27 371 243 371c49 0 89 -8 121 -24l26 61l48 -21l-30 -70c67 -61 78 -176 78 -317c0 -217 -27 -371 -243 -371c-50 0 -90 8 -121 24l-26 -61zM369 505l-161 -376c13 -25 37 -37 70 -37c85 0 99 73 99 265c0 61 -1 109 -6 148
h-2zM187 209l161 377c-15 24 -38 36 -70 36c-85 0 -99 -74 -99 -265c0 -63 1 -111 6 -148h2zM227 756l54 144h138l-98 -144h-94z" />
    <glyph glyph-name="OE" unicode="&#x152;" horiz-adv-x="778" 
d="M179 357c0 -190 11 -265 99 -265c85 0 90 64 90 265s-5 265 -90 265c-88 0 -99 -75 -99 -265zM748 714v-118h-242v-168h227v-118h-227v-192h250v-118h-373v41h-2c-16 -35 -75 -55 -123 -55c-209 0 -223 189 -223 379c0 185 29 363 216 363c51 0 106 -12 130 -52h2v38h365
z" />
    <glyph glyph-name="Racute" unicode="&#x154;" horiz-adv-x="556" 
d="M50 0v714h266c119 0 190 -61 190 -184c0 -96 -38 -159 -119 -176v-2c98 -13 112 -67 115 -218c1 -76 5 -113 32 -128v-6h-156c-15 20 -17 59 -19 97l-3 115c-2 56 -26 90 -85 90h-77v-302h-144zM194 608v-206h60c69 0 108 30 108 107c0 66 -33 99 -100 99h-68zM195 756
l54 144h138l-98 -144h-94z" />
    <glyph glyph-name="Rcaron" unicode="&#x158;" horiz-adv-x="556" 
d="M50 0v714h266c119 0 190 -61 190 -184c0 -96 -38 -159 -119 -176v-2c98 -13 112 -67 115 -218c1 -76 5 -113 32 -128v-6h-156c-15 20 -17 59 -19 97l-3 115c-2 56 -26 90 -85 90h-77v-302h-144zM194 608v-206h60c69 0 108 30 108 107c0 66 -33 99 -100 99h-68zM186 756
l-78 144h106l46 -85l48 85h100l-78 -144h-144z" />
    <glyph glyph-name="Rcommaaccent" unicode="&#x156;" horiz-adv-x="556" 
d="M50 0v714h266c119 0 190 -61 190 -184c0 -96 -38 -159 -119 -176v-2c98 -13 112 -67 115 -218c1 -76 5 -113 32 -128v-6h-156c-15 20 -17 59 -19 97l-3 115c-2 56 -26 90 -85 90h-77v-302h-144zM194 608v-206h60c69 0 108 30 108 107c0 66 -33 99 -100 99h-68zM230 -50
h112v-97c0 -91 -51 -100 -97 -106v36c23 7 35 18 36 49h-51v118z" />
    <glyph glyph-name="Sacute" unicode="&#x15a;" horiz-adv-x="519" 
d="M22 223h144v-21c0 -67 19 -110 95 -110c44 0 86 28 86 88c0 43 -12 74 -54 91l-107 43c-105 42 -154 97 -154 204c0 140 84 210 221 210c128 0 221 -55 221 -192v-20h-138c0 68 -22 106 -78 106c-65 0 -82 -40 -82 -83c0 -44 13 -71 74 -97l111 -48
c108 -48 136 -101 136 -189c0 -151 -92 -219 -248 -219c-163 0 -227 76 -227 208v29zM207 756l54 144h138l-98 -144h-94z" />
    <glyph glyph-name="Scircumflex" unicode="&#x15c;" horiz-adv-x="519" 
d="M22 223h144v-21c0 -67 19 -110 95 -110c44 0 86 28 86 88c0 43 -12 74 -54 91l-107 43c-105 42 -154 97 -154 204c0 140 84 210 221 210c128 0 221 -55 221 -192v-20h-138c0 68 -22 106 -78 106c-65 0 -82 -40 -82 -83c0 -44 13 -71 74 -97l111 -48
c108 -48 136 -101 136 -189c0 -151 -92 -219 -248 -219c-163 0 -227 76 -227 208v29zM109 756l78 144h144l78 -144h-106l-46 85l-48 -85h-100z" />
    <glyph glyph-name="Scaron" unicode="&#x160;" horiz-adv-x="519" 
d="M22 223h144v-21c0 -67 19 -110 95 -110c44 0 86 28 86 88c0 43 -12 74 -54 91l-107 43c-105 42 -154 97 -154 204c0 140 84 210 221 210c128 0 221 -55 221 -192v-20h-138c0 68 -22 106 -78 106c-65 0 -82 -40 -82 -83c0 -44 13 -71 74 -97l111 -48
c108 -48 136 -101 136 -189c0 -151 -92 -219 -248 -219c-163 0 -227 76 -227 208v29zM185 758l-78 144h106l46 -85l48 85h100l-78 -144h-144z" />
    <glyph glyph-name="Scedilla" unicode="&#x15e;" horiz-adv-x="519" 
d="M22 223h144v-21c0 -67 19 -110 95 -110c44 0 86 28 86 88c0 44 -13 75 -56 93l-97 40c-110 45 -162 95 -162 205c0 140 84 210 221 210c128 0 221 -55 221 -192v-20h-138c0 68 -22 106 -78 106c-65 0 -82 -40 -82 -83c0 -44 13 -71 74 -97l111 -48
c108 -48 136 -101 136 -189c0 -75 -22 -131 -66 -166c-41 -33 -96 -50 -166 -53l-29 -44c12 4 21 5 33 5c43 0 87 -25 84 -72c0 -59 -45 -92 -126 -92c-44 0 -84 10 -100 19l19 46c15 -8 44 -15 69 -15c28 0 50 13 50 33s-17 31 -44 32c-15 0 -23 -2 -34 -6l-22 20l48 75
c-63 5 -109 23 -139 53c-35 37 -52 88 -52 154v29z" />
    <glyph glyph-name="Scommaaccent" unicode="&#x218;" horiz-adv-x="519" 
d="M22 223h144v-21c0 -67 19 -110 95 -110c44 0 86 28 86 88c0 43 -12 74 -54 91l-107 43c-105 42 -154 97 -154 204c0 140 84 210 221 210c128 0 221 -55 221 -192v-20h-138c0 68 -22 106 -78 106c-65 0 -82 -40 -82 -83c0 -44 13 -71 74 -97l111 -48
c108 -48 136 -101 136 -189c0 -151 -92 -219 -248 -219c-163 0 -227 76 -227 208v29zM198 -50h112v-97c0 -91 -51 -100 -97 -106v36c23 7 35 18 36 49h-51v118z" />
    <glyph glyph-name="Tcaron" unicode="&#x164;" horiz-adv-x="480" 
d="M12 714h456v-118h-156v-596h-144v596h-156v118zM169 756l-78 144h106l46 -85l48 85h100l-78 -144h-144z" />
    <glyph glyph-name="Tcommaaccent" unicode="&#x162;" horiz-adv-x="480" 
d="M12 714h456v-118h-156v-596h-144v596h-156v118zM185 -50h112v-97c0 -91 -51 -100 -97 -106v36c23 7 35 18 36 49h-51v118z" />
    <glyph glyph-name="uni021A" unicode="&#x21a;" horiz-adv-x="480" 
d="M12 714h456v-118h-156v-596h-144v596h-156v118zM185 -50h112v-97c0 -91 -51 -100 -97 -106v36c23 7 35 18 36 49h-51v118z" />
    <glyph glyph-name="Tbar" unicode="&#x166;" horiz-adv-x="480" 
d="M12 714h456v-118h-156v-130h108v-61h-108v-405h-144v405h-108v61h108v130h-156v118z" />
    <glyph glyph-name="Thorn" unicode="&#xde;" horiz-adv-x="519" 
d="M194 480v-217h64c57 0 96 34 96 107c0 71 -28 110 -100 110h-60zM50 0v714h144v-128h108c147 0 196 -107 196 -214c0 -148 -91 -215 -227 -215h-77v-157h-144z" />
    <glyph glyph-name="Ugrave" unicode="&#xd9;" horiz-adv-x="538" 
d="M41 714h144v-498c0 -71 16 -124 84 -124s84 53 84 124v498h144v-498c0 -181 -111 -230 -228 -230s-228 39 -228 230v498zM333 756h-94l-98 144h138z" />
    <glyph glyph-name="Uacute" unicode="&#xda;" horiz-adv-x="538" 
d="M41 714h144v-498c0 -71 16 -124 84 -124s84 53 84 124v498h144v-498c0 -181 -111 -230 -228 -230s-228 39 -228 230v498zM220 756l54 144h138l-98 -144h-94z" />
    <glyph glyph-name="Ucircumflex" unicode="&#xdb;" horiz-adv-x="538" 
d="M41 714h144v-498c0 -71 16 -124 84 -124s84 53 84 124v498h144v-498c0 -181 -111 -230 -228 -230s-228 39 -228 230v498zM120 756l78 144h144l78 -144h-106l-46 85l-48 -85h-100z" />
    <glyph glyph-name="Utilde" unicode="&#x168;" horiz-adv-x="538" 
d="M41 714h144v-498c0 -71 16 -124 84 -124s84 53 84 124v498h144v-498c0 -181 -111 -230 -228 -230s-228 39 -228 230v498zM185 765h-70c11 79 42 124 93 124c43 0 88 -34 121 -34c19 0 28 23 28 36h72c-7 -72 -42 -124 -93 -124c-42 0 -87 34 -119 34
c-17 0 -27 -12 -32 -36z" />
    <glyph glyph-name="Udieresis" unicode="&#xdc;" horiz-adv-x="538" 
d="M41 714h144v-498c0 -71 16 -124 84 -124s84 53 84 124v498h144v-498c0 -181 -111 -230 -228 -230s-228 39 -228 230v498zM299 769v118h112v-118h-112zM127 769v118h112v-118h-112z" />
    <glyph glyph-name="Umacron" unicode="&#x16a;" horiz-adv-x="538" 
d="M41 714h144v-498c0 -71 16 -124 84 -124s84 53 84 124v498h144v-498c0 -181 -111 -230 -228 -230s-228 39 -228 230v498zM123 866h294v-76h-294v76z" />
    <glyph glyph-name="Ubreve" unicode="&#x16c;" horiz-adv-x="538" 
d="M41 714h144v-498c0 -71 16 -124 84 -124s84 53 84 124v498h144v-498c0 -181 -111 -230 -228 -230s-228 39 -228 230v498zM131 899h65c4 -39 35 -65 74 -65s70 26 74 65h65c0 -53 -32 -141 -139 -141c-108 0 -139 88 -139 141z" />
    <glyph glyph-name="Uring" unicode="&#x16e;" horiz-adv-x="538" 
d="M41 714h144v-498c0 -71 16 -124 84 -124s84 53 84 124v498h144v-498c0 -181 -111 -230 -228 -230s-228 39 -228 230v498zM213 844c0 -32 25 -57 57 -57s57 25 57 57s-25 57 -57 57s-57 -25 -57 -57zM157 844c0 65 51 110 113 110s113 -45 113 -110
c0 -66 -51 -108 -113 -108c-64 0 -113 42 -113 108z" />
    <glyph glyph-name="Uhungarumlaut" unicode="&#x170;" horiz-adv-x="538" 
d="M41 714h144v-498c0 -71 16 -124 84 -124s84 53 84 124v498h144v-498c0 -181 -111 -230 -228 -230s-228 39 -228 230v498zM304 756l54 144h138l-98 -144h-94zM138 756l54 144h138l-98 -144h-94z" />
    <glyph glyph-name="Uogonek" unicode="&#x172;" horiz-adv-x="538" 
d="M338 -133l30 -49c-37 -27 -67 -35 -114 -35c-78 0 -96 43 -96 79c0 25 11 50 33 75c16 19 37 35 62 49c-24 1 -47 4 -69 9c-81 18 -143 80 -143 221v498h144v-498c0 -71 16 -124 84 -124s84 53 84 124v498h144v-498c0 -135 -62 -199 -143 -219l-17 -4
c-17 -13 -30 -24 -40 -33c-38 -36 -50 -58 -50 -82c0 -20 11 -31 28 -31c19 0 34 3 63 20z" />
    <glyph glyph-name="Wacute" unicode="&#x1e82;" horiz-adv-x="760" 
d="M138 0l-130 714h138l79 -528h2l84 528h138l84 -528h2l79 528h138l-130 -714h-161l-80 518h-2l-80 -518h-161zM335 778l54 144h138l-98 -144h-94z" />
    <glyph glyph-name="Wcircumflex" unicode="&#x174;" horiz-adv-x="760" 
d="M138 0l-130 714h138l79 -528h2l84 528h138l84 -528h2l79 528h138l-130 -714h-161l-80 518h-2l-80 -518h-161zM230 756l78 144h144l78 -144h-106l-46 85l-48 -85h-100z" />
    <glyph glyph-name="Wdieresis" unicode="&#x1e84;" horiz-adv-x="760" 
d="M138 0l-130 714h138l79 -528h2l84 528h138l84 -528h2l79 528h138l-130 -714h-161l-80 518h-2l-80 -518h-161zM410 791v118h112v-118h-112zM238 791v118h112v-118h-112z" />
    <glyph glyph-name="Wgrave" unicode="&#x1e80;" horiz-adv-x="760" 
d="M138 0l-130 714h138l79 -528h2l84 528h138l84 -528h2l79 528h138l-130 -714h-161l-80 518h-2l-80 -518h-161zM436 778h-94l-98 144h138z" />
    <glyph glyph-name="Yacute" unicode="&#xdd;" horiz-adv-x="520" 
d="M3 714h162l94 -276h2l100 276h156l-185 -433v-281h-144v281zM216 758l54 144h138l-98 -144h-94z" />
    <glyph glyph-name="Ycircumflex" unicode="&#x176;" horiz-adv-x="520" 
d="M3 714h162l94 -276h2l100 276h156l-185 -433v-281h-144v281zM113 756l78 144h144l78 -144h-106l-46 85l-48 -85h-100z" />
    <glyph glyph-name="Ydieresis" unicode="&#x178;" horiz-adv-x="520" 
d="M3 714h162l94 -276h2l100 276h156l-185 -433v-281h-144v281zM290 769v118h112v-118h-112zM118 769v118h112v-118h-112z" />
    <glyph glyph-name="Ygrave" unicode="&#x1ef2;" horiz-adv-x="520" 
d="M3 714h162l94 -276h2l100 276h156l-185 -433v-281h-144v281zM308 778h-94l-98 144h138z" />
    <glyph glyph-name="Zacute" unicode="&#x179;" horiz-adv-x="481" 
d="M24 0v105l263 491h-245v118h411v-109l-267 -487h271v-118h-433zM192 756l54 144h138l-98 -144h-94z" />
    <glyph glyph-name="Zcaron" unicode="&#x17d;" horiz-adv-x="481" 
d="M24 0v105l263 491h-245v118h411v-109l-267 -487h271v-118h-433zM180 758l-78 144h106l46 -85l48 85h100l-78 -144h-144z" />
    <glyph glyph-name="Zdotaccent" unicode="&#x17b;" horiz-adv-x="481" 
d="M24 0v105l263 491h-245v118h411v-109l-267 -487h271v-118h-433zM191 887h112v-118h-112v118z" />
    <glyph glyph-name="agrave" unicode="&#xe0;" horiz-adv-x="481" 
d="M169 373h-124v13c0 124 85 166 189 166c164 0 195 -68 195 -165v-283c0 -51 4 -72 17 -104h-132c-9 17 -13 37 -17 56h-2c-32 -56 -70 -70 -137 -70c-96 0 -130 82 -130 154c0 102 41 142 144 170l63 17c48 13 62 29 62 65c0 41 -17 66 -64 66c-43 0 -64 -27 -64 -70v-15
zM297 163v108c-14 -11 -30 -19 -47 -25l-30 -11c-52 -19 -60 -47 -60 -80c0 -41 15 -75 52 -75s85 23 85 83zM308 602h-94l-98 144h138z" />
    <glyph glyph-name="aacute" unicode="&#xe1;" horiz-adv-x="481" 
d="M169 373h-124v13c0 124 85 166 189 166c164 0 195 -68 195 -165v-283c0 -51 4 -72 17 -104h-132c-9 17 -13 37 -17 56h-2c-32 -56 -70 -70 -137 -70c-96 0 -130 82 -130 154c0 102 41 142 144 170l63 17c48 13 62 29 62 65c0 41 -17 66 -64 66c-43 0 -64 -27 -64 -70v-15
zM297 163v108c-14 -11 -30 -19 -47 -25l-30 -11c-52 -19 -60 -47 -60 -80c0 -41 15 -75 52 -75s85 23 85 83zM190 602l54 144h138l-98 -144h-94z" />
    <glyph glyph-name="acircumflex" unicode="&#xe2;" horiz-adv-x="481" 
d="M169 373h-124v13c0 124 85 166 189 166c164 0 195 -68 195 -165v-283c0 -51 4 -72 17 -104h-132c-9 17 -13 37 -17 56h-2c-32 -56 -70 -70 -137 -70c-96 0 -130 82 -130 154c0 102 41 142 144 170l63 17c48 13 62 29 62 65c0 41 -17 66 -64 66c-43 0 -64 -27 -64 -70v-15
zM297 163v108c-14 -11 -30 -19 -47 -25l-30 -11c-52 -19 -60 -47 -60 -80c0 -41 15 -75 52 -75s85 23 85 83zM90 602l78 144h144l78 -144h-106l-46 85l-48 -85h-100z" />
    <glyph glyph-name="atilde" unicode="&#xe3;" horiz-adv-x="481" 
d="M169 373h-124v13c0 124 85 166 189 166c164 0 195 -68 195 -165v-283c0 -51 4 -72 17 -104h-132c-9 17 -13 37 -17 56h-2c-32 -56 -70 -70 -137 -70c-96 0 -130 82 -130 154c0 102 41 142 144 170l63 17c48 13 62 29 62 65c0 41 -17 66 -64 66c-43 0 -64 -27 -64 -70v-15
zM297 163v108c-14 -11 -30 -19 -47 -25l-30 -11c-52 -19 -60 -47 -60 -80c0 -41 15 -75 52 -75s85 23 85 83zM155 611h-70c11 79 42 124 93 124c43 0 88 -34 121 -34c19 0 28 23 28 36h72c-7 -72 -42 -124 -93 -124c-42 0 -87 34 -119 34c-17 0 -27 -12 -32 -36z" />
    <glyph glyph-name="adieresis" unicode="&#xe4;" horiz-adv-x="481" 
d="M169 373h-124v13c0 124 85 166 189 166c164 0 195 -68 195 -165v-283c0 -51 4 -72 17 -104h-132c-9 17 -13 37 -17 56h-2c-32 -56 -70 -70 -137 -70c-96 0 -130 82 -130 154c0 102 41 142 144 170l63 17c48 13 62 29 62 65c0 41 -17 66 -64 66c-43 0 -64 -27 -64 -70v-15
zM297 163v108c-14 -11 -30 -19 -47 -25l-30 -11c-52 -19 -60 -47 -60 -80c0 -41 15 -75 52 -75s85 23 85 83zM271 615v118h112v-118h-112zM99 615v118h112v-118h-112z" />
    <glyph glyph-name="amacron" unicode="&#x101;" horiz-adv-x="481" 
d="M169 373h-124v13c0 124 85 166 189 166c164 0 195 -68 195 -165v-283c0 -51 4 -72 17 -104h-132c-9 17 -13 37 -17 56h-2c-32 -56 -70 -70 -137 -70c-96 0 -130 82 -130 154c0 102 41 142 144 170l63 17c48 13 62 29 62 65c0 41 -17 66 -64 66c-43 0 -64 -27 -64 -70v-15
zM297 163v108c-14 -11 -30 -19 -47 -25l-30 -11c-52 -19 -60 -47 -60 -80c0 -41 15 -75 52 -75s85 23 85 83zM96 712h294v-76h-294v76z" />
    <glyph glyph-name="abreve" unicode="&#x103;" horiz-adv-x="481" 
d="M169 373h-124v13c0 124 85 166 189 166c164 0 195 -68 195 -165v-283c0 -51 4 -72 17 -104h-132c-9 17 -13 37 -17 56h-2c-32 -56 -70 -70 -137 -70c-96 0 -130 82 -130 154c0 102 41 142 144 170l63 17c48 13 62 29 62 65c0 41 -17 66 -64 66c-43 0 -64 -27 -64 -70v-15
zM297 163v108c-14 -11 -30 -19 -47 -25l-30 -11c-52 -19 -60 -47 -60 -80c0 -41 15 -75 52 -75s85 23 85 83zM105 745h65c4 -39 35 -65 74 -65s70 26 74 65h65c0 -53 -32 -141 -139 -141c-108 0 -139 88 -139 141z" />
    <glyph glyph-name="aring" unicode="&#xe5;" horiz-adv-x="481" 
d="M169 373h-124v13c0 124 85 166 189 166c164 0 195 -68 195 -165v-283c0 -51 4 -72 17 -104h-132c-9 17 -13 37 -17 56h-2c-32 -56 -70 -70 -137 -70c-96 0 -130 82 -130 154c0 102 41 142 144 170l63 17c48 13 62 29 62 65c0 41 -17 66 -64 66c-43 0 -64 -27 -64 -70v-15
zM297 163v108c-14 -11 -30 -19 -47 -25l-30 -11c-52 -19 -60 -47 -60 -80c0 -41 15 -75 52 -75s85 23 85 83zM180 690c0 -32 25 -57 57 -57s57 25 57 57s-25 57 -57 57s-57 -25 -57 -57zM124 690c0 65 51 110 113 110s113 -45 113 -110c0 -66 -51 -108 -113 -108
c-64 0 -113 42 -113 108z" />
    <glyph glyph-name="aringacute" unicode="&#x1fb;" horiz-adv-x="481" 
d="M204 802l44 119h138l-88 -119h-94zM206 676c0 -26 20 -46 46 -46s46 20 46 46s-20 46 -46 46s-46 -20 -46 -46zM150 676c0 59 46 99 102 99s102 -40 102 -99s-46 -97 -102 -97c-58 0 -102 38 -102 97zM169 373h-124v13c0 124 85 166 189 166c164 0 195 -68 195 -165v-283
c0 -51 4 -72 17 -104h-132c-9 17 -13 37 -17 56h-2c-32 -56 -70 -70 -137 -70c-96 0 -130 82 -130 154c0 102 41 142 144 170l63 17c48 13 62 29 62 65c0 41 -17 66 -64 66c-43 0 -64 -27 -64 -70v-15zM297 163v108c-14 -11 -30 -19 -47 -25l-30 -11
c-52 -19 -60 -47 -60 -80c0 -41 15 -75 52 -75s85 23 85 83z" />
    <glyph glyph-name="aogonek" unicode="&#x105;" horiz-adv-x="481" 
d="M169 373h-124v13c0 124 85 166 189 166c164 0 195 -68 195 -165v-283c0 -51 4 -72 17 -104h-69c-31 -28 -77 -75 -77 -122c0 -20 9 -31 25 -31c17 0 30 3 57 20l27 -49c-35 -27 -60 -35 -103 -35c-70 0 -86 43 -86 79c0 49 42 99 93 140c-9 16 -12 35 -16 54h-2
c-32 -56 -70 -70 -137 -70c-96 0 -130 82 -130 154c0 102 41 142 144 170l63 17c48 13 62 29 62 65c0 41 -17 66 -64 66c-43 0 -64 -27 -64 -70v-15zM297 163v108c-14 -11 -30 -19 -47 -25l-30 -11c-52 -19 -60 -47 -60 -80c0 -41 15 -75 52 -75s85 23 85 83z" />
    <glyph glyph-name="ae" unicode="&#xe6;" horiz-adv-x="722" 
d="M168 373h-124v13c0 124 85 166 189 166c72 0 110 -15 139 -64c20 41 68 64 127 64c160 0 196 -108 196 -273v-31h-271v-43c0 -64 17 -125 67 -125c45 0 64 34 72 101h124c-5 -125 -65 -195 -194 -195c-99 0 -144 46 -162 93c-39 -73 -92 -93 -161 -93
c-109 0 -143 82 -143 154c0 102 41 142 136 168l78 21c41 11 55 27 55 63c0 41 -17 66 -64 66c-43 0 -64 -27 -64 -70v-15zM424 330h139c-3 83 -13 128 -69 128c-53 0 -70 -56 -70 -107v-21zM297 163v108c-14 -11 -30 -19 -47 -25l-30 -11c-52 -19 -60 -47 -60 -80
c0 -41 15 -75 52 -75s85 23 85 83z" />
    <glyph glyph-name="aeacute" unicode="&#x1fd;" horiz-adv-x="722" 
d="M168 373h-124v13c0 124 85 166 189 166c72 0 110 -15 139 -64c20 41 68 64 127 64c160 0 196 -108 196 -273v-31h-271v-43c0 -64 17 -125 67 -125c45 0 64 34 72 101h124c-5 -125 -65 -195 -194 -195c-99 0 -144 46 -162 93c-39 -73 -92 -93 -161 -93
c-109 0 -143 82 -143 154c0 102 41 142 136 168l78 21c41 11 55 27 55 63c0 41 -17 66 -64 66c-43 0 -64 -27 -64 -70v-15zM424 330h139c-3 83 -13 128 -69 128c-53 0 -70 -56 -70 -107v-21zM297 163v108c-14 -11 -30 -19 -47 -25l-30 -11c-52 -19 -60 -47 -60 -80
c0 -41 15 -75 52 -75s85 23 85 83zM322 602l54 144h138l-98 -144h-94z" />
    <glyph glyph-name="cacute" unicode="&#x107;" horiz-adv-x="463" 
d="M437 344h-132c0 52 -10 108 -62 108c-68 0 -79 -60 -79 -184c0 -133 13 -188 74 -188c47 0 67 38 67 126h132c0 -141 -58 -220 -205 -220c-138 0 -206 67 -206 283c0 221 90 283 218 283s193 -80 193 -208zM191 602l54 144h138l-98 -144h-94z" />
    <glyph glyph-name="ccircumflex" unicode="&#x109;" horiz-adv-x="463" 
d="M437 344h-132c0 52 -10 108 -62 108c-68 0 -79 -60 -79 -184c0 -133 13 -188 74 -188c47 0 67 38 67 126h132c0 -141 -58 -220 -205 -220c-138 0 -206 67 -206 283c0 221 90 283 218 283s193 -80 193 -208zM92 602l78 144h144l78 -144h-106l-46 85l-48 -85h-100z" />
    <glyph glyph-name="ccaron" unicode="&#x10d;" horiz-adv-x="463" 
d="M437 344h-132c0 52 -10 108 -62 108c-68 0 -79 -60 -79 -184c0 -133 13 -188 74 -188c47 0 67 38 67 126h132c0 -141 -58 -220 -205 -220c-138 0 -206 67 -206 283c0 221 90 283 218 283s193 -80 193 -208zM171 602l-78 144h106l46 -85l48 85h100l-78 -144h-144z" />
    <glyph glyph-name="cdotaccent" unicode="&#x10b;" horiz-adv-x="463" 
d="M437 344h-132c0 52 -10 108 -62 108c-68 0 -79 -60 -79 -184c0 -133 13 -188 74 -188c47 0 67 38 67 126h132c0 -141 -58 -220 -205 -220c-138 0 -206 67 -206 283c0 221 90 283 218 283s193 -80 193 -208zM184 733h112v-118h-112v118z" />
    <glyph glyph-name="ccedilla" unicode="&#xe7;" horiz-adv-x="463" 
d="M437 344h-132c0 52 -10 108 -62 108c-68 0 -79 -60 -79 -184c0 -133 13 -188 74 -188c47 0 67 38 67 126h132c0 -71 -16 -125 -48 -163c-27 -33 -70 -51 -128 -56l-29 -45c12 4 21 5 33 5c43 0 87 -25 84 -72c0 -59 -45 -92 -126 -92c-44 0 -84 10 -100 19l19 46
c15 -8 44 -15 69 -15c28 0 50 13 50 33s-17 31 -44 32c-15 0 -23 -2 -34 -6l-22 20l48 75c-25 1 -48 6 -68 13c-76 28 -115 107 -115 269c0 221 90 283 218 283s193 -80 193 -208z" />
    <glyph glyph-name="dcaron" unicode="&#x10f;" 
d="M322 0v57h-2c-31 -51 -67 -71 -122 -71c-113 0 -165 83 -165 283s52 283 165 283c52 0 87 -21 116 -64h2v226h138v-714h-132zM171 269c0 -117 12 -177 72 -177c61 0 73 60 73 177s-12 177 -73 177c-60 0 -72 -60 -72 -177zM492 570l33 144h120l-63 -144h-90z" />
    <glyph glyph-name="dcroat" unicode="&#x111;" 
d="M322 0v57h-2c-31 -51 -67 -71 -122 -71c-113 0 -165 83 -165 283s52 283 165 283c52 0 87 -21 116 -64h2v98h-110v61h110v67h138v-67h46v-61h-46v-586h-132zM171 269c0 -117 12 -177 72 -177c61 0 73 60 73 177s-12 177 -73 177c-60 0 -72 -60 -72 -177z" />
    <glyph glyph-name="eth" unicode="&#xf0;" horiz-adv-x="480" 
d="M105 583l-39 42l76 45c-23 23 -45 44 -66 64l104 61c24 -21 46 -42 67 -63l75 45l43 -42l-77 -45c106 -117 164 -237 164 -421s-55 -283 -212 -283c-165 -3 -212 95 -212 283c0 160 51 263 174 263c23 0 47 -7 70 -26l2 2c-24 39 -57 80 -92 120zM166 262
c0 -107 6 -182 74 -182c56 0 74 53 74 182c0 124 -18 176 -74 176c-68 0 -74 -76 -74 -176z" />
    <glyph glyph-name="egrave" unicode="&#xe8;" horiz-adv-x="463" 
d="M437 248h-273v-43c0 -64 17 -125 68 -125c47 0 65 33 73 101h124c-5 -125 -63 -195 -195 -195c-200 0 -208 154 -208 288c0 144 28 278 214 278c161 0 197 -108 197 -273v-31zM164 330h141c-3 82 -13 128 -70 128c-55 0 -71 -56 -71 -107v-21zM302 602h-94l-98 144h138z
" />
    <glyph glyph-name="eacute" unicode="&#xe9;" horiz-adv-x="463" 
d="M437 248h-273v-43c0 -64 17 -125 68 -125c47 0 65 33 73 101h124c-5 -125 -63 -195 -195 -195c-200 0 -208 154 -208 288c0 144 28 278 214 278c161 0 197 -108 197 -273v-31zM164 330h141c-3 82 -13 128 -70 128c-55 0 -71 -56 -71 -107v-21zM190 602l54 144h138
l-98 -144h-94z" />
    <glyph glyph-name="ecircumflex" unicode="&#xea;" horiz-adv-x="463" 
d="M437 248h-273v-43c0 -64 17 -125 68 -125c47 0 65 33 73 101h124c-5 -125 -63 -195 -195 -195c-200 0 -208 154 -208 288c0 144 28 278 214 278c161 0 197 -108 197 -273v-31zM164 330h141c-3 82 -13 128 -70 128c-55 0 -71 -56 -71 -107v-21zM90 602l78 144h144l78 -144
h-106l-46 85l-48 -85h-100z" />
    <glyph glyph-name="ecaron" unicode="&#x11b;" horiz-adv-x="463" 
d="M437 248h-273v-43c0 -64 17 -125 68 -125c47 0 65 33 73 101h124c-5 -125 -63 -195 -195 -195c-200 0 -208 154 -208 288c0 144 28 278 214 278c161 0 197 -108 197 -273v-31zM164 330h141c-3 82 -13 128 -70 128c-55 0 -71 -56 -71 -107v-21zM164 602l-78 144h106
l46 -85l48 85h100l-78 -144h-144z" />
    <glyph glyph-name="edieresis" unicode="&#xeb;" horiz-adv-x="463" 
d="M437 248h-273v-43c0 -64 17 -125 68 -125c47 0 65 33 73 101h124c-5 -125 -63 -195 -195 -195c-200 0 -208 154 -208 288c0 144 28 278 214 278c161 0 197 -108 197 -273v-31zM164 330h141c-3 82 -13 128 -70 128c-55 0 -71 -56 -71 -107v-21zM270 615v118h112v-118h-112
zM98 615v118h112v-118h-112z" />
    <glyph glyph-name="emacron" unicode="&#x113;" horiz-adv-x="463" 
d="M437 248h-273v-43c0 -64 17 -125 68 -125c47 0 65 33 73 101h124c-5 -125 -63 -195 -195 -195c-200 0 -208 154 -208 288c0 144 28 278 214 278c161 0 197 -108 197 -273v-31zM164 330h141c-3 82 -13 128 -70 128c-55 0 -71 -56 -71 -107v-21zM90 712h294v-76h-294v76z
" />
    <glyph glyph-name="ebreve" unicode="&#x115;" horiz-adv-x="463" 
d="M437 248h-273v-43c0 -64 17 -125 68 -125c47 0 65 33 73 101h124c-5 -125 -63 -195 -195 -195c-200 0 -208 154 -208 288c0 144 28 278 214 278c161 0 197 -108 197 -273v-31zM164 330h141c-3 82 -13 128 -70 128c-55 0 -71 -56 -71 -107v-21zM98 745h65
c4 -39 35 -65 74 -65s70 26 74 65h65c0 -53 -32 -141 -139 -141c-108 0 -139 88 -139 141z" />
    <glyph glyph-name="edotaccent" unicode="&#x117;" horiz-adv-x="463" 
d="M437 248h-273v-43c0 -64 17 -125 68 -125c47 0 65 33 73 101h124c-5 -125 -63 -195 -195 -195c-200 0 -208 154 -208 288c0 144 28 278 214 278c161 0 197 -108 197 -273v-31zM164 330h141c-3 82 -13 128 -70 128c-55 0 -71 -56 -71 -107v-21zM182 733h112v-118h-112v118
z" />
    <glyph glyph-name="eogonek" unicode="&#x119;" horiz-adv-x="463" 
d="M301 -133l30 -49c-37 -27 -67 -35 -114 -35c-78 0 -96 43 -96 79c0 55 50 97 95 125c-41 1 -74 10 -99 25c-85 53 -91 159 -91 262c0 144 28 278 214 278c161 0 197 -108 197 -273v-31h-273v-43c0 -64 17 -125 68 -125c47 0 65 33 73 101h124c-3 -63 -19 -111 -50 -145
c-19 -21 -45 -35 -78 -43c-35 -26 -91 -64 -91 -115c0 -20 11 -31 28 -31c19 0 34 3 63 20zM164 330h141c-3 82 -13 128 -70 128c-55 0 -71 -56 -71 -107v-21z" />
    <glyph glyph-name="gcircumflex" unicode="&#x11d;" 
d="M173 252c0 -74 10 -140 69 -140s75 63 75 154c0 131 -17 180 -72 180c-61 0 -72 -49 -72 -194zM317 538h132v-511c0 -143 -63 -211 -224 -211c-117 0 -183 52 -183 144h132c0 -17 7 -31 21 -41c13 -9 29 -15 46 -15c56 0 76 41 76 97v71h-2c-28 -40 -71 -66 -115 -66
c-109 0 -165 76 -165 272c0 126 20 274 169 274c39 0 84 -18 111 -74h2v60zM110 602l78 144h144l78 -144h-106l-46 85l-48 -85h-100z" />
    <glyph glyph-name="gbreve" unicode="&#x11f;" 
d="M173 252c0 -74 10 -140 69 -140s75 63 75 154c0 131 -17 180 -72 180c-61 0 -72 -49 -72 -194zM317 538h132v-511c0 -143 -63 -211 -224 -211c-117 0 -183 52 -183 144h132c0 -17 7 -31 21 -41c13 -9 29 -15 46 -15c56 0 76 41 76 97v71h-2c-28 -40 -71 -66 -115 -66
c-109 0 -165 76 -165 272c0 126 20 274 169 274c39 0 84 -18 111 -74h2v60zM114 745h65c4 -39 35 -65 74 -65s70 26 74 65h65c0 -53 -32 -141 -139 -141c-108 0 -139 88 -139 141z" />
    <glyph glyph-name="gdotaccent" unicode="&#x121;" 
d="M173 252c0 -74 10 -140 69 -140s75 63 75 154c0 131 -17 180 -72 180c-61 0 -72 -49 -72 -194zM317 538h132v-511c0 -143 -63 -211 -224 -211c-117 0 -183 52 -183 144h132c0 -17 7 -31 21 -41c13 -9 29 -15 46 -15c56 0 76 41 76 97v71h-2c-28 -40 -71 -66 -115 -66
c-109 0 -165 76 -165 272c0 126 20 274 169 274c39 0 84 -18 111 -74h2v60zM198 733h112v-118h-112v118z" />
    <glyph glyph-name="gcommaaccent" unicode="&#x123;" 
d="M173 252c0 -74 10 -140 69 -140s75 63 75 154c0 131 -17 180 -72 180c-61 0 -72 -49 -72 -194zM317 538h132v-511c0 -143 -63 -211 -224 -211c-117 0 -183 52 -183 144h132c0 -17 7 -31 21 -41c13 -9 29 -15 46 -15c56 0 76 41 76 97v71h-2c-28 -40 -71 -66 -115 -66
c-109 0 -165 76 -165 272c0 126 20 274 169 274c39 0 84 -18 111 -74h2v60zM314 596h-112v97c0 91 51 100 97 106v-36c-23 -7 -35 -18 -36 -49h51v-118z" />
    <glyph glyph-name="hcircumflex" unicode="&#x125;" 
d="M46 0v714h138v-231h2c27 47 72 69 131 69c87 0 137 -46 137 -153v-399h-138v371c0 55 -18 75 -59 75c-49 0 -73 -30 -73 -89v-357h-138zM100 756l78 144h144l78 -144h-106l-46 85l-48 -85h-100z" />
    <glyph glyph-name="hbar" unicode="&#x127;" 
d="M46 647v67h138v-67h101v-61h-101v-103h2c27 47 72 69 131 69c87 0 137 -46 137 -153v-399h-138v371c0 55 -18 75 -59 75c-49 0 -73 -30 -73 -89v-357h-138v586h-56v61h56z" />
    <glyph glyph-name="dotlessi" unicode="&#x131;" horiz-adv-x="240" 
d="M51 0v538h138v-538h-138z" />
    <glyph glyph-name="igrave" unicode="&#xec;" horiz-adv-x="240" 
d="M51 0v538h138v-538h-138zM188 602h-94l-98 144h138z" />
    <glyph glyph-name="iacute" unicode="&#xed;" horiz-adv-x="240" 
d="M51 0v538h138v-538h-138zM51 602l54 144h138l-98 -144h-94z" />
    <glyph glyph-name="ibreve" unicode="&#x12d;" horiz-adv-x="240" 
d="M51 0v538h138v-538h-138zM-19 745h65c4 -39 35 -65 74 -65s70 26 74 65h65c0 -53 -32 -141 -139 -141c-108 0 -139 88 -139 141z" />
    <glyph glyph-name="icircumflex" unicode="&#xee;" horiz-adv-x="240" 
d="M51 0v538h138v-538h-138zM-29 602l78 144h144l78 -144h-106l-46 85l-48 -85h-100z" />
    <glyph glyph-name="itilde" unicode="&#x129;" horiz-adv-x="240" 
d="M51 0v538h138v-538h-138zM33 611h-70c11 79 42 124 93 124c43 0 88 -34 121 -34c19 0 28 23 28 36h72c-7 -72 -42 -124 -93 -124c-42 0 -87 34 -119 34c-17 0 -27 -12 -32 -36z" />
    <glyph glyph-name="idieresis" unicode="&#xef;" horiz-adv-x="240" 
d="M51 0v538h138v-538h-138zM150 615v118h112v-118h-112zM-22 615v118h112v-118h-112z" />
    <glyph glyph-name="imacron" unicode="&#x12b;" horiz-adv-x="240" 
d="M51 0v538h138v-538h-138zM-27 712h294v-76h-294v76z" />
    <glyph glyph-name="iogonek" unicode="&#x12f;" horiz-adv-x="240" 
d="M178 -133l30 -49c-37 -27 -67 -35 -114 -35c-78 0 -96 43 -96 79c0 49 47 103 123 138h-70v538h138v-538h-1c-83 -60 -101 -91 -101 -122c0 -20 11 -31 28 -31c19 0 34 3 63 20zM51 604v118h138v-118h-138z" />
    <glyph glyph-name="dotlessj" unicode="&#x237;" horiz-adv-x="240" 
d="M51 10v528h138v-575c0 -91 -35 -139 -158 -139c-16 0 -36 1 -56 2v100s11 -2 22 -2c49 0 54 26 54 86z" />
    <glyph glyph-name="jcircumflex" unicode="&#x135;" horiz-adv-x="240" 
d="M51 10v528h138v-575c0 -91 -35 -139 -158 -139c-16 0 -36 1 -56 2v100s11 -2 22 -2c49 0 54 26 54 86zM-33 602l78 144h144l78 -144h-106l-46 85l-48 -85h-100z" />
    <glyph glyph-name="kcommaaccent" unicode="&#x137;" 
d="M51 714h138v-377h2l139 201h152l-155 -212l178 -326h-152l-115 221l-49 -64v-157h-138v714zM214 -50h112v-97c0 -91 -51 -100 -97 -106v36c23 7 35 18 36 49h-51v118z" />
    <glyph glyph-name="kgreenlandic" unicode="&#x138;" 
d="M51 538h138v-211h2l139 211h152l-155 -227l178 -311h-152l-115 201l-49 -68v-133h-138v538z" />
    <glyph glyph-name="lacute" unicode="&#x13a;" horiz-adv-x="240" 
d="M51 0v714h138v-714h-138zM52 756l54 144h138l-98 -144h-94z" />
    <glyph glyph-name="lcaron" unicode="&#x13e;" horiz-adv-x="240" 
d="M51 0v714h138v-714h-138zM227 570l33 144h120l-63 -144h-90z" />
    <glyph glyph-name="lcommaaccent" unicode="&#x13c;" horiz-adv-x="240" 
d="M51 0v714h138v-714h-138zM67 -50h112v-97c0 -91 -51 -100 -97 -106v36c23 7 35 18 36 49h-51v118z" />
    <glyph glyph-name="lslash" unicode="&#x142;" horiz-adv-x="240" 
d="M51 0v282l-63 -42v88l63 42v344h138v-253l63 41v-88l-63 -41v-373h-138z" />
    <glyph glyph-name="ldot" unicode="&#x140;" horiz-adv-x="370" 
d="M51 0v714h138v-714h-138zM245 448h112v-118h-112v118z" />
    <glyph glyph-name="nacute" unicode="&#x144;" 
d="M46 0v538h132v-63h2c29 53 78 77 137 77c87 0 137 -46 137 -153v-399h-138v371c0 55 -18 75 -59 75c-49 0 -73 -30 -73 -89v-357h-138zM195 602l54 144h138l-98 -144h-94z" />
    <glyph glyph-name="ncaron" unicode="&#x148;" 
d="M46 0v538h132v-63h2c29 53 78 77 137 77c87 0 137 -46 137 -153v-399h-138v371c0 55 -18 75 -59 75c-49 0 -73 -30 -73 -89v-357h-138zM176 602l-78 144h106l46 -85l48 85h100l-78 -144h-144z" />
    <glyph glyph-name="ntilde" unicode="&#xf1;" 
d="M46 0v538h132v-63h2c29 53 78 77 137 77c87 0 137 -46 137 -153v-399h-138v371c0 55 -18 75 -59 75c-49 0 -73 -30 -73 -89v-357h-138zM156 611h-70c11 79 42 124 93 124c43 0 88 -34 121 -34c19 0 28 23 28 36h72c-7 -72 -42 -124 -93 -124c-42 0 -87 34 -119 34
c-17 0 -27 -12 -32 -36z" />
    <glyph glyph-name="ncommaaccent" unicode="&#x146;" 
d="M46 0v538h132v-63h2c29 53 78 77 137 77c87 0 137 -46 137 -153v-399h-138v371c0 55 -18 75 -59 75c-49 0 -73 -30 -73 -89v-357h-138zM196 -50h112v-97c0 -91 -51 -100 -97 -106v36c23 7 35 18 36 49h-51v118z" />
    <glyph glyph-name="ograve" unicode="&#xf2;" horiz-adv-x="480" 
d="M28 269c0 184 55 283 212 283c165 3 212 -95 212 -283c0 -184 -55 -283 -212 -283c-165 -3 -212 95 -212 283zM166 269c0 -110 6 -189 74 -189c56 0 74 54 74 189s-18 189 -74 189c-68 0 -74 -79 -74 -189zM299 602h-94l-98 144h138z" />
    <glyph glyph-name="oacute" unicode="&#xf3;" horiz-adv-x="480" 
d="M28 269c0 184 55 283 212 283c165 3 212 -95 212 -283c0 -184 -55 -283 -212 -283c-165 -3 -212 95 -212 283zM166 269c0 -110 6 -189 74 -189c56 0 74 54 74 189s-18 189 -74 189c-68 0 -74 -79 -74 -189zM191 602l54 144h138l-98 -144h-94z" />
    <glyph glyph-name="ocircumflex" unicode="&#xf4;" horiz-adv-x="480" 
d="M28 269c0 184 55 283 212 283c165 3 212 -95 212 -283c0 -184 -55 -283 -212 -283c-165 -3 -212 95 -212 283zM166 269c0 -110 6 -189 74 -189c56 0 74 54 74 189s-18 189 -74 189c-68 0 -74 -79 -74 -189zM90 602l78 144h144l78 -144h-106l-46 85l-48 -85h-100z" />
    <glyph glyph-name="otilde" unicode="&#xf5;" horiz-adv-x="480" 
d="M28 269c0 184 55 283 212 283c165 3 212 -95 212 -283c0 -184 -55 -283 -212 -283c-165 -3 -212 95 -212 283zM166 269c0 -110 6 -189 74 -189c56 0 74 54 74 189s-18 189 -74 189c-68 0 -74 -79 -74 -189zM153 611h-70c11 79 42 124 93 124c43 0 88 -34 121 -34
c19 0 28 23 28 36h72c-7 -72 -42 -124 -93 -124c-42 0 -87 34 -119 34c-17 0 -27 -12 -32 -36z" />
    <glyph glyph-name="odieresis" unicode="&#xf6;" horiz-adv-x="480" 
d="M28 269c0 184 55 283 212 283c165 3 212 -95 212 -283c0 -184 -55 -283 -212 -283c-165 -3 -212 95 -212 283zM166 269c0 -110 6 -189 74 -189c56 0 74 54 74 189s-18 189 -74 189c-68 0 -74 -79 -74 -189zM270 615v118h112v-118h-112zM98 615v118h112v-118h-112z" />
    <glyph glyph-name="omacron" unicode="&#x14d;" horiz-adv-x="480" 
d="M28 269c0 184 55 283 212 283c165 3 212 -95 212 -283c0 -184 -55 -283 -212 -283c-165 -3 -212 95 -212 283zM166 269c0 -110 6 -189 74 -189c56 0 74 54 74 189s-18 189 -74 189c-68 0 -74 -79 -74 -189zM92 712h294v-76h-294v76z" />
    <glyph glyph-name="obreve" unicode="&#x14f;" horiz-adv-x="480" 
d="M28 269c0 184 55 283 212 283c165 3 212 -95 212 -283c0 -184 -55 -283 -212 -283c-165 -3 -212 95 -212 283zM166 269c0 -110 6 -189 74 -189c56 0 74 54 74 189s-18 189 -74 189c-68 0 -74 -79 -74 -189zM101 745h65c4 -39 35 -65 74 -65s70 26 74 65h65
c0 -53 -32 -141 -139 -141c-108 0 -139 88 -139 141z" />
    <glyph glyph-name="ohungarumlaut" unicode="&#x151;" horiz-adv-x="480" 
d="M28 269c0 184 55 283 212 283c165 3 212 -95 212 -283c0 -184 -55 -283 -212 -283c-165 -3 -212 95 -212 283zM166 269c0 -110 6 -189 74 -189c56 0 74 54 74 189s-18 189 -74 189c-68 0 -74 -79 -74 -189zM272 602l54 144h138l-98 -144h-94zM106 602l54 144h138
l-98 -144h-94z" />
    <glyph glyph-name="oslash" unicode="&#xf8;" horiz-adv-x="480" 
d="M53 -35l37 70c-47 45 -62 123 -62 234c0 184 55 283 212 283c45 1 81 -6 109 -21l34 65l44 -23l-37 -70c47 -45 62 -123 62 -234c0 -184 -55 -283 -212 -283c-45 -1 -82 6 -109 21l-34 -65zM310 351l-124 -238c11 -22 29 -33 54 -33c56 0 74 54 74 189c0 32 -1 59 -2 82
h-2zM170 186l123 238c-11 23 -28 34 -53 34c-68 0 -74 -79 -74 -189v-44c0 -14 1 -27 2 -39h2z" />
    <glyph glyph-name="oslashacute" unicode="&#x1ff;" horiz-adv-x="480" 
d="M53 -35l37 70c-47 45 -62 123 -62 234c0 184 55 283 212 283c45 1 81 -6 109 -21l34 65l44 -23l-37 -70c47 -45 62 -123 62 -234c0 -184 -55 -283 -212 -283c-45 -1 -82 6 -109 21l-34 -65zM310 351l-124 -238c11 -22 29 -33 54 -33c56 0 74 54 74 189c0 32 -1 59 -2 82
h-2zM170 186l123 238c-11 23 -28 34 -53 34c-68 0 -74 -79 -74 -189v-44c0 -14 1 -27 2 -39h2zM191 602l54 144h138l-98 -144h-94z" />
    <glyph glyph-name="oe" unicode="&#x153;" horiz-adv-x="741" 
d="M439 330h141c-3 82 -13 128 -70 128c-55 0 -71 -56 -71 -107v-21zM243 80c55 0 72 54 72 189s-18 189 -74 189c-68 0 -74 -79 -74 -189s6 -189 76 -189zM712 248h-273v-43c0 -64 17 -125 68 -125c47 0 65 34 73 101h124c-5 -125 -64 -195 -187 -195
c-84 0 -125 39 -140 79c-19 -51 -79 -79 -148 -79c-155 0 -200 96 -200 283c0 184 55 283 212 283c75 0 116 -24 143 -75c27 49 78 75 131 75c161 0 197 -108 197 -273v-31z" />
    <glyph glyph-name="racute" unicode="&#x155;" horiz-adv-x="333" 
d="M46 0v538h132v-72h2c28 52 67 86 124 86c8 0 17 -1 25 -2v-132c-15 1 -28 2 -43 2c-48 0 -102 -25 -102 -97v-323h-138zM81 602l54 144h138l-98 -144h-94z" />
    <glyph glyph-name="rcaron" unicode="&#x159;" horiz-adv-x="333" 
d="M46 0v538h132v-72h2c28 52 67 86 124 86c8 0 17 -1 25 -2v-132c-15 1 -28 2 -43 2c-48 0 -102 -25 -102 -97v-323h-138zM118 602l-78 144h106l46 -85l48 85h100l-78 -144h-144z" />
    <glyph glyph-name="rcommaaccent" unicode="&#x157;" horiz-adv-x="333" 
d="M46 0v538h132v-72h2c28 52 67 86 124 86c8 0 17 -1 25 -2v-132c-15 1 -28 2 -43 2c-48 0 -102 -25 -102 -97v-323h-138zM62 -50h112v-97c0 -91 -51 -100 -97 -106v36c23 7 35 18 36 49h-51v118z" />
    <glyph glyph-name="sacute" unicode="&#x15b;" horiz-adv-x="444" 
d="M23 176h124v-18c0 -47 25 -78 72 -78c43 0 70 21 70 64c0 35 -23 51 -50 61l-97 35c-76 27 -115 74 -115 150c0 88 57 162 198 162c125 0 184 -56 184 -153v-22h-124c0 55 -16 81 -61 81c-35 0 -65 -19 -65 -58c0 -27 13 -48 60 -63l83 -28c87 -29 119 -73 119 -154
c0 -113 -84 -169 -200 -169c-156 0 -198 67 -198 171v19zM171 602l54 144h138l-98 -144h-94z" />
    <glyph glyph-name="scircumflex" unicode="&#x15d;" horiz-adv-x="444" 
d="M23 176h124v-18c0 -47 25 -78 72 -78c43 0 70 21 70 64c0 35 -23 51 -50 61l-97 35c-76 27 -115 74 -115 150c0 88 57 162 198 162c125 0 184 -56 184 -153v-22h-124c0 55 -16 81 -61 81c-35 0 -65 -19 -65 -58c0 -27 13 -48 60 -63l83 -28c87 -29 119 -73 119 -154
c0 -113 -84 -169 -200 -169c-156 0 -198 67 -198 171v19zM77 602l78 144h144l78 -144h-106l-46 85l-48 -85h-100z" />
    <glyph glyph-name="scaron" unicode="&#x161;" horiz-adv-x="444" 
d="M23 176h124v-18c0 -47 25 -78 72 -78c43 0 70 21 70 64c0 35 -23 51 -50 61l-97 35c-76 27 -115 74 -115 150c0 88 57 162 198 162c125 0 184 -56 184 -153v-22h-124c0 55 -16 81 -61 81c-35 0 -65 -19 -65 -58c0 -27 13 -48 60 -63l83 -28c87 -29 119 -73 119 -154
c0 -113 -84 -169 -200 -169c-156 0 -198 67 -198 171v19zM151 602l-78 144h106l46 -85l48 85h100l-78 -144h-144z" />
    <glyph glyph-name="scedilla" unicode="&#x15f;" horiz-adv-x="444" 
d="M23 176h124v-18c0 -47 25 -78 72 -78c43 0 70 21 70 64c0 35 -23 51 -50 61l-97 35c-76 27 -115 74 -115 150c0 88 57 162 198 162c125 0 184 -56 184 -153v-22h-124c0 55 -16 81 -61 81c-35 0 -65 -19 -65 -58c0 -27 13 -48 60 -63l83 -28c87 -29 119 -73 119 -154
c0 -84 -47 -138 -120 -158c-21 -6 -44 -10 -69 -11l-29 -44c12 4 21 5 33 5c43 0 87 -25 84 -72c0 -59 -45 -92 -126 -92c-44 0 -84 10 -100 19l19 46c15 -8 44 -15 69 -15c28 0 50 13 50 33s-17 31 -44 32c-15 0 -23 -2 -34 -6l-22 20l49 76c-21 2 -40 5 -57 10
c-77 24 -101 81 -101 159v19z" />
    <glyph glyph-name="scommaaccent" unicode="&#x219;" horiz-adv-x="444" 
d="M23 176h124v-18c0 -47 25 -78 72 -78c43 0 70 21 70 64c0 35 -23 51 -50 61l-97 35c-76 27 -115 74 -115 150c0 88 57 162 198 162c125 0 184 -56 184 -153v-22h-124c0 55 -16 81 -61 81c-35 0 -65 -19 -65 -58c0 -27 13 -48 60 -63l83 -28c87 -29 119 -73 119 -154
c0 -113 -84 -169 -200 -169c-156 0 -198 67 -198 171v19zM166 -50h112v-97c0 -91 -51 -100 -97 -106v36c23 7 35 18 36 49h-51v118z" />
    <glyph glyph-name="germandbls" unicode="&#xdf;" 
d="M179 0h-138v527c0 140 67 201 212 201c127 0 197 -59 197 -171c0 -74 -19 -117 -89 -147v-2c80 -13 111 -84 111 -192c0 -98 -27 -222 -179 -222c-23 0 -51 1 -66 4v94c7 -3 14 -4 21 -4c73 0 86 55 86 146c0 73 -19 121 -80 121h-25v94h17c48 0 66 39 66 95
c0 47 -14 90 -66 90c-55 0 -67 -46 -67 -110v-524z" />
    <glyph glyph-name="tcaron" unicode="&#x165;" horiz-adv-x="296" 
d="M287 570l33 144h120l-63 -144h-90zM76 538v154h138v-154h80v-94h-80v-291c0 -43 9 -59 49 -59c11 0 22 1 31 2v-96c-31 -3 -58 -6 -90 -6c-108 0 -128 34 -128 142v308h-70v94h70z" />
    <glyph glyph-name="tcommaaccent" unicode="&#x163;" horiz-adv-x="296" 
d="M76 538v154h138v-154h80v-94h-80v-291c0 -43 9 -59 49 -59c11 0 22 1 31 2v-96c-31 -3 -58 -6 -90 -6c-108 0 -128 34 -128 142v308h-70v94h70zM138 -50h112v-97c0 -91 -51 -100 -97 -106v36c23 7 35 18 36 49h-51v118z" />
    <glyph glyph-name="uni021B" unicode="&#x21b;" horiz-adv-x="296" 
d="M76 538v154h138v-154h80v-94h-80v-291c0 -43 9 -59 49 -59c11 0 22 1 31 2v-96c-31 -3 -58 -6 -90 -6c-108 0 -128 34 -128 142v308h-70v94h70zM138 -50h112v-97c0 -91 -51 -100 -97 -106v36c23 7 35 18 36 49h-51v118z" />
    <glyph glyph-name="tbar" unicode="&#x167;" horiz-adv-x="296" 
d="M76 538v154h138v-154h80v-94h-80v-98h89v-61h-89v-132c0 -43 9 -59 49 -59c11 0 22 1 31 2v-96c-31 -3 -58 -6 -90 -6c-108 0 -128 34 -128 142v149h-81v61h81v98h-70v94h70z" />
    <glyph glyph-name="thorn" unicode="&#xfe;" 
d="M46 -176v890h138v-233h2c24 51 61 71 116 71c113 0 165 -83 165 -283s-52 -283 -165 -283c-52 0 -87 21 -116 64h-2v-226h-138zM184 269c0 -117 12 -177 73 -177c60 0 72 60 72 177s-12 177 -72 177c-61 0 -73 -60 -73 -177z" />
    <glyph glyph-name="ugrave" unicode="&#xf9;" 
d="M322 0v63h-2c-29 -53 -78 -77 -137 -77c-87 0 -137 46 -137 153v399h138v-371c0 -55 18 -75 59 -75c49 0 73 30 73 89v357h138v-538h-132zM312 602h-94l-98 144h138z" />
    <glyph glyph-name="uacute" unicode="&#xfa;" 
d="M322 0v63h-2c-29 -53 -78 -77 -137 -77c-87 0 -137 46 -137 153v399h138v-371c0 -55 18 -75 59 -75c49 0 73 30 73 89v357h138v-538h-132zM200 602l54 144h138l-98 -144h-94z" />
    <glyph glyph-name="ucircumflex" unicode="&#xfb;" 
d="M322 0v63h-2c-29 -53 -78 -77 -137 -77c-87 0 -137 46 -137 153v399h138v-371c0 -55 18 -75 59 -75c49 0 73 30 73 89v357h138v-538h-132zM100 602l78 144h144l78 -144h-106l-46 85l-48 -85h-100z" />
    <glyph glyph-name="utilde" unicode="&#x169;" 
d="M322 0v63h-2c-29 -53 -78 -77 -137 -77c-87 0 -137 46 -137 153v399h138v-371c0 -55 18 -75 59 -75c49 0 73 30 73 89v357h138v-538h-132zM163 611h-70c11 79 42 124 93 124c43 0 88 -34 121 -34c19 0 28 23 28 36h72c-7 -72 -42 -124 -93 -124c-42 0 -87 34 -119 34
c-17 0 -27 -12 -32 -36z" />
    <glyph glyph-name="udieresis" unicode="&#xfc;" 
d="M322 0v63h-2c-29 -53 -78 -77 -137 -77c-87 0 -137 46 -137 153v399h138v-371c0 -55 18 -75 59 -75c49 0 73 30 73 89v357h138v-538h-132zM280 615v118h112v-118h-112zM108 615v118h112v-118h-112z" />
    <glyph glyph-name="umacron" unicode="&#x16b;" 
d="M322 0v63h-2c-29 -53 -78 -77 -137 -77c-87 0 -137 46 -137 153v399h138v-371c0 -55 18 -75 59 -75c49 0 73 30 73 89v357h138v-538h-132zM103 712h294v-76h-294v76z" />
    <glyph glyph-name="ubreve" unicode="&#x16d;" 
d="M322 0v63h-2c-29 -53 -78 -77 -137 -77c-87 0 -137 46 -137 153v399h138v-371c0 -55 18 -75 59 -75c49 0 73 30 73 89v357h138v-538h-132zM112 745h65c4 -39 35 -65 74 -65s70 26 74 65h65c0 -53 -32 -141 -139 -141c-108 0 -139 88 -139 141z" />
    <glyph glyph-name="uring" unicode="&#x16f;" 
d="M322 0v63h-2c-29 -53 -78 -77 -137 -77c-87 0 -137 46 -137 153v399h138v-371c0 -55 18 -75 59 -75c49 0 73 30 73 89v357h138v-538h-132zM193 690c0 -32 25 -57 57 -57s57 25 57 57s-25 57 -57 57s-57 -25 -57 -57zM137 690c0 65 51 110 113 110s113 -45 113 -110
c0 -66 -51 -108 -113 -108c-64 0 -113 42 -113 108z" />
    <glyph glyph-name="uhungarumlaut" unicode="&#x171;" 
d="M322 0v63h-2c-29 -53 -78 -77 -137 -77c-87 0 -137 46 -137 153v399h138v-371c0 -55 18 -75 59 -75c49 0 73 30 73 89v357h138v-538h-132zM279 602l54 144h138l-98 -144h-94zM113 602l54 144h138l-98 -144h-94z" />
    <glyph glyph-name="uogonek" unicode="&#x173;" 
d="M322 0v63h-2c-29 -53 -78 -77 -137 -77c-87 0 -137 46 -137 153v399h138v-371c0 -55 18 -75 59 -75c49 0 73 30 73 89v357h138v-538h-64c-34 -31 -83 -73 -83 -128c0 -15 10 -25 25 -25c17 0 30 3 57 20l27 -49c-35 -27 -60 -35 -103 -35c-70 0 -86 43 -86 79
c0 51 42 99 95 138z" />
    <glyph glyph-name="wacute" unicode="&#x1e83;" horiz-adv-x="704" 
d="M124 0l-117 538h138l63 -382h2l67 382h150l71 -382h2l65 382h132l-116 -538h-157l-71 382h-2l-67 -382h-160zM303 602l54 144h138l-98 -144h-94z" />
    <glyph glyph-name="wcircumflex" unicode="&#x175;" horiz-adv-x="704" 
d="M124 0l-117 538h138l63 -382h2l67 382h150l71 -382h2l65 382h132l-116 -538h-157l-71 382h-2l-67 -382h-160zM203 602l78 144h144l78 -144h-106l-46 85l-48 -85h-100z" />
    <glyph glyph-name="wdieresis" unicode="&#x1e85;" horiz-adv-x="704" 
d="M124 0l-117 538h138l63 -382h2l67 382h150l71 -382h2l65 382h132l-116 -538h-157l-71 382h-2l-67 -382h-160zM382 615v118h112v-118h-112zM210 615v118h112v-118h-112z" />
    <glyph glyph-name="wgrave" unicode="&#x1e81;" horiz-adv-x="704" 
d="M124 0l-117 538h138l63 -382h2l67 382h150l71 -382h2l65 382h132l-116 -538h-157l-71 382h-2l-67 -382h-160zM395 602h-94l-98 144h138z" />
    <glyph glyph-name="yacute" unicode="&#xfd;" horiz-adv-x="444" 
d="M46 -176v103c12 -2 24 -3 36 -3c51 0 70 28 74 76l-151 538h144l80 -372h2l70 372h138l-130 -502c-48 -186 -79 -212 -207 -212h-56zM178 602l54 144h138l-98 -144h-94z" />
    <glyph glyph-name="ycircumflex" unicode="&#x177;" horiz-adv-x="444" 
d="M46 -176v103c12 -2 24 -3 36 -3c51 0 70 28 74 76l-151 538h144l80 -372h2l70 372h138l-130 -502c-48 -186 -79 -212 -207 -212h-56zM80 602l78 144h144l78 -144h-106l-46 85l-48 -85h-100z" />
    <glyph glyph-name="ydieresis" unicode="&#xff;" horiz-adv-x="444" 
d="M46 -176v103c12 -2 24 -3 36 -3c51 0 70 28 74 76l-151 538h144l80 -372h2l70 372h138l-130 -502c-48 -186 -79 -212 -207 -212h-56zM261 615v118h112v-118h-112zM89 615v118h112v-118h-112z" />
    <glyph glyph-name="ygrave" unicode="&#x1ef3;" horiz-adv-x="444" 
d="M46 -176v103c12 -2 24 -3 36 -3c51 0 70 28 74 76l-151 538h144l80 -372h2l70 372h138l-130 -502c-48 -186 -79 -212 -207 -212h-56zM275 602h-94l-98 144h138z" />
    <glyph glyph-name="zacute" unicode="&#x17a;" horiz-adv-x="426" 
d="M24 0v106l215 320h-205v112h368v-106l-215 -320h215v-112h-378zM168 602l54 144h138l-98 -144h-94z" />
    <glyph glyph-name="zcaron" unicode="&#x17e;" horiz-adv-x="426" 
d="M24 0v106l215 320h-205v112h368v-106l-215 -320h215v-112h-378zM147 602l-78 144h106l46 -85l48 85h100l-78 -144h-144z" />
    <glyph glyph-name="zdotaccent" unicode="&#x17c;" horiz-adv-x="426" 
d="M24 0v106l215 320h-205v112h368v-106l-215 -320h215v-112h-378zM162 733h112v-118h-112v118z" />
    <glyph glyph-name="grave.cap" horiz-adv-x="222" 
d="M176 756h-94l-98 144h138z" />
    <glyph glyph-name="acute" unicode="&#xb4;" horiz-adv-x="222" 
d="M46 602l54 144h138l-98 -144h-94z" />
    <glyph glyph-name="acute.cap" horiz-adv-x="222" 
d="M46 756l54 144h138l-98 -144h-94z" />
    <glyph glyph-name="circumflex" unicode="&#x2c6;" horiz-adv-x="222" 
d="M-39 602l78 144h144l78 -144h-106l-46 85l-48 -85h-100z" />
    <glyph glyph-name="circumflex.cap" horiz-adv-x="222" 
d="M-39 756l78 144h144l78 -144h-106l-46 85l-48 -85h-100z" />
    <glyph glyph-name="caron" unicode="&#x2c7;" horiz-adv-x="222" 
d="M39 602l-78 144h106l46 -85l48 85h100l-78 -144h-144z" />
    <glyph glyph-name="caron.cap" horiz-adv-x="222" 
d="M39 756l-78 144h106l46 -85l48 85h100l-78 -144h-144z" />
    <glyph glyph-name="caron.alt" horiz-adv-x="222" 
d="M46 570l33 144h120l-63 -144h-90z" />
    <glyph glyph-name="tilde" unicode="&#x2dc;" horiz-adv-x="222" 
d="M24 611h-70c11 79 42 124 93 124c43 0 88 -34 121 -34c19 0 28 23 28 36h72c-7 -72 -42 -124 -93 -124c-42 0 -87 34 -119 34c-17 0 -27 -12 -32 -36z" />
    <glyph glyph-name="tilde.cap" horiz-adv-x="222" 
d="M24 765h-70c11 79 42 124 93 124c43 0 88 -34 121 -34c19 0 28 23 28 36h72c-7 -72 -42 -124 -93 -124c-42 0 -87 34 -119 34c-17 0 -27 -12 -32 -36z" />
    <glyph glyph-name="dieresis" unicode="&#xa8;" horiz-adv-x="222" 
d="M141 615v118h112v-118h-112zM-31 615v118h112v-118h-112z" />
    <glyph glyph-name="dieresis.cap" horiz-adv-x="222" 
d="M141 771v118h112v-118h-112zM-31 771v118h112v-118h-112z" />
    <glyph glyph-name="macron" unicode="&#xaf;" horiz-adv-x="222" 
d="M-36 712h294v-76h-294v76z" />
    <glyph glyph-name="macron.cap" horiz-adv-x="222" 
d="M-36 866h294v-76h-294v76z" />
    <glyph glyph-name="uni02C9" unicode="&#x2c9;" horiz-adv-x="222" 
d="M-36 712h294v-76h-294v76z" />
    <glyph glyph-name="breve" unicode="&#x2d8;" horiz-adv-x="222" 
d="M-28 745h65c4 -39 35 -65 74 -65s70 26 74 65h65c0 -53 -32 -141 -139 -141c-108 0 -139 88 -139 141z" />
    <glyph glyph-name="breve.cap" horiz-adv-x="222" 
d="M-28 899h65c4 -39 35 -65 74 -65s70 26 74 65h65c0 -53 -32 -141 -139 -141c-108 0 -139 88 -139 141z" />
    <glyph glyph-name="ring" unicode="&#x2da;" horiz-adv-x="222" 
d="M54 690c0 -32 25 -57 57 -57s57 25 57 57s-25 57 -57 57s-57 -25 -57 -57zM-2 690c0 65 51 110 113 110s113 -45 113 -110c0 -66 -51 -108 -113 -108c-64 0 -113 42 -113 108z" />
    <glyph glyph-name="ring.cap" horiz-adv-x="222" 
d="M54 844c0 -32 25 -57 57 -57s57 25 57 57s-25 57 -57 57s-57 -25 -57 -57zM-2 844c0 65 51 110 113 110s113 -45 113 -110c0 -66 -51 -108 -113 -108c-64 0 -113 42 -113 108z" />
    <glyph glyph-name="hungarumlaut" unicode="&#x2dd;" horiz-adv-x="222" 
d="M129 602l54 144h138l-98 -144h-94zM-37 602l54 144h138l-98 -144h-94z" />
    <glyph glyph-name="hungarumlaut.cap" horiz-adv-x="222" 
d="M129 756l54 144h138l-98 -144h-94zM-37 756l54 144h138l-98 -144h-94z" />
    <glyph glyph-name="dotaccent" unicode="&#x2d9;" horiz-adv-x="222" 
d="M55 733h112v-118h-112v118z" />
    <glyph glyph-name="dotaccent.cap" horiz-adv-x="222" 
d="M55 829h112v-118h-112v118z" />
    <glyph glyph-name="cedilla" unicode="&#xb8;" horiz-adv-x="222" 
d="M95 0h52l-38 -58c12 4 21 5 33 5c43 0 87 -25 84 -72c0 -59 -45 -92 -126 -92c-44 0 -84 10 -100 19l19 46c15 -8 44 -15 69 -15c28 0 50 13 50 33s-17 31 -44 32c-15 0 -23 -2 -34 -6l-22 20z" />
    <glyph glyph-name="ogonek" unicode="&#x2db;" horiz-adv-x="222" 
d="M204 -133l30 -49c-37 -27 -67 -35 -114 -35c-78 0 -96 43 -96 79c0 49 47 103 123 138h67c-83 -60 -101 -91 -101 -122c0 -20 11 -31 28 -31c19 0 34 3 63 20z" />
    <glyph glyph-name="commaaccent" horiz-adv-x="240" 
d="M66 -50h112v-97c0 -91 -51 -100 -97 -106v36c23 7 35 18 36 49h-51v118z" />
    <glyph glyph-name="commaaccent.alt" horiz-adv-x="240" 
d="M175 596h-112v97c0 91 51 100 97 106v-36c-23 -7 -35 -18 -36 -49h51v-118z" />
    <glyph glyph-name="ellipsis" unicode="&#x2026;" horiz-adv-x="1000" 
d="M767 156h132v-156h-132v156zM434 156h132v-156h-132v156zM101 156h132v-156h-132v156z" />
    <glyph glyph-name="uni00AD" unicode="&#xad;" horiz-adv-x="370" 
d="M44 348h282v-118h-282v118z" />
    <glyph glyph-name="exclamdown" unicode="&#xa1;" horiz-adv-x="296" 
d="M79 406v132h138v-132h-138zM79 -176v232l19 283h100l19 -283v-232h-138z" />
    <glyph glyph-name="questiondown" unicode="&#xbf;" horiz-adv-x="481" 
d="M319 406h-138v132h138v-132zM313 45h132v-23c0 -120 -66 -206 -198 -206c-141 0 -211 76 -211 193c0 55 15 101 63 156l40 45c35 39 49 64 49 115v15h124v-39c0 -67 -17 -106 -62 -157l-38 -43c-28 -31 -38 -66 -38 -106c0 -51 23 -85 68 -85c51 0 71 45 71 110v25z" />
    <glyph glyph-name="quoteleft" unicode="&#x2018;" horiz-adv-x="260" 
d="M64 393v130c0 107 25 180 132 191v-70c-35 -7 -52 -42 -52 -79v-16h52v-156h-132z" />
    <glyph glyph-name="quoteright" unicode="&#x2019;" horiz-adv-x="260" 
d="M196 714v-130c0 -107 -25 -180 -132 -191v70c35 7 52 42 52 79v16h-52v156h132z" />
    <glyph glyph-name="quotedblleft" unicode="&#x201c;" horiz-adv-x="463" 
d="M68 393v130c0 107 25 180 132 191v-70c-35 -7 -52 -42 -52 -79v-16h52v-156h-132zM263 393v130c0 107 25 180 132 191v-70c-35 -7 -52 -42 -52 -79v-16h52v-156h-132z" />
    <glyph glyph-name="quotedblright" unicode="&#x201d;" horiz-adv-x="463" 
d="M263 558v156h132v-130c0 -107 -25 -180 -132 -191v70c35 7 52 42 52 79v16h-52zM68 558v156h132v-130c0 -107 -25 -180 -132 -191v70c35 7 52 42 52 79v16h-52z" />
    <glyph glyph-name="quotesinglbase" unicode="&#x201a;" horiz-adv-x="260" 
d="M64 156h132v-130c0 -107 -25 -180 -132 -191v70c35 7 52 42 52 79v16h-52v156z" />
    <glyph glyph-name="quotedblbase" unicode="&#x201e;" horiz-adv-x="463" 
d="M68 0v156h132v-130c0 -107 -25 -180 -132 -191v70c35 7 52 42 52 79v16h-52zM263 0v156h132v-130c0 -107 -25 -180 -132 -191v70c35 7 52 42 52 79v16h-52z" />
    <glyph glyph-name="guilsinglleft" unicode="&#x2039;" horiz-adv-x="241" 
d="M46 208v162l149 120v-132l-79 -69l79 -69v-132z" />
    <glyph glyph-name="guilsinglright" unicode="&#x203a;" horiz-adv-x="241" 
d="M46 88v132l79 69l-79 69v132l149 -120v-162z" />
    <glyph glyph-name="guillemotleft" unicode="&#xab;" horiz-adv-x="426" 
d="M52 208v162l149 120v-132l-79 -69l79 -69v-132zM225 208v162l149 120v-132l-79 -69l79 -69v-132z" />
    <glyph glyph-name="guillemotright" unicode="&#xbb;" horiz-adv-x="426" 
d="M225 88v132l79 69l-79 69v132l149 -120v-162zM52 88v132l79 69l-79 69v132l149 -120v-162z" />
    <glyph glyph-name="endash" unicode="&#x2013;" 
d="M0 233v112h500v-112h-500z" />
    <glyph glyph-name="emdash" unicode="&#x2014;" horiz-adv-x="1000" 
d="M80 233v112h840v-112h-840z" />
    <glyph glyph-name="bullet" unicode="&#x2022;" 
d="M72 357c0 99 79 178 178 178s178 -79 178 -178s-79 -178 -178 -178s-178 79 -178 178z" />
    <glyph glyph-name="periodcentered" unicode="&#xb7;" horiz-adv-x="240" 
d="M23 282c0 55 42 97 97 97s97 -42 97 -97s-42 -97 -97 -97s-97 42 -97 97z" />
    <glyph glyph-name="uni2219" unicode="&#x2219;" horiz-adv-x="240" 
d="M23 282c0 55 42 97 97 97s97 -42 97 -97s-42 -97 -97 -97s-97 42 -97 97z" />
    <glyph glyph-name="dagger" unicode="&#x2020;" horiz-adv-x="480" 
d="M171 516v198h138v-198h168v-112h-168v-542h-138v542h-168v112h168z" />
    <glyph glyph-name="daggerdbl" unicode="&#x2021;" horiz-adv-x="480" 
d="M171 -138v190h-168v112h168v248h-168v112h168v190h138v-190h168v-112h-168v-248h168v-112h-168v-190h-138z" />
    <glyph glyph-name="section" unicode="&#xa7;" horiz-adv-x="481" 
d="M173 268c108 -56 122 -63 134 -72c35 29 43 51 43 72c0 35 -17 55 -68 82l-96 51c-39 -23 -55 -50 -55 -72s11 -45 42 -61zM38 37h132v-15c0 -51 30 -80 70 -80c47 0 66 34 66 67c0 37 -17 61 -64 84l-123 62c-74 37 -106 87 -106 151c0 63 34 115 90 143
c-40 30 -60 68 -60 114c0 119 90 165 205 165c136 0 190 -68 190 -162h-132c0 42 -22 68 -69 68c-39 0 -62 -25 -62 -57c0 -23 17 -46 64 -69l119 -56c61 -29 110 -76 110 -163c0 -49 -31 -116 -78 -142c33 -27 54 -65 54 -124c0 -120 -75 -175 -204 -175
c-137 0 -202 67 -202 174v15z" />
    <glyph glyph-name="paragraph" unicode="&#xb6;" horiz-adv-x="480" 
d="M182 -138v473c-119 0 -181 65 -181 186c0 153 81 193 198 193h268v-852h-106v758h-73v-758h-106z" />
    <glyph glyph-name="brokenbar" unicode="&#xa6;" horiz-adv-x="222" 
d="M49 457v271h124v-271h-124zM49 -14v271h124v-271h-124z" />
    <glyph glyph-name="copyright" unicode="&#xa9;" horiz-adv-x="800" 
d="M29 357c0 205 166 371 371 371s371 -166 371 -371s-166 -371 -371 -371s-371 166 -371 371zM141 357c0 -145 110 -265 259 -265s259 120 259 265s-110 265 -259 265s-259 -120 -259 -265zM495 298h100c-16 -100 -94 -156 -180 -156c-127 0 -207 97 -207 218
c0 123 76 218 204 218c89 0 166 -53 179 -153h-96c-11 39 -37 67 -88 67c-69 0 -105 -56 -105 -132c0 -72 39 -132 104 -132c49 0 82 27 89 70z" />
    <glyph glyph-name="registered" unicode="&#xae;" horiz-adv-x="800" 
d="M141 357c0 -145 110 -265 259 -265s259 120 259 265s-110 265 -259 265s-259 -120 -259 -265zM29 357c0 205 166 371 371 371s371 -166 371 -371s-166 -371 -371 -371s-371 166 -371 371zM343 487v-99h67c39 0 67 7 67 50c0 44 -43 49 -76 49h-58zM255 157v400h156
c104 0 154 -44 154 -124c0 -67 -43 -104 -99 -111l99 -165h-96l-94 161h-32v-161h-88z" />
    <glyph glyph-name="trademark" unicode="&#x2122;" horiz-adv-x="990" 
d="M143 300v320h-112v94h336v-94h-112v-320h-112zM842 300v284h-2l-95 -284h-100l-95 284h-2v-284h-106v414h169l83 -250h2l83 250h169v-414h-106z" />
    <glyph glyph-name="currency" unicode="&#xa4;" horiz-adv-x="480" 
d="M117 347c0 -80 48 -129 123 -129s123 49 123 129s-48 129 -123 129s-123 -49 -123 -129zM61 107l-61 62l50 50c-24 36 -39 80 -39 128c0 47 14 91 39 128l-50 50l61 62l51 -50c37 25 81 39 128 39c48 0 92 -15 128 -39l51 50l61 -62l-50 -50c25 -37 39 -81 39 -128
s-14 -91 -39 -128l50 -50l-61 -62l-51 51c-36 -25 -80 -40 -128 -40c-47 0 -90 13 -128 40z" />
    <glyph glyph-name="Euro" unicode="&#x20ac;" horiz-adv-x="480" 
d="M479 661l-46 -100c-32 34 -65 51 -99 51c-38 0 -64 -16 -78 -49c-9 -20 -14 -53 -17 -98h168l-29 -78h-142v-51h132l-29 -78h-101c2 -52 6 -88 13 -108c13 -41 38 -61 76 -61c35 0 78 22 129 67v-125c-51 -30 -102 -45 -151 -45c-135 0 -205 91 -210 272h-69l29 78h38
l1 51h-68l30 78h41c14 164 90 246 228 246c59 0 111 -17 154 -50z" />
    <glyph glyph-name="cent" unicode="&#xa2;" horiz-adv-x="480" 
d="M222 -102v88c-107 5 -189 57 -189 279c0 151 29 274 189 287v76h52v-76c85 -5 173 -42 173 -204h-132c0 41 -5 90 -41 104v-366c39 23 41 82 41 123h132c0 -133 -50 -208 -173 -223v-88h-52zM222 86v366c-44 -16 -51 -77 -51 -181c0 -80 0 -169 51 -185z" />
    <glyph glyph-name="sterling" unicode="&#xa3;" horiz-adv-x="480" 
d="M9 306v82h67c-30 58 -45 105 -45 142c0 99 70 178 214 178c136 0 215 -62 218 -207h-132c0 61 -19 113 -78 113c-63 0 -84 -39 -84 -79c0 -15 7 -51 26 -90l28 -57h167v-82h-141c3 -9 5 -22 5 -39c0 -59 -23 -100 -90 -156l4 -2c7 3 30 7 45 7c27 0 80 -30 114 -30
c21 0 60 13 104 42l44 -94c-49 -32 -99 -48 -149 -48c-47 0 -122 36 -182 36c-33 0 -58 -8 -98 -28l-41 86c69 44 117 109 117 177c0 15 -4 31 -11 49h-102z" />
    <glyph glyph-name="florin" unicode="&#x192;" horiz-adv-x="480" 
d="M64 346l16 82h105l17 89c27 141 75 197 198 197c24 0 52 0 75 -3l-19 -94c-11 3 -19 3 -28 3c-64 0 -77 -26 -96 -119l-15 -73h110l-15 -82h-111l-65 -342c-21 -113 -60 -180 -199 -180c-31 0 -57 2 -72 7l20 91c11 -3 22 -4 35 -4c58 0 72 27 85 98l64 330h-105z" />
    <glyph glyph-name="yen" unicode="&#xa5;" horiz-adv-x="480" 
d="M178 0v159h-142v82h142v43l-11 23h-131v82h92l-145 305h149l107 -269h2l112 269h144l-145 -305h92v-82h-131l-11 -23v-43h142v-82h-142v-159h-124z" />
    <glyph glyph-name="ordfeminine" unicode="&#xaa;" horiz-adv-x="314" 
d="M193 478v59c-11 -8 -18 -11 -34 -16l-21 -7c-23 -8 -28 -22 -28 -41c0 -23 9 -42 32 -42s51 12 51 47zM293 609v-172c0 -31 2 -43 11 -63h-100c-7 11 -8 24 -11 35c-23 -35 -47 -42 -94 -42c-67 0 -89 49 -89 92c0 63 25 89 89 102l58 12c27 6 36 17 36 34
c0 23 -12 37 -37 37c-27 0 -41 -16 -41 -39v-9h-94v13c0 73 56 99 137 99c115 0 135 -41 135 -99z" />
    <glyph glyph-name="ordmasculine" unicode="&#xba;" horiz-adv-x="314" 
d="M112 537c0 -61 5 -106 45 -106c33 0 45 30 45 106s-12 107 -45 107c-40 0 -45 -46 -45 -107zM12 537c0 112 35 171 145 171c115 3 145 -57 145 -171c0 -111 -35 -170 -145 -170c-115 -3 -145 57 -145 170z" />
    <glyph glyph-name="onesuperior" unicode="&#xb9;" horiz-adv-x="360" 
d="M169 400v290h-91v70h8c61 0 100 21 109 68h86v-428h-112z" />
    <glyph glyph-name="twosuperior" unicode="&#xb2;" horiz-adv-x="360" 
d="M336 400h-312c0 76 26 135 101 188l50 36c39 28 49 50 49 81c0 27 -16 47 -43 47c-43 0 -51 -41 -51 -73h-106v25c0 79 45 124 160 124c107 0 152 -43 152 -108c0 -55 -14 -90 -66 -130l-57 -44c-35 -27 -49 -48 -53 -64h176v-82z" />
    <glyph glyph-name="threesuperior" unicode="&#xb3;" horiz-adv-x="360" 
d="M24 536h106c1 -37 12 -67 49 -67c32 0 45 24 45 53c0 28 -8 63 -60 63h-28v70h28c39 0 54 26 54 53c0 25 -17 44 -41 44c-37 0 -46 -28 -46 -60h-100c0 45 12 80 36 103s61 33 109 33c100 0 148 -33 148 -109c0 -52 -26 -86 -70 -95v-2c60 -11 82 -47 82 -100
c0 -57 -25 -129 -169 -129c-100 0 -143 49 -143 133v10z" />
    <glyph glyph-name="fraction" unicode="&#x2044;" horiz-adv-x="167" 
d="M-164 -31l406 756h89l-406 -756h-89z" />
    <glyph glyph-name="uni2215" unicode="&#x2215;" horiz-adv-x="167" 
d="M-164 -31l406 756h89l-406 -756h-89z" />
    <glyph glyph-name="onehalf" unicode="&#xbd;" horiz-adv-x="850" 
d="M785 0h-312c0 76 26 135 101 188l50 36c39 28 49 50 49 81c0 27 -16 47 -43 47c-43 0 -51 -41 -51 -73h-106v25c0 79 45 124 160 124c107 0 152 -43 152 -108c0 -55 -14 -90 -66 -130l-57 -44c-35 -27 -49 -48 -53 -64h176v-82zM155 280v290h-91v70h8c61 0 100 21 109 68
h86v-428h-112zM136 -31l406 756h89l-406 -756h-89z" />
    <glyph glyph-name="onethird" unicode="&#x2153;" horiz-adv-x="850" 
d="M151 280v290h-91v70h8c61 0 100 21 109 68h86v-428h-112zM132 -31l406 756h89l-406 -756h-89zM477 137h106c1 -37 12 -67 49 -67c32 0 45 24 45 53c0 28 -8 63 -60 63h-28v70h28c39 0 54 26 54 53c0 25 -17 44 -41 44c-37 0 -46 -28 -46 -60h-100c0 45 12 80 36 103
s61 33 109 33c100 0 148 -33 148 -109c0 -52 -26 -86 -70 -95v-2c60 -11 82 -47 82 -100c0 -57 -25 -129 -169 -129c-100 0 -143 49 -143 133v10z" />
    <glyph glyph-name="onequarter" unicode="&#xbc;" horiz-adv-x="850" 
d="M155 280v290h-91v70h8c61 0 100 21 109 68h86v-428h-112zM160 -31l406 756h89l-406 -756h-89zM465 77v91l152 260h124v-269h44v-82h-44v-77h-106v77h-170zM635 159v145h-2l-86 -145h88z" />
    <glyph glyph-name="oneeighth" unicode="&#x215b;" horiz-adv-x="850" 
d="M148 280v290h-91v70h8c61 0 100 21 109 68h86v-428h-112zM129 -31l406 756h89l-406 -756h-89zM465 125c0 47 20 85 60 103c-35 18 -47 51 -47 78c0 87 57 122 150 122c94 0 151 -35 151 -122c0 -26 -13 -60 -48 -78c40 -18 61 -56 61 -103c0 -50 -21 -133 -164 -133
c-142 0 -163 83 -163 133zM577 127c0 -34 11 -61 51 -61c41 0 52 27 52 61c0 33 -11 60 -52 60c-40 0 -51 -27 -51 -60zM585 308c0 -32 17 -47 43 -47c27 0 43 15 43 47c0 31 -14 47 -43 47s-43 -16 -43 -47z" />
    <glyph glyph-name="twothirds" unicode="&#x2154;" horiz-adv-x="850" 
d="M202 -31l406 756h89l-406 -756h-89zM520 137h106c1 -37 12 -67 49 -67c32 0 45 24 45 53c0 28 -8 63 -60 63h-28v70h28c39 0 54 26 54 53c0 25 -17 44 -41 44c-37 0 -46 -28 -46 -60h-100c0 45 12 80 36 103s61 33 109 33c100 0 148 -33 148 -109c0 -52 -26 -86 -70 -95
v-2c60 -11 82 -47 82 -100c0 -57 -25 -129 -169 -129c-100 0 -143 49 -143 133v10zM329 280h-312c0 76 26 135 101 188l50 36c39 28 49 50 49 81c0 27 -16 47 -43 47c-43 0 -51 -41 -51 -73h-106v25c0 79 45 124 160 124c107 0 152 -43 152 -108c0 -55 -14 -90 -66 -130
l-57 -44c-35 -27 -49 -48 -53 -64h176v-82z" />
    <glyph glyph-name="threequarters" unicode="&#xbe;" horiz-adv-x="850" 
d="M64 416h106c1 -37 12 -67 49 -67c32 0 45 24 45 53c0 28 -8 63 -60 63h-28v70h28c39 0 54 26 54 53c0 25 -17 44 -41 44c-37 0 -46 -28 -46 -60h-100c0 45 12 80 36 103s61 33 109 33c100 0 148 -33 148 -109c0 -52 -26 -86 -70 -95v-2c60 -11 82 -47 82 -100
c0 -57 -25 -129 -169 -129c-100 0 -143 49 -143 133v10zM199 -31l406 756h89l-406 -756h-89zM547 159h88v145h-2zM465 77v91l152 260h124v-269h44v-82h-44v-77h-106v77h-170z" />
    <glyph glyph-name="threeeighths" unicode="&#x215c;" horiz-adv-x="850" 
d="M37 416h106c1 -37 12 -67 49 -67c32 0 45 24 45 53c0 28 -8 63 -60 63h-28v70h28c39 0 54 26 54 53c0 25 -17 44 -41 44c-37 0 -46 -28 -46 -60h-100c0 45 12 80 36 103s61 33 109 33c100 0 148 -33 148 -109c0 -52 -26 -86 -70 -95v-2c60 -11 82 -47 82 -100
c0 -57 -25 -129 -169 -129c-100 0 -143 49 -143 133v10zM172 -31l406 756h89l-406 -756h-89zM485 125c0 47 20 85 60 103c-35 18 -47 51 -47 78c0 87 57 122 150 122c94 0 151 -35 151 -122c0 -26 -13 -60 -48 -78c40 -18 61 -56 61 -103c0 -50 -21 -133 -164 -133
c-142 0 -163 83 -163 133zM597 127c0 -34 11 -61 51 -61c41 0 52 27 52 61c0 33 -11 60 -52 60c-40 0 -51 -27 -51 -60zM605 308c0 -32 17 -47 43 -47c27 0 43 15 43 47c0 31 -14 47 -43 47s-43 -16 -43 -47z" />
    <glyph glyph-name="fiveeighths" unicode="&#x215d;" horiz-adv-x="850" 
d="M176 -31l406 756h89l-406 -756h-89zM489 125c0 47 20 85 60 103c-35 18 -47 51 -47 78c0 87 57 122 150 122c94 0 151 -35 151 -122c0 -26 -13 -60 -48 -78c40 -18 61 -56 61 -103c0 -50 -21 -133 -164 -133c-142 0 -163 83 -163 133zM601 127c0 -34 11 -61 51 -61
c41 0 52 27 52 61c0 33 -11 60 -52 60c-40 0 -51 -27 -51 -60zM609 308c0 -32 17 -47 43 -47c27 0 43 15 43 47c0 31 -14 47 -43 47s-43 -16 -43 -47zM329 701v-84h-183l-7 -67c20 17 48 24 84 24c99 0 126 -70 126 -140c0 -96 -33 -161 -164 -161c-130 0 -151 74 -151 124
v20h107c0 -27 5 -67 43 -67s53 24 53 70c0 60 -12 77 -52 77c-25 0 -39 -14 -43 -37h-101l20 241h268z" />
    <glyph glyph-name="seveneighths" unicode="&#x215e;" horiz-adv-x="850" 
d="M154 -31l406 756h89l-406 -756h-89zM467 125c0 47 20 85 60 103c-35 18 -47 51 -47 78c0 87 57 122 150 122c94 0 151 -35 151 -122c0 -26 -13 -60 -48 -78c40 -18 61 -56 61 -103c0 -50 -21 -133 -164 -133c-142 0 -163 83 -163 133zM579 127c0 -34 11 -61 51 -61
c41 0 52 27 52 61c0 33 -11 60 -52 60c-40 0 -51 -27 -51 -60zM587 308c0 -32 17 -47 43 -47c27 0 43 15 43 47c0 31 -14 47 -43 47s-43 -16 -43 -47zM56 699h315v-77c-82 -96 -129 -225 -146 -343h-117c15 102 56 224 143 329h-195v91z" />
    <glyph glyph-name="perthousand" unicode="&#x2030;" horiz-adv-x="1093" 
d="M128 -31l406 756h89l-406 -756h-89zM534 181c0 -80 4 -119 44 -119s44 39 44 119c0 72 -4 111 -44 111s-44 -39 -44 -111zM428 177c0 129 26 191 150 191s150 -62 150 -191s-26 -191 -150 -191s-150 62 -150 191zM133 521c0 -80 4 -119 44 -119s44 39 44 119
c0 72 -4 111 -44 111s-44 -39 -44 -111zM27 517c0 129 26 191 150 191s150 -62 150 -191s-26 -191 -150 -191s-150 62 -150 191zM766 177c0 129 26 191 150 191s150 -62 150 -191s-26 -191 -150 -191s-150 62 -150 191zM872 181c0 -80 4 -119 44 -119s44 39 44 119
c0 72 -4 111 -44 111s-44 -39 -44 -111z" />
    <glyph glyph-name="minus" unicode="&#x2212;" horiz-adv-x="600" 
d="M47 191v124h506v-124h-506z" />
    <glyph glyph-name="plusminus" unicode="&#xb1;" horiz-adv-x="600" 
d="M47 0v124h506v-124h-506zM238 398v108h124v-108h191v-124h-191v-108h-124v108h-191v124h191z" />
    <glyph glyph-name="multiply" unicode="&#xd7;" horiz-adv-x="600" 
d="M59 98l156 155l-156 155l86 86l155 -156l155 156l86 -86l-156 -155l156 -155l-86 -86l-155 156l-155 -156z" />
    <glyph glyph-name="divide" unicode="&#xf7;" horiz-adv-x="600" 
d="M203 41c0 55 42 97 97 97s97 -42 97 -97s-42 -97 -97 -97s-97 42 -97 97zM203 465c0 55 42 97 97 97s97 -42 97 -97s-42 -97 -97 -97s-97 42 -97 97zM47 191v124h506v-124h-506z" />
    <glyph glyph-name="notequal" unicode="&#x2260;" horiz-adv-x="593" 
d="M559 94h-286l-78 -155l-98 50l52 105h-115v113h173l56 112h-229v113h286l78 153l99 -49l-53 -104h115v-113h-172l-56 -112h228v-113z" />
    <glyph glyph-name="approxequal" unicode="&#x2248;" horiz-adv-x="593" 
d="M567 457c-9 -93 -50 -176 -156 -176c-74 0 -186 66 -247 66c-37 0 -57 -33 -62 -66h-75c7 89 50 175 151 175c80 0 178 -63 253 -63c38 0 56 30 62 64h74zM565 244c-9 -91 -48 -176 -151 -176c-77 0 -195 67 -252 67c-36 0 -57 -35 -62 -67h-75c7 88 51 177 151 177
c83 0 171 -64 254 -64c37 0 55 29 61 63h74z" />
    <glyph glyph-name="lessequal" unicode="&#x2264;" horiz-adv-x="593" 
d="M559 106l-525 170v113l525 174v-118l-370 -112l370 -109v-118zM559 -38h-525v113h525v-113z" />
    <glyph glyph-name="greaterequal" unicode="&#x2265;" horiz-adv-x="593" 
d="M559 276l-525 -170v118l370 109l-370 112v118l525 -174v-113zM559 -38h-525v113h525v-113z" />
    <glyph glyph-name="logicalnot" unicode="&#xac;" horiz-adv-x="600" 
d="M429 98v202h-382v124h506v-326h-124z" />
    <glyph glyph-name="Delta" unicode="&#x2206;" horiz-adv-x="552" 
d="M552 0h-552l188 714h184zM278 585l-105 -472h208l-101 472h-2z" />
    <glyph glyph-name="uni0394" unicode="&#x394;" horiz-adv-x="552" 
d="M552 0h-552l188 714h184zM278 585l-105 -472h208l-101 472h-2z" />
    <glyph glyph-name="Omega" unicode="&#x2126;" horiz-adv-x="556" 
d="M311 0v118c59 51 84 168 84 283c0 132 -34 226 -116 226c-80 0 -125 -87 -125 -236c0 -116 27 -220 86 -271v-120h-230v121c24 0 93 0 109 2h1c-72 74 -100 144 -100 267c0 217 75 339 259 339c183 0 250 -134 250 -329c0 -124 -27 -202 -95 -278h1v-1h111v-121h-235z
" />
    <glyph glyph-name="uni03A9" unicode="&#x3a9;" horiz-adv-x="556" 
d="M311 0v118c59 51 84 168 84 283c0 132 -34 226 -116 226c-80 0 -125 -87 -125 -236c0 -116 27 -220 86 -271v-120h-230v121c24 0 93 0 109 2h1c-72 74 -100 144 -100 267c0 217 75 339 259 339c183 0 250 -134 250 -329c0 -124 -27 -202 -95 -278h1v-1h111v-121h-235z
" />
    <glyph glyph-name="mu" unicode="&#xb5;" horiz-adv-x="509" 
d="M450 538v-390c0 -54 2 -68 21 -68c9 0 17 2 30 7v-82c-16 -12 -42 -19 -70 -19c-53 0 -93 22 -108 82h-2c-22 -61 -67 -82 -102 -82c-14 0 -29 4 -37 12v-174h-138v714h139v-370c0 -51 18 -74 51 -74c46 0 77 37 77 103v341h139z" />
    <glyph glyph-name="uni03BC" unicode="&#x3bc;" horiz-adv-x="509" 
d="M450 538v-390c0 -54 2 -68 21 -68c9 0 17 2 30 7v-82c-16 -12 -42 -19 -70 -19c-53 0 -93 22 -108 82h-2c-22 -61 -67 -82 -102 -82c-14 0 -29 4 -37 12v-174h-138v714h139v-370c0 -51 18 -74 51 -74c46 0 77 37 77 103v341h139z" />
    <glyph glyph-name="pi" unicode="&#x3c0;" horiz-adv-x="551" 
d="M521 99v-89c-27 -15 -50 -23 -81 -23c-75 0 -119 46 -119 126v313h-106v-426h-139v426h-67v112h527v-112h-79v-271c0 -33 -4 -65 27 -65c13 0 22 3 37 9z" />
    <glyph glyph-name="degree" unicode="&#xb0;" horiz-adv-x="400" 
d="M128 560c0 -40 32 -72 72 -72s72 32 72 72s-32 72 -72 72s-72 -32 -72 -72zM52 560c0 83 65 148 148 148s148 -65 148 -148s-65 -148 -148 -148s-148 65 -148 148z" />
    <glyph glyph-name="afii61289" unicode="&#x2113;" 
d="M449 51c-51 -44 -104 -65 -165 -65c-100 0 -158 59 -158 144v53l-56 -51h-2l-45 70l102 85v241c0 112 72 193 172 193c87 0 145 -59 145 -147c0 -102 -63 -197 -189 -307v-117c0 -54 33 -70 63 -70c25 0 56 12 88 37h2zM337 567c0 39 -16 69 -40 69s-44 -32 -44 -84v-177
c58 63 84 131 84 192z" />
    <glyph glyph-name="estimated" unicode="&#x212e;" horiz-adv-x="600" 
d="M561 259h-404v-181c39 -39 87 -59 145 -59c83 0 143 36 193 120l35 -21c-61 -95 -123 -135 -228 -135c-157 0 -258 122 -258 276c0 155 101 276 258 276c154 0 258 -114 259 -276zM157 295h291v145c-42 40 -91 60 -147 60c-57 0 -105 -21 -144 -60v-145z" />
    <glyph glyph-name="eng" unicode="&#x14b;" 
d="M316 10v361c0 55 -18 75 -59 75c-49 0 -73 -30 -73 -89v-357h-138v538h132v-63h2c29 53 78 77 137 77c87 0 137 -46 137 -153v-420c0 -98 -37 -155 -160 -155c-16 0 -36 1 -56 2v100s9 -2 22 -2c49 0 56 26 56 86z" />
    <glyph glyph-name="Eng" unicode="&#x14a;" horiz-adv-x="574" 
d="M391 0l-207 500h-2v-500h-132v714h166l174 -454h2v454h132v-735c0 -98 -36 -155 -159 -155c-16 0 -36 1 -56 2v100s9 -2 22 -2c49 0 60 16 60 76z" />
    <glyph glyph-name="infinity" unicode="&#x221e;" horiz-adv-x="823" 
d="M778 265c0 -104 -65 -187 -173 -187c-83 0 -141 54 -193 113c-56 -59 -104 -112 -192 -112c-108 0 -175 80 -175 184c0 103 64 183 171 183c88 0 144 -56 196 -119c51 62 108 120 194 120c107 0 172 -79 172 -182zM684 262c0 47 -31 85 -80 85c-52 0 -100 -51 -132 -87
c35 -39 80 -81 135 -81c49 0 77 37 77 83zM352 260c-33 36 -85 86 -136 86c-47 0 -76 -41 -76 -85c0 -48 30 -81 79 -81c52 0 101 43 133 80z" />
    <glyph glyph-name="partialdiff" unicode="&#x2202;" horiz-adv-x="560" 
d="M518 359c0 -171 -46 -372 -256 -372c-134 0 -222 97 -222 229c0 127 88 222 217 222c54 0 99 -19 141 -53l1 26c2 93 -35 220 -149 220c-48 0 -85 -21 -121 -50l-62 72c56 43 105 68 178 68c207 0 273 -187 273 -362zM397 265l-1 24c-33 38 -70 62 -122 62
c-82 0 -120 -66 -120 -141c0 -70 34 -135 112 -135c94 0 133 112 131 190z" />
    <glyph glyph-name="integral" unicode="&#x222b;" horiz-adv-x="614" 
d="M493 708c0 -30 -23 -55 -54 -55c-64 0 -47 76 -75 76c-15 0 -18 -16 -18 -28c0 -48 4 -97 4 -145l1 -470c0 -114 16 -300 -150 -300c-46 0 -113 23 -113 79c0 31 24 53 54 53c64 0 46 -76 74 -76c17 0 18 21 18 33c0 37 -4 74 -4 112l-1 529c0 68 -6 168 43 222
c29 32 67 47 110 47c46 0 111 -22 111 -77z" />
    <glyph glyph-name="radical" unicode="&#x221a;" horiz-adv-x="545" 
d="M557 786l-213 -1000h-110l-151 313l-51 -24l-44 93l155 71l126 -269l166 816h122z" />
    <glyph glyph-name="summation" unicode="&#x2211;" horiz-adv-x="654" 
d="M629 -214h-604v95l301 411l-288 400v94h579v-109h-421l272 -384l-290 -398h451v-109z" />
    <glyph glyph-name="product" unicode="&#x220f;" horiz-adv-x="743" 
d="M683 -214h-119v891h-385v-891h-119v1000h623v-1000z" />
    <glyph glyph-name="lozenge" unicode="&#x25ca;" horiz-adv-x="593" 
d="M528 356l-180 -391h-105l-178 391l179 391h104zM413 356l-117 279l-116 -279l116 -280z" />
    <glyph glyph-name="f_i" horiz-adv-x="537" 
d="M348 604v118h138v-118h-138zM348 0v538h138v-538h-138zM76 0v444h-70v94h70v61c0 97 55 129 144 129c24 0 49 -1 74 -3v-98s-11 1 -27 1c-39 0 -53 -12 -53 -43v-47h80v-94h-80v-444h-138z" />
    <glyph glyph-name="f_l" horiz-adv-x="537" 
d="M348 0v722h138v-722h-138zM76 0v444h-70v94h70v61c0 97 55 129 144 129c24 0 49 -1 74 -3v-98s-11 1 -27 1c-39 0 -53 -12 -53 -43v-47h80v-94h-80v-444h-138z" />
    <glyph glyph-name="uniF8FF" unicode="&#xf8ff;" horiz-adv-x="512" 
d="M278 117h-56v67h56v-67zM271 234h-46l-2 17c0 37 4 64 13 81s24 37 46 59c43 41 50 58 50 83c0 48 -35 85 -76 85s-74 -27 -82 -95l-50 8c9 95 63 137 135 137c71 0 124 -52 124 -131c0 -43 -12 -73 -63 -120c-25 -22 -39 -39 -43 -52s-6 -37 -6 -72zM50 50h412v617h-412
v-617zM0 718h512v-718h-512v718z" />
    <glyph glyph-name="uni2010" unicode="&#x2010;" horiz-adv-x="370" 
d="M44 348h282v-118h-282v118z" />
    <glyph glyph-name="afii00208" unicode="&#x2015;" horiz-adv-x="1000" 
d="M0 233v112h1000v-112h-1000z" />
    <glyph glyph-name="interrobang" unicode="&#x203d;" horiz-adv-x="481" 
d="M286 199h-105l-1 367c-17 -17 -26 -45 -26 -78v-22h-122v20c0 92 51 162 148 181v47h101v-45c109 -14 164 -79 164 -171c0 -49 -15 -91 -63 -140l-40 -41c-35 -35 -56 -57 -56 -103v-15zM162 132h138v-132h-138v132zM318 492c0 31 -14 60 -38 78v-194c29 36 38 75 38 116
z" />
    <glyph glyph-name="zero.superior" unicode="&#x2070;" horiz-adv-x="360" 
d="M19 600c0 119 8 228 160 228c125 0 161 -56 161 -208c0 -118 -8 -228 -161 -228c-124 0 -160 56 -160 208zM131 627v-44c0 -96 10 -117 48 -117c39 0 49 30 49 128v44c0 95 -11 117 -49 117c-39 0 -48 -30 -48 -128z" />
    <glyph glyph-name="four.superior" unicode="&#x2074;" horiz-adv-x="360" 
d="M20 477v91l152 260h124v-269h44v-82h-44v-77h-106v77h-170zM190 559v145h-2l-86 -145h88z" />
    <glyph glyph-name="five.superior" unicode="&#x2075;" horiz-adv-x="360" 
d="M317 820v-84h-183l-7 -67c20 17 48 24 84 24c99 0 126 -70 126 -140c0 -96 -33 -161 -164 -161c-130 0 -151 74 -151 124v20h107c0 -27 5 -67 43 -67s53 24 53 70c0 60 -12 77 -52 77c-25 0 -39 -14 -43 -37h-101l20 241h268z" />
    <glyph glyph-name="six.superior" unicode="&#x2076;" horiz-adv-x="360" 
d="M331 705h-108c0 32 -10 50 -40 50c-48 0 -55 -40 -55 -95v-5c20 19 50 30 88 30c91 0 127 -58 127 -137c0 -100 -51 -156 -166 -156c-143 0 -161 96 -161 201c0 120 3 235 172 235c74 0 140 -30 143 -123zM133 537c0 -41 7 -71 49 -71c43 0 49 30 49 71
c0 48 -14 68 -49 68c-36 0 -49 -20 -49 -68z" />
    <glyph glyph-name="seven.superior" unicode="&#x2077;" horiz-adv-x="360" 
d="M22 820h315v-77c-82 -96 -129 -225 -146 -343h-117c15 102 56 224 143 329h-195v91z" />
    <glyph glyph-name="eight.superior" unicode="&#x2078;" horiz-adv-x="360" 
d="M16 525c0 47 20 85 60 103c-35 18 -47 51 -47 78c0 87 57 122 150 122c94 0 151 -35 151 -122c0 -26 -13 -60 -48 -78c40 -18 61 -56 61 -103c0 -50 -21 -133 -164 -133c-142 0 -163 83 -163 133zM128 527c0 -34 11 -61 51 -61c41 0 52 27 52 61c0 33 -11 60 -52 60
c-40 0 -51 -27 -51 -60zM136 708c0 -32 17 -47 43 -47c27 0 43 15 43 47c0 31 -14 47 -43 47s-43 -16 -43 -47z" />
    <glyph glyph-name="nine.superior" unicode="&#x2079;" horiz-adv-x="360" 
d="M28 515h108c0 -31 10 -49 39 -49c48 0 56 40 56 94v5c-20 -18 -51 -30 -89 -30c-91 0 -126 58 -126 138c0 100 50 155 165 155c143 0 162 -96 162 -200c0 -121 -4 -236 -172 -236c-74 0 -141 30 -143 123zM128 684c0 -49 14 -68 48 -68c36 0 50 19 50 68
c0 41 -8 71 -50 71c-43 0 -48 -31 -48 -71z" />
    <glyph glyph-name="plus.superior" unicode="&#x207a;" horiz-adv-x="360" 
d="M131 400v111h-113v90h113v111h98v-111h113v-90h-113v-111h-98z" />
    <glyph glyph-name="minus.superior" unicode="&#x207b;" horiz-adv-x="360" 
d="M342 511h-324v90h324v-90z" />
    <glyph glyph-name="equal.superior" unicode="&#x207c;" horiz-adv-x="360" 
d="M18 448v91h324v-91h-324zM18 573v91h324v-91h-324z" />
    <glyph glyph-name="parenleft.superior" unicode="&#x207d;" horiz-adv-x="360" 
d="M186 872h90c-64 -98 -88 -174 -88 -269c0 -96 24 -171 88 -269h-90c-72 95 -102 185 -102 269s30 174 102 269z" />
    <glyph glyph-name="parenright.superior" unicode="&#x207e;" horiz-adv-x="360" 
d="M84 872h89c72 -95 102 -185 102 -269s-30 -174 -102 -269h-89c64 98 88 173 88 269c0 95 -24 171 -88 269z" />
    <glyph glyph-name="n.superior" unicode="&#x207f;" horiz-adv-x="378" 
d="M25 401v326h103v-43h2c23 36 63 53 112 53c71 0 111 -31 111 -114v-222h-108v198c0 38 -19 56 -53 56c-40 0 -59 -25 -59 -66v-188h-108z" />
    <glyph glyph-name="zero.inferior" unicode="&#x2080;" horiz-adv-x="360" 
d="M19 30c0 119 8 228 160 228c125 0 161 -56 161 -208c0 -118 -8 -228 -161 -228c-124 0 -160 56 -160 208zM131 57v-44c0 -96 10 -117 48 -117c39 0 49 30 49 128v44c0 95 -11 117 -49 117c-39 0 -48 -30 -48 -128z" />
    <glyph glyph-name="one.inferior" unicode="&#x2081;" horiz-adv-x="360" 
d="M285 -170h-112v289h-98v74h15c63 0 101 20 111 65h84v-428z" />
    <glyph glyph-name="two.inferior" unicode="&#x2082;" horiz-adv-x="360" 
d="M336 -170h-312c0 76 26 135 101 188l50 36c39 28 49 50 49 81c0 27 -16 47 -43 47c-43 0 -51 -41 -51 -73h-106v25c0 79 45 124 160 124c107 0 152 -43 152 -108c0 -55 -14 -90 -66 -130l-57 -44c-35 -27 -49 -48 -53 -64h176v-82z" />
    <glyph glyph-name="three.inferior" unicode="&#x2083;" horiz-adv-x="360" 
d="M24 -35h106c1 -37 12 -67 49 -67c32 0 45 24 45 53c0 28 -8 63 -60 63h-28v70h28c39 0 54 26 54 53c0 25 -17 44 -41 44c-37 0 -46 -28 -46 -60h-100c0 45 12 80 36 103s61 33 109 33c100 0 148 -33 148 -109c0 -52 -26 -86 -70 -95v-2c60 -11 82 -47 82 -100
c0 -57 -25 -129 -169 -129c-100 0 -143 49 -143 133v10z" />
    <glyph glyph-name="four.inferior" unicode="&#x2084;" horiz-adv-x="360" 
d="M20 -93v91l152 260h124v-269h44v-82h-44v-77h-106v77h-170zM190 -11v145h-2l-86 -145h88z" />
    <glyph glyph-name="five.inferior" unicode="&#x2085;" horiz-adv-x="360" 
d="M317 250v-84h-183l-7 -67c20 17 48 24 84 24c99 0 126 -70 126 -140c0 -96 -33 -161 -164 -161c-130 0 -151 74 -151 124v20h107c0 -27 5 -67 43 -67s53 24 53 70c0 60 -12 77 -52 77c-25 0 -39 -14 -43 -37h-101l20 241h268z" />
    <glyph glyph-name="six.inferior" unicode="&#x2086;" horiz-adv-x="360" 
d="M331 135h-108c0 32 -10 50 -40 50c-48 0 -55 -40 -55 -95v-5c20 19 50 30 88 30c91 0 127 -58 127 -137c0 -100 -51 -156 -166 -156c-143 0 -161 96 -161 201c0 120 3 235 172 235c74 0 140 -30 143 -123zM133 -33c0 -41 7 -71 49 -71c43 0 49 30 49 71
c0 48 -14 68 -49 68c-36 0 -49 -20 -49 -68z" />
    <glyph glyph-name="seven.inferior" unicode="&#x2087;" horiz-adv-x="360" 
d="M22 250h315v-77c-82 -96 -129 -225 -146 -343h-117c15 102 56 224 143 329h-195v91z" />
    <glyph glyph-name="eight.inferior" unicode="&#x2088;" horiz-adv-x="360" 
d="M16 -45c0 47 20 85 60 103c-35 18 -47 51 -47 78c0 87 57 122 150 122c94 0 151 -35 151 -122c0 -26 -13 -60 -48 -78c40 -18 61 -56 61 -103c0 -50 -21 -133 -164 -133c-142 0 -163 83 -163 133zM128 -43c0 -34 11 -61 51 -61c41 0 52 27 52 61c0 33 -11 60 -52 60
c-40 0 -51 -27 -51 -60zM136 138c0 -32 17 -47 43 -47c27 0 43 15 43 47c0 31 -14 47 -43 47s-43 -16 -43 -47z" />
    <glyph glyph-name="nine.inferior" unicode="&#x2089;" horiz-adv-x="360" 
d="M28 -55h108c0 -31 10 -49 39 -49c48 0 56 40 56 94v5c-20 -18 -51 -30 -89 -30c-91 0 -126 58 -126 138c0 100 50 155 165 155c143 0 162 -96 162 -200c0 -121 -4 -236 -172 -236c-74 0 -141 30 -143 123zM128 114c0 -49 14 -68 48 -68c36 0 50 19 50 68
c0 41 -8 71 -50 71c-43 0 -48 -31 -48 -71z" />
    <glyph glyph-name="plus.inferior" unicode="&#x208a;" horiz-adv-x="360" 
d="M131 -170v111h-113v90h113v111h98v-111h113v-90h-113v-111h-98z" />
    <glyph glyph-name="minus.inferior" unicode="&#x208b;" horiz-adv-x="360" 
d="M342 -59h-324v90h324v-90z" />
    <glyph glyph-name="equal.inferior" unicode="&#x208c;" horiz-adv-x="360" 
d="M18 -122v91h324v-91h-324zM18 3v91h324v-91h-324z" />
    <glyph glyph-name="parenleft.inferior" unicode="&#x208d;" horiz-adv-x="360" 
d="M186 302h90c-64 -98 -88 -174 -88 -269c0 -96 24 -171 88 -269h-90c-72 95 -102 185 -102 269s30 174 102 269z" />
    <glyph glyph-name="parenright.inferior" unicode="&#x208e;" horiz-adv-x="360" 
d="M84 302h89c72 -95 102 -185 102 -269s-30 -174 -102 -269h-89c64 98 88 173 88 269c0 95 -24 171 -88 269z" />
    <glyph glyph-name="afii61248" unicode="&#x2105;" horiz-adv-x="850" 
d="M171 -31l406 756h89l-406 -756h-89zM343 541h-112c0 60 -14 86 -55 86c-45 0 -56 -39 -56 -149c0 -116 19 -137 58 -137c32 0 57 15 57 104h112c0 -100 -28 -185 -164 -185c-156 0 -175 93 -175 224s19 224 175 224c149 0 160 -99 160 -167zM490 216
c0 131 19 224 175 224c155 0 175 -93 175 -224s-20 -224 -175 -224c-156 0 -175 93 -175 224zM602 216c0 -104 8 -143 63 -143c54 0 63 39 63 143c0 103 -9 143 -63 143c-55 0 -63 -40 -63 -143z" />
    <glyph glyph-name="afii61352" unicode="&#x2116;" horiz-adv-x="868" 
d="M826 289c0 -123 -39 -171 -137 -171c-92 0 -129 48 -129 169c0 109 30 171 135 171c95 0 131 -47 131 -169zM827 0h-267v88h267v-88zM505 0h-170l-158 486c4 -28 6 -124 6 -165v-321h-135v698h171l157 -472c-3 32 -6 100 -6 134v338h135v-698zM737 289
c0 85 -10 111 -44 111c-33 0 -44 -29 -44 -114c0 -83 11 -112 44 -112s44 30 44 115z" />
    <glyph glyph-name="published" unicode="&#x2117;" horiz-adv-x="800" 
d="M141 357c0 -145 110 -265 259 -265s259 120 259 265s-110 265 -259 265s-259 -120 -259 -265zM29 357c0 205 166 371 371 371s371 -166 371 -371s-166 -371 -371 -371s-371 166 -371 371zM269 156v401h156c101 0 157 -43 157 -127c0 -79 -59 -126 -143 -126h-83v-148h-87
zM356 487v-113h70c41 0 64 20 64 58c0 36 -22 55 -65 55h-69z" />
    <glyph glyph-name="uni0374" unicode="&#x374;" horiz-adv-x="225" 
d="M33 572l25 174h138l-64 -174h-99z" />
    <glyph glyph-name="uni0375" unicode="&#x375;" horiz-adv-x="225" 
d="M189 -29l-25 -174h-138l64 174h99z" />
    <glyph glyph-name="uni037E" unicode="&#x37e;" horiz-adv-x="240" 
d="M54 521h132v-156h-132v156zM54 156h132v-130c0 -107 -25 -180 -132 -191v70c35 7 52 42 52 79v16h-52v156z" />
    <glyph glyph-name="tonos" unicode="&#x384;" horiz-adv-x="225" 
d="M46 602l25 144h138l-64 -144h-99z" />
    <glyph glyph-name="tonos.cap" horiz-adv-x="225" 
d="M40 570l25 144h138l-64 -144h-99z" />
    <glyph glyph-name="dieresistonos" unicode="&#x385;" horiz-adv-x="382" 
d="M301 615v118h112v-118h-112zM-31 615v118h112v-118h-112zM115 602l25 144h138l-64 -144h-99z" />
    <glyph glyph-name="Alphatonos" unicode="&#x386;" horiz-adv-x="611" 
d="M0 570l25 144h138l-64 -144h-99zM333 590l-69 -321h140l-69 321h-2zM56 0l189 714h178l189 -714h-150l-33 151h-190l-33 -151h-150z" />
    <glyph glyph-name="anoteleia" unicode="&#x387;" horiz-adv-x="240" 
d="M54 365v156h132v-156h-132z" />
    <glyph glyph-name="Epsilontonos" unicode="&#x388;" horiz-adv-x="651" 
d="M0 570l25 144h138l-64 -144h-99zM220 714h399v-118h-255v-168h240v-118h-240v-192h265v-118h-409v714z" />
    <glyph glyph-name="Etatonos" unicode="&#x389;" horiz-adv-x="736" 
d="M0 570l25 144h138l-64 -144h-99zM229 0v714h144v-273h168v273h144v-714h-144v317h-168v-317h-144z" />
    <glyph glyph-name="Iotatonos" unicode="&#x38a;" horiz-adv-x="428" 
d="M0 570l25 144h138l-64 -144h-99zM372 0h-144v714h144v-714z" />
    <glyph glyph-name="Omicrontonos" unicode="&#x38c;" horiz-adv-x="682" 
d="M0 570l25 144h138l-64 -144h-99zM161 357c0 217 27 371 243 371s243 -154 243 -371s-27 -371 -243 -371s-243 154 -243 371zM305 357c0 -192 14 -265 99 -265s99 73 99 265c0 191 -14 265 -99 265s-99 -74 -99 -265z" />
    <glyph glyph-name="Upsilontonos" unicode="&#x38e;" horiz-adv-x="740" 
d="M0 570l25 144h138l-64 -144h-99zM223 714h162l94 -276h2l100 276h156l-185 -433v-281h-144v281z" />
    <glyph glyph-name="Omegatonos" unicode="&#x38f;" horiz-adv-x="696" 
d="M0 570l25 144h138l-64 -144h-99zM451 0v118c59 51 84 168 84 283c0 132 -34 226 -116 226c-80 0 -125 -87 -125 -236c0 -116 27 -220 86 -271v-120h-230v121c24 0 93 0 109 2h1c-72 74 -100 144 -100 267c0 217 75 339 259 339c183 0 250 -134 250 -329
c0 -124 -27 -202 -95 -278h1v-1h111v-121h-235z" />
    <glyph glyph-name="iotadieresistonos" unicode="&#x390;" horiz-adv-x="258" 
d="M46 117v421h139v-384c0 -50 6 -65 26 -65c12 0 22 3 37 9v-89c-27 -15 -50 -23 -83 -23c-73 0 -119 41 -119 131zM245 615v118h112v-118h-112zM-87 615v118h112v-118h-112zM59 602l25 144h138l-64 -144h-99z" />
    <glyph glyph-name="Alpha" unicode="&#x391;" horiz-adv-x="556" 
d="M277 590l-69 -321h140l-69 321h-2zM0 0l189 714h178l189 -714h-150l-33 151h-190l-33 -151h-150z" />
    <glyph glyph-name="Beta" unicode="&#x392;" horiz-adv-x="556" 
d="M194 321v-215h56c69 0 116 25 116 108s-47 107 -110 107h-62zM194 608v-187h41c80 0 115 26 115 94s-32 93 -104 93h-52zM50 0v714h241c118 0 203 -44 203 -181c0 -77 -36 -136 -108 -156v-2c80 -11 130 -70 130 -166c0 -112 -55 -209 -223 -209h-243z" />
    <glyph glyph-name="Gamma" unicode="&#x393;" horiz-adv-x="439" 
d="M50 0v714h377v-116h-232v-598h-145z" />
    <glyph glyph-name="Epsilon" unicode="&#x395;" horiz-adv-x="481" 
d="M50 714h399v-118h-255v-168h240v-118h-240v-192h265v-118h-409v714z" />
    <glyph glyph-name="Zeta" unicode="&#x396;" horiz-adv-x="481" 
d="M24 0v105l263 491h-245v118h411v-109l-267 -487h271v-118h-433z" />
    <glyph glyph-name="Eta" unicode="&#x397;" horiz-adv-x="556" 
d="M50 0v714h144v-273h168v273h144v-714h-144v317h-168v-317h-144z" />
    <glyph glyph-name="Theta" unicode="&#x398;" horiz-adv-x="556" 
d="M208 329v89h140v-89h-140zM35 357c0 217 27 371 243 371s243 -154 243 -371s-27 -371 -243 -371s-243 154 -243 371zM179 357c0 -192 14 -265 99 -265s99 73 99 265c0 191 -14 265 -99 265s-99 -74 -99 -265z" />
    <glyph glyph-name="Iota" unicode="&#x399;" horiz-adv-x="258" 
d="M201 0h-144v714h144v-714z" />
    <glyph glyph-name="Kappa" unicode="&#x39a;" horiz-adv-x="537" 
d="M50 714h144v-286h2l182 286h156l-194 -306l216 -408h-162l-147 293l-53 -81v-212h-144v714z" />
    <glyph glyph-name="Lambda" unicode="&#x39b;" horiz-adv-x="552" 
d="M403 0l-123 585h-2l-129 -585h-149l188 714h184l180 -714h-149z" />
    <glyph glyph-name="Mu" unicode="&#x39c;" horiz-adv-x="740" 
d="M53 0v714h214l102 -504h2l103 504h213v-714h-132v570h-2l-127 -570h-112l-127 570h-2v-570h-132z" />
    <glyph glyph-name="Nu" unicode="&#x39d;" horiz-adv-x="574" 
d="M50 714h166l174 -489h2v489h132v-714h-164l-176 500h-2v-500h-132v714z" />
    <glyph glyph-name="Xi" unicode="&#x39e;" horiz-adv-x="426" 
d="M13 -1v119h398v-119h-398zM12 595v119h402v-119h-402zM48 309v120h330v-120h-330z" />
    <glyph glyph-name="Omicron" unicode="&#x39f;" horiz-adv-x="556" 
d="M35 357c0 217 27 371 243 371s243 -154 243 -371s-27 -371 -243 -371s-243 154 -243 371zM179 357c0 -192 14 -265 99 -265s99 73 99 265c0 191 -14 265 -99 265s-99 -74 -99 -265z" />
    <glyph glyph-name="Pi" unicode="&#x3a0;" horiz-adv-x="556" 
d="M50 0v714h456v-714h-144v595h-168v-595h-144z" />
    <glyph glyph-name="Rho" unicode="&#x3a1;" horiz-adv-x="519" 
d="M194 608v-217h64c57 0 96 34 96 107c0 71 -28 110 -100 110h-60zM50 0v714h252c147 0 196 -107 196 -214c0 -148 -91 -215 -227 -215h-77v-285h-144z" />
    <glyph glyph-name="Sigma" unicode="&#x3a3;" horiz-adv-x="489" 
d="M473 0h-454v104l185 266l-176 240v104h432v-119h-260l168 -222l-173 -255h278v-118z" />
    <glyph glyph-name="Tau" unicode="&#x3a4;" horiz-adv-x="480" 
d="M12 714h456v-118h-156v-596h-144v596h-156v118z" />
    <glyph glyph-name="Upsilon" unicode="&#x3a5;" horiz-adv-x="520" 
d="M3 714h162l94 -276h2l100 276h156l-185 -433v-281h-144v281z" />
    <glyph glyph-name="Phi" unicode="&#x3a6;" horiz-adv-x="652" 
d="M256 193v353c-58 -6 -88 -74 -88 -178c0 -106 29 -168 88 -175zM396 545v-352c62 8 89 71 89 179c0 103 -29 169 -89 173zM256 737h141v-76c140 -8 230 -111 230 -289c0 -179 -87 -278 -230 -293v-79h-141v77c-142 13 -231 109 -231 291c0 185 96 281 231 293v76z" />
    <glyph glyph-name="Chi" unicode="&#x3a7;" horiz-adv-x="537" 
d="M184 361l-164 353h159l92 -231l91 231h157l-166 -353l178 -361h-162l-103 242l-102 -242h-158z" />
    <glyph glyph-name="Psi" unicode="&#x3a8;" horiz-adv-x="671" 
d="M264 272v442h143v-442c58 8 81 72 81 168v274h143v-276c0 -169 -78 -262 -223 -280v-158h-144v157c-155 12 -224 105 -224 281v276h143v-274c0 -98 22 -159 81 -168z" />
    <glyph glyph-name="Iotadieresis" unicode="&#x3aa;" horiz-adv-x="258" 
d="M201 0h-144v714h144v-714zM160 769v118h112v-118h-112zM-12 769v118h112v-118h-112z" />
    <glyph glyph-name="Upsilondieresis" unicode="&#x3ab;" horiz-adv-x="520" 
d="M3 714h162l94 -276h2l100 276h156l-185 -433v-281h-144v281zM290 769v118h112v-118h-112zM118 769v118h112v-118h-112z" />
    <glyph glyph-name="alphatonos" unicode="&#x3ac;" horiz-adv-x="525" 
d="M313 267c0 128 -19 179 -71 179c-59 0 -69 -80 -69 -177c0 -115 14 -177 67 -177c56 0 73 42 73 175zM324 55h-2c-15 -41 -59 -69 -120 -69c-129 0 -169 102 -169 286c0 187 47 280 163 280c61 0 102 -36 114 -66h2v52h139v-384c0 -33 -4 -65 27 -65c13 0 22 3 37 9v-89
c-27 -15 -50 -23 -81 -23c-57 0 -95 25 -110 69zM184 602l25 144h138l-64 -144h-99z" />
    <glyph glyph-name="epsilontonos" unicode="&#x3ad;" horiz-adv-x="438" 
d="M419 392h-132c-6 39 -27 60 -61 60s-55 -15 -55 -65c0 -42 13 -58 54 -58h58v-89h-55c-40 0 -60 -29 -60 -71c0 -64 19 -89 55 -89c35 0 61 16 66 92h134c-15 -133 -80 -186 -208 -186c-115 0 -187 61 -186 167c0 70 20 114 76 143c-40 15 -63 56 -63 101
c0 100 83 155 185 155c107 0 177 -52 192 -160zM175 602l25 144h138l-64 -144h-99z" />
    <glyph glyph-name="etatonos" unicode="&#x3ae;" 
d="M46 0v538h132v-63h2c29 53 78 77 137 77c87 0 137 -46 137 -153v-575h-138v547c0 55 -18 75 -59 75c-49 0 -73 -30 -73 -89v-357h-138zM162 602l25 144h138l-64 -144h-99z" />
    <glyph glyph-name="iotatonos" unicode="&#x3af;" horiz-adv-x="258" 
d="M46 117v421h139v-384c0 -50 6 -65 26 -65c12 0 22 3 37 9v-89c-27 -15 -50 -23 -83 -23c-73 0 -119 41 -119 131zM64 602l25 144h138l-64 -144h-99z" />
    <glyph glyph-name="upsilondieresistonos" unicode="&#x3b0;" horiz-adv-x="484" 
d="M46 538h138v-359c0 -65 16 -87 58 -87c51 0 72 40 72 183c0 69 -9 189 -39 263h135c33 -79 41 -196 41 -261c0 -219 -58 -291 -219 -291c-119 0 -186 50 -186 194v358zM354 615v118h112v-118h-112zM22 615v118h112v-118h-112zM168 602l25 144h138l-64 -144h-99z" />
    <glyph glyph-name="alpha" unicode="&#x3b1;" horiz-adv-x="525" 
d="M313 267c0 128 -19 179 -71 179c-59 0 -69 -80 -69 -177c0 -115 14 -177 67 -177c56 0 73 42 73 175zM324 55h-2c-15 -41 -59 -69 -120 -69c-129 0 -169 102 -169 286c0 187 47 280 163 280c61 0 102 -36 114 -66h2v52h139v-384c0 -33 -4 -65 27 -65c13 0 22 3 37 9v-89
c-27 -15 -50 -23 -81 -23c-57 0 -95 25 -110 69z" />
    <glyph glyph-name="beta" unicode="&#x3b2;" horiz-adv-x="502" 
d="M46 -176v689c0 151 66 225 197 225c114 0 187 -53 187 -178c0 -71 -34 -113 -72 -130v-1c88 -20 111 -117 111 -203c0 -161 -68 -240 -167 -240c-61 0 -101 26 -119 75h-2v-237h-135zM218 358v90h24c39 0 54 26 54 114c0 56 -12 85 -53 85c-48 0 -58 -36 -59 -146v-218
c0 -142 15 -191 83 -191c40 0 61 37 61 133c0 116 -25 133 -69 133h-41z" />
    <glyph glyph-name="gamma" unicode="&#x3b3;" horiz-adv-x="437" 
d="M288 538h141c-26 -231 -99 -436 -158 -544c2 -61 2 -109 2 -170h-135v130c0 137 -71 443 -133 584h140c40 -95 71 -298 83 -390c21 33 57 301 60 390z" />
    <glyph glyph-name="delta" unicode="&#x3b4;" horiz-adv-x="479" 
d="M28 250c0 111 49 200 143 236c-67 56 -80 96 -79 136c1 53 41 116 163 116c41 0 103 -10 145 -39v-112c-68 46 -117 49 -136 49c-26 0 -41 -10 -41 -26c0 -15 9 -31 55 -71c90 -78 173 -157 173 -291c0 -145 -47 -262 -210 -262c-161 0 -213 89 -213 264zM166 250
c0 -106 15 -170 73 -170c60 0 73 59 73 168c0 74 -19 130 -86 186c-43 -24 -60 -90 -60 -184z" />
    <glyph glyph-name="epsilon" unicode="&#x3b5;" horiz-adv-x="438" 
d="M419 392h-132c-6 39 -27 60 -61 60s-55 -15 -55 -65c0 -42 13 -58 54 -58h58v-89h-55c-40 0 -60 -29 -60 -71c0 -64 19 -89 55 -89c35 0 61 16 66 92h134c-15 -133 -80 -186 -208 -186c-115 0 -187 61 -186 167c0 70 20 114 76 143c-40 15 -63 56 -63 101
c0 100 83 155 185 155c107 0 177 -52 192 -160z" />
    <glyph glyph-name="zeta" unicode="&#x3b6;" horiz-adv-x="376" 
d="M389 714v-102c-170 -100 -218 -195 -216 -349c1 -106 20 -171 85 -171c67 0 120 -54 120 -130c0 -22 -2 -49 -11 -90h-128c8 41 10 58 10 80c0 21 -3 48 -40 48c-105 0 -176 99 -176 263c0 156 46 255 196 339h-162v112h322z" />
    <glyph glyph-name="eta" unicode="&#x3b7;" 
d="M46 0v538h132v-63h2c29 53 78 77 137 77c87 0 137 -46 137 -153v-575h-138v547c0 55 -18 75 -59 75c-49 0 -73 -30 -73 -89v-357h-138z" />
    <glyph glyph-name="theta" unicode="&#x3b8;" horiz-adv-x="492" 
d="M174 417h145c-2 168 -23 225 -70 225c-52 0 -73 -58 -75 -225zM248 82c52 0 72 60 71 254h-144c1 -184 19 -254 73 -254zM249 738c168 0 210 -128 210 -369c0 -276 -62 -383 -210 -383c-151 0 -216 107 -216 383c0 235 41 369 216 369z" />
    <glyph glyph-name="iota" unicode="&#x3b9;" horiz-adv-x="258" 
d="M46 117v421h139v-384c0 -50 6 -65 26 -65c12 0 22 3 37 9v-89c-27 -15 -50 -23 -83 -23c-73 0 -119 41 -119 131z" />
    <glyph glyph-name="kappa" unicode="&#x3ba;" 
d="M51 538h138v-201h2l139 201h152l-155 -212l178 -326h-152l-115 221l-49 -64v-157h-138v538z" />
    <glyph glyph-name="lambda" unicode="&#x3bb;" horiz-adv-x="462" 
d="M274 94l-50 222h-1l-79 -316h-142l171 492l-22 87c-11 44 -26 58 -45 58c-11 0 -23 -2 -51 -10v89c27 14 56 22 89 22c71 0 105 -26 134 -142l93 -364c18 -73 31 -143 57 -143c10 0 19 2 36 9v-89c-28 -15 -49 -23 -81 -23c-69 0 -94 34 -109 108z" />
    <glyph glyph-name="nu" unicode="&#x3bd;" horiz-adv-x="435" 
d="M289 538h138c-20 -172 -76 -373 -139 -538h-152l-133 538h146l69 -394c24 35 64 336 71 394z" />
    <glyph glyph-name="xi" unicode="&#x3be;" horiz-adv-x="376" 
d="M33 200c0 99 26 174 108 209c-53 14 -92 54 -92 126c0 133 80 203 192 203c38 0 78 -5 120 -28v-107c-39 23 -74 37 -108 34c-30 -3 -66 -22 -66 -102c0 -62 21 -96 79 -96h81v-115h-80c-61 0 -94 -26 -94 -123c0 -104 38 -105 102 -113c65 -10 89 -59 89 -123
c0 -18 -1 -52 -10 -93h-122c7 41 9 55 9 78c0 38 -6 50 -48 50c-99 0 -160 68 -160 200z" />
    <glyph glyph-name="omicron" unicode="&#x3bf;" horiz-adv-x="480" 
d="M28 269c0 184 55 283 212 283c165 3 212 -95 212 -283c0 -184 -55 -283 -212 -283c-165 -3 -212 95 -212 283zM166 269c0 -110 6 -189 74 -189c56 0 74 54 74 189s-18 189 -74 189c-68 0 -74 -79 -74 -189z" />
    <glyph glyph-name="rho" unicode="&#x3c1;" horiz-adv-x="494" 
d="M40 -176v444c0 165 42 284 211 284c164 0 210 -117 210 -271c0 -138 -16 -295 -165 -295c-26 0 -86 6 -116 66h-2v-228h-138zM323 274c0 110 -12 172 -70 172c-64 0 -75 -64 -75 -177c0 -119 11 -176 76 -176c58 0 69 61 69 181z" />
    <glyph glyph-name="sigma1" unicode="&#x3c2;" horiz-adv-x="444" 
d="M286 92c82 0 116 -56 116 -125c0 -24 -2 -54 -11 -95h-122c7 41 9 61 9 83c0 28 -2 45 -33 45c-132 0 -217 73 -217 263c0 148 31 289 216 289c100 0 173 -49 190 -160h-132c-6 45 -33 60 -63 60c-55 0 -73 -52 -73 -189c0 -121 33 -171 114 -171h6z" />
    <glyph glyph-name="sigma" unicode="&#x3c3;" horiz-adv-x="490" 
d="M28 259c0 180 84 279 235 279h214v-113h-88c40 -32 64 -78 64 -166c0 -169 -54 -273 -213 -273c-157 0 -212 90 -212 273zM167 259c0 -134 21 -179 73 -179c53 0 74 51 74 179c0 90 -5 139 -25 167h-32c-62 0 -90 -51 -90 -167z" />
    <glyph glyph-name="tau" unicode="&#x3c4;" horiz-adv-x="398" 
d="M5 427v111h385v-111h-130v-269c0 -38 1 -66 33 -66c13 0 28 4 45 11v-94c-28 -15 -63 -23 -96 -23c-76 0 -120 47 -120 129v312h-117z" />
    <glyph glyph-name="upsilon" unicode="&#x3c5;" horiz-adv-x="484" 
d="M46 538h138v-359c0 -65 16 -87 58 -87c51 0 72 40 72 183c0 69 -9 189 -39 263h135c33 -79 41 -196 41 -261c0 -219 -58 -291 -219 -291c-119 0 -186 50 -186 194v358z" />
    <glyph glyph-name="phi" unicode="&#x3c6;" horiz-adv-x="643" 
d="M254 84v374c-71 -5 -86 -80 -86 -194c0 -122 19 -176 86 -180zM390 -13v-163h-137v163c-138 5 -225 77 -225 277c0 192 78 282 226 287v114h135v-114c148 -5 226 -95 226 -287c0 -198 -88 -274 -225 -277zM390 458v-374c67 4 86 59 86 180c0 114 -16 189 -86 194z" />
    <glyph glyph-name="chi" unicode="&#x3c7;" horiz-adv-x="406" 
d="M206 321l65 217h143l-133 -350l139 -364h-141l-74 225l-74 -225h-145l142 363l-129 351h141z" />
    <glyph glyph-name="psi" unicode="&#x3c8;" horiz-adv-x="650" 
d="M46 538h137v-289c0 -83 8 -161 70 -162v577h140v-577c61 3 86 80 86 197c0 60 -9 180 -39 254h136c32 -79 41 -196 41 -261c0 -183 -97 -275 -224 -290l1 -163h-141v165c-139 13 -207 72 -207 257v292z" />
    <glyph glyph-name="omega" unicode="&#x3c9;" horiz-adv-x="665" 
d="M438 83c37 0 54 71 54 163c0 98 -12 204 -66 292h140c58 -104 66 -205 66 -299c0 -169 -88 -252 -175 -252c-67 0 -110 29 -126 79c-21 -52 -50 -80 -127 -80c-89 0 -171 83 -171 251c0 87 5 192 66 301h140c-57 -92 -66 -204 -66 -294c0 -89 15 -162 52 -162
c27 0 42 39 42 107v225h130v-225c0 -66 11 -106 41 -106z" />
    <glyph glyph-name="iotadieresis" unicode="&#x3ca;" horiz-adv-x="258" 
d="M46 117v421h139v-384c0 -50 6 -65 26 -65c12 0 22 3 37 9v-89c-27 -15 -50 -23 -83 -23c-73 0 -119 41 -119 131zM158 615v118h112v-118h-112zM-14 615v118h112v-118h-112z" />
    <glyph glyph-name="upsilondieresis" unicode="&#x3cb;" horiz-adv-x="484" 
d="M46 538h138v-359c0 -65 16 -87 58 -87c51 0 72 40 72 183c0 69 -9 189 -39 263h135c33 -79 41 -196 41 -261c0 -219 -58 -291 -219 -291c-119 0 -186 50 -186 194v358zM253 615v118h112v-118h-112zM81 615v118h112v-118h-112z" />
    <glyph glyph-name="omicrontonos" unicode="&#x3cc;" horiz-adv-x="480" 
d="M28 269c0 184 55 283 212 283c165 3 212 -95 212 -283c0 -184 -55 -283 -212 -283c-165 -3 -212 95 -212 283zM166 269c0 -110 6 -189 74 -189c56 0 74 54 74 189s-18 189 -74 189c-68 0 -74 -79 -74 -189zM185 602l25 144h138l-64 -144h-99z" />
    <glyph glyph-name="upsilontonos" unicode="&#x3cd;" horiz-adv-x="473" 
d="M179 602l25 144h138l-64 -144h-99zM41 538h138v-359c0 -65 16 -87 58 -87c51 0 72 40 72 183c0 69 -9 189 -39 263h135c33 -79 41 -196 41 -261c0 -219 -58 -291 -219 -291c-119 0 -186 50 -186 194v358z" />
    <glyph glyph-name="omegatonos" unicode="&#x3ce;" horiz-adv-x="665" 
d="M438 83c37 0 54 71 54 163c0 98 -12 204 -66 292h140c58 -104 66 -205 66 -299c0 -169 -88 -252 -175 -252c-67 0 -110 29 -126 79c-21 -52 -50 -80 -127 -80c-89 0 -171 83 -171 251c0 87 5 192 66 301h140c-57 -92 -66 -204 -66 -294c0 -89 15 -162 52 -162
c27 0 42 39 42 107v225h130v-225c0 -66 11 -106 41 -106zM285 602l25 144h138l-64 -144h-99z" />
    <glyph glyph-name="uni0400" unicode="&#x400;" horiz-adv-x="481" 
d="M457 0h-408v712h398v-118h-255v-168h239v-116h-239v-192h265v-118zM336 778h-94l-98 144h138z" />
    <glyph glyph-name="afii10023" unicode="&#x401;" horiz-adv-x="481" 
d="M50 714h399v-118h-255v-168h240v-118h-240v-192h265v-118h-409v714zM278 769v118h112v-118h-112zM106 769v118h112v-118h-112z" />
    <glyph glyph-name="afii10051" unicode="&#x402;" horiz-adv-x="677" 
d="M638 170c0 -232 -64 -338 -254 -338h-14v108c114 0 122 111 122 229c0 127 -18 194 -97 194c-93 0 -92 -120 -92 -185v-178h-144v594h-149v118h480v-118h-187v-204c20 40 73 74 134 74c147 0 201 -97 201 -294z" />
    <glyph glyph-name="afii10052" unicode="&#x403;" horiz-adv-x="444" 
d="M358 897l-102 -144h-91l54 144h139zM199 0h-145v712h381v-118h-236v-594z" />
    <glyph glyph-name="afii10053" unicode="&#x404;" horiz-adv-x="537" 
d="M507 257c-2 -157 -43 -272 -236 -272c-230 0 -233 199 -233 369c0 174 11 372 241 372c162 0 221 -81 223 -233h-140c-2 92 -27 131 -83 131c-69 0 -90 -65 -94 -200h159v-116h-160c2 -144 17 -222 95 -222c61 0 87 47 88 171h140z" />
    <glyph glyph-name="afii10054" unicode="&#x405;" horiz-adv-x="519" 
d="M22 223h144v-21c0 -67 19 -110 95 -110c44 0 86 28 86 88c0 43 -12 74 -54 91l-107 43c-105 42 -154 97 -154 204c0 140 84 210 221 210c128 0 221 -55 221 -192v-20h-138c0 68 -22 106 -78 106c-65 0 -82 -40 -82 -83c0 -44 13 -71 74 -97l111 -48
c108 -48 136 -101 136 -189c0 -151 -92 -219 -248 -219c-163 0 -227 76 -227 208v29z" />
    <glyph glyph-name="afii10055" unicode="&#x406;" horiz-adv-x="258" 
d="M202 0h-146v712h146v-712z" />
    <glyph glyph-name="afii10056" unicode="&#x407;" horiz-adv-x="258" 
d="M271 766h-112v121h112v-121zM99 766h-112v121h112v-121zM202 0h-146v712h146v-712z" />
    <glyph glyph-name="afii10057" unicode="&#x408;" horiz-adv-x="463" 
d="M419 229c0 -157 -38 -244 -211 -244c-140 0 -193 67 -193 214v21h133v-11c0 -56 0 -123 62 -123c66 0 64 50 64 146v480h145v-483z" />
    <glyph glyph-name="afii10058" unicode="&#x409;" horiz-adv-x="851" 
d="M825 225c0 -163 -86 -225 -229 -225h-221v594h-114l-6 -274c-4 -163 -22 -326 -193 -326c-19 0 -40 3 -62 7v124c10 -2 19 -4 28 -4c70 0 86 39 89 233l6 358h397v-268h76c146 0 229 -58 229 -219zM678 224c0 89 -39 111 -114 111h-45v-226h41c87 0 118 27 118 115z" />
    <glyph glyph-name="afii10059" unicode="&#x40a;" horiz-adv-x="837" 
d="M811 225c0 -163 -86 -225 -229 -225h-221v315h-166v-315h-145v712h145v-275h166v275h145v-275h73c144 0 232 -51 232 -212zM664 219c0 89 -39 109 -114 109h-45v-219h41c82 0 118 22 118 110z" />
    <glyph glyph-name="afii10060" unicode="&#x40b;" horiz-adv-x="644" 
d="M303 0h-144v594h-149v118h480v-118h-187v-156c29 6 61 10 91 10c145 0 210 -60 210 -193v-255h-145v242c0 77 -42 92 -93 92c-17 0 -40 -2 -63 -6v-328z" />
    <glyph glyph-name="afii10061" unicode="&#x40c;" horiz-adv-x="537" 
d="M553 0h-163l-147 290l-53 -78v-212h-141v712h141v-293l184 293h156l-194 -305zM408 897l-102 -144h-91l54 144h139z" />
    <glyph glyph-name="uni040D" unicode="&#x40d;" horiz-adv-x="574" 
d="M523 0h-145v352c0 40 2 79 6 105l-178 -457h-155v712h145v-339c0 -34 -1 -85 -4 -117l176 456h155v-712zM353 778h-94l-98 144h138z" />
    <glyph glyph-name="afii10062" unicode="&#x40e;" horiz-adv-x="520" 
d="M2 712h158l105 -349l101 349h152l-171 -512c-49 -148 -82 -204 -214 -204c-24 0 -27 0 -65 4v109c14 -2 29 -3 42 -3c47 0 62 25 81 69l7 16zM414 900c-2 -96 -53 -148 -148 -148s-146 52 -148 148h68c6 -44 36 -67 80 -67s74 23 80 67h68z" />
    <glyph glyph-name="afii10145" unicode="&#x40f;" horiz-adv-x="556" 
d="M506 0h-161v-161h-133v161h-162v712h145v-594h166v594h145v-712z" />
    <glyph glyph-name="afii10017" unicode="&#x410;" horiz-adv-x="556" 
d="M555 0h-151l-36 152h-181l-36 -152h-150l188 712h183zM348 266l-70 318l-72 -318h142z" />
    <glyph glyph-name="afii10018" unicode="&#x411;" horiz-adv-x="548" 
d="M511 224c0 -163 -88 -224 -239 -224h-221v712h417v-118h-273v-155h88c144 0 228 -54 228 -215zM364 225c0 81 -39 104 -114 104h-55v-219h51c82 0 118 23 118 115z" />
    <glyph glyph-name="afii10019" unicode="&#x412;" horiz-adv-x="556" 
d="M520 203c0 -158 -103 -203 -241 -203h-224v712h229c125 0 214 -46 214 -179c0 -77 -35 -138 -110 -157c88 -18 132 -74 132 -173zM354 514c0 86 -54 92 -125 92h-31v-186h32c68 0 124 5 124 94zM372 214c0 82 -39 108 -116 108h-58v-216h58c73 0 116 23 116 108z" />
    <glyph glyph-name="afii10020" unicode="&#x413;" horiz-adv-x="444" 
d="M199 0h-145v712h381v-118h-236v-594z" />
    <glyph glyph-name="afii10021" unicode="&#x414;" horiz-adv-x="611" 
d="M603 -161h-133v161h-337v-161h-133v279h57c71 135 86 255 86 422v172h393v-594h67v-279zM394 118v476h-113v-114c0 -185 -29 -286 -68 -362h181z" />
    <glyph glyph-name="afii10022" unicode="&#x415;" horiz-adv-x="481" 
d="M457 0h-408v712h398v-118h-255v-168h239v-116h-239v-192h265v-118z" />
    <glyph glyph-name="afii10024" unicode="&#x416;" horiz-adv-x="805" 
d="M815 0h-156l-132 287l-54 -89v-198h-140v198l-54 89l-132 -287h-156l203 412l-179 300h149l172 -296c-2 26 -3 77 -3 104v192h140v-192c0 -27 -1 -78 -3 -104l172 296h149l-179 -300z" />
    <glyph glyph-name="afii10025" unicode="&#x417;" horiz-adv-x="523" 
d="M487 210c0 -151 -88 -223 -237 -223c-154 0 -224 69 -224 222v6h140v-4c0 -63 13 -124 89 -124c52 0 85 37 85 114c0 81 -31 112 -102 112c-8 0 -33 0 -46 -2v114c7 -2 20 -2 27 -2c78 0 109 30 109 110c0 61 -29 91 -75 91c-44 0 -72 -23 -79 -67c-3 -15 -3 -22 -3 -41
h-138v6c0 134 73 202 222 202c138 0 215 -67 215 -188c0 -69 -36 -141 -106 -160c78 -17 123 -71 123 -166z" />
    <glyph glyph-name="afii10026" unicode="&#x418;" horiz-adv-x="574" 
d="M523 0h-145v352c0 40 2 79 6 105l-178 -457h-155v712h145v-339c0 -34 -1 -85 -4 -117l176 456h155v-712z" />
    <glyph glyph-name="afii10027" unicode="&#x419;" horiz-adv-x="574" 
d="M434 900c-2 -96 -53 -148 -148 -148s-146 52 -148 148h68c6 -44 36 -67 80 -67s74 23 80 67h68zM523 0h-145v352c0 40 2 79 6 105l-178 -457h-155v712h145v-339c0 -34 -1 -85 -4 -117l176 456h155v-712z" />
    <glyph glyph-name="afii10028" unicode="&#x41a;" horiz-adv-x="537" 
d="M553 0h-163l-147 290l-53 -78v-212h-141v712h141v-293l184 293h156l-194 -305z" />
    <glyph glyph-name="afii10029" unicode="&#x41b;" horiz-adv-x="574" 
d="M520 0h-145v594h-114l-6 -274c-4 -163 -22 -326 -193 -326c-19 0 -40 3 -62 7v124c10 -2 19 -4 28 -4c70 0 86 39 89 233l6 358h397v-712z" />
    <glyph glyph-name="afii10030" unicode="&#x41c;" horiz-adv-x="740" 
d="M688 0h-135v568l-128 -568h-112l-128 568v-568h-133v712h212l105 -503l107 503h212v-712z" />
    <glyph glyph-name="afii10031" unicode="&#x41d;" horiz-adv-x="556" 
d="M506 0h-145v315h-166v-315h-145v712h145v-275h166v275h145v-712z" />
    <glyph glyph-name="afii10032" unicode="&#x41e;" horiz-adv-x="556" 
d="M521 362c0 -184 -7 -377 -246 -377c-229 0 -240 200 -240 373c0 182 13 369 244 369c229 0 242 -185 242 -365zM373 348c0 174 -3 277 -95 277c-90 0 -96 -103 -96 -265c0 -168 9 -273 95 -273c87 0 96 91 96 261z" />
    <glyph glyph-name="afii10033" unicode="&#x41f;" horiz-adv-x="556" 
d="M506 0h-145v594h-166v-594h-145v712h456v-712z" />
    <glyph glyph-name="afii10034" unicode="&#x420;" horiz-adv-x="519" 
d="M494 499c0 -153 -87 -214 -231 -214h-72v-285h-144v712h221c143 0 226 -58 226 -213zM347 499c0 82 -36 107 -115 107h-42v-215h46c75 0 111 22 111 108z" />
    <glyph glyph-name="afii10035" unicode="&#x421;" horiz-adv-x="537" 
d="M507 268c0 -163 -39 -283 -236 -283c-230 0 -233 199 -233 369c0 174 11 372 241 372c164 0 223 -84 223 -241v-10h-140v9c0 98 -25 140 -83 140c-80 0 -93 -87 -93 -268c0 -174 7 -270 93 -270c63 0 88 50 88 182h140z" />
    <glyph glyph-name="afii10036" unicode="&#x422;" horiz-adv-x="480" 
d="M470 591h-157v-591h-144v591h-159v121h460v-121z" />
    <glyph glyph-name="afii10037" unicode="&#x423;" horiz-adv-x="520" 
d="M2 712h158l105 -349l101 349h152l-171 -512c-49 -148 -82 -204 -214 -204c-24 0 -27 0 -65 4v109c14 -2 29 -3 42 -3c47 0 62 25 81 69l7 16z" />
    <glyph glyph-name="afii10038" unicode="&#x424;" horiz-adv-x="767" 
d="M737 362c0 -175 -104 -278 -281 -278v-94h-145v94c-177 0 -281 103 -281 278c0 167 104 269 281 269v91h145v-91c177 0 281 -101 281 -269zM589 362c0 98 -44 158 -139 158v-325c96 0 139 67 139 167zM317 195v325c-95 0 -139 -60 -139 -158c0 -100 43 -167 139 -167z
" />
    <glyph glyph-name="afii10039" unicode="&#x425;" horiz-adv-x="537" 
d="M531 0h-162l-103 242l-102 -242h-158l179 363l-166 349h161l91 -232l91 232h157l-167 -350z" />
    <glyph glyph-name="afii10040" unicode="&#x426;" horiz-adv-x="579" 
d="M506 118h67v-279h-133v161h-390v712h145v-594h166v594h145v-594z" />
    <glyph glyph-name="afii10041" unicode="&#x427;" horiz-adv-x="537" 
d="M341 283c-29 -6 -64 -10 -94 -10c-145 0 -210 60 -210 193v246h145v-233c0 -77 42 -92 93 -92c17 0 43 2 66 6v319h145v-712h-145v283z" />
    <glyph glyph-name="afii10042" unicode="&#x428;" horiz-adv-x="833" 
d="M50 0v712h145v-594h149v594h145v-594h149v594h145v-712h-733z" />
    <glyph glyph-name="afii10043" unicode="&#x429;" horiz-adv-x="856" 
d="M50 0v712h145v-594h149v594h145v-594h149v594h145v-594h67v-279h-133v161h-667z" />
    <glyph glyph-name="afii10044" unicode="&#x42a;" horiz-adv-x="630" 
d="M604 225c0 -163 -86 -225 -229 -225h-221v594h-144v118h289v-268h76c146 0 229 -58 229 -219zM457 224c0 89 -39 111 -114 111h-45v-226h41c87 0 118 27 118 115z" />
    <glyph glyph-name="afii10045" unicode="&#x42b;" horiz-adv-x="753" 
d="M703 0h-145v712h145v-712zM500 225c0 -163 -86 -225 -229 -225h-221v712h145v-268h76c146 0 229 -58 229 -219zM353 224c0 89 -39 111 -114 111h-45v-226h41c87 0 118 27 118 115z" />
    <glyph glyph-name="afii10046" unicode="&#x42c;" horiz-adv-x="523" 
d="M497 225c0 -163 -86 -225 -229 -225h-221v712h145v-268h76c146 0 229 -58 229 -219zM350 224c0 89 -39 111 -114 111h-45v-226h41c87 0 118 27 118 115z" />
    <glyph glyph-name="afii10047" unicode="&#x42d;" horiz-adv-x="537" 
d="M507 354c0 -170 -3 -369 -233 -369c-193 0 -234 115 -236 272h140c1 -124 27 -171 88 -171c78 0 93 78 95 222h-160v116h159c-4 135 -25 200 -94 200c-56 0 -81 -39 -83 -131h-140c2 152 61 233 223 233c230 0 241 -198 241 -372z" />
    <glyph glyph-name="afii10048" unicode="&#x42e;" horiz-adv-x="800" 
d="M765 362c0 -184 -7 -377 -246 -377c-209 0 -236 166 -240 327h-84v-312h-145v712h145v-284h85c6 157 42 299 243 299c229 0 242 -185 242 -365zM617 348c0 174 -3 277 -95 277c-90 0 -96 -103 -96 -265c0 -168 9 -273 95 -273c87 0 96 91 96 261z" />
    <glyph glyph-name="afii10049" unicode="&#x42f;" horiz-adv-x="548" 
d="M303 275l-136 -275h-163l157 292c-77 28 -124 93 -124 202c0 155 89 218 226 218h235v-712h-144v275h-51zM355 381v225h-56c-79 0 -115 -30 -115 -112c0 -86 36 -113 111 -113h60z" />
    <glyph glyph-name="afii10065" unicode="&#x430;" horiz-adv-x="481" 
d="M169 373h-124v13c0 124 85 166 189 166c164 0 195 -68 195 -165v-283c0 -51 4 -72 17 -104h-132c-9 17 -13 37 -17 56h-2c-32 -56 -70 -70 -137 -70c-96 0 -130 82 -130 154c0 102 41 142 144 170l63 17c48 13 62 29 62 65c0 41 -17 66 -64 66c-43 0 -64 -27 -64 -70v-15
zM297 163v108c-14 -11 -30 -19 -47 -25l-30 -11c-52 -19 -60 -47 -60 -80c0 -41 15 -75 52 -75s85 23 85 83z" />
    <glyph glyph-name="afii10066" unicode="&#x431;" horiz-adv-x="486" 
d="M444 741c-6 -113 -73 -127 -163 -143c-110 -19 -169 -52 -178 -174h4c24 72 94 113 154 113c157 0 197 -114 197 -273c0 -164 -39 -277 -217 -277c-185 0 -203 150 -203 340c0 178 33 352 198 380c59 10 98 15 105 34h103zM320 265c0 146 -19 182 -71 182
c-53 0 -73 -41 -73 -187c0 -131 16 -182 71 -182c56 0 73 45 73 187z" />
    <glyph glyph-name="afii10067" unicode="&#x432;" horiz-adv-x="490" 
d="M456 153c0 -119 -77 -153 -182 -153h-227v537h231c94 0 162 -35 162 -135c0 -58 -27 -104 -83 -118c66 -14 99 -56 99 -131zM306 383c0 53 -32 58 -86 58h-38v-117h39c52 0 85 4 85 59zM319 165c0 54 -24 69 -78 69h-59v-138h59c51 0 78 14 78 69z" />
    <glyph glyph-name="afii10068" unicode="&#x433;" horiz-adv-x="382" 
d="M186 430v-430h-137v537h329v-107h-192z" />
    <glyph glyph-name="afii10069" unicode="&#x434;" horiz-adv-x="519" 
d="M515 -145h-125v145h-262v-145h-125v255h45c33 71 57 161 57 307v120h348v-427h62v-255zM319 110v323h-85v-47c0 -84 -19 -215 -51 -276h136z" />
    <glyph glyph-name="afii10070" unicode="&#x435;" horiz-adv-x="463" 
d="M439 278c0 -10 0 -16 -1 -29h-273v-8c0 -124 18 -165 73 -165c45 0 67 34 69 106h127c-3 -131 -73 -196 -201 -196c-180 0 -207 133 -207 283c0 154 28 282 212 282c175 0 201 -123 201 -273zM305 331c0 49 2 130 -67 130s-73 -80 -73 -130h140z" />
    <glyph glyph-name="afii10072" unicode="&#x436;" horiz-adv-x="704" 
d="M703 0h-141l-98 217l-46 -68v-149h-132v149l-46 68l-98 -217h-141l155 320l-143 217h140l136 -221c-2 13 -3 45 -3 61v160h132v-160c0 -16 -1 -48 -3 -61l136 221h140l-143 -217z" />
    <glyph glyph-name="afii10073" unicode="&#x437;" horiz-adv-x="453" 
d="M419 158c0 -115 -78 -172 -200 -172c-125 0 -195 52 -195 179v10h123v-7c0 -58 15 -91 68 -91c40 0 66 33 66 79c0 55 -20 77 -67 77c-6 0 -33 -1 -41 -2v93c5 -1 31 -1 36 -1c35 0 63 22 63 76c0 41 -19 62 -54 62c-47 0 -63 -29 -63 -74v-7h-122v9
c0 119 79 163 192 163c124 0 180 -54 180 -146c0 -53 -27 -107 -80 -122c59 -12 94 -54 94 -126z" />
    <glyph glyph-name="afii10074" unicode="&#x438;" horiz-adv-x="519" 
d="M472 0h-133v220c0 34 2 94 5 117l-153 -337h-144v537h132v-221c0 -25 -2 -96 -5 -117l153 338h145v-537z" />
    <glyph glyph-name="afii10075" unicode="&#x439;" horiz-adv-x="519" 
d="M399 727c-4 -86 -58 -140 -140 -140c-86 0 -138 53 -140 140h66c5 -40 34 -66 74 -66c41 0 68 24 73 66h67zM472 0h-133v220c0 34 2 94 5 117l-153 -337h-144v537h132v-221c0 -25 -2 -96 -5 -117l153 338h145v-537z" />
    <glyph glyph-name="afii10076" unicode="&#x43a;" 
d="M505 0h-153l-108 208l-53 -74v-134h-134v537h134v-221l142 221h150l-154 -222z" />
    <glyph glyph-name="afii10077" unicode="&#x43b;" 
d="M453 0h-137v430h-94l-6 -217c-5 -197 -75 -221 -153 -221c-23 0 -48 4 -64 8v108c6 -2 21 -5 28 -5c23 0 54 -1 57 111l10 323h359v-537z" />
    <glyph glyph-name="afii10078" unicode="&#x43c;" horiz-adv-x="660" 
d="M611 0h-129v299c0 18 3 64 4 83h-3l-96 -382h-114l-96 382h-3c3 -20 4 -64 4 -84v-298h-129v537h197l84 -359l84 359h197v-537z" />
    <glyph glyph-name="afii10079" unicode="&#x43d;" 
d="M316 227h-132v-227h-137v537h137v-196h132v196h137v-537h-137v227z" />
    <glyph glyph-name="afii10080" unicode="&#x43e;" horiz-adv-x="480" 
d="M452 271c0 -165 -35 -284 -219 -284c-181 0 -205 133 -205 281c0 152 30 283 215 283c180 0 209 -121 209 -280zM314 272c0 143 -17 186 -73 186s-75 -47 -75 -191c0 -124 12 -187 73 -187c62 0 75 63 75 192z" />
    <glyph glyph-name="afii10081" unicode="&#x43f;" 
d="M453 0h-137v430h-132v-430h-137v537h406v-537z" />
    <glyph glyph-name="afii10082" unicode="&#x440;" 
d="M466 279c0 -116 -6 -292 -164 -292c-55 0 -89 21 -117 65v-228h-138v713h132v-68c21 53 64 81 124 81c150 0 163 -158 163 -271zM327 267c0 104 -7 178 -71 178c-69 0 -75 -76 -75 -170c0 -133 13 -183 72 -183c64 0 74 70 74 175z" />
    <glyph glyph-name="afii10083" unicode="&#x441;" horiz-adv-x="463" 
d="M439 208c-3 -148 -54 -222 -207 -222c-173 0 -203 130 -203 281c0 161 35 286 215 286c139 0 193 -71 195 -204h-131c0 47 -3 109 -66 109c-55 0 -75 -49 -75 -186c0 -127 11 -192 75 -192c49 0 69 36 69 128h128z" />
    <glyph glyph-name="afii10084" unicode="&#x442;" horiz-adv-x="419" 
d="M415 430h-137v-430h-137v430h-137v107h411v-107z" />
    <glyph glyph-name="afii10085" unicode="&#x443;" horiz-adv-x="444" 
d="M442 537l-133 -513c-15 -56 -28 -96 -42 -125c-26 -57 -68 -78 -152 -78c-24 0 -34 0 -67 3v99c12 -1 24 -2 37 -2c51 0 67 26 76 74l-154 542h145l81 -374l70 374h139z" />
    <glyph glyph-name="afii10086" unicode="&#x444;" horiz-adv-x="722" 
d="M694 279c0 -116 -4 -292 -162 -292c-50 0 -76 17 -103 53v-216h-136v216c-27 -36 -53 -53 -103 -53c-158 0 -162 176 -162 292c0 113 11 271 161 271c49 0 80 -19 104 -54v216h136v-216c24 35 55 54 104 54c150 0 161 -158 161 -271zM555 267c0 104 -4 178 -68 178
c-30 0 -50 -19 -60 -49v-257c10 -33 31 -47 57 -47c64 0 71 70 71 175zM295 139v257c-10 30 -30 49 -60 49c-64 0 -68 -74 -68 -178c0 -105 7 -175 71 -175c26 0 47 14 57 47z" />
    <glyph glyph-name="afii10087" unicode="&#x445;" horiz-adv-x="462" 
d="M455 0h-142l-82 176l-81 -176h-143l145 278l-138 259h143l73 -162l75 162h143l-138 -259z" />
    <glyph glyph-name="afii10088" unicode="&#x446;" horiz-adv-x="519" 
d="M453 110h62v-255h-125v145h-343v537h137v-427h132v427h137v-427z" />
    <glyph glyph-name="afii10089" unicode="&#x447;" horiz-adv-x="478" 
d="M292 0v201c-19 -3 -72 -6 -91 -6c-114 0 -168 51 -168 154v188h137v-179c0 -49 25 -58 60 -58c11 0 48 2 62 4v233h137v-537h-137z" />
    <glyph glyph-name="afii10090" unicode="&#x448;" horiz-adv-x="735" 
d="M47 0v537h135v-427h118v427h135v-427h118v427h135v-537h-641z" />
    <glyph glyph-name="afii10091" unicode="&#x449;" horiz-adv-x="754" 
d="M47 0v537h135v-427h118v427h135v-427h118v427h135v-427h62v-255h-125v145h-578z" />
    <glyph glyph-name="afii10092" unicode="&#x44a;" horiz-adv-x="530" 
d="M113 430h-109v107h246v-182h72c113 0 184 -46 184 -174c0 -127 -67 -181 -180 -181h-213v430zM372 177c0 57 -23 75 -73 75h-49v-149h46c56 0 76 18 76 74z" />
    <glyph glyph-name="afii10093" unicode="&#x44b;" horiz-adv-x="660" 
d="M613 0h-137v537h137v-537zM434 181c0 -127 -67 -181 -180 -181h-207v537h137v-182h66c113 0 184 -46 184 -174zM300 177c0 57 -23 75 -73 75h-43v-149h40c56 0 76 18 76 74z" />
    <glyph glyph-name="afii10094" unicode="&#x44c;" horiz-adv-x="463" 
d="M440 181c0 -127 -67 -181 -180 -181h-213v537h137v-182h72c113 0 184 -46 184 -174zM306 177c0 57 -23 75 -73 75h-49v-149h46c56 0 76 18 76 74z" />
    <glyph glyph-name="afii10095" unicode="&#x44d;" horiz-adv-x="463" 
d="M297 230h-131v95h131c-5 100 -27 133 -77 133s-63 -44 -65 -86h-131c8 118 63 181 194 181c180 0 215 -114 215 -286c0 -161 -37 -281 -203 -281c-142 0 -196 64 -206 192h128c4 -70 25 -98 68 -98c57 0 74 52 77 150z" />
    <glyph glyph-name="afii10096" unicode="&#x44e;" horiz-adv-x="696" 
d="M668 271c0 -165 -35 -284 -219 -284c-163 0 -199 108 -204 237h-61v-224h-137v537h137v-203h62c10 122 55 217 213 217c180 0 209 -121 209 -280zM530 272c0 143 -17 186 -73 186s-75 -47 -75 -191c0 -124 12 -187 73 -187c62 0 75 63 75 192z" />
    <glyph glyph-name="afii10097" unicode="&#x44f;" horiz-adv-x="486" 
d="M163 0h-155l124 213c-62 22 -100 73 -100 154c0 119 72 170 180 170h227v-537h-137v199h-38zM303 439h-56c-54 0 -81 -21 -81 -72s23 -70 74 -70h63v142z" />
    <glyph glyph-name="uni0450" unicode="&#x450;" horiz-adv-x="463" 
d="M439 278c0 -10 0 -16 -1 -29h-273v-8c0 -124 18 -165 73 -165c45 0 67 34 69 106h127c-3 -131 -73 -196 -201 -196c-180 0 -207 133 -207 283c0 154 28 282 212 282c175 0 201 -123 201 -273zM305 331c0 49 2 130 -67 130s-73 -80 -73 -130h140zM297 602h-94l-98 144h138
z" />
    <glyph glyph-name="afii10071" unicode="&#x451;" horiz-adv-x="463" 
d="M374 599h-112v118h112v-118zM202 599h-113v118h113v-118zM439 278c0 -10 0 -16 -1 -29h-273v-8c0 -124 18 -165 73 -165c45 0 67 34 69 106h127c-3 -131 -73 -196 -201 -196c-180 0 -207 133 -207 283c0 154 28 282 212 282c175 0 201 -123 201 -273zM305 331
c0 49 2 130 -67 130s-73 -80 -73 -130h140z" />
    <glyph glyph-name="afii10099" unicode="&#x452;" 
d="M461 87c0 -148 -26 -267 -205 -267c-19 0 -35 1 -43 3v99c11 -1 25 -2 33 -2c57 0 77 26 77 143v140c0 44 5 105 -58 105c-48 0 -73 -40 -73 -88v-220h-136v455h-50v96h50v161h136v-161h182v-96h-182v-108c41 47 78 66 131 66c106 0 138 -68 138 -163v-163z" />
    <glyph glyph-name="afii10100" unicode="&#x453;" horiz-adv-x="382" 
d="M318 731l-101 -144h-91l54 144h138zM186 430v-430h-137v537h329v-107h-192z" />
    <glyph glyph-name="afii10101" unicode="&#x454;" horiz-adv-x="463" 
d="M439 178c-10 -128 -64 -192 -206 -192c-166 0 -203 120 -203 281c0 172 35 286 215 286c131 0 186 -63 194 -181h-131c-2 42 -15 86 -65 86s-71 -33 -76 -133h130v-95h-130c3 -98 19 -150 76 -150c43 0 64 28 68 98h128z" />
    <glyph glyph-name="afii10102" unicode="&#x455;" horiz-adv-x="444" 
d="M23 176h124v-18c0 -47 25 -78 72 -78c43 0 70 21 70 64c0 35 -23 51 -50 61l-97 35c-76 27 -115 74 -115 150c0 88 57 162 198 162c125 0 184 -56 184 -153v-22h-124c0 55 -16 81 -61 81c-35 0 -65 -19 -65 -58c0 -27 13 -48 60 -63l83 -28c87 -29 119 -73 119 -154
c0 -113 -84 -169 -200 -169c-156 0 -198 67 -198 171v19z" />
    <glyph glyph-name="afii10103" unicode="&#x456;" horiz-adv-x="240" 
d="M189 599h-138v118h138v-118zM189 0h-138v537h138v-537z" />
    <glyph glyph-name="afii10104" unicode="&#x457;" horiz-adv-x="240" 
d="M262 599h-112v118h112v-118zM90 599h-112v118h112v-118zM189 0h-138v537h138v-537z" />
    <glyph glyph-name="afii10105" unicode="&#x458;" horiz-adv-x="240" 
d="M194 599h-138v118h138v-118zM194 7c0 -132 -15 -187 -161 -187c-19 0 -29 1 -53 2v100c11 -1 13 -1 21 -1c56 0 55 29 55 102v514h138v-530z" />
    <glyph glyph-name="afii10106" unicode="&#x459;" horiz-adv-x="733" 
d="M709 181c0 -127 -67 -181 -180 -181h-213v430h-94l-6 -217c-5 -197 -75 -221 -153 -221c-23 0 -48 4 -64 8v108c6 -2 21 -5 28 -5c23 0 54 -1 57 111l10 323h359v-182h72c113 0 184 -46 184 -174zM575 177c0 57 -23 75 -73 75h-49v-149h46c56 0 76 18 76 74z" />
    <glyph glyph-name="afii10107" unicode="&#x45a;" horiz-adv-x="733" 
d="M709 174c0 -123 -64 -174 -173 -174h-220v227h-132v-227h-137v537h137v-196h132v196h137v-196h79c110 0 177 -44 177 -167zM575 177c0 53 -20 68 -66 68h-56v-135h53c52 0 69 15 69 67z" />
    <glyph glyph-name="afii10108" unicode="&#x45b;" 
d="M374 551v-96h-182v-108c41 47 78 66 131 66c106 0 138 -68 138 -163v-250h-138v203c0 44 5 105 -58 105c-48 0 -73 -40 -73 -88v-220h-136v455h-50v96h50v161h136v-161h182z" />
    <glyph glyph-name="afii10109" unicode="&#x45c;" 
d="M378 731l-101 -144h-91l54 144h138zM505 0h-153l-108 208l-53 -74v-134h-134v537h134v-221l142 221h150l-154 -222z" />
    <glyph glyph-name="uni045D" unicode="&#x45d;" horiz-adv-x="519" 
d="M472 0h-133v220c0 34 2 94 5 117l-153 -337h-144v537h132v-221c0 -25 -2 -96 -5 -117l153 338h145v-537zM325 602h-94l-98 144h138z" />
    <glyph glyph-name="afii10110" unicode="&#x45e;" horiz-adv-x="444" 
d="M442 537l-133 -513c-15 -56 -28 -96 -42 -125c-26 -57 -68 -78 -152 -78c-24 0 -34 0 -67 3v99c12 -1 24 -2 37 -2c51 0 67 26 76 74l-154 542h145l81 -374l70 374h139zM371 727c-4 -86 -58 -140 -140 -140c-86 0 -138 53 -140 140h66c5 -40 34 -66 74 -66
c41 0 68 24 73 66h67z" />
    <glyph glyph-name="afii10193" unicode="&#x45f;" 
d="M453 0h-141v-145h-125v145h-140v537h137v-427h132v427h137v-537z" />
    <glyph glyph-name="afii10146" unicode="&#x462;" horiz-adv-x="577" 
d="M10 530v110h93v74h144v-74h132v-110h-132v-101h77c136 0 227 -67 227 -215c0 -107 -49 -214 -196 -214h-252v530h-93zM247 323v-217h60c72 0 100 39 100 110c0 73 -39 107 -96 107h-64z" />
    <glyph glyph-name="afii10194" unicode="&#x463;" horiz-adv-x="507" 
d="M5 453v98h86v163h137v-163h146v-98h-146v-123h72c113 0 184 -43 184 -162c0 -118 -67 -168 -180 -168h-213v453h-86zM350 162c0 53 -23 66 -73 66h-49v-132h46c56 0 76 13 76 66z" />
    <glyph glyph-name="afii10147" unicode="&#x472;" horiz-adv-x="556" 
d="M35 357c0 217 27 371 243 371s243 -154 243 -371s-27 -371 -243 -371s-243 154 -243 371zM278 622c-77 0 -96 -61 -99 -215h197c-3 154 -21 215 -98 215zM278 92c77 0 95 60 98 214h-197c3 -154 22 -214 99 -214z" />
    <glyph glyph-name="afii10195" unicode="&#x473;" horiz-adv-x="480" 
d="M28 269c0 184 55 283 212 283c165 3 212 -95 212 -283c0 -184 -55 -283 -212 -283c-165 -3 -212 95 -212 283zM240 80c49 0 69 42 73 144h-147c3 -86 15 -144 74 -144zM240 458c-57 0 -71 -56 -74 -139h147c-5 98 -25 139 -73 139z" />
    <glyph glyph-name="afii10148" unicode="&#x474;" horiz-adv-x="542" 
d="M481 552l-129 -552h-185l-164 714h154l101 -528h3l92 423c20 91 67 119 131 119c22 0 43 -2 63 -8v-130c-11 4 -22 6 -31 6c-19 0 -28 -14 -35 -44z" />
    <glyph glyph-name="afii10196" unicode="&#x475;" horiz-adv-x="460" 
d="M407 408l-103 -408h-160l-139 538h144l77 -385h2l59 290c16 81 60 109 126 109c21 0 34 -2 52 -8v-104c-8 3 -18 5 -27 5c-14 0 -25 -12 -31 -37z" />
    <glyph glyph-name="afii10050" unicode="&#x490;" horiz-adv-x="444" 
d="M435 594h-236v-594h-145v712h248v141h133v-259z" />
    <glyph glyph-name="afii10098" unicode="&#x491;" horiz-adv-x="382" 
d="M378 430h-192v-430h-137v537h204v145h125v-252z" />
    </font>
</defs>
</svg>
